<?xml version="1.0" encoding="utf-8"?>
<!-- Generator: Adobe Illustrator 19.0.0, SVG Export Plug-In . SVG Version: 6.00 Build 0)  -->
<svg version="1.1" id="Layer_1" xmlns="http://www.w3.org/2000/svg" xmlns:xlink="http://www.w3.org/1999/xlink" x="0px" y="0px"
	 viewBox="0 0 2718.2 1337" style="enable-background:new 0 0 2718.2 1337;" xml:space="preserve">
<style type="text/css">
	.st0{clip-path:url(#SVGID_2_);fill:#79C798;}
	.st1{fill:#FFFFFF;}
	.st2{fill:#6DD480;}
	.st3{clip-path:url(#SVGID_4_);}
	.st4{clip-path:url(#SVGID_6_);fill:#939598;}
	.st5{clip-path:url(#SVGID_6_);fill:#54A964;}
	.st6{clip-path:url(#SVGID_6_);fill:#4DA8F2;}
	.st7{clip-path:url(#SVGID_6_);fill:#FFC955;}
	.st8{clip-path:url(#SVGID_6_);fill:#ECBA42;}
	.st9{clip-path:url(#SVGID_6_);fill:#202338;}
	.st10{clip-path:url(#SVGID_6_);fill:#464240;}
	.st11{clip-path:url(#SVGID_6_);fill:#EB4747;}
	.st12{clip-path:url(#SVGID_6_);fill:#81C7A0;}
	.st13{clip-path:url(#SVGID_6_);fill:#EEA886;}
	.st14{clip-path:url(#SVGID_6_);fill:#A77860;}
	.st15{clip-path:url(#SVGID_6_);fill:#5E5853;}
	.st16{clip-path:url(#SVGID_6_);fill:#91887F;}
	.st17{clip-path:url(#SVGID_6_);fill:#A7A9AC;}
	.st18{clip-path:url(#SVGID_6_);fill:#6E6760;}
	.st19{clip-path:url(#SVGID_6_);fill:#CF8C6C;}
	.st20{clip-path:url(#SVGID_6_);fill:#3B3F66;}
	.st21{clip-path:url(#SVGID_6_);fill:#555C94;}
	.st22{clip-path:url(#SVGID_6_);fill:#354C70;}
	.st23{clip-path:url(#SVGID_6_);fill:#DEB135;}
	.st24{clip-path:url(#SVGID_6_);fill:#F2C344;}
	.st25{clip-path:url(#SVGID_6_);fill:#84BDFF;}
	.st26{clip-path:url(#SVGID_6_);fill:#EEA987;}
	.st27{clip-path:url(#SVGID_6_);fill:#FFD255;}
	.st28{clip-path:url(#SVGID_6_);fill:#3C5780;}
	.st29{clip-path:url(#SVGID_6_);fill:#16202E;}
	.st30{clip-path:url(#SVGID_6_);fill:#C48A6F;}
	.st31{clip-path:url(#SVGID_8_);fill:#96CBFF;}
	.st32{clip-path:url(#SVGID_8_);fill:#95CAFF;}
	.st33{clip-path:url(#SVGID_8_);fill:#94C9FF;}
	.st34{clip-path:url(#SVGID_8_);fill:#93C9FF;}
	.st35{clip-path:url(#SVGID_8_);fill:#92C8FF;}
	.st36{clip-path:url(#SVGID_8_);fill:#91C7FF;}
	.st37{clip-path:url(#SVGID_8_);fill:#90C6FF;}
	.st38{clip-path:url(#SVGID_8_);fill:#8FC6FF;}
	.st39{clip-path:url(#SVGID_8_);fill:#8EC5FF;}
	.st40{clip-path:url(#SVGID_8_);fill:#8DC4FF;}
	.st41{clip-path:url(#SVGID_8_);fill:#8CC3FF;}
	.st42{clip-path:url(#SVGID_8_);fill:#8BC2FF;}
	.st43{clip-path:url(#SVGID_8_);fill:#8AC2FF;}
	.st44{clip-path:url(#SVGID_8_);fill:#89C1FF;}
	.st45{clip-path:url(#SVGID_8_);fill:#88C0FF;}
	.st46{clip-path:url(#SVGID_8_);fill:#87BFFF;}
	.st47{clip-path:url(#SVGID_8_);fill:#86BFFF;}
	.st48{clip-path:url(#SVGID_8_);fill:#85BEFF;}
	.st49{clip-path:url(#SVGID_8_);fill:#84BDFF;}
	.st50{clip-path:url(#SVGID_8_);fill:#83BCFF;}
	.st51{clip-path:url(#SVGID_8_);fill:#82BBFF;}
	.st52{clip-path:url(#SVGID_8_);fill:#81BBFF;}
	.st53{clip-path:url(#SVGID_8_);fill:#80BAFF;}
	.st54{clip-path:url(#SVGID_8_);fill:#7FB9FF;}
	.st55{clip-path:url(#SVGID_8_);fill:#7EB8FF;}
	.st56{clip-path:url(#SVGID_8_);fill:#7DB7FF;}
	.st57{clip-path:url(#SVGID_8_);fill:#7CB7FF;}
	.st58{clip-path:url(#SVGID_8_);fill:#7BB6FF;}
	.st59{clip-path:url(#SVGID_8_);fill:#7AB5FF;}
	.st60{clip-path:url(#SVGID_8_);fill:#79B4FF;}
	.st61{clip-path:url(#SVGID_8_);fill:#78B4FF;}
	.st62{clip-path:url(#SVGID_8_);fill:#77B3FF;}
	.st63{clip-path:url(#SVGID_8_);fill:#76B2FF;}
	.st64{clip-path:url(#SVGID_8_);fill:#74B1FF;}
	.st65{clip-path:url(#SVGID_8_);fill:#73B0FF;}
	.st66{clip-path:url(#SVGID_8_);fill:#72B0FF;}
	.st67{clip-path:url(#SVGID_8_);fill:#71AFFF;}
	.st68{clip-path:url(#SVGID_8_);fill:#70AEFF;}
	.st69{clip-path:url(#SVGID_8_);fill:#6FADFF;}
	.st70{clip-path:url(#SVGID_8_);fill:#6EADFF;}
	.st71{clip-path:url(#SVGID_8_);fill:#6DACFF;}
	.st72{clip-path:url(#SVGID_8_);fill:#6CABFF;}
	.st73{clip-path:url(#SVGID_8_);fill:#6BAAFF;}
	.st74{clip-path:url(#SVGID_8_);fill:#6AA9FF;}
	.st75{clip-path:url(#SVGID_8_);fill:#69A9FF;}
	.st76{clip-path:url(#SVGID_8_);fill:#68A8FF;}
	.st77{clip-path:url(#SVGID_8_);fill:#67A7FF;}
	.st78{clip-path:url(#SVGID_8_);fill:#66A6FF;}
	.st79{clip-path:url(#SVGID_8_);fill:#65A6FF;}
	.st80{clip-path:url(#SVGID_8_);fill:#64A5FF;}
	.st81{clip-path:url(#SVGID_8_);fill:#63A4FF;}
	.st82{clip-path:url(#SVGID_8_);fill:#62A3FF;}
	.st83{clip-path:url(#SVGID_8_);fill:#61A2FF;}
	.st84{clip-path:url(#SVGID_8_);fill:#60A2FF;}
	.st85{clip-path:url(#SVGID_8_);fill:#5FA1FF;}
	.st86{clip-path:url(#SVGID_8_);fill:#5EA0FF;}
	.st87{clip-path:url(#SVGID_8_);fill:#5D9FFF;}
	.st88{clip-path:url(#SVGID_8_);fill:#5C9EFF;}
	.st89{clip-path:url(#SVGID_8_);fill:#5B9EFF;}
	.st90{clip-path:url(#SVGID_8_);fill:#5A9DFF;}
	.st91{clip-path:url(#SVGID_8_);fill:#599CFF;}
	.st92{clip-path:url(#SVGID_8_);fill:#589BFF;}
	.st93{clip-path:url(#SVGID_8_);fill:#579BFF;}
	.st94{clip-path:url(#SVGID_8_);fill:#569AFF;}
	.st95{clip-path:url(#SVGID_8_);fill:#5599FF;}
	.st96{clip-path:url(#SVGID_10_);fill:#DB9C7C;}
	.st97{clip-path:url(#SVGID_10_);fill:#EEA886;}
	.st98{clip-path:url(#SVGID_10_);fill:#293B57;}
	.st99{clip-path:url(#SVGID_10_);fill:#252E3B;}
	.st100{clip-path:url(#SVGID_10_);fill:#ECBA42;}
	.st101{clip-path:url(#SVGID_10_);fill:#A77860;}
	.st102{clip-path:url(#SVGID_10_);fill:#6DD480;}
	.st103{clip-path:url(#SVGID_10_);fill:#FDF1D1;}
	.st104{clip-path:url(#SVGID_10_);fill:#F8D265;}
	.st105{clip-path:url(#SVGID_10_);fill:#54A964;}
	.st106{clip-path:url(#SVGID_10_);fill:#81C7A0;}
	.st107{clip-path:url(#SVGID_10_);fill:#FFFFFF;}
</style>
<g>
	<defs>
		<rect id="SVGID_1_" y="6.6" width="2718.2" height="1330.4"/>
	</defs>
	<clipPath id="SVGID_2_">
		<use xlink:href="#SVGID_1_"  style="overflow:visible;"/>
	</clipPath>
	<path class="st0" d="M830,476.3c0,229.2-185.8,415-415,415S0,705.5,0,476.3c0-229.2,185.8-415,415-415S830,247.1,830,476.3"/>
</g>
<g>
	<path class="st1" d="M223.6,330.8c-5.2,2.6-15.7,5.2-29.1,5.2c-31.1,0-54.5-19.6-54.5-55.8c0-34.5,23.4-57.9,57.6-57.9
		c13.7,0,22.4,2.9,26.2,4.9l-3.4,11.6c-5.4-2.6-13.1-4.6-22.2-4.6c-25.8,0-43,16.5-43,45.5c0,27,15.5,44.3,42.4,44.3
		c8.7,0,17.5-1.8,23.2-4.6L223.6,330.8z"/>
	<path class="st1" d="M240.9,218.3h14.4v49.4h0.3c2.3-4.1,5.9-7.7,10.3-10.1c4.3-2.5,9.3-4.1,14.7-4.1c10.6,0,27.6,6.5,27.6,33.9
		v47.1h-14.4v-45.5c0-12.8-4.7-23.6-18.3-23.6c-9.3,0-16.7,6.5-19.3,14.4c-0.8,2-1,4.1-1,6.9v47.8h-14.4V218.3z"/>
	<path class="st1" d="M375.5,334.4l-1.1-10h-0.5c-4.4,6.2-12.9,11.8-24.2,11.8c-16,0-24.2-11.3-24.2-22.7c0-19.1,17-29.6,47.6-29.4
		v-1.6c0-6.5-1.8-18.3-18-18.3c-7.4,0-15,2.3-20.6,5.9l-3.3-9.5c6.5-4.3,16-7,26-7c24.2,0,30.1,16.5,30.1,32.4v29.6
		c0,6.9,0.3,13.6,1.3,19H375.5z M373.4,294c-15.7-0.3-33.5,2.5-33.5,17.8c0,9.3,6.2,13.7,13.6,13.7c10.3,0,16.8-6.5,19.1-13.2
		c0.5-1.5,0.8-3.1,0.8-4.6V294z"/>
	<path class="st1" d="M410.5,281.1c0-10.1-0.3-18.3-0.7-25.8h12.9l0.7,13.6h0.3c5.9-9.6,15.2-15.4,28.1-15.4
		c19.1,0,33.5,16.2,33.5,40.2c0,28.5-17.3,42.5-36,42.5c-10.5,0-19.6-4.6-24.4-12.4h-0.3v43h-14.2V281.1z M424.7,302.2
		c0,2.1,0.3,4.1,0.7,5.9c2.6,10,11.3,16.8,21.6,16.8c15.2,0,24-12.4,24-30.6c0-15.9-8.3-29.4-23.6-29.4c-9.8,0-19,7-21.8,17.8
		c-0.5,1.8-1,3.9-1,5.9V302.2z"/>
	<path class="st1" d="M520.9,232.5v22.7h20.6v11h-20.6v42.7c0,9.8,2.8,15.4,10.8,15.4c3.8,0,6.5-0.5,8.3-1l0.7,10.8
		c-2.8,1.1-7.2,2-12.8,2c-6.7,0-12.1-2.1-15.5-6.1c-4.1-4.3-5.6-11.3-5.6-20.6v-43.2h-12.3v-11h12.3v-19L520.9,232.5z"/>
	<path class="st1" d="M565,297.4c0.3,19.5,12.8,27.5,27.1,27.5c10.3,0,16.5-1.8,21.9-4.1l2.5,10.3c-5.1,2.3-13.7,4.9-26.3,4.9
		c-24.4,0-38.9-16-38.9-39.9s14.1-42.7,37.1-42.7c25.8,0,32.7,22.7,32.7,37.3c0,2.9-0.3,5.2-0.5,6.7H565z M607.2,287.1
		c0.2-9.2-3.8-23.4-20-23.4c-14.6,0-20.9,13.4-22.1,23.4H607.2z"/>
	<path class="st1" d="M639,279.9c0-9.3-0.2-17.3-0.7-24.7h12.6l0.5,15.5h0.7c3.6-10.6,12.3-17.3,21.9-17.3c1.6,0,2.8,0.2,4.1,0.5
		v13.6c-1.5-0.3-2.9-0.5-4.9-0.5c-10.1,0-17.3,7.7-19.3,18.5c-0.3,2-0.7,4.3-0.7,6.7v42.2H639V279.9z"/>
</g>
<g>
	<path class="st2" d="M64.3,1054.6H33.9v-11H108v11H77.4v89.2H64.3V1054.6z"/>
	<path class="st2" d="M118.8,1038.2h13.1v44.9h0.3c2.1-3.7,5.4-7,9.4-9.2c3.9-2.2,8.5-3.7,13.4-3.7c9.7,0,25.1,5.9,25.1,30.8v42.8
		h-13.1v-41.3c0-11.6-4.3-21.4-16.7-21.4c-8.5,0-15.2,5.9-17.5,13.1c-0.7,1.8-0.9,3.7-0.9,6.2v43.4h-13.1V1038.2z"/>
	<path class="st2" d="M208.5,1110.2c0.3,17.7,11.6,25,24.7,25c9.4,0,15-1.6,19.9-3.7l2.2,9.4c-4.6,2.1-12.5,4.5-23.9,4.5
		c-22.2,0-35.4-14.6-35.4-36.3s12.8-38.8,33.7-38.8c23.5,0,29.7,20.7,29.7,33.9c0,2.7-0.3,4.8-0.4,6.1H208.5z M246.9,1100.8
		c0.1-8.3-3.4-21.3-18.1-21.3c-13.2,0-19,12.2-20.1,21.3H246.9z"/>
	<path class="st2" d="M326.7,1054.6h-30.5v-11h74.2v11h-30.6v89.2h-13.1V1054.6z"/>
	<path class="st2" d="M446.3,1107.2c0,26.6-18.4,38.2-35.8,38.2c-19.5,0-34.5-14.3-34.5-37c0-24.1,15.8-38.2,35.7-38.2
		C432.3,1070.2,446.3,1085.2,446.3,1107.2z M389.2,1107.9c0,15.8,9.1,27.7,21.9,27.7c12.5,0,21.9-11.7,21.9-27.9
		c0-12.2-6.1-27.7-21.6-27.7C395.9,1080,389.2,1094.3,389.2,1107.9z"/>
	<path class="st2" d="M462.8,1095.3c0-9.2-0.3-16.7-0.6-23.5h11.7l0.6,12.3h0.3c5.4-8.8,13.8-14,25.6-14c17.4,0,30.5,14.7,30.5,36.6
		c0,25.9-15.8,38.7-32.7,38.7c-9.5,0-17.8-4.2-22.2-11.3h-0.3v39.1h-12.9V1095.3z M475.7,1114.5c0,1.9,0.3,3.7,0.6,5.4
		c2.4,9.1,10.3,15.3,19.6,15.3c13.8,0,21.9-11.3,21.9-27.8c0-14.4-7.6-26.8-21.4-26.8c-8.9,0-17.2,6.4-19.8,16.2
		c-0.4,1.6-0.9,3.6-0.9,5.4V1114.5z"/>
	<path class="st2" d="M579.3,1044.9c6.5-1.3,15.9-2.1,24.8-2.1c13.8,0,22.7,2.5,29,8.2c5.1,4.5,7.9,11.3,7.9,19
		c0,13.2-8.3,22-18.9,25.6v0.4c7.7,2.7,12.3,9.8,14.7,20.2c3.3,14,5.6,23.6,7.7,27.5h-13.4c-1.6-2.8-3.9-11.4-6.7-23.9
		c-3-13.8-8.3-19-20.1-19.5h-12.2v43.4h-12.9V1044.9z M592.2,1090.5h13.2c13.8,0,22.6-7.6,22.6-19c0-12.9-9.4-18.6-23-18.7
		c-6.2,0-10.7,0.6-12.8,1.2V1090.5z"/>
	<path class="st2" d="M666.1,1110.2c0.3,17.7,11.6,25,24.7,25c9.4,0,15-1.6,19.9-3.7l2.2,9.4c-4.6,2.1-12.5,4.5-23.9,4.5
		c-22.2,0-35.4-14.6-35.4-36.3s12.8-38.8,33.7-38.8c23.5,0,29.7,20.7,29.7,33.9c0,2.7-0.3,4.8-0.4,6.1H666.1z M704.5,1100.8
		c0.1-8.3-3.4-21.3-18.1-21.3c-13.2,0-19,12.2-20.1,21.3H704.5z"/>
	<path class="st2" d="M773.2,1143.8l-1-9.1h-0.4c-4,5.6-11.7,10.7-22,10.7c-14.6,0-22-10.3-22-20.7c0-17.4,15.5-26.9,43.3-26.8v-1.5
		c0-5.9-1.6-16.7-16.4-16.7c-6.7,0-13.7,2.1-18.7,5.4l-3-8.6c5.9-3.9,14.6-6.4,23.6-6.4c22,0,27.4,15,27.4,29.4v26.9
		c0,6.2,0.3,12.3,1.2,17.2H773.2z M771.2,1107c-14.3-0.3-30.5,2.2-30.5,16.2c0,8.5,5.6,12.5,12.3,12.5c9.4,0,15.3-5.9,17.4-12
		c0.4-1.3,0.7-2.8,0.7-4.2V1107z"/>
	<path class="st2" d="M803.2,1130.4c3.9,2.5,10.7,5.2,17.2,5.2c9.5,0,14-4.8,14-10.7c0-6.2-3.7-9.7-13.4-13.2
		c-12.9-4.6-19-11.7-19-20.4c0-11.6,9.4-21.1,24.8-21.1c7.3,0,13.7,2.1,17.7,4.5l-3.3,9.5c-2.8-1.8-8-4.2-14.7-4.2
		c-7.7,0-12,4.5-12,9.8c0,5.9,4.3,8.6,13.7,12.2c12.5,4.8,18.9,11,18.9,21.7c0,12.6-9.8,21.6-26.9,21.6c-7.9,0-15.2-1.9-20.2-4.9
		L803.2,1130.4z"/>
	<path class="st2" d="M929,1107.2c0,26.6-18.4,38.2-35.8,38.2c-19.5,0-34.5-14.3-34.5-37c0-24.1,15.8-38.2,35.7-38.2
		C915,1070.2,929,1085.2,929,1107.2z M871.9,1107.9c0,15.8,9.1,27.7,21.9,27.7c12.5,0,21.9-11.7,21.9-27.9
		c0-12.2-6.1-27.7-21.6-27.7C878.6,1080,871.9,1094.3,871.9,1107.9z"/>
	<path class="st2" d="M945.5,1091.3c0-7.4-0.1-13.5-0.6-19.5h11.6l0.7,11.9h0.3c3.6-6.8,11.9-13.5,23.8-13.5
		c10,0,25.4,5.9,25.4,30.6v43h-13.1v-41.5c0-11.6-4.3-21.3-16.7-21.3c-8.6,0-15.3,6.1-17.5,13.4c-0.6,1.6-0.9,3.9-0.9,6.1v43.3
		h-13.1V1091.3z"/>
	<path class="st2" d="M1026.2,1130.4c3.9,2.5,10.7,5.2,17.2,5.2c9.5,0,14-4.8,14-10.7c0-6.2-3.7-9.7-13.4-13.2
		c-12.9-4.6-19-11.7-19-20.4c0-11.6,9.4-21.1,24.8-21.1c7.3,0,13.7,2.1,17.7,4.5l-3.3,9.5c-2.8-1.8-8-4.2-14.7-4.2
		c-7.7,0-12,4.5-12,9.8c0,5.9,4.3,8.6,13.7,12.2c12.5,4.8,18.9,11,18.9,21.7c0,12.6-9.8,21.6-26.9,21.6c-7.9,0-15.2-1.9-20.2-4.9
		L1026.2,1130.4z"/>
	<path class="st2" d="M1188.8,1140.5c-4.8,2.4-14.3,4.8-26.5,4.8c-28.2,0-49.5-17.8-49.5-50.7c0-31.4,21.3-52.6,52.3-52.6
		c12.5,0,20.4,2.7,23.8,4.5l-3.1,10.6c-4.9-2.4-11.9-4.2-20.2-4.2c-23.5,0-39.1,15-39.1,41.3c0,24.5,14.1,40.3,38.5,40.3
		c7.9,0,15.9-1.6,21.1-4.2L1188.8,1140.5z"/>
	<path class="st2" d="M1269.7,1107.2c0,26.6-18.4,38.2-35.8,38.2c-19.5,0-34.5-14.3-34.5-37c0-24.1,15.8-38.2,35.7-38.2
		C1255.7,1070.2,1269.7,1085.2,1269.7,1107.2z M1212.6,1107.9c0,15.8,9.1,27.7,21.9,27.7c12.5,0,21.9-11.7,21.9-27.9
		c0-12.2-6.1-27.7-21.6-27.7C1219.3,1080,1212.6,1094.3,1212.6,1107.9z"/>
	<path class="st2" d="M1286.2,1091.3c0-7.4-0.1-13.5-0.6-19.5h11.4l0.6,11.6h0.4c4-6.8,10.7-13.2,22.6-13.2
		c9.8,0,17.2,5.9,20.4,14.4h0.3c2.2-4,5.1-7.1,8-9.4c4.3-3.3,9.1-5.1,15.9-5.1c9.5,0,23.6,6.2,23.6,31.2v42.4h-12.8V1103
		c0-13.8-5.1-22.2-15.6-22.2c-7.4,0-13.2,5.5-15.5,11.9c-0.6,1.8-1,4.2-1,6.5v44.5h-12.8v-43.1c0-11.4-5.1-19.8-15-19.8
		c-8.2,0-14.1,6.5-16.2,13.1c-0.7,1.9-1,4.2-1,6.4v43.4h-12.8V1091.3z"/>
	<path class="st2" d="M1410.2,1095.3c0-9.2-0.3-16.7-0.6-23.5h11.7l0.6,12.3h0.3c5.4-8.8,13.8-14,25.6-14
		c17.4,0,30.5,14.7,30.5,36.6c0,25.9-15.8,38.7-32.7,38.7c-9.5,0-17.8-4.2-22.2-11.3h-0.3v39.1h-12.9V1095.3z M1423.1,1114.5
		c0,1.9,0.3,3.7,0.6,5.4c2.4,9.1,10.3,15.3,19.6,15.3c13.8,0,21.9-11.3,21.9-27.8c0-14.4-7.6-26.8-21.4-26.8
		c-8.9,0-17.2,6.4-19.8,16.2c-0.4,1.6-0.9,3.6-0.9,5.4V1114.5z"/>
	<path class="st2" d="M1534.6,1143.8l-1-9.1h-0.4c-4,5.6-11.7,10.7-22,10.7c-14.6,0-22-10.3-22-20.7c0-17.4,15.5-26.9,43.3-26.8
		v-1.5c0-5.9-1.6-16.7-16.4-16.7c-6.7,0-13.7,2.1-18.7,5.4l-3-8.6c5.9-3.9,14.6-6.4,23.6-6.4c22,0,27.4,15,27.4,29.4v26.9
		c0,6.2,0.3,12.3,1.2,17.2H1534.6z M1532.7,1107c-14.3-0.3-30.5,2.2-30.5,16.2c0,8.5,5.6,12.5,12.3,12.5c9.4,0,15.3-5.9,17.4-12
		c0.4-1.3,0.7-2.8,0.7-4.2V1107z"/>
	<path class="st2" d="M1566.5,1091.3c0-7.4-0.1-13.5-0.6-19.5h11.6l0.7,11.9h0.3c3.6-6.8,11.9-13.5,23.8-13.5
		c10,0,25.4,5.9,25.4,30.6v43h-13.1v-41.5c0-11.6-4.3-21.3-16.7-21.3c-8.6,0-15.3,6.1-17.5,13.4c-0.6,1.6-0.9,3.9-0.9,6.1v43.3
		h-13.1V1091.3z"/>
	<path class="st2" d="M1663.5,1051.6c0.1,4.5-3.1,8-8.3,8c-4.6,0-7.9-3.6-7.9-8c0-4.6,3.4-8.2,8.2-8.2
		C1660.4,1043.4,1663.5,1047,1663.5,1051.6z M1649,1143.8v-72h13.1v72H1649z"/>
	<path class="st2" d="M1691,1110.2c0.3,17.7,11.6,25,24.7,25c9.4,0,15-1.6,19.9-3.7l2.2,9.4c-4.6,2.1-12.5,4.5-23.9,4.5
		c-22.2,0-35.4-14.6-35.4-36.3s12.8-38.8,33.7-38.8c23.5,0,29.7,20.7,29.7,33.9c0,2.7-0.3,4.8-0.4,6.1H1691z M1729.4,1100.8
		c0.1-8.3-3.4-21.3-18.1-21.3c-13.2,0-19,12.2-20.1,21.3H1729.4z"/>
	<path class="st2" d="M1756.4,1130.4c3.9,2.5,10.7,5.2,17.2,5.2c9.5,0,14-4.8,14-10.7c0-6.2-3.7-9.7-13.4-13.2
		c-12.9-4.6-19-11.7-19-20.4c0-11.6,9.4-21.1,24.8-21.1c7.3,0,13.7,2.1,17.7,4.5l-3.3,9.5c-2.8-1.8-8-4.2-14.7-4.2
		c-7.7,0-12,4.5-12,9.8c0,5.9,4.3,8.6,13.7,12.2c12.5,4.8,18.9,11,18.9,21.7c0,12.6-9.8,21.6-26.9,21.6c-7.9,0-15.2-1.9-20.2-4.9
		L1756.4,1130.4z"/>
	<path class="st2" d="M1847.3,1128c5.8,3.6,14.3,6.5,23.2,6.5c13.2,0,21-7,21-17.1c0-9.4-5.4-14.7-18.9-19.9
		c-16.4-5.8-26.5-14.3-26.5-28.4c0-15.6,12.9-27.2,32.4-27.2c10.3,0,17.7,2.4,22.2,4.9l-3.6,10.6c-3.3-1.8-10-4.8-19-4.8
		c-13.7,0-18.9,8.2-18.9,15c0,9.4,6.1,14,19.9,19.3c16.9,6.5,25.6,14.7,25.6,29.4c0,15.5-11.4,28.8-35.1,28.8
		c-9.7,0-20.2-2.8-25.6-6.4L1847.3,1128z"/>
	<path class="st2" d="M1927.1,1071.8l9.5,36.6c2.1,8,4,15.5,5.4,22.9h0.4c1.6-7.3,4-15,6.4-22.7l11.7-36.7h11l11.2,36
		c2.7,8.6,4.8,16.2,6.4,23.5h0.4c1.2-7.3,3.1-14.9,5.5-23.3l10.3-36.1h12.9l-23.2,72h-11.9l-11-34.3c-2.5-8-4.6-15.2-6.4-23.6h-0.3
		c-1.8,8.6-4,16.1-6.5,23.8l-11.6,34.2h-11.9l-21.7-72H1927.1z"/>
	<path class="st2" d="M2045.9,1051.6c0.1,4.5-3.1,8-8.3,8c-4.6,0-7.9-3.6-7.9-8c0-4.6,3.4-8.2,8.2-8.2
		C2042.8,1043.4,2045.9,1047,2045.9,1051.6z M2031.3,1143.8v-72h13.1v72H2031.3z"/>
	<path class="st2" d="M2081.9,1051.1v20.7h18.7v10h-18.7v38.8c0,8.9,2.5,14,9.8,14c3.4,0,5.9-0.4,7.6-0.9l0.6,9.8
		c-2.5,1-6.5,1.8-11.6,1.8c-6.1,0-11-1.9-14.1-5.5c-3.7-3.9-5.1-10.3-5.1-18.7v-39.2h-11.2v-10h11.2v-17.2L2081.9,1051.1z"/>
	<path class="st2" d="M2166.6,1141.1c-3.4,1.8-11,4.2-20.7,4.2c-21.7,0-35.8-14.7-35.8-36.7c0-22.2,15.2-38.2,38.7-38.2
		c7.7,0,14.6,1.9,18.1,3.7l-3,10.1c-3.1-1.8-8-3.4-15.2-3.4c-16.5,0-25.4,12.2-25.4,27.2c0,16.7,10.7,26.9,25,26.9
		c7.4,0,12.3-1.9,16.1-3.6L2166.6,1141.1z"/>
	<path class="st2" d="M2181.9,1038.2h13.1v44.9h0.3c2.1-3.7,5.4-7,9.4-9.2c3.9-2.2,8.5-3.7,13.4-3.7c9.7,0,25.1,5.9,25.1,30.8v42.8
		h-13.1v-41.3c0-11.6-4.3-21.4-16.7-21.4c-8.5,0-15.2,5.9-17.5,13.1c-0.7,1.8-0.9,3.7-0.9,6.2v43.4h-13.1V1038.2z"/>
</g>
<g>
	<defs>
		<rect id="SVGID_3_" y="6.6" width="2718.2" height="1330.4"/>
	</defs>
	<clipPath id="SVGID_4_">
		<use xlink:href="#SVGID_3_"  style="overflow:visible;"/>
	</clipPath>
	<g class="st3">
		<path class="st2" d="M60.6,1204.1v20.7h18.7v10H60.6v38.8c0,8.9,2.5,14,9.8,14c3.4,0,5.9-0.4,7.6-0.9l0.6,9.8
			c-2.5,1-6.5,1.8-11.6,1.8c-6.1,0-11-1.9-14.1-5.5c-3.7-3.9-5.1-10.3-5.1-18.7v-39.2H36.7v-10h11.2v-17.2L60.6,1204.1z"/>
		<path class="st2" d="M159.2,1260.1c0,26.6-18.4,38.2-35.8,38.2c-19.5,0-34.5-14.3-34.5-37c0-24.1,15.8-38.2,35.7-38.2
			C145.2,1223.1,159.2,1238.1,159.2,1260.1z M102.1,1260.9c0,15.8,9.1,27.7,21.9,27.7c12.5,0,21.9-11.7,21.9-27.9
			c0-12.2-6.1-27.7-21.6-27.7C108.8,1232.9,102.1,1247.2,102.1,1260.9z"/>
		<path class="st2" d="M229.7,1296.7l-32.7-100.2h14l15.6,49.4c4.3,13.5,8,25.7,10.7,37.5h0.3c2.8-11.6,7-24.2,11.4-37.3l16.9-49.5
			h13.8l-35.8,100.2H229.7z"/>
		<path class="st2" d="M355.3,1260.1c0,26.6-18.4,38.2-35.8,38.2c-19.5,0-34.5-14.3-34.5-37c0-24.1,15.8-38.2,35.7-38.2
			C341.3,1223.1,355.3,1238.1,355.3,1260.1z M298.2,1260.9c0,15.8,9.1,27.7,21.9,27.7c12.5,0,21.9-11.7,21.9-27.9
			c0-12.2-6.1-27.7-21.6-27.7C304.9,1232.9,298.2,1247.2,298.2,1260.9z"/>
		<path class="st2" d="M386.3,1204.5c0.1,4.5-3.1,8-8.3,8c-4.6,0-7.9-3.6-7.9-8c0-4.6,3.4-8.2,8.2-8.2
			C383.2,1196.4,386.3,1199.9,386.3,1204.5z M371.8,1296.7v-72h13.1v72H371.8z"/>
		<path class="st2" d="M457.9,1294c-3.4,1.8-11,4.2-20.7,4.2c-21.7,0-35.8-14.7-35.8-36.7c0-22.2,15.2-38.2,38.7-38.2
			c7.7,0,14.6,1.9,18.1,3.7l-3,10.1c-3.1-1.8-8-3.4-15.2-3.4c-16.5,0-25.4,12.2-25.4,27.2c0,16.7,10.7,26.9,25,26.9
			c7.4,0,12.3-1.9,16.1-3.6L457.9,1294z"/>
		<path class="st2" d="M480.5,1263.1c0.3,17.7,11.6,25,24.7,25c9.4,0,15-1.6,19.9-3.7l2.2,9.4c-4.6,2.1-12.5,4.5-23.9,4.5
			c-22.2,0-35.4-14.6-35.4-36.3s12.8-38.8,33.7-38.8c23.5,0,29.7,20.7,29.7,33.9c0,2.7-0.3,4.8-0.4,6.1H480.5z M518.8,1253.7
			c0.1-8.3-3.4-21.3-18.1-21.3c-13.2,0-19,12.2-20.1,21.3H518.8z"/>
		<path class="st2" d="M665.2,1245.6c0,34.5-21,52.8-46.5,52.8c-26.5,0-45-20.5-45-50.8c0-31.8,19.8-52.6,46.5-52.6
			C647.6,1194.9,665.2,1215.8,665.2,1245.6z M587.5,1247.2c0,21.4,11.6,40.6,32,40.6c20.5,0,32.1-18.9,32.1-41.6
			c0-19.9-10.4-40.7-32-40.7C598.2,1205.4,587.5,1225.2,587.5,1247.2z"/>
		<path class="st2" d="M686.7,1224.8l14.1,40.4c2.4,6.5,4.3,12.5,5.8,18.4h0.4c1.6-5.9,3.7-11.9,6.1-18.4l14-40.4h13.7l-28.2,72H700
			l-27.4-72H686.7z"/>
		<path class="st2" d="M760.4,1263.1c0.3,17.7,11.6,25,24.7,25c9.4,0,15-1.6,19.9-3.7l2.2,9.4c-4.6,2.1-12.5,4.5-23.9,4.5
			c-22.2,0-35.4-14.6-35.4-36.3s12.8-38.8,33.7-38.8c23.5,0,29.7,20.7,29.7,33.9c0,2.7-0.3,4.8-0.4,6.1H760.4z M798.7,1253.7
			c0.1-8.3-3.4-21.3-18.1-21.3c-13.2,0-19,12.2-20.1,21.3H798.7z"/>
		<path class="st2" d="M827.6,1247.2c0-8.5-0.1-15.8-0.6-22.4h11.4l0.4,14.1h0.6c3.3-9.7,11.1-15.8,19.9-15.8c1.5,0,2.5,0.1,3.7,0.4
			v12.3c-1.3-0.3-2.7-0.4-4.5-0.4c-9.2,0-15.8,7-17.5,16.8c-0.3,1.8-0.6,3.9-0.6,6.1v38.4h-12.9V1247.2z"/>
		<path class="st2" d="M921.1,1196.5v100.2h-12.9v-100.2H921.1z"/>
		<path class="st2" d="M943.2,1244.2c0-7.4-0.1-13.5-0.6-19.5h11.6l0.7,11.9h0.3c3.6-6.8,11.9-13.5,23.8-13.5
			c10,0,25.4,5.9,25.4,30.6v43h-13.1v-41.5c0-11.6-4.3-21.3-16.7-21.3c-8.6,0-15.3,6.1-17.5,13.4c-0.6,1.6-0.9,3.9-0.9,6.1v43.3
			h-13.1V1244.2z"/>
		<path class="st2" d="M1041.5,1204.1v20.7h18.7v10h-18.7v38.8c0,8.9,2.5,14,9.8,14c3.4,0,5.9-0.4,7.6-0.9l0.6,9.8
			c-2.5,1-6.5,1.8-11.6,1.8c-6.1,0-11-1.9-14.1-5.5c-3.7-3.9-5.1-10.3-5.1-18.7v-39.2h-11.2v-10h11.2v-17.2L1041.5,1204.1z"/>
		<path class="st2" d="M1082.2,1263.1c0.3,17.7,11.6,25,24.7,25c9.4,0,15-1.6,19.9-3.7l2.2,9.4c-4.6,2.1-12.5,4.5-23.9,4.5
			c-22.2,0-35.4-14.6-35.4-36.3s12.8-38.8,33.7-38.8c23.5,0,29.7,20.7,29.7,33.9c0,2.7-0.3,4.8-0.4,6.1H1082.2z M1120.6,1253.7
			c0.1-8.3-3.4-21.3-18.1-21.3c-13.2,0-19,12.2-20.1,21.3H1120.6z"/>
		<path class="st2" d="M1149.4,1247.2c0-8.5-0.1-15.8-0.6-22.4h11.4l0.4,14.1h0.6c3.3-9.7,11.1-15.8,19.9-15.8
			c1.5,0,2.5,0.1,3.7,0.4v12.3c-1.3-0.3-2.7-0.4-4.5-0.4c-9.2,0-15.8,7-17.5,16.8c-0.3,1.8-0.6,3.9-0.6,6.1v38.4h-12.9V1247.2z"/>
		<path class="st2" d="M1198.1,1244.2c0-7.4-0.1-13.5-0.6-19.5h11.6l0.7,11.9h0.3c3.6-6.8,11.9-13.5,23.8-13.5
			c10,0,25.4,5.9,25.4,30.6v43h-13.1v-41.5c0-11.6-4.3-21.3-16.7-21.3c-8.6,0-15.3,6.1-17.5,13.4c-0.6,1.6-0.9,3.9-0.9,6.1v43.3
			h-13.1V1244.2z"/>
		<path class="st2" d="M1287.9,1263.1c0.3,17.7,11.6,25,24.7,25c9.4,0,15-1.6,19.9-3.7l2.2,9.4c-4.6,2.1-12.5,4.5-23.9,4.5
			c-22.2,0-35.4-14.6-35.4-36.3s12.8-38.8,33.7-38.8c23.5,0,29.7,20.7,29.7,33.9c0,2.7-0.3,4.8-0.4,6.1H1287.9z M1326.2,1253.7
			c0.1-8.3-3.4-21.3-18.1-21.3c-13.2,0-19,12.2-20.1,21.3H1326.2z"/>
		<path class="st2" d="M1370.8,1204.1v20.7h18.7v10h-18.7v38.8c0,8.9,2.5,14,9.8,14c3.4,0,5.9-0.4,7.6-0.9l0.6,9.8
			c-2.5,1-6.5,1.8-11.6,1.8c-6.1,0-11-1.9-14.1-5.5c-3.7-3.9-5.1-10.3-5.1-18.7v-39.2h-11.2v-10h11.2v-17.2L1370.8,1204.1z"/>
		<path class="st2" d="M1436.2,1197.7c6.2-1,14.4-1.9,24.8-1.9c12.8,0,22.2,3,28.1,8.3c5.5,4.8,8.8,12,8.8,21
			c0,9.1-2.7,16.2-7.7,21.4c-6.8,7.3-18,11-30.6,11c-3.9,0-7.4-0.1-10.4-0.9v40.1h-12.9V1197.7z M1449.2,1246c2.8,0.7,6.4,1,10.7,1
			c15.6,0,25.1-7.6,25.1-21.4c0-13.2-9.4-19.6-23.6-19.6c-5.6,0-10,0.4-12.2,1V1246z"/>
		<path class="st2" d="M1514.9,1247.2c0-8.5-0.1-15.8-0.6-22.4h11.4l0.4,14.1h0.6c3.3-9.7,11.1-15.8,19.9-15.8
			c1.5,0,2.5,0.1,3.7,0.4v12.3c-1.3-0.3-2.7-0.4-4.5-0.4c-9.2,0-15.8,7-17.5,16.8c-0.3,1.8-0.6,3.9-0.6,6.1v38.4h-12.9V1247.2z"/>
		<path class="st2" d="M1628.6,1260.1c0,26.6-18.4,38.2-35.8,38.2c-19.5,0-34.5-14.3-34.5-37c0-24.1,15.8-38.2,35.7-38.2
			C1614.6,1223.1,1628.6,1238.1,1628.6,1260.1z M1571.5,1260.9c0,15.8,9.1,27.7,21.9,27.7c12.5,0,21.9-11.7,21.9-27.9
			c0-12.2-6.1-27.7-21.6-27.7C1578.2,1232.9,1571.5,1247.2,1571.5,1260.9z"/>
		<path class="st2" d="M1660.9,1204.1v20.7h18.7v10h-18.7v38.8c0,8.9,2.5,14,9.8,14c3.4,0,5.9-0.4,7.6-0.9l0.6,9.8
			c-2.5,1-6.5,1.8-11.6,1.8c-6.1,0-11-1.9-14.1-5.5c-3.7-3.9-5.1-10.3-5.1-18.7v-39.2h-11.2v-10h11.2v-17.2L1660.9,1204.1z"/>
		<path class="st2" d="M1759.4,1260.1c0,26.6-18.4,38.2-35.8,38.2c-19.5,0-34.5-14.3-34.5-37c0-24.1,15.8-38.2,35.7-38.2
			C1745.4,1223.1,1759.4,1238.1,1759.4,1260.1z M1702.3,1260.9c0,15.8,9.1,27.7,21.9,27.7c12.5,0,21.9-11.7,21.9-27.9
			c0-12.2-6.1-27.7-21.6-27.7C1709,1232.9,1702.3,1247.2,1702.3,1260.9z"/>
		<path class="st2" d="M1827.2,1294c-3.4,1.8-11,4.2-20.7,4.2c-21.7,0-35.8-14.7-35.8-36.7c0-22.2,15.2-38.2,38.7-38.2
			c7.7,0,14.6,1.9,18.1,3.7l-3,10.1c-3.1-1.8-8-3.4-15.2-3.4c-16.5,0-25.4,12.2-25.4,27.2c0,16.7,10.7,26.9,25,26.9
			c7.4,0,12.3-1.9,16.1-3.6L1827.2,1294z"/>
		<path class="st2" d="M1907.6,1260.1c0,26.6-18.4,38.2-35.8,38.2c-19.5,0-34.5-14.3-34.5-37c0-24.1,15.8-38.2,35.7-38.2
			C1893.7,1223.1,1907.6,1238.1,1907.6,1260.1z M1850.5,1260.9c0,15.8,9.1,27.7,21.9,27.7c12.5,0,21.9-11.7,21.9-27.9
			c0-12.2-6.1-27.7-21.6-27.7C1857.2,1232.9,1850.5,1247.2,1850.5,1260.9z"/>
		<path class="st2" d="M1924.1,1191.2h13.1v105.6h-13.1V1191.2z"/>
	</g>
</g>
<g>
	<path class="st1" d="M363.2,586c0,108.8-40.4,168.8-111.2,168.8c-62.5,0-104.8-58.6-105.8-164.4c0-107.3,46.3-166.4,111.2-166.4
		C324.8,424.1,363.2,484.1,363.2,586z M189.4,590.9c0,83.2,25.6,130.4,65,130.4c44.3,0,65.5-51.7,65.5-133.4
		c0-78.8-20.2-130.4-65-130.4C217,457.5,189.4,503.8,189.4,590.9z"/>
	<path class="st1" d="M497.1,469.8h-1l-55.6,30l-8.4-33l69.9-37.4h36.9v320h-41.8V469.8z"/>
</g>
<g>
	<defs>
		<rect id="SVGID_5_" y="6.6" width="2718.2" height="1330.4"/>
	</defs>
	<clipPath id="SVGID_6_">
		<use xlink:href="#SVGID_5_"  style="overflow:visible;"/>
	</clipPath>
	<path class="st4" d="M2290.4,640.1c10.9-18.2,19.1-37.6,24.5-57.6l43.3-8.3l0.4-47.9l0.4-47.9l-43.1-9.1c-5-20.1-12.8-39.7-23.4-58
		l24.7-36.4l-33.5-34.2l-33.5-34.2l-36.9,24c-18.2-10.9-37.6-19.1-57.6-24.5l-8.3-43.3l-47.9-0.4l-47.9-0.4l-9.1,43.1
		c-20.1,5-39.7,12.8-58,23.4l-36.4-24.7l-34.2,33.5l-34.2,33.5l24,36.9c-11,18.2-19.1,37.6-24.5,57.6l-43.3,8.3l-0.4,47.9l-0.4,47.9
		l43.1,9.1c5,20.1,12.8,39.7,23.4,58l-24.7,36.4l33.5,34.2l33.5,34.2l36.9-24c18.2,10.9,37.6,19.1,57.6,24.5l8.3,43.3l47.9,0.4
		l47.9,0.4l9.1-43.1c20.1-5,39.7-12.8,58-23.4l36.4,24.7l34.2-33.5l34.2-33.5L2290.4,640.1z M2013.3,606.1
		c-45.4-46.3-44.7-120.6,1.5-166c46.3-45.4,120.6-44.7,166,1.5c45.4,46.3,44.7,120.6-1.5,166
		C2133.1,653.1,2058.7,652.4,2013.3,606.1"/>
	<path class="st5" d="M2001.8,966.4h-3V753c0-47.5-38.6-86.1-86.1-86.1h-219.5c-49.1,0-89.1-40-89.1-89.1v-98.5
		c0-47.5-38.6-86.1-86.1-86.1H958.3v-3H1518c49.1,0,89.1,40,89.1,89.1v98.5c0,47.5,38.6,86.1,86.1,86.1h219.5
		c49.1,0,89.1,40,89.1,89.1V966.4z"/>
	<path class="st6" d="M1968,745.8c-2.9-3.9-7.6-6.5-12.9-6.5c-7.3-0.1-13.5,4.6-15.7,11.1c-0.5,1.6-0.8,3.3-0.9,5c0,2.1,0.3,4,1,5.8
		c1.1,2.9,2.9,5.4,5.3,7.3c2.4,1.9,5.3,3.1,8.5,3.4c0.4,0,0.9,0.1,1.3,0.1c0.3,0,0.5,0,0.8,0c0.1,0,0.2,0,0.3,0
		c1.6-0.1,3.2-0.4,4.7-1c6.2-2.3,10.7-8.2,10.8-15.2C1971.4,752.1,1970.1,748.6,1968,745.8 M1959.2,767.2L1959.2,767.2
		c-1.1,0.4-2.3,0.7-3.5,0.7c-0.3,0-0.5,0-0.8,0c-1.2,0-2.3-0.2-3.3-0.5c-1.5-0.4-2.8-1.1-4-2c-0.4-0.3-0.8-0.7-1.2-1.1
		c-2.2-2.3-3.6-5.4-3.5-8.8c0-0.9,0.1-1.8,0.3-2.6c0.1-0.4,0.2-0.8,0.3-1.2c1.7-4.9,6.3-8.4,11.8-8.3c3.9,0,7.4,1.9,9.6,4.8
		c1.6,2.1,2.6,4.7,2.5,7.6C1967.2,761,1963.8,765.5,1959.2,767.2"/>
	<rect x="62.3" y="965" class="st7" width="2655.9" height="18.2"/>
	<path class="st8" d="M2194.4,364.5c0,0,8.9,15,12.6,17.5c5.1,3.3,1.9,6.7-0.5,6.7c-2.4,0-14.8,0.9-17.5-2.2
		c-2.7-3.1-4.1-12.3-6.6-14.7c-2.5-2.4-5.1-12,1.2-14.4C2189.3,355.3,2194.4,364.5,2194.4,364.5"/>
	<path class="st9" d="M2190.6,357.9c0,0,10.2,17.6,11.9,20.2c1.8,2.6-3.3,2.6-6.4,1.4c-3.1-1.2-11-13.9-12.1-16.2
		c-1.3-2.7-0.2-5.9-0.2-5.9L2190.6,357.9z"/>
	<polygon class="st8" points="2180.3,367.3 2182.6,385.4 2183.8,385.5 2183.5,372.5 	"/>
	<path class="st8" d="M2106.4,364.5c0,0,8.9,15,12.6,17.5c5.1,3.3,1.9,6.7-0.5,6.7c-2.4,0-14.8,0.9-17.5-2.2
		c-2.7-3.1-4.1-12.3-6.6-14.7c-2.5-2.4-5.2-12.3,1.2-14.4C2101.3,355.5,2106.4,364.5,2106.4,364.5"/>
	<path class="st9" d="M2103.1,357.9c0,0,9.6,17.6,11.4,20.2c1.8,2.6-3.3,2.6-6.4,1.4c-3.1-1.2-11-13.9-12.1-16.2
		c-1.3-2.7-0.2-5.9-0.2-5.9L2103.1,357.9z"/>
	<polygon class="st8" points="2092.2,367.3 2094.6,385.4 2095.8,385.5 2095.4,372.5 	"/>
	<path class="st9" d="M2067,227.5l80.3,36.6c0,0,9,2.9,10,12.9c3.1,31.1,26.4,80.4,26.4,80.4c7.5,3.6,6.9,0.5,6.9,0.5
		c-4.7-15.1-10.4-77.3-12.5-102.3c-0.4-5.3-0.7-8.9-0.8-10.1c0-0.8-0.9-1.8-2.4-3c-11-8.9-56.4-27.4-56.4-27.4
		C2084.5,214.2,2067,227.5,2067,227.5"/>
	<path class="st9" d="M2051.9,243.2c2.5,21.7,33.5,19.2,33.5,19.2h37.6c0,0-9.9,22-13.7,40.5c-4,19.7-13.6,54.4-13.6,54.4
		s0.6,1.2,7.4,0.5c0,0,29.5-58.8,40.8-73.5c2.4-3.2,9.4-20.4,10.6-30.7c0.4-3.5,0.2-6.1-1.1-7.2c-1.3-1.1-4.3-3.2-8.3-5.7
		c-11.8-7.4-32.2-18.8-43.6-21.4c-15.2-3.4-39.4-9.8-39.4-9.8S2049.4,221.5,2051.9,243.2"/>
	<path class="st10" d="M2077.4,76c0,0-5.6-10.7-2.9-22s13.3-22.7,28.7-17.5c15.4,5.2,27.9,17.2,18.7,31.1
		c-9.3,13.9,8.4,20.1,3.9,26.7c-4.5,6.6-2.8,13.5-0.9,15c1.9,1.5,8,7,7.4,13.5c-0.7,6.5-30-18.9-30-18.9S2086.4,71.9,2077.4,76"/>
	<path class="st11" d="M2124.5,212.4c0,0-2.3,11.3-62.3-3C2062.2,209.5,2082.3,202.8,2124.5,212.4"/>
	<path class="st12" d="M2061.5,212.6c-0.9,1.8-1.9,3.6-2.8,5.3c21.9,0.6,43.9,1.3,65.8,1.9c-3.5-11.6-2.3-27.3-1.7-39.3
		c0.7-14.6,8.8-24.7,7.9-39.5c4.3,0.7,5.1,0.8,9.4,1.5c-6.6-18.9-8.9-28.3-29.6-35.6c-6.7-2.4-11.1-2.8-18.4-2.2
		c-23.9,2-31.1,2.3-42.9,23.9c18.4,2.9,15.4,9.5,20.9,27.8c2.7,8.9,5.6,18.9,4.1,28.3C2072.9,194,2061.5,204.2,2061.5,212.6"/>
	<path class="st13" d="M2099.6,111.6c-9.8-1.8-7.7-7.3-7.7-7.3s0.5-3.1,0.6-7c0-1,0.1-2,0.1-3.1c0-1.6-0.1-3.3-0.3-4.8
		c-0.8-6.6,17.8-2.7,17.8-2.7s-1.1,13.3,1.5,17.3C2114.2,108.1,2109.4,113.5,2099.6,111.6"/>
	<path class="st13" d="M2081,104.3c0,0,19.7,22.8,27,28.1c0,0,8.4-7.6,3.2-27.6C2111.2,104.8,2101.7,100,2081,104.3"/>
	<path class="st13" d="M2081.5,49.5c0,0-10.2,19.7-0.1,38.5c10.2,18.7,30.1-8.1,31.4-11.3c1.3-3.2,8.1-21-5.5-26.4
		C2093.8,44.8,2084.4,44.1,2081.5,49.5"/>
	<path class="st10" d="M2084.9,56.5c0,0-7.1,9.3-7.9,16.1c0,0-2.8-12.9,5.1-25.4c7.9-12.4,28.1-0.6,30.8,4.4
		c2.7,5,10.6,9.3-2.7,30.7C2110.3,82.3,2086.4,65.6,2084.9,56.5"/>
	<path class="st14" d="M2101.3,89.9c0,0-1.8,3.9-8.7,7.5c0-1,0.1-2,0.1-3.1C2092.6,94.3,2097.3,93.7,2101.3,89.9"/>
	<path class="st13" d="M1997.7,194.9c0,0-4.9,2.2-7.2,1.2c-2.3-1-5.9-1.2-7-1.2c-1.5,0-6.2-1.7-6.1,0.2c0.1,1.8,7.7,3.1,9.2,3.7
		c1.6,0.6-4.6,4-5.2,5.5c-0.6,1.5,6.4,11.4,10.4,8.6c3.9-2.8,6.1-8.5,6.9-8.8c0.8-0.4,3-1.9,3-1.9L1997.7,194.9z"/>
	<path class="st13" d="M1982.1,203.4c0,0-11.4,9.5-11.6,10.8c-0.2,1.3,0.4,1.9,1.5,1c1.1-0.8,11.3-8.8,11.3-8.8
		s-11.4,13.5-11.8,14.5c-0.2,0.6,0.9,1.8,1.5,1.4c0.6-0.4,12.8-13.1,12.8-13.1s-10.7,12.6-10.7,13.6c0,0.8,1.2,1.7,2.1,0.8
		c0.9-0.9,11.5-12,11.5-12s-7.1,9.7-6.7,10.6c0.3,0.5,1.2,1.6,2.9-0.9c1.8-2.6,6.6-8.2,6.6-8.2L1982.1,203.4z"/>
	<path class="st8" d="M2119,262.5h-33.6c0,0-31,2.5-33.5-19.2c-2.5-21.7,10.2-33.8,10.2-33.8s16.4,4.4,30.7,7.8
		c7.2-1.5,15.8-2.5,25.9-2.3c0,0,60.6,20,58.8,30.6C2177.3,245.6,2152,232.1,2119,262.5"/>
	<polygon class="st15" points="2097.1,224.9 2161.2,223.9 2128.8,240.4 	"/>
	<path class="st12" d="M2117,216.7c0,0-14.4,5.6-32.1,0.5l-0.8-6.6l36.4,2L2117,216.7z"/>
	<polygon class="st16" points="2128.8,240.4 2097.1,228.1 2097.1,224.9 2131.3,237.2 	"/>
	<path class="st17" d="M2116.8,219.7c-0.2,2.4,2.2,4.1,4.4,3.1l3.7-1.6c1.1-0.5,1.8-1.7,1.6-2.9c-1.6-9.7-4.9-47.5,0-53.9
		c1.8-2.4,2.9-4.5,3.6-6.3c3.2,8.3,7.2,18.9,8.8,24.7l30.3,40.3l10.2,2.6c-12.7-30.5-22.9-46.7-22.9-46.7c-2-5.3-7.7-21.4-12.7-35.8
		c-3.2-9.1-6.1-17.4-7.7-21.9c-0.8-2.3-2.4-4.2-4.4-5.4c-4.7-2.8-12.5-7.2-19.6-10.7c0,0-0.1,0-0.1,0c-0.2-0.1-0.4-0.2-0.7-0.3
		c0,0,0,0,0,0c0,0,0,0,0,0C2124.7,125.2,2119.4,182.8,2116.8,219.7C2116.8,219.7,2116.8,219.7,2116.8,219.7"/>
	<path class="st17" d="M2066.7,106.5c-4.3,0.7-15,11.1-20.7,21.6c-6.5,12-13.1,25.6-18.1,30.1c-9.1,8.3-34.6,37.4-35.8,36.7
		c-0.5-0.3,7,8.7,7.9,9.1c0.5,0.2,41.9-35.7,45.9-41.2c3.8-5.2,13.9-26.9,16.9-26.5c0,0,0,0,0,0c0,0,0,0,0,0
		c0.2,0.5,3.9,8.5,7.4,20.1c0.1,0.2,0.1,0.4,0.2,0.6c2.4,8.1,2.2,16.9,0.9,26.8c-1,7.5-6.6,19.7-9.9,25.6c-0.4,0.7-0.3,2.1,0.1,3.1
		v0c0.3,0.6,0.6,1.1,1.1,1.3l12.2,4.5l2.9,1.1c2.1,0.8,4.2,0.4,5.8-0.8c1.3-1,2.3-2.4,2.5-4.2c2.7-20.8,6.1-42.1,8.9-50.1
		c12-35.1-4.7-61.5-4.7-61.5S2070.5,105.1,2066.7,106.5"/>
	<polygon class="st18" points="2128.8,240.4 2147.9,188.3 2209.4,189.3 2191.2,237.3 	"/>
	<path class="st10" d="M2102.8,69.1c0,0,3.9,6.1,0.3,11.4c-3.6,5.3,0.9,10.5,1.7,16.1c0.8,5.6-15.2,20.5,2.6,28
		c17.8,7.5,23.4-4.9,18.9-11.7c-4.5-6.8-7.8-12.3-8.1-22C2117.7,81.1,2114.5,66,2102.8,69.1"/>
	<path class="st13" d="M1516.4,718c0,0,1.8-4.4,2.1-5c0.3-0.7,2-1.7,4-2.8c2.1-1.1,5.3-1.6,5.7-1.4c0.3,0.2,0.8,0.2,1.2,1.1
		c0.4,0.9,0.3,1.9,0.3,1.9s1.1,0.9,0.8,2.1c0,0,1,0.9,0.5,2.2c0,0,0.9,0.9,0.5,1.8c0,0-1.7,1.1-2.2,1.7c-0.5,0.6-4.2,2.6-8,4
		C1521.3,723.7,1517.2,723.8,1516.4,718"/>
	<path class="st19" d="M1522.6,715.6c0,0,0,2.4-0.3,3c-0.3,0.7,4.8,2.2,4.8,2.2S1525.5,715.7,1522.6,715.6"/>
	<polygon class="st20" points="1427.2,946.6 1429.5,939.6 1438.9,941.2 1437.5,947.4 	"/>
	<polygon class="st21" points="1504.7,945.8 1505.2,949.6 1515.5,947.9 1515,942.2 	"/>
	<path class="st22" d="M1482.3,838.6c0,0-1.5,8.3-3.3,17.5c-0.3,1.6-0.6,3.2-0.9,4.9c-1.7,8.9-3.5,17.4-4.1,19.2
		c-1.5,4-33.1,62.1-33.1,62.1s-13-1-13.4-2.7c0,0,26.6-63,26.4-65.3c-0.1-2.3,3.2-66.9,3.2-66.9S1481.6,834.9,1482.3,838.6"/>
	<path class="st22" d="M1496.7,803.7c0,0,12.4,63.5,13.5,68.3c1.1,4.9,5.8,69.9,5.8,69.9s-2.8,5.7-13.1,3.6c0,0-14-69.8-15.2-72.2
		c-4.6-9.1-27.1-53.1-29.3-59.4c-2.2-6.3-1.5-13.6-1.5-13.6S1473.6,790.9,1496.7,803.7"/>
	<path class="st23" d="M1491.5,721.5c0,0,5.4,13.5,6.8,13.2c1.4-0.4,17-18.7,17-18.7s7.1,8.9,6.2,9.9c-1.3,1.4-19.8,32.1-22.3,31.5
		c-2.5-0.6-13.9-19.3-13.9-19.3S1484.7,724,1491.5,721.5"/>
	<path class="st24" d="M1468.3,695.6c0,0,14.1,10.8,18,15c3.9,4.3,14.6,22,13.9,27.3c-3,20.4-4.4,37.9-4.5,51.8
		c-0.1,12.1,3.8,15.2,1.4,15.4c-2.8,0.2-38.2,13.1-43.5,14.6c0,0,3.4-42.8,5.2-47.7C1460.5,767.2,1453.2,715.5,1468.3,695.6"/>
	<path class="st25" d="M1505.2,949.6c0,0,7.8-1.5,8.1-1.7c0.3-0.2,1.9-3.3,3.2-2.8c1.2,0.5,1.2,4.3,2.4,4.9
		c1.2,0.6,10.5,6.9,11.6,8.1c1.1,1.1,8.2,0.5,9,2.5c0.8,2,0.9,6.7-9.7,5.6c-10.5-1.1-22.6,0.6-24.8-0.6
		C1502.8,964.2,1504.5,952.6,1505.2,949.6"/>
	<path class="st25" d="M1427.1,946.4c0,0,8-0.2,8.3-0.4c0.3-0.2,2.5-3,3.6-2.2c1.1,0.7,0.5,4.4,1.6,5.3c1.1,0.8,9.3,8.5,10.2,9.8
		c0.9,1.3,8,1.8,8.5,3.9c0.5,2.1-0.2,6.8-10.4,4c-10.2-2.8-22.4-3-24.4-4.6C1422.3,960.5,1425.9,949.3,1427.1,946.4"/>
	<path class="st26" d="M1488.8,806.6c0,0,1,3.9,2.5,4.7c1.5,0.8-7.1,9.1-7.1,9.1s-3.5-7.7-3.4-8.4
		C1480.9,811.2,1488.8,806.6,1488.8,806.6"/>
	<path class="st27" d="M1462,712.3c0,0-10.1,48.1-10.9,53c-0.8,4.7,29.7,49.2,29.7,49.2l10.1-6c0,0-24.6-44.7-24.5-46.7
		c0-2,11.8-40.8,11.8-40.8s4.9-8.4-3.8-12.5C1465.6,704.4,1462,712.3,1462,712.3"/>
	<path class="st28" d="M1494.8,810c0,0,3.3,16.4,3.1,21.4c-0.2,5-18.9-7.9-17.9-12.9L1494.8,810z"/>
	<path class="st13" d="M1468.3,695.6c0,0,25.7,28,24.1,24.9c-5.6-11.1-9.6-13-9.5-15c0.1-1.6,0.7-6.2,0.8-7.7
		c0.2-2.9,0.4-5.3,0.4-5.3s-12.7-17.9-12.2-11.8C1472.5,686.8,1468.3,695.6,1468.3,695.6"/>
	<path class="st13" d="M1492.7,662.6c0,0,3.5,8.3,3.6,10.2c0,1.9-0.4,3.4-0.1,5.7c0.3,2.3,2.3,7.2,2,8.5c-0.3,1.6-3.7,0.8-4.2,3.5
		c-0.5,2.7-3,7.7-4.2,7.8c-3.2,0.3-15.3-4.7-16.1-7.2c-0.8-2.5-5.2-16.7-6.6-19.4c-1.4-2.7,21.4-17.5,23.5-13.2L1492.7,662.6z"/>
	<path class="st29" d="M1461.7,668.8c-1.6-7,6.5-7.9,6.5-7.9s5.3-6.1,17.9-5.4c12.6,0.7,10.7,17.2,10.7,17.2s-8.7-1.3-12.5-0.3
		c0,0-0.5,7-0.1,8.8l-4.8-0.4c0,0,0.5-6.2-1.8-6.5c-2.3-0.3-3,13.2-7.3,16.2c0,0,0-1-0.6-1.9c-0.8-1.5-2.2-4-3.3-6.9
		C1464.6,677.4,1462.5,672.4,1461.7,668.8"/>
	<path class="st13" d="M1480.8,675.6c0,0-1.8-4.8-5.9-1.7c-3,2.2,0.1,10.3,3,10.2C1480.9,684.1,1482.1,679.8,1480.8,675.6"/>
	<path class="st30" d="M1473,688.8c0,0,0.6,2.5,1.3,3.1c0.7,0.6,3.9,3.2,9.4,4.9l-0.5,5C1483.2,701.8,1472.5,697.6,1473,688.8"/>
</g>
<g>
	<defs>
		<path id="SVGID_7_" d="M1518.6,706.8l7,14.8c0.8,1.6,2.4,2.1,4,1.3l1.8-0.9l-8.2-17.4L1518.6,706.8z"/>
	</defs>
	<clipPath id="SVGID_8_">
		<use xlink:href="#SVGID_7_"  style="overflow:visible;"/>
	</clipPath>
	<path class="st31" d="M1518.6,704.6v19.1V704.6z"/>
	<rect x="1518.6" y="704.6" class="st31" width="0.2" height="19.1"/>
	<rect x="1518.8" y="704.6" class="st32" width="0.2" height="19.1"/>
	<rect x="1519" y="704.6" class="st33" width="0.2" height="19.1"/>
	<rect x="1519.2" y="704.6" class="st34" width="0.2" height="19.1"/>
	<rect x="1519.4" y="704.6" class="st35" width="0.2" height="19.1"/>
	<rect x="1519.6" y="704.6" class="st36" width="0.2" height="19.1"/>
	<rect x="1519.8" y="704.6" class="st37" width="0.2" height="19.1"/>
	<rect x="1520" y="704.6" class="st38" width="0.2" height="19.1"/>
	<rect x="1520.2" y="704.6" class="st39" width="0.2" height="19.1"/>
	<rect x="1520.4" y="704.6" class="st40" width="0.2" height="19.1"/>
	<rect x="1520.6" y="704.6" class="st41" width="0.2" height="19.1"/>
	<rect x="1520.8" y="704.6" class="st42" width="0.2" height="19.1"/>
	<rect x="1521" y="704.6" class="st43" width="0.2" height="19.1"/>
	<rect x="1521.2" y="704.6" class="st44" width="0.2" height="19.1"/>
	<rect x="1521.4" y="704.6" class="st45" width="0.2" height="19.1"/>
	<rect x="1521.6" y="704.6" class="st46" width="0.2" height="19.1"/>
	<rect x="1521.8" y="704.6" class="st47" width="0.2" height="19.1"/>
	<rect x="1522" y="704.6" class="st48" width="0.2" height="19.1"/>
	<rect x="1522.2" y="704.6" class="st49" width="0.2" height="19.1"/>
	<rect x="1522.4" y="704.6" class="st50" width="0.2" height="19.1"/>
	<rect x="1522.6" y="704.6" class="st51" width="0.2" height="19.1"/>
	<rect x="1522.8" y="704.6" class="st52" width="0.2" height="19.1"/>
	<rect x="1523" y="704.6" class="st53" width="0.2" height="19.1"/>
	<rect x="1523.2" y="704.6" class="st54" width="0.2" height="19.1"/>
	<rect x="1523.4" y="704.6" class="st55" width="0.2" height="19.1"/>
	<rect x="1523.5" y="704.6" class="st56" width="0.2" height="19.1"/>
	<rect x="1523.7" y="704.6" class="st57" width="0.2" height="19.1"/>
	<rect x="1523.9" y="704.6" class="st58" width="0.2" height="19.1"/>
	<rect x="1524.1" y="704.6" class="st59" width="0.2" height="19.1"/>
	<rect x="1524.3" y="704.6" class="st60" width="0.2" height="19.1"/>
	<rect x="1524.5" y="704.6" class="st61" width="0.2" height="19.1"/>
	<rect x="1524.7" y="704.6" class="st62" width="0.2" height="19.1"/>
	<rect x="1524.9" y="704.6" class="st63" width="0.2" height="19.1"/>
	<rect x="1525.1" y="704.6" class="st64" width="0.2" height="19.1"/>
	<rect x="1525.3" y="704.6" class="st65" width="0.2" height="19.1"/>
	<rect x="1525.5" y="704.6" class="st66" width="0.2" height="19.1"/>
	<rect x="1525.7" y="704.6" class="st67" width="0.2" height="19.1"/>
	<rect x="1525.9" y="704.6" class="st68" width="0.2" height="19.1"/>
	<rect x="1526.1" y="704.6" class="st69" width="0.2" height="19.1"/>
	<rect x="1526.3" y="704.6" class="st70" width="0.2" height="19.1"/>
	<rect x="1526.5" y="704.6" class="st71" width="0.2" height="19.1"/>
	<rect x="1526.7" y="704.6" class="st72" width="0.2" height="19.1"/>
	<rect x="1526.9" y="704.6" class="st73" width="0.2" height="19.1"/>
	<rect x="1527.1" y="704.6" class="st74" width="0.2" height="19.1"/>
	<rect x="1527.3" y="704.6" class="st75" width="0.2" height="19.1"/>
	<rect x="1527.5" y="704.6" class="st76" width="0.2" height="19.1"/>
	<rect x="1527.7" y="704.6" class="st77" width="0.2" height="19.1"/>
	<rect x="1527.9" y="704.6" class="st78" width="0.2" height="19.1"/>
	<rect x="1528.1" y="704.6" class="st79" width="0.2" height="19.1"/>
	<rect x="1528.3" y="704.6" class="st80" width="0.2" height="19.1"/>
	<rect x="1528.5" y="704.6" class="st81" width="0.2" height="19.1"/>
	<rect x="1528.7" y="704.6" class="st82" width="0.2" height="19.1"/>
	<rect x="1528.9" y="704.6" class="st83" width="0.2" height="19.1"/>
	<rect x="1529.1" y="704.6" class="st84" width="0.2" height="19.1"/>
	<rect x="1529.3" y="704.6" class="st85" width="0.2" height="19.1"/>
	<rect x="1529.5" y="704.6" class="st86" width="0.2" height="19.1"/>
	<rect x="1529.7" y="704.6" class="st87" width="0.2" height="19.1"/>
	<rect x="1529.9" y="704.6" class="st88" width="0.2" height="19.1"/>
	<rect x="1530.1" y="704.6" class="st89" width="0.2" height="19.1"/>
	<rect x="1530.3" y="704.6" class="st90" width="0.2" height="19.1"/>
	<rect x="1530.4" y="704.6" class="st91" width="0.2" height="19.1"/>
	<rect x="1530.6" y="704.6" class="st92" width="0.2" height="19.1"/>
	<rect x="1530.8" y="704.6" class="st93" width="0.2" height="19.1"/>
	<rect x="1531" y="704.6" class="st94" width="0.2" height="19.1"/>
	<rect x="1531.2" y="704.6" class="st95" width="0.2" height="19.1"/>
	<path class="st95" d="M1531.4,723.7v-19.1V723.7z"/>
</g>
<g>
	<defs>
		<rect id="SVGID_9_" y="6.6" width="2718.2" height="1330.4"/>
	</defs>
	<clipPath id="SVGID_10_">
		<use xlink:href="#SVGID_9_"  style="overflow:visible;"/>
	</clipPath>
	<path class="st96" d="M1527.6,709.1c0,0-5.1,2.8-4.8,3.7c0.4,0.9,1,1,1,1l-1.6,2.1c0,0-0.3,2,2,1.7c0,0-0.4,1.8,1.7,1.3
		c0,0,0.3,1.3,1.3,1.3c1-0.1,4.3-2,4.3-2s0.5-0.7-0.5-1.8c0,0,0.6-1.3-0.5-2.2c0,0,0.3-1.1-0.8-2.1c0,0,0.5-2.5-1.6-3.1
		C1528.1,708.8,1527.8,709,1527.6,709.1"/>
	<path class="st97" d="M1518.6,712.9c0,0,4-0.1,6.2,0.8c0.5,0.2,1,0.5,1,1c0,0.5-0.8,1.2-2.5,1.4c-1.7,0.1-3.9,1.1-3.9,1.1
		S1517.5,716.8,1518.6,712.9"/>
	<path class="st98" d="M1479,856.1c-0.3,1.6-0.6,3.2-0.9,4.9l-10.3-27.2C1469.1,836.5,1479,856.1,1479,856.1"/>
	<path class="st99" d="M1934.1,478.1c0,0,38.9-114-35.3-149.4c-74.2-35.3-137.2,15.7-149.1,43.4c-11.9,27.6-8.8,77.9,1.4,113
		c10.1,35.1,8.7,88.4-13.4,106.3c-22,17.8-49.4,47.5-48,107.8c0.8,37.4,147.3-95.8,147.3-95.8L1934.1,478.1z"/>
	<path class="st100" d="M1829.9,613.7c0,0-61,13.5-85.2,27.7c-24.2,14.1-78,79.2-78,107.2c0,28,235.1,54.1,235.1,54.1l44.6,162.7
		c0,0,118.8-29,133-53c14.1-24-45.1-196.4-55.3-231.3c-10.3-35.6-52.9-60.4-102.4-67.3C1872.1,606.7,1829.9,613.7,1829.9,613.7"/>
	<path class="st97" d="M1917.3,613.1c0,0-1.4,74.1-60.2,76.3c-58.8,2.2-46.5-71.1-46.5-71.1S1853.6,600.9,1917.3,613.1"/>
	<path class="st99" d="M1942.2,389.5c0,0,20.8,119.2-38.4,205.3C1842.5,684,1942.2,389.5,1942.2,389.5"/>
	<path class="st97" d="M1904.7,560.7c0,0-4.1,35.5,2.7,57.5c6.8,22-89.9,22.7-89.8,4.5c0.1-20.6,9.9-37.8,0.6-73.1
		C1809,514.3,1904.7,560.7,1904.7,560.7"/>
	<path class="st101" d="M1829.7,565.2c0,0,30.5,31.8,69.6,3.3c0,0-3.2,20.3-31.3,23S1829.7,565.2,1829.7,565.2"/>
	<path class="st97" d="M1868,348.1c0,0,77.2,22.8,66.1,129.9c-11,107.1-61.4,101.6-66.1,102.4c-4.7,0.8-64.6,4.7-83.5-125.2
		C1765.6,325.3,1868,348.1,1868,348.1"/>
	<path class="st99" d="M1848,395.9c0,0,41.9,66.7,86.1,82.2c0,0,24.1-111.9-75.4-135.4c-99.5-23.4-83.9,113-76.5,149.4
		C1782.2,492.1,1802.9,438.6,1848,395.9"/>
	<polygon class="st102" points="1943.5,722 1969.7,965.3 1625.3,965.3 1599.1,722 	"/>
	<path class="st102" d="M1961.4,956.9H1614l-26.5-246.3h347.4L1961.4,956.9z M1616.7,953.9h341.4l-25.8-240.3h-341.4L1616.7,953.9z"
		/>
	<rect x="2036" y="938.2" class="st102" width="70.6" height="26.9"/>
	<path class="st103" d="M1982.8,95.6H1815c-12.8,0-23.2-10.4-23.2-23.2V29.8c0-12.8,10.4-23.2,23.2-23.2h167.8
		c12.8,0,23.2,10.4,23.2,23.2v10.4l27.3,10L2006,66.5v5.8C2006,85.2,1995.6,95.6,1982.8,95.6"/>
	<path class="st104" d="M1982.4,43.8h-166.5c-3.3,0-6.1-2.7-6.1-6.1s2.7-6.1,6.1-6.1h166.5c3.3,0,6.1,2.7,6.1,6.1
		S1985.7,43.8,1982.4,43.8"/>
	<path class="st104" d="M1914.3,70.5h-98.4c-3.3,0-6.1-2.7-6.1-6.1s2.7-6.1,6.1-6.1h98.4c3.3,0,6.1,2.7,6.1,6.1
		S1917.7,70.5,1914.3,70.5"/>
	<path class="st105" d="M1225.2,368.9H945.9v-9.7c0-2.5,2-4.5,4.5-4.5h270.2c2.5,0,4.5,2,4.5,4.5V368.9z"/>
	<path class="st105" d="M992.8,447.8h-34.6c-1,0-1.8-0.8-1.8-1.8v-9.9h38.2v9.9C994.6,447,993.8,447.8,992.8,447.8"/>
	<path class="st105" d="M1212.9,447.8h-34.6c-1,0-1.8-0.8-1.8-1.8v-9.9h38.2v9.9C1214.7,447,1213.9,447.8,1212.9,447.8"/>
	<path class="st106" d="M1203.9,366.8h-16.6l3.9-192.9c0-2.4,2-4.3,4.4-4.3c2.4,0,4.4,1.9,4.4,4.3L1203.9,366.8z"/>
	<path class="st102" d="M1234.7,365.9v70.9c0,2.3-1.9,4.1-4.1,4.1H940.5c-2.3,0-4.1-1.8-4.1-4.1v-70.9c0-2.3,1.9-4.1,4.1-4.1h290.1
		C1232.9,361.8,1234.7,363.6,1234.7,365.9"/>
	<path class="st106" d="M1234.7,365.9v70.9c0,2.3-1.9,4.1-4.1,4.1H940.5c-2.3,0-4.1-1.8-4.1-4.1
		C1219.7,442.7,1234.7,365.9,1234.7,365.9"/>
	<path class="st107" d="M975.7,401.4c0,5-4.1,9.1-9.1,9.1c-5,0-9.1-4.1-9.1-9.1c0-5,4.1-9.1,9.1-9.1
		C971.6,392.2,975.7,396.3,975.7,401.4"/>
	<path class="st107" d="M1023,401.4c0,2.4-2,4.4-4.4,4.4c-2.4,0-4.4-2-4.4-4.4c0-2.4,2-4.4,4.4-4.4C1021,397,1023,398.9,1023,401.4"
		/>
	<path class="st107" d="M1042,401.4c0,2.4-2,4.4-4.4,4.4c-2.4,0-4.4-2-4.4-4.4c0-2.4,2-4.4,4.4-4.4
		C1040.1,397,1042,398.9,1042,401.4"/>
	<path class="st107" d="M1061.1,401.4c0,2.4-2,4.4-4.4,4.4c-2.4,0-4.4-2-4.4-4.4c0-2.4,2-4.4,4.4-4.4
		C1059.1,397,1061.1,398.9,1061.1,401.4"/>
	<path class="st107" d="M1080.1,401.4c0,2.4-2,4.4-4.4,4.4s-4.4-2-4.4-4.4c0-2.4,2-4.4,4.4-4.4S1080.1,398.9,1080.1,401.4"/>
	<path class="st107" d="M1099.2,401.4c0,2.4-2,4.4-4.4,4.4s-4.4-2-4.4-4.4c0-2.4,2-4.4,4.4-4.4S1099.2,398.9,1099.2,401.4"/>
	<path class="st107" d="M1118.2,401.4c0,2.4-2,4.4-4.4,4.4c-2.4,0-4.4-2-4.4-4.4c0-2.4,2-4.4,4.4-4.4
		C1116.3,397,1118.2,398.9,1118.2,401.4"/>
	<path class="st107" d="M1215.3,405.7h-72.7c-2.4,0-4.4-2-4.4-4.4c0-2.4,2-4.4,4.4-4.4h72.7c2.4,0,4.4,2,4.4,4.4
		C1219.7,403.8,1217.7,405.7,1215.3,405.7"/>
	<path class="st100" d="M1199.5,161.3c-2.1,2.1-5.6,2.1-7.7,0c-2.1-2.1-2.1-5.6,0-7.7s5.6-2.1,7.7,0
		C1201.6,155.7,1201.6,159.2,1199.5,161.3"/>
	<path class="st100" d="M1186.1,150.9c-0.8,0-1.5-0.3-2.1-0.9c-1.2-1.2-1.2-3.1,0-4.3c3.1-3.1,7.2-4.8,11.6-4.8s8.5,1.7,11.6,4.8
		c1.2,1.2,1.2,3.1,0,4.3c-1.2,1.2-3.1,1.2-4.3,0c-2-2-4.6-3.1-7.4-3.1c-2.8,0-5.4,1.1-7.4,3.1
		C1187.6,150.7,1186.9,150.9,1186.1,150.9"/>
	<path class="st100" d="M1213.8,142.2c-0.8,0-1.5-0.3-2.1-0.9c-4.3-4.3-10-6.7-16.1-6.7c-6.1,0-11.8,2.4-16.1,6.7
		c-1.2,1.2-3.1,1.2-4.3,0c-1.2-1.2-1.2-3.1,0-4.3c5.4-5.4,12.7-8.4,20.4-8.4c7.7,0,14.9,3,20.4,8.4c1.2,1.2,1.2,3.1,0,4.3
		C1215.4,141.9,1214.6,142.2,1213.8,142.2"/>
	<path class="st100" d="M1225.5,132.6c-0.7,0.7-1.6,1.1-2.6,1.1c-0.9,0-1.9-0.4-2.6-1.1c-6.6-6.6-15.4-10.3-24.8-10.3
		c-9.4,0-18.2,3.7-24.8,10.3c-1.4,1.4-3.7,1.4-5.1,0c-1.4-1.4-1.4-3.7,0-5.1c2-2,4.1-3.7,6.4-5.3c6.9-4.7,15-7.2,23.6-7.2
		c1.7,0,3.4,0.1,5.1,0.3c9.4,1.1,18.1,5.3,24.9,12.1C1226.9,128.9,1226.9,131.2,1225.5,132.6"/>
</g>
</svg>
