<?xml version="1.0" encoding="utf-8"?>
<!-- Generator: Adobe Illustrator 19.0.0, SVG Export Plug-In . SVG Version: 6.00 Build 0)  -->
<svg version="1.1" id="Layer_1" xmlns="http://www.w3.org/2000/svg" xmlns:xlink="http://www.w3.org/1999/xlink" x="0px" y="0px"
	 viewBox="0 0 3014.9 1543.2" style="enable-background:new 0 0 3014.9 1543.2;" xml:space="preserve">
<style type="text/css">
	.st0{clip-path:url(#SVGID_2_);fill:#54A964;}
	.st1{clip-path:url(#SVGID_2_);}
	.st2{clip-path:url(#SVGID_4_);fill:#54A964;}
	.st3{clip-path:url(#SVGID_6_);fill:#FFFFFF;}
	.st4{fill:#79C798;}
	.st5{fill:#FFFFFF;}
	.st6{clip-path:url(#SVGID_8_);fill:#FFE1BD;}
	.st7{clip-path:url(#SVGID_8_);fill:#153A4F;}
	.st8{clip-path:url(#SVGID_8_);fill:#1D445E;}
	.st9{clip-path:url(#SVGID_8_);fill:#939598;}
	.st10{clip-path:url(#SVGID_8_);fill:#FFCCB0;}
	.st11{clip-path:url(#SVGID_8_);fill:#F2A181;}
	.st12{clip-path:url(#SVGID_8_);fill:#231F20;}
	.st13{clip-path:url(#SVGID_8_);fill:#ECBA42;}
	.st14{opacity:0.5;clip-path:url(#SVGID_8_);}
	.st15{clip-path:url(#SVGID_10_);fill:#ECBA42;}
	.st16{clip-path:url(#SVGID_8_);fill:#FFFFFF;}
	.st17{clip-path:url(#SVGID_8_);fill:#F4CEA4;}
	.st18{clip-path:url(#SVGID_8_);fill:#0B3247;}
	.st19{clip-path:url(#SVGID_8_);fill:#54A964;}
	.st20{clip-path:url(#SVGID_8_);fill:#FCD4A9;}
	.st21{clip-path:url(#SVGID_8_);fill:#F8D265;}
	.st22{clip-path:url(#SVGID_8_);fill:#97DEEF;}
	.st23{clip-path:url(#SVGID_8_);fill:#81C7A0;}
	.st24{clip-path:url(#SVGID_8_);fill:#6DD480;}
	.st25{clip-path:url(#SVGID_12_);fill:#1D445E;}
	.st26{clip-path:url(#SVGID_12_);fill:#FFE1BD;}
	.st27{clip-path:url(#SVGID_12_);fill:#231F20;}
	.st28{clip-path:url(#SVGID_12_);fill:#F5BC8E;}
	.st29{clip-path:url(#SVGID_12_);fill:#58595B;}
	.st30{clip-path:url(#SVGID_12_);fill:#FCD4A9;}
	.st31{clip-path:url(#SVGID_12_);fill:#F8D265;}
	.st32{opacity:0.5;clip-path:url(#SVGID_12_);}
	.st33{clip-path:url(#SVGID_14_);fill:#F8D265;}
	.st34{clip-path:url(#SVGID_12_);fill:#FFFFFF;}
</style>
<g>
	<defs>
		<rect id="SVGID_1_" width="3014.9" height="2399.6"/>
	</defs>
	<clipPath id="SVGID_2_">
		<use xlink:href="#SVGID_1_"  style="overflow:visible;"/>
	</clipPath>
	<polygon class="st0" points="0,1.4 0,1154.6 3012.8,1539.8 3012.8,1.4 	"/>
	<polygon class="st0" points="8.2,1.4 8.2,1152.6 3008.1,1537.8 3008.1,1.4 	"/>
	<polygon class="st0" points="2664,186.1 2686.1,327.3 2782.5,369.8 2827.4,547.2 2952.2,580.2 3008.3,737.7 3012.8,736.1 
		3012.8,729.4 2957.6,574.4 2833.1,541.5 2788.4,364.8 2692.4,322.4 2670.9,185 	"/>
	<g class="st1">
		<defs>
			<polygon id="SVGID_3_" points="0,1.4 0,1154.6 3012.8,1539.8 3012.8,1.4 			"/>
		</defs>
		<clipPath id="SVGID_4_">
			<use xlink:href="#SVGID_3_"  style="overflow:visible;"/>
		</clipPath>
		<path class="st2" d="M2815.8,532.5c-6.5,8-5.3,19.7,2.6,26.3c8,6.5,19.8,5.3,26.3-2.6c6.5-8,5.3-19.7-2.6-26.3
			C2834.1,523.3,2822.3,524.5,2815.8,532.5"/>
		<path class="st2" d="M2770.5,356.6c-6.5,8-5.3,19.7,2.6,26.3c8,6.5,19.8,5.3,26.3-2.6c6.5-8,5.3-19.7-2.6-26.3
			C2788.8,347.4,2777,348.6,2770.5,356.6"/>
		<path class="st2" d="M2676,313c-6.5,8-5.3,19.7,2.6,26.3c8,6.5,19.7,5.3,26.3-2.6c6.5-8,5.3-19.7-2.6-26.3
			C2694.2,303.8,2682.5,305,2676,313"/>
		<path class="st2" d="M2939.7,567c-6.5,8-5.3,19.7,2.6,26.3c8,6.5,19.8,5.3,26.3-2.6c6.5-8,5.3-19.8-2.6-26.3
			C2958,557.9,2946.3,559.1,2939.7,567"/>
		<polyline class="st2" points="2662.5,172.3 2559,88.5 2514.4,3.4 		"/>
		<path class="st2" d="M2651.9,168.4c-6.5,8-5.3,19.7,2.6,26.3c8,6.5,19.7,5.3,26.3-2.6c6.5-8,5.3-19.7-2.6-26.3
			C2670.2,159.2,2658.5,160.4,2651.9,168.4"/>
		<path class="st2" d="M2544.5,78c-6.5,8-5.3,19.7,2.6,26.3c8,6.5,19.7,5.3,26.3-2.6c6.5-8,5.3-19.7-2.6-26.3
			C2562.8,68.8,2551.1,70,2544.5,78"/>
		<rect x="1185.3" y="193.5" class="st2" width="39.7" height="302.1"/>
		<rect x="1263.7" y="227.4" class="st2" width="39.7" height="268.2"/>
		<rect x="1348.9" y="271.4" class="st2" width="39.7" height="224.2"/>
		<rect x="1436.4" y="326.9" class="st2" width="39.7" height="168.7"/>
		<line class="st2" x1="1321.7" y1="59.2" x2="1321.7" y2="108.6"/>
		<polyline class="st2" points="671.7,1237.1 1259.7,1316.9 1321.7,638.8 1321.7,589.4 		"/>
		<line class="st2" x1="1031.8" y1="349" x2="1081.3" y2="349"/>
		<line class="st2" x1="1562.1" y1="349" x2="1611.5" y2="349"/>
		<line class="st2" x1="1526.6" y1="144.1" x2="1491.7" y2="179"/>
		<line class="st2" x1="1151.7" y1="519" x2="1116.7" y2="553.9"/>
		<line class="st2" x1="1116.7" y1="144.1" x2="1151.7" y2="179"/>
		<line class="st2" x1="1491.7" y1="519" x2="1526.6" y2="553.9"/>
		<line class="st2" x1="1432.6" y1="81.2" x2="1413.7" y2="126.9"/>
		<line class="st2" x1="1229.7" y1="571.1" x2="1210.8" y2="616.8"/>
		<line class="st2" x1="1053.9" y1="238.1" x2="1099.6" y2="257"/>
		<line class="st2" x1="1543.8" y1="441" x2="1589.4" y2="459.9"/>
		<line class="st2" x1="1589.4" y1="238.1" x2="1543.8" y2="257"/>
		<line class="st2" x1="1099.6" y1="441" x2="1053.9" y2="459.9"/>
		<line class="st2" x1="1210.8" y1="81.2" x2="1229.7" y2="126.9"/>
		<line class="st2" x1="1413.7" y1="571.1" x2="1432.6" y2="616.8"/>
	</g>
	<g class="st1">
		<defs>
			<rect id="SVGID_5_" width="3014.9" height="2399.6"/>
		</defs>
		<clipPath id="SVGID_6_">
			<use xlink:href="#SVGID_5_"  style="overflow:visible;"/>
		</clipPath>
		<path class="st3" d="M745.1,379.7c0,193.3-156.7,350.1-350.1,350.1C201.7,729.7,45,573,45,379.7C45,186.3,201.7,29.6,395,29.6
			C588.4,29.6,745.1,186.3,745.1,379.7"/>
	</g>
	<g class="st1">
		<path class="st4" d="M278.4,256.4c-3.4,1.7-10.1,3.4-18.8,3.4c-20,0-35.1-12.6-35.1-35.9c0-22.2,15.1-37.3,37.1-37.3
			c8.9,0,14.4,1.9,16.9,3.2l-2.2,7.5c-3.5-1.7-8.4-3-14.3-3c-16.6,0-27.7,10.6-27.7,29.3c0,17.4,10,28.6,27.3,28.6
			c5.6,0,11.3-1.2,15-3L278.4,256.4z"/>
		<path class="st4" d="M289.5,183.9h9.3v31.8h0.2c1.5-2.6,3.8-5,6.6-6.5c2.7-1.6,6-2.6,9.5-2.6c6.8,0,17.8,4.2,17.8,21.8v30.3h-9.3
			v-29.3c0-8.2-3.1-15.2-11.8-15.2c-6,0-10.7,4.2-12.4,9.3c-0.5,1.3-0.6,2.6-0.6,4.4v30.8h-9.3V183.9z"/>
		<path class="st4" d="M376.3,258.7l-0.7-6.4h-0.3c-2.8,4-8.3,7.6-15.6,7.6c-10.3,0-15.6-7.3-15.6-14.6c0-12.3,11-19.1,30.7-19v-1.1
			c0-4.2-1.2-11.8-11.6-11.8c-4.7,0-9.7,1.5-13.3,3.8l-2.1-6.1c4.2-2.7,10.3-4.5,16.8-4.5c15.6,0,19.4,10.6,19.4,20.9v19.1
			c0,4.4,0.2,8.7,0.8,12.2H376.3z M374.9,232.6c-10.1-0.2-21.6,1.6-21.6,11.5c0,6,4,8.9,8.7,8.9c6.6,0,10.9-4.2,12.3-8.5
			c0.3-0.9,0.5-2,0.5-3V232.6z"/>
		<path class="st4" d="M398.8,224.3c0-6.5-0.2-11.8-0.4-16.6h8.3l0.4,8.7h0.2c3.8-6.2,9.8-9.9,18.1-9.9c12.3,0,21.6,10.4,21.6,25.9
			c0,18.3-11.2,27.4-23.2,27.4c-6.7,0-12.6-3-15.7-8H408v27.7h-9.2V224.3z M408,237.9c0,1.4,0.2,2.6,0.4,3.8
			c1.7,6.4,7.3,10.9,13.9,10.9c9.8,0,15.5-8,15.5-19.7c0-10.2-5.4-19-15.2-19c-6.3,0-12.2,4.5-14,11.5c-0.3,1.2-0.6,2.5-0.6,3.8
			V237.9z"/>
		<path class="st4" d="M470,193v14.6h13.3v7.1H470v27.5c0,6.3,1.8,9.9,7,9.9c2.4,0,4.2-0.3,5.4-0.6l0.4,7c-1.8,0.7-4.6,1.3-8.2,1.3
			c-4.3,0-7.8-1.4-10-3.9c-2.6-2.7-3.6-7.3-3.6-13.3v-27.8H453v-7.1h7.9v-12.2L470,193z"/>
		<path class="st4" d="M498.8,234.9c0.2,12.5,8.2,17.7,17.5,17.7c6.6,0,10.6-1.2,14.1-2.6l1.6,6.6c-3.3,1.5-8.9,3.2-17,3.2
			c-15.7,0-25.1-10.3-25.1-25.7c0-15.4,9.1-27.5,23.9-27.5c16.6,0,21.1,14.6,21.1,24c0,1.9-0.2,3.4-0.3,4.3H498.8z M526,228.2
			c0.1-5.9-2.4-15.1-12.9-15.1c-9.4,0-13.5,8.6-14.2,15.1H526z"/>
		<path class="st4" d="M546.5,223.6c0-6-0.1-11.2-0.4-15.9h8.1l0.3,10h0.4c2.3-6.8,7.9-11.2,14.1-11.2c1.1,0,1.8,0.1,2.6,0.3v8.7
			c-0.9-0.2-1.9-0.3-3.2-0.3c-6.5,0-11.2,5-12.4,11.9c-0.2,1.3-0.4,2.7-0.4,4.3v27.2h-9.2V223.6z"/>
	</g>
	<g class="st1">
		<path class="st4" d="M379.8,462.7c0,91.4-33.9,141.8-93.4,141.8c-52.5,0-88.1-49.2-88.9-138.1c0-90.1,38.9-139.8,93.4-139.8
			C347.6,326.6,379.8,377.1,379.8,462.7z M233.9,466.8c0,69.9,21.5,109.6,54.6,109.6c37.2,0,55-43.4,55-112
			c0-66.2-17-109.6-54.6-109.6C257,354.8,233.9,393.6,233.9,466.8z"/>
	</g>
	<g class="st1">
		<path class="st4" d="M565,361.8H462.5l-10.3,69c6.2-0.8,12-1.7,21.9-1.7c20.7,0,41.3,4.5,57.9,14.5c21.1,12,38.5,35.1,38.5,69
			c0,52.5-41.8,91.8-100.1,91.8c-29.4,0-54.2-8.3-67-16.5l9.1-27.7c11.2,6.6,33.1,14.9,57.5,14.9c34.3,0,63.7-22.3,63.7-58.3
			c-0.4-34.7-23.6-59.5-77.3-59.5c-15.3,0-27.3,1.7-37.2,2.9l17.4-129H565V361.8z"/>
	</g>
	<g class="st1">
		<path class="st5" d="M813.1,185.9c4.4-0.9,11.5-1.6,18.6-1.6c10.2,0,16.7,1.8,21.6,5.7c4.1,3,6.6,7.7,6.6,13.9
			c0,7.6-5,14.3-13.3,17.3v0.2c7.5,1.9,16.3,8.1,16.3,19.8c0,6.8-2.7,11.9-6.7,15.8c-5.5,5-14.4,7.4-27.3,7.4
			c-7,0-12.4-0.5-15.8-0.9V185.9z M823.3,218.2h9.2c10.8,0,17.1-5.6,17.1-13.2c0-9.2-7-12.9-17.3-12.9c-4.7,0-7.4,0.4-9,0.7V218.2z
			 M823.3,256c2,0.4,4.9,0.5,8.5,0.5c10.5,0,20.2-3.9,20.2-15.3c0-10.8-9.2-15.2-20.4-15.2h-8.4V256z"/>
		<path class="st5" d="M881.9,237.3c0.2,13.9,9.1,19.7,19.4,19.7c7.4,0,11.8-1.3,15.7-2.9l1.8,7.4c-3.6,1.6-9.8,3.5-18.8,3.5
			c-17.4,0-27.8-11.5-27.8-28.5c0-17.1,10.1-30.5,26.6-30.5c18.5,0,23.4,16.3,23.4,26.7c0,2.1-0.2,3.7-0.4,4.8H881.9z M912.1,229.9
			c0.1-6.6-2.7-16.7-14.3-16.7c-10.4,0-15,9.6-15.8,16.7H912.1z"/>
		<path class="st5" d="M935.8,263.7v-48.8h-8v-7.8h8v-2.7c0-8,1.8-15.2,6.6-19.8c3.9-3.7,9-5.3,13.8-5.3c3.6,0,6.8,0.8,8.8,1.6
			l-1.4,8c-1.5-0.7-3.6-1.3-6.6-1.3c-8.8,0-11,7.7-11,16.4v3h13.7v7.8H946v48.8H935.8z"/>
		<path class="st5" d="M1020.2,234.9c0,20.9-14.5,30.1-28.2,30.1c-15.3,0-27.1-11.2-27.1-29.1c0-19,12.4-30.1,28.1-30.1
			C1009.2,205.8,1020.2,217.6,1020.2,234.9z M975.3,235.5c0,12.4,7.1,21.8,17.2,21.8c9.8,0,17.2-9.2,17.2-22c0-9.6-4.8-21.8-17-21.8
			C980.5,213.5,975.3,224.7,975.3,235.5z"/>
		<path class="st5" d="M1033.2,224.7c0-6.7-0.1-12.4-0.5-17.7h9l0.4,11.1h0.5c2.6-7.6,8.8-12.4,15.7-12.4c1.2,0,2,0.1,2.9,0.4v9.7
			c-1.1-0.2-2.1-0.4-3.5-0.4c-7.3,0-12.4,5.5-13.8,13.2c-0.2,1.4-0.5,3-0.5,4.8v30.2h-10.2V224.7z"/>
		<path class="st5" d="M1077.2,237.3c0.2,13.9,9.1,19.7,19.4,19.7c7.4,0,11.8-1.3,15.7-2.9l1.8,7.4c-3.6,1.6-9.8,3.5-18.8,3.5
			c-17.4,0-27.8-11.5-27.8-28.5c0-17.1,10.1-30.5,26.6-30.5c18.5,0,23.4,16.3,23.4,26.7c0,2.1-0.2,3.7-0.4,4.8H1077.2z
			 M1107.4,229.9c0.1-6.6-2.7-16.7-14.3-16.7c-10.4,0-15,9.6-15.8,16.7H1107.4z"/>
		<path class="st5" d="M1172.8,263.7v-33.5l-24.9-45.4h11.6l11.1,21.8c3,6,5.4,10.8,7.8,16.3h0.2c2.2-5.1,4.9-10.3,8-16.3l11.3-21.8
			h11.6l-26.4,45.3v33.6H1172.8z"/>
		<path class="st5" d="M1269.4,234.9c0,20.9-14.5,30.1-28.2,30.1c-15.3,0-27.1-11.2-27.1-29.1c0-19,12.4-30.1,28.1-30.1
			C1258.4,205.8,1269.4,217.6,1269.4,234.9z M1224.5,235.5c0,12.4,7.1,21.8,17.2,21.8c9.8,0,17.2-9.2,17.2-22
			c0-9.6-4.8-21.8-17-21.8C1229.7,213.5,1224.5,224.7,1224.5,235.5z"/>
		<path class="st5" d="M1329.8,248.3c0,5.9,0.1,11,0.5,15.4h-9.1l-0.6-9.2h-0.2c-2.7,4.6-8.7,10.5-18.7,10.5
			c-8.9,0-19.5-4.9-19.5-24.8v-33.1h10.3v31.4c0,10.8,3.3,18,12.6,18c6.9,0,11.7-4.8,13.6-9.4c0.6-1.5,0.9-3.4,0.9-5.3v-34.8h10.3
			V248.3z"/>
		<path class="st5" d="M1370.6,251.3c4.6,2.8,11.2,5.1,18.3,5.1c10.4,0,16.5-5.5,16.5-13.5c0-7.4-4.2-11.6-14.9-15.7
			c-12.9-4.6-20.8-11.2-20.8-22.3c0-12.3,10.2-21.4,25.5-21.4c8.1,0,13.9,1.9,17.4,3.9l-2.8,8.3c-2.6-1.4-7.8-3.7-15-3.7
			c-10.8,0-14.9,6.4-14.9,11.8c0,7.4,4.8,11,15.7,15.2c13.3,5.1,20.1,11.6,20.1,23.2c0,12.2-9,22.7-27.6,22.7
			c-7.6,0-15.9-2.2-20.1-5L1370.6,251.3z"/>
		<path class="st5" d="M1433.4,207.1l7.5,28.8c1.6,6.3,3.2,12.2,4.2,18h0.4c1.3-5.7,3.2-11.8,5-17.9l9.2-28.9h8.7l8.8,28.3
			c2.1,6.8,3.7,12.8,5,18.5h0.4c0.9-5.7,2.5-11.7,4.3-18.4l8.1-28.4h10.2l-18.3,56.6h-9.4l-8.7-27c-2-6.3-3.6-11.9-5-18.6h-0.2
			c-1.4,6.8-3.2,12.6-5.1,18.7l-9.1,26.9h-9.4l-17.1-56.6H1433.4z"/>
		<path class="st5" d="M1526.9,191.2c0.1,3.5-2.5,6.3-6.6,6.3c-3.6,0-6.2-2.8-6.2-6.3c0-3.6,2.7-6.4,6.4-6.4
			C1524.5,184.7,1526.9,187.5,1526.9,191.2z M1515.5,263.7v-56.6h10.3v56.6H1515.5z"/>
		<path class="st5" d="M1555.2,190.8v16.3h14.7v7.8h-14.7v30.5c0,7,2,11,7.7,11c2.7,0,4.7-0.4,6-0.7l0.5,7.7c-2,0.8-5.1,1.4-9.1,1.4
			c-4.8,0-8.7-1.5-11.1-4.3c-2.9-3-4-8.1-4-14.7v-30.9h-8.8v-7.8h8.8v-13.6L1555.2,190.8z"/>
		<path class="st5" d="M1621.9,261.6c-2.7,1.4-8.7,3.3-16.3,3.3c-17.1,0-28.2-11.6-28.2-28.9c0-17.4,11.9-30.1,30.4-30.1
			c6.1,0,11.5,1.5,14.3,2.9l-2.3,8c-2.5-1.4-6.3-2.7-11.9-2.7c-13,0-20,9.6-20,21.4c0,13.1,8.4,21.2,19.7,21.2
			c5.8,0,9.7-1.5,12.6-2.8L1621.9,261.6z"/>
		<path class="st5" d="M1634,180.6h10.3V216h0.2c1.6-2.9,4.2-5.5,7.4-7.3c3-1.8,6.7-2.9,10.5-2.9c7.6,0,19.8,4.7,19.8,24.2v33.7
			h-10.3v-32.5c0-9.1-3.4-16.8-13.1-16.8c-6.7,0-11.9,4.7-13.8,10.3c-0.6,1.4-0.7,2.9-0.7,4.9v34.2H1634V180.6z"/>
		<path class="st5" d="M1736.1,190.8v16.3h14.7v7.8h-14.7v30.5c0,7,2,11,7.7,11c2.7,0,4.7-0.4,6-0.7l0.5,7.7c-2,0.8-5.1,1.4-9.1,1.4
			c-4.8,0-8.7-1.5-11.1-4.3c-2.9-3-4-8.1-4-14.7v-30.9h-8.8v-7.8h8.8v-13.6L1736.1,190.8z"/>
		<path class="st5" d="M1813.7,234.9c0,20.9-14.5,30.1-28.2,30.1c-15.3,0-27.1-11.2-27.1-29.1c0-19,12.4-30.1,28.1-30.1
			C1802.7,205.8,1813.7,217.6,1813.7,234.9z M1768.8,235.5c0,12.4,7.1,21.8,17.2,21.8c9.8,0,17.2-9.2,17.2-22
			c0-9.6-4.8-21.8-17-21.8C1774,213.5,1768.8,224.7,1768.8,235.5z"/>
		<path class="st5" d="M1882.8,263.7l-0.8-7.1h-0.4c-3.2,4.4-9.2,8.4-17.3,8.4c-11.5,0-17.3-8.1-17.3-16.3c0-13.7,12.2-21.2,34-21.1
			v-1.2c0-4.7-1.3-13.1-12.9-13.1c-5.3,0-10.8,1.6-14.7,4.2l-2.3-6.8c4.7-3,11.5-5,18.6-5c17.3,0,21.5,11.8,21.5,23.2v21.2
			c0,4.9,0.2,9.7,0.9,13.6H1882.8z M1881.3,234.8c-11.2-0.2-24,1.8-24,12.8c0,6.7,4.4,9.8,9.7,9.8c7.4,0,12.1-4.7,13.7-9.5
			c0.4-1.1,0.6-2.2,0.6-3.3V234.8z"/>
	</g>
	<g class="st1">
		<path class="st5" d="M830.4,393.7l-25.7-78.9h11l12.3,38.8c3.4,10.6,6.3,20.2,8.4,29.5h0.2c2.2-9.1,5.5-19.1,9-29.4l13.3-39h10.9
			l-28.2,78.9H830.4z"/>
		<path class="st5" d="M929.3,364.9c0,20.9-14.5,30.1-28.2,30.1c-15.3,0-27.1-11.2-27.1-29.1c0-19,12.4-30.1,28.1-30.1
			C918.3,335.8,929.3,347.6,929.3,364.9z M884.4,365.5c0,12.4,7.1,21.8,17.2,21.8c9.8,0,17.2-9.2,17.2-22c0-9.6-4.8-21.8-17-21.8
			C889.6,343.5,884.4,354.7,884.4,365.5z"/>
		<path class="st5" d="M952.8,314.8v78.9h-10.2v-78.9H952.8z"/>
		<path class="st5" d="M970.6,315.8c4.9-0.8,11.3-1.5,19.5-1.5c10.1,0,17.4,2.3,22.1,6.6c4.3,3.7,6.9,9.5,6.9,16.5
			c0,7.1-2.1,12.8-6.1,16.8c-5.4,5.7-14.2,8.7-24.1,8.7c-3,0-5.9-0.1-8.2-0.7v31.6h-10.2V315.8z M980.8,353.8c2.2,0.6,5,0.8,8.4,0.8
			c12.3,0,19.8-6,19.8-16.8c0-10.4-7.4-15.4-18.6-15.4c-4.4,0-7.8,0.4-9.6,0.8V353.8z"/>
		<path class="st5" d="M1057.6,315.8c4.9-0.8,11.3-1.5,19.5-1.5c10.1,0,17.4,2.3,22.1,6.6c4.3,3.7,6.9,9.5,6.9,16.5
			c0,7.1-2.1,12.8-6.1,16.8c-5.4,5.7-14.2,8.7-24.1,8.7c-3,0-5.9-0.1-8.2-0.7v31.6h-10.2V315.8z M1067.8,353.8
			c2.2,0.6,5,0.8,8.4,0.8c12.3,0,19.8-6,19.8-16.8c0-10.4-7.4-15.4-18.6-15.4c-4.4,0-7.8,0.4-9.6,0.8V353.8z"/>
		<path class="st5" d="M1119.5,310.6h10.3V346h0.2c1.6-2.9,4.2-5.5,7.4-7.3c3-1.8,6.7-2.9,10.5-2.9c7.6,0,19.8,4.7,19.8,24.2v33.7
			h-10.3v-32.5c0-9.1-3.4-16.8-13.1-16.8c-6.7,0-11.9,4.7-13.8,10.3c-0.6,1.4-0.7,2.9-0.7,4.9v34.2h-10.3V310.6z"/>
		<path class="st5" d="M1235.7,364.9c0,20.9-14.5,30.1-28.2,30.1c-15.3,0-27.1-11.2-27.1-29.1c0-19,12.4-30.1,28.1-30.1
			C1224.7,335.8,1235.7,347.6,1235.7,364.9z M1190.8,365.5c0,12.4,7.1,21.8,17.2,21.8c9.8,0,17.2-9.2,17.2-22
			c0-9.6-4.8-21.8-17-21.8C1196.1,343.5,1190.8,354.7,1190.8,365.5z"/>
		<path class="st5" d="M1248.7,352.4c0-5.9-0.1-10.6-0.5-15.3h9.1l0.6,9.4h0.2c2.8-5.4,9.4-10.6,18.7-10.6c7.8,0,20,4.7,20,24.1
			v33.8h-10.3V361c0-9.1-3.4-16.7-13.1-16.7c-6.8,0-12.1,4.8-13.8,10.5c-0.5,1.3-0.7,3-0.7,4.8v34h-10.3V352.4z"/>
		<path class="st5" d="M1319.4,367.3c0.2,13.9,9.1,19.7,19.4,19.7c7.4,0,11.8-1.3,15.7-2.9l1.8,7.4c-3.6,1.6-9.8,3.5-18.8,3.5
			c-17.4,0-27.8-11.5-27.8-28.5c0-17.1,10.1-30.5,26.6-30.5c18.5,0,23.4,16.3,23.4,26.7c0,2.1-0.2,3.7-0.4,4.8H1319.4z
			 M1349.6,359.9c0.1-6.6-2.7-16.7-14.3-16.7c-10.4,0-15,9.6-15.8,16.7H1349.6z"/>
		<path class="st5" d="M1396,381.3c4.6,2.8,11.2,5.1,18.3,5.1c10.4,0,16.5-5.5,16.5-13.5c0-7.4-4.2-11.6-14.9-15.7
			c-12.9-4.6-20.8-11.2-20.8-22.3c0-12.3,10.2-21.4,25.5-21.4c8.1,0,13.9,1.9,17.4,3.9l-2.8,8.3c-2.6-1.4-7.8-3.7-15-3.7
			c-10.8,0-14.9,6.4-14.9,11.8c0,7.4,4.8,11,15.7,15.2c13.3,5.1,20.1,11.6,20.1,23.2c0,12.2-9,22.7-27.6,22.7
			c-7.6,0-15.9-2.2-20.1-5L1396,381.3z"/>
		<path class="st5" d="M1460.5,367.3c0.2,13.9,9.1,19.7,19.4,19.7c7.4,0,11.8-1.3,15.7-2.9l1.8,7.4c-3.6,1.6-9.8,3.5-18.8,3.5
			c-17.4,0-27.8-11.5-27.8-28.5c0-17.1,10.1-30.5,26.6-30.5c18.5,0,23.4,16.3,23.4,26.7c0,2.1-0.2,3.7-0.4,4.8H1460.5z
			 M1490.7,359.9c0.1-6.6-2.7-16.7-14.3-16.7c-10.4,0-15,9.6-15.8,16.7H1490.7z"/>
		<path class="st5" d="M1513.4,354.7c0-6.7-0.1-12.4-0.5-17.7h9l0.4,11.1h0.5c2.6-7.6,8.8-12.4,15.7-12.4c1.2,0,2,0.1,2.9,0.4v9.7
			c-1.1-0.2-2.1-0.4-3.5-0.4c-7.3,0-12.4,5.5-13.8,13.2c-0.2,1.4-0.5,3-0.5,4.8v30.2h-10.2V354.7z"/>
		<path class="st5" d="M1555.6,337.1l11.1,31.8c1.9,5.1,3.4,9.8,4.6,14.5h0.4c1.3-4.7,2.9-9.4,4.8-14.5l11-31.8h10.8l-22.2,56.6
			h-9.8l-21.5-56.6H1555.6z"/>
		<path class="st5" d="M1619.4,321.2c0.1,3.5-2.5,6.3-6.6,6.3c-3.6,0-6.2-2.8-6.2-6.3c0-3.6,2.7-6.4,6.4-6.4
			C1616.9,314.7,1619.4,317.5,1619.4,321.2z M1607.9,393.7v-56.6h10.3v56.6H1607.9z"/>
		<path class="st5" d="M1675.6,391.6c-2.7,1.4-8.7,3.3-16.3,3.3c-17.1,0-28.2-11.6-28.2-28.9c0-17.4,11.9-30.1,30.4-30.1
			c6.1,0,11.5,1.5,14.3,2.9l-2.3,8c-2.5-1.4-6.3-2.7-11.9-2.7c-13,0-20,9.6-20,21.4c0,13.1,8.4,21.2,19.7,21.2
			c5.8,0,9.7-1.5,12.6-2.8L1675.6,391.6z"/>
		<path class="st5" d="M1693.4,367.3c0.2,13.9,9.1,19.7,19.4,19.7c7.4,0,11.8-1.3,15.7-2.9l1.8,7.4c-3.6,1.6-9.8,3.5-18.8,3.5
			c-17.4,0-27.8-11.5-27.8-28.5c0-17.1,10.1-30.5,26.6-30.5c18.5,0,23.4,16.3,23.4,26.7c0,2.1-0.2,3.7-0.4,4.8H1693.4z
			 M1723.6,359.9c0.1-6.6-2.7-16.7-14.3-16.7c-10.4,0-15,9.6-15.8,16.7H1723.6z"/>
		<path class="st5" d="M1781.6,314.8v46.7c0,17.7,7.8,25.2,18.4,25.2c11.7,0,19.2-7.7,19.2-25.2v-46.7h10.3v46
			c0,24.2-12.8,34.2-29.8,34.2c-16.1,0-28.3-9.2-28.3-33.7v-46.5H1781.6z"/>
		<path class="st5" d="M1845.4,383.2c3,2,8.4,4.1,13.6,4.1c7.5,0,11-3.7,11-8.4c0-4.9-2.9-7.6-10.5-10.4c-10.2-3.6-15-9.2-15-16
			c0-9.1,7.4-16.6,19.5-16.6c5.7,0,10.8,1.6,13.9,3.5l-2.6,7.5c-2.2-1.4-6.3-3.3-11.6-3.3c-6.1,0-9.5,3.5-9.5,7.7
			c0,4.7,3.4,6.8,10.8,9.6c9.8,3.7,14.9,8.7,14.9,17.1c0,9.9-7.7,17-21.2,17c-6.2,0-11.9-1.5-15.9-3.9L1845.4,383.2z"/>
		<path class="st5" d="M1898.9,367.3c0.2,13.9,9.1,19.7,19.4,19.7c7.4,0,11.8-1.3,15.7-2.9l1.8,7.4c-3.6,1.6-9.8,3.5-18.8,3.5
			c-17.4,0-27.8-11.5-27.8-28.5c0-17.1,10.1-30.5,26.6-30.5c18.5,0,23.4,16.3,23.4,26.7c0,2.1-0.2,3.7-0.4,4.8H1898.9z
			 M1929.1,359.9c0.1-6.6-2.7-16.7-14.3-16.7c-10.4,0-15,9.6-15.8,16.7H1929.1z"/>
	</g>
	<g class="st1">
		<path class="st5" d="M828.1,453.5h-24v-8.7h58.4v8.7h-24.1v70.2h-10.3V453.5z"/>
		<path class="st5" d="M870.9,440.6h10.3v35.3h0.2c1.6-2.9,4.2-5.5,7.4-7.3c3-1.8,6.7-2.9,10.5-2.9c7.6,0,19.8,4.7,19.8,24.2v33.7
			h-10.3v-32.5c0-9.1-3.4-16.8-13.1-16.8c-6.7,0-11.9,4.7-13.8,10.3c-0.6,1.4-0.7,2.9-0.7,4.9v34.2h-10.3V440.6z"/>
		<path class="st5" d="M941.6,497.2c0.2,13.9,9.1,19.7,19.4,19.7c7.4,0,11.8-1.3,15.7-2.9l1.8,7.4c-3.6,1.6-9.8,3.5-18.8,3.5
			c-17.4,0-27.8-11.5-27.8-28.5s10.1-30.5,26.6-30.5c18.5,0,23.4,16.3,23.4,26.7c0,2.1-0.2,3.7-0.4,4.8H941.6z M971.8,489.9
			c0.1-6.6-2.7-16.7-14.3-16.7c-10.4,0-15,9.6-15.8,16.7H971.8z"/>
		<path class="st5" d="M993.1,513.2c3,2,8.4,4.1,13.6,4.1c7.5,0,11-3.7,11-8.4c0-4.9-2.9-7.6-10.5-10.4c-10.2-3.6-15-9.2-15-16
			c0-9.1,7.4-16.6,19.5-16.6c5.7,0,10.8,1.6,13.9,3.5l-2.6,7.5c-2.2-1.4-6.3-3.3-11.6-3.3c-6.1,0-9.5,3.5-9.5,7.7
			c0,4.7,3.4,6.8,10.8,9.6c9.8,3.7,14.9,8.7,14.9,17.1c0,9.9-7.7,17-21.2,17c-6.2,0-11.9-1.5-15.9-3.9L993.1,513.2z"/>
		<path class="st5" d="M1046.5,497.2c0.2,13.9,9.1,19.7,19.4,19.7c7.4,0,11.8-1.3,15.7-2.9l1.8,7.4c-3.6,1.6-9.8,3.5-18.8,3.5
			c-17.4,0-27.8-11.5-27.8-28.5s10.1-30.5,26.6-30.5c18.5,0,23.4,16.3,23.4,26.7c0,2.1-0.2,3.7-0.4,4.8H1046.5z M1076.7,489.9
			c0.1-6.6-2.7-16.7-14.3-16.7c-10.4,0-15,9.6-15.8,16.7H1076.7z"/>
		<path class="st5" d="M1165.4,486.7h-30.7v28.4h34.2v8.5h-44.3v-78.9h42.6v8.5h-32.4v24.9h30.7V486.7z"/>
		<path class="st5" d="M1186.6,467.1l8.1,12.2c2.1,3.2,3.9,6.1,5.7,9.2h0.4c1.9-3.4,3.7-6.3,5.6-9.4l8-12.1h11.1l-19.3,27.4
			l19.9,29.3h-11.7l-8.3-12.8c-2.2-3.3-4.1-6.4-6.1-9.8h-0.2c-1.9,3.4-3.9,6.4-6,9.8l-8.2,12.8h-11.3l20.1-28.9l-19.2-27.7H1186.6z"
			/>
		<path class="st5" d="M1235.9,485.5c0-7.3-0.2-13.1-0.5-18.5h9.2l0.5,9.7h0.2c4.2-6.9,10.9-11,20.1-11c13.7,0,24,11.6,24,28.8
			c0,20.4-12.4,30.4-25.7,30.4c-7.5,0-14-3.3-17.4-8.9h-0.2v30.8h-10.2V485.5z M1246.1,500.6c0,1.5,0.2,2.9,0.5,4.2
			c1.9,7.1,8.1,12.1,15.4,12.1c10.9,0,17.2-8.9,17.2-21.9c0-11.3-6-21.1-16.8-21.1c-7,0-13.6,5-15.6,12.8c-0.4,1.3-0.7,2.8-0.7,4.2
			V500.6z"/>
		<path class="st5" d="M1308.3,497.2c0.2,13.9,9.1,19.7,19.4,19.7c7.4,0,11.8-1.3,15.7-2.9l1.8,7.4c-3.6,1.6-9.8,3.5-18.8,3.5
			c-17.4,0-27.8-11.5-27.8-28.5s10.1-30.5,26.6-30.5c18.5,0,23.4,16.3,23.4,26.7c0,2.1-0.2,3.7-0.4,4.8H1308.3z M1338.4,489.9
			c0.1-6.6-2.7-16.7-14.3-16.7c-10.4,0-15,9.6-15.8,16.7H1338.4z"/>
		<path class="st5" d="M1361.1,484.7c0-6.7-0.1-12.4-0.5-17.7h9l0.4,11.1h0.5c2.6-7.6,8.8-12.4,15.7-12.4c1.2,0,2,0.1,2.9,0.4v9.7
			c-1.1-0.2-2.1-0.4-3.5-0.4c-7.3,0-12.4,5.5-13.8,13.2c-0.2,1.4-0.5,3-0.5,4.8v30.2h-10.2V484.7z"/>
		<path class="st5" d="M1411.8,450.8v16.3h14.7v7.8h-14.7v30.5c0,7,2,11,7.7,11c2.7,0,4.7-0.4,6-0.7l0.5,7.7c-2,0.8-5.1,1.4-9.1,1.4
			c-4.8,0-8.7-1.5-11.1-4.3c-2.9-3-4-8.1-4-14.7v-30.9h-8.8v-7.8h8.8v-13.6L1411.8,450.8z"/>
		<path class="st5" d="M1462,488.2v7.6h-28.9v-7.6H1462z"/>
		<path class="st5" d="M1489.4,453.5h-24v-8.7h58.4v8.7h-24.1v70.2h-10.3V453.5z"/>
		<path class="st5" d="M1537.9,497.2c0.2,13.9,9.1,19.7,19.4,19.7c7.4,0,11.8-1.3,15.7-2.9l1.8,7.4c-3.6,1.6-9.8,3.5-18.8,3.5
			c-17.4,0-27.8-11.5-27.8-28.5s10.1-30.5,26.6-30.5c18.5,0,23.4,16.3,23.4,26.7c0,2.1-0.2,3.7-0.4,4.8H1537.9z M1568.1,489.9
			c0.1-6.6-2.7-16.7-14.3-16.7c-10.4,0-15,9.6-15.8,16.7H1568.1z"/>
		<path class="st5" d="M1589.4,513.2c3,2,8.4,4.1,13.6,4.1c7.5,0,11-3.7,11-8.4c0-4.9-2.9-7.6-10.5-10.4c-10.2-3.6-15-9.2-15-16
			c0-9.1,7.4-16.6,19.5-16.6c5.7,0,10.8,1.6,13.9,3.5l-2.6,7.5c-2.2-1.4-6.3-3.3-11.6-3.3c-6.1,0-9.5,3.5-9.5,7.7
			c0,4.7,3.4,6.8,10.8,9.6c9.8,3.7,14.9,8.7,14.9,17.1c0,9.9-7.7,17-21.2,17c-6.2,0-11.9-1.5-15.9-3.9L1589.4,513.2z"/>
		<path class="st5" d="M1649.5,450.8v16.3h14.7v7.8h-14.7v30.5c0,7,2,11,7.7,11c2.7,0,4.7-0.4,6-0.7l0.5,7.7c-2,0.8-5.1,1.4-9.1,1.4
			c-4.8,0-8.7-1.5-11.1-4.3c-2.9-3-4-8.1-4-14.7v-30.9h-8.8v-7.8h8.8v-13.6L1649.5,450.8z"/>
		<path class="st5" d="M1681.6,497.2c0.2,13.9,9.1,19.7,19.4,19.7c7.4,0,11.8-1.3,15.7-2.9l1.8,7.4c-3.6,1.6-9.8,3.5-18.8,3.5
			c-17.4,0-27.8-11.5-27.8-28.5s10.1-30.5,26.6-30.5c18.5,0,23.4,16.3,23.4,26.7c0,2.1-0.2,3.7-0.4,4.8H1681.6z M1711.8,489.9
			c0.1-6.6-2.7-16.7-14.3-16.7c-10.4,0-15,9.6-15.8,16.7H1711.8z"/>
		<path class="st5" d="M1783.4,440.6v68.4c0,5,0.1,10.8,0.5,14.6h-9.2l-0.5-9.8h-0.2c-3.2,6.3-10.1,11.1-19.3,11.1
			c-13.7,0-24.2-11.6-24.2-28.8c-0.1-18.8,11.6-30.4,25.4-30.4c8.7,0,14.5,4.1,17.1,8.7h0.2v-33.8H1783.4z M1773.1,490.1
			c0-1.3-0.1-3-0.5-4.3c-1.5-6.6-7.1-11.9-14.9-11.9c-10.6,0-17,9.4-17,21.9c0,11.5,5.6,20.9,16.7,20.9c6.9,0,13.2-4.6,15.1-12.3
			c0.4-1.4,0.5-2.8,0.5-4.4V490.1z"/>
		<path class="st5" d="M1840.6,453.5h-24v-8.7h58.4v8.7h-24.1v70.2h-10.3V453.5z"/>
		<path class="st5" d="M1894.9,451.1c0.1,3.5-2.5,6.3-6.6,6.3c-3.6,0-6.2-2.8-6.2-6.3c0-3.6,2.7-6.4,6.4-6.4
			C1892.4,444.7,1894.9,447.5,1894.9,451.1z M1883.4,523.7v-56.6h10.3v56.6H1883.4z"/>
		<path class="st5" d="M1910.8,485.5c0-7.3-0.2-13.1-0.5-18.5h9.2l0.5,9.7h0.2c4.2-6.9,10.9-11,20.1-11c13.7,0,24,11.6,24,28.8
			c0,20.4-12.4,30.4-25.7,30.4c-7.5,0-14-3.3-17.4-8.9h-0.2v30.8h-10.2V485.5z M1921,500.6c0,1.5,0.2,2.9,0.5,4.2
			c1.9,7.1,8.1,12.1,15.4,12.1c10.9,0,17.2-8.9,17.2-21.9c0-11.3-6-21.1-16.8-21.1c-7,0-13.6,5-15.6,12.8c-0.4,1.3-0.7,2.8-0.7,4.2
			V500.6z"/>
		<path class="st5" d="M1976,513.2c3,2,8.4,4.1,13.6,4.1c7.5,0,11-3.7,11-8.4c0-4.9-2.9-7.6-10.5-10.4c-10.2-3.6-15-9.2-15-16
			c0-9.1,7.4-16.6,19.5-16.6c5.7,0,10.8,1.6,13.9,3.5l-2.6,7.5c-2.2-1.4-6.3-3.3-11.6-3.3c-6.1,0-9.5,3.5-9.5,7.7
			c0,4.7,3.4,6.8,10.8,9.6c9.8,3.7,14.9,8.7,14.9,17.1c0,9.9-7.7,17-21.2,17c-6.2,0-11.9-1.5-15.9-3.9L1976,513.2z"/>
	</g>
	<g class="st1">
		<defs>
			<rect id="SVGID_7_" width="3014.9" height="2399.6"/>
		</defs>
		<clipPath id="SVGID_8_">
			<use xlink:href="#SVGID_7_"  style="overflow:visible;"/>
		</clipPath>
		<path class="st6" d="M2647.4,1433.6c0,0-1,24.9,0.3,30.6c1,4.5,15,4.9,16.7,2.6c1.7-2.4,3.9-31.3,3.9-31.3"/>
		<path class="st7" d="M2669.7,1468.2c0,3.8-0.7,9.3-1.2,12.5c-0.2,1.6-1.6,2.7-3.1,2.7h-17.7h-12.8h-17.2
			c-12.6,0-19.7-1.6-20.1-3.8c-1.3-9.3,47.1-24.1,49.4-23.4c0,0,0.3,1.7,2.5,4.1c3,3.3,4.8,4.6,9.2,3.8c2.5-0.4,5.1-1.4,7-3.3
			C2665.8,1460.8,2669.7,1462.4,2669.7,1468.2"/>
		<path class="st6" d="M2858.2,1444.1c0,0,2.7,12.5,4.1,16.7c1.4,4.2,15.2,1.2,16.2-1.4c1.1-2.6-5.7-26-5.7-26"/>
		<path class="st7" d="M2882.9,1460.2c0.8,3.2,1.7,8.4,2.2,11.5c0.2,1.5-0.6,2.9-1.9,3.5l-11.7,4.9c-0.1,0-0.1,0.1-0.2,0.1
			c-0.7,0.3-5.7,1.9-9.6,3.7c-3.8,1.6-10.2,3.4-14.3,3.7c-12.3,1-21.3-1.6-22-3.4c-2.7-6.8,26.6-26.2,33.1-29.2
			c0.8-0.4,1.6-0.4,2.4-0.1c1.1,0.4,2.5,1.4,3.6,3.7c0.6,1.3,2,2.2,3.5,2c3.1-0.5,8-1.9,10.2-5.6
			C2878.2,1454.9,2881.7,1455.4,2882.9,1460.2"/>
		<path class="st8" d="M2808.7,1073.6c0,0,27.9-81.9-51.2-149.4c0,0-42.4,16.9-76.3,18.9c-26.7,1.6-40.3-0.9-40.3-0.9
			s-2.3,72.8-2.3,112L2808.7,1073.6z"/>
		<path class="st8" d="M2649.4,987.1c-6.2,2.3-8.4,21.1-9.3,34c-0.9,12.9-5.8,146.2-7.6,170.3c-0.3,4.1-0.3,7.8,0,11.2
			c-0.3,2.2-0.4,4.5-0.3,7c1.6,39.2,10,163,9.1,238.8c0,0,23.1,2.4,29.1,1.1c4.7-52.8,34.1-152.4,23.7-215.6
			c-3.7-22.6-2-45.8,4.8-67.6c11.5-36.9,24.8-81.1,28.3-102.1C2735.4,1016,2680.4,975.4,2649.4,987.1"/>
		<path class="st8" d="M2833.9,1242.9c-12.2-20.8-19.5-44.1-20.1-68.2c-0.9-44.4-1.8-101.2-6.6-122.8c-10.6-47.8-65.6-67.6-90-45.1
			c-4.9,4.5-6,29.8-2,42.1c4,12.3,35.5,148.6,42.9,171.6c1,3.3,2.2,6.2,3.4,8.8c0.4,2.1,0.9,4.3,1.8,6.7
			c13.1,36.9,68.8,143.1,90.3,215.8c0,0,20.4-2.2,27.8-7.2C2870.4,1392.9,2867.3,1300.1,2833.9,1242.9"/>
		<path class="st9" d="M2805.4,983.5c-95.3,17.4-170.3,1.2-169.3-5.1c2.5-15.5,9.4-137.4,5.4-149c-7.2-20.9-10.7-55-16.5-70.5
			c-4.4-11.8-15.5-45.7-6.3-55.1c10.1-10.4,34.8-26.2,71.3-25c25.1,0.8,89.4,7.4,101.1,21.7c7.2,8.8,11.2,25.2,13,45.5
			c1.1,12.2,1.5,25.9,1.3,40.3c-0.5,42.4-5.4,91.2-8.1,127C2795.3,938.3,2805.4,983.5,2805.4,983.5"/>
		<path class="st10" d="M2681.5,648.9c0,0,0.2,25.5-0.8,26.8c-2.2,2.7-9.4,4.3-9.4,4.3s1.3,16.1,17.2,18c33.5,4,45.1-15.1,45.1-15.1
			s-8.7-1.8-8.5-7c0.1-2.3,5.5-45,5.5-45"/>
		<path class="st11" d="M2681.5,651.3l17.7,3.3c0,0-5.9,6.6-17.9,6.6"/>
		<path class="st12" d="M2638.1,557.5c-5.6,4.6-5.5,14.3-5.2,20.9c0.3,7.9,2.1,15.7,4.3,23.3c1.6,5.3,3.5,10.7,7.4,14.5
			c2,1.9,4.5,3.3,7,4.7c1.4,0.8,2.8,1.6,4.4,1.9c1.6,0.3,3.3,0,4.5-1.1c1.7-1.6,1.5-4.3,1.2-6.6c-2.1-15-3.8-30.3-1.2-45.3"/>
		<path class="st10" d="M2649.2,603.1c-2-4.2-7.7-5.1-9.7,1c-1.7,5,0.5,12.4,2.5,17.6c2.4,6.3,7.7,5.4,12,4.6"/>
		<path class="st10" d="M2663.9,549.8c-4.9,3.9-20.7,7.1-22.1,14.8c-1.4,7.7,1.3,23.8,1.5,28.4c0.4,9.3,2.1,18.6,3.5,27.8
			c1.8,11.9,5.5,33.6,19.8,38.1c4.1,1.3,5.8,1.6,9.8,0.6c5.4-1.2,10.7-2.3,16.1-3.5c8.3-1.9,17.5-3.9,24.1-9.7
			c8.8-7.7,8.4-24.1,6.9-34.8l-8.3-61.1L2663.9,549.8z"/>
		<path class="st12" d="M2725.1,599.6c-4.3-0.5-7.9-1.5-8.7,2.7c-0.4,2.3-0.1,5-1.9,6.5c-1.8,1.5-4.7,0.5-6-1.3
			c-1.4-1.8-1.7-4.3-1.9-6.6c-0.5-5.1-1-10.2-1.6-15.2c-0.5-5-1.2-10.4-4.8-13.9c-1.8-1.8-4.2-2.9-6.6-3.6c-7.8-2.5-16.3-1.7-24.4,0
			c-8.1,1.7-16,4.1-24.2,4.9c-3.4,0.3-7,0.4-10.3-0.6c-5.3-1.6-9.6-6-11.8-11.1s-2.6-10.9-1.9-16.4c1.3,1.5,2.8,2.9,4.4,4.1
			c-0.1-2.7,0.4-5.5,1.3-8.1c7.3,11.1,56.3-14.6,70.4-14.3c9.8,0.2,17.6-0.3,23,13.1c0.6,0.8,1.6,1.1,2.5,1.4
			c10.1,3.6,16.7,10.4,22.8,22c7.4,14.3,5.7,33.9,2.4,49.7c-0.8,4-1.1,6.6-3.1,10.2c-2,3.5-6.7,6.8-10.6,7.7c-4,0.9-11,4.3-12.7,0.6
			c-1.2-2.6,2.5-9.8,3.1-12.6"/>
		<path class="st10" d="M2717.8,619.2c0,0,0.5,2.7,2.8,4c2.1,1.1,4.7-0.3,6.4-1.7c4.6-4,6.1-10.9,4.8-16.7
			c-1.5-6.9-7.7-11.8-12.8-7.7c-3,2.4-3.5,7.2-1.9,10.8"/>
		<polygon class="st9" points="2616.1,708.4 2597.9,774.1 2638.9,778.8 2649.9,738.1 		"/>
		<rect x="2536.9" y="877.1" class="st13" width="226.1" height="8.8"/>
		<path class="st13" d="M2493.2,885.9h196.2l-35.2-114.7c-1.9-6.3-7.8-10.7-14.4-10.7H2468c-6.6,0-11.3,6.4-9.4,12.6L2493.2,885.9z"
			/>
		<path class="st13" d="M2490.7,885.9H2684l-35.2-114.7c-1.9-6.3-7.8-10.7-14.4-10.7h-171.8c-6.6,0-11.3,6.4-9.4,12.6l33.7,109.9
			C2487.4,884.8,2489,885.9,2490.7,885.9"/>
		<path class="st10" d="M2746.3,778.8c0,0-7.8,52-9.9,65.5c-1.6,10.4-5.8,41.6-5.8,41.6l12.6,26.2c0,0,11.6-3.6,19.7-13.9
			s25-91.5,25-91.5"/>
		<path class="st9" d="M2753.8,724.6c0,0-10.1,42-12.6,80.2c0,0,36.4,7.2,58,9.9c0,0,30.1-88.3-10.3-116.2"/>
		<path class="st10" d="M2695.3,885.9c0,0,22.9-6.4,44.1-2.8c21.1,3.6,3.9,29,3.9,29c-93.3,7.8-152-26.2-152-26.2h139.4"/>
		<path class="st10" d="M2573.8,885.9c0,0,13.2,5.4,29.5,5.8c16.3,0.5,18.7-5.8,18.7-5.8H2573.8z"/>
		<g class="st14">
			<g>
				<defs>
					<rect id="SVGID_9_" x="2459.4" y="472.7" width="98.9" height="100.8"/>
				</defs>
				<clipPath id="SVGID_10_">
					<use xlink:href="#SVGID_9_"  style="overflow:visible;"/>
				</clipPath>
				<polyline class="st15" points="2532,561 2555.4,573.5 2543.7,543.1 				"/>
				<path class="st15" d="M2459.4,522.1c0,27.3,22.1,49.5,49.5,49.5s49.5-22.1,49.5-49.5c0-27.3-22.1-49.5-49.5-49.5
					S2459.4,494.8,2459.4,522.1"/>
			</g>
		</g>
		<path class="st16" d="M2512.3,544.3c-1.9,1.9-5,1.9-6.9,0c-1.9-1.9-1.9-5,0-6.9c1.9-1.9,5-1.9,6.9,0
			C2514.2,539.3,2514.2,542.4,2512.3,544.3"/>
		<path class="st16" d="M2500.4,535.1c-0.7,0-1.4-0.3-1.9-0.8c-1.1-1.1-1.1-2.8,0-3.8c2.8-2.8,6.5-4.3,10.4-4.3
			c3.9,0,7.6,1.5,10.4,4.3c1.1,1.1,1.1,2.8,0,3.8c-1.1,1.1-2.8,1.1-3.8,0c-1.8-1.8-4.1-2.7-6.6-2.7c-2.5,0-4.8,1-6.6,2.7
			C2501.7,534.8,2501.1,535.1,2500.4,535.1"/>
		<path class="st16" d="M2525.1,527.3c-0.7,0-1.4-0.3-1.9-0.8c-3.8-3.8-8.9-5.9-14.4-5.9c-5.4,0-10.5,2.1-14.4,5.9
			c-1.1,1.1-2.8,1.1-3.8,0c-1.1-1.1-1.1-2.8,0-3.8c4.9-4.9,11.3-7.5,18.2-7.5c6.9,0,13.3,2.7,18.2,7.5c1.1,1.1,1.1,2.8,0,3.8
			C2526.5,527,2525.8,527.3,2525.1,527.3"/>
		<path class="st16" d="M2535.6,518.7c-0.6,0.6-1.5,0.9-2.3,0.9c-0.8,0-1.7-0.3-2.3-0.9c-5.9-5.9-13.8-9.2-22.1-9.2
			c-8.4,0-16.2,3.3-22.1,9.2c-1.3,1.3-3.3,1.3-4.6,0c-1.3-1.3-1.3-3.3,0-4.6c1.8-1.8,3.7-3.3,5.7-4.7c6.2-4.2,13.4-6.4,21-6.4
			c1.5,0,3,0.1,4.5,0.3c8.4,1,16.1,4.7,22.2,10.8C2536.8,515.4,2536.8,517.4,2535.6,518.7"/>
		<path class="st17" d="M2129.3,714.9c0,0-16.5,46.9-26,88.2c0,0-58.1-9.9-82.6-26.3l8.8,21.3l88.9,39.4l13.1-65l-0.1-12.9
			L2129.3,714.9z"/>
		<path class="st18" d="M1900.1,964.3c0,4.5-0.8,10.9-1.3,14.7c-0.3,1.8-1.8,3.1-3.6,3.1l-55.6,0.4c-14.7,0.1-23-1.7-23.4-4.3
			c-1.6-10.8,16.7-14.4,21.1-15.4c16.6-3.8,30.8-14.1,33.6-13.2c0,0,2.4,0.5,4.1,3.5c2.5,4.5,7.2,7.6,12.3,6.7c3-0.5,6-1.7,8.1-3.9
			C1895.5,955.8,1900.1,957.6,1900.1,964.3"/>
		<path class="st18" d="M2046,810.6c0.9-0.8,1.8-1.5,2.6-2.3c7.2-6.9,20.2-5.3,25.6-3.3c43.9,16.6,187.8,81.9,188.5,88.1
			c1.4,12-6.9,28.3-15.9,42c-10.1,15.4-30.1,20.6-46.3,12c-40.5-21.6-112.4-51.7-144-70.3c-0.5,0.4-1,0.7-1.5,1.1
			c-0.3,0.2-0.8,0.8-1.6,1.6c-8,8.7-17.3,15.7-27.4,21.1c-30.3,16-94.4,49.1-123.6,60.4c-0.4-0.7-1.5-3.2-1.8-3.9
			c-7.6-15.2-13.9-21.9-13.9-21.9S2007.7,836.7,2046,810.6"/>
		<path class="st6" d="M1852.3,940.1c0,0-34.4,6.6-41.9,10.2c-5.8,2.8-2,22.1,1.8,23.7c3.8,1.6,44.1-4.6,44.1-4.6"/>
		<path class="st7" d="M1807.9,980.5c-4.6,1.1-11.5,1.7-15.1,2c-1.5,0.1-2.8-0.9-3.1-2.3l-4.8-20.6c0,0-2-8.6-3.4-14.5l-4.5-19.5
			c-3.3-14.3-3.4-22.8-0.9-23.8c10.2-3.9,17.7,13.1,19.6,17.2c7.3,15.4,20.5,27,20.2,29.8c0,0,0,2.5-2.5,4.8
			c-3.9,3.4-5.8,8.7-3.8,13.5c1.2,2.8,2.9,5.4,5.6,7C1815.2,974.1,1814.5,979,1807.9,980.5"/>
		<path class="st8" d="M1838.3,942.5c0,0,155.9-42.9,193.8-50.8c1.1-0.2,6-1,11.4-1.9c0,0-23,12.9-22.8,39.3
			c0.2,19.9,24.9,22,32.1,22.9c-16.3-0.9-25.3,1.5-45.3,7.4c-1.9,0.6-3.3,0.9-4.4,1.2c-0.7,0.3-1.4,0.5-2,0.7
			c-55.6,22.3-110.4,8.1-159,10.9c-2.5-2.9-4-6.5-4.8-11.9C1835.1,946.4,1838.3,942.5,1838.3,942.5"/>
		<path class="st8" d="M2015.4,935.3c-0.8-33.5,28-45.5,28-45.5c11.4,0.7,216.2,18.4,219.2,24.9c5.1,10.9,2.4,29-1.8,44.9
			c-4.7,17.8-31.1,28.1-49.5,28.2C2142,988.2,2015.9,955.2,2015.4,935.3"/>
		<path class="st16" d="M2140.9,834.9c0.6-11.1,0.5-22.9-1.4-35.7c-3.9-25.7-15.2-44.3-17.2-63c-1.3-11.5,3.1-48.7,5.6-55.8
			c5.6-15.9,15.3-25.3,15.3-25.3c14-9.2,92.3,20.6,118.8,101.7c26.5,81.1,14.2,186.6,6.5,199c-7.7,12.4-39.8-14.4-66.5-28.5
			c-26.7-14.1-55.3-9.1-61.9-33.1c0,0-7.6-23.5-5.4-47.1C2135.1,841,2138.1,837.2,2140.9,834.9"/>
		<path class="st17" d="M1994.2,758.4c0,0-3.4,0.1-3.7,2.2c-0.3,2.1,3.8,15.7,6.6,17.6c2.7,1.9,15.3,4.9,18.1,4c2.8-0.9,0-3.8,0-3.8
			L1994.2,758.4z"/>
		<path class="st19" d="M1958.2,733.6l60.2,49.2c1.5,1.2,3.7,1,4.9-0.5c1.2-1.5,1-3.7-0.5-4.9l-60.2-49.2c-1.5-1.2-3.7-1-4.9,0.5
			C1956.4,730.2,1956.7,732.4,1958.2,733.6"/>
		<path class="st6" d="M1993.6,779.8c0.4,0.9,1.6,2.3,3.4,3.9l0,0c0,0,0,0,0.1,0c6.4,5.8,19.2,14.1,19.2,14.1
			c29.2,24.3,99.7,89.8,116.3,83.1c12.9-5.2,34.5-66.1,43.4-116.9c2.6-14.8,4.1-28.7,4.1-40.1c-0.2-40.6-20.9-41.1-20.9-41.1
			c-27.5-5.8-43.6,146.9-43.6,146.9c-22-8.2-64.6-29-82.8-38c0,0-5.5-3.7-6.9-9c-1.4-5.4-8.9-14.1-12.5-18.1c-3.6-4-3.6,0.5-2.5,4.5
			c1.2,4.1,5,9,5.3,10.1c0.4,1.1-3,1.8-8,0.7c-5-1.1-10.2-4.7-10.9-5.8c-0.7-1.1-5.2-14.4-7.5-14.3
			C1987.5,760,1992,775.6,1993.6,779.8"/>
		<path class="st20" d="M1997.1,783.8c6.4,5.8,19.2,14.1,19.2,14.1c29.2,24.3,99.7,89.8,116.3,83.1c12.9-5.2,34.5-66.1,43.4-116.9
			l-4.6-4.6l-3.6,12.6c0,0-25.4,100.2-39.2,102.1c-13.8,1.9-110-78.9-115.6-81.8C2007.8,789.7,1998.3,784.5,1997.1,783.8"/>
		<path class="st16" d="M2180.4,781.9c0,0-48-9.5-60.4-18c2.6-23.3,13.4-81.6,39.4-83.3C2185.4,678.8,2197.1,733.1,2180.4,781.9"/>
		<path class="st6" d="M2160.4,655c-0.4,2-1.2,3.9-2.2,5.6c0,0,0,0.1-0.1,0.1c-7.9,13.9-30.2,19.7-30.2,19.7s1.9-6.8-7.2-19.6
			c-10.7,8.2-21.6,14-29.5,13c-6.7-3.9-13-9.4-18.7-15.7c-2.8,1.4-8.4,3.8-10.4,1.1c-2.2-3-3.3-15.2-3.6-19.8
			c-0.1-0.1-0.2-0.3-0.3-0.5c-0.8-3.2-6.3-12.6-7.1-13.3c-8.6-7.5-7.5-13.6-7.5-13.6s12.4-31.3,14-32.2c1.6-0.9,42.4-21.4,44.1-21.2
			c1.7,0.2,30.9,19.5,41.9,46.5c4.2,10.5,4.3,19.2,2.6,26l0,0C2146.3,631.3,2151.5,651,2160.4,655"/>
		<path class="st20" d="M2158.1,660.7c-7.9,13.9-30.2,19.7-30.2,19.7s1.9-6.8-7.2-19.6c0,0,7.6-10.1,9.7-18.5l7,29.1
			C2137.4,671.5,2151.8,669.7,2158.1,660.7"/>
		<path class="st12" d="M2043.6,612.1c16,5.8,49.6-12.4,56.5-9.8c6.8,2.5,11.8,17.3,14.7,17.3c3.1,0,1.4-4.4,0.3-10
			c-0.7-3.6-0.9-12.5,7.3-13.1c13.4-1,8.6,13.7,13.4,23c8.1,15.6,10.4,11.8,10.4,11.8c11.9-29.8-1.8-92.4-44.7-83.8
			c0,0-13.1-7.8-27.8-3.6c-0.1,0-0.2,0-0.3,0.1c-25.4,7.2-25.1,26.6-31.4,30.8c-7.4,4.9-11.3-1.2-11.3-1.2
			C2019.1,590.7,2027.6,606.2,2043.6,612.1"/>
		<path class="st21" d="M1971.6,674h-403.4c-1,0-1.8-0.8-1.8-1.8v-92.1c0-1,0.8-1.8,1.8-1.8h403.4c1,0,1.8,0.8,1.8,1.8v92.1
			C1973.3,673.2,1972.5,674,1971.6,674"/>
		<path class="st16" d="M1925,642.5h-310.2c-9,0-16.3-7.3-16.3-16.3c0-9,7.3-16.3,16.3-16.3H1925c9,0,16.3,7.3,16.3,16.3
			C1941.3,635.2,1934,642.5,1925,642.5"/>
		<path class="st16" d="M1941.3,626.2c0,20-16.2,36.2-36.2,36.2s-36.2-16.2-36.2-36.2c0-20,16.2-36.2,36.2-36.2
			S1941.3,606.2,1941.3,626.2"/>
		<path class="st22" d="M1617.5,635.5c-0.9,0-1.7-0.8-1.7-1.7v-15.1c0-0.9,0.8-1.7,1.7-1.7c0.9,0,1.7,0.8,1.7,1.7v15.1
			C1619.2,634.7,1618.4,635.5,1617.5,635.5"/>
		<path class="st21" d="M1920.2,638.4l-6.7-5.8c1.8-2.3,2.8-5.1,2.8-8.2c0-7.4-6-13.4-13.4-13.4c-7.4,0-13.4,6-13.4,13.4
			c0,7.4,6,13.4,13.4,13.4c3.1,0,5.9-1.1,8.2-2.8l6.9,6c0.3,0.3,0.7,0.4,1.1,0.4c0.5,0,0.9-0.2,1.3-0.6
			C1921,640.1,1920.9,639,1920.2,638.4 M1902.9,634.4c-5.5,0-10-4.5-10-10c0-5.5,4.5-10.1,10-10.1c5.5,0,10.1,4.5,10.1,10.1
			C1912.9,629.9,1908.4,634.4,1902.9,634.4"/>
		<polyline class="st21" points="1927.3,671 1945.5,695.5 1945.5,668.5 		"/>
		<path class="st23" d="M2488.5,1031.8H1446.9v-48.4c0-2.5,2-4.5,4.5-4.5h1032.7c2.5,0,4.5,2,4.5,4.5V1031.8z"/>
		<path class="st24" d="M1626.6,1326.4h-139c-1,0-1.8-0.8-1.8-1.8v-41.9h142.6v41.9C1628.5,1325.6,1627.6,1326.4,1626.6,1326.4"/>
		<path class="st24" d="M2447.7,1326.4h-139c-1,0-1.8-0.8-1.8-1.8v-41.9h142.6v41.9C2449.6,1325.6,2448.8,1326.4,2447.7,1326.4"/>
		<path class="st23" d="M2409.2,1023.9h-61.9l14.5-719.7c0.2-8.9,7.5-16.1,16.4-16.1c8.9,0,16.2,7.2,16.4,16.1L2409.2,1023.9z"/>
		<path class="st24" d="M2524.2,1020.7v264.6c0,8.5-6.9,15.4-15.4,15.4H1426.6c-8.4,0-15.4-6.9-15.4-15.4v-264.6
			c0-8.4,6.9-15.4,15.4-15.4h1082.3C2517.3,1005.3,2524.2,1012.2,2524.2,1020.7"/>
		<path class="st23" d="M2524.2,1020.7v264.6c0,8.5-6.9,15.4-15.4,15.4H1426.6c-8.4,0-15.4-6.9-15.4-15.4
			C2468.2,1307.2,2524.2,1020.7,2524.2,1020.7"/>
		<path class="st16" d="M1558,1153c0,18.8-15.2,34-34,34s-34-15.2-34-34c0-18.8,15.2-34,34-34S1558,1134.2,1558,1153"/>
		<path class="st16" d="M1734.3,1153c0,9.1-7.3,16.4-16.4,16.4c-9,0-16.4-7.3-16.4-16.4c0-9,7.3-16.4,16.4-16.4
			C1727,1136.6,1734.3,1143.9,1734.3,1153"/>
		<path class="st16" d="M1805.4,1153c0,9.1-7.3,16.4-16.4,16.4c-9,0-16.4-7.3-16.4-16.4c0-9,7.3-16.4,16.4-16.4
			C1798.1,1136.6,1805.4,1143.9,1805.4,1153"/>
		<path class="st16" d="M1876.5,1153c0,9.1-7.3,16.4-16.4,16.4c-9,0-16.4-7.3-16.4-16.4c0-9,7.3-16.4,16.4-16.4
			C1869.1,1136.6,1876.5,1143.9,1876.5,1153"/>
		<path class="st16" d="M1947.6,1153c0,9.1-7.3,16.4-16.4,16.4c-9,0-16.4-7.3-16.4-16.4c0-9,7.3-16.4,16.4-16.4
			C1940.2,1136.6,1947.6,1143.9,1947.6,1153"/>
		<path class="st16" d="M2018.6,1153c0,9.1-7.3,16.4-16.4,16.4c-9,0-16.4-7.3-16.4-16.4c0-9,7.3-16.4,16.4-16.4
			C2011.3,1136.6,2018.6,1143.9,2018.6,1153"/>
		<path class="st16" d="M2089.7,1153c0,9.1-7.3,16.4-16.4,16.4c-9,0-16.4-7.3-16.4-16.4c0-9,7.3-16.4,16.4-16.4
			C2082.4,1136.6,2089.7,1143.9,2089.7,1153"/>
		<path class="st16" d="M2451.8,1169.4h-271c-9.1,0-16.4-7.3-16.4-16.4c0-9,7.3-16.4,16.4-16.4h271c9,0,16.4,7.3,16.4,16.4
			C2468.2,1162,2460.8,1169.4,2451.8,1169.4"/>
		<path class="st13" d="M2392.7,257.5c-8,8-20.9,8-28.9,0c-8-8-8-20.9,0-28.9c8-8,20.9-8,28.9,0
			C2400.7,236.6,2400.7,249.5,2392.7,257.5"/>
		<path class="st13" d="M2342.8,218.9c-2.9,0-5.8-1.1-8-3.3c-4.4-4.4-4.4-11.5,0-15.9c11.6-11.6,27-18,43.4-18
			c16.4,0,31.8,6.4,43.4,18c4.4,4.4,4.4,11.5,0,15.9c-4.4,4.4-11.5,4.4-15.9,0c-7.3-7.3-17.1-11.4-27.5-11.4
			c-10.4,0-20.1,4-27.5,11.4C2348.6,217.8,2345.7,218.9,2342.8,218.9"/>
		<path class="st13" d="M2446.3,186.3c-2.9,0-5.8-1.1-8-3.3c-16-16-37.3-24.9-60-24.9c-22.7,0-44,8.8-60,24.9
			c-4.4,4.4-11.5,4.4-15.9,0c-4.4-4.4-4.4-11.5,0-15.9c20.3-20.3,47.3-31.5,76-31.5c28.7,0,55.7,11.2,76,31.5
			c4.4,4.4,4.4,11.5,0,15.9C2452,185.2,2449.1,186.3,2446.3,186.3"/>
		<path class="st13" d="M2490,150.5c-2.6,2.6-6.1,4-9.6,4c-3.5,0-6.9-1.3-9.6-4c-24.7-24.7-57.6-38.3-92.5-38.3
			c-35,0-67.8,13.6-92.5,38.3c-5.3,5.3-13.9,5.3-19.1,0c-5.3-5.3-5.3-13.9,0-19.1c7.4-7.4,15.3-13.9,23.8-19.6
			c25.8-17.4,56.1-26.7,87.9-26.7c6.3,0,12.6,0.4,18.8,1.1c35.1,4.1,67.5,19.8,92.8,45.2C2495.2,136.6,2495.2,145.2,2490,150.5"/>
	</g>
	<g class="st1">
		<defs>
			<polygon id="SVGID_11_" points="663.8,580 591.9,1229.1 1310.2,1319.6 1296.9,572 			"/>
		</defs>
		<clipPath id="SVGID_12_">
			<use xlink:href="#SVGID_11_"  style="overflow:visible;"/>
		</clipPath>
		<path class="st25" d="M1081.9,1623.7c3.6,96.1-44.4,661.7-44.4,661.7s-6.2,3-20.1,3c-18.4,0-35.3-2.1-35.3-2.1
			s-33.2-143.1-28.5-289.8c0.6-19.6,1.9-39.1,4.1-58.5c3.4-30.7,2.9-61.8-2-92.3c-5.6-34.5-11.2-73.1-16.1-113.2
			c-9.7-78.6-17.2-162.8-18.4-232.5c-5.8-333.6,136.2-59.9,136.2-59.9S1078.3,1527.7,1081.9,1623.7"/>
		<path class="st25" d="M821.1,1471.6c0,0-42.4,87.7-31.6,181c7.4,63.9,25.1,135.3,38.8,182.6c7.9,27.5,5.3,56.7-6.6,82.7
			c-44.6,97.5-101.8,335.2-101.8,335.2s32.5,17.8,59,16.6c0,0,126.4-275.4,148.6-356.5c41-150,46.8-434.7,46.8-434.7L821.1,1471.6z"
			/>
		<path class="st26" d="M1023.4,820.8c7.8,20.4-3.8,42.7-6.2,64.4c-1.7,15,1.1,30,1.4,45.1c0.3,15-2.6,31.2-13.2,41.9
			c-9,9.1-22.3,12.7-35.1,13.5c-29.8,1.8-60.2-10.4-80.4-32.5c-20.2-22-29.8-53.4-25.3-82.9c1.6-10.7,4.9-21,9.2-30.9
			c11.1-25.4,30.2-48.7,56.4-57.8c26.1-9.2,59.4-0.5,72.5,23.9"/>
		<path class="st27" d="M861.7,773.9c-13.3-10.2-29.6-16.5-46.4-17.8c-20.9-1.6-43.4,5.3-56.1,22c-11.9,15.6-13.7,36.7-23.8,53.6
			c-17,28.5-53.5,38.8-75.9,63.3c-6.5,7.2-12,16.2-11.5,25.9c0.6,12.1,10.2,22,11.9,34c3.1,21.5-19.8,40.6-16.4,62.1
			c2.9,18.6,23.9,28.5,42.6,31c28,3.8,57.9-2.3,80.4-19.4c22.5-17.2,36.5-46,33-74c-1.5-12.2-6.1-24-6.6-36.3
			c-0.8-22.2,12.1-43.3,10.7-65.4c-0.7-10.1-4.2-20.9,0.6-29.7c2.1-3.9,5.6-6.9,9.1-9.8c10.4-8.7,24.5-17.9,36.5-11.5"/>
		<path class="st27" d="M1043.2,810.9c-1.5-8.8-3.2-17.7-7.9-25.3c-8.9-14.2-29-19.7-44.2-12.7c-1.2-3.7-3.1-7.2-5.4-10.3
			c-24.6-34-79-30.4-112.9-15.3c-6.9,3.1-13.8,6.7-18.6,12.6c-7.3,8.9-8.4,21.3-8.5,32.8c-8.7,2-15.9,8.6-20.2,16.4
			c-4.3,7.9-6,16.9-6.7,25.8c-2.5,30.3,6.2,61.6,25.1,85.3c7.6,9.4,17.5,18,29.5,19.4c2,0.2,4.3,0.1,5.3-1.6
			c0.5-0.8,0.5-1.8,0.5-2.8c-0.1-6.4-2.3-12.5-3.4-18.8c-1.1-6.3-0.9-13.3,3.1-18.2c3.5-0.2,5.3,6.3,8.5,4.9c0.7-0.3,1.2-1,1.6-1.7
			c5.1-9.1,1.3-20.4,1.8-30.9c0.1-1.4,0.4-2.7,0.7-4.1c31.9-19.1,73.7-9.5,105.1-31.5c2.8-1.9,5.5-4.2,7.2-7.6c1.5-3.1,2-6.8,2-10.6
			c3.4,4.6,6.5,9.4,8,14.7c4.8,16.1,6.2,23.9,3.8,49.6c6.3-11.7,14.1-21.3,20.4-33c2.4-4.4,4.8-8.9,5.9-13.7
			C1045.9,826.6,1044.6,818.7,1043.2,810.9"/>
		<path class="st28" d="M891.4,902.6c1.3-1.3-0.4-3.4-2-4.4c-3.2-2-6.4-4.1-10-5.1c-3.6-1-7.8-0.7-10.8,1.7c-2.8,2.2-4,5.9-4.5,9.4
			c-1.9,12.4,3.5,25.5,13.4,33.1c4,3.1,9.1,5.3,14,4.3c4.9-1,9.1-6.3,7.4-11.1"/>
		<path class="st26" d="M1087.6,1250.3c0,0-30.8,185.8-33.7,213.7c-2.3,22.4,10.5,38.6,25.7-4.3c10.4-29.4,77.8-176.2,59.7-222.4
			c-18.1-46.3-37.6-5.2-37.6-5.2L1087.6,1250.3z"/>
		<path class="st26" d="M1081,1110.7c0,0,36.9,65.6,57.5,123.8c9.8,27.6-26.4,68.1-50.9,18.3c-28.5-57.9-54.7-109.5-54.7-109.5"/>
		<path class="st29" d="M1090.5,1123.7c-0.9,0.8-1.8,1.7-2.9,2.6c-5.1,4.3-13,10.1-24.6,17.1c-1.6,1-3.2,1.9-4.9,2.9
			c-34.9,19.8-53.6-37.8-53.6-37.8l-5-97.8c0,0,17.8,3.4,47.5,39.6C1049.7,1053.5,1076.3,1089.3,1090.5,1123.7"/>
		<path class="st29" d="M1062.1,1234.6c-28.4,49-2.7,177.7,6.5,246c0.4,2.6-1.4,5-4,5.5c-47.6,9.1-139.9,20.9-202.3,7.4
			c-6.9-1.5-12.8-2.9-17.8-4.4c-10.4-3-17.3-5.8-21.6-8.4c-1.8-1.1-2.6-3.2-2.2-5.3c0.6-3.1,1.3-6.4,1.9-9.8
			c8-43.7,14.1-115.9-12.3-222.2c-17.5-71.1-26.7-153.4,1-197.3c0.1,0,0.1-0.1,0.1-0.1c2.7-4.1,5.8-8,9.7-11.8
			c29.5-29.4,80.9-33.3,155.7-29.9c14.3,0.7,29.9,9.2,36.9,15.1c21.2,17.8,19.2,82.4,45.3,119
			C1069.8,1153.5,1094.3,1179.1,1062.1,1234.6"/>
		<path class="st26" d="M859.4,1137.5L812.6,1264c-14.5,15.7-32.5,25.4-49,17.4c-10.7-5.2-12.5-17.5-12.5-25.6
			c0-4.5,0.5-7.6,0.5-7.6c5.2-27.6,12.5-59.8,18.9-86.6c1.4-5.9,2.8-11.6,4-16.8c4.5-18.3,8-32.2,9.4-37.5c0.4-1.4,0.5-2.3,0.5-2.3
			L859.4,1137.5z"/>
		<path class="st30" d="M806.7,1170.9l-20.1,41c0,0-15.9,8.2-9.7-5.5c6.3-13.8,5.8-35.8,5.8-35.8c-4.8-2.7-9.1-6.2-12.2-9
			c1.4-5.9,2.8-11.6,4-16.8c5.5-0.1,19.8-0.3,19.8,0C794.4,1145.2,806.7,1170.9,806.7,1170.9"/>
		<path class="st29" d="M829.7,1026.9c-46.2,21.9-55.9,74.5-63.8,127.6l80.1,32c0,0,67.9-103.3,25.8-142.4
			C855,1028.5,847.2,1018.6,829.7,1026.9"/>
		<path class="st26" d="M946.5,970.1c0.5,6.7,5.4,27.4,8.2,30.4c3.4,3.7,8.1,3.5,12.2,3.5c0,17.3-23.5,32.1-43,28.6
			c-13.3-2.4-26.8-13.1-31.9-25.8c10.6-8.2,10.5-25,10.9-37.2c0.3-9.3,1.8-22.3-2-31.1"/>
		<path class="st31" d="M932.2,969.7l-48.7,16.6c-3.3,1.1-7-0.6-8.1-4l-37.1-107.7c-1.1-3.3,0.6-7,4-8.1l48.7-16.6
			c3.3-1.1,7,0.6,8.1,4l37.1,107.7C937.3,964.9,935.5,968.6,932.2,969.7"/>
		<path class="st26" d="M804.9,1295.6c16.3-2.2,45-45.9,56.6-91.2c22.6-87.9,35.5-152.3,40.8-180.4c0-0.2,0-0.2,0.2-0.2
			c1.8-10.2,2.7-15.6,2.7-15.6s-31.4-10.5-31.2-6.4c0.1,3.2-0.2,7.3-2.3,11.1c-16.6,30.7-64.9,120.9-89.2,188.2
			c-1.6,4.3-6.2,6.7-10.6,5.3c-17.8,9.8-17.8,62.4-17.8,62.4l3,6.1C771.2,1297.5,793.6,1297.1,804.9,1295.6"/>
		<path class="st26" d="M874,1001.8c0,0,2.6-16.9-6-31.9c-8.6-15-11.6-37.4-11.6-37.4s1.1-36.1,3.7-39.1c2.6-3,4.9,3.4,5.3,8.6
			c0.5,5.2,1.1,25.6,2,31.2c0.9,5.6,4.5,14.1,4.5,14.1s-1.9-28.6-1.9-36.9c0-8.3,0.3-18,2.6-17.7c4,0.6,6.2,10,6.4,21.2
			c0.2,11.2,5.6,35,5.6,35s-1.1-20.9-0.2-28.3c0.9-7.3,1.3-20.9,3-22.9c1.7-1.9,6.2,1.4,6.2,8.1c0,6.7,1.5,28.3,2.2,34.7
			c0.8,6.4,4.6,11.1,4.6,11.1s-0.9-9.6-0.8-19.6c0.1-10.6,1.3-21.7,3.2-21.7c6.6,0,5.2,30.7,6.9,35.8c7.7,23.2-4.7,63.6-4.7,63.6
			s-18.5,17.8-21.1,18.4c-2.6,0.6-16,2.2-16,2.2L874,1001.8z"/>
		<g class="st32">
			<g>
				<defs>
					<rect id="SVGID_13_" x="1079.8" y="651.8" width="153.5" height="143.1"/>
				</defs>
				<clipPath id="SVGID_14_">
					<use xlink:href="#SVGID_13_"  style="overflow:visible;"/>
				</clipPath>
				<polyline class="st33" points="1124.1,779.6 1079.8,788.3 1107.2,753.7 				"/>
				<path class="st33" d="M1090.3,723.4c0,39.5,32,71.5,71.5,71.5c39.5,0,71.5-32,71.5-71.5c0-39.5-32-71.5-71.5-71.5
					C1122.3,651.8,1090.3,683.8,1090.3,723.4"/>
			</g>
		</g>
		<path class="st34" d="M1134.3,723.4c0,5.3-4.3,9.6-9.6,9.6c-5.3,0-9.6-4.3-9.6-9.6c0-5.3,4.3-9.6,9.6-9.6
			C1130,713.8,1134.3,718.1,1134.3,723.4"/>
		<path class="st34" d="M1171.4,723.4c0,5.3-4.3,9.6-9.6,9.6c-5.3,0-9.6-4.3-9.6-9.6c0-5.3,4.3-9.6,9.6-9.6
			C1167.1,713.8,1171.4,718.1,1171.4,723.4"/>
		<path class="st34" d="M1208.5,723.4c0,5.3-4.3,9.6-9.6,9.6c-5.3,0-9.6-4.3-9.6-9.6c0-5.3,4.3-9.6,9.6-9.6
			C1204.2,713.8,1208.5,718.1,1208.5,723.4"/>
	</g>
</g>
</svg>
