<?xml version="1.0" encoding="utf-8"?>
<!-- Generator: Adobe Illustrator 19.0.0, SVG Export Plug-In . SVG Version: 6.00 Build 0)  -->
<svg version="1.1" id="Layer_1" xmlns="http://www.w3.org/2000/svg" xmlns:xlink="http://www.w3.org/1999/xlink" x="0px" y="0px"
	 viewBox="0 0 2819.3 1359.4" style="enable-background:new 0 0 2819.3 1359.4;" xml:space="preserve">
<style type="text/css">
	.st0{clip-path:url(#SVGID_2_);fill:#79C798;}
	.st1{clip-path:url(#SVGID_2_);}
	.st2{clip-path:url(#SVGID_4_);fill:#FFFFFF;}
	.st3{fill:#79C798;}
	.st4{fill:#FFFFFF;}
	.st5{clip-path:url(#SVGID_6_);fill:#F9D60A;}
	.st6{clip-path:url(#SVGID_6_);fill:#FEC75B;}
	.st7{clip-path:url(#SVGID_6_);fill:#FEB528;}
	.st8{clip-path:url(#SVGID_6_);}
	.st9{clip-path:url(#SVGID_8_);fill:#FFFFFF;}
	.st10{clip-path:url(#SVGID_10_);fill:#F9D60A;}
	.st11{clip-path:url(#SVGID_12_);fill:#FFFFFF;}
	.st12{clip-path:url(#SVGID_14_);fill:#F9D60A;}
	.st13{clip-path:url(#SVGID_16_);fill:#FFFFFF;}
	.st14{clip-path:url(#SVGID_18_);fill:#F9D60A;}
	.st15{clip-path:url(#SVGID_20_);fill:#FFFFFF;}
	.st16{clip-path:url(#SVGID_22_);fill:#F9D60A;}
	.st17{clip-path:url(#SVGID_24_);fill:#FFFFFF;}
	.st18{clip-path:url(#SVGID_26_);fill:#F9D60A;}
	.st19{clip-path:url(#SVGID_28_);fill:#FFFFFF;}
	.st20{clip-path:url(#SVGID_30_);fill:#F9D60A;}
	.st21{clip-path:url(#SVGID_32_);fill:#FFFFFF;}
	.st22{clip-path:url(#SVGID_34_);fill:#F9D60A;}
	.st23{clip-path:url(#SVGID_36_);fill:#FFFFFF;}
	.st24{clip-path:url(#SVGID_38_);fill:#F9D60A;}
	.st25{clip-path:url(#SVGID_40_);fill:#FFFFFF;}
	.st26{clip-path:url(#SVGID_42_);fill:#F9D60A;}
	.st27{clip-path:url(#SVGID_44_);fill:#FFFFFF;}
	.st28{clip-path:url(#SVGID_46_);fill:#F9D60A;}
	.st29{opacity:0.5;clip-path:url(#SVGID_6_);}
	.st30{clip-path:url(#SVGID_48_);fill:#FFFFDE;}
	.st31{clip-path:url(#SVGID_50_);fill:#FFFFDE;}
	.st32{clip-path:url(#SVGID_6_);fill:#6DD480;}
	.st33{clip-path:url(#SVGID_6_);fill:#FFFFFF;}
	.st34{clip-path:url(#SVGID_6_);fill:#EEEEEE;}
	.st35{clip-path:url(#SVGID_52_);fill:#FFFFFF;}
	.st36{clip-path:url(#SVGID_54_);fill:#F9D60A;}
	.st37{clip-path:url(#SVGID_56_);fill:#FFFFFF;}
	.st38{clip-path:url(#SVGID_58_);fill:#F9D60A;}
	.st39{clip-path:url(#SVGID_60_);fill:#FFFFFF;}
	.st40{clip-path:url(#SVGID_62_);fill:#F9D60A;}
	.st41{clip-path:url(#SVGID_64_);fill:#FFFFFF;}
	.st42{clip-path:url(#SVGID_66_);fill:#F9D60A;}
	.st43{clip-path:url(#SVGID_68_);fill:#FFFFFF;}
	.st44{clip-path:url(#SVGID_70_);fill:#F9D60A;}
	.st45{clip-path:url(#SVGID_72_);fill:#FFFFFF;}
	.st46{clip-path:url(#SVGID_74_);fill:#F9D60A;}
	.st47{clip-path:url(#SVGID_76_);fill:#FFFFFF;}
	.st48{clip-path:url(#SVGID_78_);fill:#F9D60A;}
	.st49{clip-path:url(#SVGID_80_);fill:#FFFFFF;}
	.st50{clip-path:url(#SVGID_82_);fill:#F9D60A;}
	.st51{clip-path:url(#SVGID_84_);fill:#FFFFFF;}
	.st52{clip-path:url(#SVGID_86_);fill:#F9D60A;}
	.st53{clip-path:url(#SVGID_88_);fill:#FFFFFF;}
	.st54{clip-path:url(#SVGID_90_);fill:#F9D60A;}
	.st55{clip-path:url(#SVGID_92_);fill:#FFFFFF;}
	.st56{clip-path:url(#SVGID_94_);fill:#F9D60A;}
	.st57{clip-path:url(#SVGID_96_);fill:#FFFFFF;}
	.st58{clip-path:url(#SVGID_98_);fill:#F9D60A;}
	.st59{clip-path:url(#SVGID_100_);fill:#FFFFFF;}
	.st60{clip-path:url(#SVGID_102_);fill:#F9D60A;}
	.st61{clip-path:url(#SVGID_104_);fill:#FFFFFF;}
	.st62{clip-path:url(#SVGID_106_);fill:#F9D60A;}
	.st63{clip-path:url(#SVGID_108_);fill:#FFFFDE;}
	.st64{clip-path:url(#SVGID_110_);fill:#FFFFDE;}
	.st65{clip-path:url(#SVGID_112_);fill:#54A964;}
	.st66{clip-path:url(#SVGID_6_);fill:#54A964;}
	.st67{clip-path:url(#SVGID_6_);fill:#374F85;}
	.st68{clip-path:url(#SVGID_6_);fill:#29244C;}
	.st69{clip-path:url(#SVGID_6_);fill:#808285;}
	.st70{clip-path:url(#SVGID_6_);fill:#F2D392;}
	.st71{clip-path:url(#SVGID_114_);fill:#D8A87D;}
	.st72{clip-path:url(#SVGID_6_);fill:#6D6E71;}
	.st73{clip-path:url(#SVGID_6_);fill:#F4D9A1;}
	.st74{opacity:0.3;clip-path:url(#SVGID_6_);}
	.st75{clip-path:url(#SVGID_116_);fill:#231F20;}
	.st76{clip-path:url(#SVGID_6_);fill:#E5F9F6;}
	.st77{clip-path:url(#SVGID_118_);fill:#D29A68;}
	.st78{clip-path:url(#SVGID_6_);fill:#29204D;}
	.st79{clip-path:url(#SVGID_6_);fill:#FDF1D1;}
	.st80{clip-path:url(#SVGID_6_);fill:#F8D265;}
	.st81{clip-path:url(#SVGID_6_);fill:#ECBA42;}
</style>
<g>
	<defs>
		<rect id="SVGID_1_" width="2819.3" height="1359.4"/>
	</defs>
	<clipPath id="SVGID_2_">
		<use xlink:href="#SVGID_1_"  style="overflow:visible;"/>
	</clipPath>
	<polygon class="st0" points="2338.4,0 0,8 0,1029.6 2338.4,842 	"/>
	<g class="st1">
		<defs>
			<rect id="SVGID_3_" y="0" width="2819.3" height="1359.4"/>
		</defs>
		<clipPath id="SVGID_4_">
			<use xlink:href="#SVGID_3_"  style="overflow:visible;"/>
		</clipPath>
		<path class="st2" d="M770.2,481.6c0,199.8-162,361.7-361.7,361.7S46.7,681.4,46.7,481.6c0-199.8,162-361.7,361.7-361.7
			S770.2,281.8,770.2,481.6"/>
	</g>
	<g class="st1">
		<path class="st3" d="M200.8,610.6c1.3,2.7,2.7,8,2.7,14.7c0,15.7-9.9,27.6-28.2,27.6c-17.5,0-29.3-11.8-29.3-29.2
			c0-7,1.5-11.3,2.5-13.3l5.9,1.7c-1.3,2.7-2.3,6.6-2.3,11.3c0,13.1,8.4,21.8,23,21.8c13.7,0,22.4-7.9,22.4-21.5
			c0-4.4-0.9-8.9-2.3-11.8L200.8,610.6z"/>
		<path class="st3" d="M143.9,601.8v-7.3h25v-0.2c-2.1-1.2-3.9-3-5.1-5.2c-1.2-2.2-2.1-4.7-2.1-7.5c0-5.4,3.3-14,17.1-14h23.9v7.3
			h-23c-6.5,0-11.9,2.4-11.9,9.3c0,4.7,3.3,8.4,7.3,9.8c1,0.4,2.1,0.5,3.5,0.5h24.2v7.3H143.9z"/>
		<path class="st3" d="M202.7,533.6l-5.1,0.6v0.2c3.1,2.2,6,6.5,6,12.3c0,8.1-5.7,12.3-11.5,12.3c-9.7,0-15-8.6-14.9-24.1h-0.8
			c-3.3,0-9.3,0.9-9.3,9.1c0,3.7,1.2,7.6,3,10.4l-4.8,1.7c-2.2-3.3-3.6-8.1-3.6-13.2c0-12.3,8.4-15.2,16.4-15.2h15
			c3.5,0,6.9-0.2,9.6-0.7V533.6z M182.2,534.7c-0.2,8,1.2,17,9,17c4.7,0,7-3.1,7-6.9c0-5.2-3.3-8.5-6.7-9.7
			c-0.7-0.2-1.6-0.4-2.3-0.4H182.2z"/>
		<path class="st3" d="M175.7,515.9c-5.1,0-9.3,0.2-13.1,0.3v-6.5l6.9-0.3v-0.2c-4.9-3-7.8-7.7-7.8-14.2c0-9.7,8.2-17,20.4-17
			c14.4,0,21.5,8.8,21.5,18.2c0,5.3-2.3,9.9-6.3,12.3v0.2h21.8v7.2H175.7z M186.3,508.7c1.1,0,2.1-0.2,3-0.3
			c5.1-1.3,8.5-5.7,8.5-10.9c0-7.7-6.3-12.2-15.5-12.2c-8,0-14.9,4.2-14.9,11.9c0,5,3.6,9.6,9,11c0.9,0.2,2,0.5,3,0.5H186.3z"/>
		<path class="st3" d="M151.1,460h11.5v-10.4h5.5V460h21.6c5,0,7.8-1.4,7.8-5.5c0-1.9-0.2-3.3-0.5-4.2l5.5-0.3c0.6,1.4,1,3.6,1,6.5
			c0,3.4-1.1,6.1-3.1,7.9c-2.2,2.1-5.7,2.8-10.4,2.8h-21.9v6.2h-5.5v-6.2H153L151.1,460z"/>
		<path class="st3" d="M183.9,437.3c9.9-0.2,13.9-6.5,13.9-13.7c0-5.2-0.9-8.4-2.1-11.1l5.2-1.2c1.2,2.6,2.5,7,2.5,13.3
			c0,12.3-8.1,19.7-20.2,19.7c-12.1,0-21.6-7.1-21.6-18.8c0-13.1,11.5-16.6,18.9-16.6c1.5,0,2.7,0.2,3.4,0.2V437.3z M178.7,415.9
			c-4.6-0.1-11.8,1.9-11.8,10.1c0,7.4,6.8,10.6,11.8,11.2V415.9z"/>
		<path class="st3" d="M175.1,399.9c-4.7,0-8.8,0.1-12.5,0.3v-6.4l7.9-0.2v-0.3c-5.4-1.8-8.8-6.2-8.8-11.1c0-0.8,0.1-1.4,0.2-2.1
			h6.9c-0.2,0.7-0.2,1.5-0.2,2.5c0,5.1,3.9,8.8,9.4,9.8c1,0.2,2.2,0.3,3.4,0.3h21.4v7.2H175.1z"/>
	</g>
	<g class="st1">
		<path class="st3" d="M456.8,493.8c0,99.9-37.1,155-102.2,155c-57.4,0-96.3-53.8-97.2-151c0-98.5,42.5-152.8,102.2-152.8
			C421.6,345.1,456.8,400.3,456.8,493.8z M297.3,498.3c0,76.4,23.5,119.8,59.7,119.8c40.7,0,60.1-47.5,60.1-122.5
			c0-72.3-18.5-119.8-59.7-119.8C322.6,375.8,297.3,418.3,297.3,498.3z"/>
	</g>
	<g class="st1">
		<path class="st3" d="M493.4,598.2c11.3,7.2,37.5,18.5,65.1,18.5c51.1,0,66.9-32.5,66.4-57c-0.5-41.1-37.5-58.8-75.9-58.8h-22.1
			v-29.8H549c28.9,0,65.5-14.9,65.5-49.7c0-23.5-14.9-44.3-51.5-44.3c-23.5,0-46.1,10.4-58.8,19.4l-10.4-28.9
			c15.4-11.3,45.2-22.6,76.8-22.6c57.9,0,84.1,34.4,84.1,70.1c0,30.3-18.1,56-54.2,69.2v0.9c36.2,7.2,65.5,34.4,65.5,75.5
			c0,47-36.6,88.1-107.1,88.1c-33,0-61.9-10.4-76.4-19.9L493.4,598.2z"/>
	</g>
	<g class="st1">
		<path class="st4" d="M900.5,144.7v36.7h42.4v-36.7h11.4v87.6h-11.4v-41.1h-42.4v41.1h-11.3v-87.6H900.5z"/>
		<path class="st4" d="M1030.5,200.3c0,23.3-16.1,33.4-31.3,33.4c-17,0-30.2-12.5-30.2-32.4c0-21.1,13.8-33.4,31.2-33.4
			C1018.3,168,1030.5,181.1,1030.5,200.3z M980.6,201c0,13.8,7.9,24.2,19.1,24.2c10.9,0,19.1-10.3,19.1-24.4
			c0-10.7-5.3-24.2-18.9-24.2S980.6,189,980.6,201z"/>
		<path class="st4" d="M1049.5,169.4l8.3,32c1.8,7,3.5,13.5,4.7,20h0.4c1.4-6.4,3.5-13.1,5.6-19.9l10.3-32.1h9.6l9.8,31.5
			c2.3,7.5,4.2,14.2,5.6,20.5h0.4c1-6.4,2.7-13,4.8-20.4l9-31.6h11.3l-20.3,62.9h-10.4l-9.6-30c-2.2-7-4-13.3-5.6-20.7h-0.3
			c-1.6,7.5-3.5,14-5.7,20.8l-10.1,29.9h-10.4l-19-62.9H1049.5z"/>
		<path class="st4" d="M1182,151.3v18.1h16.4v8.7H1182V212c0,7.8,2.2,12.2,8.6,12.2c3,0,5.2-0.4,6.6-0.8l0.5,8.6
			c-2.2,0.9-5.7,1.6-10.1,1.6c-5.3,0-9.6-1.7-12.4-4.8c-3.3-3.4-4.4-9-4.4-16.4v-34.3h-9.8v-8.7h9.8v-15.1L1182,151.3z"/>
		<path class="st4" d="M1268.2,200.3c0,23.3-16.1,33.4-31.3,33.4c-17,0-30.2-12.5-30.2-32.4c0-21.1,13.8-33.4,31.2-33.4
			C1256,168,1268.2,181.1,1268.2,200.3z M1218.3,201c0,13.8,7.9,24.2,19.1,24.2c10.9,0,19.1-10.3,19.1-24.4
			c0-10.7-5.3-24.2-18.9-24.2S1218.3,189,1218.3,201z"/>
		<path class="st4" d="M1309,218.5c5.1,3.1,12.5,5.7,20.3,5.7c11.6,0,18.3-6.1,18.3-15c0-8.2-4.7-12.9-16.5-17.4
			c-14.3-5.1-23.1-12.5-23.1-24.8c0-13.7,11.3-23.8,28.3-23.8c9,0,15.5,2.1,19.4,4.3l-3.1,9.2c-2.9-1.6-8.7-4.2-16.6-4.2
			c-12,0-16.5,7.1-16.5,13.1c0,8.2,5.3,12.2,17.4,16.9c14.8,5.7,22.4,12.9,22.4,25.7c0,13.5-10,25.2-30.7,25.2
			c-8.5,0-17.7-2.5-22.4-5.6L1309,218.5z"/>
		<path class="st4" d="M1380.6,202.9c0.3,15.5,10.1,21.8,21.6,21.8c8.2,0,13.1-1.4,17.4-3.3l2,8.2c-4,1.8-10.9,3.9-20.9,3.9
			c-19.4,0-30.9-12.7-30.9-31.7c0-19,11.2-33.9,29.5-33.9c20.5,0,26,18.1,26,29.6c0,2.3-0.3,4.2-0.4,5.3H1380.6z M1414.2,194.7
			c0.1-7.3-3-18.6-15.9-18.6c-11.6,0-16.6,10.7-17.6,18.6H1414.2z"/>
		<path class="st4" d="M1439.4,140h11.4v92.3h-11.4V140z"/>
		<path class="st4" d="M1476.4,202.9c0.3,15.5,10.1,21.8,21.6,21.8c8.2,0,13.1-1.4,17.4-3.3l2,8.2c-4,1.8-10.9,3.9-20.9,3.9
			c-19.4,0-30.9-12.7-30.9-31.7c0-19,11.2-33.9,29.5-33.9c20.5,0,26,18.1,26,29.6c0,2.3-0.3,4.2-0.4,5.3H1476.4z M1510,194.7
			c0.1-7.3-3-18.6-15.9-18.6c-11.6,0-16.6,10.7-17.6,18.6H1510z"/>
		<path class="st4" d="M1580,230c-3,1.6-9.6,3.6-18.1,3.6c-19,0-31.3-12.9-31.3-32.1c0-19.4,13.3-33.4,33.8-33.4
			c6.8,0,12.7,1.7,15.9,3.3l-2.6,8.8c-2.7-1.6-7-3-13.3-3c-14.4,0-22.2,10.7-22.2,23.8c0,14.6,9.4,23.5,21.8,23.5
			c6.5,0,10.8-1.7,14-3.1L1580,230z"/>
		<path class="st4" d="M1607.2,151.3v18.1h16.4v8.7h-16.4V212c0,7.8,2.2,12.2,8.6,12.2c3,0,5.2-0.4,6.6-0.8l0.5,8.6
			c-2.2,0.9-5.7,1.6-10.1,1.6c-5.3,0-9.6-1.7-12.4-4.8c-3.3-3.4-4.4-9-4.4-16.4v-34.3h-9.8v-8.7h9.8v-15.1L1607.2,151.3z"/>
		<path class="st4" d="M1698.9,232.3l-0.9-7.9h-0.4c-3.5,4.9-10.3,9.4-19.2,9.4c-12.7,0-19.2-9-19.2-18.1
			c0-15.2,13.5-23.5,37.8-23.4V191c0-5.2-1.4-14.6-14.3-14.6c-5.9,0-12,1.8-16.4,4.7l-2.6-7.5c5.2-3.4,12.7-5.6,20.7-5.6
			c19.2,0,23.9,13.1,23.9,25.7v23.5c0,5.5,0.3,10.8,1,15.1H1698.9z M1697.2,200.2c-12.5-0.3-26.7,2-26.7,14.2
			c0,7.4,4.9,10.9,10.8,10.9c8.2,0,13.4-5.2,15.2-10.5c0.4-1.2,0.7-2.5,0.7-3.6V200.2z"/>
	</g>
	<g class="st1">
		<path class="st4" d="M950.5,359.5c-4.2,2.1-12.5,4.2-23.1,4.2c-24.7,0-43.3-15.6-43.3-44.3c0-27.4,18.6-46,45.8-46
			c10.9,0,17.8,2.3,20.8,3.9l-2.7,9.2c-4.3-2.1-10.4-3.6-17.7-3.6c-20.5,0-34.2,13.1-34.2,36.1c0,21.5,12.4,35.2,33.7,35.2
			c6.9,0,13.9-1.4,18.5-3.6L950.5,359.5z"/>
		<path class="st4" d="M964.2,270h11.4v39.3h0.3c1.8-3.3,4.7-6.1,8.2-8.1c3.4-1.9,7.4-3.3,11.7-3.3c8.5,0,22,5.2,22,26.9v37.4h-11.4
			v-36.1c0-10.1-3.8-18.7-14.6-18.7c-7.4,0-13.3,5.2-15.3,11.4c-0.7,1.6-0.8,3.3-0.8,5.5v38h-11.4V270z"/>
		<path class="st4" d="M1042.8,332.9c0.3,15.5,10.1,21.8,21.6,21.8c8.2,0,13.1-1.4,17.4-3.3l2,8.2c-4,1.8-10.9,3.9-20.9,3.9
			c-19.4,0-30.9-12.7-30.9-31.7c0-19,11.2-33.9,29.5-33.9c20.5,0,26,18.1,26,29.6c0,2.3-0.3,4.2-0.4,5.3H1042.8z M1076.3,324.7
			c0.1-7.3-3-18.6-15.9-18.6c-11.6,0-16.6,10.7-17.6,18.6H1076.3z"/>
		<path class="st4" d="M1136.4,362.3l-0.9-7.9h-0.4c-3.5,4.9-10.3,9.4-19.2,9.4c-12.7,0-19.2-9-19.2-18.1
			c0-15.2,13.5-23.5,37.8-23.4V321c0-5.2-1.4-14.6-14.3-14.6c-5.9,0-12,1.8-16.4,4.7l-2.6-7.5c5.2-3.4,12.7-5.6,20.7-5.6
			c19.2,0,23.9,13.1,23.9,25.7v23.5c0,5.5,0.3,10.8,1,15.1H1136.4z M1134.7,330.2c-12.5-0.3-26.7,2-26.7,14.2
			c0,7.4,4.9,10.9,10.8,10.9c8.2,0,13.4-5.2,15.2-10.5c0.4-1.2,0.6-2.5,0.6-3.6V330.2z"/>
		<path class="st4" d="M1164.2,319.9c0-8.1-0.3-14.6-0.5-20.5h10.3l0.5,10.8h0.3c4.7-7.7,12.1-12.2,22.4-12.2
			c15.2,0,26.7,12.9,26.7,32c0,22.6-13.8,33.8-28.6,33.8c-8.3,0-15.6-3.6-19.4-9.9h-0.3v34.2h-11.3V319.9z M1175.5,336.7
			c0,1.7,0.3,3.3,0.5,4.7c2.1,7.9,9,13.4,17.2,13.4c12.1,0,19.1-9.9,19.1-24.3c0-12.6-6.6-23.4-18.7-23.4c-7.8,0-15.1,5.6-17.3,14.2
			c-0.4,1.4-0.8,3.1-0.8,4.7V336.7z"/>
		<path class="st4" d="M1285.3,362.3l-28.6-87.6h12.2l13.7,43.2c3.8,11.8,7,22.5,9.4,32.8h0.3c2.5-10.1,6.1-21.2,10-32.6l14.8-43.3
			h12.1l-31.3,87.6H1285.3z"/>
		<path class="st4" d="M1395.2,330.3c0,23.3-16.1,33.4-31.3,33.4c-17,0-30.2-12.5-30.2-32.4c0-21.1,13.8-33.4,31.2-33.4
			C1383,298,1395.2,311.1,1395.2,330.3z M1345.3,331c0,13.8,7.9,24.2,19.1,24.2c10.9,0,19.1-10.3,19.1-24.4
			c0-10.7-5.3-24.2-18.9-24.2S1345.3,319,1345.3,331z"/>
		<path class="st4" d="M1421.3,274.7v87.6H1410v-87.6H1421.3z"/>
		<path class="st4" d="M1441.1,275.7c5.5-0.9,12.6-1.7,21.7-1.7c11.2,0,19.4,2.6,24.6,7.3c4.8,4.2,7.7,10.5,7.7,18.3
			c0,7.9-2.3,14.2-6.8,18.7c-6,6.4-15.7,9.6-26.8,9.6c-3.4,0-6.5-0.1-9.1-0.8v35.1h-11.3V275.7z M1452.4,318
			c2.5,0.6,5.6,0.9,9.4,0.9c13.7,0,22-6.6,22-18.7c0-11.6-8.2-17.2-20.7-17.2c-4.9,0-8.7,0.4-10.7,0.9V318z"/>
		<path class="st4" d="M1537.8,275.7c5.5-0.9,12.6-1.7,21.7-1.7c11.2,0,19.4,2.6,24.6,7.3c4.8,4.2,7.7,10.5,7.7,18.3
			c0,7.9-2.3,14.2-6.8,18.7c-6,6.4-15.7,9.6-26.8,9.6c-3.4,0-6.5-0.1-9.1-0.8v35.1h-11.3V275.7z M1549.1,318
			c2.5,0.6,5.6,0.9,9.4,0.9c13.7,0,22-6.6,22-18.7c0-11.6-8.2-17.2-20.7-17.2c-4.9,0-8.7,0.4-10.7,0.9V318z"/>
		<path class="st4" d="M1606.6,319c0-7.4-0.1-13.8-0.5-19.6h10l0.4,12.4h0.5c2.9-8.5,9.8-13.8,17.4-13.8c1.3,0,2.2,0.1,3.3,0.4v10.8
			c-1.2-0.3-2.3-0.4-3.9-0.4c-8.1,0-13.8,6.1-15.3,14.7c-0.3,1.6-0.5,3.4-0.5,5.3v33.5h-11.3V319z"/>
		<path class="st4" d="M1706,330.3c0,23.3-16.1,33.4-31.3,33.4c-17,0-30.2-12.5-30.2-32.4c0-21.1,13.8-33.4,31.2-33.4
			C1693.8,298,1706,311.1,1706,330.3z M1656.1,331c0,13.8,7.9,24.2,19.1,24.2c10.9,0,19.1-10.3,19.1-24.4c0-10.7-5.3-24.2-18.9-24.2
			C1661.9,306.5,1656.1,319,1656.1,331z"/>
		<path class="st4" d="M1724.9,299.4l12.4,35.4c2.1,5.7,3.8,10.9,5.1,16.1h0.4c1.4-5.2,3.3-10.4,5.3-16.1l12.2-35.4h12l-24.7,62.9
			h-10.9l-23.9-62.9H1724.9z"/>
		<path class="st4" d="M1795.7,281.7c0.1,3.9-2.7,7-7.3,7c-4,0-6.9-3.1-6.9-7c0-4,3-7.2,7.2-7.2
			C1793,274.6,1795.7,277.7,1795.7,281.7z M1783,362.3v-62.9h11.4v62.9H1783z"/>
		<path class="st4" d="M1867.7,270v76.1c0,5.6,0.1,12,0.5,16.3H1858l-0.5-10.9h-0.3c-3.5,7-11.2,12.4-21.5,12.4
			c-15.2,0-26.9-12.9-26.9-32c-0.1-20.9,12.9-33.8,28.2-33.8c9.6,0,16.1,4.6,19,9.6h0.3V270H1867.7z M1856.3,325
			c0-1.4-0.1-3.4-0.5-4.8c-1.7-7.3-7.9-13.3-16.5-13.3c-11.8,0-18.9,10.4-18.9,24.3c0,12.7,6.2,23.3,18.6,23.3
			c7.7,0,14.7-5.1,16.8-13.7c0.4-1.6,0.5-3.1,0.5-4.9V325z"/>
		<path class="st4" d="M1893.1,332.9c0.3,15.5,10.1,21.8,21.6,21.8c8.2,0,13.1-1.4,17.4-3.3l2,8.2c-4,1.8-10.9,3.9-20.9,3.9
			c-19.4,0-30.9-12.7-30.9-31.7c0-19,11.2-33.9,29.5-33.9c20.5,0,26,18.1,26,29.6c0,2.3-0.3,4.2-0.4,5.3H1893.1z M1926.6,324.7
			c0.1-7.3-3-18.6-15.9-18.6c-11.6,0-16.6,10.7-17.6,18.6H1926.6z"/>
		<path class="st4" d="M1951.8,319c0-7.4-0.1-13.8-0.5-19.6h10l0.4,12.4h0.5c2.9-8.5,9.8-13.8,17.4-13.8c1.3,0,2.2,0.1,3.3,0.4v10.8
			c-1.2-0.3-2.3-0.4-3.9-0.4c-8.1,0-13.8,6.1-15.3,14.7c-0.3,1.6-0.5,3.4-0.5,5.3v33.5h-11.3V319z"/>
	</g>
	<g class="st1">
		<path class="st4" d="M903.5,492.3l-22.2-87.6h12l10.4,44.3c2.6,10.9,4.9,21.8,6.5,30.3h0.3c1.4-8.7,4.2-19.1,7.2-30.4l11.7-44.2
			h11.8l10.7,44.5c2.5,10.4,4.8,20.8,6.1,30h0.3c1.8-9.6,4.3-19.4,7-30.3l11.6-44.2h11.6l-24.8,87.6h-11.8l-11.1-45.6
			c-2.7-11.2-4.6-19.8-5.7-28.6h-0.3c-1.6,8.7-3.5,17.3-6.8,28.6l-12.5,45.6H903.5z"/>
		<path class="st4" d="M1011.6,411.7c0.1,3.9-2.7,7-7.3,7c-4,0-6.9-3.1-6.9-7c0-4,3-7.2,7.2-7.2
			C1008.8,404.6,1011.6,407.7,1011.6,411.7z M998.8,492.3v-62.9h11.4v62.9H998.8z"/>
		<path class="st4" d="M1043,411.3v18.1h16.4v8.7H1043V472c0,7.8,2.2,12.2,8.6,12.2c3,0,5.2-0.4,6.6-0.8l0.5,8.6
			c-2.2,0.9-5.7,1.6-10.1,1.6c-5.3,0-9.6-1.7-12.4-4.8c-3.3-3.4-4.4-9-4.4-16.4v-34.3h-9.8v-8.7h9.8v-15.1L1043,411.3z"/>
		<path class="st4" d="M1072.3,400h11.4v39.3h0.3c1.8-3.3,4.7-6.1,8.2-8.1c3.4-1.9,7.4-3.3,11.7-3.3c8.5,0,22,5.2,22,26.9v37.4
			h-11.4v-36.1c0-10.1-3.8-18.7-14.6-18.7c-7.4,0-13.3,5.2-15.3,11.4c-0.6,1.6-0.8,3.3-0.8,5.5v38h-11.4V400z"/>
		<path class="st4" d="M1201.4,460.3c0,23.3-16.1,33.4-31.3,33.4c-17,0-30.2-12.5-30.2-32.4c0-21.1,13.8-33.4,31.2-33.4
			C1189.1,428,1201.4,441.1,1201.4,460.3z M1151.4,461c0,13.8,7.9,24.2,19.1,24.2c10.9,0,19.1-10.3,19.1-24.4
			c0-10.7-5.3-24.2-18.9-24.2S1151.4,449,1151.4,461z"/>
		<path class="st4" d="M1268.4,475.2c0,6.5,0.1,12.2,0.5,17.2h-10.1l-0.6-10.3h-0.3c-3,5.1-9.6,11.7-20.8,11.7
			c-9.9,0-21.7-5.5-21.7-27.6v-36.8h11.4v34.8c0,12,3.6,20,14,20c7.7,0,13-5.3,15.1-10.4c0.7-1.7,1-3.8,1-5.9v-38.6h11.4V475.2z"/>
		<path class="st4" d="M1301.2,411.3v18.1h16.4v8.7h-16.4V472c0,7.8,2.2,12.2,8.6,12.2c3,0,5.2-0.4,6.6-0.8l0.5,8.6
			c-2.2,0.9-5.7,1.6-10.1,1.6c-5.3,0-9.6-1.7-12.4-4.8c-3.3-3.4-4.4-9-4.4-16.4v-34.3h-9.8v-8.7h9.8v-15.1L1301.2,411.3z"/>
		<path class="st4" d="M1358.4,405.9c4.9-1,12.7-1.8,20.7-1.8c11.3,0,18.6,2,24.1,6.4c4.6,3.4,7.3,8.6,7.3,15.5
			c0,8.5-5.6,15.9-14.8,19.2v0.3c8.3,2.1,18.1,9,18.1,22c0,7.5-3,13.3-7.4,17.6c-6.1,5.6-16,8.2-30.3,8.2c-7.8,0-13.8-0.5-17.6-1
			V405.9z M1369.7,441.7h10.3c12,0,19-6.2,19-14.7c0-10.3-7.8-14.3-19.2-14.3c-5.2,0-8.2,0.4-10,0.8V441.7z M1369.7,483.7
			c2.2,0.4,5.5,0.5,9.5,0.5c11.7,0,22.5-4.3,22.5-17c0-12-10.3-16.9-22.6-16.9h-9.4V483.7z"/>
		<path class="st4" d="M1428.5,400h11.4v92.3h-11.4V400z"/>
		<path class="st4" d="M1516.1,460.3c0,23.3-16.1,33.4-31.3,33.4c-17,0-30.2-12.5-30.2-32.4c0-21.1,13.8-33.4,31.2-33.4
			C1503.9,428,1516.1,441.1,1516.1,460.3z M1466.2,461c0,13.8,7.9,24.2,19.1,24.2c10.9,0,19.1-10.3,19.1-24.4
			c0-10.7-5.3-24.2-18.9-24.2C1472,436.5,1466.2,449,1466.2,461z"/>
		<path class="st4" d="M1535.1,429.4l8.3,32c1.8,7,3.5,13.5,4.7,20h0.4c1.4-6.4,3.5-13.1,5.6-19.9l10.3-32.1h9.6l9.8,31.5
			c2.3,7.5,4.2,14.2,5.6,20.5h0.4c1-6.4,2.7-13,4.8-20.4l9-31.6h11.3l-20.3,62.9h-10.4l-9.6-30c-2.2-7-4-13.3-5.6-20.7h-0.3
			c-1.6,7.5-3.5,14-5.7,20.8l-10.1,29.9h-10.4l-19-62.9H1535.1z"/>
		<path class="st4" d="M1638.9,411.7c0.1,3.9-2.7,7-7.3,7c-4,0-6.9-3.1-6.9-7c0-4,3-7.2,7.2-7.2
			C1636.2,404.6,1638.9,407.7,1638.9,411.7z M1626.2,492.3v-62.9h11.4v62.9H1626.2z"/>
		<path class="st4" d="M1656.6,446.4c0-6.5-0.1-11.8-0.5-17h10.1l0.7,10.4h0.3c3.1-6,10.4-11.8,20.8-11.8c8.7,0,22.2,5.2,22.2,26.8
			v37.6h-11.4V456c0-10.1-3.8-18.6-14.6-18.6c-7.5,0-13.4,5.3-15.3,11.7c-0.5,1.4-0.8,3.4-0.8,5.3v37.8h-11.4V446.4z"/>
		<path class="st4" d="M1783,429.4c-0.3,4.6-0.5,9.6-0.5,17.3v36.5c0,14.4-2.9,23.3-9,28.7c-6.1,5.7-15,7.5-22.9,7.5
			c-7.5,0-15.9-1.8-20.9-5.2l2.9-8.7c4.2,2.6,10.7,4.9,18.5,4.9c11.7,0,20.3-6.1,20.3-22v-7h-0.3c-3.5,5.9-10.3,10.5-20,10.5
			c-15.6,0-26.8-13.3-26.8-30.7c0-21.3,13.9-33.4,28.3-33.4c10.9,0,16.9,5.7,19.6,10.9h0.3l0.5-9.5H1783z M1771.1,454.2
			c0-2-0.1-3.6-0.7-5.2c-2.1-6.6-7.7-12.1-16-12.1c-10.9,0-18.7,9.2-18.7,23.8c0,12.4,6.2,22.6,18.6,22.6c7,0,13.4-4.4,15.9-11.7
			c0.7-2,0.9-4.2,0.9-6.1V454.2z"/>
	</g>
	<g class="st1">
		<path class="st4" d="M908.7,622.3v-37.2L881,534.7h12.9l12.4,24.2c3.4,6.6,6,12,8.7,18.1h0.3c2.5-5.7,5.5-11.4,8.8-18.1l12.6-24.2
			h12.9L920.2,585v37.3H908.7z"/>
		<path class="st4" d="M1016.1,590.3c0,23.3-16.1,33.4-31.3,33.4c-17,0-30.2-12.5-30.2-32.4c0-21.1,13.8-33.4,31.2-33.4
			C1003.9,558,1016.1,571.1,1016.1,590.3z M966.2,591c0,13.8,7.9,24.2,19.1,24.2c10.9,0,19.1-10.3,19.1-24.4
			c0-10.7-5.3-24.2-18.9-24.2S966.2,579,966.2,591z"/>
		<path class="st4" d="M1083.2,605.2c0,6.5,0.1,12.2,0.5,17.2h-10.1l-0.6-10.3h-0.3c-3,5.1-9.6,11.7-20.8,11.7
			c-9.9,0-21.7-5.5-21.7-27.6v-36.8h11.4v34.8c0,12,3.6,20,14,20c7.7,0,13-5.3,15.1-10.4c0.7-1.7,1-3.8,1-5.9v-38.6h11.4V605.2z"/>
		<path class="st4" d="M1102.2,579c0-7.4-0.1-13.8-0.5-19.6h10l0.4,12.4h0.5c2.9-8.5,9.8-13.8,17.4-13.8c1.3,0,2.2,0.1,3.3,0.4v10.8
			c-1.2-0.3-2.3-0.4-3.9-0.4c-8.1,0-13.8,6.1-15.3,14.7c-0.3,1.6-0.5,3.4-0.5,5.3v33.5h-11.3V579z"/>
		<path class="st4" d="M1172.6,535.9c4.9-1,12.7-1.8,20.7-1.8c11.3,0,18.6,2,24.1,6.4c4.6,3.4,7.3,8.6,7.3,15.5
			c0,8.5-5.6,15.9-14.8,19.2v0.3c8.3,2.1,18.1,9,18.1,22c0,7.5-3,13.3-7.4,17.6c-6.1,5.6-16,8.2-30.3,8.2c-7.8,0-13.8-0.5-17.6-1
			V535.9z M1183.9,571.7h10.3c12,0,19-6.2,19-14.7c0-10.3-7.8-14.3-19.2-14.3c-5.2,0-8.2,0.4-10,0.8V571.7z M1183.9,613.7
			c2.2,0.4,5.5,0.5,9.5,0.5c11.7,0,22.5-4.3,22.5-17c0-12-10.3-16.9-22.6-16.9h-9.4V613.7z"/>
		<path class="st4" d="M1295.3,605.2c0,6.5,0.1,12.2,0.5,17.2h-10.1l-0.6-10.3h-0.3c-3,5.1-9.6,11.7-20.8,11.7
			c-9.9,0-21.7-5.5-21.7-27.6v-36.8h11.4v34.8c0,12,3.6,20,14,20c7.7,0,13-5.3,15.1-10.4c0.7-1.7,1-3.8,1-5.9v-38.6h11.4V605.2z"/>
		<path class="st4" d="M1368.7,530v76.1c0,5.6,0.1,12,0.5,16.3h-10.3l-0.5-10.9h-0.3c-3.5,7-11.2,12.4-21.5,12.4
			c-15.2,0-26.9-12.9-26.9-32c-0.1-20.9,12.9-33.8,28.2-33.8c9.6,0,16.1,4.6,19,9.6h0.3V530H1368.7z M1357.2,585
			c0-1.4-0.1-3.4-0.5-4.8c-1.7-7.3-7.9-13.3-16.5-13.3c-11.8,0-18.9,10.4-18.9,24.3c0,12.7,6.2,23.3,18.6,23.3
			c7.7,0,14.7-5.1,16.8-13.7c0.4-1.6,0.5-3.1,0.5-4.9V585z"/>
		<path class="st4" d="M1441.9,559.4c-0.3,4.6-0.5,9.6-0.5,17.3v36.5c0,14.4-2.9,23.3-9,28.7c-6.1,5.7-15,7.5-22.9,7.5
			c-7.5,0-15.9-1.8-20.9-5.2l2.9-8.7c4.2,2.6,10.7,4.9,18.5,4.9c11.7,0,20.3-6.1,20.3-22v-7h-0.3c-3.5,5.9-10.3,10.5-20,10.5
			c-15.6,0-26.8-13.3-26.8-30.7c0-21.3,13.9-33.4,28.3-33.4c10.9,0,16.9,5.7,19.6,10.9h0.3l0.5-9.5H1441.9z M1430,584.2
			c0-2-0.1-3.6-0.7-5.2c-2.1-6.6-7.7-12.1-16-12.1c-10.9,0-18.7,9.2-18.7,23.8c0,12.4,6.2,22.6,18.6,22.6c7,0,13.4-4.4,15.9-11.7
			c0.7-2,0.9-4.2,0.9-6.1V584.2z"/>
		<path class="st4" d="M1466.7,592.9c0.3,15.5,10.1,21.8,21.6,21.8c8.2,0,13.1-1.4,17.4-3.3l2,8.2c-4,1.8-10.9,3.9-20.9,3.9
			c-19.4,0-30.9-12.7-30.9-31.7c0-19,11.2-33.9,29.5-33.9c20.5,0,26,18.1,26,29.6c0,2.3-0.3,4.2-0.4,5.3H1466.7z M1500.2,584.7
			c0.1-7.3-3-18.6-15.9-18.6c-11.6,0-16.6,10.7-17.6,18.6H1500.2z"/>
		<path class="st4" d="M1539.2,541.3v18.1h16.4v8.7h-16.4V602c0,7.8,2.2,12.2,8.6,12.2c3,0,5.2-0.4,6.6-0.8l0.5,8.6
			c-2.2,0.9-5.7,1.6-10.1,1.6c-5.3,0-9.6-1.7-12.4-4.8c-3.3-3.4-4.4-9-4.4-16.4v-34.3h-9.8v-8.7h9.8v-15.1L1539.2,541.3z"/>
	</g>
	<g class="st1">
		<defs>
			<rect id="SVGID_5_" y="0" width="2819.3" height="1359.4"/>
		</defs>
		<clipPath id="SVGID_6_">
			<use xlink:href="#SVGID_5_"  style="overflow:visible;"/>
		</clipPath>
		<rect x="2118.1" y="941.8" class="st5" width="173" height="37.3"/>
		<rect x="2245.9" y="941.8" class="st6" width="45.2" height="37.3"/>
		<rect x="2118.1" y="941.8" class="st7" width="47.3" height="37.3"/>
		<g class="st8">
			<g>
				<defs>
					<rect id="SVGID_7_" x="2118.1" y="941.8" width="173" height="5.8"/>
				</defs>
				<clipPath id="SVGID_8_">
					<use xlink:href="#SVGID_7_"  style="overflow:visible;"/>
				</clipPath>
				<rect x="2118.1" y="941.8" class="st9" width="173" height="5.8"/>
			</g>
		</g>
		<g class="st8">
			<g>
				<defs>
					<rect id="SVGID_9_" x="2118.1" y="973.8" width="173" height="5.2"/>
				</defs>
				<clipPath id="SVGID_10_">
					<use xlink:href="#SVGID_9_"  style="overflow:visible;"/>
				</clipPath>
				<rect x="2118.1" y="973.8" class="st10" width="173" height="5.2"/>
			</g>
		</g>
		<rect x="2102.9" y="904.4" class="st5" width="173" height="37.3"/>
		<rect x="2230.8" y="904.4" class="st6" width="45.2" height="37.3"/>
		<rect x="2102.9" y="904.4" class="st7" width="47.4" height="37.3"/>
		<g class="st8">
			<g>
				<defs>
					<rect id="SVGID_11_" x="2102.9" y="904.4" width="173" height="5.8"/>
				</defs>
				<clipPath id="SVGID_12_">
					<use xlink:href="#SVGID_11_"  style="overflow:visible;"/>
				</clipPath>
				<rect x="2102.9" y="904.4" class="st11" width="173" height="5.8"/>
			</g>
		</g>
		<g class="st8">
			<g>
				<defs>
					<rect id="SVGID_13_" x="2102.9" y="936.4" width="173" height="5.2"/>
				</defs>
				<clipPath id="SVGID_14_">
					<use xlink:href="#SVGID_13_"  style="overflow:visible;"/>
				</clipPath>
				<rect x="2102.9" y="936.4" class="st12" width="173" height="5.2"/>
			</g>
		</g>
		<rect x="2115.5" y="866.9" class="st5" width="173" height="37.3"/>
		<rect x="2243.3" y="866.9" class="st6" width="45.2" height="37.3"/>
		<rect x="2115.5" y="866.9" class="st7" width="47.4" height="37.3"/>
		<g class="st8">
			<g>
				<defs>
					<rect id="SVGID_15_" x="2115.5" y="866.9" width="173" height="5.8"/>
				</defs>
				<clipPath id="SVGID_16_">
					<use xlink:href="#SVGID_15_"  style="overflow:visible;"/>
				</clipPath>
				<rect x="2115.5" y="866.9" class="st13" width="173" height="5.8"/>
			</g>
		</g>
		<g class="st8">
			<g>
				<defs>
					<rect id="SVGID_17_" x="2115.5" y="899" width="173" height="5.2"/>
				</defs>
				<clipPath id="SVGID_18_">
					<use xlink:href="#SVGID_17_"  style="overflow:visible;"/>
				</clipPath>
				<rect x="2115.5" y="899" class="st14" width="173" height="5.2"/>
			</g>
		</g>
		<rect x="2121.3" y="829.5" class="st5" width="173" height="37.3"/>
		<rect x="2249.2" y="829.5" class="st6" width="45.2" height="37.3"/>
		<rect x="2121.3" y="829.5" class="st7" width="47.3" height="37.3"/>
		<g class="st8">
			<g>
				<defs>
					<rect id="SVGID_19_" x="2121.3" y="829.5" width="173" height="5.8"/>
				</defs>
				<clipPath id="SVGID_20_">
					<use xlink:href="#SVGID_19_"  style="overflow:visible;"/>
				</clipPath>
				<rect x="2121.3" y="829.5" class="st15" width="173" height="5.8"/>
			</g>
		</g>
		<g class="st8">
			<g>
				<defs>
					<rect id="SVGID_21_" x="2121.3" y="861.5" width="173" height="5.2"/>
				</defs>
				<clipPath id="SVGID_22_">
					<use xlink:href="#SVGID_21_"  style="overflow:visible;"/>
				</clipPath>
				<rect x="2121.3" y="861.5" class="st16" width="173" height="5.2"/>
			</g>
		</g>
		<rect x="2098" y="792.1" class="st5" width="173" height="37.3"/>
		<rect x="2225.9" y="792.1" class="st6" width="45.2" height="37.3"/>
		<rect x="2098" y="792.1" class="st7" width="47.4" height="37.3"/>
		<g class="st8">
			<g>
				<defs>
					<rect id="SVGID_23_" x="2098" y="792.1" width="173" height="5.8"/>
				</defs>
				<clipPath id="SVGID_24_">
					<use xlink:href="#SVGID_23_"  style="overflow:visible;"/>
				</clipPath>
				<rect x="2098" y="792.1" class="st17" width="173" height="5.8"/>
			</g>
		</g>
		<g class="st8">
			<g>
				<defs>
					<rect id="SVGID_25_" x="2098" y="824.1" width="173" height="5.2"/>
				</defs>
				<clipPath id="SVGID_26_">
					<use xlink:href="#SVGID_25_"  style="overflow:visible;"/>
				</clipPath>
				<rect x="2098" y="824.1" class="st18" width="173" height="5.2"/>
			</g>
		</g>
		<rect x="2129.1" y="755.4" class="st5" width="173" height="37.3"/>
		<rect x="2257" y="755.4" class="st6" width="45.2" height="37.3"/>
		<rect x="2129.1" y="755.4" class="st7" width="47.3" height="37.3"/>
		<g class="st8">
			<g>
				<defs>
					<rect id="SVGID_27_" x="2129.1" y="755.4" width="173" height="5.8"/>
				</defs>
				<clipPath id="SVGID_28_">
					<use xlink:href="#SVGID_27_"  style="overflow:visible;"/>
				</clipPath>
				<rect x="2129.1" y="755.4" class="st19" width="173" height="5.8"/>
			</g>
		</g>
		<g class="st8">
			<g>
				<defs>
					<rect id="SVGID_29_" x="2129.1" y="787.5" width="173" height="5.2"/>
				</defs>
				<clipPath id="SVGID_30_">
					<use xlink:href="#SVGID_29_"  style="overflow:visible;"/>
				</clipPath>
				<rect x="2129.1" y="787.5" class="st20" width="173" height="5.2"/>
			</g>
		</g>
		<rect x="2114" y="718" class="st5" width="173" height="37.3"/>
		<rect x="2241.9" y="718" class="st6" width="45.2" height="37.3"/>
		<rect x="2114" y="718" class="st7" width="47.4" height="37.3"/>
		<g class="st8">
			<g>
				<defs>
					<rect id="SVGID_31_" x="2114" y="718" width="173" height="5.8"/>
				</defs>
				<clipPath id="SVGID_32_">
					<use xlink:href="#SVGID_31_"  style="overflow:visible;"/>
				</clipPath>
				<rect x="2114" y="718" class="st21" width="173" height="5.8"/>
			</g>
		</g>
		<g class="st8">
			<g>
				<defs>
					<rect id="SVGID_33_" x="2114" y="750" width="173" height="5.2"/>
				</defs>
				<clipPath id="SVGID_34_">
					<use xlink:href="#SVGID_33_"  style="overflow:visible;"/>
				</clipPath>
				<rect x="2114" y="750" class="st22" width="173" height="5.2"/>
			</g>
		</g>
		<rect x="2126.5" y="680.6" class="st5" width="173" height="37.3"/>
		<rect x="2254.4" y="680.6" class="st6" width="45.2" height="37.3"/>
		<rect x="2126.5" y="680.6" class="st7" width="47.4" height="37.3"/>
		<g class="st8">
			<g>
				<defs>
					<rect id="SVGID_35_" x="2126.5" y="680.6" width="173.1" height="5.8"/>
				</defs>
				<clipPath id="SVGID_36_">
					<use xlink:href="#SVGID_35_"  style="overflow:visible;"/>
				</clipPath>
				<rect x="2126.5" y="680.6" class="st23" width="173" height="5.8"/>
			</g>
		</g>
		<g class="st8">
			<g>
				<defs>
					<rect id="SVGID_37_" x="2126.5" y="712.6" width="173.1" height="5.2"/>
				</defs>
				<clipPath id="SVGID_38_">
					<use xlink:href="#SVGID_37_"  style="overflow:visible;"/>
				</clipPath>
				<rect x="2126.5" y="712.6" class="st24" width="173" height="5.2"/>
			</g>
		</g>
		<rect x="2132.4" y="643.1" class="st5" width="173" height="37.3"/>
		<rect x="2260.2" y="643.1" class="st6" width="45.2" height="37.3"/>
		<rect x="2132.4" y="643.1" class="st7" width="47.3" height="37.3"/>
		<g class="st8">
			<g>
				<defs>
					<rect id="SVGID_39_" x="2132.4" y="643.1" width="173" height="5.8"/>
				</defs>
				<clipPath id="SVGID_40_">
					<use xlink:href="#SVGID_39_"  style="overflow:visible;"/>
				</clipPath>
				<rect x="2132.4" y="643.1" class="st25" width="173" height="5.8"/>
			</g>
		</g>
		<g class="st8">
			<g>
				<defs>
					<rect id="SVGID_41_" x="2132.4" y="675.2" width="173" height="5.2"/>
				</defs>
				<clipPath id="SVGID_42_">
					<use xlink:href="#SVGID_41_"  style="overflow:visible;"/>
				</clipPath>
				<rect x="2132.4" y="675.2" class="st26" width="173" height="5.2"/>
			</g>
		</g>
		<rect x="2109.1" y="605.7" class="st5" width="173" height="37.3"/>
		<rect x="2237" y="605.7" class="st6" width="45.2" height="37.3"/>
		<rect x="2109.1" y="605.7" class="st7" width="47.4" height="37.3"/>
		<g class="st8">
			<g>
				<defs>
					<rect id="SVGID_43_" x="2109.1" y="605.7" width="173" height="5.8"/>
				</defs>
				<clipPath id="SVGID_44_">
					<use xlink:href="#SVGID_43_"  style="overflow:visible;"/>
				</clipPath>
				<rect x="2109.1" y="605.7" class="st27" width="173" height="5.8"/>
			</g>
		</g>
		<g class="st8">
			<g>
				<defs>
					<rect id="SVGID_45_" x="2109.1" y="637.7" width="173" height="5.2"/>
				</defs>
				<clipPath id="SVGID_46_">
					<use xlink:href="#SVGID_45_"  style="overflow:visible;"/>
				</clipPath>
				<rect x="2109.1" y="637.7" class="st28" width="173" height="5.2"/>
			</g>
		</g>
		<g class="st29">
			<g>
				<defs>
					<rect id="SVGID_47_" x="2138.4" y="612.4" width="42.3" height="373.4"/>
				</defs>
				<clipPath id="SVGID_48_">
					<use xlink:href="#SVGID_47_"  style="overflow:visible;"/>
				</clipPath>
				<path class="st30" d="M2142.5,985.8h35.3v-37.3h-35.3V985.8z M2139.4,948.3h35.3v-37.3h-35.3V948.3z M2177.2,873.6h-35.3v37.3
					h35.3V873.6z M2143.1,873.5h35.3v-37.3h-35.3V873.5z M2144.7,798.7h-6.3V836h35.3v-36.6h6.3v-37.3h-35.3V798.7z M2141.6,761.9
					h35.3v-37.3h-35.3V761.9z M2179.5,687.2h-35.3v37.3h35.3V687.2z M2145.4,687.1h35.3v-37.3h-35.3V687.1z M2175.9,612.4h-35.3
					v37.3h35.3V612.4z"/>
			</g>
		</g>
		<g class="st29">
			<g>
				<defs>
					<rect id="SVGID_49_" x="2150.3" y="612.4" width="18.4" height="373.4"/>
				</defs>
				<clipPath id="SVGID_50_">
					<use xlink:href="#SVGID_49_"  style="overflow:visible;"/>
				</clipPath>
				<path class="st31" d="M2152.1,985.8h15.3v-37.3h-15.3V985.8z M2150.8,948.3h15.3v-37.3h-15.3V948.3z M2167.2,873.6h-15.3v37.3
					h15.3V873.6z M2152.4,873.5h15.3v-37.3h-15.3V873.5z M2153.1,798.7h-2.8V836h15.3v-36.6h2.8v-37.3h-15.3V798.7z M2151.7,761.9
					h15.3v-37.3h-15.3V761.9z M2168.2,687.2h-15.3v37.3h15.3V687.2z M2153.4,687.1h15.3v-37.3h-15.3V687.1z M2166.6,612.4h-15.3
					v37.3h15.3V612.4z"/>
			</g>
		</g>
		
			<rect x="2022.5" y="810.2" transform="matrix(0.5617 -0.8273 0.8273 0.5617 236.8274 2312.262)" class="st32" width="556.4" height="244.9"/>
		<path class="st33" d="M2520.7,788.7l-272.6,401.5c-4.3,6.4-13,8.1-19.4,3.7l-144.2-97.9c-6.4-4.3-8.1-13-3.7-19.4L2353.3,675
			c4.3-6.4,13-8.1,19.4-3.7l144.2,97.9C2523.4,773.6,2525.1,782.3,2520.7,788.7"/>
		<path class="st32" d="M2351.5,857.8c41.3,28.1,52.1,84.3,24,125.6c-28.1,41.3-84.3,52.1-125.6,24c-41.3-28.1-52.1-84.3-24-125.6
			C2253.9,840.5,2310.2,829.7,2351.5,857.8"/>
		<path class="st34" d="M2344.9,953.2l12.5,8.5l-7.5,11.1l-12.1-8.2c-8.1,10.6-18.8,18.8-27.7,21.7l-9.4-15.3
			c7.9-2.8,16.3-8.7,22.5-16.2l-18.6-12.6c-11.4,10.3-24.9,21.3-40.8,10.5c-11.8-8-16.1-23.4-6.2-42.4l-12.4-8.4l7.6-11.1l12.1,8.2
			c6.3-7.9,14.1-14.5,22.1-18l9.9,14.9c-7.1,3.5-12.9,8-17.3,13.1l18.9,12.8c11.3-10.4,24.6-21.2,40.3-10.5
			C2350.4,919.1,2354.6,934.3,2344.9,953.2 M2288.2,930.9l-15.8-10.7c-2.7,6.8-1,11.3,2.6,13.8
			C2278.9,936.7,2283.3,934.8,2288.2,930.9 M2328,930c-3.9-2.6-8.2-0.9-13.1,2.8l15.3,10.4C2332.8,936.8,2331.5,932.4,2328,930"/>
		<path class="st32" d="M2192.7,1126.1l47.9-70.6l-32-21.7l-47.9,70.6L2192.7,1126.1z M2360.8,809.7l32,21.7l47.9-70.6l-32-21.7
			L2360.8,809.7z"/>
		
			<rect x="2202.8" y="762.7" transform="matrix(0.7343 -0.6788 0.6788 0.7343 58.38 1919.411)" class="st32" width="556.4" height="244.9"/>
		<path class="st33" d="M2727.9,794.7l-356.4,329.5c-5.7,5.2-14.5,4.9-19.8-0.8l-118.3-128c-5.2-5.7-4.9-14.5,0.8-19.8l356.4-329.5
			c5.7-5.2,14.5-4.9,19.8,0.8l118.3,128C2733.9,780.6,2733.5,789.4,2727.9,794.7"/>
		<path class="st32" d="M2547.4,823.7c33.9,36.7,31.7,93.9-5,127.8c-36.7,33.9-93.9,31.7-127.8-5c-33.9-36.7-31.7-93.9,5-127.8
			C2456.3,784.8,2513.5,787.1,2547.4,823.7"/>
		<path class="st34" d="M2519.4,915.2l10.2,11.1l-9.9,9.1l-9.9-10.8c-10.3,8.4-22.5,14.1-31.9,14.8l-5.7-17.1
			c8.3-0.9,17.9-4.8,25.6-10.7l-15.2-16.5c-13.4,7.5-29,15.1-42.1,1c-9.7-10.5-10.4-26.5,3.6-42.7l-10.1-11l9.9-9.1l9.9,10.8
			c8-6.2,17-10.9,25.6-12.5l6.3,16.7c-7.7,1.8-14.4,4.9-19.8,8.8l15.5,16.8c13.3-7.6,28.8-15,41.6-1.1
			C2532.4,883.2,2533.2,899,2519.4,915.2 M2469.2,880.7l-13-14c-4.1,6-3.6,10.8-0.6,14.1C2458.9,884.2,2463.6,883.3,2469.2,880.7
			 M2508.2,888.8c-3.2-3.5-7.8-2.7-13.4-0.2l12.6,13.6C2511.3,896.5,2511.1,891.9,2508.2,888.8"/>
		<path class="st32" d="M2332,1049.2l62.6-57.9l-26.3-28.4l-62.6,57.9L2332,1049.2z M2567.3,779l26.3,28.4l62.6-57.9l-26.3-28.4
			L2567.3,779z"/>
		
			<rect x="2237.2" y="901.8" transform="matrix(0.9051 -0.4252 0.4252 0.9051 -196.8146 1166.7914)" class="st32" width="556.4" height="244.9"/>
		<path class="st33" d="M2778.1,1012.7L2338.8,1219c-7,3.3-15.3,0.3-18.6-6.7l-74.1-157.8c-3.3-7-0.3-15.3,6.7-18.6l439.3-206.4
			c7-3.3,15.3-0.3,18.6,6.7l74.1,157.8C2788.1,1001.1,2785.1,1009.4,2778.1,1012.7"/>
		<path class="st32" d="M2597.3,985.8c21.2,45.2,1.8,99.1-43.4,120.3c-45.2,21.2-99.1,1.8-120.3-43.4
			c-21.2-45.2-1.8-99.1,43.4-120.3C2522.2,921.2,2576.1,940.6,2597.3,985.8"/>
		<path class="st34" d="M2543,1064.5l6.4,13.6l-12.2,5.7l-6.2-13.3c-12.4,4.9-25.7,6.6-34.9,4.5l-0.3-18c8.2,1.7,18.5,0.8,27.7-2.5
			l-9.5-20.3c-15,3.1-32.2,5.6-40.4-11.8c-6.1-12.9-1.9-28.4,16.3-39.6l-6.3-13.5l12.2-5.7l6.2,13.3c9.5-3.6,19.5-5.3,28.2-4.2
			l0.9,17.8c-7.9-0.6-15.2,0.3-21.6,2.4l9.7,20.7c15-3.2,32-5.7,40,11.5C2565.1,1038,2561,1053.3,2543,1064.5 M2505.5,1016.5
			l-8.1-17.3c-5.8,4.5-6.7,9.2-4.8,13.2C2494.6,1016.7,2499.4,1017.3,2505.5,1016.5 M2540.2,1036c-2-4.3-6.6-4.9-12.7-4.3l7.9,16.8
			C2540.9,1044.3,2542.1,1039.9,2540.2,1036"/>
		<path class="st32" d="M2323.9,1135.7l77.2-36.3l-16.5-35l-77.2,36.3L2323.9,1135.7z M2629.8,949.2l16.5,35l77.2-36.3l-16.5-35
			L2629.8,949.2z"/>
		<rect x="2226.6" y="1085.5" class="st32" width="556.4" height="244.9"/>
		<path class="st33" d="M2747.5,1309.2h-485.3c-7.7,0-14-6.3-14-14v-174.3c0-7.7,6.3-14,14-14h485.3c7.7,0,14,6.3,14,14v174.3
			C2761.5,1302.9,2755.2,1309.2,2747.5,1309.2"/>
		<path class="st32" d="M2595.2,1208c0,49.9-40.5,90.4-90.4,90.4c-49.9,0-90.4-40.5-90.4-90.4s40.5-90.4,90.4-90.4
			C2554.7,1117.6,2595.2,1158,2595.2,1208"/>
		<path class="st34" d="M2512.6,1256.1v15.1h-13.4v-14.7c-13.3-0.8-26.1-5-33.5-10.7l7.4-16.4c6.7,5,16.4,8.6,26.1,9.5v-22.4
			c-14.9-3.6-31.6-8.6-31.6-27.8c0-14.3,10.3-26.5,31.6-28.9v-14.9h13.4v14.7c10.1,0.8,19.9,3.5,27.3,8.2l-6.7,16.5
			c-6.9-3.9-13.8-6.2-20.6-7v22.9c14.9,3.5,31.3,8.5,31.3,27.4C2543.9,1241.5,2533.7,1253.6,2512.6,1256.1 M2499.1,1196.7v-19.1
			c-7.1,1.6-9.9,5.5-9.9,9.9C2489.2,1192.3,2493.2,1194.8,2499.1,1196.7 M2522.3,1229.1c0-4.7-3.9-7.3-9.7-9.3v18.6
			C2519.3,1236.9,2522.3,1233.4,2522.3,1229.1"/>
		<path class="st32" d="M2284,1227.3h85.3v-38.7H2284V1227.3z M2640.2,1227.3h85.3v-38.7h-85.3V1227.3z"/>
		<rect x="1839.9" y="1226.9" class="st5" width="173" height="37.3"/>
		<rect x="1967.8" y="1226.9" class="st6" width="45.2" height="37.3"/>
		<rect x="1839.9" y="1226.9" class="st7" width="47.3" height="37.3"/>
		<g class="st8">
			<g>
				<defs>
					<rect id="SVGID_51_" x="1839.9" y="1226.9" width="173" height="5.8"/>
				</defs>
				<clipPath id="SVGID_52_">
					<use xlink:href="#SVGID_51_"  style="overflow:visible;"/>
				</clipPath>
				<rect x="1839.9" y="1226.9" class="st35" width="173" height="5.8"/>
			</g>
		</g>
		<g class="st8">
			<g>
				<defs>
					<rect id="SVGID_53_" x="1839.9" y="1258.9" width="173" height="5.2"/>
				</defs>
				<clipPath id="SVGID_54_">
					<use xlink:href="#SVGID_53_"  style="overflow:visible;"/>
				</clipPath>
				<rect x="1839.9" y="1258.9" class="st36" width="173" height="5.2"/>
			</g>
		</g>
		<rect x="1839.9" y="1189.5" class="st5" width="173" height="37.3"/>
		<rect x="1967.8" y="1189.5" class="st6" width="45.2" height="37.3"/>
		<rect x="1839.9" y="1189.5" class="st7" width="47.3" height="37.3"/>
		<g class="st8">
			<g>
				<defs>
					<rect id="SVGID_55_" x="1839.9" y="1189.5" width="173" height="5.8"/>
				</defs>
				<clipPath id="SVGID_56_">
					<use xlink:href="#SVGID_55_"  style="overflow:visible;"/>
				</clipPath>
				<rect x="1839.9" y="1189.5" class="st37" width="173" height="5.8"/>
			</g>
		</g>
		<g class="st8">
			<g>
				<defs>
					<rect id="SVGID_57_" x="1839.9" y="1221.5" width="173" height="5.2"/>
				</defs>
				<clipPath id="SVGID_58_">
					<use xlink:href="#SVGID_57_"  style="overflow:visible;"/>
				</clipPath>
				<rect x="1839.9" y="1221.5" class="st38" width="173" height="5.2"/>
			</g>
		</g>
		<rect x="1825.7" y="1152.1" class="st5" width="173" height="37.3"/>
		<rect x="1953.6" y="1152.1" class="st6" width="45.2" height="37.3"/>
		<rect x="1825.7" y="1152.1" class="st7" width="47.3" height="37.3"/>
		<g class="st8">
			<g>
				<defs>
					<rect id="SVGID_59_" x="1825.7" y="1152.1" width="173" height="5.8"/>
				</defs>
				<clipPath id="SVGID_60_">
					<use xlink:href="#SVGID_59_"  style="overflow:visible;"/>
				</clipPath>
				<rect x="1825.7" y="1152.1" class="st39" width="173" height="5.8"/>
			</g>
		</g>
		<g class="st8">
			<g>
				<defs>
					<rect id="SVGID_61_" x="1825.7" y="1184.1" width="173" height="5.2"/>
				</defs>
				<clipPath id="SVGID_62_">
					<use xlink:href="#SVGID_61_"  style="overflow:visible;"/>
				</clipPath>
				<rect x="1825.7" y="1184.1" class="st40" width="173" height="5.2"/>
			</g>
		</g>
		<rect x="1839.9" y="1114.7" class="st5" width="173" height="37.3"/>
		<rect x="1967.8" y="1114.7" class="st6" width="45.2" height="37.3"/>
		<rect x="1839.9" y="1114.7" class="st7" width="47.3" height="37.3"/>
		<g class="st8">
			<g>
				<defs>
					<rect id="SVGID_63_" x="1839.9" y="1114.7" width="173" height="5.8"/>
				</defs>
				<clipPath id="SVGID_64_">
					<use xlink:href="#SVGID_63_"  style="overflow:visible;"/>
				</clipPath>
				<rect x="1839.9" y="1114.7" class="st41" width="173" height="5.8"/>
			</g>
		</g>
		<g class="st8">
			<g>
				<defs>
					<rect id="SVGID_65_" x="1839.9" y="1146.7" width="173" height="5.2"/>
				</defs>
				<clipPath id="SVGID_66_">
					<use xlink:href="#SVGID_65_"  style="overflow:visible;"/>
				</clipPath>
				<rect x="1839.9" y="1146.7" class="st42" width="173" height="5.2"/>
			</g>
		</g>
		<rect x="1854.1" y="1077.3" class="st5" width="173" height="37.3"/>
		<rect x="1982" y="1077.3" class="st6" width="45.2" height="37.3"/>
		<rect x="1854.1" y="1077.3" class="st7" width="47.3" height="37.3"/>
		<g class="st8">
			<g>
				<defs>
					<rect id="SVGID_67_" x="1854.2" y="1077.3" width="173" height="5.8"/>
				</defs>
				<clipPath id="SVGID_68_">
					<use xlink:href="#SVGID_67_"  style="overflow:visible;"/>
				</clipPath>
				<rect x="1854.1" y="1077.3" class="st43" width="173" height="5.8"/>
			</g>
		</g>
		<g class="st8">
			<g>
				<defs>
					<rect id="SVGID_69_" x="1854.2" y="1109.3" width="173" height="5.2"/>
				</defs>
				<clipPath id="SVGID_70_">
					<use xlink:href="#SVGID_69_"  style="overflow:visible;"/>
				</clipPath>
				<rect x="1854.1" y="1109.3" class="st44" width="173" height="5.2"/>
			</g>
		</g>
		<rect x="1844.7" y="1039.9" class="st5" width="173" height="37.3"/>
		<rect x="1972.6" y="1039.9" class="st6" width="45.2" height="37.3"/>
		<rect x="1844.7" y="1039.9" class="st7" width="47.3" height="37.3"/>
		<g class="st8">
			<g>
				<defs>
					<rect id="SVGID_71_" x="1844.7" y="1039.9" width="173" height="5.8"/>
				</defs>
				<clipPath id="SVGID_72_">
					<use xlink:href="#SVGID_71_"  style="overflow:visible;"/>
				</clipPath>
				<rect x="1844.7" y="1039.9" class="st45" width="173" height="5.8"/>
			</g>
		</g>
		<g class="st8">
			<g>
				<defs>
					<rect id="SVGID_73_" x="1844.7" y="1071.9" width="173" height="5.2"/>
				</defs>
				<clipPath id="SVGID_74_">
					<use xlink:href="#SVGID_73_"  style="overflow:visible;"/>
				</clipPath>
				<rect x="1844.7" y="1071.9" class="st46" width="173" height="5.2"/>
			</g>
		</g>
		<rect x="1825.7" y="1002.4" class="st5" width="173" height="37.3"/>
		<rect x="1953.6" y="1002.4" class="st6" width="45.2" height="37.3"/>
		<rect x="1825.7" y="1002.4" class="st7" width="47.3" height="37.3"/>
		<g class="st8">
			<g>
				<defs>
					<rect id="SVGID_75_" x="1825.7" y="1002.4" width="173" height="5.8"/>
				</defs>
				<clipPath id="SVGID_76_">
					<use xlink:href="#SVGID_75_"  style="overflow:visible;"/>
				</clipPath>
				<rect x="1825.7" y="1002.4" class="st47" width="173" height="5.8"/>
			</g>
		</g>
		<g class="st8">
			<g>
				<defs>
					<rect id="SVGID_77_" x="1825.7" y="1034.5" width="173" height="5.2"/>
				</defs>
				<clipPath id="SVGID_78_">
					<use xlink:href="#SVGID_77_"  style="overflow:visible;"/>
				</clipPath>
				<rect x="1825.7" y="1034.5" class="st48" width="173" height="5.2"/>
			</g>
		</g>
		<rect x="1839.9" y="965" class="st5" width="173" height="37.3"/>
		<rect x="1967.8" y="965" class="st6" width="45.2" height="37.3"/>
		<rect x="1839.9" y="965" class="st7" width="47.3" height="37.3"/>
		<g class="st8">
			<g>
				<defs>
					<rect id="SVGID_79_" x="1839.9" y="965" width="173" height="5.8"/>
				</defs>
				<clipPath id="SVGID_80_">
					<use xlink:href="#SVGID_79_"  style="overflow:visible;"/>
				</clipPath>
				<rect x="1839.9" y="965" class="st49" width="173" height="5.8"/>
			</g>
		</g>
		<g class="st8">
			<g>
				<defs>
					<rect id="SVGID_81_" x="1839.9" y="997.1" width="173" height="5.2"/>
				</defs>
				<clipPath id="SVGID_82_">
					<use xlink:href="#SVGID_81_"  style="overflow:visible;"/>
				</clipPath>
				<rect x="1839.9" y="997.1" class="st50" width="173" height="5.2"/>
			</g>
		</g>
		<rect x="1849.4" y="927.6" class="st5" width="173" height="37.3"/>
		<rect x="1977.3" y="927.6" class="st6" width="45.2" height="37.3"/>
		<rect x="1849.4" y="927.6" class="st7" width="47.3" height="37.3"/>
		<g class="st8">
			<g>
				<defs>
					<rect id="SVGID_83_" x="1849.4" y="927.6" width="173" height="5.8"/>
				</defs>
				<clipPath id="SVGID_84_">
					<use xlink:href="#SVGID_83_"  style="overflow:visible;"/>
				</clipPath>
				<rect x="1849.4" y="927.6" class="st51" width="173" height="5.8"/>
			</g>
		</g>
		<g class="st8">
			<g>
				<defs>
					<rect id="SVGID_85_" x="1849.4" y="959.7" width="173" height="5.2"/>
				</defs>
				<clipPath id="SVGID_86_">
					<use xlink:href="#SVGID_85_"  style="overflow:visible;"/>
				</clipPath>
				<rect x="1849.4" y="959.7" class="st52" width="173" height="5.2"/>
			</g>
		</g>
		<rect x="1835.2" y="890.2" class="st5" width="173" height="37.3"/>
		<rect x="1963.1" y="890.2" class="st6" width="45.2" height="37.3"/>
		<rect x="1835.2" y="890.2" class="st7" width="47.3" height="37.3"/>
		<g class="st8">
			<g>
				<defs>
					<rect id="SVGID_87_" x="1835.2" y="890.2" width="173.1" height="5.8"/>
				</defs>
				<clipPath id="SVGID_88_">
					<use xlink:href="#SVGID_87_"  style="overflow:visible;"/>
				</clipPath>
				<rect x="1835.2" y="890.2" class="st53" width="173" height="5.8"/>
			</g>
		</g>
		<g class="st8">
			<g>
				<defs>
					<rect id="SVGID_89_" x="1835.2" y="922.3" width="173.1" height="5.2"/>
				</defs>
				<clipPath id="SVGID_90_">
					<use xlink:href="#SVGID_89_"  style="overflow:visible;"/>
				</clipPath>
				<rect x="1835.2" y="922.3" class="st54" width="173" height="5.2"/>
			</g>
		</g>
		<rect x="1849.4" y="852.8" class="st5" width="173" height="37.3"/>
		<rect x="1977.3" y="852.8" class="st6" width="45.2" height="37.3"/>
		<rect x="1849.4" y="852.8" class="st7" width="47.3" height="37.3"/>
		<g class="st8">
			<g>
				<defs>
					<rect id="SVGID_91_" x="1849.4" y="852.8" width="173" height="5.8"/>
				</defs>
				<clipPath id="SVGID_92_">
					<use xlink:href="#SVGID_91_"  style="overflow:visible;"/>
				</clipPath>
				<rect x="1849.4" y="852.8" class="st55" width="173" height="5.8"/>
			</g>
		</g>
		<g class="st8">
			<g>
				<defs>
					<rect id="SVGID_93_" x="1849.4" y="884.9" width="173" height="5.2"/>
				</defs>
				<clipPath id="SVGID_94_">
					<use xlink:href="#SVGID_93_"  style="overflow:visible;"/>
				</clipPath>
				<rect x="1849.4" y="884.9" class="st56" width="173" height="5.2"/>
			</g>
		</g>
		<rect x="1839.9" y="815.4" class="st5" width="173" height="37.3"/>
		<rect x="1967.8" y="815.4" class="st6" width="45.2" height="37.3"/>
		<rect x="1839.9" y="815.4" class="st7" width="47.3" height="37.3"/>
		<g class="st8">
			<g>
				<defs>
					<rect id="SVGID_95_" x="1839.9" y="815.4" width="173" height="5.8"/>
				</defs>
				<clipPath id="SVGID_96_">
					<use xlink:href="#SVGID_95_"  style="overflow:visible;"/>
				</clipPath>
				<rect x="1839.9" y="815.4" class="st57" width="173" height="5.8"/>
			</g>
		</g>
		<g class="st8">
			<g>
				<defs>
					<rect id="SVGID_97_" x="1839.9" y="847.4" width="173" height="5.2"/>
				</defs>
				<clipPath id="SVGID_98_">
					<use xlink:href="#SVGID_97_"  style="overflow:visible;"/>
				</clipPath>
				<rect x="1839.9" y="847.4" class="st58" width="173" height="5.2"/>
			</g>
		</g>
		<rect x="1844.7" y="778" class="st5" width="173" height="37.3"/>
		<rect x="1972.6" y="778" class="st6" width="45.2" height="37.3"/>
		<rect x="1844.7" y="778" class="st7" width="47.3" height="37.3"/>
		<g class="st8">
			<g>
				<defs>
					<rect id="SVGID_99_" x="1844.7" y="778" width="173" height="5.8"/>
				</defs>
				<clipPath id="SVGID_100_">
					<use xlink:href="#SVGID_99_"  style="overflow:visible;"/>
				</clipPath>
				<rect x="1844.7" y="778" class="st59" width="173" height="5.8"/>
			</g>
		</g>
		<g class="st8">
			<g>
				<defs>
					<rect id="SVGID_101_" x="1844.7" y="810" width="173" height="5.2"/>
				</defs>
				<clipPath id="SVGID_102_">
					<use xlink:href="#SVGID_101_"  style="overflow:visible;"/>
				</clipPath>
				<rect x="1844.7" y="810" class="st60" width="173" height="5.2"/>
			</g>
		</g>
		<rect x="1835.2" y="740.6" class="st5" width="173" height="37.3"/>
		<rect x="1963.1" y="740.6" class="st6" width="45.2" height="37.3"/>
		<rect x="1835.2" y="740.6" class="st7" width="47.3" height="37.3"/>
		<g class="st8">
			<g>
				<defs>
					<rect id="SVGID_103_" x="1835.2" y="740.6" width="173.1" height="5.8"/>
				</defs>
				<clipPath id="SVGID_104_">
					<use xlink:href="#SVGID_103_"  style="overflow:visible;"/>
				</clipPath>
				<rect x="1835.2" y="740.6" class="st61" width="173" height="5.8"/>
			</g>
		</g>
		<g class="st8">
			<g>
				<defs>
					<rect id="SVGID_105_" x="1835.2" y="772.6" width="173.1" height="5.2"/>
				</defs>
				<clipPath id="SVGID_106_">
					<use xlink:href="#SVGID_105_"  style="overflow:visible;"/>
				</clipPath>
				<rect x="1835.2" y="772.6" class="st62" width="173" height="5.2"/>
			</g>
		</g>
		<g class="st29">
			<g>
				<defs>
					<rect id="SVGID_107_" x="1875.9" y="740.6" width="44.3" height="523.6"/>
				</defs>
				<clipPath id="SVGID_108_">
					<use xlink:href="#SVGID_107_"  style="overflow:visible;"/>
				</clipPath>
				<path class="st63" d="M1879,1264.2h38v-37.3h-38V1264.2z M1879,1226.8h38v-37.3h-38V1226.8z M1913.9,1152.1h-38v37.3h38V1152.1z
					 M1879,1151.9h38v-37.3h-38V1151.9z M1882.1,1114.5h38v-37.3h-38V1114.5z M1880.1,1077.1h38v-37.3h-38V1077.1z M1913.9,1002.4
					h-38v37.3h38V1002.4z M1879,1002.3h38V965h-38V1002.3z M1919.1,927.6h-38v37.3h38V927.6z M1916,890.2h-38v37.3h38V890.2z
					 M1919.1,852.8h-38v37.3h38V852.8z M1917,815.4h-38v37.3h38V815.4z M1880.1,815.3h38V778h-38V815.3z M1916,740.6h-38v37.3h38
					V740.6z"/>
			</g>
		</g>
		<g class="st29">
			<g>
				<defs>
					<rect id="SVGID_109_" x="1892.6" y="738.6" width="15.2" height="523.6"/>
				</defs>
				<clipPath id="SVGID_110_">
					<use xlink:href="#SVGID_109_"  style="overflow:visible;"/>
				</clipPath>
				<path class="st64" d="M1893.7,1262.2h13.1v-37.3h-13.1V1262.2z M1893.7,1224.8h13.1v-37.3h-13.1V1224.8z M1905.7,1150.1h-13.1
					v37.3h13.1V1150.1z M1893.7,1149.9h13.1v-37.3h-13.1V1149.9z M1894.7,1112.5h13.1v-37.3h-13.1V1112.5z M1894,1075.1h13.1v-37.3
					H1894V1075.1z M1905.7,1000.4h-13.1v37.3h13.1V1000.4z M1893.7,1000.3h13.1V963h-13.1V1000.3z M1907.4,925.6h-13.1v37.3h13.1
					V925.6z M1906.4,888.2h-13.1v37.3h13.1V888.2z M1907.4,850.8h-13.1v37.3h13.1V850.8z M1906.7,813.4h-13.1v37.3h13.1V813.4z
					 M1894,813.3h13.1V776H1894V813.3z M1906.4,738.6h-13.1v37.3h13.1V738.6z"/>
			</g>
		</g>
		<g class="st8">
			<g>
				<defs>
					<rect id="SVGID_111_" x="1825.7" y="771" width="131.4" height="437.5"/>
				</defs>
				<clipPath id="SVGID_112_">
					<use xlink:href="#SVGID_111_"  style="overflow:visible;"/>
				</clipPath>
				<path class="st65" d="M1900.7,976.2h15.6l6.6-33.1h-15.6L1900.7,976.2z M1937.7,790.3h-59l2.6-13h-15.6l-6.6,33.1h15.6l2-10.3
					h59l-2,10.3h15.6l6.6-33.1h-15.6L1937.7,790.3z M1928.4,837.2h-59l5.3-26.8h-15.6l-6.6,33.1h34.1v0.1h-34.1l-5.8,29.2v3.9h14.8
					l5.9-29.7h59l-5.9,29.7h15.6l6.6-33.1h-44.5v-0.1h44.5l6.6-33.1h-15.6L1928.4,837.2z M1909.7,931h-59l4.2-21.1h-8.2V943h1.6
					l0.4-2.2h59l-0.4,2.2h15.6l6.6-33.1h-15.6L1909.7,931z M1848.3,943.1h-10v33.1h3.4L1848.3,943.1z M1863.1,1165.7h-24.8v9.6h38.4
					l6.6-33.1h-15.6L1863.1,1165.7z M1941.5,771l-1.2,6h15.6l1.2-6H1941.5z M1854.6,1208.5h15.6l6.6-33.1h-15.6L1854.6,1208.5z
					 M1900.4,978h-59l0.3-1.7h-15.6l-0.4,2.2v30.8h9.5l4.3-21.7h59l-7.4,37.2h-48.5v9.7h46.6l-7.4,37.2h-30.8v3.9h35.1v0.1h-47.7
					v5.7h41.5l-5.4,27.4h10.7v0.1h-10.7l-1.9,9.7h-46.7v9.7h44.8l-2.7,13.6h15.6l19.8-99.4h-4.6v-0.1h4.6l6.6-33.1h-11.8v-0.1h11.8
					l6.6-33.1h-15.6L1900.4,978z M1882.5,771h-15.6l-1.2,6h15.6L1882.5,771z M1919,884.1h-59l1.5-7.3h-15.6l-6.6,33.1h15.6l3.2-16
					h59l-3.2,16h15.6l6.6-33.1h-15.6L1919,884.1z"/>
			</g>
		</g>
		<path class="st66" d="M1864.7,771l116.9,588.3h15.6l-8.6-43.1h59l8.6,43.1h15.6l-10.5-52.7v-0.2h0L1954.8,771h-15.6l3.8,19.2h-59
			l-3.8-19.2H1864.7z M1945,800l7.4,37.2h-59L1886,800H1945z M1968,1212.6l-7.4-37.2h59l7.4,37.2H1968z M2028.9,1222.4l7.4,37.2h-59
			l-7.4-37.2H2028.9z M1958.7,1165.7l-7.4-37.2h59l7.4,37.2H1958.7z M1949.3,1118.8l-7.4-37.2h59l7.4,37.2H1949.3z M1940,1071.8
			l-7.4-37.2h59l7.4,37.2H1940z M1930.7,1024.9l-7.4-37.2h59l7.4,37.2H1930.7z M1921.4,978l-7.4-37.2h59l7.4,37.2H1921.4z M1912,931
			l-7.4-37.2h59l7.4,37.2H1912z M1902.7,884.1l-7.4-37.2h59l7.4,37.2H1902.7z M1986.6,1306.5l-7.4-37.2h59l7.4,37.2H1986.6z"/>
		<path class="st67" d="M1986,691.8c0,0-15.8,7.4-29.5,11.4c-13.7,3.9-35.5-3.4-37.3,2.4c-1.7,5.9,1.4,14.8,29.4,17.8
			c27.9,3,44.3,6.4,54,8c9.7,1.6,14.9-6.8,14.1-16.1c-0.8-9.3,1.3-12.8,1.3-12.8L1986,691.8z"/>
		<path class="st68" d="M1973.3,702.9c-7.6-11.6,17.4-35.3,24.2-44.4c12.6-16.8,25.2-33.5,37.7-50.3c16.1-21.4,38-67.5,63.5-76.4
			c29.5-10.2,91.1,11.1,120.4,18.6c21,5.4,43.2,37.2,17,53c-7.7,4.7-18.3,2.7-26.5,1c-12.4-2.6-24.4-6.9-36.4-10.8
			c-11.6-3.8-23.5-7.8-35.7-9.4c-4.7-0.6-9.3-0.7-14,0.1c-7.9,1.3-14.6,7.9-19.9,13.7c-4.6,5-7.5,11.1-11.5,16.5
			c-10.2,13.8-20,27.8-30,41.7c-9.9,13.7-19.7,27.5-29.6,41.2c-4.1,5.7-17.2,29.9-22.8,30.7c-2.5,0.3-4.8-0.6-7.1-1.7
			c-10.5-5.2-19.3-13.6-28-21.8C1974.2,704.1,1973.7,703.5,1973.3,702.9"/>
		<path class="st67" d="M2042.1,765.3c0,0-12.3,12.3-23.9,20.7c-11.6,8.3-34.6,8.8-34.2,14.9c0.4,6.1,6.4,13.5,33.7,6.8
			c27.3-6.7,43.8-9,53.5-10.8c9.7-1.8,11.7-11.5,7.8-20c-3.9-8.5-3.1-12.5-3.1-12.5L2042.1,765.3z"/>
		<path class="st69" d="M2211.9,429.4c0,0-25.3,22.5-33.6,34.6c-8.3,12.1-40.1,54.9-40.1,54.9l-17.6,12.1l7.4,7.2l32.5,0.6
			l48.2-49.5L2211.9,429.4z"/>
		<path class="st68" d="M2034,780c-11.1-8.4,4.4-39.1,7.7-49.9c6.2-20,12.3-40.1,18.5-60.1c7.9-25.6,12.9-76.4,33.9-93.4
			c24.3-19.6,89.4-20.4,119.6-23.3c21.6-2.1,53.2,20.4,34,44.1c-5.6,7-16.3,8.8-24.6,9.9c-12.5,1.7-25.3,1.8-37.9,2.2
			c-12.2,0.4-24.8,0.6-36.8,3.2c-4.6,1-9,2.5-13.2,4.9c-7,3.9-11.1,12.4-14.1,19.6c-2.6,6.3-3.3,13-5.2,19.4
			c-4.9,16.4-9.4,33-14.1,49.4c-4.6,16.3-9.3,32.5-13.9,48.8c-1.9,6.7-6,33.9-11.1,36.6c-2.2,1.2-4.8,1-7.2,0.8
			c-11.6-1.4-22.8-6.2-33.8-11C2035.2,780.8,2034.6,780.4,2034,780"/>
		<path class="st70" d="M2234.5,350.5c0.1,0.1,0.1,0.2,0.1,0.4c3.1,9,4.9,18.4,9.1,26.9c2.4,4.8,4.8,9.6,7.2,14.4l-38.9,25.1
			c-2.3-9.5-4.2-19.2-7.1-28.6c-2-6.5-5.5-12.3-7.8-18.7c-1.4-3.8-2.3-5.7,1.3-8.2c2.4-1.7,5.1-2.8,7.8-3.9
			c8.6-3.4,17.6-6.1,26.7-8.1c0.4-0.1,0.8-0.2,1.2,0C2234.3,350.1,2234.4,350.3,2234.5,350.5"/>
		<g class="st29">
			<g>
				<defs>
					<rect id="SVGID_113_" x="2203.9" y="349.8" width="39.3" height="41.6"/>
				</defs>
				<clipPath id="SVGID_114_">
					<use xlink:href="#SVGID_113_"  style="overflow:visible;"/>
				</clipPath>
				<path class="st71" d="M2243.2,376.6L2243.2,376.6c-3.8-8.2-5.5-17.1-8.5-25.7c0-0.1-0.1-0.2-0.1-0.4c-0.1-0.2-0.2-0.5-0.5-0.6
					c-0.3-0.2-0.8-0.1-1.2,0c-0.1,0-0.2,0-0.2,0.1l-5.2,9.7l-23.6,24.9l1.3,4.7C2207.7,398.1,2243.2,376.6,2243.2,376.6"/>
			</g>
		</g>
		<path class="st72" d="M2242.2,369.6c0,0,13.7,29.5,14.1,32c2.3,14.8,17.1,11.5,17.9,26.5c1.4,24-0.2,48.4-3.3,72.3
			c-2,15.2-4,30.3-6,45.5c-2.2,17.3,1.5,34.8-0.7,52.2c-1.3,9.8-3.4,11.2-13.4,10.9c-18.3-0.5-38.2-10.7-52.9-21
			c-14.9-10.5-27.7-24.2-36.8-40c-1-1.7-1.9-3.4-2-5.3c-0.2-2.9,1.4-5.6,2.9-8.1c7.8-13.3,12-28.5,15.9-43.3
			c4.2-16.3,2.8-33.6,8-49.8c0.9-6.4,6.4-24.5,9.5-28.8c4.8-6.7,12.3-11.4,18.7-17.1C2217.3,392.8,2242.2,369.6,2242.2,369.6"/>
		<path class="st69" d="M2196.3,413.8c0,0-8.2,8.9-10.7,25.2c-2.5,16.3-9.7,60.1-9.7,60.1l5.3-1.4c0,0,7.8-21.9,12.9-46.9
			C2199.3,425.8,2196.3,413.8,2196.3,413.8"/>
		<path class="st69" d="M2208.9,399.3l2.9,6c0,0,2.1,7-6.7,12.3c-8.8,5.3-11.9,5.9-11.9,5.9S2191.5,405.8,2208.9,399.3"/>
		<path class="st70" d="M2242.6,339.5c-0.5,6.4-3.6,11.4-6.9,11.1c-3.3-0.3-5.6-5.6-5.2-12c0.5-6.4,3.6-11.4,6.9-11.1
			C2240.8,327.7,2243.1,333.1,2242.6,339.5"/>
		<path class="st73" d="M2234,344c2.4,21.5-7.5,37-22.4,42.3c-13.8,4.9-29.7-24.4-32.2-46c-2.4-21.5,11.3-28.5,25.8-30.1
			C2219.8,308.6,2231.6,322.5,2234,344"/>
		<path class="st73" d="M2217,492.4c13.7-7.2,17.8-65.2,30.7-74.4c4.6-3.3,10-6.2,15.7-5.9c10.3,0.6,17.2,12.1,16,22.4
			c-1.7,14.2-2.2,24.1-13.8,45.9c-4.4,8.3-20.8,42.4-28.4,47.9c-3.7,2.7-7.5,5.4-12,6.1c-8.8,1.4-18.3-2.8-26.6-4.9
			c-9.9-2.5-20.1-4.1-30.3-5.3c-7-0.8-14.5-2.3-21.5-2.6c-5.8-0.2-11.5,1.7-16.9-1.4c-6.8-3.9-10.4-6.4-11.5-7.5
			c-1.1-1.1-2.1-13.8-0.7-14.9c1.4-1,2.3-2.5,2.3-2.5s-2.9,0.5-3.7-1.4c-0.8-2,1.2-7,4.1-7.6c10.5,0.4,18.8-2.3,27.3,5.3
			c5.2,4.7,5.2,6.1,13.1,6.5c8.5,0.4,17.1,0,25.6-0.1c7.3,0,14.7,0,21.8-2C2211.2,495.1,2214.1,493.9,2217,492.4"/>
		<g class="st74">
			<g>
				<defs>
					<rect id="SVGID_115_" x="2172.5" y="396.1" width="107.8" height="145.9"/>
				</defs>
				<clipPath id="SVGID_116_">
					<use xlink:href="#SVGID_115_"  style="overflow:visible;"/>
				</clipPath>
				<path class="st75" d="M2182.5,506.5c-2.2,0.1-4.4,0.1-6.6,0c-1.4,4.6-5,15.6-2.4,20.1c2.1,3.7,9.2,4.3,12.9,5.4
					c14.4,4.3,49.2,19.7,59,0.4c6.7-13.2,12.8-26.8,19.2-40.1c5.8-12.3,13.5-24.8,15.5-38.5c0.8-5.3-0.6-9.2-1.1-14.3
					c-0.6-6.6,0.8-12.6-1.6-19.1c-2.8-7.5-14.9-26.3-22.7-24.2c-5,1.3-15.3,9.9-18.2,14.1c-12.1,17.4-21.3,55.9-26.9,76.1
					c-2,7.2-23.8,6.6-30,11C2172.1,502.6,2191.2,506.3,2182.5,506.5"/>
			</g>
		</g>
		<path class="st72" d="M2251.3,385.5c0,0-8.9,1.2-12.9,9.1c-4,8-19.5,96.7-19.5,96.7s-6.5-2.6-10.3,0.2c-3.8,2.8-11.9,4-11.9,4
			l-18.4,1.5l-24.7-0.7l-8.5,25l29.7,6.5l7.4-1.2l32.8,7.8c8.8,1.1,22.8,0.8,26.6-2c3.8-2.8,34.4-70.5,37.7-77.7
			c3.2-7.3,4.1-42.5,0-50.8C2275.1,395.8,2264.8,379.4,2251.3,385.5"/>
		
			<rect x="2105.8" y="555" transform="matrix(-0.9823 -0.1874 0.1874 -0.9823 4161.2734 1513.922)" class="st76" width="92.7" height="10.4"/>
		<path class="st76" d="M2050.1,546l115.3,22c0.8,0.2,1.6-0.4,1.8-1.2l15.5-81.3c0.2-0.8-0.4-1.6-1.2-1.8l-115.3-22
			c-0.8-0.2-1.6,0.4-1.8,1.2l-15.5,81.3C2048.7,545,2049.2,545.8,2050.1,546"/>
		<g class="st8">
			<g>
				<defs>
					<rect id="SVGID_117_" x="2092.7" y="464.5" width="40.4" height="26.2"/>
				</defs>
				<clipPath id="SVGID_118_">
					<use xlink:href="#SVGID_117_"  style="overflow:visible;"/>
				</clipPath>
				<path class="st77" d="M2110.5,465.5c0,0,6.2-2.2,8.3-0.1c0.4,0,1.5,1.7,1.7,2c0.8,1,1.6,2.1,2.3,3.2c0.5,0.8,0.7,1.6,1.5,2.3
					c1,0.9,2.1,1.8,3.2,2.7c0.5,0.5,1.1,0.9,1.4,1.6c0.3,0.6,4.7,5.7,4.2,6.2c-1.7,1.8-9-3.6-10.6-5c-1.8-1.7-7.3-7.2-7.3-7.2
					s-3.2,1.4-2.9,4c0.3,2.6,3.9,13.9,3,15.3c-1,1.5-3.1-2.3-4-1.6c-0.2,0.1-0.3,0.4-0.6,0.4c-0.2,0-0.3,0-0.5,0
					c-0.9-0.3-1.6-0.9-2.3-1.5c-1.9-1.7-3.9-3.4-5.8-5.2c-1.6-1.4-3.8-2.9-5-4.6c-0.9-1.3-1.7-2.5-2.5-3.9c-0.9-1.6-2.6-3.8-1.3-5.7
					c0.6-0.8,1.6-1.2,2.6-1.4c0.7-0.2,1.3-0.5,2-0.5c0.7-0.1,1.5,0,2.2,0.1c1.5,0,3,0,4.4-0.2C2106.5,466,2108.5,465.7,2110.5,465.5
					"/>
			</g>
		</g>
		<path class="st73" d="M2116.1,460.8c0,0,6.4-2,8.3,0.8c1.8,2.8,9.9,21.4,9,22.4c-0.9,1-5.5-4.1-7.1-6.3c-1.6-2.2-6.3-9.5-6.3-9.5
			s-3.3,1.4-3.4,4.5c0,3.1,0.8,16.2-0.3,17.7c-1,1.5-3.2,0.1-3.5-2.8c-0.3-2.9-3.1-17.2-3.1-17.2s2.5,18.1,1.4,18.8
			c-1.1,0.7-2.8,0.5-3.6-3.7c-0.5-2.6-5.7-15.7-5.7-15.7s1.7,11,0.8,12.4c-0.9,1.5-3.1-0.7-3.6-3.8c-0.5-3.2-3.9-9.1-3.9-9.1
			s-1.8-2.2-0.1-3.9c1.7-1.7,3.8-1.7,3.8-1.7s1.5-2.2,3.6-2c2.1,0.2,5-0.6,5-0.6L2116.1,460.8z"/>
		<path class="st78" d="M2165,325.9c0.7,3.4,1.8,6.7,1.6,10.1c-0.3,3.7-2.8,7.7-6.6,8c13.3,23.3,33.9-6.6,45.1-14.4
			c4.5-3.2,12.3-5.6,17.5-2.4c5.9,3.6,5.7,11.5,9.1,16.8c1.9-2,0.6-7.3,0.6-9.8c0-1,0-2,0.4-2.9c0.7-1.6,3-2.5,3.5-4.1
			c0.5-1.7-0.5-5-0.8-6.8c-0.7-4.6-1.8-9.1-3.2-13.5c-1.3-3.9-3.6-12.2-7.2-14.6c-0.9-0.6-2.2-0.7-3,0c-0.7,0.6-0.9,1.7-1.8,2
			c-22.2-20.8-61.1,0.8-55.5,30.7C2164.9,325.3,2164.9,325.6,2165,325.9"/>
		<path class="st79" d="M1520.4,1251.4H787.2c-56.1,0-101.5-45.4-101.5-101.5V964.1c0-56.1,45.4-101.5,101.5-101.5h733.2
			c56.1,0,101.5,45.4,101.5,101.5v45.3l119.3,43.7l-119.3,71.5v25.4C1621.9,1206,1576.5,1251.4,1520.4,1251.4"/>
		<path class="st80" d="M1539,1025.4H899.2c-3.3,0-6.1-2.7-6.1-6.1v-40.8c0-3.3,2.7-6.1,6.1-6.1H1539c3.3,0,6.1,2.7,6.1,6.1v40.8
			C1545.1,1022.7,1542.4,1025.4,1539,1025.4"/>
		<path class="st80" d="M1290.6,1142.1H899.2c-3.3,0-6.1-2.7-6.1-6.1v-40.8c0-3.3,2.7-6.1,6.1-6.1h391.4c3.3,0,6.1,2.7,6.1,6.1v40.8
			C1296.7,1139.4,1294,1142.1,1290.6,1142.1"/>
		<path class="st81" d="M827.8,1140.1l15.8-4.9c8.5-2.7,17.7,2.1,20.4,10.6l11.9,38.2c3.9,12.3-7.5,23.7-19.8,20.5l-55.1-15.3
			c-3.6-0.9-6.8-3-8.7-6.3c-56.5-79.4-57.4-158.3-56.6-179.8c0.3-3.7,1.5-7,3.9-9.5l36.8-43.7c8.2-9.8,23.9-6.6,27.8,5.7l12.2,38.6
			c2.7,8.5-2.1,17.7-10.6,20.4l-15.8,4.9c-7,2.2-11.5,8.6-11.5,16c0.5,19.7,5.6,59.5,31,98.3
			C813.4,1139.5,820.8,1142.3,827.8,1140.1"/>
	</g>
</g>
</svg>
