<?xml version="1.0" encoding="utf-8"?>
<!-- Generator: Adobe Illustrator 19.0.0, SVG Export Plug-In . SVG Version: 6.00 Build 0)  -->
<svg version="1.1" id="Layer_1" xmlns="http://www.w3.org/2000/svg" xmlns:xlink="http://www.w3.org/1999/xlink" x="0px" y="0px"
	 viewBox="0 0 2721.3 1404.7" style="enable-background:new 0 0 2721.3 1404.7;" xml:space="preserve">
<style type="text/css">
	.st0{clip-path:url(#SVGID_2_);}
	.st1{clip-path:url(#SVGID_4_);}
	.st2{fill:#86A2D2;}
	.st3{fill:#F8D265;}
	.st4{fill:#54A964;}
	.st5{fill:#3F3F3F;}
	.st6{fill:#FFFFFF;}
	.st7{fill:#D03C3C;}
	.st8{fill:#6DD480;}
	.st9{fill:#FAC443;}
	.st10{fill:#D19D1E;}
	.st11{fill:#F8B230;}
	.st12{fill:#F2B78B;}
	.st13{fill:#005D4D;}
	.st14{fill:#E0935F;}
	.st15{fill:#030303;}
	.st16{fill:#219587;}
	.st17{fill:#001738;}
	.st18{fill:#002853;}
	.st19{clip-path:url(#SVGID_6_);}
	.st20{clip-path:url(#SVGID_8_);}
	.st21{fill:#4DA78B;}
	.st22{fill:#A7D4C6;}
	.st23{fill:#003A61;}
	.st24{fill:#0C3265;}
	.st25{fill:#00527C;}
	.st26{fill:#231F20;}
	.st27{fill:#014F29;}
	.st28{fill:#14142E;}
	.st29{fill:#BCBEC0;}
	.st30{opacity:0.3;clip-path:url(#SVGID_10_);}
	.st31{clip-path:url(#SVGID_12_);}
	.st32{fill:#ECBA42;}
</style>
<g>
	<defs>
		<rect id="SVGID_1_" y="-0.5" width="2721.3" height="1404.7"/>
	</defs>
	<clipPath id="SVGID_2_">
		<use xlink:href="#SVGID_1_"  style="overflow:visible;"/>
	</clipPath>
	<g class="st0">
		<defs>
			<rect id="SVGID_3_" y="-0.5" width="2721.3" height="1404.7"/>
		</defs>
		<clipPath id="SVGID_4_">
			<use xlink:href="#SVGID_3_"  style="overflow:visible;"/>
		</clipPath>
		<g class="st1">
			<path class="st2" d="M1133.6,753.4c-3.3-1.4-6.6-2.7-9.9-4.1c1.4,4.5,2.8,9,4.1,13.4c0,10,67.6,186.7,179.6,186.6
				c1.5,0.1,3,0.1,4.4,0.2c0.1-1.9,0.1-3.9,0.2-5.8C1318.6,830.3,1142.3,758.3,1133.6,753.4"/>
		</g>
		<g class="st1">
			<path class="st2" d="M1189.8,581.2c-3.2-1.7-6.4-3.5-9.6-5.2c0.9,4.6,1.8,9.1,2.8,13.7c-0.6,8.5,41.7,167.5,142.1,181.2
				c1.5,0.3,3,0.5,4.5,0.8c0.3-1.9,0.6-3.8,0.9-5.7C1348.6,667.8,1197,586.1,1189.8,581.2"/>
		</g>
		<g class="st1">
			<path class="st3" d="M1226.3,1229.2L334.6,922.9c-15.1-5.2-26.7-16-33.3-29.4c-6.5-13.3-7.9-29.1-2.7-44.3l164.8-479.8
				c5.2-15.1,16-26.7,29.4-33.3c13.3-6.5,29.1-7.9,44.3-2.7l891.7,306.3c11.9,4.1,21.6,11.7,28.4,21.2c10.4,14.7,13.9,34.1,7.6,52.4
				l-164.8,479.8c-5.6,16.2-17.6,28.3-32.2,34.5C1255.1,1233.2,1240.4,1234.1,1226.3,1229.2"/>
		</g>
		<g class="st1">
			<path class="st4" d="M1058.5,762.5c-9.5-6.8-21.2-10.8-33.8-10.8H332.2l-33.5,97.6c-5.2,15.1-3.8,31,2.7,44.3
				c6.5,13.3,18.1,24.2,33.3,29.4l748.2,257V809.6C1082.8,790.2,1073.2,773,1058.5,762.5"/>
		</g>
		<g class="st1">
			
				<rect x="389.4" y="602" transform="matrix(0.9458 0.3249 -0.3249 0.9458 268.595 -261.9504)" class="st5" width="1058.8" height="142.8"/>
		</g>
		<g class="st1">
			
				<rect x="426.4" y="737.6" transform="matrix(0.9458 0.3249 -0.3249 0.9458 283.817 -171.974)" class="st6" width="461.1" height="52.7"/>
		</g>
		<g class="st1">
			
				<rect x="997.5" y="905.8" transform="matrix(0.9458 0.3249 -0.3249 0.9458 365.0269 -321.9448)" class="st6" width="298.3" height="52.7"/>
		</g>
		<g class="st1">
			<path class="st7" d="M1000.8,1398.9H58c-16,0-30.5-6.5-41-17c-10.5-10.5-17-25-17-41V833.6c0-16,6.5-30.5,17-41
				c10.5-10.5,25-17,41-17h942.8c12.6,0,24.2,4,33.8,10.8c14.7,10.5,24.2,27.7,24.2,47.1v507.3c0,17.1-7.4,32.5-19.2,43.1
				C1029.3,1393.2,1015.7,1398.9,1000.8,1398.9"/>
		</g>
		<g class="st1">
			<path class="st8" d="M1000.8,1398.9H58c-16,0-30.5-6.5-41-17c-10.5-10.5-17-25-17-41V833.6c0-16,6.5-30.5,17-41
				c10.5-10.5,25-17,41-17h942.8c12.6,0,24.2,4,33.8,10.8c14.7,10.5,24.2,27.7,24.2,47.1v507.3c0,17.1-7.4,32.5-19.2,43.1
				C1029.3,1393.2,1015.7,1398.9,1000.8,1398.9"/>
		</g>
		<g class="st1">
			<path class="st9" d="M92.3,951.4h147.5c4.8,0,8.7,3.9,8.7,8.7v105.2c0,4.8-3.9,8.7-8.7,8.7H92.3c-4.8,0-8.7-3.9-8.7-8.7V960
				C83.6,955.3,87.5,951.4,92.3,951.4"/>
		</g>
		<g class="st1">
			<path class="st10" d="M239.8,1076.9H92.3c-6.4,0-11.7-5.2-11.7-11.7V960c0-6.4,5.2-11.7,11.7-11.7h147.5
				c6.4,0,11.7,5.2,11.7,11.7v105.2C251.4,1071.7,246.2,1076.9,239.8,1076.9 M92.3,954.4c-3.1,0-5.7,2.5-5.7,5.7v105.2
				c0,3.1,2.5,5.6,5.7,5.6h147.5c3.1,0,5.7-2.5,5.7-5.6V960c0-3.1-2.5-5.7-5.7-5.7H92.3z"/>
		</g>
		<g class="st1">
			<path class="st9" d="M145.1,962.7h41.7c6.4,0,11.5,5.2,11.5,11.5v76.9c0,6.4-5.2,11.5-11.5,11.5h-41.7c-6.4,0-11.5-5.2-11.5-11.5
				v-76.9C133.6,967.8,138.8,962.7,145.1,962.7"/>
		</g>
		<g class="st1">
			<path class="st10" d="M186.9,1065.6h-41.7c-8,0-14.5-6.5-14.5-14.5v-76.9c0-8,6.5-14.5,14.5-14.5h41.7c8,0,14.5,6.5,14.5,14.5
				v76.9C201.4,1059.1,194.9,1065.6,186.9,1065.6 M145.1,965.7c-4.7,0-8.5,3.8-8.5,8.5v76.9c0,4.7,3.8,8.5,8.5,8.5h41.7
				c4.7,0,8.5-3.8,8.5-8.5v-76.9c0-4.7-3.8-8.5-8.5-8.5H145.1z"/>
		</g>
		<g class="st1">
			<path class="st11" d="M83.6,980.4h50H83.6z"/>
		</g>
		<g class="st1">
			<rect x="83.6" y="977.4" class="st10" width="50" height="6"/>
		</g>
		<g class="st1">
			<path class="st11" d="M83.6,1001.9h50H83.6z"/>
		</g>
		<g class="st1">
			<rect x="83.6" y="998.9" class="st10" width="50" height="6"/>
		</g>
		<g class="st1">
			<path class="st11" d="M83.6,1023.4h50H83.6z"/>
		</g>
		<g class="st1">
			<rect x="83.6" y="1020.4" class="st10" width="50" height="6"/>
		</g>
		<g class="st1">
			<path class="st11" d="M83.6,1044.9h50H83.6z"/>
		</g>
		<g class="st1">
			<rect x="83.6" y="1041.9" class="st10" width="50" height="6"/>
		</g>
		<g class="st1">
			<path class="st11" d="M198.4,980.4h50H198.4z"/>
		</g>
		<g class="st1">
			<rect x="198.4" y="977.4" class="st10" width="50" height="6"/>
		</g>
		<g class="st1">
			<path class="st11" d="M198.4,1001.9h50H198.4z"/>
		</g>
		<g class="st1">
			<rect x="198.4" y="998.9" class="st10" width="50" height="6"/>
		</g>
		<g class="st1">
			<path class="st11" d="M198.4,1023.4h50H198.4z"/>
		</g>
		<g class="st1">
			<rect x="198.4" y="1020.4" class="st10" width="50" height="6"/>
		</g>
		<g class="st1">
			<path class="st11" d="M198.4,1044.9h50H198.4z"/>
		</g>
		<g class="st1">
			<rect x="198.4" y="1041.9" class="st10" width="50" height="6"/>
		</g>
		<g class="st1">
			<path class="st6" d="M265.7,1185.4H88.5c-4.4,0-7.9-3.5-7.9-7.9v-47.3c0-4.4,3.5-7.9,7.9-7.9h177.2c4.4,0,7.9,3.5,7.9,7.9v47.3
				C273.5,1181.9,270,1185.4,265.7,1185.4"/>
		</g>
		<g class="st1">
			<path class="st6" d="M412.1,1297.7H94.7c-7.8,0-14.1-2.6-14.1-5.8v-34.7c0-3.2,6.3-5.8,14.1-5.8h317.4c7.8,0,14.1,2.6,14.1,5.8
				v34.7C426.2,1295.1,419.9,1297.7,412.1,1297.7"/>
		</g>
		<g class="st1">
			<path class="st6" d="M500.5,1185.4H323.4c-4.4,0-7.9-3.5-7.9-7.9v-47.3c0-4.4,3.5-7.9,7.9-7.9h177.2c4.4,0,7.9,3.5,7.9,7.9v47.3
				C508.4,1181.9,504.9,1185.4,500.5,1185.4"/>
		</g>
		<g class="st1">
			<path class="st6" d="M735.4,1185.4H558.2c-4.4,0-7.9-3.5-7.9-7.9v-47.3c0-4.4,3.5-7.9,7.9-7.9h177.2c4.4,0,7.9,3.5,7.9,7.9v47.3
				C743.3,1181.9,739.7,1185.4,735.4,1185.4"/>
		</g>
		<g class="st1">
			<path class="st6" d="M928.3,935H751.1c-4.4,0-7.9-4.5-7.9-10.1v-60.5c0-5.6,3.5-10.1,7.9-10.1h177.2c4.4,0,7.9,4.5,7.9,10.1v60.5
				C936.2,930.5,932.6,935,928.3,935"/>
		</g>
		<g class="st1">
			<path class="st6" d="M970.3,1185.4H793.1c-4.4,0-7.9-3.5-7.9-7.9v-47.3c0-4.4,3.5-7.9,7.9-7.9h177.2c4.3,0,7.9,3.5,7.9,7.9v47.3
				C978.1,1181.9,974.6,1185.4,970.3,1185.4"/>
		</g>
		<g class="st1">
			<path class="st12" d="M535.5,915.8c-6.4,3.4-21.2,3.5-20.3-2.2c0.6-3.6,13.6-4.9,22.3-10c6.5-3.8,18-2.5,18-2.5l38.6-37.6
				l15.6,17.7l-41.1,34.5c0,0-5.8,16.2-16.7,25.9c-12.9,11.4-28.2,17.6-37.9,6.7C504.8,937.7,529.8,925.6,535.5,915.8"/>
		</g>
		<g class="st1">
			
				<rect x="515.2" y="896.9" transform="matrix(-0.667 0.7451 -0.7451 -0.667 1579.7083 1148.2013)" class="st6" width="36.2" height="60.4"/>
		</g>
		<g class="st1">
			<path class="st13" d="M642.7,790.1c15.9-51.4,46.1-111.4,70.6-100c29.2,13.5-2.3,80.3-27.1,120.4
				C652,865.7,577.6,913.9,577.6,913.9L556,893.8C556,893.8,630.3,830,642.7,790.1"/>
		</g>
		<g class="st1">
			<path class="st14" d="M720.7,613.5c3.2,23.5,17.7,35.3,17.7,35.3s0,13.7-17.3,21.9c-17.3,8.2-26.4-4.5-26.4-4.5l-5.6-29.7
				C689.1,636.4,702.7,615.1,720.7,613.5"/>
		</g>
		<g class="st1">
			<path class="st15" d="M684.5,542.1c0.6-3.6,4.3-9.7,14-9.5c7.3,0.2,12.2,6.8,11.6,11.6c3.7-4.9,11.1-7.7,17.5-3.7
				c7.5,4.7,7.1,11.5,5.2,18.2c3.7-0.7,10.7,0.2,13.2,8.4c3,9.7-2.4,18.1-6.6,21c5.2,0.9,9.9,6.8,7.5,14
				c-4,12.3-24.2,12.2-24.2,12.2l5.8-25.8c0,0,0.1,0,0.1,0c-4.7-4.5-18.6-17.9-16.3-19.2c1.7-0.9,7.4-3.1,11.5-4.6l-18.7-9
				c0,0,0.1-0.5,0.4-1.2c-4.3,1.3-15.3,4.4-19.6,4.5l-10.7,7.4c0.8,4,2.8,14.1,2.4,15.2c-0.5,1.3-6.2-10.5-6.2-10.5
				c-13.3-7.4-9.3-21.1-3.8-27C672.3,539.1,681.4,539.7,684.5,542.1"/>
		</g>
		<g class="st1">
			<path class="st15" d="M725.2,555.9c0.4,0.4,6.5,21.7,6.5,21.7v24c0,0-27.5,18.3-31.7,18.5c-4.2,0.1-15.9-29.8-15.9-29.8
				l-11.6-31.9l25.2-10.1C697.7,548.2,724.8,555.5,725.2,555.9"/>
		</g>
		<g class="st1">
			<path class="st12" d="M678,569c9.6,0.6,22,2.7,29.1-1.8c0.3,23.1,2.9,41.2,2.9,41.2l5.2-2.1c0,0,2.1-12.5,2.4-12.8
				c2.2-2.3,9.9-9.4,16.4-2.8c6.9,7.1,2.6,19.1-8.8,23.3c-18.5,29.3-48.8,27.3-53.1,20c-11.1-19.1-4.6-49-0.7-62.7
				C672.3,570.3,675.5,568.8,678,569"/>
		</g>
		<g class="st1">
			<path class="st15" d="M704.3,557.9c0,0,23.6,6.7,23.6,6.9c0.1,0.2-15.7,28.8-15.7,28.8l-2.3,14.8c-1.5-15.7-1.2-23.8-8.5-29.6
				c-6.1-4.8-18.8-8.7-30.1-7.5C669.9,563.1,704.3,557.9,704.3,557.9"/>
		</g>
		<g class="st1">
			<path class="st16" d="M657.4,733.7c6.6-30.4,37.3-67.5,37.3-67.5s19.1,3.2,43.7-17.4c28.3,24.8,48.8,52,38.9,140.5
				c-5.8,51.6-21.5,116.7-21.5,143.7H649.7c0,0,4.5-37.9,7.1-84.2C660.6,781.6,649.7,769,657.4,733.7"/>
		</g>
		<g class="st1">
			<path class="st13" d="M767.9,850.7c-0.2,1-0.4,2-0.5,3.1c-0.4,2.5-0.9,4.9-1.3,7.3c-1.6,9-3.2,17.8-4.6,26
				c-6.4,18.6-13.2,34.8-18.3,45.9h-6.6c8.6-18.8,24.1-55.7,31.9-93.3l1.3,0.3C769.2,843.6,768.6,847.2,767.9,850.7"/>
		</g>
		<g class="st1">
			<path class="st12" d="M633.9,1360c0,0-2.9,10.8-2.9,11c0,0.2-19.9-8-19.9-8l-0.8-12.6l24.7-2.7L633.9,1360z"/>
		</g>
		<g class="st1">
			<path class="st17" d="M649.7,933c0,0,61.7,0,92.6,0c-6.4,85.5-50.8,157.5-80.5,236.1c-10,57.9-15.4,119.3-20.4,177.8l-37.4,4.1
				c-5.9-71.1-8.5-150.5,2.7-219.9C618,1061.7,632.9,1000,649.7,933"/>
		</g>
		<g class="st1">
			<path class="st15" d="M592.4,1379.3c10.2-6.7,18.6-16.3,18.6-16.3s10.3,7,22.8-3c0,0,8.8,11.6,6.4,28.8
				c-14.9,2.5-20.9,3.5-20.9,3.5l-0.7-4.4c0,0-16.3,7.2-33.4,10.1c-17.1,2.8-20.9-1.4-19.5-4.4
				C567.3,1390.5,578.7,1388.3,592.4,1379.3"/>
		</g>
		<g class="st1">
			<path class="st18" d="M737.2,1171.9c2.7,35-4.7,184-4.7,184h-37.8c0,0-17.7-170.3-20.9-211.5c-3.2-41.2-9.8-187.8-9.8-211.5h91.7
				C772.8,1003.8,741.9,1084.1,737.2,1171.9"/>
		</g>
		<g class="st1">
			<polygon class="st12" points="725.1,1369.4 711.8,1384.6 702.1,1368.7 701.8,1356 726.3,1356 			"/>
		</g>
		<g class="st1">
			<path class="st15" d="M681,1381.7c11.2-4.9,21.1-13,21.1-13s9,8.6,23,0.8c0,0,6.8,12.8,1.5,29.4h-21.1v-4.5
				c0,0-17.3,4.5-34.6,4.5c-17.3,0-20.4-4.8-18.5-7.5C654.3,1388.6,666,1388.3,681,1381.7"/>
		</g>
		<g class="st1">
			<path class="st13" d="M725.3,808.2c-6.8-30.5-9.9-60.9-8.5-83.4c0.1-1.7,1.5-2.9,3.2-2.8c1.7,0.1,2.9,1.5,2.8,3.2
				c-1.4,21.9,1.7,51.7,8.3,81.7C738.8,841.2,718,909,710.1,933h-6.3C711,911.4,732.7,841.5,725.3,808.2"/>
		</g>
	</g>
	<g class="st0">
		<defs>
			<path id="SVGID_5_" d="M701.8,947.3c0,0,12.1,23.2,30.1,30.1l22.9-75.3l-36.5-19.8L701.8,947.3z"/>
		</defs>
		<clipPath id="SVGID_6_">
			<use xlink:href="#SVGID_5_"  style="overflow:visible;"/>
		</clipPath>
		<g class="st19">
			<path class="st12" d="M690.8,958.9c4-6.4,14.9-10.5,14.9-10.5l17.2-51l22,8.6l-20.8,49.4c0,0,2.2,17.1-3.1,30.6
				c-6.3,16.1-17.1,28.5-30.7,23.2c-13.1-5.1,3.7-27.3,4.3-38.6c-4.1,5.9-17.3,12.8-19.1,7.2C674.4,974.4,685.4,967.4,690.8,958.9"
				/>
		</g>
	</g>
	<g class="st0">
		<defs>
			<rect id="SVGID_7_" y="-0.5" width="2721.3" height="1404.7"/>
		</defs>
		<clipPath id="SVGID_8_">
			<use xlink:href="#SVGID_7_"  style="overflow:visible;"/>
		</clipPath>
		<g class="st20">
			<path class="st16" d="M728.3,807.6C716.6,755,713.2,687.9,740,685.7c32-2.7,37.8,70.9,36.1,118c-2.3,64.9-43.1,143.6-43.1,143.6
				l-28.7-6.8C704.4,940.5,737.3,848.3,728.3,807.6"/>
		</g>
		<g class="st20">
			<path class="st14" d="M982.6,336.8c-4.7-6-24.7-17.4-24.7-17.4l-31.1-44l-18.6,14.5l34.1,41.4c0,0,3.4,8.4,8.3,15.8
				c8.8,13.6,17.3,11.2,27.1,5.8c3.6,4.7-3.3,25-1.1,27.9C982.6,388.5,993.6,351,982.6,336.8"/>
		</g>
		<g class="st20">
			<path class="st21" d="M905.1,219.1c1-31.7,43.4-90.5,6.3-103c-39.9-13.4-59.5,74.5-52.3,105.3c10,42.3,43.9,72.2,72.7,103.7
				l25.1-16.3C940.7,287.5,904.3,243.7,905.1,219.1"/>
		</g>
		<g class="st20">
			<path class="st15" d="M996-0.5c-14.4,0.3-69,35.5-49.4,74.4c17.5,34.7,80.7-9.9,80.7-9.9s13,2,17.9-8.9
				C1049.4,45.7,1017.3-0.9,996-0.5"/>
		</g>
		<g class="st20">
			<path class="st14" d="M958.5,65c-12,20.4-29.9,25.8-29.9,25.8s-5.2,12.6,7.6,26.8c12.8,14.2,26.1,6,26.1,6l16.6-25.3
				C978.9,98.4,974.5,73.4,958.5,65"/>
		</g>
		<g class="st20">
			<path class="st12" d="M1000.2,44.3c-18.6,13.1-25.3,13.7-25.3,13.7s0.5-14.7-10.4-13.9c-9.9,0.7-14.7,12.6-8.9,23.2
				c-5.6,34.2,18.4,52.8,26.4,50.2c28-9.1,45.3-53.4,45.3-53.4L1000.2,44.3z"/>
		</g>
		<g class="st20">
			<path class="st15" d="M979.5,96.8c-12.6-15.9,20.7-52.5,20.7-52.5l-7.7-3.2l-17.7,16.8c0,0-24.6,21.5-21.7,35.2
				c2.9,13.7,17.4,27,23.8,31.2c3.4,2.2,8.2,3.4,11.6-0.3c5.9-6.4,14-20.5,14-20.5C996.9,95.9,989,108.8,979.5,96.8"/>
		</g>
		<g class="st20">
			<path class="st22" d="M970.8,200.3c5.5-30.6-8.5-76.7-8.5-76.7s-18.9-4.4-33.7-32.8c-35.6,12-65,29.3-89.8,114.8
				c-14.5,49.9-24.9,116-35.3,141c22.4,9.3,87.9,36.5,98,40.7c0,0,13.6-37.8,25.8-80.5C945.8,242.1,964.4,235.9,970.8,200.3"/>
		</g>
		<g class="st20">
			<polygon class="st12" points="1164.9,542.2 1178.5,546.3 1198.6,544.5 1191.5,527.2 1179.4,522.4 			"/>
		</g>
		<g class="st20">
			<path class="st15" d="M1214.5,517.9c-10.6,6.1-22.9,9.3-22.9,9.3s1.6,12.4-13,19c0,0,6.4,13,22.9,18.6
				c8.9-12.2,12.5-17.1,12.5-17.1l-3.6-2.6c0,0,13.8-11.3,24-25.3c10.2-14,8.2-19.3,4.8-19.4
				C1235.8,500.5,1228.6,509.7,1214.5,517.9"/>
		</g>
		<g class="st20">
			<path class="st23" d="M856.7,447.3c49.3,20.5,106,25.1,106,25.1l199,74.2l20.5-28c-57.8-42.3-188.9-104.3-211.8-103.1
				C934.2,417.2,778.1,414.7,856.7,447.3"/>
		</g>
		<g class="st20">
			<path class="st12" d="M989,336.9c-4.7-6-24.7-17.4-24.7-17.4l-31.1-44L914.7,290l34.1,41.4c0,0,3.4,8.4,8.3,15.8
				c8.8,13.6,17.3,11.2,27.1,5.8c3.6,4.7-3.3,25-1.1,27.9C989,388.5,1000.1,351.1,989,336.9"/>
		</g>
		<g class="st20">
			<path class="st24" d="M1040.4,394.1l-123.9-25.9c-0.6,2.4,0.9,4.9,3.3,5.5L1043,404l92.9-86.5c1.8-1.7,1.9-4.5,0.2-6.4
				L1040.4,394.1z"/>
		</g>
		<g class="st20">
			<path class="st21" d="M914.6,219.3c0.3-10.1,5.1-23.3,10.2-37.3c2.2-5.9,4.4-12,6.3-17.9c0.5-1.6-0.3-3.3-2-3.8
				c-1.6-0.5-3.3,0.4-3.8,1.9c-1.8,5.8-4,11.8-6.2,17.7c-5.3,14.4-10.2,28-10.6,39.1c-0.5,16.1,13.3,38.9,28,59.5c0,0,0,0,0,0
				c0.4-1.1,0.9-2.2,1.3-3.3c0.5-1.1,0.9-2.3,1.4-3.4C926.1,253.2,914.1,232.8,914.6,219.3"/>
		</g>
		<g class="st20">
			<path class="st21" d="M868.6,220.8c-3.3-14-0.9-43.6,8.9-69c0.6-1.5-0.1-3.2-1.6-3.9c0,0,0,0-0.1,0c-1.5-0.6-3.3,0.2-3.9,1.7
				c-9.3,24.1-13.2,55.2-9.2,72.5c8.6,36.5,34.6,63.9,59.7,90.4c0.8,0.9,1.6,1.7,2.4,2.6c0,0,0,0,0,0c0.6-2.2,1.3-4.4,1.9-6.6
				c0,0,0,0,0,0c0,0,0,0,0,0C902.2,282.5,876.8,255.7,868.6,220.8"/>
		</g>
		<g class="st20">
			<path class="st22" d="M911.6,219.2c1-31.7,43.4-90.5,6.3-103c-39.9-13.4-59.5,74.5-52.3,105.3c10,42.3,43.9,72.2,72.7,103.7
				l25.1-16.3C947.2,287.6,910.8,243.8,911.6,219.2"/>
		</g>
		<g class="st20">
			<polygon class="st12" points="970,652.7 984.1,667 993,650.6 997.2,637.7 972.7,639 			"/>
		</g>
		<g class="st20">
			<path class="st15" d="M1014.7,662.5c-11.4-4.3-21.7-11.8-21.7-11.8s-8.5,9.1-23,2c0,0-6,13.2,0.1,29.5c15-0.8,21.1-1.2,21.1-1.2
				l-0.2-4.4c0,0,17.5,3.5,34.8,2.5c17.3-1,20.1-5.9,18-8.5C1041.7,667.9,1030,668.2,1014.7,662.5"/>
		</g>
		<g class="st20">
			<path class="st25" d="M1026.9,400.1c-24-8.8-223.4-53.4-223.4-53.4c-17.6,58.3-2.1,78.8,34.4,94c51.7,21.5,141.5,11.4,141.5,11.4
				s-8.2,120.2-12.1,187.3l35.2-1.9C1013.3,597.7,1085.5,421.6,1026.9,400.1"/>
		</g>
		<g class="st20">
			<polygon class="st15" points="189.5,361.4 260.2,361.4 263.4,466.5 176.6,466.5 			"/>
		</g>
		<g class="st20">
			<path class="st14" d="M238.9,432h-34.4c0,0-0.8,17.4-4.6,30.9c6.7,3.8,5.6,8.7,21.7,8.7c16.1,0,15-4.9,21.7-8.7
				C239.7,449.3,238.9,432,238.9,432"/>
		</g>
		<g class="st20">
			<path class="st15" d="M255.2,345.9c-8-7.2-18.7-12.6-33.4-12.6c-14.7,0-25.4,5.4-33.4,12.6c-33,29.6-16.9,106.5-15.6,129.2
				c5.1,3.5,28,12.2,28,12.2s-11.5-37.9-9.2-72.1c2.3-34.2,14-36.9,30.3-36.9c16.3,0,37.5-8,39.8,26.2c2.3,34.2-18.7,82.7-18.7,82.7
				s22.8-8.7,28-12.2C272.1,452.4,288.2,375.5,255.2,345.9"/>
		</g>
		<g class="st20">
			<path class="st12" d="M258.5,370.3H185c-2.8,49.3,12.8,81.5,36.8,81.5C245.7,451.8,261.4,419.6,258.5,370.3"/>
		</g>
		<g class="st20">
			<path class="st26" d="M334.8,573c0-34.5-22.2-87.7-50.3-103.1c-9.1-5-23-8.9-37.9,0.3c-31.5,19.5,1.2,44.9,31.4,69.3
				c12.8,10.3,14.5,36.4,14.5,42c0,20.4-22,52.6-48.9,65.7c1.9,10.5,5.2,21.2,10.9,29.4C296.4,666,334.8,601.5,334.8,573"/>
		</g>
		<g class="st20">
			<path class="st26" d="M108.7,573c0-34.5,22.2-87.7,50.3-103.1c9.1-5,23-8.9,37.9,0.3c31.5,19.5-1.2,44.9-31.4,69.3
				c-12.8,10.3-14.5,36.4-14.5,42c0,20.4,22,52.6,48.9,65.7c-1.9,10.5-5.2,21.2-10.9,29.4C147.1,666,108.7,601.5,108.7,573"/>
		</g>
		<g class="st20">
			<path class="st27" d="M276.6,536.4c2.2-6,4.1-11.7,5.8-17.4c0.5-1.6-0.4-3.3-2-3.8c-1.6-0.5-3.3,0.4-3.8,2
				c-1.7,5.5-3.5,10.9-5.6,16.7c1.5,1.2,3.1,2.5,4.6,3.7C276.1,537.3,276.4,536.9,276.6,536.4"/>
		</g>
		<g class="st20">
			<path class="st27" d="M163,515.2c-1.6,0.5-2.5,2.2-2,3.8c1.8,5.7,3.7,11.4,5.9,17.4c0.2,0.5,0.5,0.9,0.9,1.2
				c1.5-1.2,3.1-2.5,4.6-3.7c-2.1-5.7-3.9-11.2-5.6-16.7C166.3,515.6,164.6,514.7,163,515.2"/>
		</g>
		<g class="st20">
			<path class="st26" d="M285.5,680.1c-7.1-31.2-25.2-107.2-11.7-144.7c16.5-45.8,14.8-62.7,11.7-64.8c-3.6-2.5-18.5-11.9-43.7-14.9
				c0,3.1-1.5,12.7-20.1,12.7h0c-18.5,0-20-9.6-20.1-12.7c-25.2,3-40.2,12.4-43.7,14.9c-3,2.1-4.8,19,11.7,64.8
				c13.5,37.5-4.6,113.5-11.7,144.7c-8.4,37.1-10.4,45.6-10.4,45.6h74.1h0h74.1C295.9,725.8,293.9,717.2,285.5,680.1"/>
		</g>
		<g class="st20">
			<path class="st22" d="M292.8,603.6H150.7c-1.9,0-3.7,0.8-4.9,2.2c-1.1,1.2-1.7,2.7-1.7,4.4v99.9c0,3.6,2.9,6.6,6.6,6.6h142.1
				c3.6,0,6.6-2.9,6.6-6.6v-99.9c0-1.6-0.6-3.1-1.6-4.2C296.6,604.5,294.8,603.6,292.8,603.6"/>
		</g>
		<g class="st20">
			<path class="st15" d="M129.7,776.7c0,10.6-11.2,14-23.3,13.2c-3.3-0.2-6.7-0.4-10.7-0.3c-3.2,0.1-6.7,0.3-10.7,0.7
				c-23.4,2.4-33.6-6.1-33.6-9.1c0-3,13.2-14.1,33.3-10.2c9.8,1.9,10.3-2.4,20.7-3.5C120.3,766.1,129.7,767.7,129.7,776.7"/>
		</g>
		<g class="st20">
			<path class="st15" d="M317.1,776.7c0,10.6,11.2,14,23.3,13.2c3.3-0.2,6.7-0.4,10.7-0.3c3.2,0.1,6.7,0.3,10.7,0.7
				c23.4,2.4,33.6-6.1,33.6-9.1c0-3-13.2-14.1-33.3-10.2c-9.8,1.9-10.2-2.4-20.7-3.5C326.5,766.1,317.1,767.7,317.1,776.7"/>
		</g>
		<g class="st20">
			<path class="st12" d="M335,769.2c0,0,6.1,2.2,5.3,9.1c-1,8.2-7.8,7.8-7.8,7.8l-33.9-3.3L305,754L335,769.2z"/>
		</g>
		<g class="st20">
			<path class="st12" d="M111.8,769.2c0,0-6.1,2.2-5.3,9.1c1,8.2,7.8,7.8,7.8,7.8l33.9-3.3l-6.4-28.8L111.8,769.2z"/>
		</g>
		<g class="st20">
			<path class="st28" d="M342,739.3c-37.1,13.7-200.3,51.6-200.3,51.6l-11.6-40.8c0,0,178.6-71.5,222.1-87.6
				C395.7,646.4,438.3,717.4,342,739.3"/>
		</g>
		<g class="st20">
			<path class="st21" d="M196.7,664.9c-1.4,0-2.7-0.6-3.6-1.6c-0.7-0.8-1.2-1.9-1.2-3.1c0-1.6,0.8-3,2-3.8c0.8-0.6,1.8-0.9,2.8-0.9
				h50c1.1,0,2.2,0.4,3,1.1c1.1,0.9,1.7,2.2,1.7,3.7c0,1.2-0.4,2.2-1.1,3.1c-0.9,1-2.2,1.7-3.6,1.7"/>
		</g>
		<g class="st20">
			<path class="st12" d="M254.1,392.7l-5.9,31.9c0,0,16.1-4.3,18.6-22.5C269.3,384,254.1,392.7,254.1,392.7"/>
		</g>
		<g class="st20">
			<path class="st15" d="M269.5,394.2c-0.8-1.3-8.1-28.6-8.1-28.6h-79.2c0,0-1.3,28.6-2.1,29.9c-0.8,1.3,9.3,8.5,9.3,8.5v-11.2
				c0-10.6,14.3-22,16.9-22c16.9,0,42.4,28.5,42.4,61.8c0,7.3,18.5-14.5,18.5-14.5S270.3,395.4,269.5,394.2"/>
		</g>
		<g class="st20">
			<path class="st12" d="M176.6,402.2c2.5,18.2,18.6,22.5,18.6,22.5l-5.9-31.9C189.3,392.7,174.2,384,176.6,402.2"/>
		</g>
		<g class="st20">
			<polygon class="st8" points="1398.6,852.5 2721.3,852.5 2497.9,1335 1364.6,1335 			"/>
		</g>
		<g class="st20">
			<path class="st29" d="M1602.7,1095.6c0,170.4-138.2,308.6-308.6,308.6S985.5,1266,985.5,1095.6c0-170.4,138.2-308.6,308.6-308.6
				S1602.7,925.2,1602.7,1095.6"/>
		</g>
		<g class="st20">
			<path class="st6" d="M1566.8,1079.6c0,170.4-138.2,308.6-308.6,308.6c-170.4,0-308.6-138.2-308.6-308.6
				c0-170.4,138.2-308.6,308.6-308.6C1428.6,771,1566.8,909.2,1566.8,1079.6"/>
		</g>
	</g>
	<g class="st0">
		<path class="st8" d="M1119.8,959.5c-3.9,1.9-11.7,3.9-21.6,3.9c-23.1,0-40.5-14.6-40.5-41.5c0-25.7,17.4-43,42.8-43
			c10.2,0,16.7,2.2,19.5,3.6l-2.6,8.6c-4-1.9-9.7-3.4-16.5-3.4c-19.2,0-32,12.3-32,33.8c0,20.1,11.6,33,31.5,33
			c6.4,0,13-1.3,17.3-3.4L1119.8,959.5z"/>
		<path class="st8" d="M1132.7,875.9h10.7v36.7h0.2c1.7-3,4.4-5.7,7.7-7.5c3.2-1.8,6.9-3,10.9-3c7.9,0,20.5,4.9,20.5,25.2v35h-10.7
			v-33.8c0-9.5-3.5-17.5-13.6-17.5c-6.9,0-12.4,4.9-14.3,10.7c-0.6,1.5-0.7,3-0.7,5.1v35.5h-10.7V875.9z"/>
		<path class="st8" d="M1232.7,962.2l-0.9-7.4h-0.4c-3.3,4.6-9.6,8.8-18,8.8c-11.9,0-18-8.4-18-16.9c0-14.2,12.6-22,35.4-21.9v-1.2
			c0-4.9-1.3-13.6-13.4-13.6c-5.5,0-11.2,1.7-15.3,4.4l-2.4-7.1c4.9-3.2,11.9-5.2,19.3-5.2c18,0,22.4,12.3,22.4,24.1v22
			c0,5.1,0.2,10.1,1,14.1H1232.7z M1231.2,932.2c-11.7-0.2-24.9,1.8-24.9,13.3c0,6.9,4.6,10.2,10.1,10.2c7.7,0,12.5-4.9,14.2-9.8
			c0.4-1.1,0.6-2.3,0.6-3.4V932.2z"/>
		<path class="st8" d="M1258.8,922.6c0-7.5-0.2-13.6-0.5-19.2h9.6l0.5,10.1h0.2c4.4-7.2,11.3-11.4,20.9-11.4
			c14.2,0,24.9,12,24.9,29.9c0,21.2-12.9,31.6-26.8,31.6c-7.8,0-14.6-3.4-18.1-9.2h-0.2v32h-10.6V922.6z M1269.3,938.3
			c0,1.6,0.2,3,0.5,4.4c1.9,7.4,8.4,12.5,16.1,12.5c11.3,0,17.9-9.2,17.9-22.7c0-11.8-6.2-21.9-17.5-21.9c-7.3,0-14.1,5.2-16.2,13.3
			c-0.4,1.3-0.7,2.9-0.7,4.4V938.3z"/>
		<path class="st8" d="M1340.8,886.5v16.9h15.3v8.1h-15.3v31.7c0,7.3,2.1,11.4,8,11.4c2.8,0,4.9-0.4,6.2-0.7l0.5,8
			c-2.1,0.9-5.4,1.5-9.5,1.5c-5,0-9-1.6-11.6-4.5c-3-3.2-4.1-8.4-4.1-15.3v-32.1h-9.1v-8.1h9.1v-14.1L1340.8,886.5z"/>
		<path class="st8" d="M1373.7,934.7c0.2,14.5,9.5,20.4,20.2,20.4c7.7,0,12.3-1.3,16.3-3l1.8,7.7c-3.8,1.7-10.2,3.6-19.6,3.6
			c-18.1,0-28.9-11.9-28.9-29.7c0-17.8,10.5-31.7,27.6-31.7c19.2,0,24.3,16.9,24.3,27.7c0,2.2-0.2,3.9-0.4,5H1373.7z M1405,927.1
			c0.1-6.8-2.8-17.4-14.8-17.4c-10.8,0-15.6,10-16.4,17.4H1405z"/>
		<path class="st8" d="M1428.6,921.7c0-6.9-0.1-12.9-0.5-18.4h9.4l0.4,11.6h0.5c2.7-7.9,9.1-12.9,16.3-12.9c1.2,0,2.1,0.1,3,0.4
			v10.1c-1.1-0.2-2.2-0.4-3.6-0.4c-7.5,0-12.9,5.7-14.3,13.7c-0.2,1.5-0.5,3.2-0.5,5v31.4h-10.6V921.7z"/>
	</g>
	<g class="st0">
		<path class="st8" d="M1219.2,1156.5c0,72.1-26.8,112-73.8,112c-41.5,0-69.5-38.8-70.2-109c0-71.2,30.7-110.3,73.8-110.3
			C1193.8,1049.2,1219.2,1089,1219.2,1156.5z M1104,1159.8c0,55.2,17,86.5,43.1,86.5c29.4,0,43.4-34.3,43.4-88.5
			c0-52.2-13.4-86.5-43.1-86.5C1122.3,1071.3,1104,1102,1104,1159.8z"/>
	</g>
	<g class="st0">
		<path class="st8" d="M1353.7,1264.9v-57.8h-98.6v-18.9l94.7-135.5h31v131.9h29.7v22.5h-29.7v57.8H1353.7z M1353.7,1184.6v-70.8
			c0-11.1,0.3-22.2,1-33.3h-1c-6.5,12.4-11.8,21.5-17.6,31.3l-51.9,72.1v0.7H1353.7z"/>
	</g>
	<g class="st0">
		<path class="st26" d="M1639.8,977.3l21.4-46.9h-28.2v-10.2h41v7.6l-21.6,49.5H1639.8z"/>
		<path class="st26" d="M1739.5,977.3l-4.1-13.6h-20.8l-4.1,13.6h-13l20.2-57.3h14.8l20.2,57.3H1739.5z M1732.5,953.6
			c-3.8-12.3-6-19.3-6.5-20.9c-0.5-1.6-0.8-2.9-1-3.8c-0.9,3.3-3.3,11.6-7.4,24.7H1732.5z"/>
		<path class="st26" d="M1771.7,977.3h-11.9v-57.1h32.7v9.9h-20.8v14.7h19.4v9.9h-19.4V977.3z"/>
		<path class="st26" d="M1815.6,977.3h-11.9v-57.1h32.7v9.9h-20.8v14.7h19.4v9.9h-19.4V977.3z"/>
		<path class="st26" d="M1899.4,948.7c0,9.5-2.3,16.7-7,21.8s-11.4,7.6-20.2,7.6s-15.5-2.5-20.2-7.6s-7-12.4-7-21.9
			c0-9.5,2.3-16.8,7.1-21.8c4.7-5,11.4-7.5,20.2-7.5c8.8,0,15.5,2.5,20.1,7.6C1897.1,932,1899.4,939.2,1899.4,948.7z M1857.7,948.7
			c0,6.4,1.2,11.2,3.6,14.4c2.4,3.2,6,4.8,10.9,4.8c9.7,0,14.5-6.4,14.5-19.3c0-12.9-4.8-19.3-14.4-19.3c-4.8,0-8.5,1.6-10.9,4.9
			C1858.9,937.5,1857.7,942.3,1857.7,948.7z"/>
		<path class="st26" d="M1923.3,955.4v21.9h-12.1v-57.1h16.6c7.8,0,13.5,1.4,17.2,4.2c3.7,2.8,5.6,7.1,5.6,12.9c0,3.4-0.9,6.3-2.8,9
			c-1.8,2.6-4.5,4.7-7.9,6.2c8.6,12.8,14.2,21.1,16.8,24.9h-13.4l-13.6-21.9H1923.3z M1923.3,945.6h3.9c3.8,0,6.7-0.6,8.5-1.9
			c1.8-1.3,2.7-3.3,2.7-6c0-2.7-0.9-4.6-2.8-5.8c-1.9-1.1-4.7-1.7-8.7-1.7h-3.7V945.6z"/>
		<path class="st26" d="M2011.4,948.2c0,9.4-2.7,16.6-8,21.6s-13.1,7.5-23.2,7.5H1964v-57.1h17.9c9.3,0,16.6,2.5,21.7,7.4
			S2011.4,939.4,2011.4,948.2z M1998.8,948.5c0-12.3-5.4-18.4-16.3-18.4h-6.4v37.2h5.2C1993,967.3,1998.8,961.1,1998.8,948.5z"/>
		<path class="st26" d="M2058.2,977.3l-4.1-13.6h-20.8l-4.1,13.6h-13l20.2-57.3h14.8l20.2,57.3H2058.2z M2051.2,953.6
			c-3.8-12.3-6-19.3-6.5-20.9c-0.5-1.6-0.8-2.9-1-3.8c-0.9,3.3-3.3,11.6-7.4,24.7H2051.2z"/>
		<path class="st26" d="M2078.5,920.2h17.8c8.1,0,14,1.2,17.6,3.5c3.7,2.3,5.5,6,5.5,11c0,3.4-0.8,6.2-2.4,8.4s-3.7,3.5-6.4,3.9v0.4
			c3.6,0.8,6.2,2.3,7.8,4.5c1.6,2.2,2.4,5.2,2.4,8.8c0,5.2-1.9,9.3-5.6,12.2c-3.8,2.9-8.9,4.4-15.3,4.4h-21.4V920.2z M2090.6,942.8
			h7c3.3,0,5.7-0.5,7.1-1.5c1.5-1,2.2-2.7,2.2-5c0-2.2-0.8-3.8-2.4-4.7c-1.6-1-4.1-1.4-7.6-1.4h-6.4V942.8z M2090.6,952.4v14.9h7.9
			c3.3,0,5.8-0.6,7.4-1.9c1.6-1.3,2.4-3.2,2.4-5.9c0-4.7-3.4-7.1-10.2-7.1H2090.6z"/>
		<path class="st26" d="M2132.2,977.3v-57.1h12.1v47.1h23.2v10H2132.2z"/>
		<path class="st26" d="M2210.3,977.3h-32.9v-57.1h32.9v9.9h-20.8v12.5h19.3v9.9h-19.3v14.7h20.8V977.3z"/>
		<path class="st26" d="M2275.6,920.2h12.2l-19.4,57.1h-13.2l-19.4-57.1h12.2l10.7,34c0.6,2,1.2,4.3,1.9,7c0.6,2.7,1,4.5,1.2,5.6
			c0.3-2.4,1.3-6.6,2.9-12.6L2275.6,920.2z"/>
		<path class="st26" d="M2346.8,948.7c0,9.5-2.3,16.7-7,21.8s-11.4,7.6-20.2,7.6s-15.5-2.5-20.2-7.6s-7-12.4-7-21.9
			c0-9.5,2.3-16.8,7.1-21.8c4.7-5,11.4-7.5,20.2-7.5c8.8,0,15.5,2.5,20.1,7.6C2344.5,932,2346.8,939.2,2346.8,948.7z M2305.1,948.7
			c0,6.4,1.2,11.2,3.6,14.4c2.4,3.2,6,4.8,10.9,4.8c9.7,0,14.5-6.4,14.5-19.3c0-12.9-4.8-19.3-14.4-19.3c-4.8,0-8.5,1.6-10.9,4.9
			C2306.4,937.5,2305.1,942.3,2305.1,948.7z"/>
		<path class="st26" d="M2358.6,977.3v-57.1h12.1v57.1H2358.6z"/>
		<path class="st26" d="M2409.4,929.5c-4.6,0-8.1,1.7-10.6,5.1c-2.5,3.4-3.8,8.2-3.8,14.3c0,12.7,4.8,19.1,14.3,19.1
			c4,0,8.9-1,14.6-3v10.2c-4.7,2-9.9,2.9-15.7,2.9c-8.3,0-14.7-2.5-19.1-7.6c-4.4-5-6.6-12.3-6.6-21.7c0-5.9,1.1-11.1,3.2-15.6
			c2.2-4.5,5.3-7.9,9.3-10.3c4-2.4,8.8-3.6,14.2-3.6c5.5,0,11.1,1.3,16.7,4l-3.9,9.8c-2.1-1-4.3-1.9-6.4-2.7
			C2413.6,929.9,2411.5,929.5,2409.4,929.5z"/>
		<path class="st26" d="M2469,977.3h-32.9v-57.1h32.9v9.9h-20.8v12.5h19.3v9.9h-19.3v14.7h20.8V977.3z"/>
	</g>
	<g class="st0">
		<path class="st26" d="M1689.9,1022.7c0,9.5-2.3,16.7-7,21.8s-11.4,7.6-20.2,7.6s-15.5-2.5-20.2-7.6s-7-12.4-7-21.9
			c0-9.5,2.3-16.8,7.1-21.8c4.7-5,11.4-7.5,20.2-7.5c8.8,0,15.5,2.5,20.1,7.6C1687.6,1006,1689.9,1013.2,1689.9,1022.7z
			 M1648.3,1022.7c0,6.4,1.2,11.2,3.6,14.4c2.4,3.2,6,4.8,10.9,4.8c9.7,0,14.5-6.4,14.5-19.3c0-12.9-4.8-19.3-14.4-19.3
			c-4.8,0-8.5,1.6-10.9,4.9C1649.5,1011.5,1648.3,1016.3,1648.3,1022.7z"/>
		<path class="st26" d="M1734.3,994.2h12.2l-19.4,57.1H1714l-19.4-57.1h12.2l10.7,34c0.6,2,1.2,4.3,1.9,7c0.6,2.7,1,4.5,1.2,5.6
			c0.3-2.4,1.3-6.6,2.9-12.6L1734.3,994.2z"/>
		<path class="st26" d="M1786.7,1051.3h-32.9v-57.1h32.9v9.9h-20.8v12.5h19.3v9.9h-19.3v14.7h20.8V1051.3z"/>
		<path class="st26" d="M1810.7,1029.4v21.9h-12.1v-57.1h16.6c7.8,0,13.5,1.4,17.2,4.2c3.7,2.8,5.6,7.1,5.6,12.9
			c0,3.4-0.9,6.3-2.8,9c-1.8,2.6-4.5,4.7-7.9,6.2c8.6,12.8,14.2,21.1,16.8,24.9h-13.4l-13.6-21.9H1810.7z M1810.7,1019.6h3.9
			c3.8,0,6.7-0.6,8.5-1.9c1.8-1.3,2.7-3.3,2.7-6c0-2.7-0.9-4.6-2.8-5.8c-1.9-1.1-4.7-1.7-8.7-1.7h-3.7V1019.6z"/>
		<path class="st26" d="M1872.2,1051.3v-57.1h12.1v57.1H1872.2z"/>
		<path class="st26" d="M1938.1,1012c0,6.1-1.9,10.8-5.8,14.1c-3.8,3.3-9.3,4.9-16.4,4.9h-5.2v20.3h-12.1v-57.1h18.2
			c6.9,0,12.2,1.5,15.8,4.5C1936.3,1001.7,1938.1,1006.1,1938.1,1012z M1910.8,1021.1h4c3.7,0,6.5-0.7,8.4-2.2
			c1.8-1.5,2.8-3.6,2.8-6.4c0-2.8-0.8-4.9-2.3-6.3c-1.5-1.4-4-2-7.3-2h-5.5V1021.1z"/>
		<path class="st26" d="M2021.5,1022.7c0,9.5-2.3,16.7-7,21.8s-11.4,7.6-20.2,7.6s-15.5-2.5-20.2-7.6s-7-12.4-7-21.9
			c0-9.5,2.3-16.8,7.1-21.8c4.7-5,11.4-7.5,20.2-7.5c8.8,0,15.5,2.5,20.1,7.6C2019.2,1006,2021.5,1013.2,2021.5,1022.7z
			 M1979.8,1022.7c0,6.4,1.2,11.2,3.6,14.4c2.4,3.2,6,4.8,10.9,4.8c9.7,0,14.5-6.4,14.5-19.3c0-12.9-4.8-19.3-14.4-19.3
			c-4.8,0-8.5,1.6-10.9,4.9C1981,1011.5,1979.8,1016.3,1979.8,1022.7z"/>
		<path class="st26" d="M2072.8,1012c0,6.1-1.9,10.8-5.8,14.1c-3.8,3.3-9.3,4.9-16.4,4.9h-5.2v20.3h-12.1v-57.1h18.2
			c6.9,0,12.2,1.5,15.8,4.5C2071,1001.7,2072.8,1006.1,2072.8,1012z M2045.4,1021.1h4c3.7,0,6.5-0.7,8.4-2.2
			c1.8-1.5,2.8-3.6,2.8-6.4c0-2.8-0.8-4.9-2.3-6.3c-1.5-1.4-4-2-7.3-2h-5.5V1021.1z"/>
		<path class="st26" d="M2105.6,1051.3h-12.1v-47H2078v-10.1h43.1v10.1h-15.5V1051.3z"/>
		<path class="st26" d="M2129.9,1051.3v-57.1h12.1v57.1H2129.9z"/>
		<path class="st26" d="M2208.2,1022.7c0,9.5-2.3,16.7-7,21.8s-11.4,7.6-20.2,7.6s-15.5-2.5-20.2-7.6s-7-12.4-7-21.9
			c0-9.5,2.3-16.8,7.1-21.8c4.7-5,11.4-7.5,20.2-7.5c8.8,0,15.5,2.5,20.1,7.6C2205.9,1006,2208.2,1013.2,2208.2,1022.7z
			 M2166.5,1022.7c0,6.4,1.2,11.2,3.6,14.4c2.4,3.2,6,4.8,10.9,4.8c9.7,0,14.5-6.4,14.5-19.3c0-12.9-4.8-19.3-14.4-19.3
			c-4.8,0-8.5,1.6-10.9,4.9C2167.8,1011.5,2166.5,1016.3,2166.5,1022.7z"/>
		<path class="st26" d="M2270.7,1051.3h-15.4l-24.8-43.2h-0.4c0.5,7.6,0.7,13.1,0.7,16.3v26.9h-10.8v-57.1h15.3l24.8,42.8h0.3
			c-0.4-7.4-0.6-12.7-0.6-15.7v-27h10.9V1051.3z"/>
		<path class="st26" d="M2318.8,1035.5c0,5.2-1.9,9.2-5.6,12.2s-8.9,4.5-15.5,4.5c-6.1,0-11.5-1.1-16.2-3.4v-11.3
			c3.9,1.7,7.1,2.9,9.8,3.6c2.7,0.7,5.1,1.1,7.3,1.1c2.7,0,4.7-0.5,6.1-1.5c1.4-1,2.1-2.5,2.1-4.5c0-1.1-0.3-2.1-0.9-3
			c-0.6-0.9-1.5-1.7-2.8-2.5c-1.2-0.8-3.7-2.1-7.4-3.9c-3.5-1.6-6.1-3.2-7.9-4.7c-1.7-1.5-3.1-3.3-4.2-5.3c-1-2-1.6-4.3-1.6-7
			c0-5.1,1.7-9,5.1-11.9c3.4-2.9,8.2-4.3,14.2-4.3c3,0,5.8,0.4,8.5,1.1s5.5,1.7,8.5,3l-3.9,9.4c-3-1.3-5.6-2.1-7.6-2.6
			c-2-0.5-4-0.7-5.9-0.7c-2.3,0-4,0.5-5.3,1.6c-1.2,1.1-1.8,2.5-1.8,4.2c0,1.1,0.2,2,0.7,2.8c0.5,0.8,1.3,1.6,2.4,2.3
			c1.1,0.7,3.6,2.1,7.7,4c5.3,2.6,9,5.1,11,7.7C2317.8,1028.6,2318.8,1031.7,2318.8,1035.5z"/>
		<path class="st26" d="M2326.5,1013.5c0-2.2,0.6-3.8,1.8-5c1.2-1.1,2.9-1.7,5.1-1.7c2.2,0,3.8,0.6,5,1.7c1.2,1.1,1.8,2.8,1.8,4.9
			c0,2.1-0.6,3.7-1.8,4.9c-1.2,1.2-2.9,1.7-5,1.7c-2.2,0-3.9-0.6-5.1-1.7C2327.1,1017.3,2326.5,1015.6,2326.5,1013.5z
			 M2326.5,1045.7c0-2.2,0.6-3.8,1.8-5c1.2-1.1,2.9-1.7,5.1-1.7c2.2,0,3.8,0.6,5,1.7c1.2,1.1,1.8,2.8,1.8,4.9c0,2.1-0.6,3.7-1.8,4.9
			c-1.2,1.2-2.9,1.8-5,1.8c-2.2,0-3.9-0.6-5.1-1.7C2327.1,1049.5,2326.5,1047.9,2326.5,1045.7z"/>
	</g>
	<g class="st0">
		<path class="st6" d="M1638.9,1093.1h38.1v7.7h-29v23.5h26.8v7.6H1648v32h-9.1V1093.1z"/>
		<path class="st6" d="M1694.9,1140.1c0.2,12.5,8.2,17.6,17.4,17.6c6.6,0,10.6-1.2,14.1-2.6l1.6,6.6c-3.3,1.5-8.8,3.1-16.9,3.1
			c-15.6,0-25-10.3-25-25.6c0-15.3,9-27.4,23.8-27.4c16.6,0,21,14.6,21,23.9c0,1.9-0.2,3.4-0.3,4.3H1694.9z M1721.9,1133.5
			c0.1-5.9-2.4-15-12.8-15c-9.3,0-13.4,8.6-14.2,15H1721.9z"/>
		<path class="st6" d="M1770.5,1163.8l-0.7-6.4h-0.3c-2.8,4-8.3,7.6-15.5,7.6c-10.3,0-15.5-7.2-15.5-14.6c0-12.3,10.9-19,30.6-18.9
			v-1c0-4.2-1.2-11.8-11.5-11.8c-4.7,0-9.7,1.5-13.2,3.8l-2.1-6.1c4.2-2.7,10.3-4.5,16.7-4.5c15.5,0,19.3,10.6,19.3,20.8v19
			c0,4.4,0.2,8.7,0.8,12.2H1770.5z M1769.1,1137.9c-10.1-0.2-21.5,1.6-21.5,11.4c0,6,4,8.8,8.7,8.8c6.6,0,10.8-4.2,12.3-8.5
			c0.3-0.9,0.5-2,0.5-2.9V1137.9z"/>
		<path class="st6" d="M1804.1,1098.4v14.6h13.2v7h-13.2v27.4c0,6.3,1.8,9.9,6.9,9.9c2.4,0,4.2-0.3,5.4-0.6l0.4,6.9
			c-1.8,0.7-4.6,1.3-8.2,1.3c-4.3,0-7.8-1.4-10-3.9c-2.6-2.7-3.6-7.2-3.6-13.2v-27.7h-7.9v-7h7.9v-12.2L1804.1,1098.4z"/>
		<path class="st6" d="M1870.2,1150c0,5.3,0.1,9.9,0.4,13.9h-8.2l-0.5-8.3h-0.2c-2.4,4.1-7.8,9.5-16.8,9.5c-8,0-17.5-4.4-17.5-22.3
			V1113h9.2v28.1c0,9.7,2.9,16.2,11.3,16.2c6.2,0,10.5-4.3,12.2-8.4c0.5-1.4,0.8-3,0.8-4.7V1113h9.2V1150z"/>
		<path class="st6" d="M1885.5,1128.9c0-6-0.1-11.1-0.4-15.9h8.1l0.3,10h0.4c2.3-6.8,7.9-11.1,14.1-11.1c1,0,1.8,0.1,2.6,0.3v8.7
			c-0.9-0.2-1.9-0.3-3.2-0.3c-6.5,0-11.1,4.9-12.4,11.9c-0.2,1.3-0.4,2.7-0.4,4.3v27.1h-9.1V1128.9z"/>
		<path class="st6" d="M1925,1140.1c0.2,12.5,8.2,17.6,17.4,17.6c6.6,0,10.6-1.2,14.1-2.6l1.6,6.6c-3.3,1.5-8.8,3.1-16.9,3.1
			c-15.6,0-25-10.3-25-25.6c0-15.3,9-27.4,23.8-27.4c16.6,0,21,14.6,21,23.9c0,1.9-0.2,3.4-0.3,4.3H1925z M1952.1,1133.5
			c0.1-5.9-2.4-15-12.8-15c-9.3,0-13.4,8.6-14.2,15H1952.1z"/>
		<path class="st6" d="M1971.2,1154.4c2.7,1.8,7.6,3.7,12.2,3.7c6.7,0,9.9-3.4,9.9-7.6c0-4.4-2.6-6.8-9.5-9.3
			c-9.1-3.3-13.4-8.3-13.4-14.4c0-8.2,6.6-14.9,17.5-14.9c5.1,0,9.7,1.5,12.5,3.1l-2.3,6.7c-2-1.3-5.7-2.9-10.4-2.9
			c-5.5,0-8.5,3.1-8.5,6.9c0,4.2,3,6.1,9.7,8.6c8.8,3.4,13.3,7.8,13.3,15.3c0,8.9-6.9,15.2-19,15.2c-5.6,0-10.7-1.4-14.3-3.5
			L1971.2,1154.4z"/>
		<path class="st6" d="M2008.1,1176.8c2.3-6.2,5.1-17.4,6.3-25.1l10.3-1c-2.4,8.9-7,20.6-10,25.5L2008.1,1176.8z"/>
		<path class="st6" d="M2057.1,1152.7c4.1,2.5,10.1,4.6,16.4,4.6c9.3,0,14.8-4.9,14.8-12.1c0-6.6-3.8-10.4-13.3-14.1
			c-11.5-4.1-18.7-10.1-18.7-20.1c0-11,9.1-19.2,22.9-19.2c7.2,0,12.5,1.7,15.6,3.5l-2.5,7.5c-2.3-1.3-7-3.4-13.4-3.4
			c-9.7,0-13.3,5.8-13.3,10.6c0,6.6,4.3,9.9,14.1,13.6c12,4.6,18.1,10.4,18.1,20.8c0,10.9-8.1,20.4-24.8,20.4
			c-6.8,0-14.3-2-18.1-4.5L2057.1,1152.7z"/>
		<path class="st6" d="M2152.3,1150c0,5.3,0.1,9.9,0.4,13.9h-8.2l-0.5-8.3h-0.2c-2.4,4.1-7.8,9.5-16.8,9.5c-8,0-17.5-4.4-17.5-22.3
			V1113h9.2v28.1c0,9.7,2.9,16.2,11.3,16.2c6.2,0,10.5-4.3,12.2-8.4c0.5-1.4,0.8-3,0.8-4.7V1113h9.2V1150z"/>
		<path class="st6" d="M2167.7,1129.6c0-6.5-0.2-11.8-0.4-16.6h8.3l0.4,8.7h0.2c3.8-6.2,9.8-9.9,18.1-9.9
			c12.3,0,21.5,10.4,21.5,25.8c0,18.3-11.1,27.3-23.1,27.3c-6.7,0-12.6-2.9-15.6-8h-0.2v27.6h-9.1V1129.6z M2176.8,1143.2
			c0,1.4,0.2,2.6,0.4,3.8c1.7,6.4,7.2,10.8,13.9,10.8c9.8,0,15.4-8,15.4-19.6c0-10.2-5.4-18.9-15.1-18.9c-6.3,0-12.2,4.5-14,11.4
			c-0.3,1.2-0.6,2.5-0.6,3.8V1143.2z"/>
		<path class="st6" d="M2227.4,1129.6c0-6.5-0.2-11.8-0.4-16.6h8.3l0.4,8.7h0.2c3.8-6.2,9.8-9.9,18.1-9.9
			c12.3,0,21.5,10.4,21.5,25.8c0,18.3-11.1,27.3-23.1,27.3c-6.7,0-12.6-2.9-15.6-8h-0.2v27.6h-9.1V1129.6z M2236.5,1143.2
			c0,1.4,0.2,2.6,0.4,3.8c1.7,6.4,7.2,10.8,13.9,10.8c9.8,0,15.4-8,15.4-19.6c0-10.2-5.4-18.9-15.1-18.9c-6.3,0-12.2,4.5-14,11.4
			c-0.3,1.2-0.6,2.5-0.6,3.8V1143.2z"/>
		<path class="st6" d="M2333.1,1138c0,18.8-13,27-25.3,27c-13.8,0-24.4-10.1-24.4-26.1c0-17,11.1-27,25.2-27
			C2323.3,1111.9,2333.1,1122.5,2333.1,1138z M2292.8,1138.5c0,11.1,6.4,19.5,15.4,19.5c8.8,0,15.4-8.3,15.4-19.7
			c0-8.6-4.3-19.5-15.2-19.5C2297.5,1118.8,2292.8,1128.9,2292.8,1138.5z"/>
		<path class="st6" d="M2344.8,1128.9c0-6-0.1-11.1-0.4-15.9h8.1l0.3,10h0.4c2.3-6.8,7.9-11.1,14.1-11.1c1,0,1.8,0.1,2.6,0.3v8.7
			c-0.9-0.2-1.9-0.3-3.2-0.3c-6.5,0-11.1,4.9-12.4,11.9c-0.2,1.3-0.4,2.7-0.4,4.3v27.1h-9.1V1128.9z"/>
		<path class="st6" d="M2390.3,1098.4v14.6h13.2v7h-13.2v27.4c0,6.3,1.8,9.9,6.9,9.9c2.4,0,4.2-0.3,5.4-0.6l0.4,6.9
			c-1.8,0.7-4.6,1.3-8.2,1.3c-4.3,0-7.8-1.4-10-3.9c-2.6-2.7-3.6-7.2-3.6-13.2v-27.7h-7.9v-7h7.9v-12.2L2390.3,1098.4z"/>
	</g>
	<g class="st0">
		<path class="st6" d="M1683.2,1270.3c-2-2-3.9-4-6.6-6.9c-6.1,5.7-12.9,8.1-20.7,8.1c-13.8,0-21.7-9.2-21.7-19.8
			c0-9.7,5.8-16.3,13.9-20.7v-0.3c-3.7-4.6-5.9-9.8-5.9-14.8c0-8.6,6.2-17.4,18-17.4c8.8,0,15.6,5.9,15.6,15
			c0,7.5-4.3,13.3-15.5,18.9v0.3c6,6.9,12.7,14.7,17.2,19.7c3.3-4.9,5.5-11.8,6.8-20.7h8.4c-1.9,11.1-4.9,19.9-10.2,26.1
			c3.8,4,7.5,8,11.7,12.5H1683.2z M1672.1,1258.1c-4.2-4.6-12.1-13.2-19.9-22.3c-3.8,2.4-9.1,6.9-9.1,14.4c0,8.1,6,14.3,14.5,14.3
			C1663.6,1264.5,1668.7,1261.8,1672.1,1258.1z M1650.5,1215c0,5,2.3,8.9,5.4,12.7c7.1-4.1,11.8-7.9,11.8-13.9
			c0-4.3-2.4-9.1-8.2-9.1C1653.6,1204.7,1650.5,1209.5,1650.5,1215z"/>
		<path class="st6" d="M1724.7,1200.4c4.4-0.7,10.2-1.4,17.5-1.4c9,0,15.6,2.1,19.8,5.9c3.9,3.4,6.2,8.5,6.2,14.8
			c0,6.4-1.9,11.4-5.5,15.1c-4.8,5.1-12.7,7.8-21.6,7.8c-2.7,0-5.3-0.1-7.3-0.6v28.3h-9.1V1200.4z M1733.8,1234.5
			c2,0.5,4.5,0.7,7.6,0.7c11,0,17.7-5.4,17.7-15.1c0-9.3-6.6-13.9-16.7-13.9c-4,0-7,0.3-8.6,0.7V1234.5z"/>
		<path class="st6" d="M1780.2,1235.4c0-6-0.1-11.1-0.4-15.9h8.1l0.3,10h0.4c2.3-6.8,7.9-11.1,14.1-11.1c1,0,1.8,0.1,2.6,0.3v8.7
			c-0.9-0.2-1.9-0.3-3.2-0.3c-6.5,0-11.1,4.9-12.4,11.9c-0.2,1.3-0.4,2.7-0.4,4.3v27.1h-9.1V1235.4z"/>
		<path class="st6" d="M1824.8,1205.2c0.1,3.2-2.2,5.7-5.9,5.7c-3.3,0-5.6-2.5-5.6-5.7c0-3.3,2.4-5.8,5.8-5.8
			C1822.6,1199.4,1824.8,1202,1824.8,1205.2z M1814.6,1270.3v-50.8h9.2v50.8H1814.6z"/>
		<path class="st6" d="M1875.3,1268.4c-2.4,1.3-7.8,2.9-14.6,2.9c-15.3,0-25.3-10.4-25.3-25.9c0-15.6,10.7-27,27.3-27
			c5.5,0,10.3,1.4,12.8,2.6l-2.1,7.1c-2.2-1.3-5.7-2.4-10.7-2.4c-11.7,0-18,8.6-18,19.2c0,11.8,7.6,19,17.6,19
			c5.3,0,8.7-1.4,11.3-2.5L1875.3,1268.4z"/>
		<path class="st6" d="M1891.3,1246.6c0.2,12.5,8.2,17.6,17.4,17.6c6.6,0,10.6-1.2,14.1-2.6l1.6,6.6c-3.3,1.5-8.8,3.1-16.9,3.1
			c-15.6,0-25-10.3-25-25.6c0-15.3,9-27.4,23.8-27.4c16.6,0,21,14.6,21,23.9c0,1.9-0.2,3.4-0.3,4.3H1891.3z M1918.4,1240
			c0.1-5.9-2.4-15-12.8-15c-9.3,0-13.4,8.6-14.2,15H1918.4z"/>
		<path class="st6" d="M1937.5,1260.9c2.7,1.8,7.6,3.7,12.2,3.7c6.7,0,9.9-3.4,9.9-7.6c0-4.4-2.6-6.8-9.5-9.3
			c-9.1-3.3-13.4-8.3-13.4-14.4c0-8.2,6.6-14.9,17.5-14.9c5.1,0,9.7,1.5,12.5,3.1l-2.3,6.7c-2-1.3-5.7-2.9-10.4-2.9
			c-5.5,0-8.5,3.1-8.5,6.9c0,4.2,3,6.1,9.7,8.6c8.8,3.4,13.3,7.8,13.3,15.3c0,8.9-6.9,15.2-19,15.2c-5.6,0-10.7-1.4-14.3-3.5
			L1937.5,1260.9z"/>
	</g>
	<g class="st0">
		<defs>
			<rect id="SVGID_9_" y="-0.5" width="2721.3" height="1404.7"/>
		</defs>
		<clipPath id="SVGID_10_">
			<use xlink:href="#SVGID_9_"  style="overflow:visible;"/>
		</clipPath>
		<g class="st30">
			<g>
				<defs>
					<rect id="SVGID_11_" x="1451.4" y="79.1" width="491.3" height="714"/>
				</defs>
				<clipPath id="SVGID_12_">
					<use xlink:href="#SVGID_11_"  style="overflow:visible;"/>
				</clipPath>
				<g class="st31">
					<path class="st32" d="M1454,421.8c-3.5-8.8-3.6-19,0.5-28.4c8.2-18.8,30-27.4,48.8-19.2c49.5,21.5,87.7,61,107.5,111.2
						c19.8,50.2,18.9,105.1-2.6,154.6c-8.2,18.8-30,27.4-48.8,19.2c-18.8-8.2-27.4-30-19.2-48.8c13.6-31.3,14.2-66.1,1.7-97.8
						c-12.5-31.8-36.7-56.7-68-70.3C1464.3,438.1,1457.5,430.6,1454,421.8"/>
				</g>
				<g class="st31">
					<path class="st32" d="M1678.4,699c-3.5-8.8-3.6-19,0.5-28.4c29.7-68.4,31-144.3,3.6-213.6c-27.4-69.4-80.1-123.9-148.5-153.6
						c-18.8-8.2-27.4-30-19.2-48.8c8.2-18.8,30-27.4,48.8-19.2c86.6,37.6,153.3,106.7,188,194.5c34.6,87.8,33,183.8-4.6,270.4
						c-8.2,18.8-30,27.4-48.8,19.2C1688.7,715.3,1681.9,707.8,1678.4,699"/>
				</g>
				<g class="st31">
					<path class="st32" d="M1840.8,789.5c-11.3-4.9-19.5-13.9-23.7-24.5c-4.2-10.6-4.3-22.8,0.6-34.1
						c45.8-105.5,47.8-222.5,5.6-329.5c-42.2-107-123.5-191.1-229-236.9c-22.5-9.8-32.9-36-23.1-58.6c9.8-22.6,36-32.9,58.6-23.1
						c31.4,13.6,61,30.1,88.6,49.1c84.2,58,149.4,139.6,187.8,236.9c7.7,19.4,14.1,39.1,19.3,59c29.7,112.3,20.8,230.5-26.1,338.6
						C1889.6,788.9,1863.4,799.3,1840.8,789.5"/>
				</g>
			</g>
		</g>
	</g>
</g>
</svg>
