<?xml version="1.0" encoding="utf-8"?>
<!-- Generator: Adobe Illustrator 19.0.0, SVG Export Plug-In . SVG Version: 6.00 Build 0)  -->
<svg version="1.1" id="Layer_1" xmlns="http://www.w3.org/2000/svg" xmlns:xlink="http://www.w3.org/1999/xlink" x="0px" y="0px"
	 viewBox="0 0 2863.6 1332.8" style="enable-background:new 0 0 2863.6 1332.8;" xml:space="preserve">
<style type="text/css">
	.st0{clip-path:url(#SVGID_2_);fill:#FDF1D1;}
	.st1{clip-path:url(#SVGID_2_);}
	.st2{clip-path:url(#SVGID_4_);fill:#79C798;}
	.st3{fill:#FFFFFF;}
	.st4{clip-path:url(#SVGID_6_);fill:#A7A9AC;}
	.st5{clip-path:url(#SVGID_8_);fill:#BEC6C4;}
	.st6{clip-path:url(#SVGID_8_);fill:#FEFEFE;}
	
		.st7{clip-path:url(#SVGID_8_);fill:none;stroke:#BACCC6;stroke-width:1.289;stroke-linecap:round;stroke-linejoin:round;stroke-miterlimit:10;}
	
		.st8{clip-path:url(#SVGID_8_);fill:none;stroke:#BACCC6;stroke-width:1.84;stroke-linecap:round;stroke-linejoin:round;stroke-miterlimit:10;}
	.st9{clip-path:url(#SVGID_8_);fill:#6DD480;}
	.st10{clip-path:url(#SVGID_8_);fill:#54A964;}
	.st11{clip-path:url(#SVGID_8_);fill:#F8D265;}
	.st12{clip-path:url(#SVGID_8_);fill:#D38309;}
	.st13{clip-path:url(#SVGID_10_);fill:#BC6C56;}
	.st14{clip-path:url(#SVGID_10_);fill:#D38309;}
	.st15{clip-path:url(#SVGID_10_);fill:#D08B73;}
	.st16{clip-path:url(#SVGID_10_);fill:#231F20;}
	.st17{clip-path:url(#SVGID_10_);fill:#58595B;}
	.st18{clip-path:url(#SVGID_10_);fill:#6D6E71;}
	.st19{opacity:0.5;clip-path:url(#SVGID_12_);}
	.st20{clip-path:url(#SVGID_14_);fill:#BC6C56;}
	.st21{clip-path:url(#SVGID_16_);fill:#FAAE26;}
	.st22{clip-path:url(#SVGID_18_);fill:#D38309;}
	.st23{clip-path:url(#SVGID_20_);fill:#58595B;}
	.st24{clip-path:url(#SVGID_20_);fill:#D08B73;}
	.st25{opacity:0.5;clip-path:url(#SVGID_20_);}
	.st26{clip-path:url(#SVGID_22_);fill:#F8D265;}
	.st27{clip-path:url(#SVGID_20_);fill:#FAAE26;}
	
		.st28{clip-path:url(#SVGID_20_);fill:none;stroke:#ECBA42;stroke-width:4.029;stroke-linecap:round;stroke-linejoin:round;stroke-miterlimit:10;}
	
		.st29{clip-path:url(#SVGID_20_);fill:none;stroke:#54A964;stroke-width:4.029;stroke-linecap:round;stroke-linejoin:round;stroke-miterlimit:10;}
	.st30{clip-path:url(#SVGID_20_);fill:#6DD480;}
	.st31{clip-path:url(#SVGID_20_);fill:#ECBA42;}
	.st32{clip-path:url(#SVGID_20_);fill:#231F20;}
	
		.st33{clip-path:url(#SVGID_20_);fill:none;stroke:#808285;stroke-width:5.074;stroke-linecap:round;stroke-linejoin:round;stroke-miterlimit:10;}
	.st34{clip-path:url(#SVGID_20_);fill:#6D6E71;}
	
		.st35{clip-path:url(#SVGID_20_);fill:none;stroke:#231F20;stroke-width:3.338;stroke-linecap:round;stroke-linejoin:round;stroke-miterlimit:10;}
	.st36{clip-path:url(#SVGID_24_);fill:#6DD480;}
	.st37{clip-path:url(#SVGID_26_);fill:#58595B;}
	.st38{clip-path:url(#SVGID_26_);fill:none;stroke:#034C8A;stroke-width:0.545;stroke-miterlimit:10;}
	.st39{clip-path:url(#SVGID_26_);fill:#6D6E71;}
	.st40{clip-path:url(#SVGID_26_);fill:#231F20;}
	.st41{clip-path:url(#SVGID_26_);fill:#D08B73;}
	.st42{clip-path:url(#SVGID_26_);fill:#ECBA42;}
	.st43{clip-path:url(#SVGID_26_);fill:#6DD480;}
	.st44{clip-path:url(#SVGID_26_);fill:#54A964;}
	.st45{clip-path:url(#SVGID_26_);fill:#F8D265;}
	.st46{clip-path:url(#SVGID_26_);fill:#BC6C56;}
	
		.st47{clip-path:url(#SVGID_26_);fill:none;stroke:#148B7A;stroke-width:0.23;stroke-linecap:round;stroke-linejoin:round;stroke-miterlimit:10;}
	
		.st48{clip-path:url(#SVGID_26_);fill:none;stroke:#148B7A;stroke-width:0.234;stroke-linecap:round;stroke-linejoin:round;stroke-miterlimit:10;}
	.st49{clip-path:url(#SVGID_28_);fill:#BC6C56;}
	.st50{clip-path:url(#SVGID_30_);fill:#58595B;}
	.st51{clip-path:url(#SVGID_30_);fill:#6DD480;}
	.st52{clip-path:url(#SVGID_30_);fill:#6D6E71;}
	.st53{clip-path:url(#SVGID_30_);fill:#D08B73;}
	.st54{clip-path:url(#SVGID_32_);fill:#BC6C56;}
	.st55{clip-path:url(#SVGID_34_);fill:#58595B;}
	.st56{clip-path:url(#SVGID_34_);fill:#D08B73;}
	.st57{clip-path:url(#SVGID_34_);fill:#6DD480;}
	.st58{clip-path:url(#SVGID_34_);fill:none;stroke:#231F20;stroke-width:1.574;stroke-linecap:round;stroke-linejoin:round;}
	
		.st59{clip-path:url(#SVGID_34_);fill:none;stroke:#231F20;stroke-width:1.574;stroke-linecap:round;stroke-linejoin:round;stroke-dasharray:9.949,9.949;}
</style>
<g>
	<defs>
		<rect id="SVGID_1_" width="2863.6" height="1332.8"/>
	</defs>
	<clipPath id="SVGID_2_">
		<use xlink:href="#SVGID_1_"  style="overflow:visible;"/>
	</clipPath>
	<polygon class="st0" points="158.1,0 158.1,1332.8 2863.6,1332.8 2863.6,220 	"/>
	<g class="st1">
		<defs>
			<rect id="SVGID_3_" y="0" width="2863.6" height="1332.8"/>
		</defs>
		<clipPath id="SVGID_4_">
			<use xlink:href="#SVGID_3_"  style="overflow:visible;"/>
		</clipPath>
		<path class="st2" d="M596.6,1264.2L596.6,1264.2C267.1,1264.2,0,997.1,0,667.6v0C0,338.1,267.1,71,596.6,71h0
			c329.5,0,596.6,267.1,596.6,596.6v0C1193.2,997.1,926.1,1264.2,596.6,1264.2"/>
	</g>
	<g class="st1">
		<path class="st3" d="M219.5,799.8c-0.4-7.6-0.9-16.7-0.8-23.5h-0.2c-1.9,6.4-4.1,13.2-6.9,20.7l-9.6,26.4h-5.3l-8.8-25.9
			c-2.6-7.7-4.8-14.7-6.3-21.1h-0.2c-0.2,6.8-0.6,15.9-1,24l-1.5,23.3h-6.7l3.8-54.4h9l9.3,26.3c2.3,6.7,4.1,12.7,5.5,18.3h0.2
			c1.4-5.5,3.3-11.5,5.7-18.3l9.7-26.3h9l3.4,54.4h-6.9L219.5,799.8z"/>
		<path class="st3" d="M271,813c0,4,0.1,7.6,0.3,10.7h-6.3l-0.4-6.4h-0.2c-1.9,3.1-6,7.3-12.9,7.3c-6.1,0-13.5-3.4-13.5-17.1v-22.8
			h7.1v21.6c0,7.4,2.3,12.4,8.7,12.4c4.8,0,8.1-3.3,9.4-6.5c0.4-1,0.6-2.3,0.6-3.6v-24h7.1V813z"/>
		<path class="st3" d="M281.8,816.4c2.1,1.4,5.8,2.8,9.4,2.8c5.2,0,7.6-2.6,7.6-5.8c0-3.4-2-5.2-7.3-7.2c-7-2.5-10.3-6.4-10.3-11.1
			c0-6.3,5.1-11.5,13.5-11.5c4,0,7.4,1.1,9.6,2.4l-1.8,5.2c-1.5-1-4.4-2.3-8-2.3c-4.2,0-6.5,2.4-6.5,5.3c0,3.2,2.3,4.7,7.4,6.6
			c6.8,2.6,10.2,6,10.2,11.8c0,6.9-5.3,11.7-14.6,11.7c-4.3,0-8.2-1-11-2.7L281.8,816.4z"/>
		<path class="st3" d="M323.3,773.4v11.2h10.2v5.4h-10.2v21.1c0,4.8,1.4,7.6,5.3,7.6c1.9,0,3.2-0.2,4.1-0.5l0.3,5.3
			c-1.4,0.6-3.6,1-6.3,1c-3.3,0-6-1-7.7-3c-2-2.1-2.7-5.6-2.7-10.2V790h-6.1v-5.4h6.1v-9.4L323.3,773.4z"/>
		<path class="st3" d="M358,799.2v5.2H338v-5.2H358z"/>
		<path class="st3" d="M373.5,769.3V792h26.3v-22.8h7.1v54.4h-7.1v-25.5h-26.3v25.5h-7v-54.4H373.5z"/>
		<path class="st3" d="M440.5,823.6l-0.6-4.9h-0.2c-2.2,3.1-6.4,5.8-11.9,5.8c-7.9,0-11.9-5.6-11.9-11.2c0-9.4,8.4-14.6,23.5-14.5
			V798c0-3.2-0.9-9-8.9-9c-3.6,0-7.4,1.1-10.2,2.9l-1.6-4.7c3.2-2.1,7.9-3.5,12.8-3.5c11.9,0,14.8,8.2,14.8,16v14.6
			c0,3.4,0.2,6.7,0.6,9.4H440.5z M439.5,803.7c-7.7-0.2-16.5,1.2-16.5,8.8c0,4.6,3.1,6.8,6.7,6.8c5.1,0,8.3-3.2,9.4-6.5
			c0.2-0.7,0.4-1.5,0.4-2.3V803.7z"/>
		<path class="st3" d="M460.5,784.6l7.7,22c1.3,3.6,2.3,6.8,3.1,10h0.2c0.9-3.2,2-6.5,3.3-10l7.6-22h7.4l-15.3,39.1h-6.8L453,784.6
			H460.5z"/>
		<path class="st3" d="M500.6,805.4c0.2,9.6,6.3,13.6,13.4,13.6c5.1,0,8.2-0.9,10.8-2l1.2,5.1c-2.5,1.1-6.8,2.4-13,2.4
			c-12,0-19.2-7.9-19.2-19.7c0-11.8,6.9-21.1,18.3-21.1c12.8,0,16.1,11.2,16.1,18.4c0,1.5-0.2,2.6-0.2,3.3H500.6z M521.4,800.3
			c0.1-4.5-1.9-11.5-9.8-11.5c-7.2,0-10.3,6.6-10.9,11.5H521.4z"/>
		<path class="st3" d="M566.3,823.6l-17.8-54.4h7.6l8.5,26.8c2.3,7.3,4.4,14,5.8,20.3h0.2c1.5-6.3,3.8-13.2,6.2-20.3l9.2-26.9h7.5
			l-19.4,54.4H566.3z"/>
		<path class="st3" d="M634.5,803.8c0,14.4-10,20.7-19.4,20.7c-10.6,0-18.7-7.7-18.7-20.1c0-13.1,8.6-20.7,19.4-20.7
			C627,783.7,634.5,791.9,634.5,803.8z M603.6,804.2c0,8.6,4.9,15,11.9,15c6.8,0,11.9-6.4,11.9-15.2c0-6.6-3.3-15-11.7-15
			C607.2,789,603.6,796.8,603.6,804.2z"/>
		<path class="st3" d="M650.8,769.3v54.4h-7v-54.4H650.8z"/>
		<path class="st3" d="M663,769.9c3.4-0.6,7.8-1,13.5-1c6.9,0,12,1.6,15.3,4.5c3,2.6,4.8,6.5,4.8,11.4c0,4.9-1.5,8.8-4.2,11.6
			c-3.7,4-9.8,6-16.6,6c-2.1,0-4-0.1-5.6-0.5v21.8h-7V769.9z M670.1,796.1c1.5,0.4,3.5,0.6,5.8,0.6c8.5,0,13.6-4.1,13.6-11.6
			c0-7.2-5.1-10.7-12.8-10.7c-3.1,0-5.4,0.2-6.6,0.6V796.1z"/>
		<path class="st3" d="M723.1,769.3h29.3v5.9h-22.3v18.1h20.6v5.8h-20.6v24.6h-7V769.3z"/>
		<path class="st3" d="M766.1,805.4c0.2,9.6,6.3,13.6,13.4,13.6c5.1,0,8.2-0.9,10.8-2l1.2,5.1c-2.5,1.1-6.8,2.4-13,2.4
			c-12,0-19.2-7.9-19.2-19.7c0-11.8,6.9-21.1,18.3-21.1c12.8,0,16.1,11.2,16.1,18.4c0,1.5-0.2,2.6-0.2,3.3H766.1z M786.9,800.3
			c0.1-4.5-1.9-11.5-9.8-11.5c-7.2,0-10.3,6.6-10.9,11.5H786.9z"/>
		<path class="st3" d="M824.2,823.6l-0.6-4.9h-0.2c-2.2,3.1-6.4,5.8-11.9,5.8c-7.9,0-11.9-5.6-11.9-11.2c0-9.4,8.4-14.6,23.5-14.5
			V798c0-3.2-0.9-9-8.9-9c-3.6,0-7.4,1.1-10.2,2.9l-1.6-4.7c3.2-2.1,7.9-3.5,12.8-3.5c11.9,0,14.8,8.2,14.8,16v14.6
			c0,3.4,0.2,6.7,0.6,9.4H824.2z M823.2,803.7c-7.7-0.2-16.5,1.2-16.5,8.8c0,4.6,3.1,6.8,6.7,6.8c5.1,0,8.3-3.2,9.4-6.5
			c0.2-0.7,0.4-1.5,0.4-2.3V803.7z"/>
		<path class="st3" d="M850,773.4v11.2h10.2v5.4H850v21.1c0,4.8,1.4,7.6,5.3,7.6c1.9,0,3.2-0.2,4.1-0.5l0.3,5.3
			c-1.4,0.6-3.6,1-6.3,1c-3.3,0-6-1-7.7-3c-2-2.1-2.7-5.6-2.7-10.2V790H837v-5.4h6.1v-9.4L850,773.4z"/>
		<path class="st3" d="M900.9,813c0,4,0.1,7.6,0.3,10.7h-6.3l-0.4-6.4h-0.2c-1.9,3.1-6,7.3-12.9,7.3c-6.1,0-13.5-3.4-13.5-17.1
			v-22.8h7.1v21.6c0,7.4,2.3,12.4,8.7,12.4c4.8,0,8.1-3.3,9.4-6.5c0.4-1,0.6-2.3,0.6-3.6v-24h7.1V813z"/>
		<path class="st3" d="M912.7,796.8c0-4.6-0.1-8.6-0.3-12.2h6.2l0.2,7.7h0.3c1.8-5.2,6.1-8.6,10.8-8.6c0.8,0,1.4,0.1,2,0.2v6.7
			c-0.7-0.2-1.5-0.2-2.4-0.2c-5,0-8.6,3.8-9.5,9.1c-0.2,1-0.3,2.1-0.3,3.3v20.8h-7V796.8z"/>
		<path class="st3" d="M943,805.4c0.2,9.6,6.3,13.6,13.4,13.6c5.1,0,8.2-0.9,10.8-2l1.2,5.1c-2.5,1.1-6.8,2.4-13,2.4
			c-12,0-19.2-7.9-19.2-19.7c0-11.8,6.9-21.1,18.3-21.1c12.8,0,16.1,11.2,16.1,18.4c0,1.5-0.2,2.6-0.2,3.3H943z M963.8,800.3
			c0.1-4.5-1.9-11.5-9.8-11.5c-7.2,0-10.3,6.6-10.9,11.5H963.8z"/>
		<path class="st3" d="M978.5,816.4c2.1,1.4,5.8,2.8,9.4,2.8c5.2,0,7.6-2.6,7.6-5.8c0-3.4-2-5.2-7.3-7.2c-7-2.5-10.3-6.4-10.3-11.1
			c0-6.3,5.1-11.5,13.5-11.5c4,0,7.4,1.1,9.6,2.4l-1.8,5.2c-1.5-1-4.4-2.3-8-2.3c-4.2,0-6.5,2.4-6.5,5.3c0,3.2,2.3,4.7,7.4,6.6
			c6.8,2.6,10.2,6,10.2,11.8c0,6.9-5.3,11.7-14.6,11.7c-4.3,0-8.2-1-11-2.7L978.5,816.4z"/>
	</g>
	<g class="st1">
		<path class="st3" d="M174.2,906.7V873h-5.5v-5.4h5.5v-1.9c0-5.5,1.2-10.5,4.5-13.6c2.7-2.6,6.2-3.6,9.5-3.6c2.5,0,4.7,0.6,6.1,1.1
			l-1,5.5c-1-0.5-2.5-0.9-4.5-0.9c-6.1,0-7.6,5.3-7.6,11.3v2.1h9.4v5.4h-9.4v33.7H174.2z"/>
		<path class="st3" d="M232.4,886.8c0,14.4-10,20.7-19.4,20.7c-10.6,0-18.7-7.7-18.7-20.1c0-13.1,8.6-20.7,19.4-20.7
			C224.8,866.7,232.4,874.9,232.4,886.8z M201.4,887.2c0,8.6,4.9,15,11.9,15c6.8,0,11.9-6.4,11.9-15.2c0-6.6-3.3-15-11.7-15
			C205,872.1,201.4,879.8,201.4,887.2z"/>
		<path class="st3" d="M241.3,879.8c0-4.6-0.1-8.6-0.3-12.2h6.2l0.2,7.7h0.3c1.8-5.2,6.1-8.6,10.8-8.6c0.8,0,1.4,0.1,2,0.2v6.7
			c-0.7-0.2-1.5-0.2-2.4-0.2c-5,0-8.6,3.8-9.5,9.1c-0.2,1-0.3,2.1-0.3,3.3v20.8h-7V879.8z"/>
		<path class="st3" d="M285.1,853c3.1-0.6,7.9-1.1,12.8-1.1c7,0,11.5,1.2,14.9,4c2.8,2.1,4.5,5.3,4.5,9.6c0,5.2-3.5,9.8-9.2,11.9
			v0.2c5.2,1.3,11.2,5.6,11.2,13.6c0,4.7-1.9,8.2-4.6,10.9c-3.8,3.5-9.9,5.1-18.8,5.1c-4.8,0-8.6-0.3-10.9-0.6V853z M292.1,875.3
			h6.4c7.4,0,11.8-3.9,11.8-9.1c0-6.4-4.8-8.9-11.9-8.9c-3.2,0-5.1,0.2-6.2,0.5V875.3z M292.1,901.4c1.4,0.2,3.4,0.3,5.9,0.3
			c7.3,0,14-2.7,14-10.6c0-7.4-6.4-10.5-14-10.5h-5.8V901.4z"/>
		<path class="st3" d="M361.3,896c0,4,0.1,7.6,0.3,10.7h-6.3l-0.4-6.4h-0.2c-1.9,3.1-6,7.3-12.9,7.3c-6.1,0-13.5-3.4-13.5-17.1
			v-22.8h7.1v21.6c0,7.4,2.3,12.4,8.7,12.4c4.8,0,8.1-3.3,9.4-6.5c0.4-1,0.6-2.3,0.6-3.6v-24h7.1V896z"/>
		<path class="st3" d="M372.1,899.4c2.1,1.4,5.8,2.8,9.4,2.8c5.2,0,7.6-2.6,7.6-5.8c0-3.4-2-5.2-7.3-7.2c-7-2.5-10.3-6.4-10.3-11.1
			c0-6.3,5.1-11.5,13.5-11.5c4,0,7.4,1.1,9.6,2.4l-1.8,5.2c-1.5-1-4.4-2.3-8-2.3c-4.2,0-6.5,2.4-6.5,5.3c0,3.2,2.3,4.7,7.4,6.6
			c6.8,2.6,10.2,6,10.2,11.8c0,6.9-5.3,11.7-14.6,11.7c-4.3,0-8.2-1-11-2.7L372.1,899.4z"/>
		<path class="st3" d="M412.9,856.7c0.1,2.4-1.7,4.4-4.5,4.4c-2.5,0-4.3-1.9-4.3-4.4c0-2.5,1.9-4.4,4.4-4.4
			C411.2,852.2,412.9,854.2,412.9,856.7z M405,906.7v-39.1h7.1v39.1H405z"/>
		<path class="st3" d="M423.9,878.2c0-4-0.1-7.3-0.3-10.6h6.3l0.4,6.5h0.2c1.9-3.7,6.5-7.3,12.9-7.3c5.4,0,13.8,3.2,13.8,16.6v23.3
			H450v-22.5c0-6.3-2.3-11.5-9-11.5c-4.7,0-8.3,3.3-9.5,7.3c-0.3,0.9-0.5,2.1-0.5,3.3v23.5h-7.1V878.2z"/>
		<path class="st3" d="M472.6,888.5c0.2,9.6,6.3,13.6,13.4,13.6c5.1,0,8.2-0.9,10.8-2l1.2,5.1c-2.5,1.1-6.8,2.4-13,2.4
			c-12,0-19.2-7.9-19.2-19.7c0-11.8,6.9-21.1,18.3-21.1c12.8,0,16.1,11.2,16.1,18.4c0,1.5-0.2,2.6-0.2,3.3H472.6z M493.5,883.4
			c0.1-4.5-1.9-11.5-9.8-11.5c-7.2,0-10.3,6.6-10.9,11.5H493.5z"/>
		<path class="st3" d="M508.2,899.4c2.1,1.4,5.8,2.8,9.4,2.8c5.2,0,7.6-2.6,7.6-5.8c0-3.4-2-5.2-7.3-7.2c-7-2.5-10.3-6.4-10.3-11.1
			c0-6.3,5.1-11.5,13.5-11.5c4,0,7.4,1.1,9.6,2.4l-1.8,5.2c-1.5-1-4.4-2.3-8-2.3c-4.2,0-6.5,2.4-6.5,5.3c0,3.2,2.3,4.7,7.4,6.6
			c6.8,2.6,10.2,6,10.2,11.8c0,6.9-5.3,11.7-14.6,11.7c-4.3,0-8.2-1-11-2.7L508.2,899.4z"/>
		<path class="st3" d="M540.1,899.4c2.1,1.4,5.8,2.8,9.4,2.8c5.2,0,7.6-2.6,7.6-5.8c0-3.4-2-5.2-7.3-7.2c-7-2.5-10.3-6.4-10.3-11.1
			c0-6.3,5.1-11.5,13.5-11.5c4,0,7.4,1.1,9.6,2.4l-1.8,5.2c-1.5-1-4.4-2.3-8-2.3c-4.2,0-6.5,2.4-6.5,5.3c0,3.2,2.3,4.7,7.4,6.6
			c6.8,2.6,10.2,6,10.2,11.8c0,6.9-5.3,11.7-14.6,11.7c-4.3,0-8.2-1-11-2.7L540.1,899.4z"/>
		<path class="st3" d="M631.8,904.3c-3.1,1.1-9.4,3-16.7,3c-8.2,0-15-2.1-20.3-7.2c-4.7-4.5-7.6-11.8-7.6-20.3
			c0.1-16.2,11.2-28.1,29.5-28.1c6.3,0,11.2,1.4,13.6,2.5l-1.7,5.7c-2.9-1.3-6.5-2.3-12-2.3c-13.2,0-21.9,8.2-21.9,21.9
			c0,13.8,8.3,22,21,22c4.6,0,7.7-0.6,9.4-1.5v-16.2h-11.1v-5.6h17.9V904.3z"/>
		<path class="st3" d="M642.3,879.8c0-4.6-0.1-8.6-0.3-12.2h6.2l0.2,7.7h0.3c1.8-5.2,6.1-8.6,10.8-8.6c0.8,0,1.4,0.1,2,0.2v6.7
			c-0.7-0.2-1.5-0.2-2.4-0.2c-5,0-8.6,3.8-9.5,9.1c-0.2,1-0.3,2.1-0.3,3.3v20.8h-7V879.8z"/>
		<path class="st3" d="M704,886.8c0,14.4-10,20.7-19.4,20.7c-10.6,0-18.7-7.7-18.7-20.1c0-13.1,8.6-20.7,19.4-20.7
			C696.4,866.7,704,874.9,704,886.8z M673,887.2c0,8.6,4.9,15,11.9,15c6.8,0,11.9-6.4,11.9-15.2c0-6.6-3.3-15-11.7-15
			C676.7,872.1,673,879.8,673,887.2z"/>
	</g>
	<g class="st1">
		<path class="st3" d="M800.3,867.6l5.2,19.9c1.1,4.4,2.2,8.4,2.9,12.4h0.2c0.9-4,2.2-8.2,3.5-12.3l6.4-19.9h6l6.1,19.5
			c1.5,4.7,2.6,8.8,3.5,12.8h0.2c0.6-4,1.7-8.1,3-12.7l5.6-19.6h7l-12.6,39.1h-6.5l-6-18.6c-1.4-4.4-2.5-8.2-3.5-12.8h-0.2
			c-1,4.7-2.2,8.7-3.6,12.9l-6.3,18.6h-6.5l-11.8-39.1H800.3z"/>
	</g>
	<g class="st1">
		<path class="st3" d="M871.2,856.4v11.2h10.2v5.4h-10.2v21.1c0,4.8,1.4,7.6,5.3,7.6c1.9,0,3.2-0.2,4.1-0.5l0.3,5.3
			c-1.4,0.6-3.6,1-6.3,1c-3.3,0-6-1-7.7-3c-2-2.1-2.7-5.6-2.7-10.2V873h-6.1v-5.4h6.1v-9.4L871.2,856.4z"/>
		<path class="st3" d="M889.4,849.4h7.1v24.4h0.2c1.1-2,2.9-3.8,5.1-5c2.1-1.2,4.6-2,7.3-2c5.2,0,13.6,3.2,13.6,16.7v23.2h-7.1
			v-22.4c0-6.3-2.3-11.6-9-11.6c-4.6,0-8.2,3.2-9.5,7.1c-0.4,1-0.5,2-0.5,3.4v23.6h-7.1V849.4z"/>
	</g>
	<g class="st1">
		<path class="st3" d="M195.1,989.7l-0.6-4.9h-0.2c-2.2,3.1-6.4,5.8-11.9,5.8c-7.9,0-11.9-5.6-11.9-11.2c0-9.4,8.4-14.6,23.5-14.5
			v-0.8c0-3.2-0.9-9-8.9-9c-3.6,0-7.4,1.1-10.2,2.9l-1.6-4.7c3.2-2.1,7.9-3.5,12.8-3.5c11.9,0,14.8,8.2,14.8,16v14.6
			c0,3.4,0.2,6.7,0.6,9.4H195.1z M194,969.8c-7.7-0.2-16.5,1.2-16.5,8.8c0,4.6,3.1,6.8,6.7,6.8c5.1,0,8.3-3.2,9.4-6.5
			c0.2-0.7,0.4-1.5,0.4-2.3V969.8z"/>
		<path class="st3" d="M212.4,961.3c0-4-0.1-7.3-0.3-10.6h6.3l0.4,6.5h0.2c1.9-3.7,6.5-7.3,12.9-7.3c5.4,0,13.8,3.2,13.8,16.6v23.3
			h-7.1v-22.5c0-6.3-2.3-11.5-9-11.5c-4.7,0-8.3,3.3-9.5,7.3c-0.3,0.9-0.5,2.1-0.5,3.3v23.5h-7.1V961.3z"/>
		<path class="st3" d="M290.9,932.4v47.2c0,3.5,0.1,7.4,0.3,10.1h-6.4l-0.3-6.8h-0.2c-2.2,4.4-6.9,7.7-13.3,7.7
			c-9.4,0-16.7-8-16.7-19.9c-0.1-13,8-21,17.5-21c6,0,10,2.8,11.8,6h0.2v-23.3H290.9z M283.8,966.6c0-0.9-0.1-2.1-0.3-3
			c-1-4.5-4.9-8.2-10.2-8.2c-7.3,0-11.7,6.5-11.7,15.1c0,7.9,3.9,14.4,11.5,14.4c4.8,0,9.1-3.1,10.4-8.5c0.2-1,0.3-1.9,0.3-3.1
			V966.6z"/>
		<path class="st3" d="M358,988c-2.6,1.3-7.7,2.6-14.4,2.6c-15.3,0-26.9-9.7-26.9-27.5c0-17,11.5-28.6,28.4-28.6
			c6.8,0,11.1,1.5,12.9,2.4l-1.7,5.7c-2.7-1.3-6.5-2.3-11-2.3c-12.8,0-21.2,8.2-21.2,22.4c0,13.3,7.7,21.9,20.9,21.9
			c4.3,0,8.6-0.9,11.5-2.3L358,988z"/>
		<path class="st3" d="M399.3,979.1c0,4,0.1,7.6,0.3,10.7h-6.3l-0.4-6.4h-0.2c-1.9,3.1-6,7.3-12.9,7.3c-6.1,0-13.5-3.4-13.5-17.1
			v-22.8h7.1v21.6c0,7.4,2.3,12.4,8.7,12.4c4.8,0,8.1-3.3,9.4-6.5c0.4-1,0.6-2.3,0.6-3.6v-24h7.1V979.1z"/>
		<path class="st3" d="M410.1,982.5c2.1,1.4,5.8,2.8,9.4,2.8c5.2,0,7.6-2.6,7.6-5.8c0-3.4-2-5.2-7.3-7.2c-7-2.5-10.3-6.4-10.3-11.1
			c0-6.3,5.1-11.5,13.5-11.5c4,0,7.4,1.1,9.6,2.4l-1.8,5.2c-1.5-1-4.4-2.3-8-2.3c-4.2,0-6.5,2.4-6.5,5.3c0,3.2,2.3,4.7,7.4,6.6
			c6.8,2.6,10.2,6,10.2,11.8c0,6.9-5.3,11.7-14.6,11.7c-4.3,0-8.2-1-11-2.7L410.1,982.5z"/>
		<path class="st3" d="M451.6,939.5v11.2h10.2v5.4h-10.2v21.1c0,4.8,1.4,7.6,5.3,7.6c1.9,0,3.2-0.2,4.1-0.5l0.3,5.3
			c-1.4,0.6-3.6,1-6.3,1c-3.3,0-6-1-7.7-3c-2-2.1-2.7-5.6-2.7-10.2v-21.3h-6.1v-5.4h6.1v-9.4L451.6,939.5z"/>
		<path class="st3" d="M505.1,969.9c0,14.4-10,20.7-19.4,20.7c-10.6,0-18.7-7.7-18.7-20.1c0-13.1,8.6-20.7,19.4-20.7
			C497.5,949.8,505.1,958,505.1,969.9z M474.1,970.3c0,8.6,4.9,15,11.9,15c6.8,0,11.9-6.4,11.9-15.2c0-6.6-3.3-15-11.7-15
			C477.7,955.1,474.1,962.9,474.1,970.3z"/>
		<path class="st3" d="M514,961.3c0-4-0.1-7.3-0.3-10.6h6.2l0.3,6.3h0.2c2.2-3.7,5.8-7.2,12.3-7.2c5.3,0,9.4,3.2,11.1,7.8h0.2
			c1.2-2.2,2.7-3.9,4.4-5.1c2.3-1.8,4.9-2.7,8.6-2.7c5.2,0,12.8,3.4,12.8,16.9v23h-6.9v-22.1c0-7.5-2.7-12-8.5-12
			c-4,0-7.2,3-8.4,6.5c-0.3,1-0.6,2.3-0.6,3.6v24.1h-6.9v-23.4c0-6.2-2.7-10.7-8.2-10.7c-4.4,0-7.7,3.6-8.8,7.1
			c-0.4,1-0.6,2.3-0.6,3.5v23.6H514V961.3z"/>
		<path class="st3" d="M585.3,971.5c0.2,9.6,6.3,13.6,13.4,13.6c5.1,0,8.2-0.9,10.8-2l1.2,5.1c-2.5,1.1-6.8,2.4-13,2.4
			c-12,0-19.2-7.9-19.2-19.7c0-11.8,6.9-21.1,18.3-21.1c12.8,0,16.1,11.2,16.1,18.4c0,1.5-0.2,2.6-0.2,3.3H585.3z M606.1,966.4
			c0.1-4.5-1.9-11.5-9.8-11.5c-7.2,0-10.3,6.6-10.9,11.5H606.1z"/>
		<path class="st3" d="M621.8,962.9c0-4.6-0.1-8.6-0.3-12.2h6.2l0.2,7.7h0.3c1.8-5.2,6.1-8.6,10.8-8.6c0.8,0,1.4,0.1,2,0.2v6.7
			c-0.7-0.2-1.5-0.2-2.4-0.2c-5,0-8.6,3.8-9.5,9.1c-0.2,1-0.3,2.1-0.3,3.3v20.8h-7V962.9z"/>
		<path class="st3" d="M664.6,981.2c3.1,1.9,7.7,3.6,12.6,3.6c7.2,0,11.4-3.8,11.4-9.3c0-5.1-2.9-8-10.2-10.8
			c-8.9-3.1-14.4-7.7-14.4-15.4c0-8.5,7-14.8,17.6-14.8c5.6,0,9.6,1.3,12,2.7l-1.9,5.7c-1.8-1-5.4-2.6-10.3-2.6
			c-7.4,0-10.2,4.4-10.2,8.2c0,5.1,3.3,7.6,10.8,10.5c9.2,3.6,13.9,8,13.9,16c0,8.4-6.2,15.7-19,15.7c-5.2,0-11-1.5-13.9-3.5
			L664.6,981.2z"/>
		<path class="st3" d="M737.8,979.1c0,4,0.1,7.6,0.3,10.7h-6.3l-0.4-6.4h-0.2c-1.9,3.1-6,7.3-12.9,7.3c-6.1,0-13.5-3.4-13.5-17.1
			v-22.8h7.1v21.6c0,7.4,2.3,12.4,8.7,12.4c4.8,0,8.1-3.3,9.4-6.5c0.4-1,0.6-2.3,0.6-3.6v-24h7.1V979.1z"/>
		<path class="st3" d="M777.4,988.3c-1.9,1-6,2.3-11.2,2.3c-11.8,0-19.4-8-19.4-19.9c0-12,8.2-20.7,21-20.7c4.2,0,7.9,1,9.8,2
			l-1.6,5.5c-1.7-1-4.4-1.9-8.2-1.9c-9,0-13.8,6.6-13.8,14.8c0,9,5.8,14.6,13.6,14.6c4,0,6.7-1,8.7-1.9L777.4,988.3z"/>
		<path class="st3" d="M813.6,988.3c-1.9,1-6,2.3-11.2,2.3c-11.8,0-19.4-8-19.4-19.9c0-12,8.2-20.7,21-20.7c4.2,0,7.9,1,9.8,2
			l-1.6,5.5c-1.7-1-4.4-1.9-8.2-1.9c-9,0-13.8,6.6-13.8,14.8c0,9,5.8,14.6,13.6,14.6c4,0,6.7-1,8.7-1.9L813.6,988.3z"/>
		<path class="st3" d="M825.8,971.5c0.2,9.6,6.3,13.6,13.4,13.6c5.1,0,8.2-0.9,10.8-2l1.2,5.1c-2.5,1.1-6.8,2.4-13,2.4
			c-12,0-19.2-7.9-19.2-19.7c0-11.8,6.9-21.1,18.3-21.1c12.8,0,16.1,11.2,16.1,18.4c0,1.5-0.2,2.6-0.2,3.3H825.8z M846.6,966.4
			c0.1-4.5-1.9-11.5-9.8-11.5c-7.2,0-10.3,6.6-10.9,11.5H846.6z"/>
		<path class="st3" d="M861.3,982.5c2.1,1.4,5.8,2.8,9.4,2.8c5.2,0,7.6-2.6,7.6-5.8c0-3.4-2-5.2-7.3-7.2c-7-2.5-10.3-6.4-10.3-11.1
			c0-6.3,5.1-11.5,13.5-11.5c4,0,7.4,1.1,9.6,2.4l-1.8,5.2c-1.5-1-4.4-2.3-8-2.3c-4.2,0-6.5,2.4-6.5,5.3c0,3.2,2.3,4.7,7.4,6.6
			c6.8,2.6,10.2,6,10.2,11.8c0,6.9-5.3,11.7-14.6,11.7c-4.3,0-8.2-1-11-2.7L861.3,982.5z"/>
		<path class="st3" d="M893.3,982.5c2.1,1.4,5.8,2.8,9.4,2.8c5.2,0,7.6-2.6,7.6-5.8c0-3.4-2-5.2-7.3-7.2c-7-2.5-10.3-6.4-10.3-11.1
			c0-6.3,5.1-11.5,13.5-11.5c4,0,7.4,1.1,9.6,2.4l-1.8,5.2c-1.5-1-4.4-2.3-8-2.3c-4.2,0-6.5,2.4-6.5,5.3c0,3.2,2.3,4.7,7.4,6.6
			c6.8,2.6,10.2,6,10.2,11.8c0,6.9-5.3,11.7-14.6,11.7c-4.3,0-8.2-1-11-2.7L893.3,982.5z"/>
	</g>
	<g class="st1">
		<path class="st3" d="M363.4,647c1.5,3.1,3.1,9.2,3.1,17.1c0,18.2-11.5,32-32.7,32c-20.2,0-34-13.7-34-33.8
			c0-8.1,1.7-13.1,2.9-15.4l6.8,2c-1.5,3.2-2.7,7.7-2.7,13.1c0,15.2,9.7,25.2,26.7,25.2c15.8,0,26-9.1,26-24.9
			c0-5.1-1.1-10.3-2.7-13.6L363.4,647z"/>
		<path class="st3" d="M297.4,636.8v-8.4h29v-0.2c-2.4-1.3-4.5-3.5-5.9-6c-1.4-2.5-2.4-5.5-2.4-8.6c0-6.2,3.8-16.2,19.9-16.2h27.6
			v8.4h-26.7c-7.5,0-13.8,2.8-13.8,10.7c0,5.5,3.8,9.8,8.4,11.3c1.2,0.5,2.4,0.6,4,0.6h28v8.4H297.4z"/>
		<path class="st3" d="M365.5,557.8l-5.9,0.7v0.3c3.6,2.6,6.9,7.6,6.9,14.2c0,9.4-6.6,14.2-13.3,14.2c-11.2,0-17.4-10-17.3-27.9h-1
			c-3.8,0-10.7,1.1-10.7,10.6c0,4.3,1.3,8.8,3.5,12.1l-5.6,1.9c-2.5-3.8-4.1-9.4-4.1-15.3c0-14.2,9.7-17.7,19-17.7h17.4
			c4,0,8-0.2,11.1-0.8V557.8z M341.8,559.1c-0.2,9.2,1.4,19.7,10.5,19.7c5.5,0,8.1-3.6,8.1-8c0-6-3.8-9.9-7.8-11.2
			c-0.9-0.3-1.8-0.5-2.7-0.5H341.8z"/>
		<path class="st3" d="M334.2,537.3c-5.9,0-10.7,0.2-15.2,0.4v-7.6l8-0.4v-0.2c-5.7-3.5-9-8.9-9-16.5c0-11.2,9.5-19.7,23.6-19.7
			c16.7,0,25,10.2,25,21.1c0,6.1-2.7,11.5-7.3,14.3v0.2h25.2v8.3H334.2z M346.6,528.9c1.2,0,2.4-0.2,3.5-0.4
			c5.9-1.5,9.9-6.6,9.9-12.7c0-8.9-7.3-14.1-17.9-14.1c-9.3,0-17.3,4.9-17.3,13.8c0,5.8,4.1,11.1,10.5,12.8c1.1,0.3,2.3,0.6,3.5,0.6
			H346.6z"/>
		<path class="st3" d="M305.7,472.5H319v-12.1h6.4v12.1h25c5.8,0,9-1.6,9-6.3c0-2.2-0.3-3.8-0.6-4.9l6.3-0.4
			c0.7,1.6,1.2,4.2,1.2,7.5c0,3.9-1.2,7.1-3.6,9.1c-2.5,2.4-6.6,3.3-12.1,3.3h-25.3v7.2H319v-7.2h-11.1L305.7,472.5z"/>
		<path class="st3" d="M343.8,446.2c11.4-0.2,16.1-7.5,16.1-15.9c0-6-1.1-9.7-2.4-12.9l6-1.4c1.3,3,2.9,8.1,2.9,15.4
			c0,14.3-9.4,22.8-23.4,22.8s-25-8.3-25-21.8c0-15.2,13.3-19.2,21.9-19.2c1.7,0,3.1,0.2,3.9,0.3V446.2z M337.8,421.5
			c-5.4-0.1-13.7,2.2-13.7,11.7c0,8.5,7.9,12.3,13.7,13V421.5z"/>
		<path class="st3" d="M333.5,402.9c-5.5,0-10.2,0.1-14.5,0.4v-7.4l9.1-0.3v-0.4c-6.2-2.1-10.2-7.2-10.2-12.9c0-1,0.1-1.6,0.3-2.4h8
			c-0.2,0.9-0.3,1.7-0.3,2.9c0,5.9,4.5,10.2,10.8,11.3c1.2,0.2,2.5,0.4,3.9,0.4h24.8v8.3H333.5z"/>
	</g>
	<g class="st1">
		<path class="st3" d="M634.9,539.4c0,108.8-40.4,168.8-111.2,168.8c-62.5,0-104.8-58.6-105.8-164.4c0-107.3,46.3-166.4,111.2-166.4
			C596.5,377.4,634.9,437.5,634.9,539.4z M461.1,544.3c0,83.2,25.6,130.4,65,130.4c44.3,0,65.5-51.7,65.5-133.4
			c0-78.8-20.2-130.4-65-130.4C488.7,410.9,461.1,457.2,461.1,544.3z"/>
	</g>
	<g class="st1">
		<path class="st3" d="M664.4,702.8v-26.6l34-33c81.7-77.8,118.6-119.1,119.1-167.4c0-32.5-15.8-62.5-63.5-62.5
			c-29,0-53.2,14.8-67.9,27.1l-13.8-30.5c22.2-18.7,53.7-32.5,90.6-32.5c68.9,0,98,47.3,98,93c0,59.1-42.8,106.8-110.3,171.8
			l-25.6,23.6v1h143.7v35.9H664.4z"/>
	</g>
	<g class="st1">
		<defs>
			<rect id="SVGID_5_" y="0" width="2863.6" height="1332.8"/>
		</defs>
		<clipPath id="SVGID_6_">
			<use xlink:href="#SVGID_5_"  style="overflow:visible;"/>
		</clipPath>
		<path class="st4" d="M2085.6,814.5h-454.8c-2,0-3.6-1.6-3.6-3.6V606.7c0-2,1.6-3.6,3.6-3.6h454.8c2,0,3.6,1.6,3.6,3.6v204.2
			C2089.2,812.9,2087.6,814.5,2085.6,814.5"/>
	</g>
	<g class="st1">
		<defs>
			<polygon id="SVGID_7_" points="2086.5,502 1967,870.8 2408.4,852.7 2400.2,502 			"/>
		</defs>
		<clipPath id="SVGID_8_">
			<use xlink:href="#SVGID_7_"  style="overflow:visible;"/>
		</clipPath>
		<path class="st5" d="M2352.9,838.8h-369.2c-4.1,0-7.5-3.3-7.5-7.5V570c0-4.1,3.3-7.5,7.5-7.5h369.2c4.1,0,7.5,3.3,7.5,7.5v261.4
			C2360.4,835.4,2357.1,838.8,2352.9,838.8"/>
		<path class="st6" d="M2344.1,832.7h-351.6c-4.1,0-7.5-3.3-7.5-7.5V576c0-4.1,3.3-7.5,7.5-7.5h351.6c4.1,0,7.5,3.3,7.5,7.5v249.2
			C2351.6,829.4,2348.3,832.7,2344.1,832.7"/>
		<line class="st7" x1="2144.7" y1="763.8" x2="2217.3" y2="763.8"/>
		<line class="st7" x1="2144.7" y1="774.3" x2="2217.3" y2="774.3"/>
		<line class="st7" x1="2144.7" y1="784.8" x2="2217.3" y2="784.8"/>
		<line class="st7" x1="2144.7" y1="795.4" x2="2217.3" y2="795.4"/>
		<line class="st7" x1="2144.7" y1="805.9" x2="2172.9" y2="805.9"/>
		<line class="st8" x1="2084" y1="619.4" x2="2187.7" y2="619.4"/>
		<line class="st8" x1="2084" y1="634.5" x2="2187.7" y2="634.5"/>
		<line class="st8" x1="2084" y1="649.5" x2="2187.7" y2="649.5"/>
		<line class="st8" x1="2084" y1="664.6" x2="2187.7" y2="664.6"/>
		<line class="st8" x1="2084" y1="679.6" x2="2124.2" y2="679.6"/>
		<path class="st9" d="M2235.6,653.5h9.7c0.2-0.9,0.3-1.9,0.3-2.8V629h-25.3V664h12.1c1.1,0,2.2-0.2,3.3-0.4V653.5z"/>
		<path class="st10" d="M2235.6,663.5c4.8-1.2,8.6-5.1,9.7-10h-9.7V663.5z"/>
		<path class="st11" d="M2279.9,753h20.8c0.4-2,0.7-4,0.7-6.1v-46.5H2247v75h25.9c2.4,0,4.8-0.3,7-0.9V753z"/>
		<path class="st12" d="M2279.9,774.5c10.4-2.6,18.5-11,20.8-21.5h-20.8V774.5z"/>
		<path class="st11" d="M2296,644.1h20.8c0.4-2,0.7-4,0.7-6.1v-46.5h-54.4v75h25.9c2.4,0,4.8-0.3,7-0.9V644.1z"/>
		<path class="st12" d="M2296,665.6c10.4-2.6,18.5-11,20.8-21.5H2296V665.6z"/>
	</g>
	<g class="st1">
		<defs>
			<rect id="SVGID_9_" y="0" width="2863.6" height="1332.8"/>
		</defs>
		<clipPath id="SVGID_10_">
			<use xlink:href="#SVGID_9_"  style="overflow:visible;"/>
		</clipPath>
		<path class="st13" d="M2376.5,805.7c-0.1,0.3-0.3,0.8,0.5,1c2,0.4,3.4,1,5.3,1.1c1,0,2-0.2,3.8-0.6c2.1-0.4,3.2-0.8,4.1-1.6
			c0,0,0.3-0.2,0.6-0.5c2-2.1-0.7-19.6-0.9-20.7c0.4-3.9,0.7-7.8,1.1-11.6c2.3-4.6,4.6-9.2,6.8-13.7c0.4-0.7,8.9-14.8,5.1-18.4
			c-0.5-0.5-1.4-0.9-3.1-0.8c-0.6,1.6-1.2,3.1-1.8,4.7c0.5-3.1,0.9-6.8,0.9-10.8c0-2.2-0.1-4.3-0.3-6.3c-0.7-1.3-1.3-2.6-2-4
			c-0.1-0.1-1.2-2.8-4.1-3.2c-2.6-0.4-4.4,1.5-4.5,1.6c-1.3,3.4-2.6,6.9-3.8,10.3c-1.2,18.6-1.7,24.8-2,26.9
			c-0.1,0.8-0.3,2.1-0.3,2.1c-0.1,0,0.5-5.6,0,0.7C2381.1,770.3,2378.8,794.3,2376.5,805.7"/>
		<path class="st14" d="M2453.5,860.8c-0.9,3.5-1.8,6.9-2.7,10.4l-63.6,41.8c-1.7,0.2-6.6,0.4-11.7-2.6c-5.9-3.6-7.8-9.3-8.3-10.7
			c-4.9-16.3-5.9-30.1-5.9-39.6c0-24.7,6.8-45.9,9.1-52c0.5-1.4,2.2-5.8,4-12.1c1.9-6.4,3.2-11.9,4-15.9c4.7,1.7,9.6,2.2,14.3,3.5
			c-1.2,31.6-2.3,63.2-3.5,94.8c1.5-5,5.8-16.2,16.7-24.7c3-2.3,14.7-11.5,29.1-9.6C2438.3,844.3,2443.9,845,2453.5,860.8"/>
		<path class="st15" d="M2355,963c-6.8,0.4-14.8,0.4-23.6-0.4c-8.4-0.8-16-2.2-22.4-3.7c-4.6-0.2-9.7-0.1-15.1,0.3
			c-10.8,0.8-20.2,2.7-28.1,4.9c-1.2,1.1-2.3,2.1-3.5,3.2c0.5,1.8,1,3.6,1.6,5.3c7.8-2,13.5-1.3,17.3-0.3c5.1,1.4,7.5,3.5,12.2,3.4
			c5.3,0,9.5-2.8,12.3-5.1c13.9,3.6,27.7,7.3,41.6,10.9C2348.8,980,2351.2,977.3,2355,963"/>
		<path class="st16" d="M2345.9,1228.5c-3.3-1.2-7.8-2.8-7.2-7.4c0.6-4.6,11.8-10,15.5-13.1c0.3-11.6,1.4-22.6,8.1-32.3
			c0,0,0.3,0.1,0.3,0c0.1-1.5,0.7-1.5,0.4-3.5c-0.3-2-3.9-5.8-5.6-7.5c-2.2,0-4.2,0.2-6.4,0.5c-27.4-31.6-49.5-64.6-50.1-107.6
			c-0.1-4.2-0.1-8,2.3-12.2c4.3-7.8,13.5-13.7,20.7-19.3c9.3-7.1,19.2-13.3,29.5-18.7c1.1-0.6,2.6-1.3,3.5-1.8
			c6-3.2,13.5-6,19.5-7.9c9.1-2.8,12.6-5.3,23.2-7.5c10.6-2.2,48-7.4,54.5-7.3c6.5,0.1,2.6,15.8,2.9,16.8c2.8,9.8,0,15.9-1,24.5
			c-0.1,0.7,0.2,0.7-0.2,1.8c-0.1,0.2,0.4-1.3-0.7,0.5c-4.9,7.2-3.4,12.4-13.5,19.4c-15.4,10.7-43,4.5-64,7.5
			c-8.4,1.2-22.5,8-30.4,13c3.1,15.9,7.4,19.9,14.5,37.7c3.7,9.3,25.1,48,27.3,56.6c2.2,8.6-6-1.9-5.8,2.8c1.4,3.1,3.3,7.5,5.2,10.9
			c6.9,5.9,12.4,12.9,16.4,21c-2.7,1.3-8.6,4-10.6,5c-2,0.9-0.2,0.2-1.3,0.8c-0.2,0.1,0-0.1-0.1-0.1c-1.2,0.5-2.2,1.1-3.4,1.7
			c-0.5-2.3-3-1.5-4.4-0.8c-4.6,2.5-8.4,5.6-11.1,9.7c-2.7,4.1-2.4,9.2-6,12.4c-3.6,3.2-6.9,4.8-11.8,5.7
			C2353,1230.1,2349.2,1229.7,2345.9,1228.5"/>
		<path class="st17" d="M2484.2,1035c0,0-45.9,18.1-71.9,21.5c-26,3.5-43.5-3.2-48.5-2c-5,1.3-19.7,41.2-35.6,56.9
			c-15.9,15.7-60.9,49.3-66,54.1c-5.1,4.8-12.9,24.7-12.9,24.7l-11.1-4l2.3-5.7c0,0-38.1-16.9-41.8-22.5c-3.7-5.5-7.5-25.1-1.9-31.5
			c5.7-6.4,10.2,16.6,17.1,19.4c6.9,2.8,31.8,1.7,39.1-0.7c7.2-2.3,73.8-111.2,82.6-116.8c8.8-5.6,67.3-26.1,80.8-25.9
			c13.5,0.2,65.4-7.7,65.4-7.7L2484.2,1035z"/>
		<path class="st18" d="M2402.1,1061.6c-15.7,0-28.7,0.7-37.8,1.5c-6.7,12.8-13.3,26.9-21.8,38.5c-4.4,6.1-63.1,61.3-64.4,59.6
			l-21.8-27.9c24.5-34.4,48.7-69.1,73.9-102.9c2.5-3.3,5-6.7,8.4-9.2c6.1-4.5,17.7-4.9,25.2-6.8c9.6-2.5,19.3-4.8,29-7.1
			c12.8-3.1,26.2-5.4,38.8-9.5c6.4-2.1,52.2-6.3,52.5-6.4c-1,0.1,1.1,16.9,1.2,18.1c1.7,13.3-0.1,20.1-1.8,25.5
			c-0.4,1.4-4.1,13-13.2,20.6C2456.9,1066.9,2441,1061.8,2402.1,1061.6"/>
		<path class="st16" d="M2262.3,1165.5c-4.5-3-13.5-19.6-13.5-19.6l-35.5-4.7c0,0-9.2-19.6-12.9-18.4c-4.6,1.5-5.6,3.6-6.5,8.2
			c-0.8,3.9-0.9,7.9-0.5,11.8c0.7,6.1,2.9,12.1,6.4,17.2c3.6,5.2,9.9,6,15.2,9.1c5.8,3.4,11.5,6.9,17.4,10.1c1.7,1,4.1,2.8,2.1,4.8
			l14.9,8.2L2262.3,1165.5z"/>
		<path class="st15" d="M2461.6,789l0.4,39.6c-13.1,2.6-26.2,5.3-39.2,7.9c2.8-2.6,7.7-7.7,10.5-15.6c4.7-12.8,0.9-24.2-0.3-27.5
			C2442.6,792,2452.1,790.5,2461.6,789"/>
	</g>
	<g class="st1">
		<defs>
			<path id="SVGID_11_" d="M2433.1,793.4c1.2,3.3,5,14.6,0.3,27.5c-2.9,7.9-7.7,13-10.5,15.6c13.1-2.6,26.2-5.3,39.2-7.9l-0.4-39.6
				C2452.1,790.5,2442.6,792,2433.1,793.4"/>
		</defs>
		<clipPath id="SVGID_12_">
			<use xlink:href="#SVGID_11_"  style="overflow:visible;"/>
		</clipPath>
		<g class="st19">
			<g>
				<defs>
					<rect id="SVGID_13_" x="2424.2" y="790.4" width="28.4" height="19.2"/>
				</defs>
				<clipPath id="SVGID_14_">
					<use xlink:href="#SVGID_13_"  style="overflow:visible;"/>
				</clipPath>
				<path class="st20" d="M2452.4,790.6c1.2,1.2-3.2,7.9-11.3,13.3c-4.1,2.7-7.9,4.6-11.3,5.4c-3.4,0.9-5.8-0.1-5.7-1
					c0.1-0.9,1.7-1.5,3.9-3.1c2.2-1.6,5.7-4,9.4-6.5C2445.1,793.7,2451.1,789.4,2452.4,790.6"/>
			</g>
		</g>
	</g>
	<g class="st1">
		<defs>
			<rect id="SVGID_15_" y="0" width="2863.6" height="1332.8"/>
		</defs>
		<clipPath id="SVGID_16_">
			<use xlink:href="#SVGID_15_"  style="overflow:visible;"/>
		</clipPath>
		<path class="st21" d="M2408.4,852.7c2.2-7.1,12.8-14.5,15.9-18.6c0,0,2,2.5,10.9,0c5.4-1.6,16.5-6.1,26.9-17.4
			c0,0,14.8,4.9,17.1,7.1c12.4,12.1,10.4,39.3,9.4,108.3c-0.4,25.7-0.9,47.1-1.3,62.1c-2.4,2.4-20.1,20-47.2,17.8
			c-25-2.1-39.2-19.5-41.5-22.4c0.8-19.7,1.8-35.7,2.5-46.5c1.7-24.4,2.3-38.3,4.1-57C2406.6,871.2,2406.2,859.8,2408.4,852.7"/>
	</g>
	<g class="st1">
		<defs>
			<path id="SVGID_17_" d="M2435.2,834c-8.9,2.6-10.9,0-10.9,0c-3.2,4.1-13.7,11.5-15.9,18.6c-2.2,7.1-1.8,18.5-3.2,33.3
				c-1.8,18.6-2.4,32.6-4.1,57c-0.8,10.9-1.7,26.8-2.5,46.5c2.3,2.9,16.5,20.4,41.5,22.4c27.1,2.2,44.8-15.4,47.2-17.8
				c0.4-15,1-36.3,1.3-62.1c1-68.9,3-96.2-9.4-108.3c-2.3-2.2-17.1-7.1-17.1-7.1C2451.7,827.9,2440.6,832.5,2435.2,834"/>
		</defs>
		<clipPath id="SVGID_18_">
			<use xlink:href="#SVGID_17_"  style="overflow:visible;"/>
		</clipPath>
		<path class="st22" d="M2377.1,994.6l-2.2-7.6c2.9-0.8,5.9-0.8,8.4-0.7c1.4,0,2.8,0.1,4.1-0.1l2.3-0.2c8.2-0.8,16.7-1.5,23.9-4.9
			c7.7-3.6,14.4-8.3,19.5-13.5c3.1-3.2,6.1-6.9,9.5-11.5c3.2-4.5,6.6-9.8,10.5-16.7c3.8-6.8,6.5-13.3,8.1-20.1l0.9-3.7
			c1.7-7,3.4-13.6,3.5-20.5c0-2.8,0-5.7,0-8.5c0-2.4,0-4.8,0-7.3c0-1-0.1-2-0.3-3.2c-0.1-0.7-0.2-1.4-0.3-2.1l7.9-0.8
			c0.1,0.6,0.1,1.2,0.2,1.8c0.2,1.4,0.4,2.8,0.4,4.3c0,2.4,0.1,12.9,0,15.8c-0.1,7.8-1.9,15.1-3.7,22.2l-0.9,3.7
			c-1.8,7.5-4.7,14.7-8.9,22.1c-2.6,4.5-6.5,11.2-11,17.4c-3.6,5-6.9,9-10.3,12.4c-5.7,5.9-13.3,11.1-21.8,15.1
			c-8.4,4-17.6,4.8-26.5,5.6l-2.2,0.2c-1.7,0.2-3.4,0.1-5,0.1C2381,994.1,2378.9,994.1,2377.1,994.6"/>
		<path class="st22" d="M2399.9,960.3c-0.3-1.8,0.3-2.9,0.7-3.8l0.2-0.4c0.5-1,0.7-2.3,1-3.7c0.2-1.1,0.4-2.1,0.7-3.1
			c0.5-1.5,2.2-7.8,2.2-7.8c4.3-14.9,10.2-29.4,17.6-43.2c3.7-6.9,7.8-13.6,12.1-19.9c1.9-2.8,3.9-5.5,6.9-8.1
			c1.1-0.9,2.4-1.8,3.7-2.7c2.2-1.5,4.4-3.1,5.7-4.7l4,2.9c-1.7,2.4-4.3,4.2-6.9,5.9c-1.2,0.8-2.4,1.6-3.3,2.4
			c-2.3,1.9-3.9,4.1-6,7.1c-4.3,6.2-8.2,12.8-11.8,19.5c-7.2,13.4-13,27.6-17.2,42.2c0,0-1.8,6.2-2.2,7.8c-0.2,0.8-0.4,1.7-0.6,2.6
			c-0.3,1.5-0.6,3.3-1.4,4.9l-0.2,0.5c-0.3,0.6-0.3,0.6-0.3,0.8L2399.9,960.3z"/>
	</g>
	<g class="st1">
		<defs>
			<rect id="SVGID_19_" y="0" width="2863.6" height="1332.8"/>
		</defs>
		<clipPath id="SVGID_20_">
			<use xlink:href="#SVGID_19_"  style="overflow:visible;"/>
		</clipPath>
		<path class="st23" d="M2454.3,793.2c2-0.2,1.5-0.6,7.8-2.6c5-1.5,8.9-1.9,12.3-6.5c2.7-3.8,3.6-8.2,5.3-12.4
			c1.8-4.5,3.6-9,4.7-13.8c0.3-1.4,4-17.4-4.2-29.9c-8-12.2-26.1-19.7-40.5-17.8c-4.2,0.5-8.9,2-12.9-0.7c-4.4-3-5.4-9.2-5.5-14
			c-2.5,3.1-9.5,12.5-10.4,26.6c-0.8,14.1,4.9,24.2,7.1,27.7c1.5,3.6,3.7,8.5,6.9,14.1c5.3,9.2,10.1,14.9,11.2,16.1
			C2442.5,787.6,2447.9,793.8,2454.3,793.2"/>
		<path class="st24" d="M2426,728.5c-3.4,6-9.8,25.2-10,27.5c-0.2,2.3-1.1,5.6-3.1,7.1s-8.3,6-8.8,7.6c-0.5,1.6,2.7,4.9,4.5,4.6
			c1.7-0.3,6.1-0.8,6.1-0.8s-0.3,20.3,0.7,24.4c1,4.1,7.5,7,11.6,6.1c4.1-1,21.9-5.3,28.5-13.3c6.6-8,7.9-12.9,7.9-12.9
			s9.6-5.6,8.2-12.4c-1.4-6.8-6.1-8-8.9-8.1c-2.8-0.1-7.2,3.4-7.2,3.4s-7.1-14.9-5.5-19.6c1.5-4.7,2.4-3.8,2.4-3.8
			s-9.8,1.2-14.9-1.8C2432.5,733.5,2426,728.5,2426,728.5"/>
		<g class="st25">
			<g>
				<defs>
					<rect id="SVGID_21_" x="2458.7" y="763.1" width="8.7" height="10"/>
				</defs>
				<clipPath id="SVGID_22_">
					<use xlink:href="#SVGID_21_"  style="overflow:visible;"/>
				</clipPath>
				<path class="st26" d="M2462.9,772.4c0-0.3,1.2-0.2,1.8-0.9c0.6-0.6,0.9-2.7,0.1-4.3c-0.8-1.6-2.5-2.5-3.6-2.4
					c-1.4,0.1-2.6,0-2.5-0.4c0.1-0.3,0.7-0.6,2.2-1.2c1.8-0.6,4.5,0.4,5.8,2.9c1.1,2.5,0.7,5.3-1.1,6.5c-0.9,0.6-1.7,0.4-2.2,0.2
					C2463,772.7,2462.9,772.5,2462.9,772.4"/>
			</g>
		</g>
		<path class="st27" d="M2477.1,870.8c7.9,12.4-1,30.3-14.4,56.2c-16.5,31.9-24.8,47.8-38.6,55.6c-26.3,14.6-58.5,6.6-78.7,1.6
			c-9.9-2.4-17.8-5.4-23.3-7.6c1.9-5.1,3.7-10.3,5.6-15.4c10.7,0.1,21.3,0.1,32,0.2c14.5-2.3,29.1-4.5,43.6-6.8
			c6.1-25.1,14.3-44.8,21.1-58.8c15.2-31.1,24-34.6,29.3-35.4C2462.1,859,2472.3,863.3,2477.1,870.8"/>
		<line class="st28" x1="1097.3" y1="1243" x2="1850.7" y2="1243"/>
		<line class="st29" x1="1850.7" y1="1243" x2="2803.1" y2="1243"/>
		<path class="st30" d="M2316.5,982.3h-385c1.4,3.8,1.6,8.2,0.8,11.9c-1.2,5.1-3.1,9.5-5.6,13.6h389.9c5.3,0,9.6-4.3,9.6-9.6v-6.3
			C2326.1,986.6,2321.8,982.3,2316.5,982.3"/>
		<polygon class="st23" points="2253,1007.7 2276.6,1243 2286.5,1243 2286.5,1007.7 		"/>
		<path class="st31" d="M1940.5,974.5h-436c-2.6,0-4.6,2.1-4.6,4.6v36.6c0,2.6,2.1,4.6,4.6,4.6h415.1
			C1923.2,1003.9,1932.4,989.4,1940.5,974.5"/>
		<polygon class="st32" points="1559.8,1020.3 1520.9,1243 1531.9,1243 1572.5,1031.1 1918.9,1031.1 1922.1,1020.3 		"/>
		<line class="st33" x1="2148.1" y1="308.5" x2="1825.9" y2="1321.2"/>
		<path class="st34" d="M2368.8,1085.4h122.2c1.1,0,2-0.9,2-2v-20.1c0-1.1-0.9-2-2-2h-122.2c-1.1,0-2,0.9-2,2v20.1
			C2366.8,1084.6,2367.7,1085.4,2368.8,1085.4"/>
		<path class="st34" d="M2523.1,985.1c0-20.5-0.5-40.7,0.3-61.1c0.5-13.5,0.4-27.1-1.6-40.5c-0.9-5.9-4.8-32.8-16.5-27.7
			c-2.3,1-3.3,4.2-3.6,5.7c0.5,41.2,1,82.4,1.6,123.7c0,5.4,3.6,9.7,8,9.7h3.8C2519.5,994.8,2523.1,990.4,2523.1,985.1"/>
		<path class="st35" d="M2523.6,915.7v129.4c0,10.4-4.1,20.4-11.5,27.8c-7.4,7.4-17.4,11.5-27.8,11.5h-96.8"/>
		<rect x="2432.9" y="1085.4" class="st23" width="9.8" height="140.5"/>
		<rect x="2425" y="1149.7" class="st23" width="25.5" height="48.1"/>
		<path class="st23" d="M2351.9,1230.7c11.4-7.6,43.1-26.5,87.7-26c42.4,0.5,72.5,18.3,84,26v-8c-12.1-7.7-42.2-24.5-84-25
			c-44-0.5-75.6,17.3-87.7,25V1230.7z"/>
		<path class="st23" d="M2512.6,1230.7c0-6.1,4.9-11,11-11c6.1,0,11,4.9,11,11c0,6.1-4.9,11-11,11
			C2517.6,1241.7,2512.6,1236.7,2512.6,1230.7"/>
		<path class="st23" d="M2340.9,1230.7c0-6.1,4.9-11,11-11c6.1,0,11,4.9,11,11c0,6.1-4.9,11-11,11
			C2345.9,1241.7,2340.9,1236.7,2340.9,1230.7"/>
		<path class="st23" d="M2427.4,1230.7c0-5.7,4.6-10.4,10.4-10.4s10.4,4.6,10.4,10.4c0,5.7-4.6,10.4-10.4,10.4
			S2427.4,1236.4,2427.4,1230.7"/>
		<path class="st23" d="M2224.4,974.3h76.9c0.4,0,0.7,0.3,0.7,0.7v5.6c0,0.4-0.3,0.7-0.7,0.7h-76.9c-0.4,0-0.7-0.3-0.7-0.7V975
			C2223.7,974.6,2224,974.3,2224.4,974.3"/>
		<path class="st23" d="M2121.8,930.4h-8.4c-0.8,0-1.4-0.6-1.4-1.4V783.5c0-0.8,0.6-1.4,1.4-1.4h8.4c0.8,0,1.4,0.6,1.4,1.4v145.5
			C2123.2,929.7,2122.6,930.4,2121.8,930.4"/>
		<path class="st23" d="M2076,977l6.7,1.8c0.5,0.1,0.9-0.2,1.1-0.6l30.1-112.4c0.1-0.5-0.2-0.9-0.6-1.1l-6.7-1.8
			c-0.5-0.1-0.9,0.2-1.1,0.6l-30.1,112.4C2075.3,976.4,2075.5,976.9,2076,977"/>
		<path class="st23" d="M2061.8,982.3h44.1c0.8,0,1.4-0.6,1.4-1.4v-11.1c0-0.8-0.6-1.4-1.4-1.4h-44.1c-0.8,0-1.4,0.6-1.4,1.4v11.1
			C2060.4,981.6,2061,982.3,2061.8,982.3"/>
		<path class="st23" d="M2126.3,766c0,5.2-4.2,9.5-9.5,9.5c-5.2,0-9.5-4.2-9.5-9.5c0-5.2,4.2-9.5,9.5-9.5
			C2122.1,756.5,2126.3,760.8,2126.3,766"/>
	</g>
	<g class="st1">
		<defs>
			<path id="SVGID_23_" d="M2107.4,766c0,5.2,4.2,9.5,9.5,9.5s9.5-4.2,9.5-9.5c0-5.2-4.2-9.5-9.5-9.5S2107.4,760.8,2107.4,766"/>
		</defs>
		<clipPath id="SVGID_24_">
			<use xlink:href="#SVGID_23_"  style="overflow:visible;"/>
		</clipPath>
		<path class="st36" d="M2121.6,765.7c0,2.7,1.7,4.9,3.8,4.9c2.1,0,3.8-2.2,3.8-4.9c0-2.7-1.7-4.9-3.8-4.9
			C2123.3,760.9,2121.6,763,2121.6,765.7"/>
	</g>
	<g class="st1">
		<defs>
			<rect id="SVGID_25_" y="0" width="2863.6" height="1332.8"/>
		</defs>
		<clipPath id="SVGID_26_">
			<use xlink:href="#SVGID_25_"  style="overflow:visible;"/>
		</clipPath>
		<path class="st37" d="M2112.8,780.9h6.9c0.4,0,0.6-0.3,0.6-0.6v-5.7c0-0.4-0.3-0.6-0.6-0.6h-6.9c-0.4,0-0.6,0.3-0.6,0.6v5.7
			C2112.2,780.6,2112.4,780.9,2112.8,780.9"/>
		<path class="st37" d="M2113,784.9h6.5c1.9,0,3.5-1.6,3.5-3.5c0-1.9-1.6-3.5-3.5-3.5h-6.5c-1.9,0-3.5,1.6-3.5,3.5
			C2109.5,783.4,2111.1,784.9,2113,784.9"/>
		<path class="st38" d="M2112.2,766c-13.7,6.5-16.9,12.2-17,16.4c-0.2,6.6,7.3,8.6,8,17.1c0.7,7.8-5.4,9.3-8,20.8
			c-0.8,3.5-3.3,14.8,3.2,23.5c4.6,6.1,11.4,8,14.3,8.7"/>
		<path class="st39" d="M1691,910.9h-15.4c-0.6,0-1-0.4-1-1V696.5c0-0.6,0.4-1,1-1h15.4c0.6,0,1,0.4,1,1v213.5
			C1692,910.5,1691.5,910.9,1691,910.9"/>
		<path class="st39" d="M1734.3,956.8h-18V812.1c0-1.6,1.3-2.9,2.9-2.9h12.2c1.6,0,2.9,1.3,2.9,2.9V956.8z"/>
		<rect x="1683.3" y="829.4" class="st39" width="39.2" height="13.3"/>
		<path class="st39" d="M1748,956.8h-48.4c-9.8,0-17.7,7.9-17.7,17.7h83.8C1765.7,964.7,1757.8,956.8,1748,956.8"/>
		<path class="st39" d="M1639.8,965.6h-98.2c-2.4,0-4.4,2-4.4,4.4c0,2.4,2,4.4,4.4,4.4h98.2c2.4,0,4.4-2,4.4-4.4
			C1644.2,967.6,1642.2,965.6,1639.8,965.6"/>
		<path class="st40" d="M1419.1,777.3c0,0-27-19.2-44.3-16.8c-17.3,2.4-24.8,11.8-30.5,19.8c-9.1,12.4-5.4,26.2-5,45.1
			c0.3,16.9-12.5,21.2-16.9,30.2c-4.3,9.1-53.3,59.5-40.6,84.5c22.7,44.8,88.7,15.9,88.7,15.9l25.4-139.1
			C1395.8,816.9,1429.8,788.4,1419.1,777.3"/>
		<path class="st41" d="M1465.5,852.6c0,0.4-0.3,0.7-0.7,0.8c-1.8,0.4-5.7,0.8-9.8-1.2c-1.5-0.7-5.6-2.6-7.2-6.7
			c-2.2-5.3,1.4-10.1,6-24.8c1.4-4.4,2.3-8,2.9-10.3c0-0.2,0-0.4-0.1-0.6c-2.4-5.6-4.8-11.3-7.2-16.9c-1.4-3.4-1.3-7.2,0.3-10.5
			c2.6-5.3,4.5-9.4,7.3-15.1c0.9-1.8,2.5-3.2,4.5-3.8c2.2-0.6,4.2-1.2,6.3-1.8c0.8-0.2,1.6-0.1,2.2,0.4c0.6,0.5,1,1.2,1,2
			c0,4.2-0.1,13.5-0.2,34.3c0,0,0,0.1,0,0.1C1470.2,803.6,1466.8,838.8,1465.5,852.6"/>
		<polygon class="st42" points="1280.1,1093.1 1370.6,1157.4 1370.6,1163.3 1277.4,1097.7 		"/>
		<polygon class="st42" points="1280.4,1073.1 1237,1237.1 1244.5,1237.1 1284.2,1086.9 1306.4,1080 		"/>
		<polygon class="st42" points="1351.1,1073.1 1394.5,1237.1 1386.9,1237.1 1347.3,1086.9 1325,1080 		"/>
		<polygon class="st42" points="1350.9,1093.1 1263.1,1155.1 1260.8,1163.3 1353.6,1096.3 		"/>
		<path class="st40" d="M1204.4,924c0.2-3.7,3.1-7.6,6.8-7.3c3,0.3,5,3,6.7,5.5c14,21.1,31.1,46.4,36.3,71.6
			c4.1,20,22.7,58.5,41.7,62.6c18.9,4.1,112.5,10.8,112.5,10.8c5,0.7,1.3,6.9-9.1,8.5c-32.7,5.2-67,8.1-100.1,6.3
			c-16.7-0.9-38.5-3.1-49.2-17.8c-8.1-11.1-5.8-25.3-7.7-38.2c-2.3-15.1-6-30-11.1-44.4c-3.6-10.1-7.9-20-12.7-29.6
			c-4-7.9-13.9-18.7-14.2-27.6C1204.4,924.4,1204.4,924.2,1204.4,924"/>
		<polygon class="st43" points="1425.3,1173 1424.1,1195 1452.1,1195 1451,1167.7 		"/>
		<polygon class="st43" points="1510.5,1140.4 1511.9,1156.9 1544.7,1140.4 1542.9,1137.9 1529.3,1132.3 		"/>
		<path class="st44" d="M1417.4,1188.1c0,0-3.7,34.4-1.8,37.2c1.8,2.8,21.4-1.4,30.7,0c9.2,1.4,19.9,11.4,29.9,11.7
			c10,0.3,27.7-9.3,27.7-9.3s-2.6-8.3-5.2-10.3c-2.6-2.1-19.9-6.5-21.8-9.6c-1.8-3.1-17.4-21.4-21.1-22.1c-3.7-0.7-17,4.5-20.3,4.5
			C1432.2,1190.2,1417.4,1188.1,1417.4,1188.1"/>
		<path class="st44" d="M1503.8,1150c0,0-0.9,15.2,0,18.8c0.9,3.7,25.7,9.2,30.8,11.5c5.1,2.3,5.1,12.4,15.6,15.2
			c10.6,2.8,38.1-6.4,39-16.1c0.9-9.6-16.5-14.2-24.8-19.8c-8.3-5.5-19.3-25.3-23-25.7c-3.7-0.5-1.6,7.7-13.1,12.2
			C1516.4,1150.7,1507.5,1145,1503.8,1150"/>
		<path class="st41" d="M1409.1,786.5c0,0,3.7,13.3,3,19c-0.4,3.1-1.9,7.1-2.4,9.1s6.9,8.1,6.9,9.9c0.1,1.7-5.3,4.4-6,3
			c0.8,9.8-0.1,15.9-1.8,18.9c-2.7,6.2-13.2,2.9-13.2,2.9l-17.5-9.5l-7.9-1.2l-0.6-8.7c0,0-9.2-5.2-9.4-13c-0.1-3.6,3-7.5,7.6-5.5
			c4.6,2,8.1,5.3,8.1,5.3l3.9,5.9c0,0-2.4-6.8,3.2-12.6c5.6-5.8,13.7-7,16.3-11.1C1401.9,794.7,1408,782,1409.1,786.5"/>
		<path class="st41" d="M1398.1,840.4l-3.1,38l-43.6-11.1c0,0,19-27.5,22.2-34.4C1376.8,826,1398.1,840.4,1398.1,840.4"/>
		<path class="st42" d="M1319.6,1050.4c0,0,40,15.8,85.8,19.6c19.6,6.2,21.4,9,18.9,18.9s-6,24.8-4.8,39.5
			c1.2,14.7,3.5,54.2,3.5,54.2s14.2,2.3,20.2,0.5c6-1.8,9.2-9.2,9.2-9.2v-24.8c0,0,8.7-35.8,10.6-46.4c1.8-10.6-3.2-58.8-3.2-58.8
			l-63.8-6.4L1319.6,1050.4z"/>
		<path class="st45" d="M1304.5,1033.1c0,0,0.7,16.5,0,20.3c-0.7,3.8,13.1,9,26.5,10.3c13.4,1.4,69.2-0.7,73.4-2.8
			c4.1-2.1,25.8-17.6,35.8-14.8c10,2.8,24.8,33.4,31.7,46.2c6.9,12.7,38.2,55.1,38.2,55.1l24.5-14.5c0,0-12.7-12.1-15.5-19.6
			c-2.8-7.6-22-46.5-22-46.5l-44.4-68.2l-133.7,6.9l-14.5,4.8V1033.1z"/>
		<path class="st44" d="M1370.4,886.6c0,0,33.1-13.9,36.7-13.3l7.2,1.3c0.5-2.1,1.1-3.3,1.9-4.3c3-3.6,5.8-3.3,9.4-6.2
			c4-3.3,1.8-5.2,7.2-11.6c1.1-1.2,8.2-8.4,6.6-6.8c0,0,6.4-11.6,6.8-14.8c0.1-1,2-2.9,3.8-3.7c1.6-0.7,3.4-3.2,3.4-3.2
			c-0.5,1.3-3.5,9.1-4.5,11.8c2.1,8.8,6.2,14.5,8.7,14.1c0.6-0.1,2.1-0.6,3.5-1.7c0.8-0.6,1.4-1.3,2.1-2.3c1.9-2.7,3.2-6.5,3.8-8.4
			c1.1,4,2.3,11.4,1.5,19.4c-0.2,2-0.9,8.5-4.5,16.6c-6.1,13.8-16.9,23.6-36.1,40.1c-28,24.1-31,25.4-35.3,25.3
			c-18.8-0.5-31.4-26.7-33.6-31.3c0,0,17-9.8,17.1-13.6C1376.1,890.3,1370.4,886.6,1370.4,886.6"/>
		<path class="st37" d="M1295.9,1020c0,0,5.5,7.9,4.5,11.4c-1,3.4-2.2,9-2.2,9s24.9-2.1,28.7-3.1c3.8-1,9.3-11.4,9.3-11.4l35.1-20.3
			L1295.9,1020z"/>
		<path class="st37" d="M1454.7,979.9c0,0,18.1,8,18.4,8.7c0.2,0.7-6.4,8.3-9.2,11.9c-2.8,3.7-3.7,9.9-3.7,9.9l-15.2-5.1l-3.7-13.5
			L1454.7,979.9z"/>
		<path class="st43" d="M1331.6,1024.2c0,0-10.6,0.7-25,0c-14.5-0.7-14.5,2.1-16.5-10.3c-2.1-12.4,0.7-35.8,11.7-79.9
			c11-44.1,58.3-83.7,58.3-83.7s1.5-2.1,7,2.7c5.5,4.8,18.8,23.5,23.9,23.2c5.2-0.3,5.9-7.6,5.9-7.6s1.4-3.8,6.9,9.2
			c5.5,13,0.5,34.2,0.5,34.2l-14.2,73.7l-1.1,16.1L1331.6,1024.2z"/>
		<path class="st43" d="M1336.2,928.6c0,0,9.2,42.3,14.7,52.8c5.5,10.6,28.9,27.6,36.3,25.3c7.3-2.3,18.8,9.2,25.7,8.3
			c6.9-0.9,12.4-6.9,18.8-6.4c6.4,0.5,17.9,2.8,19.3,0.9c1.4-1.8-5.5-8.7-2.8-13.3s4.6-3.7,8.3-8.7c3.7-5.1,5.1-4.1,6-7.8
			c0.9-3.7-22-5-27.1-7.8c-5.1-2.8-14.7-6.5-14.7-11.5s3.6-4.4-1-7.6c-4.6-3.2,1.3-8.6-5.5-7.9c-11.5,1.1-23.8-9.3-23.8-19.4
			c0-10.1-2.8-18.4-7.8-25.7c-5.1-7.3-12.9-15.6-12.9-22C1369.7,871.2,1336.2,928.6,1336.2,928.6"/>
		<path class="st41" d="M1467.6,992.5c7,5.6,6.3,3,13.5,13.7c2.3,3.5,4.3,6.9,6,10.1c0.8,0.8,1.4,1.8,1.8,2.9l2.2,5.9l-2.5,25.7
			c0,0.4-0.3,0.7-0.6,0.9c-0.3,0.2-0.7,0.2-1.1,0c-1.4-0.8-3.3-1.9-3.6-2.8c-0.3-1.4,0.4-9.1,0.4-9.1l-1.1,2.1
			c-0.7,1.3-2.1,2.2-3.6,2.3l-6.8,0.3c-1.5,0.1-2.9-0.5-4-1.5c-1.1-1-1.6-2.4-1.6-3.9l0.3-16c-0.3-2.5-0.5-5.1-0.8-7.6
			c-2.4-3.3-5.1-6.8-8.2-10.4c-0.1-0.1-0.6-0.4-0.9-0.9c-0.8-1.8,1.4-4.3,2.5-5.6C1461,996.9,1463.5,994.5,1467.6,992.5"/>
		<path class="st46" d="M1397.3,849.7c0,0-15.7-10.5-17.1-12.6c-1.4-2.1,16,26.6,16,26.6L1397.3,849.7z"/>
		<path class="st46" d="M1366.3,817.5c-0.9,1.7,1.6,3.7,1.5,5.3c-0.1,1.6-4.2,0.4-4-4.8c0.2-5.2,2.6-4.8,4-4.3
			C1369.2,814.3,1367.8,814.8,1366.3,817.5"/>
		<line class="st47" x1="1842.2" y1="850.4" x2="1845.9" y2="847.9"/>
		<path class="st48" d="M1867.3,885.2c1.4,0.7,2.7,1.4,4,2.1"/>
		<path class="st41" d="M2637.4,1185.2c0,0,1.4,17,1.8,21.1c0.5,4.1,4.6,8.7,4.6,16.5c0,7.8-44.6,15.2-44.6,15.2h-30.3l7.4-18.8
			c0,0,23.4-9.7,27.1-13.8c3.7-4.1,6.3-23.9,6.3-23.9L2637.4,1185.2z"/>
	</g>
	<g class="st1">
		<defs>
			<path id="SVGID_27_" d="M2603.4,1205.4c-3.7,4.1-27.1,13.8-27.1,13.8l-7.4,18.8h30.3c0,0,44.6-7.4,44.6-15.2
				c0-7.8-4.1-12.4-4.6-16.5c-0.5-4.1-1.8-21.1-1.8-21.1l-27.8-3.7C2609.6,1181.5,2607,1201.3,2603.4,1205.4"/>
		</defs>
		<clipPath id="SVGID_28_">
			<use xlink:href="#SVGID_27_"  style="overflow:visible;"/>
		</clipPath>
		<path class="st49" d="M2600.5,1192.8c0,0,21.7,5.2,26.9,4.9c5.2-0.2,23.4,0,23.4,0l-7.1-19.5l-61.5-2.4L2600.5,1192.8z"/>
	</g>
	<g class="st1">
		<defs>
			<rect id="SVGID_29_" y="0" width="2863.6" height="1332.8"/>
		</defs>
		<clipPath id="SVGID_30_">
			<use xlink:href="#SVGID_29_"  style="overflow:visible;"/>
		</clipPath>
		<path class="st50" d="M2642.3,1203.1c0,0-16.2-2.4-21,0c-4.8,2.4-24.2,15.6-32.2,15.6s-12.9,0.5-12.9,0.5s-23.6,8.7-28.7,9.1
			c-5.2,0.3-7.2,6.4-3.4,9.8c3.8,3.3,98.2,3,98.2,3s7.9-5.5,6.2-12.8C2646.8,1221.1,2642.3,1203.1,2642.3,1203.1"/>
		<path class="st50" d="M2646.1,865.8c0,0,12.4,27.6,11,38.1c-1.4,10.6-10.1,27.6-11,47.3c-0.9,19.8-9.7,53.3-9.7,59.3
			c0,6,1.4,36.3,1.4,36.3s13.1,17,15.2,49.4c2.1,32.4,4.2,92.4,4.2,92.4s-14.6,4.1-20.8,4.1c-6.2,0-30.3-6.9-30.3-6.9
			s2.1-58.6,0-67.6c-2.1-9-8.3-29.6-9-35.8c-0.7-6.2-9.7-11.7-9.7-18.6s-6.9-55.8-10.3-58.6c-3.4-2.8-14.4-59.3-13.7-64.8
			c0.6-5.5,2.2,3.4-0.3-13.1c-2.5-16.5,0-24.8,0-24.8l0.8-7.9c0,0,22.9-35.5,31.7-36.2C2604.3,857.8,2646.1,865.8,2646.1,865.8"/>
		<path class="st51" d="M2621.3,669.5c0,0-44.6,26.7-50.6,39.5c-6,12.9-9.7,38.6-6.4,46c3.2,7.4,0.9,54.2,0.9,54.2l-1.4,87.8
			c0,0,33.1-11.9,52.9-15.6c19.8-3.7,37.7-7.4,37.7-7.4s-12.4-33.1-13.3-59.7c-0.9-26.7,6.4-75.4,1.8-95.6
			C2638.3,698.5,2621.3,669.5,2621.3,669.5"/>
		<path class="st52" d="M2608.7,660c3.9-4.3,7.2-13.7,7.2-18.2c-0.1-4.5-0.5-3.4-0.8-6.8c4.3-3.5,7-8.1,5.7-14.1
			c-1.3-5.9,0.4-9.9-3.1-15.8c-3.5-6-1.5-13.2-7.2-17.3c-5.7-4.2-11.6-8-16.2-13.4c-4.7-5.4-7.5-3-13.7-2.5
			c-6.3,0.5-13.2,3.7-19.2,4.9c-6,1.1-9.5,6.5-14.9,6.7c-5.4,0.2-7.5,1.9-10.5,5.4c-3,3.5-4.1,10.3,0,12.5c4.1,2.2,8.5,2.8,12.5,5
			c5.2,4.2,10.6,8.3,15.9,12.3c-3.1,10.8-7.4,21.3-12.3,31.5c-3.7,2.5-3.4,8.2-2.4,11.5c1,3.3-0.8,9.8,1.7,11.6
			c2.5,1.8,3.2,3.8,7.4,1.6c4.2-2.2,14.1-3.4,19.7-3.5C2588.4,666.9,2598.7,664.3,2608.7,660"/>
		<path class="st53" d="M2541.6,603.4c-1.2,4.7-2.8,10.1-3,14.7c-0.3,4.6,1.6,4.6,3,9.1c1.4,4.4-4.3,10.9-3.9,15.2
			c0.4,4.3,7.3,0.5,8.9,3.4c1.6,2.9,1.6,7,2.3,10.2c6.6-1.7,10.6-5.6,13.8-11.7c3.2-6.1,10.1-19.5,7-25.1c-3.1-5.6-7-1.3-9.4-5.6
			c-2.4-4.2-4.4-11.8-8.9-11.7C2546.6,602,2545.6,603.2,2541.6,603.4"/>
		<path class="st53" d="M2625.8,674.7c-2.7-3.1-5.3-6.1-7.7-9c-2-2.4-3.3-4.1-4.3-6.7c-0.8-2.2-1-4.2-1.1-5.6
			c-0.7-0.6-1.7-1.6-2.7-3c-1.8-2.6-2.1-5.1-2.3-6c-0.6-2.6-2.6-6.2-9.4-10.5c0.1-1.1,1.4-11.5-4.9-16.8c-0.7-0.6-2.7-2.1-5.6-2.8
			c-10.1-2.6-13.4,8-6.1,15.2c8.8,8.6,6.8,19.7,2.5,26.5c-2.8,4.3-4.3,7.6-5.5,9c-0.4,0.5-1.4,1.5-2.4,2.4
			c-1.5,1.3-4.9,2.4-13.3,5.9c6.5-2.7,14.4,4,17.7,11.1c3.3,7.3-0.3,13.4,2.3,15.7C2586.1,702.8,2596.4,699,2625.8,674.7"/>
	</g>
	<g class="st1">
		<defs>
			<path id="SVGID_31_" d="M2581.8,629.5c8.8,8.6,6.8,19.7,2.5,26.5c-2.8,4.3-4.3,7.6-5.5,9c-0.4,0.5-1.4,1.5-2.4,2.4
				c-1.5,1.3-4.9,2.4-13.3,5.9c6.5-2.7,14.4,4,17.7,11.1c3.3,7.3-0.3,13.4,2.3,15.7c3,2.6,13.3-1.2,42.8-25.4
				c-2.7-3.1-5.3-6.1-7.7-9c-2-2.4-3.3-4.1-4.3-6.7c-0.8-2.2-1-4.2-1.1-5.6c-0.7-0.6-1.7-1.6-2.7-3c-1.8-2.6-2.1-5.1-2.3-6
				c-0.6-2.6-2.6-6.2-9.4-10.5c0.1-1.1,1.4-11.5-4.9-16.8c-0.7-0.6-2.7-2.1-5.6-2.8c-1.1-0.3-2-0.4-3-0.4
				C2577.2,613.9,2575.3,623.1,2581.8,629.5"/>
		</defs>
		<clipPath id="SVGID_32_">
			<use xlink:href="#SVGID_31_"  style="overflow:visible;"/>
		</clipPath>
		<polygon class="st54" points="2564.5,670.8 2588,644.5 2576.2,682.3 2559.1,672.2 		"/>
	</g>
	<g class="st1">
		<defs>
			<rect id="SVGID_33_" y="0" width="2863.6" height="1332.8"/>
		</defs>
		<clipPath id="SVGID_34_">
			<use xlink:href="#SVGID_33_"  style="overflow:visible;"/>
		</clipPath>
		<path class="st55" d="M2597.4,720.8l33.1,72.5c-7.3,1-36.3-41.2-33.1-49.4C2600.2,736.5,2597.4,720.8,2597.4,720.8"/>
		<path class="st56" d="M2648.9,733.6l20,64.8c0,0,6.2,10,4.1,14.8c-2.1,4.8-19.3,25.9-19.3,25.9s-42.5,45-46.2,47.8
			c-3.7,2.8-3.7,17-4.4,20c-0.7,3-11.5,11.3-14.7,12.4c-3.2,1.1-16.5-15.2-16.8-17.2c-0.2-2.1,1.8-8,1.1-9.9c-0.7-1.8-8,1.6-9.2-1.8
			c-1.1-3.4,3.2-8.7,6-8.7c2.8,0,17.5,0.9,19.8-0.9c2.3-1.8,46.4-72.6,45-78.1c-1.4-5.5-8.3-9-11-15.2c-2.8-6.2-17.9-49.6-17.9-49.6
			L2648.9,733.6z"/>
		<path class="st57" d="M2621.3,668.1c0,0,23.9,20.2,28.5,35.8c4.6,15.6,4.6,42.3,4.6,42.3s-10.3-7.8-15.2-6.4
			c-4.8,1.4-19.6,9-22.1,11.4c-2.4,2.4-5.5,3.8-5.5,3.8l-21.4-27.9c0,0-14.9-19.4-12.6-23.6C2579.9,699.4,2588.2,682.9,2621.3,668.1
			"/>
		<path class="st58" d="M2443.4,676.9c-0.3-1.6-0.5-3.3-0.8-4.9"/>
		<path class="st59" d="M2441.1,662.1c-6.9-46.6-11.5-92.3-33.2-133.1c-3-6,0-9-3-15c-45.1-93.2-108.2-177.4-201.5-228.5l-9-9
			c-177.4-105.2-396.9-90.2-562.3,36.1c-123.6,97.1-195.3,240.2-196,391.3"/>
		<path class="st58" d="M1436.1,708.7c0,1.7,0,3.3,0.1,5"/>
	</g>
</g>
</svg>
