<?xml version="1.0" encoding="utf-8"?>
<!-- Generator: Adobe Illustrator 19.0.0, SVG Export Plug-In . SVG Version: 6.00 Build 0)  -->
<svg version="1.1" id="Layer_1" xmlns="http://www.w3.org/2000/svg" xmlns:xlink="http://www.w3.org/1999/xlink" x="0px" y="0px"
	 viewBox="0 0 138.5 113.1" style="enable-background:new 0 0 138.5 113.1;" xml:space="preserve">
<style type="text/css">
	.st0{clip-path:url(#SVGID_2_);}
	.st1{clip-path:url(#SVGID_4_);}
	.st2{fill:#FFFFFF;}
	.st3{opacity:0.42;clip-path:url(#SVGID_6_);}
	.st4{clip-path:url(#SVGID_8_);fill:#FFFFFF;}
	.st5{clip-path:url(#SVGID_8_);fill:none;stroke:#FFFFFF;stroke-miterlimit:10;}
</style>
<g>
	<defs>
		<rect id="SVGID_1_" width="138.5" height="113.1"/>
	</defs>
	<clipPath id="SVGID_2_">
		<use xlink:href="#SVGID_1_"  style="overflow:visible;"/>
	</clipPath>
	<g class="st0">
		<defs>
			<rect id="SVGID_3_" width="138.5" height="113.1"/>
		</defs>
		<clipPath id="SVGID_4_">
			<use xlink:href="#SVGID_3_"  style="overflow:visible;"/>
		</clipPath>
		<g class="st1">
			<path class="st2" d="M19.9,33.6v-2.1l2.7-2.6c6.6-6.2,9.5-9.6,9.6-13.4c0-2.6-1.3-5-5.1-5c-2.3,0-4.3,1.2-5.4,2.2l-1.1-2.4
				c1.8-1.5,4.3-2.6,7.3-2.6c5.5,0,7.9,3.8,7.9,7.5c0,4.7-3.4,8.6-8.8,13.8l-2.1,1.9v0.1h11.5v2.9H19.9z"/>
			<path class="st2" d="M50.8,33.6v-7H38.9v-2.3L50.4,7.9h3.8v15.9h3.6v2.7h-3.6v7H50.8z M50.8,23.8v-8.6c0-1.3,0-2.7,0.1-4h-0.1
				c-0.8,1.5-1.4,2.6-2.1,3.8l-6.3,8.7v0.1H50.8z"/>
			<path class="st2" d="M58.5,35.1l11-28.6h2.7L61.2,35.1H58.5z"/>
			<path class="st2" d="M90.6,7.9v2.3L79.4,33.6h-3.6l11.1-22.7v-0.1H74.4V7.9H90.6z"/>
		</g>
		<g class="st1">
			<path class="st2" d="M1.6,43.5h1.8v12.7h6.1v1.5H1.6V43.5z"/>
			<path class="st2" d="M13.6,44.6c0,0.6-0.4,1.1-1.2,1.1c-0.7,0-1.1-0.5-1.1-1.1c0-0.7,0.5-1.2,1.2-1.2
				C13.1,43.5,13.6,44,13.6,44.6z M11.5,57.7V47.5h1.9v10.2H11.5z"/>
			<path class="st2" d="M17.2,47.5l2,5.7c0.3,0.9,0.6,1.8,0.8,2.6H20c0.2-0.8,0.5-1.7,0.9-2.6l2-5.7h1.9l-4,10.2h-1.8l-3.9-10.2
				H17.2z"/>
			<path class="st2" d="M27.6,52.9c0,2.5,1.6,3.5,3.5,3.5c1.3,0,2.1-0.2,2.8-0.5l0.3,1.3c-0.7,0.3-1.8,0.6-3.4,0.6
				c-3.1,0-5-2.1-5-5.1s1.8-5.5,4.8-5.5c3.3,0,4.2,2.9,4.2,4.8c0,0.4,0,0.7-0.1,0.9H27.6z M33.1,51.6c0-1.2-0.5-3-2.6-3
				c-1.9,0-2.7,1.7-2.8,3H33.1z"/>
			<path class="st2" d="M41.4,55.5c0.8,0.5,2,0.9,3.3,0.9c1.9,0,3-1,3-2.4c0-1.3-0.8-2.1-2.7-2.8c-2.3-0.8-3.8-2-3.8-4
				c0-2.2,1.8-3.9,4.6-3.9c1.5,0,2.5,0.3,3.1,0.7l-0.5,1.5c-0.5-0.3-1.4-0.7-2.7-0.7c-1.9,0-2.7,1.2-2.7,2.1c0,1.3,0.9,2,2.8,2.7
				c2.4,0.9,3.6,2.1,3.6,4.2c0,2.2-1.6,4.1-5,4.1c-1.4,0-2.9-0.4-3.6-0.9L41.4,55.5z"/>
			<path class="st2" d="M60.6,54.9c0,1.1,0,2,0.1,2.8H59L58.9,56h0c-0.5,0.8-1.6,1.9-3.4,1.9c-1.6,0-3.5-0.9-3.5-4.5v-6h1.9v5.7
				c0,1.9,0.6,3.2,2.3,3.2c1.2,0,2.1-0.9,2.4-1.7c0.1-0.3,0.2-0.6,0.2-0.9v-6.3h1.9V54.9z"/>
			<path class="st2" d="M63.6,50.8c0-1.3,0-2.4-0.1-3.3h1.7l0.1,1.8h0c0.8-1.2,2-2,3.6-2c2.5,0,4.3,2.1,4.3,5.2
				c0,3.7-2.2,5.5-4.6,5.5c-1.4,0-2.5-0.6-3.1-1.6h0v5.6h-1.8V50.8z M65.5,53.6c0,0.3,0,0.5,0.1,0.8c0.3,1.3,1.5,2.2,2.8,2.2
				c2,0,3.1-1.6,3.1-3.9c0-2-1.1-3.8-3-3.8c-1.3,0-2.4,0.9-2.8,2.3c-0.1,0.2-0.1,0.5-0.1,0.8V53.6z"/>
			<path class="st2" d="M75.7,50.8c0-1.3,0-2.4-0.1-3.3h1.7l0.1,1.8h0c0.8-1.2,2-2,3.6-2c2.5,0,4.3,2.1,4.3,5.2
				c0,3.7-2.2,5.5-4.6,5.5c-1.4,0-2.5-0.6-3.1-1.6h0v5.6h-1.8V50.8z M77.5,53.6c0,0.3,0,0.5,0.1,0.8c0.3,1.3,1.5,2.2,2.8,2.2
				c2,0,3.1-1.6,3.1-3.9c0-2-1.1-3.8-3-3.8c-1.3,0-2.4,0.9-2.8,2.3c-0.1,0.2-0.1,0.5-0.1,0.8V53.6z"/>
			<path class="st2" d="M96.9,52.5c0,3.8-2.6,5.4-5.1,5.4c-2.8,0-4.9-2-4.9-5.3c0-3.4,2.2-5.4,5.1-5.4
				C94.9,47.3,96.9,49.4,96.9,52.5z M88.8,52.6c0,2.2,1.3,3.9,3.1,3.9c1.8,0,3.1-1.7,3.1-4c0-1.7-0.9-3.9-3.1-3.9
				C89.7,48.7,88.8,50.7,88.8,52.6z"/>
			<path class="st2" d="M99.2,50.7c0-1.2,0-2.2-0.1-3.2h1.6l0.1,2h0.1c0.5-1.4,1.6-2.2,2.8-2.2c0.2,0,0.4,0,0.5,0.1v1.8
				c-0.2,0-0.4-0.1-0.6-0.1c-1.3,0-2.2,1-2.5,2.4c0,0.3-0.1,0.5-0.1,0.9v5.4h-1.8V50.7z"/>
			<path class="st2" d="M108.4,44.6v2.9h2.7v1.4h-2.7v5.5c0,1.3,0.4,2,1.4,2c0.5,0,0.8-0.1,1.1-0.1l0.1,1.4
				c-0.4,0.1-0.9,0.3-1.6,0.3c-0.9,0-1.6-0.3-2-0.8c-0.5-0.5-0.7-1.5-0.7-2.7v-5.6H105v-1.4h1.6V45L108.4,44.6z"/>
		</g>
	</g>
	<g class="st0">
		<path class="st2" d="M39,77c-0.4-0.4-0.8-0.8-1.3-1.4c-1.2,1.1-2.6,1.6-4.2,1.6c-2.8,0-4.4-1.9-4.4-4c0-1.9,1.2-3.3,2.8-4.2V69
			c-0.7-0.9-1.2-2-1.2-3c0-1.7,1.2-3.5,3.6-3.5c1.8,0,3.1,1.2,3.1,3c0,1.5-0.9,2.7-3.1,3.8v0.1c1.2,1.4,2.6,3,3.5,4
			c0.7-1,1.1-2.4,1.4-4.2h1.7c-0.4,2.2-1,4-2,5.3c0.8,0.8,1.5,1.6,2.3,2.5H39z M36.8,74.6c-0.8-0.9-2.4-2.7-4-4.5
			c-0.8,0.5-1.8,1.4-1.8,2.9c0,1.6,1.2,2.9,2.9,2.9C35.1,75.8,36.1,75.3,36.8,74.6z M32.5,65.9c0,1,0.5,1.8,1.1,2.6
			c1.4-0.8,2.4-1.6,2.4-2.8c0-0.9-0.5-1.8-1.6-1.8C33.1,63.8,32.5,64.8,32.5,65.9z"/>
		<path class="st2" d="M57.3,76.5c-0.7,0.3-2,0.7-3.8,0.7c-4,0-7-2.5-7-7.2c0-4.5,3-7.5,7.4-7.5c1.8,0,2.9,0.4,3.4,0.6l-0.4,1.5
			c-0.7-0.3-1.7-0.6-2.9-0.6c-3.3,0-5.6,2.1-5.6,5.9c0,3.5,2,5.7,5.5,5.7c1.1,0,2.3-0.2,3-0.6L57.3,76.5z"/>
		<path class="st2" d="M59.5,62h1.9v6.4h0c0.3-0.5,0.8-1,1.3-1.3c0.5-0.3,1.2-0.5,1.9-0.5c1.4,0,3.6,0.8,3.6,4.4V77h-1.9v-5.9
			c0-1.6-0.6-3-2.4-3c-1.2,0-2.2,0.8-2.5,1.9c-0.1,0.3-0.1,0.5-0.1,0.9V77h-1.9V62z"/>
		<path class="st2" d="M76.9,77l-0.1-1.3h-0.1c-0.6,0.8-1.7,1.5-3.1,1.5c-2.1,0-3.1-1.5-3.1-2.9c0-2.5,2.2-3.8,6.1-3.8v-0.2
			c0-0.8-0.2-2.4-2.3-2.4c-1,0-1.9,0.3-2.7,0.8l-0.4-1.2c0.8-0.5,2.1-0.9,3.4-0.9c3.1,0,3.9,2.1,3.9,4.2v3.8c0,0.9,0,1.8,0.2,2.4
			H76.9z M76.6,71.8c-2,0-4.3,0.3-4.3,2.3c0,1.2,0.8,1.8,1.8,1.8c1.3,0,2.2-0.8,2.5-1.7c0.1-0.2,0.1-0.4,0.1-0.6V71.8z"/>
		<path class="st2" d="M83.6,63.9v2.9h2.7v1.4h-2.7v5.5c0,1.3,0.4,2,1.4,2c0.5,0,0.8-0.1,1.1-0.1l0.1,1.4c-0.4,0.1-0.9,0.3-1.6,0.3
			c-0.9,0-1.6-0.3-2-0.8c-0.5-0.5-0.7-1.5-0.7-2.7v-5.6h-1.6v-1.4h1.6v-2.4L83.6,63.9z"/>
	</g>
	<g class="st0">
		<defs>
			<rect id="SVGID_5_" width="138.5" height="113.1"/>
		</defs>
		<clipPath id="SVGID_6_">
			<use xlink:href="#SVGID_5_"  style="overflow:visible;"/>
		</clipPath>
		<g class="st3">
			<g>
				<defs>
					<rect id="SVGID_7_" x="67.9" y="37.1" width="70.6" height="76"/>
				</defs>
				<clipPath id="SVGID_8_">
					<use xlink:href="#SVGID_7_"  style="overflow:visible;"/>
				</clipPath>
				<path class="st4" d="M68.7,76.6c-0.2,0-0.3,0.2-0.3,0.3s0.2,0.3,0.3,0.3c0.2,0,0.3-0.2,0.3-0.3S68.9,76.6,68.7,76.6"/>
				<circle class="st5" cx="68.7" cy="76.9" r="0.3"/>
				<path class="st4" d="M68.7,73c-0.2,0-0.3,0.2-0.3,0.3c0,0.2,0.2,0.3,0.3,0.3c0.2,0,0.3-0.2,0.3-0.3C69.1,73.2,68.9,73,68.7,73"
					/>
				<circle class="st5" cx="68.7" cy="73.3" r="0.3"/>
				<path class="st4" d="M68.7,65.9c-0.1,0-0.2,0-0.2,0.1c0,0.1,0,0.2-0.1,0.3c0,0.1,0.2,0.2,0.3,0.2c0.2,0,0.3-0.2,0.3-0.3
					C69.1,66,68.9,65.9,68.7,65.9"/>
				<path class="st5" d="M68.7,65.9c-0.1,0-0.2,0-0.2,0.1c0,0.1,0,0.2-0.1,0.3c0,0.1,0.2,0.2,0.3,0.2c0.2,0,0.3-0.2,0.3-0.3
					C69.1,66,68.9,65.9,68.7,65.9z"/>
				<path class="st4" d="M68.7,69.4C68.7,69.4,68.7,69.4,68.7,69.4L68.7,69.4c-0.1,0-0.1,0-0.1,0c0,0,0,0,0,0c0,0,0,0-0.1,0
					c0,0,0,0,0,0c-0.1,0.1-0.1,0.2-0.1,0.3c0,0.1,0,0.2,0.1,0.3c0,0,0,0,0,0c0,0,0.1,0,0.1,0c0,0,0,0,0,0c0,0,0.1,0,0.1,0
					c0.2,0,0.3-0.2,0.3-0.3C69.1,69.6,68.9,69.4,68.7,69.4"/>
				<path class="st5" d="M68.7,69.4C68.7,69.4,68.7,69.4,68.7,69.4L68.7,69.4c-0.1,0-0.1,0-0.1,0c0,0,0,0,0,0c0,0,0,0-0.1,0
					c0,0,0,0,0,0c-0.1,0.1-0.1,0.2-0.1,0.3c0,0.1,0,0.2,0.1,0.3c0,0,0,0,0,0c0,0,0.1,0,0.1,0c0,0,0,0,0,0c0,0,0.1,0,0.1,0
					c0.2,0,0.3-0.2,0.3-0.3C69.1,69.6,68.9,69.4,68.7,69.4z"/>
				<path class="st4" d="M68.7,80.1L68.7,80.1c0,0-0.1,0-0.1,0c0,0,0,0,0,0c0,0-0.1,0-0.1,0c0,0,0,0,0,0c-0.1,0.1-0.1,0.2-0.1,0.3
					c0,0.1,0,0.2,0.1,0.3c0,0,0,0,0,0c0,0,0,0,0.1,0c0,0,0,0,0,0c0,0,0,0,0.1,0l0,0c0,0,0.1,0,0.1,0c0.2,0,0.3-0.2,0.3-0.3
					C69.1,80.3,68.9,80.1,68.7,80.1"/>
				<path class="st5" d="M68.7,80.1L68.7,80.1c0,0-0.1,0-0.1,0c0,0,0,0,0,0c0,0-0.1,0-0.1,0c0,0,0,0,0,0c-0.1,0.1-0.1,0.2-0.1,0.3
					c0,0.1,0,0.2,0.1,0.3c0,0,0,0,0,0c0,0,0,0,0.1,0c0,0,0,0,0,0c0,0,0,0,0.1,0l0,0c0,0,0.1,0,0.1,0c0.2,0,0.3-0.2,0.3-0.3
					C69.1,80.3,68.9,80.1,68.7,80.1z"/>
				<path class="st4" d="M73.3,58.7c-0.2,0-0.3,0.2-0.3,0.3c0,0.2,0.2,0.3,0.3,0.3c0.2,0,0.3-0.2,0.3-0.3
					C73.7,58.9,73.5,58.7,73.3,58.7"/>
				<circle class="st5" cx="73.3" cy="59.1" r="0.3"/>
				<path class="st4" d="M73.3,62.3c-0.2,0-0.3,0.2-0.3,0.3s0.2,0.3,0.3,0.3c0.2,0,0.3-0.2,0.3-0.3S73.5,62.3,73.3,62.3"/>
				<circle class="st5" cx="73.3" cy="62.6" r="0.3"/>
				<path class="st4" d="M73.3,55.1c-0.2,0-0.3,0.2-0.3,0.3c0,0.2,0.2,0.3,0.3,0.3c0.2,0,0.3-0.2,0.3-0.3
					C73.7,55.3,73.5,55.1,73.3,55.1"/>
				<circle class="st5" cx="73.3" cy="55.5" r="0.3"/>
				<path class="st4" d="M73.3,76.6c-0.2,0-0.3,0.2-0.3,0.3s0.2,0.3,0.3,0.3c0.2,0,0.3-0.2,0.3-0.3S73.5,76.6,73.3,76.6"/>
				<circle class="st5" cx="73.3" cy="76.9" r="0.3"/>
				<path class="st4" d="M73.3,80.1c-0.2,0-0.3,0.2-0.3,0.3c0,0.2,0.2,0.3,0.3,0.3c0.2,0,0.3-0.2,0.3-0.3
					C73.7,80.3,73.5,80.1,73.3,80.1"/>
				<circle class="st5" cx="73.3" cy="80.5" r="0.3"/>
				<path class="st4" d="M73.3,65.9c-0.2,0-0.3,0.2-0.3,0.3c0,0.2,0.2,0.3,0.3,0.3c0.2,0,0.3-0.2,0.3-0.3
					C73.7,66,73.5,65.9,73.3,65.9"/>
				<circle class="st5" cx="73.3" cy="66.2" r="0.3"/>
				<path class="st4" d="M73.3,73c-0.2,0-0.3,0.2-0.3,0.3c0,0.2,0.2,0.3,0.3,0.3c0.2,0,0.3-0.2,0.3-0.3C73.7,73.2,73.5,73,73.3,73"
					/>
				<circle class="st5" cx="73.3" cy="73.3" r="0.3"/>
				<path class="st4" d="M73.3,69.4c-0.2,0-0.3,0.2-0.3,0.3c0,0.2,0.2,0.3,0.3,0.3c0.2,0,0.3-0.2,0.3-0.3
					C73.7,69.6,73.5,69.4,73.3,69.4"/>
				<circle class="st5" cx="73.3" cy="69.8" r="0.3"/>
				<path class="st4" d="M77.9,65.9c-0.2,0-0.3,0.2-0.3,0.3c0,0.2,0.2,0.3,0.3,0.3c0.2,0,0.3-0.2,0.3-0.3
					C78.3,66,78.1,65.9,77.9,65.9"/>
				<circle class="st5" cx="77.9" cy="66.2" r="0.3"/>
				<path class="st4" d="M77.9,73c-0.2,0-0.3,0.2-0.3,0.3c0,0.2,0.2,0.3,0.3,0.3c0.2,0,0.3-0.2,0.3-0.3C78.3,73.2,78.1,73,77.9,73"
					/>
				<circle class="st5" cx="77.9" cy="73.3" r="0.3"/>
				<path class="st4" d="M77.9,69.4c-0.2,0-0.3,0.2-0.3,0.3c0,0.2,0.2,0.3,0.3,0.3c0.2,0,0.3-0.2,0.3-0.3
					C78.3,69.6,78.1,69.4,77.9,69.4"/>
				<circle class="st5" cx="77.9" cy="69.8" r="0.3"/>
				<path class="st4" d="M77.9,55.1c-0.2,0-0.3,0.2-0.3,0.3c0,0.2,0.2,0.3,0.3,0.3c0.2,0,0.3-0.2,0.3-0.3
					C78.3,55.3,78.1,55.1,77.9,55.1"/>
				<circle class="st5" cx="77.9" cy="55.5" r="0.3"/>
				<path class="st4" d="M77.9,62.3c-0.2,0-0.3,0.2-0.3,0.3s0.2,0.3,0.3,0.3c0.2,0,0.3-0.2,0.3-0.3S78.1,62.3,77.9,62.3"/>
				<circle class="st5" cx="77.9" cy="62.6" r="0.3"/>
				<path class="st4" d="M77.9,76.6c-0.2,0-0.3,0.2-0.3,0.3s0.2,0.3,0.3,0.3c0.2,0,0.3-0.2,0.3-0.3S78.1,76.6,77.9,76.6"/>
				<circle class="st5" cx="77.9" cy="76.9" r="0.3"/>
				<path class="st4" d="M77.9,58.7c-0.2,0-0.3,0.2-0.3,0.3c0,0.2,0.2,0.3,0.3,0.3c0.2,0,0.3-0.2,0.3-0.3
					C78.3,58.9,78.1,58.7,77.9,58.7"/>
				<circle class="st5" cx="77.9" cy="59.1" r="0.3"/>
				<path class="st4" d="M77.7,48.6c0.1,0.1,0.1,0.1,0.2,0.1c0.2,0,0.3-0.2,0.3-0.3c0-0.1,0-0.2-0.1-0.2
					C78,48.3,77.9,48.4,77.7,48.6"/>
				<path class="st5" d="M77.7,48.6c0.1,0.1,0.1,0.1,0.2,0.1c0.2,0,0.3-0.2,0.3-0.3c0-0.1,0-0.2-0.1-0.2
					C78,48.3,77.9,48.4,77.7,48.6z"/>
				<path class="st4" d="M77.9,51.6c-0.2,0-0.3,0.2-0.3,0.3c0,0.2,0.2,0.3,0.3,0.3c0.2,0,0.3-0.2,0.3-0.3
					C78.3,51.7,78.1,51.6,77.9,51.6"/>
				<circle class="st5" cx="77.9" cy="51.9" r="0.3"/>
				<path class="st4" d="M77.9,80.1c-0.2,0-0.3,0.2-0.3,0.3c0,0.2,0.2,0.3,0.3,0.3c0.2,0,0.3-0.2,0.3-0.3
					C78.3,80.3,78.1,80.1,77.9,80.1"/>
				<circle class="st5" cx="77.9" cy="80.5" r="0.3"/>
				<path class="st4" d="M82.5,65.9c-0.2,0-0.3,0.2-0.3,0.3c0,0.2,0.2,0.3,0.3,0.3c0.2,0,0.3-0.2,0.3-0.3
					C82.9,66,82.7,65.9,82.5,65.9"/>
				<circle class="st5" cx="82.5" cy="66.2" r="0.3"/>
				<path class="st4" d="M82.5,73c-0.2,0-0.3,0.2-0.3,0.3c0,0.2,0.2,0.3,0.3,0.3c0.2,0,0.3-0.2,0.3-0.3C82.9,73.2,82.7,73,82.5,73"
					/>
				<circle class="st5" cx="82.5" cy="73.3" r="0.3"/>
				<path class="st4" d="M82.5,69.4c-0.2,0-0.3,0.2-0.3,0.3c0,0.2,0.2,0.3,0.3,0.3c0.2,0,0.3-0.2,0.3-0.3
					C82.9,69.6,82.7,69.4,82.5,69.4"/>
				<circle class="st5" cx="82.5" cy="69.8" r="0.3"/>
				<path class="st4" d="M82.5,58.7c-0.2,0-0.3,0.2-0.3,0.3c0,0.2,0.2,0.3,0.3,0.3c0.2,0,0.3-0.2,0.3-0.3
					C82.9,58.9,82.7,58.7,82.5,58.7"/>
				<circle class="st5" cx="82.5" cy="59.1" r="0.3"/>
				<path class="st4" d="M82.5,48c-0.2,0-0.3,0.2-0.3,0.3c0,0.2,0.2,0.3,0.3,0.3c0.2,0,0.3-0.2,0.3-0.3C82.9,48.2,82.7,48,82.5,48"
					/>
				<circle class="st5" cx="82.5" cy="48.3" r="0.3"/>
				<path class="st4" d="M82.5,51.6c-0.2,0-0.3,0.2-0.3,0.3c0,0.2,0.2,0.3,0.3,0.3c0.2,0,0.3-0.2,0.3-0.3
					C82.9,51.7,82.7,51.6,82.5,51.6"/>
				<circle class="st5" cx="82.5" cy="51.9" r="0.3"/>
				<path class="st4" d="M82.5,55.1c-0.2,0-0.3,0.2-0.3,0.3c0,0.2,0.2,0.3,0.3,0.3c0.2,0,0.3-0.2,0.3-0.3
					C82.9,55.3,82.7,55.1,82.5,55.1"/>
				<circle class="st5" cx="82.5" cy="55.5" r="0.3"/>
				<path class="st4" d="M82.5,62.3c-0.2,0-0.3,0.2-0.3,0.3s0.2,0.3,0.3,0.3c0.2,0,0.3-0.2,0.3-0.3S82.7,62.3,82.5,62.3"/>
				<circle class="st5" cx="82.5" cy="62.6" r="0.3"/>
				<path class="st4" d="M82.5,80.1c-0.2,0-0.3,0.2-0.3,0.3c0,0.2,0.2,0.3,0.3,0.3c0.2,0,0.3-0.2,0.3-0.3
					C82.9,80.3,82.7,80.1,82.5,80.1"/>
				<circle class="st5" cx="82.5" cy="80.5" r="0.3"/>
				<path class="st4" d="M82.5,76.6c-0.2,0-0.3,0.2-0.3,0.3s0.2,0.3,0.3,0.3c0.2,0,0.3-0.2,0.3-0.3S82.7,76.6,82.5,76.6"/>
				<circle class="st5" cx="82.5" cy="76.9" r="0.3"/>
				<path class="st4" d="M82.5,44.4C82.5,44.4,82.5,44.4,82.5,44.4c-0.1,0.1-0.2,0.1-0.3,0.2c0,0,0,0.1,0,0.1c0,0.2,0.2,0.3,0.3,0.3
					c0.2,0,0.3-0.2,0.3-0.3C82.9,44.6,82.7,44.4,82.5,44.4"/>
				<path class="st5" d="M82.5,44.4C82.5,44.4,82.5,44.4,82.5,44.4c-0.1,0.1-0.2,0.1-0.3,0.2c0,0,0,0.1,0,0.1c0,0.2,0.2,0.3,0.3,0.3
					c0.2,0,0.3-0.2,0.3-0.3C82.9,44.6,82.7,44.4,82.5,44.4z"/>
				<path class="st4" d="M87.1,80.1c-0.2,0-0.3,0.2-0.3,0.3c0,0.2,0.2,0.3,0.3,0.3c0.2,0,0.3-0.2,0.3-0.3
					C87.5,80.3,87.3,80.1,87.1,80.1"/>
				<circle class="st5" cx="87.1" cy="80.5" r="0.3"/>
				<path class="st4" d="M87.1,76.6c-0.2,0-0.3,0.2-0.3,0.3s0.2,0.3,0.3,0.3c0.2,0,0.3-0.2,0.3-0.3S87.3,76.6,87.1,76.6"/>
				<circle class="st5" cx="87.1" cy="76.9" r="0.3"/>
				<path class="st4" d="M87.1,55.1c-0.2,0-0.3,0.2-0.3,0.3c0,0.2,0.2,0.3,0.3,0.3c0.2,0,0.3-0.2,0.3-0.3
					C87.5,55.3,87.3,55.1,87.1,55.1"/>
				<circle class="st5" cx="87.1" cy="55.5" r="0.3"/>
				<path class="st4" d="M87.1,51.6c-0.2,0-0.3,0.2-0.3,0.3c0,0.2,0.2,0.3,0.3,0.3c0.2,0,0.3-0.2,0.3-0.3
					C87.5,51.7,87.3,51.6,87.1,51.6"/>
				<circle class="st5" cx="87.1" cy="51.9" r="0.3"/>
				<path class="st4" d="M87.1,58.7c-0.2,0-0.3,0.2-0.3,0.3c0,0.2,0.2,0.3,0.3,0.3c0.2,0,0.3-0.2,0.3-0.3
					C87.5,58.9,87.3,58.7,87.1,58.7"/>
				<circle class="st5" cx="87.1" cy="59.1" r="0.3"/>
				<path class="st4" d="M87.1,73c-0.2,0-0.3,0.2-0.3,0.3c0,0.2,0.2,0.3,0.3,0.3c0.2,0,0.3-0.2,0.3-0.3C87.5,73.2,87.3,73,87.1,73"
					/>
				<circle class="st5" cx="87.1" cy="73.3" r="0.3"/>
				<path class="st4" d="M87.1,69.4c-0.2,0-0.3,0.2-0.3,0.3c0,0.2,0.2,0.3,0.3,0.3c0.2,0,0.3-0.2,0.3-0.3
					C87.5,69.6,87.3,69.4,87.1,69.4"/>
				<circle class="st5" cx="87.1" cy="69.8" r="0.3"/>
				<path class="st4" d="M87.1,65.9c-0.2,0-0.3,0.2-0.3,0.3c0,0.2,0.2,0.3,0.3,0.3c0.2,0,0.3-0.2,0.3-0.3
					C87.5,66,87.3,65.9,87.1,65.9"/>
				<circle class="st5" cx="87.1" cy="66.2" r="0.3"/>
				<path class="st4" d="M87.1,62.3c-0.2,0-0.3,0.2-0.3,0.3s0.2,0.3,0.3,0.3c0.2,0,0.3-0.2,0.3-0.3S87.3,62.3,87.1,62.3"/>
				<circle class="st5" cx="87.1" cy="62.6" r="0.3"/>
				<path class="st4" d="M87.1,48c-0.2,0-0.3,0.2-0.3,0.3c0,0.2,0.2,0.3,0.3,0.3c0.2,0,0.3-0.2,0.3-0.3C87.5,48.2,87.3,48,87.1,48"
					/>
				<circle class="st5" cx="87.1" cy="48.3" r="0.3"/>
				<path class="st4" d="M87.1,44.4c-0.2,0-0.3,0.2-0.3,0.3c0,0.2,0.2,0.3,0.3,0.3c0.2,0,0.3-0.2,0.3-0.3
					C87.5,44.6,87.3,44.4,87.1,44.4"/>
				<circle class="st5" cx="87.1" cy="44.8" r="0.3"/>
				<path class="st4" d="M91.7,76.6c-0.2,0-0.3,0.2-0.3,0.3s0.2,0.3,0.3,0.3c0.2,0,0.3-0.2,0.3-0.3S91.9,76.6,91.7,76.6"/>
				<circle class="st5" cx="91.7" cy="76.9" r="0.3"/>
				<path class="st4" d="M91.7,73c-0.2,0-0.3,0.2-0.3,0.3c0,0.2,0.2,0.3,0.3,0.3c0.2,0,0.3-0.2,0.3-0.3C92.1,73.2,91.9,73,91.7,73"
					/>
				<circle class="st5" cx="91.7" cy="73.3" r="0.3"/>
				<path class="st4" d="M91.7,80.1c-0.2,0-0.3,0.2-0.3,0.3c0,0.2,0.2,0.3,0.3,0.3c0.2,0,0.3-0.2,0.3-0.3
					C92.1,80.3,91.9,80.1,91.7,80.1"/>
				<circle class="st5" cx="91.7" cy="80.5" r="0.3"/>
				<path class="st4" d="M91.7,65.9c-0.2,0-0.3,0.2-0.3,0.3c0,0.2,0.2,0.3,0.3,0.3c0.2,0,0.3-0.2,0.3-0.3
					C92.1,66,91.9,65.9,91.7,65.9"/>
				<circle class="st5" cx="91.7" cy="66.2" r="0.3"/>
				<path class="st4" d="M91.7,69.4c-0.2,0-0.3,0.2-0.3,0.3c0,0.2,0.2,0.3,0.3,0.3c0.2,0,0.3-0.2,0.3-0.3
					C92.1,69.6,91.9,69.4,91.7,69.4"/>
				<circle class="st5" cx="91.7" cy="69.8" r="0.3"/>
				<path class="st4" d="M91.7,62.3c-0.2,0-0.3,0.2-0.3,0.3s0.2,0.3,0.3,0.3c0.2,0,0.3-0.2,0.3-0.3S91.9,62.3,91.7,62.3"/>
				<circle class="st5" cx="91.7" cy="62.6" r="0.3"/>
				<path class="st4" d="M91.7,48c-0.2,0-0.3,0.2-0.3,0.3c0,0.2,0.2,0.3,0.3,0.3c0.2,0,0.3-0.2,0.3-0.3C92.1,48.2,91.9,48,91.7,48"
					/>
				<circle class="st5" cx="91.7" cy="48.3" r="0.3"/>
				<path class="st4" d="M91.7,40.9c-0.2,0-0.3,0.2-0.3,0.3c0,0.2,0.2,0.3,0.3,0.3c0.2,0,0.3-0.2,0.3-0.3
					C92.1,41,91.9,40.9,91.7,40.9"/>
				<circle class="st5" cx="91.7" cy="41.2" r="0.3"/>
				<path class="st4" d="M91.7,44.4c-0.2,0-0.3,0.2-0.3,0.3c0,0.2,0.2,0.3,0.3,0.3c0.2,0,0.3-0.2,0.3-0.3
					C92.1,44.6,91.9,44.4,91.7,44.4"/>
				<circle class="st5" cx="91.7" cy="44.8" r="0.3"/>
				<path class="st4" d="M91.7,58.7c-0.2,0-0.3,0.2-0.3,0.3c0,0.2,0.2,0.3,0.3,0.3c0.2,0,0.3-0.2,0.3-0.3
					C92.1,58.9,91.9,58.7,91.7,58.7"/>
				<circle class="st5" cx="91.7" cy="59.1" r="0.3"/>
				<path class="st4" d="M91.7,51.6c-0.2,0-0.3,0.2-0.3,0.3c0,0.2,0.2,0.3,0.3,0.3c0.2,0,0.3-0.2,0.3-0.3
					C92.1,51.7,91.9,51.6,91.7,51.6"/>
				<circle class="st5" cx="91.7" cy="51.9" r="0.3"/>
				<path class="st4" d="M91.7,55.1c-0.2,0-0.3,0.2-0.3,0.3c0,0.2,0.2,0.3,0.3,0.3c0.2,0,0.3-0.2,0.3-0.3
					C92.1,55.3,91.9,55.1,91.7,55.1"/>
				<circle class="st5" cx="91.7" cy="55.5" r="0.3"/>
				<path class="st4" d="M96.3,65.9c-0.2,0-0.3,0.2-0.3,0.3c0,0.2,0.2,0.3,0.3,0.3c0.2,0,0.3-0.2,0.3-0.3
					C96.7,66,96.5,65.9,96.3,65.9"/>
				<circle class="st5" cx="96.3" cy="66.2" r="0.3"/>
				<path class="st4" d="M96.3,62.3c-0.2,0-0.3,0.2-0.3,0.3s0.2,0.3,0.3,0.3c0.2,0,0.3-0.2,0.3-0.3S96.5,62.3,96.3,62.3"/>
				<circle class="st5" cx="96.3" cy="62.6" r="0.3"/>
				<path class="st4" d="M96.3,40.9c-0.2,0-0.3,0.2-0.3,0.3c0,0.2,0.2,0.3,0.3,0.3c0.2,0,0.3-0.2,0.3-0.3
					C96.7,41,96.5,40.9,96.3,40.9"/>
				<circle class="st5" cx="96.3" cy="41.2" r="0.3"/>
				<path class="st4" d="M96.3,58.7c-0.2,0-0.3,0.2-0.3,0.3c0,0.2,0.2,0.3,0.3,0.3c0.2,0,0.3-0.2,0.3-0.3
					C96.7,58.9,96.5,58.7,96.3,58.7"/>
				<circle class="st5" cx="96.3" cy="59.1" r="0.3"/>
				<path class="st4" d="M96.3,73c-0.2,0-0.3,0.2-0.3,0.3c0,0.2,0.2,0.3,0.3,0.3c0.2,0,0.3-0.2,0.3-0.3C96.7,73.2,96.5,73,96.3,73"
					/>
				<circle class="st5" cx="96.3" cy="73.3" r="0.3"/>
				<path class="st4" d="M96.3,51.6c-0.2,0-0.3,0.2-0.3,0.3c0,0.2,0.2,0.3,0.3,0.3c0.2,0,0.3-0.2,0.3-0.3
					C96.7,51.7,96.5,51.6,96.3,51.6"/>
				<circle class="st5" cx="96.3" cy="51.9" r="0.3"/>
				<path class="st4" d="M96.3,48c-0.2,0-0.3,0.2-0.3,0.3c0,0.2,0.2,0.3,0.3,0.3c0.2,0,0.3-0.2,0.3-0.3C96.7,48.2,96.5,48,96.3,48"
					/>
				<circle class="st5" cx="96.3" cy="48.3" r="0.3"/>
				<path class="st4" d="M96.3,55.1c-0.2,0-0.3,0.2-0.3,0.3c0,0.2,0.2,0.3,0.3,0.3c0.2,0,0.3-0.2,0.3-0.3
					C96.7,55.3,96.5,55.1,96.3,55.1"/>
				<circle class="st5" cx="96.3" cy="55.5" r="0.3"/>
				<path class="st4" d="M96.3,76.6c-0.2,0-0.3,0.2-0.3,0.3s0.2,0.3,0.3,0.3c0.2,0,0.3-0.2,0.3-0.3S96.5,76.6,96.3,76.6"/>
				<circle class="st5" cx="96.3" cy="76.9" r="0.3"/>
				<path class="st4" d="M96.3,69.4c-0.2,0-0.3,0.2-0.3,0.3c0,0.2,0.2,0.3,0.3,0.3c0.2,0,0.3-0.2,0.3-0.3
					C96.7,69.6,96.5,69.4,96.3,69.4"/>
				<circle class="st5" cx="96.3" cy="69.8" r="0.3"/>
				<path class="st4" d="M96.3,80.1c-0.2,0-0.3,0.2-0.3,0.3c0,0.2,0.2,0.3,0.3,0.3c0.2,0,0.3-0.2,0.3-0.3
					C96.7,80.3,96.5,80.1,96.3,80.1"/>
				<circle class="st5" cx="96.3" cy="80.5" r="0.3"/>
				<path class="st4" d="M96.3,44.4c-0.2,0-0.3,0.2-0.3,0.3c0,0.2,0.2,0.3,0.3,0.3c0.2,0,0.3-0.2,0.3-0.3
					C96.7,44.6,96.5,44.4,96.3,44.4"/>
				<circle class="st5" cx="96.3" cy="44.8" r="0.3"/>
				<path class="st4" d="M100.9,38c0.1,0,0.2,0,0.2-0.1c0,0,0.1-0.1,0.1-0.2c-0.2,0-0.4,0-0.6,0c0,0,0,0.1,0.1,0.1
					C100.7,37.9,100.8,38,100.9,38"/>
				<path class="st5" d="M100.9,38c0.1,0,0.2,0,0.2-0.1c0,0,0.1-0.1,0.1-0.2c-0.2,0-0.4,0-0.6,0c0,0,0,0.1,0.1,0.1
					C100.7,37.9,100.8,38,100.9,38z"/>
				<path class="st4" d="M100.9,73c-0.2,0-0.3,0.2-0.3,0.3c0,0.2,0.2,0.3,0.3,0.3c0.2,0,0.3-0.2,0.3-0.3
					C101.3,73.2,101.1,73,100.9,73"/>
				<circle class="st5" cx="100.9" cy="73.3" r="0.3"/>
				<path class="st4" d="M100.9,69.4c-0.2,0-0.3,0.2-0.3,0.3c0,0.2,0.2,0.3,0.3,0.3c0.2,0,0.3-0.2,0.3-0.3
					C101.3,69.6,101.1,69.4,100.9,69.4"/>
				<circle class="st5" cx="100.9" cy="69.8" r="0.3"/>
				<path class="st4" d="M100.9,65.9c-0.2,0-0.3,0.2-0.3,0.3c0,0.2,0.2,0.3,0.3,0.3c0.2,0,0.3-0.2,0.3-0.3
					C101.3,66,101.1,65.9,100.9,65.9"/>
				<circle class="st5" cx="100.9" cy="66.2" r="0.3"/>
				<path class="st4" d="M100.9,76.6c-0.2,0-0.3,0.2-0.3,0.3s0.2,0.3,0.3,0.3c0.2,0,0.3-0.2,0.3-0.3S101.1,76.6,100.9,76.6"/>
				<circle class="st5" cx="100.9" cy="76.9" r="0.3"/>
				<path class="st4" d="M100.9,80.1c-0.2,0-0.3,0.2-0.3,0.3c0,0.2,0.2,0.3,0.3,0.3c0.2,0,0.3-0.2,0.3-0.3
					C101.3,80.3,101.1,80.1,100.9,80.1"/>
				<circle class="st5" cx="100.9" cy="80.5" r="0.3"/>
				<path class="st4" d="M100.9,40.9c-0.2,0-0.3,0.2-0.3,0.3c0,0.2,0.2,0.3,0.3,0.3c0.2,0,0.3-0.2,0.3-0.3
					C101.3,41,101.1,40.9,100.9,40.9"/>
				<circle class="st5" cx="100.9" cy="41.2" r="0.3"/>
				<path class="st4" d="M100.9,44.4c-0.2,0-0.3,0.2-0.3,0.3c0,0.2,0.2,0.3,0.3,0.3c0.2,0,0.3-0.2,0.3-0.3
					C101.3,44.6,101.1,44.4,100.9,44.4"/>
				<circle class="st5" cx="100.9" cy="44.8" r="0.3"/>
				<path class="st4" d="M100.9,51.6c-0.2,0-0.3,0.2-0.3,0.3c0,0.2,0.2,0.3,0.3,0.3c0.2,0,0.3-0.2,0.3-0.3
					C101.3,51.7,101.1,51.6,100.9,51.6"/>
				<circle class="st5" cx="100.9" cy="51.9" r="0.3"/>
				<path class="st4" d="M100.9,55.1c-0.2,0-0.3,0.2-0.3,0.3c0,0.2,0.2,0.3,0.3,0.3c0.2,0,0.3-0.2,0.3-0.3
					C101.3,55.3,101.1,55.1,100.9,55.1"/>
				<circle class="st5" cx="100.9" cy="55.5" r="0.3"/>
				<path class="st4" d="M100.9,58.7c-0.2,0-0.3,0.2-0.3,0.3c0,0.2,0.2,0.3,0.3,0.3c0.2,0,0.3-0.2,0.3-0.3
					C101.3,58.9,101.1,58.7,100.9,58.7"/>
				<circle class="st5" cx="100.9" cy="59.1" r="0.3"/>
				<path class="st4" d="M100.9,62.3c-0.2,0-0.3,0.2-0.3,0.3s0.2,0.3,0.3,0.3c0.2,0,0.3-0.2,0.3-0.3S101.1,62.3,100.9,62.3"/>
				<circle class="st5" cx="100.9" cy="62.6" r="0.3"/>
				<path class="st4" d="M100.9,48c-0.2,0-0.3,0.2-0.3,0.3c0,0.2,0.2,0.3,0.3,0.3c0.2,0,0.3-0.2,0.3-0.3
					C101.3,48.2,101.1,48,100.9,48"/>
				<circle class="st5" cx="100.9" cy="48.3" r="0.3"/>
				<path class="st4" d="M105.5,38c0.1,0,0.2,0,0.2-0.1c0,0,0.1-0.1,0.1-0.2c-0.2,0-0.4,0-0.7,0c0,0.1,0,0.1,0.1,0.2
					C105.3,37.9,105.4,38,105.5,38"/>
				<path class="st5" d="M105.5,38c0.1,0,0.2,0,0.2-0.1c0,0,0.1-0.1,0.1-0.2c-0.2,0-0.4,0-0.7,0c0,0.1,0,0.1,0.1,0.2
					C105.3,37.9,105.4,38,105.5,38z"/>
				<path class="st4" d="M105.5,69.4c-0.2,0-0.3,0.2-0.3,0.3c0,0.2,0.2,0.3,0.3,0.3c0.2,0,0.3-0.2,0.3-0.3
					C105.9,69.6,105.7,69.4,105.5,69.4"/>
				<circle class="st5" cx="105.5" cy="69.8" r="0.3"/>
				<path class="st4" d="M105.5,65.9c-0.2,0-0.3,0.2-0.3,0.3c0,0.2,0.2,0.3,0.3,0.3c0.2,0,0.3-0.2,0.3-0.3
					C105.9,66,105.7,65.9,105.5,65.9"/>
				<circle class="st5" cx="105.5" cy="66.2" r="0.3"/>
				<path class="st4" d="M105.5,58.7c-0.2,0-0.3,0.2-0.3,0.3c0,0.2,0.2,0.3,0.3,0.3c0.2,0,0.3-0.2,0.3-0.3
					C105.9,58.9,105.7,58.7,105.5,58.7"/>
				<circle class="st5" cx="105.5" cy="59.1" r="0.3"/>
				<path class="st4" d="M105.5,55.1c-0.2,0-0.3,0.2-0.3,0.3c0,0.2,0.2,0.3,0.3,0.3c0.2,0,0.3-0.2,0.3-0.3
					C105.9,55.3,105.7,55.1,105.5,55.1"/>
				<circle class="st5" cx="105.5" cy="55.5" r="0.3"/>
				<path class="st4" d="M105.5,51.6c-0.2,0-0.3,0.2-0.3,0.3c0,0.2,0.2,0.3,0.3,0.3c0.2,0,0.3-0.2,0.3-0.3
					C105.9,51.7,105.7,51.6,105.5,51.6"/>
				<circle class="st5" cx="105.5" cy="51.9" r="0.3"/>
				<path class="st4" d="M105.5,76.6c-0.2,0-0.3,0.2-0.3,0.3s0.2,0.3,0.3,0.3c0.2,0,0.3-0.2,0.3-0.3S105.7,76.6,105.5,76.6"/>
				<circle class="st5" cx="105.5" cy="76.9" r="0.3"/>
				<path class="st4" d="M105.5,73c-0.2,0-0.3,0.2-0.3,0.3c0,0.2,0.2,0.3,0.3,0.3c0.2,0,0.3-0.2,0.3-0.3
					C105.9,73.2,105.7,73,105.5,73"/>
				<circle class="st5" cx="105.5" cy="73.3" r="0.3"/>
				<path class="st4" d="M105.5,80.1c-0.2,0-0.3,0.2-0.3,0.3c0,0.2,0.2,0.3,0.3,0.3c0.2,0,0.3-0.2,0.3-0.3
					C105.9,80.3,105.7,80.1,105.5,80.1"/>
				<circle class="st5" cx="105.5" cy="80.5" r="0.3"/>
				<path class="st4" d="M105.5,48c-0.2,0-0.3,0.2-0.3,0.3c0,0.2,0.2,0.3,0.3,0.3c0.2,0,0.3-0.2,0.3-0.3
					C105.9,48.2,105.7,48,105.5,48"/>
				<circle class="st5" cx="105.5" cy="48.3" r="0.3"/>
				<path class="st4" d="M105.5,62.3c-0.2,0-0.3,0.2-0.3,0.3s0.2,0.3,0.3,0.3c0.2,0,0.3-0.2,0.3-0.3S105.7,62.3,105.5,62.3"/>
				<circle class="st5" cx="105.5" cy="62.6" r="0.3"/>
				<path class="st4" d="M105.5,44.4c-0.2,0-0.3,0.2-0.3,0.3c0,0.2,0.2,0.3,0.3,0.3c0.2,0,0.3-0.2,0.3-0.3
					C105.9,44.6,105.7,44.4,105.5,44.4"/>
				<circle class="st5" cx="105.5" cy="44.8" r="0.3"/>
				<path class="st4" d="M105.5,40.9c-0.2,0-0.3,0.2-0.3,0.3c0,0.2,0.2,0.3,0.3,0.3c0.2,0,0.3-0.2,0.3-0.3
					C105.9,41,105.7,40.9,105.5,40.9"/>
				<circle class="st5" cx="105.5" cy="41.2" r="0.3"/>
				<path class="st4" d="M110.1,80.1c-0.2,0-0.3,0.2-0.3,0.3c0,0.2,0.2,0.3,0.3,0.3c0.2,0,0.3-0.2,0.3-0.3
					C110.5,80.3,110.3,80.1,110.1,80.1"/>
				<circle class="st5" cx="110.1" cy="80.5" r="0.3"/>
				<path class="st4" d="M110.1,65.9c-0.2,0-0.3,0.2-0.3,0.3c0,0.2,0.2,0.3,0.3,0.3c0.2,0,0.3-0.2,0.3-0.3
					C110.5,66,110.3,65.9,110.1,65.9"/>
				<circle class="st5" cx="110.1" cy="66.2" r="0.3"/>
				<path class="st4" d="M110.1,76.6c-0.2,0-0.3,0.2-0.3,0.3s0.2,0.3,0.3,0.3c0.2,0,0.3-0.2,0.3-0.3S110.3,76.6,110.1,76.6"/>
				<circle class="st5" cx="110.1" cy="76.9" r="0.3"/>
				<path class="st4" d="M110.1,69.4c-0.2,0-0.3,0.2-0.3,0.3c0,0.2,0.2,0.3,0.3,0.3c0.2,0,0.3-0.2,0.3-0.3
					C110.5,69.6,110.3,69.4,110.1,69.4"/>
				<circle class="st5" cx="110.1" cy="69.8" r="0.3"/>
				<path class="st4" d="M110.1,62.3c-0.2,0-0.3,0.2-0.3,0.3s0.2,0.3,0.3,0.3c0.2,0,0.3-0.2,0.3-0.3S110.3,62.3,110.1,62.3"/>
				<circle class="st5" cx="110.1" cy="62.6" r="0.3"/>
				<path class="st4" d="M110.1,73c-0.2,0-0.3,0.2-0.3,0.3c0,0.2,0.2,0.3,0.3,0.3c0.2,0,0.3-0.2,0.3-0.3
					C110.5,73.2,110.3,73,110.1,73"/>
				<circle class="st5" cx="110.1" cy="73.3" r="0.3"/>
				<path class="st4" d="M110.1,48c-0.2,0-0.3,0.2-0.3,0.3c0,0.2,0.2,0.3,0.3,0.3c0.2,0,0.3-0.2,0.3-0.3
					C110.5,48.2,110.3,48,110.1,48"/>
				<circle class="st5" cx="110.1" cy="48.3" r="0.3"/>
				<path class="st4" d="M110.1,40.9c-0.2,0-0.3,0.2-0.3,0.3c0,0.2,0.2,0.3,0.3,0.3c0.2,0,0.3-0.2,0.3-0.3
					C110.5,41,110.3,40.9,110.1,40.9"/>
				<circle class="st5" cx="110.1" cy="41.2" r="0.3"/>
				<path class="st4" d="M110.1,58.7c-0.2,0-0.3,0.2-0.3,0.3c0,0.2,0.2,0.3,0.3,0.3c0.2,0,0.3-0.2,0.3-0.3
					C110.5,58.9,110.3,58.7,110.1,58.7"/>
				<circle class="st5" cx="110.1" cy="59.1" r="0.3"/>
				<path class="st4" d="M110.1,44.4c-0.2,0-0.3,0.2-0.3,0.3c0,0.2,0.2,0.3,0.3,0.3c0.2,0,0.3-0.2,0.3-0.3
					C110.5,44.6,110.3,44.4,110.1,44.4"/>
				<circle class="st5" cx="110.1" cy="44.8" r="0.3"/>
				<path class="st4" d="M110.1,51.6c-0.2,0-0.3,0.2-0.3,0.3c0,0.2,0.2,0.3,0.3,0.3c0.2,0,0.3-0.2,0.3-0.3
					C110.5,51.7,110.3,51.6,110.1,51.6"/>
				<circle class="st5" cx="110.1" cy="51.9" r="0.3"/>
				<path class="st4" d="M110.1,55.1c-0.2,0-0.3,0.2-0.3,0.3c0,0.2,0.2,0.3,0.3,0.3c0.2,0,0.3-0.2,0.3-0.3
					C110.5,55.3,110.3,55.1,110.1,55.1"/>
				<circle class="st5" cx="110.1" cy="55.5" r="0.3"/>
				<path class="st4" d="M114.7,40.9c-0.2,0-0.3,0.2-0.3,0.3c0,0.2,0.2,0.3,0.3,0.3c0.2,0,0.3-0.2,0.3-0.3
					C115,41,114.9,40.9,114.7,40.9"/>
				<circle class="st5" cx="114.7" cy="41.2" r="0.3"/>
				<path class="st4" d="M114.7,51.6c-0.2,0-0.3,0.2-0.3,0.3c0,0.2,0.2,0.3,0.3,0.3c0.2,0,0.3-0.2,0.3-0.3
					C115,51.7,114.9,51.6,114.7,51.6"/>
				<circle class="st5" cx="114.7" cy="51.9" r="0.3"/>
				<path class="st4" d="M114.7,48c-0.2,0-0.3,0.2-0.3,0.3c0,0.2,0.2,0.3,0.3,0.3c0.2,0,0.3-0.2,0.3-0.3C115,48.2,114.9,48,114.7,48
					"/>
				<circle class="st5" cx="114.7" cy="48.3" r="0.3"/>
				<path class="st4" d="M114.7,44.4c-0.2,0-0.3,0.2-0.3,0.3c0,0.2,0.2,0.3,0.3,0.3c0.2,0,0.3-0.2,0.3-0.3
					C115,44.6,114.9,44.4,114.7,44.4"/>
				<circle class="st5" cx="114.7" cy="44.8" r="0.3"/>
				<path class="st4" d="M114.7,62.3c-0.2,0-0.3,0.2-0.3,0.3s0.2,0.3,0.3,0.3c0.2,0,0.3-0.2,0.3-0.3S114.9,62.3,114.7,62.3"/>
				<circle class="st5" cx="114.7" cy="62.6" r="0.3"/>
				<path class="st4" d="M114.7,80.1c-0.2,0-0.3,0.2-0.3,0.3c0,0.2,0.2,0.3,0.3,0.3c0.2,0,0.3-0.2,0.3-0.3
					C115,80.3,114.9,80.1,114.7,80.1"/>
				<circle class="st5" cx="114.7" cy="80.5" r="0.3"/>
				<path class="st4" d="M114.7,58.7c-0.2,0-0.3,0.2-0.3,0.3c0,0.2,0.2,0.3,0.3,0.3c0.2,0,0.3-0.2,0.3-0.3
					C115,58.9,114.9,58.7,114.7,58.7"/>
				<circle class="st5" cx="114.7" cy="59.1" r="0.3"/>
				<path class="st4" d="M114.7,55.1c-0.2,0-0.3,0.2-0.3,0.3c0,0.2,0.2,0.3,0.3,0.3c0.2,0,0.3-0.2,0.3-0.3
					C115,55.3,114.9,55.1,114.7,55.1"/>
				<circle class="st5" cx="114.7" cy="55.5" r="0.3"/>
				<path class="st4" d="M114.7,76.6c-0.2,0-0.3,0.2-0.3,0.3s0.2,0.3,0.3,0.3c0.2,0,0.3-0.2,0.3-0.3S114.9,76.6,114.7,76.6"/>
				<circle class="st5" cx="114.7" cy="76.9" r="0.3"/>
				<path class="st4" d="M114.7,73c-0.2,0-0.3,0.2-0.3,0.3c0,0.2,0.2,0.3,0.3,0.3c0.2,0,0.3-0.2,0.3-0.3C115,73.2,114.9,73,114.7,73
					"/>
				<circle class="st5" cx="114.7" cy="73.3" r="0.3"/>
				<path class="st4" d="M114.7,69.4c-0.2,0-0.3,0.2-0.3,0.3c0,0.2,0.2,0.3,0.3,0.3c0.2,0,0.3-0.2,0.3-0.3
					C115,69.6,114.9,69.4,114.7,69.4"/>
				<circle class="st5" cx="114.7" cy="69.8" r="0.3"/>
				<path class="st4" d="M114.7,65.9c-0.2,0-0.3,0.2-0.3,0.3c0,0.2,0.2,0.3,0.3,0.3c0.2,0,0.3-0.2,0.3-0.3
					C115,66,114.9,65.9,114.7,65.9"/>
				<circle class="st5" cx="114.7" cy="66.2" r="0.3"/>
				<path class="st4" d="M119.3,69.4c-0.2,0-0.3,0.2-0.3,0.3c0,0.2,0.2,0.3,0.3,0.3c0.2,0,0.3-0.2,0.3-0.3
					C119.6,69.6,119.5,69.4,119.3,69.4"/>
				<circle class="st5" cx="119.3" cy="69.8" r="0.3"/>
				<path class="st4" d="M119.3,62.3c-0.2,0-0.3,0.2-0.3,0.3s0.2,0.3,0.3,0.3c0.2,0,0.3-0.2,0.3-0.3S119.5,62.3,119.3,62.3"/>
				<circle class="st5" cx="119.3" cy="62.6" r="0.3"/>
				<path class="st4" d="M119.3,65.9c-0.2,0-0.3,0.2-0.3,0.3c0,0.2,0.2,0.3,0.3,0.3c0.2,0,0.3-0.2,0.3-0.3
					C119.6,66,119.5,65.9,119.3,65.9"/>
				<circle class="st5" cx="119.3" cy="66.2" r="0.3"/>
				<path class="st4" d="M119.3,55.1c-0.2,0-0.3,0.2-0.3,0.3c0,0.2,0.2,0.3,0.3,0.3c0.2,0,0.3-0.2,0.3-0.3
					C119.6,55.3,119.5,55.1,119.3,55.1"/>
				<circle class="st5" cx="119.3" cy="55.5" r="0.3"/>
				<path class="st4" d="M119.3,58.7c-0.2,0-0.3,0.2-0.3,0.3c0,0.2,0.2,0.3,0.3,0.3c0.2,0,0.3-0.2,0.3-0.3
					C119.6,58.9,119.5,58.7,119.3,58.7"/>
				<circle class="st5" cx="119.3" cy="59.1" r="0.3"/>
				<path class="st4" d="M119.3,51.6c-0.2,0-0.3,0.2-0.3,0.3c0,0.2,0.2,0.3,0.3,0.3c0.2,0,0.3-0.2,0.3-0.3
					C119.6,51.7,119.5,51.6,119.3,51.6"/>
				<circle class="st5" cx="119.3" cy="51.9" r="0.3"/>
				<path class="st4" d="M119.3,44.4c-0.2,0-0.3,0.2-0.3,0.3c0,0.2,0.2,0.3,0.3,0.3c0.2,0,0.3-0.2,0.3-0.3
					C119.6,44.6,119.5,44.4,119.3,44.4"/>
				<circle class="st5" cx="119.3" cy="44.8" r="0.3"/>
				<path class="st4" d="M119.3,41.5c0.1,0,0.2,0,0.2-0.1c-0.2-0.1-0.4-0.2-0.6-0.3c0,0,0,0,0,0C119,41.4,119.1,41.5,119.3,41.5"/>
				<path class="st5" d="M119.3,41.5c0.1,0,0.2,0,0.2-0.1c-0.2-0.1-0.4-0.2-0.6-0.3c0,0,0,0,0,0C119,41.4,119.1,41.5,119.3,41.5z"/>
				<path class="st4" d="M119.3,48c-0.2,0-0.3,0.2-0.3,0.3c0,0.2,0.2,0.3,0.3,0.3c0.2,0,0.3-0.2,0.3-0.3
					C119.6,48.2,119.5,48,119.3,48"/>
				<circle class="st5" cx="119.3" cy="48.3" r="0.3"/>
				<path class="st4" d="M119.3,73c-0.2,0-0.3,0.2-0.3,0.3c0,0.2,0.2,0.3,0.3,0.3c0.2,0,0.3-0.2,0.3-0.3
					C119.6,73.2,119.5,73,119.3,73"/>
				<circle class="st5" cx="119.3" cy="73.3" r="0.3"/>
				<path class="st4" d="M119.3,76.6c-0.2,0-0.3,0.2-0.3,0.3s0.2,0.3,0.3,0.3c0.2,0,0.3-0.2,0.3-0.3S119.5,76.6,119.3,76.6"/>
				<circle class="st5" cx="119.3" cy="76.9" r="0.3"/>
				<path class="st4" d="M119.3,80.1c-0.2,0-0.3,0.2-0.3,0.3c0,0.2,0.2,0.3,0.3,0.3c0.2,0,0.3-0.2,0.3-0.3
					C119.6,80.3,119.5,80.1,119.3,80.1"/>
				<circle class="st5" cx="119.3" cy="80.5" r="0.3"/>
				<path class="st4" d="M123.9,51.6c-0.2,0-0.3,0.2-0.3,0.3c0,0.2,0.2,0.3,0.3,0.3c0.2,0,0.3-0.2,0.3-0.3
					C124.2,51.7,124.1,51.6,123.9,51.6"/>
				<circle class="st5" cx="123.9" cy="51.9" r="0.3"/>
				<path class="st4" d="M123.9,80.1c-0.2,0-0.3,0.2-0.3,0.3c0,0.2,0.2,0.3,0.3,0.3c0.2,0,0.3-0.2,0.3-0.3
					C124.2,80.3,124.1,80.1,123.9,80.1"/>
				<circle class="st5" cx="123.9" cy="80.5" r="0.3"/>
				<path class="st4" d="M123.9,76.6c-0.2,0-0.3,0.2-0.3,0.3s0.2,0.3,0.3,0.3c0.2,0,0.3-0.2,0.3-0.3S124.1,76.6,123.9,76.6"/>
				<circle class="st5" cx="123.9" cy="76.9" r="0.3"/>
				<path class="st4" d="M123.9,58.7c-0.2,0-0.3,0.2-0.3,0.3c0,0.2,0.2,0.3,0.3,0.3c0.2,0,0.3-0.2,0.3-0.3
					C124.2,58.9,124.1,58.7,123.9,58.7"/>
				<circle class="st5" cx="123.9" cy="59.1" r="0.3"/>
				<path class="st4" d="M123.9,48c-0.2,0-0.3,0.2-0.3,0.3c0,0.2,0.2,0.3,0.3,0.3c0.2,0,0.3-0.2,0.3-0.3
					C124.2,48.2,124.1,48,123.9,48"/>
				<circle class="st5" cx="123.9" cy="48.3" r="0.3"/>
				<path class="st4" d="M123.9,73c-0.2,0-0.3,0.2-0.3,0.3c0,0.2,0.2,0.3,0.3,0.3c0.2,0,0.3-0.2,0.3-0.3
					C124.2,73.2,124.1,73,123.9,73"/>
				<circle class="st5" cx="123.9" cy="73.3" r="0.3"/>
				<path class="st4" d="M123.9,44.4c-0.2,0-0.3,0.2-0.3,0.3c0,0.2,0.2,0.3,0.3,0.3c0.2,0,0.3-0.2,0.3-0.3
					C124.2,44.6,124.1,44.4,123.9,44.4"/>
				<circle class="st5" cx="123.9" cy="44.8" r="0.3"/>
				<path class="st4" d="M123.9,55.1c-0.2,0-0.3,0.2-0.3,0.3c0,0.2,0.2,0.3,0.3,0.3c0.2,0,0.3-0.2,0.3-0.3
					C124.2,55.3,124.1,55.1,123.9,55.1"/>
				<circle class="st5" cx="123.9" cy="55.5" r="0.3"/>
				<path class="st4" d="M123.9,65.9c-0.2,0-0.3,0.2-0.3,0.3c0,0.2,0.2,0.3,0.3,0.3c0.2,0,0.3-0.2,0.3-0.3
					C124.2,66,124.1,65.9,123.9,65.9"/>
				<circle class="st5" cx="123.9" cy="66.2" r="0.3"/>
				<path class="st4" d="M123.9,62.3c-0.2,0-0.3,0.2-0.3,0.3s0.2,0.3,0.3,0.3c0.2,0,0.3-0.2,0.3-0.3S124.1,62.3,123.9,62.3"/>
				<circle class="st5" cx="123.9" cy="62.6" r="0.3"/>
				<path class="st4" d="M123.9,69.4c-0.2,0-0.3,0.2-0.3,0.3c0,0.2,0.2,0.3,0.3,0.3c0.2,0,0.3-0.2,0.3-0.3
					C124.2,69.6,124.1,69.4,123.9,69.4"/>
				<circle class="st5" cx="123.9" cy="69.8" r="0.3"/>
				<path class="st4" d="M128.5,69.4c-0.2,0-0.3,0.2-0.3,0.3c0,0.2,0.2,0.3,0.3,0.3c0.2,0,0.3-0.2,0.3-0.3
					C128.8,69.6,128.7,69.4,128.5,69.4"/>
				<circle class="st5" cx="128.5" cy="69.8" r="0.3"/>
				<path class="st4" d="M128.5,65.9c-0.2,0-0.3,0.2-0.3,0.3c0,0.2,0.2,0.3,0.3,0.3c0.2,0,0.3-0.2,0.3-0.3
					C128.8,66,128.7,65.9,128.5,65.9"/>
				<circle class="st5" cx="128.5" cy="66.2" r="0.3"/>
				<path class="st4" d="M128.5,55.1c-0.2,0-0.3,0.2-0.3,0.3c0,0.2,0.2,0.3,0.3,0.3c0.2,0,0.3-0.2,0.3-0.3
					C128.8,55.3,128.7,55.1,128.5,55.1"/>
				<circle class="st5" cx="128.5" cy="55.5" r="0.3"/>
				<path class="st4" d="M128.5,48c-0.2,0-0.3,0.2-0.3,0.3c0,0.2,0.2,0.3,0.3,0.3c0.2,0,0.3-0.2,0.3-0.3
					C128.8,48.2,128.7,48,128.5,48"/>
				<circle class="st5" cx="128.5" cy="48.3" r="0.3"/>
				<path class="st4" d="M128.5,51.6c-0.2,0-0.3,0.2-0.3,0.3c0,0.2,0.2,0.3,0.3,0.3c0.2,0,0.3-0.2,0.3-0.3
					C128.8,51.7,128.7,51.6,128.5,51.6"/>
				<circle class="st5" cx="128.5" cy="51.9" r="0.3"/>
				<path class="st4" d="M128.5,62.3c-0.2,0-0.3,0.2-0.3,0.3s0.2,0.3,0.3,0.3c0.2,0,0.3-0.2,0.3-0.3S128.7,62.3,128.5,62.3"/>
				<circle class="st5" cx="128.5" cy="62.6" r="0.3"/>
				<path class="st4" d="M128.5,80.1c-0.2,0-0.3,0.2-0.3,0.3c0,0.2,0.2,0.3,0.3,0.3c0.2,0,0.3-0.2,0.3-0.3
					C128.8,80.3,128.7,80.1,128.5,80.1"/>
				<circle class="st5" cx="128.5" cy="80.5" r="0.3"/>
				<path class="st4" d="M128.5,58.7c-0.2,0-0.3,0.2-0.3,0.3c0,0.2,0.2,0.3,0.3,0.3c0.2,0,0.3-0.2,0.3-0.3
					C128.8,58.9,128.7,58.7,128.5,58.7"/>
				<circle class="st5" cx="128.5" cy="59.1" r="0.3"/>
				<path class="st4" d="M128.5,76.6c-0.2,0-0.3,0.2-0.3,0.3s0.2,0.3,0.3,0.3c0.2,0,0.3-0.2,0.3-0.3S128.7,76.6,128.5,76.6"/>
				<circle class="st5" cx="128.5" cy="76.9" r="0.3"/>
				<path class="st4" d="M128.5,73c-0.2,0-0.3,0.2-0.3,0.3c0,0.2,0.2,0.3,0.3,0.3c0.2,0,0.3-0.2,0.3-0.3
					C128.8,73.2,128.7,73,128.5,73"/>
				<circle class="st5" cx="128.5" cy="73.3" r="0.3"/>
				<path class="st4" d="M133.1,62.3c-0.2,0-0.3,0.2-0.3,0.3s0.2,0.3,0.3,0.3c0.2,0,0.3-0.2,0.3-0.3S133.3,62.3,133.1,62.3"/>
				<circle class="st5" cx="133.1" cy="62.6" r="0.3"/>
				<path class="st4" d="M133.1,69.4c-0.2,0-0.3,0.2-0.3,0.3c0,0.2,0.2,0.3,0.3,0.3c0.2,0,0.3-0.2,0.3-0.3
					C133.4,69.6,133.3,69.4,133.1,69.4"/>
				<circle class="st5" cx="133.1" cy="69.8" r="0.3"/>
				<path class="st4" d="M133.1,80.1c-0.2,0-0.3,0.2-0.3,0.3c0,0.2,0.2,0.3,0.3,0.3c0.2,0,0.3-0.2,0.3-0.3
					C133.4,80.3,133.3,80.1,133.1,80.1"/>
				<circle class="st5" cx="133.1" cy="80.5" r="0.3"/>
				<path class="st4" d="M133.1,73c-0.2,0-0.3,0.2-0.3,0.3c0,0.2,0.2,0.3,0.3,0.3c0.2,0,0.3-0.2,0.3-0.3
					C133.4,73.2,133.3,73,133.1,73"/>
				<circle class="st5" cx="133.1" cy="73.3" r="0.3"/>
				<path class="st4" d="M133.1,55.1c-0.2,0-0.3,0.2-0.3,0.3c0,0.2,0.2,0.3,0.3,0.3c0.2,0,0.3-0.2,0.3-0.3
					C133.4,55.3,133.3,55.1,133.1,55.1"/>
				<circle class="st5" cx="133.1" cy="55.5" r="0.3"/>
				<path class="st4" d="M133.1,58.7c-0.2,0-0.3,0.2-0.3,0.3c0,0.2,0.2,0.3,0.3,0.3c0.2,0,0.3-0.2,0.3-0.3
					C133.4,58.9,133.3,58.7,133.1,58.7"/>
				<circle class="st5" cx="133.1" cy="59.1" r="0.3"/>
				<path class="st4" d="M133.1,65.9c-0.2,0-0.3,0.2-0.3,0.3c0,0.2,0.2,0.3,0.3,0.3c0.2,0,0.3-0.2,0.3-0.3
					C133.4,66,133.3,65.9,133.1,65.9"/>
				<circle class="st5" cx="133.1" cy="66.2" r="0.3"/>
				<path class="st4" d="M133.1,76.6c-0.2,0-0.3,0.2-0.3,0.3s0.2,0.3,0.3,0.3c0.2,0,0.3-0.2,0.3-0.3S133.3,76.6,133.1,76.6"/>
				<circle class="st5" cx="133.1" cy="76.9" r="0.3"/>
				<path class="st4" d="M137.7,69.4c-0.2,0-0.3,0.2-0.3,0.3c0,0.2,0.2,0.3,0.3,0.3c0.2,0,0.3-0.2,0.3-0.3
					C138,69.6,137.9,69.4,137.7,69.4"/>
				<circle class="st5" cx="137.7" cy="69.8" r="0.3"/>
				<path class="st4" d="M137.7,66.5c0.2,0,0.3-0.2,0.3-0.3c0-0.2-0.2-0.3-0.3-0.3c-0.2,0-0.3,0.2-0.3,0.3
					C137.4,66.4,137.5,66.5,137.7,66.5"/>
				<circle class="st5" cx="137.7" cy="66.2" r="0.3"/>
				<path class="st4" d="M137.7,73c-0.2,0-0.3,0.2-0.3,0.3c0,0.2,0.2,0.3,0.3,0.3c0.2,0,0.3-0.2,0.3-0.3C138,73.2,137.9,73,137.7,73
					"/>
				<circle class="st5" cx="137.7" cy="73.3" r="0.3"/>
				<path class="st4" d="M137.7,80.1c-0.2,0-0.3,0.2-0.3,0.3c0,0.2,0.2,0.3,0.3,0.3c0.2,0,0.3-0.2,0.3-0.3
					C138,80.3,137.9,80.1,137.7,80.1"/>
				<circle class="st5" cx="137.7" cy="80.5" r="0.3"/>
				<path class="st4" d="M137.7,76.6c-0.2,0-0.3,0.2-0.3,0.3s0.2,0.3,0.3,0.3c0.2,0,0.3-0.2,0.3-0.3S137.9,76.6,137.7,76.6"/>
				<circle class="st5" cx="137.7" cy="76.9" r="0.3"/>
				<path class="st4" d="M137.7,63c-0.1-0.2-0.1-0.4-0.2-0.6c-0.1,0.1-0.1,0.2-0.1,0.3C137.4,62.8,137.5,63,137.7,63"/>
				<path class="st5" d="M137.7,63c-0.1-0.2-0.1-0.4-0.2-0.6c-0.1,0.1-0.1,0.2-0.1,0.3C137.4,62.8,137.5,63,137.7,63z"/>
				<path class="st4" d="M68.7,83.7c-0.1,0-0.3,0.1-0.3,0.2c0,0.1,0,0.2,0.1,0.3c0.1,0.1,0.1,0.1,0.2,0.1c0.2,0,0.3-0.2,0.3-0.3
					C69.1,83.9,68.9,83.7,68.7,83.7"/>
				<path class="st5" d="M68.7,83.7c-0.1,0-0.3,0.1-0.3,0.2c0,0.1,0,0.2,0.1,0.3c0.1,0.1,0.1,0.1,0.2,0.1c0.2,0,0.3-0.2,0.3-0.3
					C69.1,83.9,68.9,83.7,68.7,83.7z"/>
				<path class="st4" d="M73.3,90.9c-0.2,0-0.3,0.2-0.3,0.3c0,0.2,0.2,0.3,0.3,0.3c0.2,0,0.3-0.2,0.3-0.3
					C73.7,91,73.5,90.9,73.3,90.9"/>
				<circle class="st5" cx="73.3" cy="91.2" r="0.3"/>
				<path class="st4" d="M73.3,87.3c-0.2,0-0.3,0.2-0.3,0.3c0,0.2,0.2,0.3,0.3,0.3c0.2,0,0.3-0.2,0.3-0.3
					C73.7,87.4,73.5,87.3,73.3,87.3"/>
				<circle class="st5" cx="73.3" cy="87.6" r="0.3"/>
				<path class="st4" d="M73.3,94.4c-0.2,0-0.3,0.2-0.3,0.3s0.2,0.3,0.3,0.3c0.2,0,0.3-0.2,0.3-0.3S73.5,94.4,73.3,94.4"/>
				<circle class="st5" cx="73.3" cy="94.8" r="0.3"/>
				<path class="st4" d="M73.3,83.7c-0.2,0-0.3,0.2-0.3,0.3c0,0.2,0.2,0.3,0.3,0.3c0.2,0,0.3-0.2,0.3-0.3
					C73.7,83.9,73.5,83.7,73.3,83.7"/>
				<circle class="st5" cx="73.3" cy="84.1" r="0.3"/>
				<path class="st4" d="M77.9,83.7c-0.2,0-0.3,0.2-0.3,0.3c0,0.2,0.2,0.3,0.3,0.3c0.2,0,0.3-0.2,0.3-0.3
					C78.3,83.9,78.1,83.7,77.9,83.7"/>
				<circle class="st5" cx="77.9" cy="84.1" r="0.3"/>
				<path class="st4" d="M77.9,94.4c-0.2,0-0.3,0.2-0.3,0.3s0.2,0.3,0.3,0.3c0.2,0,0.3-0.2,0.3-0.3S78.1,94.4,77.9,94.4"/>
				<circle class="st5" cx="77.9" cy="94.8" r="0.3"/>
				<path class="st4" d="M77.9,87.3c-0.2,0-0.3,0.2-0.3,0.3c0,0.2,0.2,0.3,0.3,0.3c0.2,0,0.3-0.2,0.3-0.3
					C78.3,87.4,78.1,87.3,77.9,87.3"/>
				<circle class="st5" cx="77.9" cy="87.6" r="0.3"/>
				<path class="st4" d="M77.9,90.9c-0.2,0-0.3,0.2-0.3,0.3c0,0.2,0.2,0.3,0.3,0.3c0.2,0,0.3-0.2,0.3-0.3
					C78.3,91,78.1,90.9,77.9,90.9"/>
				<circle class="st5" cx="77.9" cy="91.2" r="0.3"/>
				<path class="st4" d="M77.9,101.6c-0.1,0-0.2,0-0.2,0.1c0.2,0.2,0.3,0.3,0.5,0.5c0.1-0.1,0.1-0.1,0.1-0.2
					C78.3,101.7,78.1,101.6,77.9,101.6"/>
				<path class="st5" d="M77.9,101.6c-0.1,0-0.2,0-0.2,0.1c0.2,0.2,0.3,0.3,0.5,0.5c0.1-0.1,0.1-0.1,0.1-0.2
					C78.3,101.7,78.1,101.6,77.9,101.6z"/>
				<path class="st4" d="M77.9,98c-0.2,0-0.3,0.2-0.3,0.3c0,0.2,0.2,0.3,0.3,0.3c0.2,0,0.3-0.2,0.3-0.3C78.3,98.2,78.1,98,77.9,98"
					/>
				<circle class="st5" cx="77.9" cy="98.3" r="0.3"/>
				<path class="st4" d="M82.5,83.7c-0.2,0-0.3,0.2-0.3,0.3c0,0.2,0.2,0.3,0.3,0.3c0.2,0,0.3-0.2,0.3-0.3
					C82.9,83.9,82.7,83.7,82.5,83.7"/>
				<circle class="st5" cx="82.5" cy="84.1" r="0.3"/>
				<path class="st4" d="M82.5,90.9c-0.2,0-0.3,0.2-0.3,0.3c0,0.2,0.2,0.3,0.3,0.3c0.2,0,0.3-0.2,0.3-0.3
					C82.9,91,82.7,90.9,82.5,90.9"/>
				<circle class="st5" cx="82.5" cy="91.2" r="0.3"/>
				<path class="st4" d="M82.5,101.6c-0.2,0-0.3,0.2-0.3,0.3c0,0.2,0.2,0.3,0.3,0.3c0.2,0,0.3-0.2,0.3-0.3
					C82.9,101.7,82.7,101.6,82.5,101.6"/>
				<circle class="st5" cx="82.5" cy="101.9" r="0.3"/>
				<path class="st4" d="M82.5,98c-0.2,0-0.3,0.2-0.3,0.3c0,0.2,0.2,0.3,0.3,0.3c0.2,0,0.3-0.2,0.3-0.3C82.9,98.2,82.7,98,82.5,98"
					/>
				<circle class="st5" cx="82.5" cy="98.3" r="0.3"/>
				<path class="st4" d="M82.5,94.4c-0.2,0-0.3,0.2-0.3,0.3s0.2,0.3,0.3,0.3c0.2,0,0.3-0.2,0.3-0.3S82.7,94.4,82.5,94.4"/>
				<circle class="st5" cx="82.5" cy="94.8" r="0.3"/>
				<path class="st4" d="M82.5,87.3c-0.2,0-0.3,0.2-0.3,0.3c0,0.2,0.2,0.3,0.3,0.3c0.2,0,0.3-0.2,0.3-0.3
					C82.9,87.4,82.7,87.3,82.5,87.3"/>
				<circle class="st5" cx="82.5" cy="87.6" r="0.3"/>
				<path class="st4" d="M82.5,105.1c-0.2,0-0.3,0.2-0.3,0.3c0,0.1,0,0.1,0,0.1c0.1,0.1,0.2,0.1,0.3,0.2c0,0,0,0,0,0
					c0.2,0,0.3-0.2,0.3-0.3C82.9,105.3,82.7,105.1,82.5,105.1"/>
				<path class="st5" d="M82.5,105.1c-0.2,0-0.3,0.2-0.3,0.3c0,0.1,0,0.1,0,0.1c0.1,0.1,0.2,0.1,0.3,0.2c0,0,0,0,0,0
					c0.2,0,0.3-0.2,0.3-0.3C82.9,105.3,82.7,105.1,82.5,105.1z"/>
				<path class="st4" d="M87.1,94.4c-0.2,0-0.3,0.2-0.3,0.3s0.2,0.3,0.3,0.3c0.2,0,0.3-0.2,0.3-0.3S87.3,94.4,87.1,94.4"/>
				<circle class="st5" cx="87.1" cy="94.8" r="0.3"/>
				<path class="st4" d="M87.1,98c-0.2,0-0.3,0.2-0.3,0.3c0,0.2,0.2,0.3,0.3,0.3c0.2,0,0.3-0.2,0.3-0.3C87.5,98.2,87.3,98,87.1,98"
					/>
				<circle class="st5" cx="87.1" cy="98.3" r="0.3"/>
				<path class="st4" d="M87.1,90.9c-0.2,0-0.3,0.2-0.3,0.3c0,0.2,0.2,0.3,0.3,0.3c0.2,0,0.3-0.2,0.3-0.3
					C87.5,91,87.3,90.9,87.1,90.9"/>
				<circle class="st5" cx="87.1" cy="91.2" r="0.3"/>
				<path class="st4" d="M87.1,83.7c-0.2,0-0.3,0.2-0.3,0.3c0,0.2,0.2,0.3,0.3,0.3c0.2,0,0.3-0.2,0.3-0.3
					C87.5,83.9,87.3,83.7,87.1,83.7"/>
				<circle class="st5" cx="87.1" cy="84.1" r="0.3"/>
				<path class="st4" d="M87.1,87.3c-0.2,0-0.3,0.2-0.3,0.3c0,0.2,0.2,0.3,0.3,0.3c0.2,0,0.3-0.2,0.3-0.3
					C87.5,87.4,87.3,87.3,87.1,87.3"/>
				<circle class="st5" cx="87.1" cy="87.6" r="0.3"/>
				<path class="st4" d="M87.1,101.6c-0.2,0-0.3,0.2-0.3,0.3c0,0.2,0.2,0.3,0.3,0.3c0.2,0,0.3-0.2,0.3-0.3
					C87.5,101.7,87.3,101.6,87.1,101.6"/>
				<circle class="st5" cx="87.1" cy="101.9" r="0.3"/>
				<path class="st4" d="M87.1,105.1c-0.2,0-0.3,0.2-0.3,0.3c0,0.2,0.2,0.3,0.3,0.3c0.2,0,0.3-0.2,0.3-0.3
					C87.5,105.3,87.3,105.1,87.1,105.1"/>
				<circle class="st5" cx="87.1" cy="105.5" r="0.3"/>
				<path class="st4" d="M91.7,83.7c-0.2,0-0.3,0.2-0.3,0.3c0,0.2,0.2,0.3,0.3,0.3c0.2,0,0.3-0.2,0.3-0.3
					C92.1,83.9,91.9,83.7,91.7,83.7"/>
				<circle class="st5" cx="91.7" cy="84.1" r="0.3"/>
				<path class="st4" d="M91.7,87.3c-0.2,0-0.3,0.2-0.3,0.3c0,0.2,0.2,0.3,0.3,0.3c0.2,0,0.3-0.2,0.3-0.3
					C92.1,87.4,91.9,87.3,91.7,87.3"/>
				<circle class="st5" cx="91.7" cy="87.6" r="0.3"/>
				<path class="st4" d="M91.7,101.6c-0.2,0-0.3,0.2-0.3,0.3c0,0.2,0.2,0.3,0.3,0.3c0.2,0,0.3-0.2,0.3-0.3
					C92.1,101.7,91.9,101.6,91.7,101.6"/>
				<circle class="st5" cx="91.7" cy="101.9" r="0.3"/>
				<path class="st4" d="M91.7,108.7c-0.2,0-0.3,0.2-0.3,0.3c0,0.2,0.2,0.3,0.3,0.3c0.2,0,0.3-0.2,0.3-0.3
					C92.1,108.9,91.9,108.7,91.7,108.7"/>
				<circle class="st5" cx="91.7" cy="109.1" r="0.3"/>
				<path class="st4" d="M91.7,105.1c-0.2,0-0.3,0.2-0.3,0.3c0,0.2,0.2,0.3,0.3,0.3c0.2,0,0.3-0.2,0.3-0.3
					C92.1,105.3,91.9,105.1,91.7,105.1"/>
				<circle class="st5" cx="91.7" cy="105.5" r="0.3"/>
				<path class="st4" d="M91.7,90.9c-0.2,0-0.3,0.2-0.3,0.3c0,0.2,0.2,0.3,0.3,0.3c0.2,0,0.3-0.2,0.3-0.3
					C92.1,91,91.9,90.9,91.7,90.9"/>
				<circle class="st5" cx="91.7" cy="91.2" r="0.3"/>
				<path class="st4" d="M91.7,98c-0.2,0-0.3,0.2-0.3,0.3c0,0.2,0.2,0.3,0.3,0.3c0.2,0,0.3-0.2,0.3-0.3C92.1,98.2,91.9,98,91.7,98"
					/>
				<circle class="st5" cx="91.7" cy="98.3" r="0.3"/>
				<path class="st4" d="M91.7,94.4c-0.2,0-0.3,0.2-0.3,0.3s0.2,0.3,0.3,0.3c0.2,0,0.3-0.2,0.3-0.3S91.9,94.4,91.7,94.4"/>
				<circle class="st5" cx="91.7" cy="94.8" r="0.3"/>
				<path class="st4" d="M96.3,83.7c-0.2,0-0.3,0.2-0.3,0.3c0,0.2,0.2,0.3,0.3,0.3c0.2,0,0.3-0.2,0.3-0.3
					C96.7,83.9,96.5,83.7,96.3,83.7"/>
				<circle class="st5" cx="96.3" cy="84.1" r="0.3"/>
				<path class="st4" d="M96.3,87.3c-0.2,0-0.3,0.2-0.3,0.3c0,0.2,0.2,0.3,0.3,0.3c0.2,0,0.3-0.2,0.3-0.3
					C96.7,87.4,96.5,87.3,96.3,87.3"/>
				<circle class="st5" cx="96.3" cy="87.6" r="0.3"/>
				<path class="st4" d="M96.3,108.7c-0.2,0-0.3,0.2-0.3,0.3c0,0.2,0.2,0.3,0.3,0.3c0.2,0,0.3-0.2,0.3-0.3
					C96.7,108.9,96.5,108.7,96.3,108.7"/>
				<circle class="st5" cx="96.3" cy="109.1" r="0.3"/>
				<path class="st4" d="M96.3,90.9c-0.2,0-0.3,0.2-0.3,0.3c0,0.2,0.2,0.3,0.3,0.3c0.2,0,0.3-0.2,0.3-0.3
					C96.7,91,96.5,90.9,96.3,90.9"/>
				<circle class="st5" cx="96.3" cy="91.2" r="0.3"/>
				<path class="st4" d="M96.3,98c-0.2,0-0.3,0.2-0.3,0.3c0,0.2,0.2,0.3,0.3,0.3c0.2,0,0.3-0.2,0.3-0.3C96.7,98.2,96.5,98,96.3,98"
					/>
				<circle class="st5" cx="96.3" cy="98.3" r="0.3"/>
				<path class="st4" d="M96.3,101.6c-0.2,0-0.3,0.2-0.3,0.3c0,0.2,0.2,0.3,0.3,0.3c0.2,0,0.3-0.2,0.3-0.3
					C96.7,101.7,96.5,101.6,96.3,101.6"/>
				<circle class="st5" cx="96.3" cy="101.9" r="0.3"/>
				<path class="st4" d="M96.3,94.4c-0.2,0-0.3,0.2-0.3,0.3s0.2,0.3,0.3,0.3c0.2,0,0.3-0.2,0.3-0.3S96.5,94.4,96.3,94.4"/>
				<circle class="st5" cx="96.3" cy="94.8" r="0.3"/>
				<path class="st4" d="M96.3,105.1c-0.2,0-0.3,0.2-0.3,0.3c0,0.2,0.2,0.3,0.3,0.3c0.2,0,0.3-0.2,0.3-0.3
					C96.7,105.3,96.5,105.1,96.3,105.1"/>
				<circle class="st5" cx="96.3" cy="105.5" r="0.3"/>
				<path class="st4" d="M100.9,112.3c-0.1,0-0.2,0-0.2,0.1c0,0-0.1,0.1-0.1,0.1c0.2,0,0.4,0,0.6,0c0-0.1,0-0.1-0.1-0.2
					C101.1,112.3,101,112.3,100.9,112.3"/>
				<path class="st5" d="M100.9,112.3c-0.1,0-0.2,0-0.2,0.1c0,0-0.1,0.1-0.1,0.1c0.2,0,0.4,0,0.6,0c0-0.1,0-0.1-0.1-0.2
					C101.1,112.3,101,112.3,100.9,112.3z"/>
				<path class="st4" d="M100.9,83.7c-0.2,0-0.3,0.2-0.3,0.3c0,0.2,0.2,0.3,0.3,0.3c0.2,0,0.3-0.2,0.3-0.3
					C101.3,83.9,101.1,83.7,100.9,83.7"/>
				<circle class="st5" cx="100.9" cy="84.1" r="0.3"/>
				<path class="st4" d="M100.9,108.7c-0.2,0-0.3,0.2-0.3,0.3c0,0.2,0.2,0.3,0.3,0.3c0.2,0,0.3-0.2,0.3-0.3
					C101.3,108.9,101.1,108.7,100.9,108.7"/>
				<circle class="st5" cx="100.9" cy="109.1" r="0.3"/>
				<path class="st4" d="M100.9,105.1c-0.2,0-0.3,0.2-0.3,0.3c0,0.2,0.2,0.3,0.3,0.3c0.2,0,0.3-0.2,0.3-0.3
					C101.3,105.3,101.1,105.1,100.9,105.1"/>
				<circle class="st5" cx="100.9" cy="105.5" r="0.3"/>
				<path class="st4" d="M100.9,98c-0.2,0-0.3,0.2-0.3,0.3c0,0.2,0.2,0.3,0.3,0.3c0.2,0,0.3-0.2,0.3-0.3
					C101.3,98.2,101.1,98,100.9,98"/>
				<circle class="st5" cx="100.9" cy="98.3" r="0.3"/>
				<path class="st4" d="M100.9,94.4c-0.2,0-0.3,0.2-0.3,0.3s0.2,0.3,0.3,0.3c0.2,0,0.3-0.2,0.3-0.3S101.1,94.4,100.9,94.4"/>
				<circle class="st5" cx="100.9" cy="94.8" r="0.3"/>
				<path class="st4" d="M100.9,90.9c-0.2,0-0.3,0.2-0.3,0.3c0,0.2,0.2,0.3,0.3,0.3c0.2,0,0.3-0.2,0.3-0.3
					C101.3,91,101.1,90.9,100.9,90.9"/>
				<circle class="st5" cx="100.9" cy="91.2" r="0.3"/>
				<path class="st4" d="M100.9,87.3c-0.2,0-0.3,0.2-0.3,0.3c0,0.2,0.2,0.3,0.3,0.3c0.2,0,0.3-0.2,0.3-0.3
					C101.3,87.4,101.1,87.3,100.9,87.3"/>
				<circle class="st5" cx="100.9" cy="87.6" r="0.3"/>
				<path class="st4" d="M100.9,101.6c-0.2,0-0.3,0.2-0.3,0.3c0,0.2,0.2,0.3,0.3,0.3c0.2,0,0.3-0.2,0.3-0.3
					C101.3,101.7,101.1,101.6,100.9,101.6"/>
				<circle class="st5" cx="100.9" cy="101.9" r="0.3"/>
				<path class="st4" d="M105.5,112.3c-0.1,0-0.2,0-0.2,0.1c-0.1,0.1-0.1,0.1-0.1,0.2c0.2,0,0.4,0,0.7,0c0-0.1,0-0.1-0.1-0.2
					C105.7,112.3,105.6,112.3,105.5,112.3"/>
				<path class="st5" d="M105.5,112.3c-0.1,0-0.2,0-0.2,0.1c-0.1,0.1-0.1,0.1-0.1,0.2c0.2,0,0.4,0,0.7,0c0-0.1,0-0.1-0.1-0.2
					C105.7,112.3,105.6,112.3,105.5,112.3z"/>
				<path class="st4" d="M105.5,83.7c-0.2,0-0.3,0.2-0.3,0.3c0,0.2,0.2,0.3,0.3,0.3c0.2,0,0.3-0.2,0.3-0.3
					C105.9,83.9,105.7,83.7,105.5,83.7"/>
				<circle class="st5" cx="105.5" cy="84.1" r="0.3"/>
				<path class="st4" d="M105.5,90.9c-0.2,0-0.3,0.2-0.3,0.3c0,0.2,0.2,0.3,0.3,0.3c0.2,0,0.3-0.2,0.3-0.3
					C105.9,91,105.7,90.9,105.5,90.9"/>
				<circle class="st5" cx="105.5" cy="91.2" r="0.3"/>
				<path class="st4" d="M105.5,94.4c-0.2,0-0.3,0.2-0.3,0.3s0.2,0.3,0.3,0.3c0.2,0,0.3-0.2,0.3-0.3S105.7,94.4,105.5,94.4"/>
				<circle class="st5" cx="105.5" cy="94.8" r="0.3"/>
				<path class="st4" d="M105.5,98c-0.2,0-0.3,0.2-0.3,0.3c0,0.2,0.2,0.3,0.3,0.3c0.2,0,0.3-0.2,0.3-0.3
					C105.9,98.2,105.7,98,105.5,98"/>
				<circle class="st5" cx="105.5" cy="98.3" r="0.3"/>
				<path class="st4" d="M105.5,101.6c-0.2,0-0.3,0.2-0.3,0.3c0,0.2,0.2,0.3,0.3,0.3c0.2,0,0.3-0.2,0.3-0.3
					C105.9,101.7,105.7,101.6,105.5,101.6"/>
				<circle class="st5" cx="105.5" cy="101.9" r="0.3"/>
				<path class="st4" d="M105.5,87.3c-0.2,0-0.3,0.2-0.3,0.3c0,0.2,0.2,0.3,0.3,0.3c0.2,0,0.3-0.2,0.3-0.3
					C105.9,87.4,105.7,87.3,105.5,87.3"/>
				<circle class="st5" cx="105.5" cy="87.6" r="0.3"/>
				<path class="st4" d="M105.5,105.1c-0.2,0-0.3,0.2-0.3,0.3c0,0.2,0.2,0.3,0.3,0.3c0.2,0,0.3-0.2,0.3-0.3
					C105.9,105.3,105.7,105.1,105.5,105.1"/>
				<circle class="st5" cx="105.5" cy="105.5" r="0.3"/>
				<path class="st4" d="M105.5,108.7c-0.2,0-0.3,0.2-0.3,0.3c0,0.2,0.2,0.3,0.3,0.3c0.2,0,0.3-0.2,0.3-0.3
					C105.9,108.9,105.7,108.7,105.5,108.7"/>
				<circle class="st5" cx="105.5" cy="109.1" r="0.3"/>
				<path class="st4" d="M110.1,83.7c-0.2,0-0.3,0.2-0.3,0.3c0,0.2,0.2,0.3,0.3,0.3c0.2,0,0.3-0.2,0.3-0.3
					C110.5,83.9,110.3,83.7,110.1,83.7"/>
				<circle class="st5" cx="110.1" cy="84.1" r="0.3"/>
				<path class="st4" d="M110.1,87.3c-0.2,0-0.3,0.2-0.3,0.3c0,0.2,0.2,0.3,0.3,0.3c0.2,0,0.3-0.2,0.3-0.3
					C110.5,87.4,110.3,87.3,110.1,87.3"/>
				<circle class="st5" cx="110.1" cy="87.6" r="0.3"/>
				<path class="st4" d="M110.1,101.6c-0.2,0-0.3,0.2-0.3,0.3c0,0.2,0.2,0.3,0.3,0.3c0.2,0,0.3-0.2,0.3-0.3
					C110.5,101.7,110.3,101.6,110.1,101.6"/>
				<circle class="st5" cx="110.1" cy="101.9" r="0.3"/>
				<path class="st4" d="M110.1,108.7c-0.2,0-0.3,0.2-0.3,0.3c0,0.2,0.2,0.3,0.3,0.3c0.2,0,0.3-0.2,0.3-0.3
					C110.5,108.9,110.3,108.7,110.1,108.7"/>
				<circle class="st5" cx="110.1" cy="109.1" r="0.3"/>
				<path class="st4" d="M110.1,90.9c-0.2,0-0.3,0.2-0.3,0.3c0,0.2,0.2,0.3,0.3,0.3c0.2,0,0.3-0.2,0.3-0.3
					C110.5,91,110.3,90.9,110.1,90.9"/>
				<circle class="st5" cx="110.1" cy="91.2" r="0.3"/>
				<path class="st4" d="M110.1,105.1c-0.2,0-0.3,0.2-0.3,0.3c0,0.2,0.2,0.3,0.3,0.3c0.2,0,0.3-0.2,0.3-0.3
					C110.5,105.3,110.3,105.1,110.1,105.1"/>
				<circle class="st5" cx="110.1" cy="105.5" r="0.3"/>
				<path class="st4" d="M110.1,98c-0.2,0-0.3,0.2-0.3,0.3c0,0.2,0.2,0.3,0.3,0.3c0.2,0,0.3-0.2,0.3-0.3
					C110.5,98.2,110.3,98,110.1,98"/>
				<circle class="st5" cx="110.1" cy="98.3" r="0.3"/>
				<path class="st4" d="M110.1,94.4c-0.2,0-0.3,0.2-0.3,0.3s0.2,0.3,0.3,0.3c0.2,0,0.3-0.2,0.3-0.3S110.3,94.4,110.1,94.4"/>
				<circle class="st5" cx="110.1" cy="94.8" r="0.3"/>
				<path class="st4" d="M114.7,108.7c-0.2,0-0.3,0.2-0.3,0.3c0,0.2,0.2,0.3,0.3,0.3c0.2,0,0.3-0.2,0.3-0.3
					C115,108.9,114.9,108.7,114.7,108.7"/>
				<circle class="st5" cx="114.7" cy="109.1" r="0.3"/>
				<path class="st4" d="M114.7,98c-0.2,0-0.3,0.2-0.3,0.3c0,0.2,0.2,0.3,0.3,0.3c0.2,0,0.3-0.2,0.3-0.3C115,98.2,114.9,98,114.7,98
					"/>
				<circle class="st5" cx="114.7" cy="98.3" r="0.3"/>
				<path class="st4" d="M114.7,101.6c-0.2,0-0.3,0.2-0.3,0.3c0,0.2,0.2,0.3,0.3,0.3c0.2,0,0.3-0.2,0.3-0.3
					C115,101.7,114.9,101.6,114.7,101.6"/>
				<circle class="st5" cx="114.7" cy="101.9" r="0.3"/>
				<path class="st4" d="M114.7,105.1c-0.2,0-0.3,0.2-0.3,0.3c0,0.2,0.2,0.3,0.3,0.3c0.2,0,0.3-0.2,0.3-0.3
					C115,105.3,114.9,105.1,114.7,105.1"/>
				<circle class="st5" cx="114.7" cy="105.5" r="0.3"/>
				<path class="st4" d="M114.7,87.3c-0.2,0-0.3,0.2-0.3,0.3c0,0.2,0.2,0.3,0.3,0.3c0.2,0,0.3-0.2,0.3-0.3
					C115,87.4,114.9,87.3,114.7,87.3"/>
				<circle class="st5" cx="114.7" cy="87.6" r="0.3"/>
				<path class="st4" d="M114.7,90.9c-0.2,0-0.3,0.2-0.3,0.3c0,0.2,0.2,0.3,0.3,0.3c0.2,0,0.3-0.2,0.3-0.3
					C115,91,114.9,90.9,114.7,90.9"/>
				<circle class="st5" cx="114.7" cy="91.2" r="0.3"/>
				<path class="st4" d="M114.7,94.4c-0.2,0-0.3,0.2-0.3,0.3s0.2,0.3,0.3,0.3c0.2,0,0.3-0.2,0.3-0.3S114.9,94.4,114.7,94.4"/>
				<circle class="st5" cx="114.7" cy="94.8" r="0.3"/>
				<path class="st4" d="M114.7,83.7c-0.2,0-0.3,0.2-0.3,0.3c0,0.2,0.2,0.3,0.3,0.3c0.2,0,0.3-0.2,0.3-0.3
					C115,83.9,114.9,83.7,114.7,83.7"/>
				<circle class="st5" cx="114.7" cy="84.1" r="0.3"/>
				<path class="st4" d="M119.3,87.3c-0.2,0-0.3,0.2-0.3,0.3c0,0.2,0.2,0.3,0.3,0.3c0.2,0,0.3-0.2,0.3-0.3
					C119.6,87.4,119.5,87.3,119.3,87.3"/>
				<circle class="st5" cx="119.3" cy="87.6" r="0.3"/>
				<path class="st4" d="M119.3,83.7c-0.2,0-0.3,0.2-0.3,0.3c0,0.2,0.2,0.3,0.3,0.3c0.2,0,0.3-0.2,0.3-0.3
					C119.6,83.9,119.5,83.7,119.3,83.7"/>
				<circle class="st5" cx="119.3" cy="84.1" r="0.3"/>
				<path class="st4" d="M119.3,94.4c-0.2,0-0.3,0.2-0.3,0.3s0.2,0.3,0.3,0.3c0.2,0,0.3-0.2,0.3-0.3S119.5,94.4,119.3,94.4"/>
				<circle class="st5" cx="119.3" cy="94.8" r="0.3"/>
				<path class="st4" d="M119.3,90.9c-0.2,0-0.3,0.2-0.3,0.3c0,0.2,0.2,0.3,0.3,0.3c0.2,0,0.3-0.2,0.3-0.3
					C119.6,91,119.5,90.9,119.3,90.9"/>
				<circle class="st5" cx="119.3" cy="91.2" r="0.3"/>
				<path class="st4" d="M119.3,98c-0.2,0-0.3,0.2-0.3,0.3c0,0.2,0.2,0.3,0.3,0.3c0.2,0,0.3-0.2,0.3-0.3
					C119.6,98.2,119.5,98,119.3,98"/>
				<circle class="st5" cx="119.3" cy="98.3" r="0.3"/>
				<path class="st4" d="M119.3,105.1c-0.2,0-0.3,0.2-0.3,0.3c0,0.2,0.2,0.3,0.3,0.3c0.2,0,0.3-0.2,0.3-0.3
					C119.6,105.3,119.5,105.1,119.3,105.1"/>
				<circle class="st5" cx="119.3" cy="105.5" r="0.3"/>
				<path class="st4" d="M119,109.1C119,109.1,119,109.1,119,109.1c0.2,0,0.4-0.1,0.6-0.2c-0.1-0.1-0.1-0.1-0.2-0.1
					C119.1,108.7,119,108.9,119,109.1"/>
				<path class="st5" d="M119,109.1C119,109.1,119,109.1,119,109.1c0.2,0,0.4-0.1,0.6-0.2c-0.1-0.1-0.1-0.1-0.2-0.1
					C119.1,108.7,119,108.9,119,109.1z"/>
				<path class="st4" d="M119.3,101.6c-0.2,0-0.3,0.2-0.3,0.3c0,0.2,0.2,0.3,0.3,0.3c0.2,0,0.3-0.2,0.3-0.3
					C119.6,101.7,119.5,101.6,119.3,101.6"/>
				<circle class="st5" cx="119.3" cy="101.9" r="0.3"/>
				<path class="st4" d="M123.9,98c-0.2,0-0.3,0.2-0.3,0.3c0,0.2,0.2,0.3,0.3,0.3c0.2,0,0.3-0.2,0.3-0.3
					C124.2,98.2,124.1,98,123.9,98"/>
				<circle class="st5" cx="123.9" cy="98.3" r="0.3"/>
				<path class="st4" d="M123.9,90.9c-0.2,0-0.3,0.2-0.3,0.3c0,0.2,0.2,0.3,0.3,0.3c0.2,0,0.3-0.2,0.3-0.3
					C124.2,91,124.1,90.9,123.9,90.9"/>
				<circle class="st5" cx="123.9" cy="91.2" r="0.3"/>
				<path class="st4" d="M123.9,101.6c-0.2,0-0.3,0.2-0.3,0.3c0,0.2,0.2,0.3,0.3,0.3c0.2,0,0.3-0.2,0.3-0.3
					C124.2,101.7,124.1,101.6,123.9,101.6"/>
				<circle class="st5" cx="123.9" cy="101.9" r="0.3"/>
				<path class="st4" d="M123.9,105.1c-0.2,0-0.3,0.2-0.3,0.3c0,0.2,0.2,0.3,0.3,0.3c0.2,0,0.3-0.2,0.3-0.3
					C124.2,105.3,124.1,105.1,123.9,105.1"/>
				<circle class="st5" cx="123.9" cy="105.5" r="0.3"/>
				<path class="st4" d="M123.9,94.4c-0.2,0-0.3,0.2-0.3,0.3s0.2,0.3,0.3,0.3c0.2,0,0.3-0.2,0.3-0.3S124.1,94.4,123.9,94.4"/>
				<circle class="st5" cx="123.9" cy="94.8" r="0.3"/>
				<path class="st4" d="M123.9,83.7c-0.2,0-0.3,0.2-0.3,0.3c0,0.2,0.2,0.3,0.3,0.3c0.2,0,0.3-0.2,0.3-0.3
					C124.2,83.9,124.1,83.7,123.9,83.7"/>
				<circle class="st5" cx="123.9" cy="84.1" r="0.3"/>
				<path class="st4" d="M123.9,87.3c-0.2,0-0.3,0.2-0.3,0.3c0,0.2,0.2,0.3,0.3,0.3c0.2,0,0.3-0.2,0.3-0.3
					C124.2,87.4,124.1,87.3,123.9,87.3"/>
				<circle class="st5" cx="123.9" cy="87.6" r="0.3"/>
				<path class="st4" d="M128.5,83.7c-0.2,0-0.3,0.2-0.3,0.3c0,0.2,0.2,0.3,0.3,0.3c0.2,0,0.3-0.2,0.3-0.3
					C128.8,83.9,128.7,83.7,128.5,83.7"/>
				<circle class="st5" cx="128.5" cy="84.1" r="0.3"/>
				<path class="st4" d="M128.5,94.4c-0.2,0-0.3,0.2-0.3,0.3s0.2,0.3,0.3,0.3c0.2,0,0.3-0.2,0.3-0.3S128.7,94.4,128.5,94.4"/>
				<circle class="st5" cx="128.5" cy="94.8" r="0.3"/>
				<path class="st4" d="M128.5,101.6c-0.2,0-0.3,0.2-0.3,0.3c0,0.2,0.2,0.3,0.3,0.3c0.2,0,0.3-0.2,0.3-0.3
					C128.8,101.7,128.7,101.6,128.5,101.6"/>
				<circle class="st5" cx="128.5" cy="101.9" r="0.3"/>
				<path class="st4" d="M128.5,98c-0.2,0-0.3,0.2-0.3,0.3c0,0.2,0.2,0.3,0.3,0.3c0.2,0,0.3-0.2,0.3-0.3
					C128.8,98.2,128.7,98,128.5,98"/>
				<circle class="st5" cx="128.5" cy="98.3" r="0.3"/>
				<path class="st4" d="M128.5,87.3c-0.2,0-0.3,0.2-0.3,0.3c0,0.2,0.2,0.3,0.3,0.3c0.2,0,0.3-0.2,0.3-0.3
					C128.8,87.4,128.7,87.3,128.5,87.3"/>
				<circle class="st5" cx="128.5" cy="87.6" r="0.3"/>
				<path class="st4" d="M128.5,90.9c-0.2,0-0.3,0.2-0.3,0.3c0,0.2,0.2,0.3,0.3,0.3c0.2,0,0.3-0.2,0.3-0.3
					C128.8,91,128.7,90.9,128.5,90.9"/>
				<circle class="st5" cx="128.5" cy="91.2" r="0.3"/>
				<path class="st4" d="M133.1,87.3c-0.2,0-0.3,0.2-0.3,0.3c0,0.2,0.2,0.3,0.3,0.3c0.2,0,0.3-0.2,0.3-0.3
					C133.4,87.4,133.3,87.3,133.1,87.3"/>
				<circle class="st5" cx="133.1" cy="87.6" r="0.3"/>
				<path class="st4" d="M133.1,94.4c-0.2,0-0.3,0.2-0.3,0.3s0.2,0.3,0.3,0.3c0.2,0,0.3-0.2,0.3-0.3S133.3,94.4,133.1,94.4"/>
				<circle class="st5" cx="133.1" cy="94.8" r="0.3"/>
				<path class="st4" d="M133.1,90.9c-0.2,0-0.3,0.2-0.3,0.3c0,0.2,0.2,0.3,0.3,0.3c0.2,0,0.3-0.2,0.3-0.3
					C133.4,91,133.3,90.9,133.1,90.9"/>
				<circle class="st5" cx="133.1" cy="91.2" r="0.3"/>
				<path class="st4" d="M133.1,83.7c-0.2,0-0.3,0.2-0.3,0.3c0,0.2,0.2,0.3,0.3,0.3c0.2,0,0.3-0.2,0.3-0.3
					C133.4,83.9,133.3,83.7,133.1,83.7"/>
				<circle class="st5" cx="133.1" cy="84.1" r="0.3"/>
				<path class="st4" d="M137.7,83.7c-0.2,0-0.3,0.2-0.3,0.3c0,0.2,0.2,0.3,0.3,0.3c0.2,0,0.3-0.2,0.3-0.3
					C138,83.9,137.9,83.7,137.7,83.7"/>
				<circle class="st5" cx="137.7" cy="84.1" r="0.3"/>
				<path class="st4" d="M137.4,87.6c0,0.1,0.1,0.2,0.1,0.3c0.1-0.2,0.1-0.4,0.2-0.6C137.5,87.3,137.4,87.4,137.4,87.6"/>
				<path class="st5" d="M137.4,87.6c0,0.1,0.1,0.2,0.1,0.3c0.1-0.2,0.1-0.4,0.2-0.6C137.5,87.3,137.4,87.4,137.4,87.6z"/>
			</g>
		</g>
	</g>
</g>
</svg>
