<?xml version="1.0" encoding="utf-8"?>
<!-- Generator: Adobe Illustrator 19.0.0, SVG Export Plug-In . SVG Version: 6.00 Build 0)  -->
<svg version="1.1" id="Layer_1" xmlns="http://www.w3.org/2000/svg" xmlns:xlink="http://www.w3.org/1999/xlink" x="0px" y="0px"
	 viewBox="0 0 120.6 113.1" style="enable-background:new 0 0 120.6 113.1;" xml:space="preserve">
<style type="text/css">
	.st0{clip-path:url(#SVGID_2_);}
	.st1{clip-path:url(#SVGID_4_);}
	.st2{fill:#FFFFFF;}
	.st3{opacity:0.42;clip-path:url(#SVGID_6_);}
	.st4{clip-path:url(#SVGID_8_);fill:#FFFFFF;}
	.st5{clip-path:url(#SVGID_8_);fill:none;stroke:#FFFFFF;stroke-miterlimit:10;}
</style>
<g>
	<defs>
		<rect id="SVGID_1_" width="120.6" height="113.1"/>
	</defs>
	<clipPath id="SVGID_2_">
		<use xlink:href="#SVGID_1_"  style="overflow:visible;"/>
	</clipPath>
	<g class="st0">
		<defs>
			<rect id="SVGID_3_" width="120.6" height="113.1"/>
		</defs>
		<clipPath id="SVGID_4_">
			<use xlink:href="#SVGID_3_"  style="overflow:visible;"/>
		</clipPath>
		<g class="st1">
			<path class="st2" d="M1.9,33.6v-2.1l2.7-2.6c6.6-6.2,9.5-9.6,9.6-13.4c0-2.6-1.3-5-5.1-5c-2.3,0-4.3,1.2-5.4,2.2l-1.1-2.4
				c1.8-1.5,4.3-2.6,7.3-2.6c5.5,0,7.9,3.8,7.9,7.5c0,4.7-3.4,8.6-8.8,13.8l-2.1,1.9v0.1h11.5v2.9H1.9z"/>
			<path class="st2" d="M32.9,33.6v-7H21v-2.3L32.4,7.9h3.8v15.9h3.6v2.7h-3.6v7H32.9z M32.9,23.8v-8.6c0-1.3,0-2.7,0.1-4h-0.1
				c-0.8,1.5-1.4,2.6-2.1,3.8l-6.3,8.7v0.1H32.9z"/>
			<path class="st2" d="M40.6,35.1l11-28.6h2.7L43.2,35.1H40.6z"/>
			<path class="st2" d="M72.6,7.9v2.3L61.4,33.6h-3.6L69,10.9v-0.1H56.4V7.9H72.6z"/>
		</g>
		<g class="st1">
			<path class="st2" d="M1.6,43.5h1.8v12.7h6.1v1.5H1.6V43.5z"/>
			<path class="st2" d="M13.6,44.6c0,0.6-0.4,1.1-1.2,1.1c-0.7,0-1.1-0.5-1.1-1.1c0-0.7,0.5-1.2,1.2-1.2
				C13.1,43.5,13.6,44,13.6,44.6z M11.5,57.7V47.5h1.9v10.2H11.5z"/>
			<path class="st2" d="M17.2,47.5l2,5.7c0.3,0.9,0.6,1.8,0.8,2.6H20c0.2-0.8,0.5-1.7,0.9-2.6l2-5.7h1.9l-4,10.2h-1.8l-3.9-10.2
				H17.2z"/>
			<path class="st2" d="M27.6,52.9c0,2.5,1.6,3.5,3.5,3.5c1.3,0,2.1-0.2,2.8-0.5l0.3,1.3c-0.7,0.3-1.8,0.6-3.4,0.6
				c-3.1,0-5-2.1-5-5.1s1.8-5.5,4.8-5.5c3.3,0,4.2,2.9,4.2,4.8c0,0.4,0,0.7-0.1,0.9H27.6z M33.1,51.6c0-1.2-0.5-3-2.6-3
				c-1.9,0-2.7,1.7-2.8,3H33.1z"/>
			<path class="st2" d="M41.7,43.7c0.9-0.2,2.3-0.3,3.5-0.3c2,0,3.2,0.4,4.1,1.2c0.7,0.6,1.1,1.6,1.1,2.7c0,1.9-1.2,3.1-2.7,3.6v0.1
				c1.1,0.4,1.8,1.4,2.1,2.9c0.5,2,0.8,3.4,1.1,3.9h-1.9c-0.2-0.4-0.5-1.6-0.9-3.4c-0.4-2-1.2-2.7-2.8-2.8h-1.7v6.2h-1.8V43.7z
				 M43.5,50.2h1.9c2,0,3.2-1.1,3.2-2.7c0-1.8-1.3-2.6-3.3-2.7c-0.9,0-1.5,0.1-1.8,0.2V50.2z"/>
			<path class="st2" d="M54,52.9c0,2.5,1.6,3.5,3.5,3.5c1.3,0,2.1-0.2,2.8-0.5l0.3,1.3c-0.7,0.3-1.8,0.6-3.4,0.6c-3.1,0-5-2.1-5-5.1
				s1.8-5.5,4.8-5.5c3.3,0,4.2,2.9,4.2,4.8c0,0.4,0,0.7-0.1,0.9H54z M59.5,51.6c0-1.2-0.5-3-2.6-3c-1.9,0-2.7,1.7-2.8,3H59.5z"/>
			<path class="st2" d="M63.5,50.8c0-1.3,0-2.4-0.1-3.3h1.7l0.1,1.8h0c0.8-1.2,2-2,3.6-2c2.5,0,4.3,2.1,4.3,5.2
				c0,3.7-2.2,5.5-4.6,5.5c-1.4,0-2.5-0.6-3.1-1.6h0v5.6h-1.8V50.8z M65.4,53.6c0,0.3,0,0.5,0.1,0.8c0.3,1.3,1.5,2.2,2.8,2.2
				c2,0,3.1-1.6,3.1-3.9c0-2-1.1-3.8-3-3.8c-1.3,0-2.4,0.9-2.8,2.3c-0.1,0.2-0.1,0.5-0.1,0.8V53.6z"/>
		</g>
	</g>
	<g class="st0">
		<path class="st2" d="M5.5,74.8c0.8,0.5,2,0.9,3.3,0.9c1.9,0,3-1,3-2.4c0-1.3-0.8-2.1-2.7-2.8c-2.3-0.8-3.8-2-3.8-4
			c0-2.2,1.8-3.9,4.6-3.9c1.5,0,2.5,0.3,3.1,0.7l-0.5,1.5c-0.5-0.3-1.4-0.7-2.7-0.7c-1.9,0-2.7,1.2-2.7,2.1c0,1.3,0.9,2,2.8,2.7
			c2.4,0.9,3.6,2.1,3.6,4.2c0,2.2-1.6,4.1-5,4.1c-1.4,0-2.9-0.4-3.6-0.9L5.5,74.8z"/>
		<path class="st2" d="M24.6,74.2c0,1.1,0,2,0.1,2.8h-1.6L23,75.3h0c-0.5,0.8-1.6,1.9-3.4,1.9c-1.6,0-3.5-0.9-3.5-4.5v-6h1.9v5.7
			c0,1.9,0.6,3.3,2.3,3.3c1.2,0,2.1-0.9,2.4-1.7c0.1-0.3,0.2-0.6,0.2-0.9v-6.3h1.9V74.2z"/>
		<path class="st2" d="M27.7,70.1c0-1.3,0-2.4-0.1-3.3h1.7l0.1,1.8h0c0.8-1.2,2-2,3.6-2c2.5,0,4.3,2.1,4.3,5.2
			c0,3.7-2.2,5.5-4.6,5.5c-1.4,0-2.5-0.6-3.1-1.6h0v5.6h-1.8V70.1z M29.5,72.8c0,0.3,0,0.5,0.1,0.8c0.3,1.3,1.5,2.2,2.8,2.2
			c2,0,3.1-1.6,3.1-3.9c0-2-1.1-3.8-3-3.8c-1.3,0-2.4,0.9-2.8,2.3c-0.1,0.2-0.1,0.5-0.1,0.8V72.8z"/>
		<path class="st2" d="M39.7,70.1c0-1.3,0-2.4-0.1-3.3h1.7l0.1,1.8h0c0.8-1.2,2-2,3.6-2c2.5,0,4.3,2.1,4.3,5.2
			c0,3.7-2.2,5.5-4.6,5.5c-1.4,0-2.5-0.6-3.1-1.6h0v5.6h-1.8V70.1z M41.5,72.8c0,0.3,0,0.5,0.1,0.8c0.3,1.3,1.5,2.2,2.8,2.2
			c2,0,3.1-1.6,3.1-3.9c0-2-1.1-3.8-3-3.8c-1.3,0-2.4,0.9-2.8,2.3c-0.1,0.2-0.1,0.5-0.1,0.8V72.8z"/>
		<path class="st2" d="M61,71.8c0,3.8-2.6,5.4-5.1,5.4c-2.8,0-4.9-2-4.9-5.3c0-3.4,2.2-5.4,5.1-5.4C59,66.6,61,68.7,61,71.8z
			 M52.8,71.9c0,2.2,1.3,3.9,3.1,3.9c1.8,0,3.1-1.7,3.1-4c0-1.7-0.9-3.9-3.1-3.9C53.8,67.9,52.8,70,52.8,71.9z"/>
		<path class="st2" d="M63.3,70c0-1.2,0-2.2-0.1-3.2h1.6l0.1,2H65c0.5-1.4,1.6-2.2,2.8-2.2c0.2,0,0.4,0,0.5,0.1v1.8
			c-0.2,0-0.4-0.1-0.6-0.1c-1.3,0-2.2,1-2.5,2.4c0,0.3-0.1,0.5-0.1,0.9V77h-1.8V70z"/>
		<path class="st2" d="M72.4,63.9v2.9h2.7v1.4h-2.7v5.5c0,1.3,0.4,2,1.4,2c0.5,0,0.8-0.1,1.1-0.1L75,77c-0.4,0.1-0.9,0.3-1.6,0.3
			c-0.9,0-1.6-0.3-2-0.8c-0.5-0.5-0.7-1.5-0.7-2.7v-5.6H69v-1.4h1.6v-2.4L72.4,63.9z"/>
	</g>
	<g class="st0">
		<defs>
			<rect id="SVGID_5_" width="120.6" height="113.1"/>
		</defs>
		<clipPath id="SVGID_6_">
			<use xlink:href="#SVGID_5_"  style="overflow:visible;"/>
		</clipPath>
		<g class="st3">
			<g>
				<defs>
					<rect id="SVGID_7_" x="50" y="37.1" width="70.6" height="76"/>
				</defs>
				<clipPath id="SVGID_8_">
					<use xlink:href="#SVGID_7_"  style="overflow:visible;"/>
				</clipPath>
				<path class="st4" d="M50.8,76.6c-0.2,0-0.3,0.2-0.3,0.3c0,0.2,0.2,0.3,0.3,0.3c0.2,0,0.3-0.2,0.3-0.3
					C51.1,76.7,51,76.6,50.8,76.6"/>
				<circle class="st5" cx="50.8" cy="76.9" r="0.3"/>
				<path class="st4" d="M50.8,73c-0.2,0-0.3,0.2-0.3,0.3c0,0.2,0.2,0.3,0.3,0.3c0.2,0,0.3-0.2,0.3-0.3C51.1,73.2,51,73,50.8,73"/>
				<circle class="st5" cx="50.8" cy="73.3" r="0.3"/>
				<path class="st4" d="M50.8,65.9c-0.1,0-0.2,0-0.2,0.1c0,0.1,0,0.2-0.1,0.3c0,0.1,0.2,0.2,0.3,0.2c0.2,0,0.3-0.2,0.3-0.3
					C51.1,66,51,65.9,50.8,65.9"/>
				<path class="st5" d="M50.8,65.9c-0.1,0-0.2,0-0.2,0.1c0,0.1,0,0.2-0.1,0.3c0,0.1,0.2,0.2,0.3,0.2c0.2,0,0.3-0.2,0.3-0.3
					C51.1,66,51,65.9,50.8,65.9z"/>
				<path class="st4" d="M50.8,69.4C50.8,69.4,50.7,69.4,50.8,69.4C50.7,69.4,50.7,69.4,50.8,69.4c-0.1,0-0.1,0-0.1,0c0,0,0,0,0,0
					c0,0,0,0-0.1,0c0,0,0,0,0,0c-0.1,0.1-0.1,0.2-0.1,0.3c0,0.1,0,0.2,0.1,0.3c0,0,0,0,0,0c0,0,0.1,0,0.1,0c0,0,0,0,0,0
					c0,0,0.1,0,0.1,0c0.2,0,0.3-0.2,0.3-0.3C51.1,69.6,51,69.4,50.8,69.4"/>
				<path class="st5" d="M50.8,69.4C50.8,69.4,50.7,69.4,50.8,69.4C50.7,69.4,50.7,69.4,50.8,69.4c-0.1,0-0.1,0-0.1,0c0,0,0,0,0,0
					c0,0,0,0-0.1,0c0,0,0,0,0,0c-0.1,0.1-0.1,0.2-0.1,0.3c0,0.1,0,0.2,0.1,0.3c0,0,0,0,0,0c0,0,0.1,0,0.1,0c0,0,0,0,0,0
					c0,0,0.1,0,0.1,0c0.2,0,0.3-0.2,0.3-0.3C51.1,69.6,51,69.4,50.8,69.4z"/>
				<path class="st4" d="M50.8,80.1L50.8,80.1c0,0-0.1,0-0.1,0c0,0,0,0,0,0c0,0-0.1,0-0.1,0c0,0,0,0,0,0c-0.1,0.1-0.1,0.2-0.1,0.3
					c0,0.1,0,0.2,0.1,0.3c0,0,0,0,0,0c0,0,0,0,0.1,0c0,0,0,0,0,0c0,0,0,0,0.1,0c0,0,0,0,0,0c0,0,0,0,0.1,0c0.2,0,0.3-0.2,0.3-0.3
					C51.1,80.3,51,80.1,50.8,80.1"/>
				<path class="st5" d="M50.8,80.1L50.8,80.1c0,0-0.1,0-0.1,0c0,0,0,0,0,0c0,0-0.1,0-0.1,0c0,0,0,0,0,0c-0.1,0.1-0.1,0.2-0.1,0.3
					c0,0.1,0,0.2,0.1,0.3c0,0,0,0,0,0c0,0,0,0,0.1,0c0,0,0,0,0,0c0,0,0,0,0.1,0c0,0,0,0,0,0c0,0,0,0,0.1,0c0.2,0,0.3-0.2,0.3-0.3
					C51.1,80.3,51,80.1,50.8,80.1z"/>
				<path class="st4" d="M55.4,58.7c-0.2,0-0.3,0.2-0.3,0.3c0,0.2,0.2,0.3,0.3,0.3c0.2,0,0.3-0.2,0.3-0.3
					C55.7,58.9,55.6,58.7,55.4,58.7"/>
				<circle class="st5" cx="55.4" cy="59.1" r="0.3"/>
				<path class="st4" d="M55.4,62.3c-0.2,0-0.3,0.2-0.3,0.3c0,0.2,0.2,0.3,0.3,0.3c0.2,0,0.3-0.2,0.3-0.3
					C55.7,62.4,55.6,62.3,55.4,62.3"/>
				<circle class="st5" cx="55.4" cy="62.6" r="0.3"/>
				<path class="st4" d="M55.4,55.1c-0.2,0-0.3,0.2-0.3,0.3c0,0.2,0.2,0.3,0.3,0.3c0.2,0,0.3-0.2,0.3-0.3
					C55.7,55.3,55.6,55.1,55.4,55.1"/>
				<circle class="st5" cx="55.4" cy="55.5" r="0.3"/>
				<path class="st4" d="M55.4,76.6c-0.2,0-0.3,0.2-0.3,0.3c0,0.2,0.2,0.3,0.3,0.3c0.2,0,0.3-0.2,0.3-0.3
					C55.7,76.7,55.6,76.6,55.4,76.6"/>
				<circle class="st5" cx="55.4" cy="76.9" r="0.3"/>
				<path class="st4" d="M55.4,80.1c-0.2,0-0.3,0.2-0.3,0.3c0,0.2,0.2,0.3,0.3,0.3c0.2,0,0.3-0.2,0.3-0.3
					C55.7,80.3,55.6,80.1,55.4,80.1"/>
				<circle class="st5" cx="55.4" cy="80.5" r="0.3"/>
				<path class="st4" d="M55.4,65.9c-0.2,0-0.3,0.2-0.3,0.3c0,0.2,0.2,0.3,0.3,0.3c0.2,0,0.3-0.2,0.3-0.3
					C55.7,66,55.6,65.9,55.4,65.9"/>
				<circle class="st5" cx="55.4" cy="66.2" r="0.3"/>
				<path class="st4" d="M55.4,73c-0.2,0-0.3,0.2-0.3,0.3c0,0.2,0.2,0.3,0.3,0.3c0.2,0,0.3-0.2,0.3-0.3C55.7,73.2,55.6,73,55.4,73"
					/>
				<circle class="st5" cx="55.4" cy="73.3" r="0.3"/>
				<path class="st4" d="M55.4,69.4c-0.2,0-0.3,0.2-0.3,0.3c0,0.2,0.2,0.3,0.3,0.3c0.2,0,0.3-0.2,0.3-0.3
					C55.7,69.6,55.6,69.4,55.4,69.4"/>
				<circle class="st5" cx="55.4" cy="69.8" r="0.3"/>
				<path class="st4" d="M60,65.9c-0.2,0-0.3,0.2-0.3,0.3c0,0.2,0.2,0.3,0.3,0.3c0.2,0,0.3-0.2,0.3-0.3C60.3,66,60.2,65.9,60,65.9"
					/>
				<circle class="st5" cx="60" cy="66.2" r="0.3"/>
				<path class="st4" d="M60,73c-0.2,0-0.3,0.2-0.3,0.3c0,0.2,0.2,0.3,0.3,0.3c0.2,0,0.3-0.2,0.3-0.3C60.3,73.2,60.2,73,60,73"/>
				<circle class="st5" cx="60" cy="73.3" r="0.3"/>
				<path class="st4" d="M60,69.4c-0.2,0-0.3,0.2-0.3,0.3c0,0.2,0.2,0.3,0.3,0.3c0.2,0,0.3-0.2,0.3-0.3C60.3,69.6,60.2,69.4,60,69.4
					"/>
				<circle class="st5" cx="60" cy="69.8" r="0.3"/>
				<path class="st4" d="M60,55.1c-0.2,0-0.3,0.2-0.3,0.3c0,0.2,0.2,0.3,0.3,0.3c0.2,0,0.3-0.2,0.3-0.3C60.3,55.3,60.2,55.1,60,55.1
					"/>
				<circle class="st5" cx="60" cy="55.5" r="0.3"/>
				<path class="st4" d="M60,62.3c-0.2,0-0.3,0.2-0.3,0.3c0,0.2,0.2,0.3,0.3,0.3c0.2,0,0.3-0.2,0.3-0.3C60.3,62.4,60.2,62.3,60,62.3
					"/>
				<circle class="st5" cx="60" cy="62.6" r="0.3"/>
				<path class="st4" d="M60,76.6c-0.2,0-0.3,0.2-0.3,0.3c0,0.2,0.2,0.3,0.3,0.3c0.2,0,0.3-0.2,0.3-0.3C60.3,76.7,60.2,76.6,60,76.6
					"/>
				<circle class="st5" cx="60" cy="76.9" r="0.3"/>
				<path class="st4" d="M60,58.7c-0.2,0-0.3,0.2-0.3,0.3c0,0.2,0.2,0.3,0.3,0.3c0.2,0,0.3-0.2,0.3-0.3C60.3,58.9,60.2,58.7,60,58.7
					"/>
				<circle class="st5" cx="60" cy="59.1" r="0.3"/>
				<path class="st4" d="M59.8,48.6c0.1,0.1,0.1,0.1,0.2,0.1c0.2,0,0.3-0.2,0.3-0.3c0-0.1,0-0.2-0.1-0.2
					C60.1,48.3,59.9,48.4,59.8,48.6"/>
				<path class="st5" d="M59.8,48.6c0.1,0.1,0.1,0.1,0.2,0.1c0.2,0,0.3-0.2,0.3-0.3c0-0.1,0-0.2-0.1-0.2
					C60.1,48.3,59.9,48.4,59.8,48.6z"/>
				<path class="st4" d="M60,51.6c-0.2,0-0.3,0.2-0.3,0.3s0.2,0.3,0.3,0.3c0.2,0,0.3-0.2,0.3-0.3S60.2,51.6,60,51.6"/>
				<circle class="st5" cx="60" cy="51.9" r="0.3"/>
				<path class="st4" d="M60,80.1c-0.2,0-0.3,0.2-0.3,0.3c0,0.2,0.2,0.3,0.3,0.3c0.2,0,0.3-0.2,0.3-0.3C60.3,80.3,60.2,80.1,60,80.1
					"/>
				<circle class="st5" cx="60" cy="80.5" r="0.3"/>
				<path class="st4" d="M64.6,65.9c-0.2,0-0.3,0.2-0.3,0.3c0,0.2,0.2,0.3,0.3,0.3c0.2,0,0.3-0.2,0.3-0.3
					C64.9,66,64.8,65.9,64.6,65.9"/>
				<circle class="st5" cx="64.6" cy="66.2" r="0.3"/>
				<path class="st4" d="M64.6,73c-0.2,0-0.3,0.2-0.3,0.3c0,0.2,0.2,0.3,0.3,0.3c0.2,0,0.3-0.2,0.3-0.3C64.9,73.2,64.8,73,64.6,73"
					/>
				<circle class="st5" cx="64.6" cy="73.3" r="0.3"/>
				<path class="st4" d="M64.6,69.4c-0.2,0-0.3,0.2-0.3,0.3c0,0.2,0.2,0.3,0.3,0.3c0.2,0,0.3-0.2,0.3-0.3
					C64.9,69.6,64.8,69.4,64.6,69.4"/>
				<circle class="st5" cx="64.6" cy="69.8" r="0.3"/>
				<path class="st4" d="M64.6,58.7c-0.2,0-0.3,0.2-0.3,0.3c0,0.2,0.2,0.3,0.3,0.3c0.2,0,0.3-0.2,0.3-0.3
					C64.9,58.9,64.8,58.7,64.6,58.7"/>
				<circle class="st5" cx="64.6" cy="59.1" r="0.3"/>
				<path class="st4" d="M64.6,48c-0.2,0-0.3,0.2-0.3,0.3c0,0.2,0.2,0.3,0.3,0.3c0.2,0,0.3-0.2,0.3-0.3C64.9,48.2,64.8,48,64.6,48"
					/>
				<circle class="st5" cx="64.6" cy="48.3" r="0.3"/>
				<path class="st4" d="M64.6,51.6c-0.2,0-0.3,0.2-0.3,0.3s0.2,0.3,0.3,0.3c0.2,0,0.3-0.2,0.3-0.3S64.8,51.6,64.6,51.6"/>
				<circle class="st5" cx="64.6" cy="51.9" r="0.3"/>
				<path class="st4" d="M64.6,55.1c-0.2,0-0.3,0.2-0.3,0.3c0,0.2,0.2,0.3,0.3,0.3c0.2,0,0.3-0.2,0.3-0.3
					C64.9,55.3,64.8,55.1,64.6,55.1"/>
				<circle class="st5" cx="64.6" cy="55.5" r="0.3"/>
				<path class="st4" d="M64.6,62.3c-0.2,0-0.3,0.2-0.3,0.3c0,0.2,0.2,0.3,0.3,0.3c0.2,0,0.3-0.2,0.3-0.3
					C64.9,62.4,64.8,62.3,64.6,62.3"/>
				<circle class="st5" cx="64.6" cy="62.6" r="0.3"/>
				<path class="st4" d="M64.6,80.1c-0.2,0-0.3,0.2-0.3,0.3c0,0.2,0.2,0.3,0.3,0.3c0.2,0,0.3-0.2,0.3-0.3
					C64.9,80.3,64.8,80.1,64.6,80.1"/>
				<circle class="st5" cx="64.6" cy="80.5" r="0.3"/>
				<path class="st4" d="M64.6,76.6c-0.2,0-0.3,0.2-0.3,0.3c0,0.2,0.2,0.3,0.3,0.3c0.2,0,0.3-0.2,0.3-0.3
					C64.9,76.7,64.8,76.6,64.6,76.6"/>
				<circle class="st5" cx="64.6" cy="76.9" r="0.3"/>
				<path class="st4" d="M64.6,44.4C64.6,44.4,64.6,44.4,64.6,44.4c-0.1,0.1-0.2,0.1-0.3,0.2c0,0,0,0.1,0,0.1c0,0.2,0.2,0.3,0.3,0.3
					c0.2,0,0.3-0.2,0.3-0.3C64.9,44.6,64.8,44.4,64.6,44.4"/>
				<path class="st5" d="M64.6,44.4C64.6,44.4,64.6,44.4,64.6,44.4c-0.1,0.1-0.2,0.1-0.3,0.2c0,0,0,0.1,0,0.1c0,0.2,0.2,0.3,0.3,0.3
					c0.2,0,0.3-0.2,0.3-0.3C64.9,44.6,64.8,44.4,64.6,44.4z"/>
				<path class="st4" d="M69.2,80.1c-0.2,0-0.3,0.2-0.3,0.3c0,0.2,0.2,0.3,0.3,0.3c0.2,0,0.3-0.2,0.3-0.3
					C69.5,80.3,69.4,80.1,69.2,80.1"/>
				<circle class="st5" cx="69.2" cy="80.5" r="0.3"/>
				<path class="st4" d="M69.2,76.6c-0.2,0-0.3,0.2-0.3,0.3c0,0.2,0.2,0.3,0.3,0.3c0.2,0,0.3-0.2,0.3-0.3
					C69.5,76.7,69.4,76.6,69.2,76.6"/>
				<circle class="st5" cx="69.2" cy="76.9" r="0.3"/>
				<path class="st4" d="M69.2,55.1c-0.2,0-0.3,0.2-0.3,0.3c0,0.2,0.2,0.3,0.3,0.3c0.2,0,0.3-0.2,0.3-0.3
					C69.5,55.3,69.4,55.1,69.2,55.1"/>
				<circle class="st5" cx="69.2" cy="55.5" r="0.3"/>
				<path class="st4" d="M69.2,51.6c-0.2,0-0.3,0.2-0.3,0.3s0.2,0.3,0.3,0.3c0.2,0,0.3-0.2,0.3-0.3S69.4,51.6,69.2,51.6"/>
				<circle class="st5" cx="69.2" cy="51.9" r="0.3"/>
				<path class="st4" d="M69.2,58.7c-0.2,0-0.3,0.2-0.3,0.3c0,0.2,0.2,0.3,0.3,0.3c0.2,0,0.3-0.2,0.3-0.3
					C69.5,58.9,69.4,58.7,69.2,58.7"/>
				<circle class="st5" cx="69.2" cy="59.1" r="0.3"/>
				<path class="st4" d="M69.2,73c-0.2,0-0.3,0.2-0.3,0.3c0,0.2,0.2,0.3,0.3,0.3c0.2,0,0.3-0.2,0.3-0.3C69.5,73.2,69.4,73,69.2,73"
					/>
				<circle class="st5" cx="69.2" cy="73.3" r="0.3"/>
				<path class="st4" d="M69.2,69.4c-0.2,0-0.3,0.2-0.3,0.3c0,0.2,0.2,0.3,0.3,0.3c0.2,0,0.3-0.2,0.3-0.3
					C69.5,69.6,69.4,69.4,69.2,69.4"/>
				<circle class="st5" cx="69.2" cy="69.8" r="0.3"/>
				<path class="st4" d="M69.2,65.9c-0.2,0-0.3,0.2-0.3,0.3c0,0.2,0.2,0.3,0.3,0.3c0.2,0,0.3-0.2,0.3-0.3
					C69.5,66,69.4,65.9,69.2,65.9"/>
				<circle class="st5" cx="69.2" cy="66.2" r="0.3"/>
				<path class="st4" d="M69.2,62.3c-0.2,0-0.3,0.2-0.3,0.3c0,0.2,0.2,0.3,0.3,0.3c0.2,0,0.3-0.2,0.3-0.3
					C69.5,62.4,69.4,62.3,69.2,62.3"/>
				<circle class="st5" cx="69.2" cy="62.6" r="0.3"/>
				<path class="st4" d="M69.2,48c-0.2,0-0.3,0.2-0.3,0.3c0,0.2,0.2,0.3,0.3,0.3c0.2,0,0.3-0.2,0.3-0.3C69.5,48.2,69.4,48,69.2,48"
					/>
				<circle class="st5" cx="69.2" cy="48.3" r="0.3"/>
				<path class="st4" d="M69.2,44.4c-0.2,0-0.3,0.2-0.3,0.3c0,0.2,0.2,0.3,0.3,0.3c0.2,0,0.3-0.2,0.3-0.3
					C69.5,44.6,69.4,44.4,69.2,44.4"/>
				<circle class="st5" cx="69.2" cy="44.8" r="0.3"/>
				<path class="st4" d="M73.8,76.6c-0.2,0-0.3,0.2-0.3,0.3c0,0.2,0.2,0.3,0.3,0.3c0.2,0,0.3-0.2,0.3-0.3
					C74.1,76.7,74,76.6,73.8,76.6"/>
				<circle class="st5" cx="73.8" cy="76.9" r="0.3"/>
				<path class="st4" d="M73.8,73c-0.2,0-0.3,0.2-0.3,0.3c0,0.2,0.2,0.3,0.3,0.3c0.2,0,0.3-0.2,0.3-0.3C74.1,73.2,74,73,73.8,73"/>
				<circle class="st5" cx="73.8" cy="73.3" r="0.3"/>
				<path class="st4" d="M73.8,80.1c-0.2,0-0.3,0.2-0.3,0.3c0,0.2,0.2,0.3,0.3,0.3c0.2,0,0.3-0.2,0.3-0.3
					C74.1,80.3,74,80.1,73.8,80.1"/>
				<circle class="st5" cx="73.8" cy="80.5" r="0.3"/>
				<path class="st4" d="M73.8,65.9c-0.2,0-0.3,0.2-0.3,0.3c0,0.2,0.2,0.3,0.3,0.3c0.2,0,0.3-0.2,0.3-0.3C74.1,66,74,65.9,73.8,65.9
					"/>
				<circle class="st5" cx="73.8" cy="66.2" r="0.3"/>
				<path class="st4" d="M73.8,69.4c-0.2,0-0.3,0.2-0.3,0.3c0,0.2,0.2,0.3,0.3,0.3c0.2,0,0.3-0.2,0.3-0.3
					C74.1,69.6,74,69.4,73.8,69.4"/>
				<circle class="st5" cx="73.8" cy="69.8" r="0.3"/>
				<path class="st4" d="M73.8,62.3c-0.2,0-0.3,0.2-0.3,0.3c0,0.2,0.2,0.3,0.3,0.3c0.2,0,0.3-0.2,0.3-0.3
					C74.1,62.4,74,62.3,73.8,62.3"/>
				<circle class="st5" cx="73.8" cy="62.6" r="0.3"/>
				<path class="st4" d="M73.8,48c-0.2,0-0.3,0.2-0.3,0.3c0,0.2,0.2,0.3,0.3,0.3c0.2,0,0.3-0.2,0.3-0.3C74.1,48.2,74,48,73.8,48"/>
				<circle class="st5" cx="73.8" cy="48.3" r="0.3"/>
				<path class="st4" d="M73.8,40.9c-0.2,0-0.3,0.2-0.3,0.3c0,0.2,0.2,0.3,0.3,0.3c0.2,0,0.3-0.2,0.3-0.3C74.1,41,74,40.9,73.8,40.9
					"/>
				<circle class="st5" cx="73.8" cy="41.2" r="0.3"/>
				<path class="st4" d="M73.8,44.4c-0.2,0-0.3,0.2-0.3,0.3c0,0.2,0.2,0.3,0.3,0.3c0.2,0,0.3-0.2,0.3-0.3
					C74.1,44.6,74,44.4,73.8,44.4"/>
				<circle class="st5" cx="73.8" cy="44.8" r="0.3"/>
				<path class="st4" d="M73.8,58.7c-0.2,0-0.3,0.2-0.3,0.3c0,0.2,0.2,0.3,0.3,0.3c0.2,0,0.3-0.2,0.3-0.3
					C74.1,58.9,74,58.7,73.8,58.7"/>
				<circle class="st5" cx="73.8" cy="59.1" r="0.3"/>
				<path class="st4" d="M73.8,51.6c-0.2,0-0.3,0.2-0.3,0.3s0.2,0.3,0.3,0.3c0.2,0,0.3-0.2,0.3-0.3S74,51.6,73.8,51.6"/>
				<circle class="st5" cx="73.8" cy="51.9" r="0.3"/>
				<path class="st4" d="M73.8,55.1c-0.2,0-0.3,0.2-0.3,0.3c0,0.2,0.2,0.3,0.3,0.3c0.2,0,0.3-0.2,0.3-0.3
					C74.1,55.3,74,55.1,73.8,55.1"/>
				<circle class="st5" cx="73.8" cy="55.5" r="0.3"/>
				<path class="st4" d="M78.4,65.9c-0.2,0-0.3,0.2-0.3,0.3c0,0.2,0.2,0.3,0.3,0.3c0.2,0,0.3-0.2,0.3-0.3
					C78.7,66,78.6,65.9,78.4,65.9"/>
				<circle class="st5" cx="78.4" cy="66.2" r="0.3"/>
				<path class="st4" d="M78.4,62.3c-0.2,0-0.3,0.2-0.3,0.3c0,0.2,0.2,0.3,0.3,0.3c0.2,0,0.3-0.2,0.3-0.3
					C78.7,62.4,78.6,62.3,78.4,62.3"/>
				<circle class="st5" cx="78.4" cy="62.6" r="0.3"/>
				<path class="st4" d="M78.4,40.9c-0.2,0-0.3,0.2-0.3,0.3c0,0.2,0.2,0.3,0.3,0.3c0.2,0,0.3-0.2,0.3-0.3
					C78.7,41,78.6,40.9,78.4,40.9"/>
				<circle class="st5" cx="78.4" cy="41.2" r="0.3"/>
				<path class="st4" d="M78.4,58.7c-0.2,0-0.3,0.2-0.3,0.3c0,0.2,0.2,0.3,0.3,0.3c0.2,0,0.3-0.2,0.3-0.3
					C78.7,58.9,78.6,58.7,78.4,58.7"/>
				<circle class="st5" cx="78.4" cy="59.1" r="0.3"/>
				<path class="st4" d="M78.4,73c-0.2,0-0.3,0.2-0.3,0.3c0,0.2,0.2,0.3,0.3,0.3c0.2,0,0.3-0.2,0.3-0.3C78.7,73.2,78.6,73,78.4,73"
					/>
				<circle class="st5" cx="78.4" cy="73.3" r="0.3"/>
				<path class="st4" d="M78.4,51.6c-0.2,0-0.3,0.2-0.3,0.3s0.2,0.3,0.3,0.3c0.2,0,0.3-0.2,0.3-0.3S78.6,51.6,78.4,51.6"/>
				<circle class="st5" cx="78.4" cy="51.9" r="0.3"/>
				<path class="st4" d="M78.4,48c-0.2,0-0.3,0.2-0.3,0.3c0,0.2,0.2,0.3,0.3,0.3c0.2,0,0.3-0.2,0.3-0.3C78.7,48.2,78.6,48,78.4,48"
					/>
				<circle class="st5" cx="78.4" cy="48.3" r="0.3"/>
				<path class="st4" d="M78.4,55.1c-0.2,0-0.3,0.2-0.3,0.3c0,0.2,0.2,0.3,0.3,0.3c0.2,0,0.3-0.2,0.3-0.3
					C78.7,55.3,78.6,55.1,78.4,55.1"/>
				<circle class="st5" cx="78.4" cy="55.5" r="0.3"/>
				<path class="st4" d="M78.4,76.6c-0.2,0-0.3,0.2-0.3,0.3c0,0.2,0.2,0.3,0.3,0.3c0.2,0,0.3-0.2,0.3-0.3
					C78.7,76.7,78.6,76.6,78.4,76.6"/>
				<circle class="st5" cx="78.4" cy="76.9" r="0.3"/>
				<path class="st4" d="M78.4,69.4c-0.2,0-0.3,0.2-0.3,0.3c0,0.2,0.2,0.3,0.3,0.3c0.2,0,0.3-0.2,0.3-0.3
					C78.7,69.6,78.6,69.4,78.4,69.4"/>
				<circle class="st5" cx="78.4" cy="69.8" r="0.3"/>
				<path class="st4" d="M78.4,80.1c-0.2,0-0.3,0.2-0.3,0.3c0,0.2,0.2,0.3,0.3,0.3c0.2,0,0.3-0.2,0.3-0.3
					C78.7,80.3,78.6,80.1,78.4,80.1"/>
				<circle class="st5" cx="78.4" cy="80.5" r="0.3"/>
				<path class="st4" d="M78.4,44.4c-0.2,0-0.3,0.2-0.3,0.3c0,0.2,0.2,0.3,0.3,0.3c0.2,0,0.3-0.2,0.3-0.3
					C78.7,44.6,78.6,44.4,78.4,44.4"/>
				<circle class="st5" cx="78.4" cy="44.8" r="0.3"/>
				<path class="st4" d="M83,38c0.1,0,0.2,0,0.2-0.1c0,0,0.1-0.1,0.1-0.2c-0.2,0-0.4,0-0.6,0c0,0,0,0.1,0.1,0.1
					C82.8,37.9,82.9,38,83,38"/>
				<path class="st5" d="M83,38c0.1,0,0.2,0,0.2-0.1c0,0,0.1-0.1,0.1-0.2c-0.2,0-0.4,0-0.6,0c0,0,0,0.1,0.1,0.1
					C82.8,37.9,82.9,38,83,38z"/>
				<path class="st4" d="M83,73c-0.2,0-0.3,0.2-0.3,0.3c0,0.2,0.2,0.3,0.3,0.3c0.2,0,0.3-0.2,0.3-0.3C83.3,73.2,83.2,73,83,73"/>
				<circle class="st5" cx="83" cy="73.3" r="0.3"/>
				<path class="st4" d="M83,69.4c-0.2,0-0.3,0.2-0.3,0.3c0,0.2,0.2,0.3,0.3,0.3c0.2,0,0.3-0.2,0.3-0.3C83.3,69.6,83.2,69.4,83,69.4
					"/>
				<circle class="st5" cx="83" cy="69.8" r="0.3"/>
				<path class="st4" d="M83,65.9c-0.2,0-0.3,0.2-0.3,0.3c0,0.2,0.2,0.3,0.3,0.3c0.2,0,0.3-0.2,0.3-0.3C83.3,66,83.2,65.9,83,65.9"
					/>
				<circle class="st5" cx="83" cy="66.2" r="0.3"/>
				<path class="st4" d="M83,76.6c-0.2,0-0.3,0.2-0.3,0.3c0,0.2,0.2,0.3,0.3,0.3c0.2,0,0.3-0.2,0.3-0.3C83.3,76.7,83.2,76.6,83,76.6
					"/>
				<circle class="st5" cx="83" cy="76.9" r="0.3"/>
				<path class="st4" d="M83,80.1c-0.2,0-0.3,0.2-0.3,0.3c0,0.2,0.2,0.3,0.3,0.3c0.2,0,0.3-0.2,0.3-0.3C83.3,80.3,83.2,80.1,83,80.1
					"/>
				<circle class="st5" cx="83" cy="80.5" r="0.3"/>
				<path class="st4" d="M83,40.9c-0.2,0-0.3,0.2-0.3,0.3c0,0.2,0.2,0.3,0.3,0.3c0.2,0,0.3-0.2,0.3-0.3C83.3,41,83.2,40.9,83,40.9"
					/>
				<circle class="st5" cx="83" cy="41.2" r="0.3"/>
				<path class="st4" d="M83,44.4c-0.2,0-0.3,0.2-0.3,0.3c0,0.2,0.2,0.3,0.3,0.3c0.2,0,0.3-0.2,0.3-0.3C83.3,44.6,83.2,44.4,83,44.4
					"/>
				<circle class="st5" cx="83" cy="44.8" r="0.3"/>
				<path class="st4" d="M83,51.6c-0.2,0-0.3,0.2-0.3,0.3s0.2,0.3,0.3,0.3c0.2,0,0.3-0.2,0.3-0.3S83.2,51.6,83,51.6"/>
				<circle class="st5" cx="83" cy="51.9" r="0.3"/>
				<path class="st4" d="M83,55.1c-0.2,0-0.3,0.2-0.3,0.3c0,0.2,0.2,0.3,0.3,0.3c0.2,0,0.3-0.2,0.3-0.3C83.3,55.3,83.2,55.1,83,55.1
					"/>
				<circle class="st5" cx="83" cy="55.5" r="0.3"/>
				<path class="st4" d="M83,58.7c-0.2,0-0.3,0.2-0.3,0.3c0,0.2,0.2,0.3,0.3,0.3c0.2,0,0.3-0.2,0.3-0.3C83.3,58.9,83.2,58.7,83,58.7
					"/>
				<circle class="st5" cx="83" cy="59.1" r="0.3"/>
				<path class="st4" d="M83,62.3c-0.2,0-0.3,0.2-0.3,0.3c0,0.2,0.2,0.3,0.3,0.3c0.2,0,0.3-0.2,0.3-0.3C83.3,62.4,83.2,62.3,83,62.3
					"/>
				<circle class="st5" cx="83" cy="62.6" r="0.3"/>
				<path class="st4" d="M83,48c-0.2,0-0.3,0.2-0.3,0.3c0,0.2,0.2,0.3,0.3,0.3c0.2,0,0.3-0.2,0.3-0.3C83.3,48.2,83.2,48,83,48"/>
				<circle class="st5" cx="83" cy="48.3" r="0.3"/>
				<path class="st4" d="M87.6,38c0.1,0,0.2,0,0.2-0.1c0,0,0.1-0.1,0.1-0.2c-0.2,0-0.4,0-0.7,0c0,0.1,0,0.1,0.1,0.2
					C87.4,37.9,87.5,38,87.6,38"/>
				<path class="st5" d="M87.6,38c0.1,0,0.2,0,0.2-0.1c0,0,0.1-0.1,0.1-0.2c-0.2,0-0.4,0-0.7,0c0,0.1,0,0.1,0.1,0.2
					C87.4,37.9,87.5,38,87.6,38z"/>
				<path class="st4" d="M87.6,69.4c-0.2,0-0.3,0.2-0.3,0.3c0,0.2,0.2,0.3,0.3,0.3c0.2,0,0.3-0.2,0.3-0.3
					C87.9,69.6,87.8,69.4,87.6,69.4"/>
				<circle class="st5" cx="87.6" cy="69.8" r="0.3"/>
				<path class="st4" d="M87.6,65.9c-0.2,0-0.3,0.2-0.3,0.3c0,0.2,0.2,0.3,0.3,0.3c0.2,0,0.3-0.2,0.3-0.3
					C87.9,66,87.8,65.9,87.6,65.9"/>
				<circle class="st5" cx="87.6" cy="66.2" r="0.3"/>
				<path class="st4" d="M87.6,58.7c-0.2,0-0.3,0.2-0.3,0.3c0,0.2,0.2,0.3,0.3,0.3c0.2,0,0.3-0.2,0.3-0.3
					C87.9,58.9,87.8,58.7,87.6,58.7"/>
				<circle class="st5" cx="87.6" cy="59.1" r="0.3"/>
				<path class="st4" d="M87.6,55.1c-0.2,0-0.3,0.2-0.3,0.3c0,0.2,0.2,0.3,0.3,0.3c0.2,0,0.3-0.2,0.3-0.3
					C87.9,55.3,87.8,55.1,87.6,55.1"/>
				<circle class="st5" cx="87.6" cy="55.5" r="0.3"/>
				<path class="st4" d="M87.6,51.6c-0.2,0-0.3,0.2-0.3,0.3s0.2,0.3,0.3,0.3c0.2,0,0.3-0.2,0.3-0.3S87.8,51.6,87.6,51.6"/>
				<circle class="st5" cx="87.6" cy="51.9" r="0.3"/>
				<path class="st4" d="M87.6,76.6c-0.2,0-0.3,0.2-0.3,0.3c0,0.2,0.2,0.3,0.3,0.3c0.2,0,0.3-0.2,0.3-0.3
					C87.9,76.7,87.8,76.6,87.6,76.6"/>
				<circle class="st5" cx="87.6" cy="76.9" r="0.3"/>
				<path class="st4" d="M87.6,73c-0.2,0-0.3,0.2-0.3,0.3c0,0.2,0.2,0.3,0.3,0.3c0.2,0,0.3-0.2,0.3-0.3C87.9,73.2,87.8,73,87.6,73"
					/>
				<circle class="st5" cx="87.6" cy="73.3" r="0.3"/>
				<path class="st4" d="M87.6,80.1c-0.2,0-0.3,0.2-0.3,0.3c0,0.2,0.2,0.3,0.3,0.3c0.2,0,0.3-0.2,0.3-0.3
					C87.9,80.3,87.8,80.1,87.6,80.1"/>
				<circle class="st5" cx="87.6" cy="80.5" r="0.3"/>
				<path class="st4" d="M87.6,48c-0.2,0-0.3,0.2-0.3,0.3c0,0.2,0.2,0.3,0.3,0.3c0.2,0,0.3-0.2,0.3-0.3C87.9,48.2,87.8,48,87.6,48"
					/>
				<circle class="st5" cx="87.6" cy="48.3" r="0.3"/>
				<path class="st4" d="M87.6,62.3c-0.2,0-0.3,0.2-0.3,0.3c0,0.2,0.2,0.3,0.3,0.3c0.2,0,0.3-0.2,0.3-0.3
					C87.9,62.4,87.8,62.3,87.6,62.3"/>
				<circle class="st5" cx="87.6" cy="62.6" r="0.3"/>
				<path class="st4" d="M87.6,44.4c-0.2,0-0.3,0.2-0.3,0.3c0,0.2,0.2,0.3,0.3,0.3c0.2,0,0.3-0.2,0.3-0.3
					C87.9,44.6,87.8,44.4,87.6,44.4"/>
				<circle class="st5" cx="87.6" cy="44.8" r="0.3"/>
				<path class="st4" d="M87.6,40.9c-0.2,0-0.3,0.2-0.3,0.3c0,0.2,0.2,0.3,0.3,0.3c0.2,0,0.3-0.2,0.3-0.3
					C87.9,41,87.8,40.9,87.6,40.9"/>
				<circle class="st5" cx="87.6" cy="41.2" r="0.3"/>
				<path class="st4" d="M92.2,80.1c-0.2,0-0.3,0.2-0.3,0.3c0,0.2,0.2,0.3,0.3,0.3c0.2,0,0.3-0.2,0.3-0.3
					C92.5,80.3,92.4,80.1,92.2,80.1"/>
				<circle class="st5" cx="92.2" cy="80.5" r="0.3"/>
				<path class="st4" d="M92.2,65.9c-0.2,0-0.3,0.2-0.3,0.3c0,0.2,0.2,0.3,0.3,0.3c0.2,0,0.3-0.2,0.3-0.3
					C92.5,66,92.4,65.9,92.2,65.9"/>
				<circle class="st5" cx="92.2" cy="66.2" r="0.3"/>
				<path class="st4" d="M92.2,76.6c-0.2,0-0.3,0.2-0.3,0.3c0,0.2,0.2,0.3,0.3,0.3c0.2,0,0.3-0.2,0.3-0.3
					C92.5,76.7,92.4,76.6,92.2,76.6"/>
				<circle class="st5" cx="92.2" cy="76.9" r="0.3"/>
				<path class="st4" d="M92.2,69.4c-0.2,0-0.3,0.2-0.3,0.3c0,0.2,0.2,0.3,0.3,0.3c0.2,0,0.3-0.2,0.3-0.3
					C92.5,69.6,92.4,69.4,92.2,69.4"/>
				<circle class="st5" cx="92.2" cy="69.8" r="0.3"/>
				<path class="st4" d="M92.2,62.3c-0.2,0-0.3,0.2-0.3,0.3c0,0.2,0.2,0.3,0.3,0.3c0.2,0,0.3-0.2,0.3-0.3
					C92.5,62.4,92.4,62.3,92.2,62.3"/>
				<circle class="st5" cx="92.2" cy="62.6" r="0.3"/>
				<path class="st4" d="M92.2,73c-0.2,0-0.3,0.2-0.3,0.3c0,0.2,0.2,0.3,0.3,0.3c0.2,0,0.3-0.2,0.3-0.3C92.5,73.2,92.4,73,92.2,73"
					/>
				<circle class="st5" cx="92.2" cy="73.3" r="0.3"/>
				<path class="st4" d="M92.2,48c-0.2,0-0.3,0.2-0.3,0.3c0,0.2,0.2,0.3,0.3,0.3c0.2,0,0.3-0.2,0.3-0.3C92.5,48.2,92.4,48,92.2,48"
					/>
				<circle class="st5" cx="92.2" cy="48.3" r="0.3"/>
				<path class="st4" d="M92.2,40.9c-0.2,0-0.3,0.2-0.3,0.3c0,0.2,0.2,0.3,0.3,0.3c0.2,0,0.3-0.2,0.3-0.3
					C92.5,41,92.4,40.9,92.2,40.9"/>
				<circle class="st5" cx="92.2" cy="41.2" r="0.3"/>
				<path class="st4" d="M92.2,58.7c-0.2,0-0.3,0.2-0.3,0.3c0,0.2,0.2,0.3,0.3,0.3c0.2,0,0.3-0.2,0.3-0.3
					C92.5,58.9,92.4,58.7,92.2,58.7"/>
				<circle class="st5" cx="92.2" cy="59.1" r="0.3"/>
				<path class="st4" d="M92.2,44.4c-0.2,0-0.3,0.2-0.3,0.3c0,0.2,0.2,0.3,0.3,0.3c0.2,0,0.3-0.2,0.3-0.3
					C92.5,44.6,92.4,44.4,92.2,44.4"/>
				<circle class="st5" cx="92.2" cy="44.8" r="0.3"/>
				<path class="st4" d="M92.2,51.6c-0.2,0-0.3,0.2-0.3,0.3s0.2,0.3,0.3,0.3c0.2,0,0.3-0.2,0.3-0.3S92.4,51.6,92.2,51.6"/>
				<circle class="st5" cx="92.2" cy="51.9" r="0.3"/>
				<path class="st4" d="M92.2,55.1c-0.2,0-0.3,0.2-0.3,0.3c0,0.2,0.2,0.3,0.3,0.3c0.2,0,0.3-0.2,0.3-0.3
					C92.5,55.3,92.4,55.1,92.2,55.1"/>
				<circle class="st5" cx="92.2" cy="55.5" r="0.3"/>
				<path class="st4" d="M96.8,40.9c-0.2,0-0.3,0.2-0.3,0.3c0,0.2,0.2,0.3,0.3,0.3c0.2,0,0.3-0.2,0.3-0.3
					C97.1,41,96.9,40.9,96.8,40.9"/>
				<circle class="st5" cx="96.8" cy="41.2" r="0.3"/>
				<path class="st4" d="M96.8,51.6c-0.2,0-0.3,0.2-0.3,0.3s0.2,0.3,0.3,0.3c0.2,0,0.3-0.2,0.3-0.3S96.9,51.6,96.8,51.6"/>
				<circle class="st5" cx="96.8" cy="51.9" r="0.3"/>
				<path class="st4" d="M96.8,48c-0.2,0-0.3,0.2-0.3,0.3c0,0.2,0.2,0.3,0.3,0.3c0.2,0,0.3-0.2,0.3-0.3C97.1,48.2,96.9,48,96.8,48"
					/>
				<circle class="st5" cx="96.8" cy="48.3" r="0.3"/>
				<path class="st4" d="M96.8,44.4c-0.2,0-0.3,0.2-0.3,0.3c0,0.2,0.2,0.3,0.3,0.3c0.2,0,0.3-0.2,0.3-0.3
					C97.1,44.6,96.9,44.4,96.8,44.4"/>
				<circle class="st5" cx="96.8" cy="44.8" r="0.3"/>
				<path class="st4" d="M96.8,62.3c-0.2,0-0.3,0.2-0.3,0.3c0,0.2,0.2,0.3,0.3,0.3c0.2,0,0.3-0.2,0.3-0.3
					C97.1,62.4,96.9,62.3,96.8,62.3"/>
				<circle class="st5" cx="96.8" cy="62.6" r="0.3"/>
				<path class="st4" d="M96.8,80.1c-0.2,0-0.3,0.2-0.3,0.3c0,0.2,0.2,0.3,0.3,0.3c0.2,0,0.3-0.2,0.3-0.3
					C97.1,80.3,96.9,80.1,96.8,80.1"/>
				<circle class="st5" cx="96.8" cy="80.5" r="0.3"/>
				<path class="st4" d="M96.8,58.7c-0.2,0-0.3,0.2-0.3,0.3c0,0.2,0.2,0.3,0.3,0.3c0.2,0,0.3-0.2,0.3-0.3
					C97.1,58.9,96.9,58.7,96.8,58.7"/>
				<circle class="st5" cx="96.8" cy="59.1" r="0.3"/>
				<path class="st4" d="M96.8,55.1c-0.2,0-0.3,0.2-0.3,0.3c0,0.2,0.2,0.3,0.3,0.3c0.2,0,0.3-0.2,0.3-0.3
					C97.1,55.3,96.9,55.1,96.8,55.1"/>
				<circle class="st5" cx="96.8" cy="55.5" r="0.3"/>
				<path class="st4" d="M96.8,76.6c-0.2,0-0.3,0.2-0.3,0.3c0,0.2,0.2,0.3,0.3,0.3c0.2,0,0.3-0.2,0.3-0.3
					C97.1,76.7,96.9,76.6,96.8,76.6"/>
				<circle class="st5" cx="96.8" cy="76.9" r="0.3"/>
				<path class="st4" d="M96.8,73c-0.2,0-0.3,0.2-0.3,0.3c0,0.2,0.2,0.3,0.3,0.3c0.2,0,0.3-0.2,0.3-0.3C97.1,73.2,96.9,73,96.8,73"
					/>
				<circle class="st5" cx="96.8" cy="73.3" r="0.3"/>
				<path class="st4" d="M96.8,69.4c-0.2,0-0.3,0.2-0.3,0.3c0,0.2,0.2,0.3,0.3,0.3c0.2,0,0.3-0.2,0.3-0.3
					C97.1,69.6,96.9,69.4,96.8,69.4"/>
				<circle class="st5" cx="96.8" cy="69.8" r="0.3"/>
				<path class="st4" d="M96.8,65.9c-0.2,0-0.3,0.2-0.3,0.3c0,0.2,0.2,0.3,0.3,0.3c0.2,0,0.3-0.2,0.3-0.3
					C97.1,66,96.9,65.9,96.8,65.9"/>
				<circle class="st5" cx="96.8" cy="66.2" r="0.3"/>
				<path class="st4" d="M101.4,69.4c-0.2,0-0.3,0.2-0.3,0.3c0,0.2,0.2,0.3,0.3,0.3c0.2,0,0.3-0.2,0.3-0.3
					C101.7,69.6,101.5,69.4,101.4,69.4"/>
				<circle class="st5" cx="101.4" cy="69.8" r="0.3"/>
				<path class="st4" d="M101.4,62.3c-0.2,0-0.3,0.2-0.3,0.3c0,0.2,0.2,0.3,0.3,0.3c0.2,0,0.3-0.2,0.3-0.3
					C101.7,62.4,101.5,62.3,101.4,62.3"/>
				<circle class="st5" cx="101.4" cy="62.6" r="0.3"/>
				<path class="st4" d="M101.4,65.9c-0.2,0-0.3,0.2-0.3,0.3c0,0.2,0.2,0.3,0.3,0.3c0.2,0,0.3-0.2,0.3-0.3
					C101.7,66,101.5,65.9,101.4,65.9"/>
				<circle class="st5" cx="101.4" cy="66.2" r="0.3"/>
				<path class="st4" d="M101.4,55.1c-0.2,0-0.3,0.2-0.3,0.3c0,0.2,0.2,0.3,0.3,0.3c0.2,0,0.3-0.2,0.3-0.3
					C101.7,55.3,101.5,55.1,101.4,55.1"/>
				<circle class="st5" cx="101.4" cy="55.5" r="0.3"/>
				<path class="st4" d="M101.4,58.7c-0.2,0-0.3,0.2-0.3,0.3c0,0.2,0.2,0.3,0.3,0.3c0.2,0,0.3-0.2,0.3-0.3
					C101.7,58.9,101.5,58.7,101.4,58.7"/>
				<circle class="st5" cx="101.4" cy="59.1" r="0.3"/>
				<path class="st4" d="M101.4,51.6c-0.2,0-0.3,0.2-0.3,0.3s0.2,0.3,0.3,0.3c0.2,0,0.3-0.2,0.3-0.3S101.5,51.6,101.4,51.6"/>
				<circle class="st5" cx="101.4" cy="51.9" r="0.3"/>
				<path class="st4" d="M101.4,44.4c-0.2,0-0.3,0.2-0.3,0.3c0,0.2,0.2,0.3,0.3,0.3c0.2,0,0.3-0.2,0.3-0.3
					C101.7,44.6,101.5,44.4,101.4,44.4"/>
				<circle class="st5" cx="101.4" cy="44.8" r="0.3"/>
				<path class="st4" d="M101.4,41.5c0.1,0,0.2,0,0.2-0.1c-0.2-0.1-0.4-0.2-0.6-0.3c0,0,0,0,0,0C101,41.4,101.2,41.5,101.4,41.5"/>
				<path class="st5" d="M101.4,41.5c0.1,0,0.2,0,0.2-0.1c-0.2-0.1-0.4-0.2-0.6-0.3c0,0,0,0,0,0C101,41.4,101.2,41.5,101.4,41.5z"/>
				<path class="st4" d="M101.4,48c-0.2,0-0.3,0.2-0.3,0.3c0,0.2,0.2,0.3,0.3,0.3c0.2,0,0.3-0.2,0.3-0.3
					C101.7,48.2,101.5,48,101.4,48"/>
				<circle class="st5" cx="101.4" cy="48.3" r="0.3"/>
				<path class="st4" d="M101.4,73c-0.2,0-0.3,0.2-0.3,0.3c0,0.2,0.2,0.3,0.3,0.3c0.2,0,0.3-0.2,0.3-0.3
					C101.7,73.2,101.5,73,101.4,73"/>
				<circle class="st5" cx="101.4" cy="73.3" r="0.3"/>
				<path class="st4" d="M101.4,76.6c-0.2,0-0.3,0.2-0.3,0.3c0,0.2,0.2,0.3,0.3,0.3c0.2,0,0.3-0.2,0.3-0.3
					C101.7,76.7,101.5,76.6,101.4,76.6"/>
				<circle class="st5" cx="101.4" cy="76.9" r="0.3"/>
				<path class="st4" d="M101.4,80.1c-0.2,0-0.3,0.2-0.3,0.3c0,0.2,0.2,0.3,0.3,0.3c0.2,0,0.3-0.2,0.3-0.3
					C101.7,80.3,101.5,80.1,101.4,80.1"/>
				<circle class="st5" cx="101.4" cy="80.5" r="0.3"/>
				<path class="st4" d="M106,51.6c-0.2,0-0.3,0.2-0.3,0.3s0.2,0.3,0.3,0.3c0.2,0,0.3-0.2,0.3-0.3S106.1,51.6,106,51.6"/>
				<circle class="st5" cx="106" cy="51.9" r="0.3"/>
				<path class="st4" d="M106,80.1c-0.2,0-0.3,0.2-0.3,0.3c0,0.2,0.2,0.3,0.3,0.3c0.2,0,0.3-0.2,0.3-0.3
					C106.3,80.3,106.1,80.1,106,80.1"/>
				<circle class="st5" cx="106" cy="80.5" r="0.3"/>
				<path class="st4" d="M106,76.6c-0.2,0-0.3,0.2-0.3,0.3c0,0.2,0.2,0.3,0.3,0.3c0.2,0,0.3-0.2,0.3-0.3
					C106.3,76.7,106.1,76.6,106,76.6"/>
				<circle class="st5" cx="106" cy="76.9" r="0.3"/>
				<path class="st4" d="M106,58.7c-0.2,0-0.3,0.2-0.3,0.3c0,0.2,0.2,0.3,0.3,0.3c0.2,0,0.3-0.2,0.3-0.3
					C106.3,58.9,106.1,58.7,106,58.7"/>
				<circle class="st5" cx="106" cy="59.1" r="0.3"/>
				<path class="st4" d="M106,48c-0.2,0-0.3,0.2-0.3,0.3c0,0.2,0.2,0.3,0.3,0.3c0.2,0,0.3-0.2,0.3-0.3C106.3,48.2,106.1,48,106,48"
					/>
				<circle class="st5" cx="106" cy="48.3" r="0.3"/>
				<path class="st4" d="M106,73c-0.2,0-0.3,0.2-0.3,0.3c0,0.2,0.2,0.3,0.3,0.3c0.2,0,0.3-0.2,0.3-0.3C106.3,73.2,106.1,73,106,73"
					/>
				<circle class="st5" cx="106" cy="73.3" r="0.3"/>
				<path class="st4" d="M106,44.4c-0.2,0-0.3,0.2-0.3,0.3c0,0.2,0.2,0.3,0.3,0.3c0.2,0,0.3-0.2,0.3-0.3
					C106.3,44.6,106.1,44.4,106,44.4"/>
				<circle class="st5" cx="106" cy="44.8" r="0.3"/>
				<path class="st4" d="M106,55.1c-0.2,0-0.3,0.2-0.3,0.3c0,0.2,0.2,0.3,0.3,0.3c0.2,0,0.3-0.2,0.3-0.3
					C106.3,55.3,106.1,55.1,106,55.1"/>
				<circle class="st5" cx="106" cy="55.5" r="0.3"/>
				<path class="st4" d="M106,65.9c-0.2,0-0.3,0.2-0.3,0.3c0,0.2,0.2,0.3,0.3,0.3c0.2,0,0.3-0.2,0.3-0.3
					C106.3,66,106.1,65.9,106,65.9"/>
				<circle class="st5" cx="106" cy="66.2" r="0.3"/>
				<path class="st4" d="M106,62.3c-0.2,0-0.3,0.2-0.3,0.3c0,0.2,0.2,0.3,0.3,0.3c0.2,0,0.3-0.2,0.3-0.3
					C106.3,62.4,106.1,62.3,106,62.3"/>
				<circle class="st5" cx="106" cy="62.6" r="0.3"/>
				<path class="st4" d="M106,69.4c-0.2,0-0.3,0.2-0.3,0.3c0,0.2,0.2,0.3,0.3,0.3c0.2,0,0.3-0.2,0.3-0.3
					C106.3,69.6,106.1,69.4,106,69.4"/>
				<circle class="st5" cx="106" cy="69.8" r="0.3"/>
				<path class="st4" d="M110.6,69.4c-0.2,0-0.3,0.2-0.3,0.3c0,0.2,0.2,0.3,0.3,0.3c0.2,0,0.3-0.2,0.3-0.3
					C110.9,69.6,110.7,69.4,110.6,69.4"/>
				<circle class="st5" cx="110.6" cy="69.8" r="0.3"/>
				<path class="st4" d="M110.6,65.9c-0.2,0-0.3,0.2-0.3,0.3c0,0.2,0.2,0.3,0.3,0.3c0.2,0,0.3-0.2,0.3-0.3
					C110.9,66,110.7,65.9,110.6,65.9"/>
				<circle class="st5" cx="110.6" cy="66.2" r="0.3"/>
				<path class="st4" d="M110.6,55.1c-0.2,0-0.3,0.2-0.3,0.3c0,0.2,0.2,0.3,0.3,0.3c0.2,0,0.3-0.2,0.3-0.3
					C110.9,55.3,110.7,55.1,110.6,55.1"/>
				<circle class="st5" cx="110.6" cy="55.5" r="0.3"/>
				<path class="st4" d="M110.6,48c-0.2,0-0.3,0.2-0.3,0.3c0,0.2,0.2,0.3,0.3,0.3c0.2,0,0.3-0.2,0.3-0.3
					C110.9,48.2,110.7,48,110.6,48"/>
				<circle class="st5" cx="110.6" cy="48.3" r="0.3"/>
				<path class="st4" d="M110.6,51.6c-0.2,0-0.3,0.2-0.3,0.3s0.2,0.3,0.3,0.3c0.2,0,0.3-0.2,0.3-0.3S110.7,51.6,110.6,51.6"/>
				<circle class="st5" cx="110.6" cy="51.9" r="0.3"/>
				<path class="st4" d="M110.6,62.3c-0.2,0-0.3,0.2-0.3,0.3c0,0.2,0.2,0.3,0.3,0.3c0.2,0,0.3-0.2,0.3-0.3
					C110.9,62.4,110.7,62.3,110.6,62.3"/>
				<circle class="st5" cx="110.6" cy="62.6" r="0.3"/>
				<path class="st4" d="M110.6,80.1c-0.2,0-0.3,0.2-0.3,0.3c0,0.2,0.2,0.3,0.3,0.3c0.2,0,0.3-0.2,0.3-0.3
					C110.9,80.3,110.7,80.1,110.6,80.1"/>
				<circle class="st5" cx="110.6" cy="80.5" r="0.3"/>
				<path class="st4" d="M110.6,58.7c-0.2,0-0.3,0.2-0.3,0.3c0,0.2,0.2,0.3,0.3,0.3c0.2,0,0.3-0.2,0.3-0.3
					C110.9,58.9,110.7,58.7,110.6,58.7"/>
				<circle class="st5" cx="110.6" cy="59.1" r="0.3"/>
				<path class="st4" d="M110.6,76.6c-0.2,0-0.3,0.2-0.3,0.3c0,0.2,0.2,0.3,0.3,0.3c0.2,0,0.3-0.2,0.3-0.3
					C110.9,76.7,110.7,76.6,110.6,76.6"/>
				<circle class="st5" cx="110.6" cy="76.9" r="0.3"/>
				<path class="st4" d="M110.6,73c-0.2,0-0.3,0.2-0.3,0.3c0,0.2,0.2,0.3,0.3,0.3c0.2,0,0.3-0.2,0.3-0.3
					C110.9,73.2,110.7,73,110.6,73"/>
				<circle class="st5" cx="110.6" cy="73.3" r="0.3"/>
				<path class="st4" d="M115.1,62.3c-0.2,0-0.3,0.2-0.3,0.3c0,0.2,0.2,0.3,0.3,0.3c0.2,0,0.3-0.2,0.3-0.3
					C115.5,62.4,115.3,62.3,115.1,62.3"/>
				<circle class="st5" cx="115.1" cy="62.6" r="0.3"/>
				<path class="st4" d="M115.1,69.4c-0.2,0-0.3,0.2-0.3,0.3c0,0.2,0.2,0.3,0.3,0.3c0.2,0,0.3-0.2,0.3-0.3
					C115.5,69.6,115.3,69.4,115.1,69.4"/>
				<circle class="st5" cx="115.1" cy="69.8" r="0.3"/>
				<path class="st4" d="M115.1,80.1c-0.2,0-0.3,0.2-0.3,0.3c0,0.2,0.2,0.3,0.3,0.3c0.2,0,0.3-0.2,0.3-0.3
					C115.5,80.3,115.3,80.1,115.1,80.1"/>
				<circle class="st5" cx="115.1" cy="80.5" r="0.3"/>
				<path class="st4" d="M115.1,73c-0.2,0-0.3,0.2-0.3,0.3c0,0.2,0.2,0.3,0.3,0.3c0.2,0,0.3-0.2,0.3-0.3
					C115.5,73.2,115.3,73,115.1,73"/>
				<circle class="st5" cx="115.1" cy="73.3" r="0.3"/>
				<path class="st4" d="M115.1,55.1c-0.2,0-0.3,0.2-0.3,0.3c0,0.2,0.2,0.3,0.3,0.3c0.2,0,0.3-0.2,0.3-0.3
					C115.5,55.3,115.3,55.1,115.1,55.1"/>
				<circle class="st5" cx="115.1" cy="55.5" r="0.3"/>
				<path class="st4" d="M115.1,58.7c-0.2,0-0.3,0.2-0.3,0.3c0,0.2,0.2,0.3,0.3,0.3c0.2,0,0.3-0.2,0.3-0.3
					C115.5,58.9,115.3,58.7,115.1,58.7"/>
				<circle class="st5" cx="115.1" cy="59.1" r="0.3"/>
				<path class="st4" d="M115.1,65.9c-0.2,0-0.3,0.2-0.3,0.3c0,0.2,0.2,0.3,0.3,0.3c0.2,0,0.3-0.2,0.3-0.3
					C115.5,66,115.3,65.9,115.1,65.9"/>
				<circle class="st5" cx="115.1" cy="66.2" r="0.3"/>
				<path class="st4" d="M115.1,76.6c-0.2,0-0.3,0.2-0.3,0.3c0,0.2,0.2,0.3,0.3,0.3c0.2,0,0.3-0.2,0.3-0.3
					C115.5,76.7,115.3,76.6,115.1,76.6"/>
				<circle class="st5" cx="115.1" cy="76.9" r="0.3"/>
				<path class="st4" d="M119.7,69.4c-0.2,0-0.3,0.2-0.3,0.3c0,0.2,0.2,0.3,0.3,0.3c0.2,0,0.3-0.2,0.3-0.3
					C120.1,69.6,119.9,69.4,119.7,69.4"/>
				<circle class="st5" cx="119.7" cy="69.8" r="0.3"/>
				<path class="st4" d="M119.7,66.5c0.2,0,0.3-0.2,0.3-0.3c0-0.2-0.2-0.3-0.3-0.3c-0.2,0-0.3,0.2-0.3,0.3
					C119.4,66.4,119.6,66.5,119.7,66.5"/>
				<circle class="st5" cx="119.7" cy="66.2" r="0.3"/>
				<path class="st4" d="M119.7,73c-0.2,0-0.3,0.2-0.3,0.3c0,0.2,0.2,0.3,0.3,0.3c0.2,0,0.3-0.2,0.3-0.3
					C120.1,73.2,119.9,73,119.7,73"/>
				<circle class="st5" cx="119.7" cy="73.3" r="0.3"/>
				<path class="st4" d="M119.7,80.1c-0.2,0-0.3,0.2-0.3,0.3c0,0.2,0.2,0.3,0.3,0.3c0.2,0,0.3-0.2,0.3-0.3
					C120.1,80.3,119.9,80.1,119.7,80.1"/>
				<circle class="st5" cx="119.7" cy="80.5" r="0.3"/>
				<path class="st4" d="M119.7,76.6c-0.2,0-0.3,0.2-0.3,0.3c0,0.2,0.2,0.3,0.3,0.3c0.2,0,0.3-0.2,0.3-0.3
					C120.1,76.7,119.9,76.6,119.7,76.6"/>
				<circle class="st5" cx="119.7" cy="76.9" r="0.3"/>
				<path class="st4" d="M119.7,63c-0.1-0.2-0.1-0.4-0.2-0.6c-0.1,0.1-0.1,0.2-0.1,0.3C119.4,62.8,119.6,63,119.7,63"/>
				<path class="st5" d="M119.7,63c-0.1-0.2-0.1-0.4-0.2-0.6c-0.1,0.1-0.1,0.2-0.1,0.3C119.4,62.8,119.6,63,119.7,63z"/>
				<path class="st4" d="M50.8,83.7c-0.1,0-0.3,0.1-0.3,0.2c0,0.1,0,0.2,0.1,0.3c0.1,0.1,0.1,0.1,0.2,0.1c0.2,0,0.3-0.2,0.3-0.3
					C51.1,83.9,51,83.7,50.8,83.7"/>
				<path class="st5" d="M50.8,83.7c-0.1,0-0.3,0.1-0.3,0.2c0,0.1,0,0.2,0.1,0.3c0.1,0.1,0.1,0.1,0.2,0.1c0.2,0,0.3-0.2,0.3-0.3
					C51.1,83.9,51,83.7,50.8,83.7z"/>
				<path class="st4" d="M55.4,90.9c-0.2,0-0.3,0.2-0.3,0.3c0,0.2,0.2,0.3,0.3,0.3c0.2,0,0.3-0.2,0.3-0.3
					C55.7,91,55.6,90.9,55.4,90.9"/>
				<circle class="st5" cx="55.4" cy="91.2" r="0.3"/>
				<path class="st4" d="M55.4,87.3c-0.2,0-0.3,0.2-0.3,0.3c0,0.2,0.2,0.3,0.3,0.3c0.2,0,0.3-0.2,0.3-0.3
					C55.7,87.4,55.6,87.3,55.4,87.3"/>
				<circle class="st5" cx="55.4" cy="87.6" r="0.3"/>
				<path class="st4" d="M55.4,94.4c-0.2,0-0.3,0.2-0.3,0.3c0,0.2,0.2,0.3,0.3,0.3c0.2,0,0.3-0.2,0.3-0.3
					C55.7,94.6,55.6,94.4,55.4,94.4"/>
				<circle class="st5" cx="55.4" cy="94.8" r="0.3"/>
				<path class="st4" d="M55.4,83.7c-0.2,0-0.3,0.2-0.3,0.3c0,0.2,0.2,0.3,0.3,0.3c0.2,0,0.3-0.2,0.3-0.3
					C55.7,83.9,55.6,83.7,55.4,83.7"/>
				<circle class="st5" cx="55.4" cy="84.1" r="0.3"/>
				<path class="st4" d="M60,83.7c-0.2,0-0.3,0.2-0.3,0.3c0,0.2,0.2,0.3,0.3,0.3c0.2,0,0.3-0.2,0.3-0.3C60.3,83.9,60.2,83.7,60,83.7
					"/>
				<circle class="st5" cx="60" cy="84.1" r="0.3"/>
				<path class="st4" d="M60,94.4c-0.2,0-0.3,0.2-0.3,0.3c0,0.2,0.2,0.3,0.3,0.3c0.2,0,0.3-0.2,0.3-0.3C60.3,94.6,60.2,94.4,60,94.4
					"/>
				<circle class="st5" cx="60" cy="94.8" r="0.3"/>
				<path class="st4" d="M60,87.3c-0.2,0-0.3,0.2-0.3,0.3c0,0.2,0.2,0.3,0.3,0.3c0.2,0,0.3-0.2,0.3-0.3C60.3,87.4,60.2,87.3,60,87.3
					"/>
				<circle class="st5" cx="60" cy="87.6" r="0.3"/>
				<path class="st4" d="M60,90.9c-0.2,0-0.3,0.2-0.3,0.3c0,0.2,0.2,0.3,0.3,0.3c0.2,0,0.3-0.2,0.3-0.3C60.3,91,60.2,90.9,60,90.9"
					/>
				<circle class="st5" cx="60" cy="91.2" r="0.3"/>
				<path class="st4" d="M60,101.6c-0.1,0-0.2,0-0.2,0.1c0.2,0.2,0.3,0.3,0.5,0.5c0.1-0.1,0.1-0.1,0.1-0.2
					C60.3,101.7,60.2,101.6,60,101.6"/>
				<path class="st5" d="M60,101.6c-0.1,0-0.2,0-0.2,0.1c0.2,0.2,0.3,0.3,0.5,0.5c0.1-0.1,0.1-0.1,0.1-0.2
					C60.3,101.7,60.2,101.6,60,101.6z"/>
				<path class="st4" d="M60,98c-0.2,0-0.3,0.2-0.3,0.3c0,0.2,0.2,0.3,0.3,0.3c0.2,0,0.3-0.2,0.3-0.3C60.3,98.2,60.2,98,60,98"/>
				<circle class="st5" cx="60" cy="98.3" r="0.3"/>
				<path class="st4" d="M64.6,83.7c-0.2,0-0.3,0.2-0.3,0.3c0,0.2,0.2,0.3,0.3,0.3c0.2,0,0.3-0.2,0.3-0.3
					C64.9,83.9,64.8,83.7,64.6,83.7"/>
				<circle class="st5" cx="64.6" cy="84.1" r="0.3"/>
				<path class="st4" d="M64.6,90.9c-0.2,0-0.3,0.2-0.3,0.3c0,0.2,0.2,0.3,0.3,0.3c0.2,0,0.3-0.2,0.3-0.3
					C64.9,91,64.8,90.9,64.6,90.9"/>
				<circle class="st5" cx="64.6" cy="91.2" r="0.3"/>
				<path class="st4" d="M64.6,101.6c-0.2,0-0.3,0.2-0.3,0.3c0,0.2,0.2,0.3,0.3,0.3c0.2,0,0.3-0.2,0.3-0.3
					C64.9,101.7,64.8,101.6,64.6,101.6"/>
				<circle class="st5" cx="64.6" cy="101.9" r="0.3"/>
				<path class="st4" d="M64.6,98c-0.2,0-0.3,0.2-0.3,0.3c0,0.2,0.2,0.3,0.3,0.3c0.2,0,0.3-0.2,0.3-0.3C64.9,98.2,64.8,98,64.6,98"
					/>
				<circle class="st5" cx="64.6" cy="98.3" r="0.3"/>
				<path class="st4" d="M64.6,94.4c-0.2,0-0.3,0.2-0.3,0.3c0,0.2,0.2,0.3,0.3,0.3c0.2,0,0.3-0.2,0.3-0.3
					C64.9,94.6,64.8,94.4,64.6,94.4"/>
				<circle class="st5" cx="64.6" cy="94.8" r="0.3"/>
				<path class="st4" d="M64.6,87.3c-0.2,0-0.3,0.2-0.3,0.3c0,0.2,0.2,0.3,0.3,0.3c0.2,0,0.3-0.2,0.3-0.3
					C64.9,87.4,64.8,87.3,64.6,87.3"/>
				<circle class="st5" cx="64.6" cy="87.6" r="0.3"/>
				<path class="st4" d="M64.6,105.1c-0.2,0-0.3,0.2-0.3,0.3c0,0.1,0,0.1,0,0.1c0.1,0.1,0.2,0.1,0.3,0.2c0,0,0,0,0,0
					c0.2,0,0.3-0.2,0.3-0.3C64.9,105.3,64.8,105.1,64.6,105.1"/>
				<path class="st5" d="M64.6,105.1c-0.2,0-0.3,0.2-0.3,0.3c0,0.1,0,0.1,0,0.1c0.1,0.1,0.2,0.1,0.3,0.2c0,0,0,0,0,0
					c0.2,0,0.3-0.2,0.3-0.3C64.9,105.3,64.8,105.1,64.6,105.1z"/>
				<path class="st4" d="M69.2,94.4c-0.2,0-0.3,0.2-0.3,0.3c0,0.2,0.2,0.3,0.3,0.3c0.2,0,0.3-0.2,0.3-0.3
					C69.5,94.6,69.4,94.4,69.2,94.4"/>
				<circle class="st5" cx="69.2" cy="94.8" r="0.3"/>
				<path class="st4" d="M69.2,98c-0.2,0-0.3,0.2-0.3,0.3c0,0.2,0.2,0.3,0.3,0.3c0.2,0,0.3-0.2,0.3-0.3C69.5,98.2,69.4,98,69.2,98"
					/>
				<circle class="st5" cx="69.2" cy="98.3" r="0.3"/>
				<path class="st4" d="M69.2,90.9c-0.2,0-0.3,0.2-0.3,0.3c0,0.2,0.2,0.3,0.3,0.3c0.2,0,0.3-0.2,0.3-0.3
					C69.5,91,69.4,90.9,69.2,90.9"/>
				<circle class="st5" cx="69.2" cy="91.2" r="0.3"/>
				<path class="st4" d="M69.2,83.7c-0.2,0-0.3,0.2-0.3,0.3c0,0.2,0.2,0.3,0.3,0.3c0.2,0,0.3-0.2,0.3-0.3
					C69.5,83.9,69.4,83.7,69.2,83.7"/>
				<circle class="st5" cx="69.2" cy="84.1" r="0.3"/>
				<path class="st4" d="M69.2,87.3c-0.2,0-0.3,0.2-0.3,0.3c0,0.2,0.2,0.3,0.3,0.3c0.2,0,0.3-0.2,0.3-0.3
					C69.5,87.4,69.4,87.3,69.2,87.3"/>
				<circle class="st5" cx="69.2" cy="87.6" r="0.3"/>
				<path class="st4" d="M69.2,101.6c-0.2,0-0.3,0.2-0.3,0.3c0,0.2,0.2,0.3,0.3,0.3c0.2,0,0.3-0.2,0.3-0.3
					C69.5,101.7,69.4,101.6,69.2,101.6"/>
				<circle class="st5" cx="69.2" cy="101.9" r="0.3"/>
				<path class="st4" d="M69.2,105.1c-0.2,0-0.3,0.2-0.3,0.3c0,0.2,0.2,0.3,0.3,0.3c0.2,0,0.3-0.2,0.3-0.3
					C69.5,105.3,69.4,105.1,69.2,105.1"/>
				<circle class="st5" cx="69.2" cy="105.5" r="0.3"/>
				<path class="st4" d="M73.8,83.7c-0.2,0-0.3,0.2-0.3,0.3c0,0.2,0.2,0.3,0.3,0.3c0.2,0,0.3-0.2,0.3-0.3
					C74.1,83.9,74,83.7,73.8,83.7"/>
				<circle class="st5" cx="73.8" cy="84.1" r="0.3"/>
				<path class="st4" d="M73.8,87.3c-0.2,0-0.3,0.2-0.3,0.3c0,0.2,0.2,0.3,0.3,0.3c0.2,0,0.3-0.2,0.3-0.3
					C74.1,87.4,74,87.3,73.8,87.3"/>
				<circle class="st5" cx="73.8" cy="87.6" r="0.3"/>
				<path class="st4" d="M73.8,101.6c-0.2,0-0.3,0.2-0.3,0.3c0,0.2,0.2,0.3,0.3,0.3c0.2,0,0.3-0.2,0.3-0.3
					C74.1,101.7,74,101.6,73.8,101.6"/>
				<circle class="st5" cx="73.8" cy="101.9" r="0.3"/>
				<path class="st4" d="M73.8,108.7c-0.2,0-0.3,0.2-0.3,0.3c0,0.2,0.2,0.3,0.3,0.3c0.2,0,0.3-0.2,0.3-0.3
					C74.1,108.9,74,108.7,73.8,108.7"/>
				<circle class="st5" cx="73.8" cy="109.1" r="0.3"/>
				<path class="st4" d="M73.8,105.1c-0.2,0-0.3,0.2-0.3,0.3c0,0.2,0.2,0.3,0.3,0.3c0.2,0,0.3-0.2,0.3-0.3
					C74.1,105.3,74,105.1,73.8,105.1"/>
				<circle class="st5" cx="73.8" cy="105.5" r="0.3"/>
				<path class="st4" d="M73.8,90.9c-0.2,0-0.3,0.2-0.3,0.3c0,0.2,0.2,0.3,0.3,0.3c0.2,0,0.3-0.2,0.3-0.3C74.1,91,74,90.9,73.8,90.9
					"/>
				<circle class="st5" cx="73.8" cy="91.2" r="0.3"/>
				<path class="st4" d="M73.8,98c-0.2,0-0.3,0.2-0.3,0.3c0,0.2,0.2,0.3,0.3,0.3c0.2,0,0.3-0.2,0.3-0.3C74.1,98.2,74,98,73.8,98"/>
				<circle class="st5" cx="73.8" cy="98.3" r="0.3"/>
				<path class="st4" d="M73.8,94.4c-0.2,0-0.3,0.2-0.3,0.3c0,0.2,0.2,0.3,0.3,0.3c0.2,0,0.3-0.2,0.3-0.3
					C74.1,94.6,74,94.4,73.8,94.4"/>
				<circle class="st5" cx="73.8" cy="94.8" r="0.3"/>
				<path class="st4" d="M78.4,83.7c-0.2,0-0.3,0.2-0.3,0.3c0,0.2,0.2,0.3,0.3,0.3c0.2,0,0.3-0.2,0.3-0.3
					C78.7,83.9,78.6,83.7,78.4,83.7"/>
				<circle class="st5" cx="78.4" cy="84.1" r="0.3"/>
				<path class="st4" d="M78.4,87.3c-0.2,0-0.3,0.2-0.3,0.3c0,0.2,0.2,0.3,0.3,0.3c0.2,0,0.3-0.2,0.3-0.3
					C78.7,87.4,78.6,87.3,78.4,87.3"/>
				<circle class="st5" cx="78.4" cy="87.6" r="0.3"/>
				<path class="st4" d="M78.4,108.7c-0.2,0-0.3,0.2-0.3,0.3c0,0.2,0.2,0.3,0.3,0.3c0.2,0,0.3-0.2,0.3-0.3
					C78.7,108.9,78.6,108.7,78.4,108.7"/>
				<circle class="st5" cx="78.4" cy="109.1" r="0.3"/>
				<path class="st4" d="M78.4,90.9c-0.2,0-0.3,0.2-0.3,0.3c0,0.2,0.2,0.3,0.3,0.3c0.2,0,0.3-0.2,0.3-0.3
					C78.7,91,78.6,90.9,78.4,90.9"/>
				<circle class="st5" cx="78.4" cy="91.2" r="0.3"/>
				<path class="st4" d="M78.4,98c-0.2,0-0.3,0.2-0.3,0.3c0,0.2,0.2,0.3,0.3,0.3c0.2,0,0.3-0.2,0.3-0.3C78.7,98.2,78.6,98,78.4,98"
					/>
				<circle class="st5" cx="78.4" cy="98.3" r="0.3"/>
				<path class="st4" d="M78.4,101.6c-0.2,0-0.3,0.2-0.3,0.3c0,0.2,0.2,0.3,0.3,0.3c0.2,0,0.3-0.2,0.3-0.3
					C78.7,101.7,78.6,101.6,78.4,101.6"/>
				<circle class="st5" cx="78.4" cy="101.9" r="0.3"/>
				<path class="st4" d="M78.4,94.4c-0.2,0-0.3,0.2-0.3,0.3c0,0.2,0.2,0.3,0.3,0.3c0.2,0,0.3-0.2,0.3-0.3
					C78.7,94.6,78.6,94.4,78.4,94.4"/>
				<circle class="st5" cx="78.4" cy="94.8" r="0.3"/>
				<path class="st4" d="M78.4,105.1c-0.2,0-0.3,0.2-0.3,0.3c0,0.2,0.2,0.3,0.3,0.3c0.2,0,0.3-0.2,0.3-0.3
					C78.7,105.3,78.6,105.1,78.4,105.1"/>
				<circle class="st5" cx="78.4" cy="105.5" r="0.3"/>
				<path class="st4" d="M83,112.3c-0.1,0-0.2,0-0.2,0.1c0,0-0.1,0.1-0.1,0.1c0.2,0,0.4,0,0.6,0c0-0.1,0-0.1-0.1-0.2
					C83.1,112.3,83.1,112.3,83,112.3"/>
				<path class="st5" d="M83,112.3c-0.1,0-0.2,0-0.2,0.1c0,0-0.1,0.1-0.1,0.1c0.2,0,0.4,0,0.6,0c0-0.1,0-0.1-0.1-0.2
					C83.1,112.3,83.1,112.3,83,112.3z"/>
				<path class="st4" d="M83,83.7c-0.2,0-0.3,0.2-0.3,0.3c0,0.2,0.2,0.3,0.3,0.3c0.2,0,0.3-0.2,0.3-0.3C83.3,83.9,83.2,83.7,83,83.7
					"/>
				<circle class="st5" cx="83" cy="84.1" r="0.3"/>
				<path class="st4" d="M83,108.7c-0.2,0-0.3,0.2-0.3,0.3c0,0.2,0.2,0.3,0.3,0.3c0.2,0,0.3-0.2,0.3-0.3
					C83.3,108.9,83.2,108.7,83,108.7"/>
				<circle class="st5" cx="83" cy="109.1" r="0.3"/>
				<path class="st4" d="M83,105.1c-0.2,0-0.3,0.2-0.3,0.3c0,0.2,0.2,0.3,0.3,0.3c0.2,0,0.3-0.2,0.3-0.3
					C83.3,105.3,83.2,105.1,83,105.1"/>
				<circle class="st5" cx="83" cy="105.5" r="0.3"/>
				<path class="st4" d="M83,98c-0.2,0-0.3,0.2-0.3,0.3c0,0.2,0.2,0.3,0.3,0.3c0.2,0,0.3-0.2,0.3-0.3C83.3,98.2,83.2,98,83,98"/>
				<circle class="st5" cx="83" cy="98.3" r="0.3"/>
				<path class="st4" d="M83,94.4c-0.2,0-0.3,0.2-0.3,0.3c0,0.2,0.2,0.3,0.3,0.3c0.2,0,0.3-0.2,0.3-0.3C83.3,94.6,83.2,94.4,83,94.4
					"/>
				<circle class="st5" cx="83" cy="94.8" r="0.3"/>
				<path class="st4" d="M83,90.9c-0.2,0-0.3,0.2-0.3,0.3c0,0.2,0.2,0.3,0.3,0.3c0.2,0,0.3-0.2,0.3-0.3C83.3,91,83.2,90.9,83,90.9"
					/>
				<circle class="st5" cx="83" cy="91.2" r="0.3"/>
				<path class="st4" d="M83,87.3c-0.2,0-0.3,0.2-0.3,0.3c0,0.2,0.2,0.3,0.3,0.3c0.2,0,0.3-0.2,0.3-0.3C83.3,87.4,83.2,87.3,83,87.3
					"/>
				<circle class="st5" cx="83" cy="87.6" r="0.3"/>
				<path class="st4" d="M83,101.6c-0.2,0-0.3,0.2-0.3,0.3c0,0.2,0.2,0.3,0.3,0.3c0.2,0,0.3-0.2,0.3-0.3
					C83.3,101.7,83.2,101.6,83,101.6"/>
				<circle class="st5" cx="83" cy="101.9" r="0.3"/>
				<path class="st4" d="M87.6,112.3c-0.1,0-0.2,0-0.2,0.1c-0.1,0.1-0.1,0.1-0.1,0.2c0.2,0,0.4,0,0.7,0c0-0.1,0-0.1-0.1-0.2
					C87.7,112.3,87.7,112.3,87.6,112.3"/>
				<path class="st5" d="M87.6,112.3c-0.1,0-0.2,0-0.2,0.1c-0.1,0.1-0.1,0.1-0.1,0.2c0.2,0,0.4,0,0.7,0c0-0.1,0-0.1-0.1-0.2
					C87.7,112.3,87.7,112.3,87.6,112.3z"/>
				<path class="st4" d="M87.6,83.7c-0.2,0-0.3,0.2-0.3,0.3c0,0.2,0.2,0.3,0.3,0.3c0.2,0,0.3-0.2,0.3-0.3
					C87.9,83.9,87.8,83.7,87.6,83.7"/>
				<circle class="st5" cx="87.6" cy="84.1" r="0.3"/>
				<path class="st4" d="M87.6,90.9c-0.2,0-0.3,0.2-0.3,0.3c0,0.2,0.2,0.3,0.3,0.3c0.2,0,0.3-0.2,0.3-0.3
					C87.9,91,87.8,90.9,87.6,90.9"/>
				<circle class="st5" cx="87.6" cy="91.2" r="0.3"/>
				<path class="st4" d="M87.6,94.4c-0.2,0-0.3,0.2-0.3,0.3c0,0.2,0.2,0.3,0.3,0.3c0.2,0,0.3-0.2,0.3-0.3
					C87.9,94.6,87.8,94.4,87.6,94.4"/>
				<circle class="st5" cx="87.6" cy="94.8" r="0.3"/>
				<path class="st4" d="M87.6,98c-0.2,0-0.3,0.2-0.3,0.3c0,0.2,0.2,0.3,0.3,0.3c0.2,0,0.3-0.2,0.3-0.3C87.9,98.2,87.8,98,87.6,98"
					/>
				<circle class="st5" cx="87.6" cy="98.3" r="0.3"/>
				<path class="st4" d="M87.6,101.6c-0.2,0-0.3,0.2-0.3,0.3c0,0.2,0.2,0.3,0.3,0.3c0.2,0,0.3-0.2,0.3-0.3
					C87.9,101.7,87.8,101.6,87.6,101.6"/>
				<circle class="st5" cx="87.6" cy="101.9" r="0.3"/>
				<path class="st4" d="M87.6,87.3c-0.2,0-0.3,0.2-0.3,0.3c0,0.2,0.2,0.3,0.3,0.3c0.2,0,0.3-0.2,0.3-0.3
					C87.9,87.4,87.8,87.3,87.6,87.3"/>
				<circle class="st5" cx="87.6" cy="87.6" r="0.3"/>
				<path class="st4" d="M87.6,105.1c-0.2,0-0.3,0.2-0.3,0.3c0,0.2,0.2,0.3,0.3,0.3c0.2,0,0.3-0.2,0.3-0.3
					C87.9,105.3,87.8,105.1,87.6,105.1"/>
				<circle class="st5" cx="87.6" cy="105.5" r="0.3"/>
				<path class="st4" d="M87.6,108.7c-0.2,0-0.3,0.2-0.3,0.3c0,0.2,0.2,0.3,0.3,0.3c0.2,0,0.3-0.2,0.3-0.3
					C87.9,108.9,87.8,108.7,87.6,108.7"/>
				<circle class="st5" cx="87.6" cy="109.1" r="0.3"/>
				<path class="st4" d="M92.2,83.7c-0.2,0-0.3,0.2-0.3,0.3c0,0.2,0.2,0.3,0.3,0.3c0.2,0,0.3-0.2,0.3-0.3
					C92.5,83.9,92.4,83.7,92.2,83.7"/>
				<circle class="st5" cx="92.2" cy="84.1" r="0.3"/>
				<path class="st4" d="M92.2,87.3c-0.2,0-0.3,0.2-0.3,0.3c0,0.2,0.2,0.3,0.3,0.3c0.2,0,0.3-0.2,0.3-0.3
					C92.5,87.4,92.4,87.3,92.2,87.3"/>
				<circle class="st5" cx="92.2" cy="87.6" r="0.3"/>
				<path class="st4" d="M92.2,101.6c-0.2,0-0.3,0.2-0.3,0.3c0,0.2,0.2,0.3,0.3,0.3c0.2,0,0.3-0.2,0.3-0.3
					C92.5,101.7,92.4,101.6,92.2,101.6"/>
				<circle class="st5" cx="92.2" cy="101.9" r="0.3"/>
				<path class="st4" d="M92.2,108.7c-0.2,0-0.3,0.2-0.3,0.3c0,0.2,0.2,0.3,0.3,0.3c0.2,0,0.3-0.2,0.3-0.3
					C92.5,108.9,92.4,108.7,92.2,108.7"/>
				<circle class="st5" cx="92.2" cy="109.1" r="0.3"/>
				<path class="st4" d="M92.2,90.9c-0.2,0-0.3,0.2-0.3,0.3c0,0.2,0.2,0.3,0.3,0.3c0.2,0,0.3-0.2,0.3-0.3
					C92.5,91,92.4,90.9,92.2,90.9"/>
				<circle class="st5" cx="92.2" cy="91.2" r="0.3"/>
				<path class="st4" d="M92.2,105.1c-0.2,0-0.3,0.2-0.3,0.3c0,0.2,0.2,0.3,0.3,0.3c0.2,0,0.3-0.2,0.3-0.3
					C92.5,105.3,92.4,105.1,92.2,105.1"/>
				<circle class="st5" cx="92.2" cy="105.5" r="0.3"/>
				<path class="st4" d="M92.2,98c-0.2,0-0.3,0.2-0.3,0.3c0,0.2,0.2,0.3,0.3,0.3c0.2,0,0.3-0.2,0.3-0.3C92.5,98.2,92.4,98,92.2,98"
					/>
				<circle class="st5" cx="92.2" cy="98.3" r="0.3"/>
				<path class="st4" d="M92.2,94.4c-0.2,0-0.3,0.2-0.3,0.3c0,0.2,0.2,0.3,0.3,0.3c0.2,0,0.3-0.2,0.3-0.3
					C92.5,94.6,92.4,94.4,92.2,94.4"/>
				<circle class="st5" cx="92.2" cy="94.8" r="0.3"/>
				<path class="st4" d="M96.8,108.7c-0.2,0-0.3,0.2-0.3,0.3c0,0.2,0.2,0.3,0.3,0.3c0.2,0,0.3-0.2,0.3-0.3
					C97.1,108.9,96.9,108.7,96.8,108.7"/>
				<circle class="st5" cx="96.8" cy="109.1" r="0.3"/>
				<path class="st4" d="M96.8,98c-0.2,0-0.3,0.2-0.3,0.3c0,0.2,0.2,0.3,0.3,0.3c0.2,0,0.3-0.2,0.3-0.3C97.1,98.2,96.9,98,96.8,98"
					/>
				<circle class="st5" cx="96.8" cy="98.3" r="0.3"/>
				<path class="st4" d="M96.8,101.6c-0.2,0-0.3,0.2-0.3,0.3c0,0.2,0.2,0.3,0.3,0.3c0.2,0,0.3-0.2,0.3-0.3
					C97.1,101.7,96.9,101.6,96.8,101.6"/>
				<circle class="st5" cx="96.8" cy="101.9" r="0.3"/>
				<path class="st4" d="M96.8,105.1c-0.2,0-0.3,0.2-0.3,0.3c0,0.2,0.2,0.3,0.3,0.3c0.2,0,0.3-0.2,0.3-0.3
					C97.1,105.3,96.9,105.1,96.8,105.1"/>
				<circle class="st5" cx="96.8" cy="105.5" r="0.3"/>
				<path class="st4" d="M96.8,87.3c-0.2,0-0.3,0.2-0.3,0.3c0,0.2,0.2,0.3,0.3,0.3c0.2,0,0.3-0.2,0.3-0.3
					C97.1,87.4,96.9,87.3,96.8,87.3"/>
				<circle class="st5" cx="96.8" cy="87.6" r="0.3"/>
				<path class="st4" d="M96.8,90.9c-0.2,0-0.3,0.2-0.3,0.3c0,0.2,0.2,0.3,0.3,0.3c0.2,0,0.3-0.2,0.3-0.3
					C97.1,91,96.9,90.9,96.8,90.9"/>
				<circle class="st5" cx="96.8" cy="91.2" r="0.3"/>
				<path class="st4" d="M96.8,94.4c-0.2,0-0.3,0.2-0.3,0.3c0,0.2,0.2,0.3,0.3,0.3c0.2,0,0.3-0.2,0.3-0.3
					C97.1,94.6,96.9,94.4,96.8,94.4"/>
				<circle class="st5" cx="96.8" cy="94.8" r="0.3"/>
				<path class="st4" d="M96.8,83.7c-0.2,0-0.3,0.2-0.3,0.3c0,0.2,0.2,0.3,0.3,0.3c0.2,0,0.3-0.2,0.3-0.3
					C97.1,83.9,96.9,83.7,96.8,83.7"/>
				<circle class="st5" cx="96.8" cy="84.1" r="0.3"/>
				<path class="st4" d="M101.4,87.3c-0.2,0-0.3,0.2-0.3,0.3c0,0.2,0.2,0.3,0.3,0.3c0.2,0,0.3-0.2,0.3-0.3
					C101.7,87.4,101.5,87.3,101.4,87.3"/>
				<circle class="st5" cx="101.4" cy="87.6" r="0.3"/>
				<path class="st4" d="M101.4,83.7c-0.2,0-0.3,0.2-0.3,0.3c0,0.2,0.2,0.3,0.3,0.3c0.2,0,0.3-0.2,0.3-0.3
					C101.7,83.9,101.5,83.7,101.4,83.7"/>
				<circle class="st5" cx="101.4" cy="84.1" r="0.3"/>
				<path class="st4" d="M101.4,94.4c-0.2,0-0.3,0.2-0.3,0.3c0,0.2,0.2,0.3,0.3,0.3c0.2,0,0.3-0.2,0.3-0.3
					C101.7,94.6,101.5,94.4,101.4,94.4"/>
				<circle class="st5" cx="101.4" cy="94.8" r="0.3"/>
				<path class="st4" d="M101.4,90.9c-0.2,0-0.3,0.2-0.3,0.3c0,0.2,0.2,0.3,0.3,0.3c0.2,0,0.3-0.2,0.3-0.3
					C101.7,91,101.5,90.9,101.4,90.9"/>
				<circle class="st5" cx="101.4" cy="91.2" r="0.3"/>
				<path class="st4" d="M101.4,98c-0.2,0-0.3,0.2-0.3,0.3c0,0.2,0.2,0.3,0.3,0.3c0.2,0,0.3-0.2,0.3-0.3
					C101.7,98.2,101.5,98,101.4,98"/>
				<circle class="st5" cx="101.4" cy="98.3" r="0.3"/>
				<path class="st4" d="M101.4,105.1c-0.2,0-0.3,0.2-0.3,0.3c0,0.2,0.2,0.3,0.3,0.3c0.2,0,0.3-0.2,0.3-0.3
					C101.7,105.3,101.5,105.1,101.4,105.1"/>
				<circle class="st5" cx="101.4" cy="105.5" r="0.3"/>
				<path class="st4" d="M101,109.1C101,109.1,101,109.1,101,109.1c0.2,0,0.4-0.1,0.6-0.2c-0.1-0.1-0.1-0.1-0.2-0.1
					C101.2,108.7,101,108.9,101,109.1"/>
				<path class="st5" d="M101,109.1C101,109.1,101,109.1,101,109.1c0.2,0,0.4-0.1,0.6-0.2c-0.1-0.1-0.1-0.1-0.2-0.1
					C101.2,108.7,101,108.9,101,109.1z"/>
				<path class="st4" d="M101.4,101.6c-0.2,0-0.3,0.2-0.3,0.3c0,0.2,0.2,0.3,0.3,0.3c0.2,0,0.3-0.2,0.3-0.3
					C101.7,101.7,101.5,101.6,101.4,101.6"/>
				<circle class="st5" cx="101.4" cy="101.9" r="0.3"/>
				<path class="st4" d="M106,98c-0.2,0-0.3,0.2-0.3,0.3c0,0.2,0.2,0.3,0.3,0.3c0.2,0,0.3-0.2,0.3-0.3C106.3,98.2,106.1,98,106,98"
					/>
				<circle class="st5" cx="106" cy="98.3" r="0.3"/>
				<path class="st4" d="M106,90.9c-0.2,0-0.3,0.2-0.3,0.3c0,0.2,0.2,0.3,0.3,0.3c0.2,0,0.3-0.2,0.3-0.3
					C106.3,91,106.1,90.9,106,90.9"/>
				<circle class="st5" cx="106" cy="91.2" r="0.3"/>
				<path class="st4" d="M106,101.6c-0.2,0-0.3,0.2-0.3,0.3c0,0.2,0.2,0.3,0.3,0.3c0.2,0,0.3-0.2,0.3-0.3
					C106.3,101.7,106.1,101.6,106,101.6"/>
				<circle class="st5" cx="106" cy="101.9" r="0.3"/>
				<path class="st4" d="M106,105.1c-0.2,0-0.3,0.2-0.3,0.3c0,0.2,0.2,0.3,0.3,0.3c0.2,0,0.3-0.2,0.3-0.3
					C106.3,105.3,106.1,105.1,106,105.1"/>
				<circle class="st5" cx="106" cy="105.5" r="0.3"/>
				<path class="st4" d="M106,94.4c-0.2,0-0.3,0.2-0.3,0.3c0,0.2,0.2,0.3,0.3,0.3c0.2,0,0.3-0.2,0.3-0.3
					C106.3,94.6,106.1,94.4,106,94.4"/>
				<circle class="st5" cx="106" cy="94.8" r="0.3"/>
				<path class="st4" d="M106,83.7c-0.2,0-0.3,0.2-0.3,0.3c0,0.2,0.2,0.3,0.3,0.3c0.2,0,0.3-0.2,0.3-0.3
					C106.3,83.9,106.1,83.7,106,83.7"/>
				<circle class="st5" cx="106" cy="84.1" r="0.3"/>
				<path class="st4" d="M106,87.3c-0.2,0-0.3,0.2-0.3,0.3c0,0.2,0.2,0.3,0.3,0.3c0.2,0,0.3-0.2,0.3-0.3
					C106.3,87.4,106.1,87.3,106,87.3"/>
				<circle class="st5" cx="106" cy="87.6" r="0.3"/>
				<path class="st4" d="M110.6,83.7c-0.2,0-0.3,0.2-0.3,0.3c0,0.2,0.2,0.3,0.3,0.3c0.2,0,0.3-0.2,0.3-0.3
					C110.9,83.9,110.7,83.7,110.6,83.7"/>
				<circle class="st5" cx="110.6" cy="84.1" r="0.3"/>
				<path class="st4" d="M110.6,94.4c-0.2,0-0.3,0.2-0.3,0.3c0,0.2,0.2,0.3,0.3,0.3c0.2,0,0.3-0.2,0.3-0.3
					C110.9,94.6,110.7,94.4,110.6,94.4"/>
				<circle class="st5" cx="110.6" cy="94.8" r="0.3"/>
				<path class="st4" d="M110.6,101.6c-0.2,0-0.3,0.2-0.3,0.3c0,0.2,0.2,0.3,0.3,0.3c0.2,0,0.3-0.2,0.3-0.3
					C110.9,101.7,110.7,101.6,110.6,101.6"/>
				<circle class="st5" cx="110.6" cy="101.9" r="0.3"/>
				<path class="st4" d="M110.6,98c-0.2,0-0.3,0.2-0.3,0.3c0,0.2,0.2,0.3,0.3,0.3c0.2,0,0.3-0.2,0.3-0.3
					C110.9,98.2,110.7,98,110.6,98"/>
				<circle class="st5" cx="110.6" cy="98.3" r="0.3"/>
				<path class="st4" d="M110.6,87.3c-0.2,0-0.3,0.2-0.3,0.3c0,0.2,0.2,0.3,0.3,0.3c0.2,0,0.3-0.2,0.3-0.3
					C110.9,87.4,110.7,87.3,110.6,87.3"/>
				<circle class="st5" cx="110.6" cy="87.6" r="0.3"/>
				<path class="st4" d="M110.6,90.9c-0.2,0-0.3,0.2-0.3,0.3c0,0.2,0.2,0.3,0.3,0.3c0.2,0,0.3-0.2,0.3-0.3
					C110.9,91,110.7,90.9,110.6,90.9"/>
				<circle class="st5" cx="110.6" cy="91.2" r="0.3"/>
				<path class="st4" d="M115.1,87.3c-0.2,0-0.3,0.2-0.3,0.3c0,0.2,0.2,0.3,0.3,0.3c0.2,0,0.3-0.2,0.3-0.3
					C115.5,87.4,115.3,87.3,115.1,87.3"/>
				<circle class="st5" cx="115.1" cy="87.6" r="0.3"/>
				<path class="st4" d="M115.1,94.4c-0.2,0-0.3,0.2-0.3,0.3c0,0.2,0.2,0.3,0.3,0.3c0.2,0,0.3-0.2,0.3-0.3
					C115.5,94.6,115.3,94.4,115.1,94.4"/>
				<circle class="st5" cx="115.1" cy="94.8" r="0.3"/>
				<path class="st4" d="M115.1,90.9c-0.2,0-0.3,0.2-0.3,0.3c0,0.2,0.2,0.3,0.3,0.3c0.2,0,0.3-0.2,0.3-0.3
					C115.5,91,115.3,90.9,115.1,90.9"/>
				<circle class="st5" cx="115.1" cy="91.2" r="0.3"/>
				<path class="st4" d="M115.1,83.7c-0.2,0-0.3,0.2-0.3,0.3c0,0.2,0.2,0.3,0.3,0.3c0.2,0,0.3-0.2,0.3-0.3
					C115.5,83.9,115.3,83.7,115.1,83.7"/>
				<circle class="st5" cx="115.1" cy="84.1" r="0.3"/>
				<path class="st4" d="M119.7,83.7c-0.2,0-0.3,0.2-0.3,0.3c0,0.2,0.2,0.3,0.3,0.3c0.2,0,0.3-0.2,0.3-0.3
					C120.1,83.9,119.9,83.7,119.7,83.7"/>
				<circle class="st5" cx="119.7" cy="84.1" r="0.3"/>
				<path class="st4" d="M119.4,87.6c0,0.1,0.1,0.2,0.1,0.3c0.1-0.2,0.1-0.4,0.2-0.6C119.6,87.3,119.4,87.4,119.4,87.6"/>
				<path class="st5" d="M119.4,87.6c0,0.1,0.1,0.2,0.1,0.3c0.1-0.2,0.1-0.4,0.2-0.6C119.6,87.3,119.4,87.4,119.4,87.6z"/>
			</g>
		</g>
	</g>
</g>
</svg>
