<?xml version="1.0" encoding="utf-8"?>
<!-- Generator: Adobe Illustrator 19.0.0, SVG Export Plug-In . SVG Version: 6.00 Build 0)  -->
<svg version="1.1" id="Layer_1" xmlns="http://www.w3.org/2000/svg" xmlns:xlink="http://www.w3.org/1999/xlink" x="0px" y="0px"
	 viewBox="0 0 127.2 97.2" style="enable-background:new 0 0 127.2 97.2;" xml:space="preserve">
<style type="text/css">
	.st0{clip-path:url(#SVGID_2_);}
	.st1{opacity:0.42;clip-path:url(#SVGID_4_);}
	.st2{clip-path:url(#SVGID_6_);fill:#FFFFFF;}
	.st3{clip-path:url(#SVGID_6_);fill:none;stroke:#FFFFFF;stroke-miterlimit:10;}
	.st4{fill:#FFFFFF;}
	.st5{clip-path:url(#SVGID_8_);}
</style>
<g>
	<defs>
		<rect id="SVGID_1_" width="127.2" height="97.2"/>
	</defs>
	<clipPath id="SVGID_2_">
		<use xlink:href="#SVGID_1_"  style="overflow:visible;"/>
	</clipPath>
	<g class="st0">
		<defs>
			<rect id="SVGID_3_" width="127.2" height="97.2"/>
		</defs>
		<clipPath id="SVGID_4_">
			<use xlink:href="#SVGID_3_"  style="overflow:visible;"/>
		</clipPath>
		<g class="st1">
			<g>
				<defs>
					<rect id="SVGID_5_" width="70.6" height="76"/>
				</defs>
				<clipPath id="SVGID_6_">
					<use xlink:href="#SVGID_5_"  style="overflow:visible;"/>
				</clipPath>
				<path class="st2" d="M0.8,39.4c-0.2,0-0.3,0.2-0.3,0.3c0,0.2,0.2,0.3,0.3,0.3s0.3-0.2,0.3-0.3C1.2,39.6,1,39.4,0.8,39.4"/>
				<circle class="st3" cx="0.8" cy="39.8" r="0.3"/>
				<path class="st2" d="M0.8,35.9c-0.2,0-0.3,0.2-0.3,0.3s0.2,0.3,0.3,0.3s0.3-0.2,0.3-0.3S1,35.9,0.8,35.9"/>
				<circle class="st3" cx="0.8" cy="36.2" r="0.3"/>
				<path class="st2" d="M0.8,28.7c-0.1,0-0.2,0-0.2,0.1c0,0.1,0,0.2-0.1,0.3c0,0.1,0.2,0.2,0.3,0.2c0.2,0,0.3-0.2,0.3-0.3
					C1.2,28.9,1,28.7,0.8,28.7"/>
				<path class="st3" d="M0.8,28.7c-0.1,0-0.2,0-0.2,0.1c0,0.1,0,0.2-0.1,0.3c0,0.1,0.2,0.2,0.3,0.2c0.2,0,0.3-0.2,0.3-0.3
					C1.2,28.9,1,28.7,0.8,28.7z"/>
				<path class="st2" d="M0.8,32.3C0.8,32.3,0.8,32.3,0.8,32.3C0.8,32.3,0.8,32.3,0.8,32.3c-0.1,0-0.1,0-0.1,0c0,0,0,0,0,0
					c0,0,0,0-0.1,0c0,0,0,0,0,0c-0.1,0.1-0.1,0.2-0.1,0.3c0,0.1,0,0.2,0.1,0.3c0,0,0,0,0,0c0,0,0.1,0,0.1,0c0,0,0,0,0,0
					c0,0,0.1,0,0.1,0h0c0.2,0,0.3-0.2,0.3-0.3C1.2,32.4,1,32.3,0.8,32.3"/>
				<path class="st3" d="M0.8,32.3C0.8,32.3,0.8,32.3,0.8,32.3C0.8,32.3,0.8,32.3,0.8,32.3c-0.1,0-0.1,0-0.1,0c0,0,0,0,0,0
					c0,0,0,0-0.1,0c0,0,0,0,0,0c-0.1,0.1-0.1,0.2-0.1,0.3c0,0.1,0,0.2,0.1,0.3c0,0,0,0,0,0c0,0,0.1,0,0.1,0c0,0,0,0,0,0
					c0,0,0.1,0,0.1,0h0c0.2,0,0.3-0.2,0.3-0.3C1.2,32.4,1,32.3,0.8,32.3z"/>
				<path class="st2" d="M0.8,43L0.8,43c0,0-0.1,0-0.1,0c0,0,0,0,0,0c0,0-0.1,0-0.1,0c0,0,0,0,0,0c-0.1,0.1-0.1,0.2-0.1,0.3
					c0,0.1,0,0.2,0.1,0.3c0,0,0,0,0,0c0,0,0,0,0.1,0c0,0,0,0,0,0c0,0,0,0,0.1,0c0,0,0,0,0,0c0,0,0.1,0,0.1,0c0.2,0,0.3-0.2,0.3-0.3
					S1,43,0.8,43"/>
				<path class="st3" d="M0.8,43L0.8,43c0,0-0.1,0-0.1,0c0,0,0,0,0,0c0,0-0.1,0-0.1,0c0,0,0,0,0,0c-0.1,0.1-0.1,0.2-0.1,0.3
					c0,0.1,0,0.2,0.1,0.3c0,0,0,0,0,0c0,0,0,0,0.1,0c0,0,0,0,0,0c0,0,0,0,0.1,0c0,0,0,0,0,0c0,0,0.1,0,0.1,0c0.2,0,0.3-0.2,0.3-0.3
					S1,43,0.8,43z"/>
				<path class="st2" d="M5.4,21.6c-0.2,0-0.3,0.2-0.3,0.3c0,0.2,0.2,0.3,0.3,0.3c0.2,0,0.3-0.2,0.3-0.3C5.8,21.7,5.6,21.6,5.4,21.6
					"/>
				<circle class="st3" cx="5.4" cy="21.9" r="0.3"/>
				<path class="st2" d="M5.4,25.1c-0.2,0-0.3,0.2-0.3,0.3c0,0.2,0.2,0.3,0.3,0.3c0.2,0,0.3-0.2,0.3-0.3C5.8,25.3,5.6,25.1,5.4,25.1
					"/>
				<circle class="st3" cx="5.4" cy="25.5" r="0.3"/>
				<path class="st2" d="M5.4,18c-0.2,0-0.3,0.2-0.3,0.3c0,0.2,0.2,0.3,0.3,0.3c0.2,0,0.3-0.2,0.3-0.3C5.8,18.2,5.6,18,5.4,18"/>
				<circle class="st3" cx="5.4" cy="18.3" r="0.3"/>
				<path class="st2" d="M5.4,39.4c-0.2,0-0.3,0.2-0.3,0.3c0,0.2,0.2,0.3,0.3,0.3c0.2,0,0.3-0.2,0.3-0.3C5.8,39.6,5.6,39.4,5.4,39.4
					"/>
				<circle class="st3" cx="5.4" cy="39.8" r="0.3"/>
				<path class="st2" d="M5.4,43c-0.2,0-0.3,0.2-0.3,0.3s0.2,0.3,0.3,0.3c0.2,0,0.3-0.2,0.3-0.3S5.6,43,5.4,43"/>
				<circle class="st3" cx="5.4" cy="43.3" r="0.3"/>
				<path class="st2" d="M5.4,28.7c-0.2,0-0.3,0.2-0.3,0.3c0,0.2,0.2,0.3,0.3,0.3c0.2,0,0.3-0.2,0.3-0.3C5.8,28.9,5.6,28.7,5.4,28.7
					"/>
				<circle class="st3" cx="5.4" cy="29.1" r="0.3"/>
				<path class="st2" d="M5.4,35.9c-0.2,0-0.3,0.2-0.3,0.3s0.2,0.3,0.3,0.3c0.2,0,0.3-0.2,0.3-0.3S5.6,35.9,5.4,35.9"/>
				<circle class="st3" cx="5.4" cy="36.2" r="0.3"/>
				<path class="st2" d="M5.4,32.3c-0.2,0-0.3,0.2-0.3,0.3c0,0.2,0.2,0.3,0.3,0.3c0.2,0,0.3-0.2,0.3-0.3C5.8,32.4,5.6,32.3,5.4,32.3
					"/>
				<circle class="st3" cx="5.4" cy="32.6" r="0.3"/>
				<path class="st2" d="M10,28.7c-0.2,0-0.3,0.2-0.3,0.3c0,0.2,0.2,0.3,0.3,0.3c0.2,0,0.3-0.2,0.3-0.3C10.4,28.9,10.2,28.7,10,28.7
					"/>
				<circle class="st3" cx="10" cy="29.1" r="0.3"/>
				<path class="st2" d="M10,35.9c-0.2,0-0.3,0.2-0.3,0.3s0.2,0.3,0.3,0.3c0.2,0,0.3-0.2,0.3-0.3S10.2,35.9,10,35.9"/>
				<circle class="st3" cx="10" cy="36.2" r="0.3"/>
				<path class="st2" d="M10,32.3c-0.2,0-0.3,0.2-0.3,0.3c0,0.2,0.2,0.3,0.3,0.3c0.2,0,0.3-0.2,0.3-0.3C10.4,32.4,10.2,32.3,10,32.3
					"/>
				<circle class="st3" cx="10" cy="32.6" r="0.3"/>
				<path class="st2" d="M10,18c-0.2,0-0.3,0.2-0.3,0.3c0,0.2,0.2,0.3,0.3,0.3c0.2,0,0.3-0.2,0.3-0.3C10.4,18.2,10.2,18,10,18"/>
				<circle class="st3" cx="10" cy="18.3" r="0.3"/>
				<path class="st2" d="M10,25.1c-0.2,0-0.3,0.2-0.3,0.3c0,0.2,0.2,0.3,0.3,0.3c0.2,0,0.3-0.2,0.3-0.3C10.4,25.3,10.2,25.1,10,25.1
					"/>
				<circle class="st3" cx="10" cy="25.5" r="0.3"/>
				<path class="st2" d="M10,39.4c-0.2,0-0.3,0.2-0.3,0.3c0,0.2,0.2,0.3,0.3,0.3c0.2,0,0.3-0.2,0.3-0.3C10.4,39.6,10.2,39.4,10,39.4
					"/>
				<circle class="st3" cx="10" cy="39.8" r="0.3"/>
				<path class="st2" d="M10,21.6c-0.2,0-0.3,0.2-0.3,0.3c0,0.2,0.2,0.3,0.3,0.3c0.2,0,0.3-0.2,0.3-0.3C10.4,21.7,10.2,21.6,10,21.6
					"/>
				<circle class="st3" cx="10" cy="21.9" r="0.3"/>
				<path class="st2" d="M9.8,11.5c0.1,0.1,0.1,0.1,0.2,0.1c0.2,0,0.3-0.2,0.3-0.3c0-0.1,0-0.2-0.1-0.2C10.1,11.1,10,11.3,9.8,11.5"
					/>
				<path class="st3" d="M9.8,11.5c0.1,0.1,0.1,0.1,0.2,0.1c0.2,0,0.3-0.2,0.3-0.3c0-0.1,0-0.2-0.1-0.2C10.1,11.1,10,11.3,9.8,11.5z
					"/>
				<path class="st2" d="M10,14.4c-0.2,0-0.3,0.2-0.3,0.3c0,0.2,0.2,0.3,0.3,0.3c0.2,0,0.3-0.2,0.3-0.3C10.4,14.6,10.2,14.4,10,14.4
					"/>
				<circle class="st3" cx="10" cy="14.8" r="0.3"/>
				<path class="st2" d="M10,43c-0.2,0-0.3,0.2-0.3,0.3s0.2,0.3,0.3,0.3c0.2,0,0.3-0.2,0.3-0.3S10.2,43,10,43"/>
				<circle class="st3" cx="10" cy="43.3" r="0.3"/>
				<path class="st2" d="M14.6,28.7c-0.2,0-0.3,0.2-0.3,0.3c0,0.2,0.2,0.3,0.3,0.3c0.2,0,0.3-0.2,0.3-0.3
					C15,28.9,14.8,28.7,14.6,28.7"/>
				<circle class="st3" cx="14.6" cy="29.1" r="0.3"/>
				<path class="st2" d="M14.6,35.9c-0.2,0-0.3,0.2-0.3,0.3s0.2,0.3,0.3,0.3c0.2,0,0.3-0.2,0.3-0.3S14.8,35.9,14.6,35.9"/>
				<circle class="st3" cx="14.6" cy="36.2" r="0.3"/>
				<path class="st2" d="M14.6,32.3c-0.2,0-0.3,0.2-0.3,0.3c0,0.2,0.2,0.3,0.3,0.3c0.2,0,0.3-0.2,0.3-0.3
					C15,32.4,14.8,32.3,14.6,32.3"/>
				<circle class="st3" cx="14.6" cy="32.6" r="0.3"/>
				<path class="st2" d="M14.6,21.6c-0.2,0-0.3,0.2-0.3,0.3c0,0.2,0.2,0.3,0.3,0.3c0.2,0,0.3-0.2,0.3-0.3
					C15,21.7,14.8,21.6,14.6,21.6"/>
				<circle class="st3" cx="14.6" cy="21.9" r="0.3"/>
				<path class="st2" d="M14.6,10.9c-0.2,0-0.3,0.2-0.3,0.3c0,0.2,0.2,0.3,0.3,0.3c0.2,0,0.3-0.2,0.3-0.3C15,11,14.8,10.9,14.6,10.9
					"/>
				<circle class="st3" cx="14.6" cy="11.2" r="0.3"/>
				<path class="st2" d="M14.6,14.4c-0.2,0-0.3,0.2-0.3,0.3c0,0.2,0.2,0.3,0.3,0.3c0.2,0,0.3-0.2,0.3-0.3
					C15,14.6,14.8,14.4,14.6,14.4"/>
				<circle class="st3" cx="14.6" cy="14.8" r="0.3"/>
				<path class="st2" d="M14.6,18c-0.2,0-0.3,0.2-0.3,0.3c0,0.2,0.2,0.3,0.3,0.3c0.2,0,0.3-0.2,0.3-0.3C15,18.2,14.8,18,14.6,18"/>
				<circle class="st3" cx="14.6" cy="18.3" r="0.3"/>
				<path class="st2" d="M14.6,25.1c-0.2,0-0.3,0.2-0.3,0.3c0,0.2,0.2,0.3,0.3,0.3c0.2,0,0.3-0.2,0.3-0.3
					C15,25.3,14.8,25.1,14.6,25.1"/>
				<circle class="st3" cx="14.6" cy="25.5" r="0.3"/>
				<path class="st2" d="M14.6,43c-0.2,0-0.3,0.2-0.3,0.3s0.2,0.3,0.3,0.3c0.2,0,0.3-0.2,0.3-0.3S14.8,43,14.6,43"/>
				<circle class="st3" cx="14.6" cy="43.3" r="0.3"/>
				<path class="st2" d="M14.6,39.4c-0.2,0-0.3,0.2-0.3,0.3c0,0.2,0.2,0.3,0.3,0.3c0.2,0,0.3-0.2,0.3-0.3
					C15,39.6,14.8,39.4,14.6,39.4"/>
				<circle class="st3" cx="14.6" cy="39.8" r="0.3"/>
				<path class="st2" d="M14.6,7.3C14.6,7.3,14.6,7.3,14.6,7.3c-0.1,0.1-0.2,0.1-0.3,0.2c0,0,0,0.1,0,0.1c0,0.2,0.2,0.3,0.3,0.3
					C14.8,8,15,7.8,15,7.6C15,7.4,14.8,7.3,14.6,7.3"/>
				<path class="st3" d="M14.6,7.3C14.6,7.3,14.6,7.3,14.6,7.3c-0.1,0.1-0.2,0.1-0.3,0.2c0,0,0,0.1,0,0.1c0,0.2,0.2,0.3,0.3,0.3
					C14.8,8,15,7.8,15,7.6C15,7.4,14.8,7.3,14.6,7.3z"/>
				<path class="st2" d="M19.2,43c-0.2,0-0.3,0.2-0.3,0.3s0.2,0.3,0.3,0.3c0.2,0,0.3-0.2,0.3-0.3S19.4,43,19.2,43"/>
				<circle class="st3" cx="19.2" cy="43.3" r="0.3"/>
				<path class="st2" d="M19.2,39.4c-0.2,0-0.3,0.2-0.3,0.3c0,0.2,0.2,0.3,0.3,0.3c0.2,0,0.3-0.2,0.3-0.3
					C19.6,39.6,19.4,39.4,19.2,39.4"/>
				<circle class="st3" cx="19.2" cy="39.8" r="0.3"/>
				<path class="st2" d="M19.2,18c-0.2,0-0.3,0.2-0.3,0.3c0,0.2,0.2,0.3,0.3,0.3c0.2,0,0.3-0.2,0.3-0.3C19.6,18.2,19.4,18,19.2,18"
					/>
				<circle class="st3" cx="19.2" cy="18.3" r="0.3"/>
				<path class="st2" d="M19.2,14.4c-0.2,0-0.3,0.2-0.3,0.3c0,0.2,0.2,0.3,0.3,0.3c0.2,0,0.3-0.2,0.3-0.3
					C19.6,14.6,19.4,14.4,19.2,14.4"/>
				<circle class="st3" cx="19.2" cy="14.8" r="0.3"/>
				<path class="st2" d="M19.2,21.6c-0.2,0-0.3,0.2-0.3,0.3c0,0.2,0.2,0.3,0.3,0.3c0.2,0,0.3-0.2,0.3-0.3
					C19.6,21.7,19.4,21.6,19.2,21.6"/>
				<circle class="st3" cx="19.2" cy="21.9" r="0.3"/>
				<path class="st2" d="M19.2,35.9c-0.2,0-0.3,0.2-0.3,0.3s0.2,0.3,0.3,0.3c0.2,0,0.3-0.2,0.3-0.3S19.4,35.9,19.2,35.9"/>
				<circle class="st3" cx="19.2" cy="36.2" r="0.3"/>
				<path class="st2" d="M19.2,32.3c-0.2,0-0.3,0.2-0.3,0.3c0,0.2,0.2,0.3,0.3,0.3c0.2,0,0.3-0.2,0.3-0.3
					C19.6,32.4,19.4,32.3,19.2,32.3"/>
				<circle class="st3" cx="19.2" cy="32.6" r="0.3"/>
				<path class="st2" d="M19.2,28.7c-0.2,0-0.3,0.2-0.3,0.3c0,0.2,0.2,0.3,0.3,0.3c0.2,0,0.3-0.2,0.3-0.3
					C19.6,28.9,19.4,28.7,19.2,28.7"/>
				<circle class="st3" cx="19.2" cy="29.1" r="0.3"/>
				<path class="st2" d="M19.2,25.1c-0.2,0-0.3,0.2-0.3,0.3c0,0.2,0.2,0.3,0.3,0.3c0.2,0,0.3-0.2,0.3-0.3
					C19.6,25.3,19.4,25.1,19.2,25.1"/>
				<circle class="st3" cx="19.2" cy="25.5" r="0.3"/>
				<path class="st2" d="M19.2,10.9c-0.2,0-0.3,0.2-0.3,0.3c0,0.2,0.2,0.3,0.3,0.3c0.2,0,0.3-0.2,0.3-0.3
					C19.6,11,19.4,10.9,19.2,10.9"/>
				<circle class="st3" cx="19.2" cy="11.2" r="0.3"/>
				<path class="st2" d="M19.2,7.3c-0.2,0-0.3,0.2-0.3,0.3C18.9,7.8,19,8,19.2,8c0.2,0,0.3-0.2,0.3-0.3C19.6,7.4,19.4,7.3,19.2,7.3"
					/>
				<circle class="st3" cx="19.2" cy="7.6" r="0.3"/>
				<path class="st2" d="M23.8,39.4c-0.2,0-0.3,0.2-0.3,0.3c0,0.2,0.2,0.3,0.3,0.3c0.2,0,0.3-0.2,0.3-0.3
					C24.2,39.6,24,39.4,23.8,39.4"/>
				<circle class="st3" cx="23.8" cy="39.8" r="0.3"/>
				<path class="st2" d="M23.8,35.9c-0.2,0-0.3,0.2-0.3,0.3s0.2,0.3,0.3,0.3c0.2,0,0.3-0.2,0.3-0.3S24,35.9,23.8,35.9"/>
				<circle class="st3" cx="23.8" cy="36.2" r="0.3"/>
				<path class="st2" d="M23.8,43c-0.2,0-0.3,0.2-0.3,0.3s0.2,0.3,0.3,0.3c0.2,0,0.3-0.2,0.3-0.3S24,43,23.8,43"/>
				<circle class="st3" cx="23.8" cy="43.3" r="0.3"/>
				<path class="st2" d="M23.8,28.7c-0.2,0-0.3,0.2-0.3,0.3c0,0.2,0.2,0.3,0.3,0.3c0.2,0,0.3-0.2,0.3-0.3
					C24.2,28.9,24,28.7,23.8,28.7"/>
				<circle class="st3" cx="23.8" cy="29.1" r="0.3"/>
				<path class="st2" d="M23.8,32.3c-0.2,0-0.3,0.2-0.3,0.3c0,0.2,0.2,0.3,0.3,0.3c0.2,0,0.3-0.2,0.3-0.3
					C24.2,32.4,24,32.3,23.8,32.3"/>
				<circle class="st3" cx="23.8" cy="32.6" r="0.3"/>
				<path class="st2" d="M23.8,25.1c-0.2,0-0.3,0.2-0.3,0.3c0,0.2,0.2,0.3,0.3,0.3c0.2,0,0.3-0.2,0.3-0.3
					C24.2,25.3,24,25.1,23.8,25.1"/>
				<circle class="st3" cx="23.8" cy="25.5" r="0.3"/>
				<path class="st2" d="M23.8,10.9c-0.2,0-0.3,0.2-0.3,0.3c0,0.2,0.2,0.3,0.3,0.3c0.2,0,0.3-0.2,0.3-0.3C24.2,11,24,10.9,23.8,10.9
					"/>
				<circle class="st3" cx="23.8" cy="11.2" r="0.3"/>
				<path class="st2" d="M23.8,3.7c-0.2,0-0.3,0.2-0.3,0.3c0,0.2,0.2,0.3,0.3,0.3c0.2,0,0.3-0.2,0.3-0.3C24.2,3.9,24,3.7,23.8,3.7"
					/>
				<circle class="st3" cx="23.8" cy="4.1" r="0.3"/>
				<path class="st2" d="M23.8,7.3c-0.2,0-0.3,0.2-0.3,0.3c0,0.2,0.2,0.3,0.3,0.3c0.2,0,0.3-0.2,0.3-0.3C24.2,7.4,24,7.3,23.8,7.3"
					/>
				<circle class="st3" cx="23.8" cy="7.6" r="0.3"/>
				<path class="st2" d="M23.8,21.6c-0.2,0-0.3,0.2-0.3,0.3c0,0.2,0.2,0.3,0.3,0.3c0.2,0,0.3-0.2,0.3-0.3
					C24.2,21.7,24,21.6,23.8,21.6"/>
				<circle class="st3" cx="23.8" cy="21.9" r="0.3"/>
				<path class="st2" d="M23.8,14.4c-0.2,0-0.3,0.2-0.3,0.3c0,0.2,0.2,0.3,0.3,0.3c0.2,0,0.3-0.2,0.3-0.3
					C24.2,14.6,24,14.4,23.8,14.4"/>
				<circle class="st3" cx="23.8" cy="14.8" r="0.3"/>
				<path class="st2" d="M23.8,18c-0.2,0-0.3,0.2-0.3,0.3c0,0.2,0.2,0.3,0.3,0.3c0.2,0,0.3-0.2,0.3-0.3C24.2,18.2,24,18,23.8,18"/>
				<circle class="st3" cx="23.8" cy="18.3" r="0.3"/>
				<path class="st2" d="M28.4,28.7c-0.2,0-0.3,0.2-0.3,0.3c0,0.2,0.2,0.3,0.3,0.3c0.2,0,0.3-0.2,0.3-0.3
					C28.8,28.9,28.6,28.7,28.4,28.7"/>
				<circle class="st3" cx="28.4" cy="29.1" r="0.3"/>
				<path class="st2" d="M28.4,25.1c-0.2,0-0.3,0.2-0.3,0.3c0,0.2,0.2,0.3,0.3,0.3c0.2,0,0.3-0.2,0.3-0.3
					C28.8,25.3,28.6,25.1,28.4,25.1"/>
				<circle class="st3" cx="28.4" cy="25.5" r="0.3"/>
				<path class="st2" d="M28.4,3.7c-0.2,0-0.3,0.2-0.3,0.3c0,0.2,0.2,0.3,0.3,0.3c0.2,0,0.3-0.2,0.3-0.3C28.8,3.9,28.6,3.7,28.4,3.7
					"/>
				<circle class="st3" cx="28.4" cy="4.1" r="0.3"/>
				<path class="st2" d="M28.4,21.6c-0.2,0-0.3,0.2-0.3,0.3c0,0.2,0.2,0.3,0.3,0.3c0.2,0,0.3-0.2,0.3-0.3
					C28.8,21.7,28.6,21.6,28.4,21.6"/>
				<circle class="st3" cx="28.4" cy="21.9" r="0.3"/>
				<path class="st2" d="M28.4,35.9c-0.2,0-0.3,0.2-0.3,0.3s0.2,0.3,0.3,0.3c0.2,0,0.3-0.2,0.3-0.3S28.6,35.9,28.4,35.9"/>
				<circle class="st3" cx="28.4" cy="36.2" r="0.3"/>
				<path class="st2" d="M28.4,14.4c-0.2,0-0.3,0.2-0.3,0.3c0,0.2,0.2,0.3,0.3,0.3c0.2,0,0.3-0.2,0.3-0.3
					C28.8,14.6,28.6,14.4,28.4,14.4"/>
				<circle class="st3" cx="28.4" cy="14.8" r="0.3"/>
				<path class="st2" d="M28.4,10.9c-0.2,0-0.3,0.2-0.3,0.3c0,0.2,0.2,0.3,0.3,0.3c0.2,0,0.3-0.2,0.3-0.3
					C28.8,11,28.6,10.9,28.4,10.9"/>
				<circle class="st3" cx="28.4" cy="11.2" r="0.3"/>
				<path class="st2" d="M28.4,18c-0.2,0-0.3,0.2-0.3,0.3c0,0.2,0.2,0.3,0.3,0.3c0.2,0,0.3-0.2,0.3-0.3C28.8,18.2,28.6,18,28.4,18"
					/>
				<circle class="st3" cx="28.4" cy="18.3" r="0.3"/>
				<path class="st2" d="M28.4,39.4c-0.2,0-0.3,0.2-0.3,0.3c0,0.2,0.2,0.3,0.3,0.3c0.2,0,0.3-0.2,0.3-0.3
					C28.8,39.6,28.6,39.4,28.4,39.4"/>
				<circle class="st3" cx="28.4" cy="39.8" r="0.3"/>
				<path class="st2" d="M28.4,32.3c-0.2,0-0.3,0.2-0.3,0.3c0,0.2,0.2,0.3,0.3,0.3c0.2,0,0.3-0.2,0.3-0.3
					C28.8,32.4,28.6,32.3,28.4,32.3"/>
				<circle class="st3" cx="28.4" cy="32.6" r="0.3"/>
				<path class="st2" d="M28.4,43c-0.2,0-0.3,0.2-0.3,0.3s0.2,0.3,0.3,0.3c0.2,0,0.3-0.2,0.3-0.3S28.6,43,28.4,43"/>
				<circle class="st3" cx="28.4" cy="43.3" r="0.3"/>
				<path class="st2" d="M28.4,7.3c-0.2,0-0.3,0.2-0.3,0.3c0,0.2,0.2,0.3,0.3,0.3c0.2,0,0.3-0.2,0.3-0.3C28.8,7.4,28.6,7.3,28.4,7.3
					"/>
				<circle class="st3" cx="28.4" cy="7.6" r="0.3"/>
				<path class="st2" d="M33,0.8c0.1,0,0.2,0,0.2-0.1c0,0,0.1-0.1,0.1-0.2c-0.2,0-0.4,0-0.6,0c0,0,0,0.1,0.1,0.1
					C32.8,0.8,32.9,0.8,33,0.8"/>
				<path class="st3" d="M33,0.8c0.1,0,0.2,0,0.2-0.1c0,0,0.1-0.1,0.1-0.2c-0.2,0-0.4,0-0.6,0c0,0,0,0.1,0.1,0.1
					C32.8,0.8,32.9,0.8,33,0.8z"/>
				<path class="st2" d="M33,35.9c-0.2,0-0.3,0.2-0.3,0.3s0.2,0.3,0.3,0.3c0.2,0,0.3-0.2,0.3-0.3S33.2,35.9,33,35.9"/>
				<circle class="st3" cx="33" cy="36.2" r="0.3"/>
				<path class="st2" d="M33,32.3c-0.2,0-0.3,0.2-0.3,0.3c0,0.2,0.2,0.3,0.3,0.3c0.2,0,0.3-0.2,0.3-0.3C33.4,32.4,33.2,32.3,33,32.3
					"/>
				<circle class="st3" cx="33" cy="32.6" r="0.3"/>
				<path class="st2" d="M33,28.7c-0.2,0-0.3,0.2-0.3,0.3c0,0.2,0.2,0.3,0.3,0.3c0.2,0,0.3-0.2,0.3-0.3C33.4,28.9,33.2,28.7,33,28.7
					"/>
				<circle class="st3" cx="33" cy="29.1" r="0.3"/>
				<path class="st2" d="M33,39.4c-0.2,0-0.3,0.2-0.3,0.3c0,0.2,0.2,0.3,0.3,0.3c0.2,0,0.3-0.2,0.3-0.3C33.4,39.6,33.2,39.4,33,39.4
					"/>
				<circle class="st3" cx="33" cy="39.8" r="0.3"/>
				<path class="st2" d="M33,43c-0.2,0-0.3,0.2-0.3,0.3s0.2,0.3,0.3,0.3c0.2,0,0.3-0.2,0.3-0.3S33.2,43,33,43"/>
				<circle class="st3" cx="33" cy="43.3" r="0.3"/>
				<path class="st2" d="M33,3.7c-0.2,0-0.3,0.2-0.3,0.3c0,0.2,0.2,0.3,0.3,0.3c0.2,0,0.3-0.2,0.3-0.3C33.4,3.9,33.2,3.7,33,3.7"/>
				<circle class="st3" cx="33" cy="4.1" r="0.3"/>
				<path class="st2" d="M33,7.3c-0.2,0-0.3,0.2-0.3,0.3C32.7,7.8,32.8,8,33,8c0.2,0,0.3-0.2,0.3-0.3C33.4,7.4,33.2,7.3,33,7.3"/>
				<circle class="st3" cx="33" cy="7.6" r="0.3"/>
				<path class="st2" d="M33,14.4c-0.2,0-0.3,0.2-0.3,0.3c0,0.2,0.2,0.3,0.3,0.3c0.2,0,0.3-0.2,0.3-0.3C33.4,14.6,33.2,14.4,33,14.4
					"/>
				<circle class="st3" cx="33" cy="14.8" r="0.3"/>
				<path class="st2" d="M33,18c-0.2,0-0.3,0.2-0.3,0.3c0,0.2,0.2,0.3,0.3,0.3c0.2,0,0.3-0.2,0.3-0.3C33.4,18.2,33.2,18,33,18"/>
				<circle class="st3" cx="33" cy="18.3" r="0.3"/>
				<path class="st2" d="M33,21.6c-0.2,0-0.3,0.2-0.3,0.3c0,0.2,0.2,0.3,0.3,0.3c0.2,0,0.3-0.2,0.3-0.3C33.4,21.7,33.2,21.6,33,21.6
					"/>
				<circle class="st3" cx="33" cy="21.9" r="0.3"/>
				<path class="st2" d="M33,25.1c-0.2,0-0.3,0.2-0.3,0.3c0,0.2,0.2,0.3,0.3,0.3c0.2,0,0.3-0.2,0.3-0.3C33.4,25.3,33.2,25.1,33,25.1
					"/>
				<circle class="st3" cx="33" cy="25.5" r="0.3"/>
				<path class="st2" d="M33,10.9c-0.2,0-0.3,0.2-0.3,0.3c0,0.2,0.2,0.3,0.3,0.3c0.2,0,0.3-0.2,0.3-0.3C33.4,11,33.2,10.9,33,10.9"
					/>
				<circle class="st3" cx="33" cy="11.2" r="0.3"/>
				<path class="st2" d="M37.6,0.8c0.1,0,0.2,0,0.2-0.1c0,0,0.1-0.1,0.1-0.2c-0.2,0-0.4,0-0.7,0c0,0.1,0,0.1,0.1,0.2
					C37.4,0.8,37.5,0.8,37.6,0.8"/>
				<path class="st3" d="M37.6,0.8c0.1,0,0.2,0,0.2-0.1c0,0,0.1-0.1,0.1-0.2c-0.2,0-0.4,0-0.7,0c0,0.1,0,0.1,0.1,0.2
					C37.4,0.8,37.5,0.8,37.6,0.8z"/>
				<path class="st2" d="M37.6,32.3c-0.2,0-0.3,0.2-0.3,0.3c0,0.2,0.2,0.3,0.3,0.3c0.2,0,0.3-0.2,0.3-0.3
					C37.9,32.4,37.8,32.3,37.6,32.3"/>
				<circle class="st3" cx="37.6" cy="32.6" r="0.3"/>
				<path class="st2" d="M37.6,28.7c-0.2,0-0.3,0.2-0.3,0.3c0,0.2,0.2,0.3,0.3,0.3c0.2,0,0.3-0.2,0.3-0.3
					C37.9,28.9,37.8,28.7,37.6,28.7"/>
				<circle class="st3" cx="37.6" cy="29.1" r="0.3"/>
				<path class="st2" d="M37.6,21.6c-0.2,0-0.3,0.2-0.3,0.3c0,0.2,0.2,0.3,0.3,0.3c0.2,0,0.3-0.2,0.3-0.3
					C37.9,21.7,37.8,21.6,37.6,21.6"/>
				<circle class="st3" cx="37.6" cy="21.9" r="0.3"/>
				<path class="st2" d="M37.6,18c-0.2,0-0.3,0.2-0.3,0.3c0,0.2,0.2,0.3,0.3,0.3c0.2,0,0.3-0.2,0.3-0.3C37.9,18.2,37.8,18,37.6,18"
					/>
				<circle class="st3" cx="37.6" cy="18.3" r="0.3"/>
				<path class="st2" d="M37.6,14.4c-0.2,0-0.3,0.2-0.3,0.3c0,0.2,0.2,0.3,0.3,0.3c0.2,0,0.3-0.2,0.3-0.3
					C37.9,14.6,37.8,14.4,37.6,14.4"/>
				<circle class="st3" cx="37.6" cy="14.8" r="0.3"/>
				<path class="st2" d="M37.6,39.4c-0.2,0-0.3,0.2-0.3,0.3c0,0.2,0.2,0.3,0.3,0.3c0.2,0,0.3-0.2,0.3-0.3
					C37.9,39.6,37.8,39.4,37.6,39.4"/>
				<circle class="st3" cx="37.6" cy="39.8" r="0.3"/>
				<path class="st2" d="M37.6,35.9c-0.2,0-0.3,0.2-0.3,0.3s0.2,0.3,0.3,0.3c0.2,0,0.3-0.2,0.3-0.3S37.8,35.9,37.6,35.9"/>
				<circle class="st3" cx="37.6" cy="36.2" r="0.3"/>
				<path class="st2" d="M37.6,43c-0.2,0-0.3,0.2-0.3,0.3s0.2,0.3,0.3,0.3c0.2,0,0.3-0.2,0.3-0.3S37.8,43,37.6,43"/>
				<circle class="st3" cx="37.6" cy="43.3" r="0.3"/>
				<path class="st2" d="M37.6,10.9c-0.2,0-0.3,0.2-0.3,0.3c0,0.2,0.2,0.3,0.3,0.3c0.2,0,0.3-0.2,0.3-0.3
					C37.9,11,37.8,10.9,37.6,10.9"/>
				<circle class="st3" cx="37.6" cy="11.2" r="0.3"/>
				<path class="st2" d="M37.6,25.1c-0.2,0-0.3,0.2-0.3,0.3c0,0.2,0.2,0.3,0.3,0.3c0.2,0,0.3-0.2,0.3-0.3
					C37.9,25.3,37.8,25.1,37.6,25.1"/>
				<circle class="st3" cx="37.6" cy="25.5" r="0.3"/>
				<path class="st2" d="M37.6,7.3c-0.2,0-0.3,0.2-0.3,0.3c0,0.2,0.2,0.3,0.3,0.3c0.2,0,0.3-0.2,0.3-0.3C37.9,7.4,37.8,7.3,37.6,7.3
					"/>
				<circle class="st3" cx="37.6" cy="7.6" r="0.3"/>
				<path class="st2" d="M37.6,3.7c-0.2,0-0.3,0.2-0.3,0.3c0,0.2,0.2,0.3,0.3,0.3c0.2,0,0.3-0.2,0.3-0.3C37.9,3.9,37.8,3.7,37.6,3.7
					"/>
				<circle class="st3" cx="37.6" cy="4.1" r="0.3"/>
				<path class="st2" d="M42.2,43c-0.2,0-0.3,0.2-0.3,0.3s0.2,0.3,0.3,0.3c0.2,0,0.3-0.2,0.3-0.3S42.4,43,42.2,43"/>
				<circle class="st3" cx="42.2" cy="43.3" r="0.3"/>
				<path class="st2" d="M42.2,28.7c-0.2,0-0.3,0.2-0.3,0.3c0,0.2,0.2,0.3,0.3,0.3c0.2,0,0.3-0.2,0.3-0.3
					C42.5,28.9,42.4,28.7,42.2,28.7"/>
				<circle class="st3" cx="42.2" cy="29.1" r="0.3"/>
				<path class="st2" d="M42.2,39.4c-0.2,0-0.3,0.2-0.3,0.3c0,0.2,0.2,0.3,0.3,0.3c0.2,0,0.3-0.2,0.3-0.3
					C42.5,39.6,42.4,39.4,42.2,39.4"/>
				<circle class="st3" cx="42.2" cy="39.8" r="0.3"/>
				<path class="st2" d="M42.2,32.3c-0.2,0-0.3,0.2-0.3,0.3c0,0.2,0.2,0.3,0.3,0.3c0.2,0,0.3-0.2,0.3-0.3
					C42.5,32.4,42.4,32.3,42.2,32.3"/>
				<circle class="st3" cx="42.2" cy="32.6" r="0.3"/>
				<path class="st2" d="M42.2,25.1c-0.2,0-0.3,0.2-0.3,0.3c0,0.2,0.2,0.3,0.3,0.3c0.2,0,0.3-0.2,0.3-0.3
					C42.5,25.3,42.4,25.1,42.2,25.1"/>
				<circle class="st3" cx="42.2" cy="25.5" r="0.3"/>
				<path class="st2" d="M42.2,35.9c-0.2,0-0.3,0.2-0.3,0.3s0.2,0.3,0.3,0.3c0.2,0,0.3-0.2,0.3-0.3S42.4,35.9,42.2,35.9"/>
				<circle class="st3" cx="42.2" cy="36.2" r="0.3"/>
				<path class="st2" d="M42.2,10.9c-0.2,0-0.3,0.2-0.3,0.3c0,0.2,0.2,0.3,0.3,0.3c0.2,0,0.3-0.2,0.3-0.3
					C42.5,11,42.4,10.9,42.2,10.9"/>
				<circle class="st3" cx="42.2" cy="11.2" r="0.3"/>
				<path class="st2" d="M42.2,3.7c-0.2,0-0.3,0.2-0.3,0.3c0,0.2,0.2,0.3,0.3,0.3c0.2,0,0.3-0.2,0.3-0.3C42.5,3.9,42.4,3.7,42.2,3.7
					"/>
				<circle class="st3" cx="42.2" cy="4.1" r="0.3"/>
				<path class="st2" d="M42.2,21.6c-0.2,0-0.3,0.2-0.3,0.3c0,0.2,0.2,0.3,0.3,0.3c0.2,0,0.3-0.2,0.3-0.3
					C42.5,21.7,42.4,21.6,42.2,21.6"/>
				<circle class="st3" cx="42.2" cy="21.9" r="0.3"/>
				<path class="st2" d="M42.2,7.3c-0.2,0-0.3,0.2-0.3,0.3C41.9,7.8,42,8,42.2,8c0.2,0,0.3-0.2,0.3-0.3C42.5,7.4,42.4,7.3,42.2,7.3"
					/>
				<circle class="st3" cx="42.2" cy="7.6" r="0.3"/>
				<path class="st2" d="M42.2,14.4c-0.2,0-0.3,0.2-0.3,0.3c0,0.2,0.2,0.3,0.3,0.3c0.2,0,0.3-0.2,0.3-0.3
					C42.5,14.6,42.4,14.4,42.2,14.4"/>
				<circle class="st3" cx="42.2" cy="14.8" r="0.3"/>
				<path class="st2" d="M42.2,18c-0.2,0-0.3,0.2-0.3,0.3c0,0.2,0.2,0.3,0.3,0.3c0.2,0,0.3-0.2,0.3-0.3C42.5,18.2,42.4,18,42.2,18"
					/>
				<circle class="st3" cx="42.2" cy="18.3" r="0.3"/>
				<path class="st2" d="M46.8,3.7c-0.2,0-0.3,0.2-0.3,0.3c0,0.2,0.2,0.3,0.3,0.3c0.2,0,0.3-0.2,0.3-0.3C47.1,3.9,47,3.7,46.8,3.7"
					/>
				<circle class="st3" cx="46.8" cy="4.1" r="0.3"/>
				<path class="st2" d="M46.8,14.4c-0.2,0-0.3,0.2-0.3,0.3c0,0.2,0.2,0.3,0.3,0.3c0.2,0,0.3-0.2,0.3-0.3
					C47.1,14.6,47,14.4,46.8,14.4"/>
				<circle class="st3" cx="46.8" cy="14.8" r="0.3"/>
				<path class="st2" d="M46.8,10.9c-0.2,0-0.3,0.2-0.3,0.3c0,0.2,0.2,0.3,0.3,0.3c0.2,0,0.3-0.2,0.3-0.3C47.1,11,47,10.9,46.8,10.9
					"/>
				<circle class="st3" cx="46.8" cy="11.2" r="0.3"/>
				<path class="st2" d="M46.8,7.3c-0.2,0-0.3,0.2-0.3,0.3c0,0.2,0.2,0.3,0.3,0.3c0.2,0,0.3-0.2,0.3-0.3C47.1,7.4,47,7.3,46.8,7.3"
					/>
				<circle class="st3" cx="46.8" cy="7.6" r="0.3"/>
				<path class="st2" d="M46.8,25.1c-0.2,0-0.3,0.2-0.3,0.3c0,0.2,0.2,0.3,0.3,0.3c0.2,0,0.3-0.2,0.3-0.3
					C47.1,25.3,47,25.1,46.8,25.1"/>
				<circle class="st3" cx="46.8" cy="25.5" r="0.3"/>
				<path class="st2" d="M46.8,43c-0.2,0-0.3,0.2-0.3,0.3s0.2,0.3,0.3,0.3c0.2,0,0.3-0.2,0.3-0.3S47,43,46.8,43"/>
				<circle class="st3" cx="46.8" cy="43.3" r="0.3"/>
				<path class="st2" d="M46.8,21.6c-0.2,0-0.3,0.2-0.3,0.3c0,0.2,0.2,0.3,0.3,0.3c0.2,0,0.3-0.2,0.3-0.3
					C47.1,21.7,47,21.6,46.8,21.6"/>
				<circle class="st3" cx="46.8" cy="21.9" r="0.3"/>
				<path class="st2" d="M46.8,18c-0.2,0-0.3,0.2-0.3,0.3c0,0.2,0.2,0.3,0.3,0.3c0.2,0,0.3-0.2,0.3-0.3C47.1,18.2,47,18,46.8,18"/>
				<circle class="st3" cx="46.8" cy="18.3" r="0.3"/>
				<path class="st2" d="M46.8,39.4c-0.2,0-0.3,0.2-0.3,0.3c0,0.2,0.2,0.3,0.3,0.3c0.2,0,0.3-0.2,0.3-0.3
					C47.1,39.6,47,39.4,46.8,39.4"/>
				<circle class="st3" cx="46.8" cy="39.8" r="0.3"/>
				<path class="st2" d="M46.8,35.9c-0.2,0-0.3,0.2-0.3,0.3s0.2,0.3,0.3,0.3c0.2,0,0.3-0.2,0.3-0.3S47,35.9,46.8,35.9"/>
				<circle class="st3" cx="46.8" cy="36.2" r="0.3"/>
				<path class="st2" d="M46.8,32.3c-0.2,0-0.3,0.2-0.3,0.3c0,0.2,0.2,0.3,0.3,0.3c0.2,0,0.3-0.2,0.3-0.3
					C47.1,32.4,47,32.3,46.8,32.3"/>
				<circle class="st3" cx="46.8" cy="32.6" r="0.3"/>
				<path class="st2" d="M46.8,28.7c-0.2,0-0.3,0.2-0.3,0.3c0,0.2,0.2,0.3,0.3,0.3c0.2,0,0.3-0.2,0.3-0.3
					C47.1,28.9,47,28.7,46.8,28.7"/>
				<circle class="st3" cx="46.8" cy="29.1" r="0.3"/>
				<path class="st2" d="M51.4,32.3c-0.2,0-0.3,0.2-0.3,0.3c0,0.2,0.2,0.3,0.3,0.3c0.2,0,0.3-0.2,0.3-0.3
					C51.7,32.4,51.6,32.3,51.4,32.3"/>
				<circle class="st3" cx="51.4" cy="32.6" r="0.3"/>
				<path class="st2" d="M51.4,25.1c-0.2,0-0.3,0.2-0.3,0.3c0,0.2,0.2,0.3,0.3,0.3c0.2,0,0.3-0.2,0.3-0.3
					C51.7,25.3,51.6,25.1,51.4,25.1"/>
				<circle class="st3" cx="51.4" cy="25.5" r="0.3"/>
				<path class="st2" d="M51.4,28.7c-0.2,0-0.3,0.2-0.3,0.3c0,0.2,0.2,0.3,0.3,0.3c0.2,0,0.3-0.2,0.3-0.3
					C51.7,28.9,51.6,28.7,51.4,28.7"/>
				<circle class="st3" cx="51.4" cy="29.1" r="0.3"/>
				<path class="st2" d="M51.4,18c-0.2,0-0.3,0.2-0.3,0.3c0,0.2,0.2,0.3,0.3,0.3c0.2,0,0.3-0.2,0.3-0.3C51.7,18.2,51.6,18,51.4,18"
					/>
				<circle class="st3" cx="51.4" cy="18.3" r="0.3"/>
				<path class="st2" d="M51.4,21.6c-0.2,0-0.3,0.2-0.3,0.3c0,0.2,0.2,0.3,0.3,0.3c0.2,0,0.3-0.2,0.3-0.3
					C51.7,21.7,51.6,21.6,51.4,21.6"/>
				<circle class="st3" cx="51.4" cy="21.9" r="0.3"/>
				<path class="st2" d="M51.4,14.4c-0.2,0-0.3,0.2-0.3,0.3c0,0.2,0.2,0.3,0.3,0.3c0.2,0,0.3-0.2,0.3-0.3
					C51.7,14.6,51.6,14.4,51.4,14.4"/>
				<circle class="st3" cx="51.4" cy="14.8" r="0.3"/>
				<path class="st2" d="M51.4,7.3c-0.2,0-0.3,0.2-0.3,0.3c0,0.2,0.2,0.3,0.3,0.3c0.2,0,0.3-0.2,0.3-0.3C51.7,7.4,51.6,7.3,51.4,7.3
					"/>
				<circle class="st3" cx="51.4" cy="7.6" r="0.3"/>
				<path class="st2" d="M51.4,4.4c0.1,0,0.2,0,0.2-0.1c-0.2-0.1-0.4-0.2-0.6-0.3c0,0,0,0,0,0C51.1,4.2,51.2,4.4,51.4,4.4"/>
				<path class="st3" d="M51.4,4.4c0.1,0,0.2,0,0.2-0.1c-0.2-0.1-0.4-0.2-0.6-0.3c0,0,0,0,0,0C51.1,4.2,51.2,4.4,51.4,4.4z"/>
				<path class="st2" d="M51.4,10.9c-0.2,0-0.3,0.2-0.3,0.3c0,0.2,0.2,0.3,0.3,0.3c0.2,0,0.3-0.2,0.3-0.3
					C51.7,11,51.6,10.9,51.4,10.9"/>
				<circle class="st3" cx="51.4" cy="11.2" r="0.3"/>
				<path class="st2" d="M51.4,35.9c-0.2,0-0.3,0.2-0.3,0.3s0.2,0.3,0.3,0.3c0.2,0,0.3-0.2,0.3-0.3S51.6,35.9,51.4,35.9"/>
				<circle class="st3" cx="51.4" cy="36.2" r="0.3"/>
				<path class="st2" d="M51.4,39.4c-0.2,0-0.3,0.2-0.3,0.3c0,0.2,0.2,0.3,0.3,0.3c0.2,0,0.3-0.2,0.3-0.3
					C51.7,39.6,51.6,39.4,51.4,39.4"/>
				<circle class="st3" cx="51.4" cy="39.8" r="0.3"/>
				<path class="st2" d="M51.4,43c-0.2,0-0.3,0.2-0.3,0.3s0.2,0.3,0.3,0.3c0.2,0,0.3-0.2,0.3-0.3S51.6,43,51.4,43"/>
				<circle class="st3" cx="51.4" cy="43.3" r="0.3"/>
				<path class="st2" d="M56,14.4c-0.2,0-0.3,0.2-0.3,0.3c0,0.2,0.2,0.3,0.3,0.3c0.2,0,0.3-0.2,0.3-0.3C56.3,14.6,56.2,14.4,56,14.4
					"/>
				<circle class="st3" cx="56" cy="14.8" r="0.3"/>
				<path class="st2" d="M56,43c-0.2,0-0.3,0.2-0.3,0.3s0.2,0.3,0.3,0.3c0.2,0,0.3-0.2,0.3-0.3S56.2,43,56,43"/>
				<circle class="st3" cx="56" cy="43.3" r="0.3"/>
				<path class="st2" d="M56,39.4c-0.2,0-0.3,0.2-0.3,0.3c0,0.2,0.2,0.3,0.3,0.3c0.2,0,0.3-0.2,0.3-0.3C56.3,39.6,56.2,39.4,56,39.4
					"/>
				<circle class="st3" cx="56" cy="39.8" r="0.3"/>
				<path class="st2" d="M56,21.6c-0.2,0-0.3,0.2-0.3,0.3c0,0.2,0.2,0.3,0.3,0.3c0.2,0,0.3-0.2,0.3-0.3C56.3,21.7,56.2,21.6,56,21.6
					"/>
				<circle class="st3" cx="56" cy="21.9" r="0.3"/>
				<path class="st2" d="M56,10.9c-0.2,0-0.3,0.2-0.3,0.3c0,0.2,0.2,0.3,0.3,0.3c0.2,0,0.3-0.2,0.3-0.3C56.3,11,56.2,10.9,56,10.9"
					/>
				<circle class="st3" cx="56" cy="11.2" r="0.3"/>
				<path class="st2" d="M56,35.9c-0.2,0-0.3,0.2-0.3,0.3s0.2,0.3,0.3,0.3c0.2,0,0.3-0.2,0.3-0.3S56.2,35.9,56,35.9"/>
				<circle class="st3" cx="56" cy="36.2" r="0.3"/>
				<path class="st2" d="M56,7.3c-0.2,0-0.3,0.2-0.3,0.3C55.7,7.8,55.8,8,56,8c0.2,0,0.3-0.2,0.3-0.3C56.3,7.4,56.2,7.3,56,7.3"/>
				<circle class="st3" cx="56" cy="7.6" r="0.3"/>
				<path class="st2" d="M56,18c-0.2,0-0.3,0.2-0.3,0.3c0,0.2,0.2,0.3,0.3,0.3c0.2,0,0.3-0.2,0.3-0.3C56.3,18.2,56.2,18,56,18"/>
				<circle class="st3" cx="56" cy="18.3" r="0.3"/>
				<path class="st2" d="M56,28.7c-0.2,0-0.3,0.2-0.3,0.3c0,0.2,0.2,0.3,0.3,0.3c0.2,0,0.3-0.2,0.3-0.3C56.3,28.9,56.2,28.7,56,28.7
					"/>
				<circle class="st3" cx="56" cy="29.1" r="0.3"/>
				<path class="st2" d="M56,25.1c-0.2,0-0.3,0.2-0.3,0.3c0,0.2,0.2,0.3,0.3,0.3c0.2,0,0.3-0.2,0.3-0.3C56.3,25.3,56.2,25.1,56,25.1
					"/>
				<circle class="st3" cx="56" cy="25.5" r="0.3"/>
				<path class="st2" d="M56,32.3c-0.2,0-0.3,0.2-0.3,0.3c0,0.2,0.2,0.3,0.3,0.3c0.2,0,0.3-0.2,0.3-0.3C56.3,32.4,56.2,32.3,56,32.3
					"/>
				<circle class="st3" cx="56" cy="32.6" r="0.3"/>
				<path class="st2" d="M60.6,32.3c-0.2,0-0.3,0.2-0.3,0.3c0,0.2,0.2,0.3,0.3,0.3c0.2,0,0.3-0.2,0.3-0.3
					C60.9,32.4,60.8,32.3,60.6,32.3"/>
				<circle class="st3" cx="60.6" cy="32.6" r="0.3"/>
				<path class="st2" d="M60.6,28.7c-0.2,0-0.3,0.2-0.3,0.3c0,0.2,0.2,0.3,0.3,0.3c0.2,0,0.3-0.2,0.3-0.3
					C60.9,28.9,60.8,28.7,60.6,28.7"/>
				<circle class="st3" cx="60.6" cy="29.1" r="0.3"/>
				<path class="st2" d="M60.6,18c-0.2,0-0.3,0.2-0.3,0.3c0,0.2,0.2,0.3,0.3,0.3c0.2,0,0.3-0.2,0.3-0.3C60.9,18.2,60.8,18,60.6,18"
					/>
				<circle class="st3" cx="60.6" cy="18.3" r="0.3"/>
				<path class="st2" d="M60.6,10.9c-0.2,0-0.3,0.2-0.3,0.3c0,0.2,0.2,0.3,0.3,0.3c0.2,0,0.3-0.2,0.3-0.3
					C60.9,11,60.8,10.9,60.6,10.9"/>
				<circle class="st3" cx="60.6" cy="11.2" r="0.3"/>
				<path class="st2" d="M60.6,14.4c-0.2,0-0.3,0.2-0.3,0.3c0,0.2,0.2,0.3,0.3,0.3c0.2,0,0.3-0.2,0.3-0.3
					C60.9,14.6,60.8,14.4,60.6,14.4"/>
				<circle class="st3" cx="60.6" cy="14.8" r="0.3"/>
				<path class="st2" d="M60.6,25.1c-0.2,0-0.3,0.2-0.3,0.3c0,0.2,0.2,0.3,0.3,0.3c0.2,0,0.3-0.2,0.3-0.3
					C60.9,25.3,60.8,25.1,60.6,25.1"/>
				<circle class="st3" cx="60.6" cy="25.5" r="0.3"/>
				<path class="st2" d="M60.6,43c-0.2,0-0.3,0.2-0.3,0.3s0.2,0.3,0.3,0.3c0.2,0,0.3-0.2,0.3-0.3S60.8,43,60.6,43"/>
				<circle class="st3" cx="60.6" cy="43.3" r="0.3"/>
				<path class="st2" d="M60.6,21.6c-0.2,0-0.3,0.2-0.3,0.3c0,0.2,0.2,0.3,0.3,0.3c0.2,0,0.3-0.2,0.3-0.3
					C60.9,21.7,60.8,21.6,60.6,21.6"/>
				<circle class="st3" cx="60.6" cy="21.9" r="0.3"/>
				<path class="st2" d="M60.6,39.4c-0.2,0-0.3,0.2-0.3,0.3c0,0.2,0.2,0.3,0.3,0.3c0.2,0,0.3-0.2,0.3-0.3
					C60.9,39.6,60.8,39.4,60.6,39.4"/>
				<circle class="st3" cx="60.6" cy="39.8" r="0.3"/>
				<path class="st2" d="M60.6,35.9c-0.2,0-0.3,0.2-0.3,0.3s0.2,0.3,0.3,0.3c0.2,0,0.3-0.2,0.3-0.3S60.8,35.9,60.6,35.9"/>
				<circle class="st3" cx="60.6" cy="36.2" r="0.3"/>
				<path class="st2" d="M65.2,25.1c-0.2,0-0.3,0.2-0.3,0.3c0,0.2,0.2,0.3,0.3,0.3c0.2,0,0.3-0.2,0.3-0.3
					C65.5,25.3,65.4,25.1,65.2,25.1"/>
				<circle class="st3" cx="65.2" cy="25.5" r="0.3"/>
				<path class="st2" d="M65.2,32.3c-0.2,0-0.3,0.2-0.3,0.3c0,0.2,0.2,0.3,0.3,0.3c0.2,0,0.3-0.2,0.3-0.3
					C65.5,32.4,65.4,32.3,65.2,32.3"/>
				<circle class="st3" cx="65.2" cy="32.6" r="0.3"/>
				<path class="st2" d="M65.2,43c-0.2,0-0.3,0.2-0.3,0.3s0.2,0.3,0.3,0.3c0.2,0,0.3-0.2,0.3-0.3S65.4,43,65.2,43"/>
				<circle class="st3" cx="65.2" cy="43.3" r="0.3"/>
				<path class="st2" d="M65.2,35.9c-0.2,0-0.3,0.2-0.3,0.3s0.2,0.3,0.3,0.3c0.2,0,0.3-0.2,0.3-0.3S65.4,35.9,65.2,35.9"/>
				<circle class="st3" cx="65.2" cy="36.2" r="0.3"/>
				<path class="st2" d="M65.2,18c-0.2,0-0.3,0.2-0.3,0.3c0,0.2,0.2,0.3,0.3,0.3c0.2,0,0.3-0.2,0.3-0.3C65.5,18.2,65.4,18,65.2,18"
					/>
				<circle class="st3" cx="65.2" cy="18.3" r="0.3"/>
				<path class="st2" d="M65.2,21.6c-0.2,0-0.3,0.2-0.3,0.3c0,0.2,0.2,0.3,0.3,0.3c0.2,0,0.3-0.2,0.3-0.3
					C65.5,21.7,65.4,21.6,65.2,21.6"/>
				<circle class="st3" cx="65.2" cy="21.9" r="0.3"/>
				<path class="st2" d="M65.2,28.7c-0.2,0-0.3,0.2-0.3,0.3c0,0.2,0.2,0.3,0.3,0.3c0.2,0,0.3-0.2,0.3-0.3
					C65.5,28.9,65.4,28.7,65.2,28.7"/>
				<circle class="st3" cx="65.2" cy="29.1" r="0.3"/>
				<path class="st2" d="M65.2,39.4c-0.2,0-0.3,0.2-0.3,0.3c0,0.2,0.2,0.3,0.3,0.3c0.2,0,0.3-0.2,0.3-0.3
					C65.5,39.6,65.4,39.4,65.2,39.4"/>
				<circle class="st3" cx="65.2" cy="39.8" r="0.3"/>
				<path class="st2" d="M69.8,32.3c-0.2,0-0.3,0.2-0.3,0.3c0,0.2,0.2,0.3,0.3,0.3c0.2,0,0.3-0.2,0.3-0.3
					C70.1,32.4,70,32.3,69.8,32.3"/>
				<circle class="st3" cx="69.8" cy="32.6" r="0.3"/>
				<path class="st2" d="M69.8,29.4c0.2,0,0.3-0.2,0.3-0.3c0-0.2-0.2-0.3-0.3-0.3c-0.2,0-0.3,0.2-0.3,0.3
					C69.4,29.2,69.6,29.4,69.8,29.4"/>
				<circle class="st3" cx="69.8" cy="29.1" r="0.3"/>
				<path class="st2" d="M69.8,35.9c-0.2,0-0.3,0.2-0.3,0.3s0.2,0.3,0.3,0.3c0.2,0,0.3-0.2,0.3-0.3S70,35.9,69.8,35.9"/>
				<circle class="st3" cx="69.8" cy="36.2" r="0.3"/>
				<path class="st2" d="M69.8,43c-0.2,0-0.3,0.2-0.3,0.3s0.2,0.3,0.3,0.3c0.2,0,0.3-0.2,0.3-0.3S70,43,69.8,43"/>
				<circle class="st3" cx="69.8" cy="43.3" r="0.3"/>
				<path class="st2" d="M69.8,39.4c-0.2,0-0.3,0.2-0.3,0.3c0,0.2,0.2,0.3,0.3,0.3c0.2,0,0.3-0.2,0.3-0.3
					C70.1,39.6,70,39.4,69.8,39.4"/>
				<circle class="st3" cx="69.8" cy="39.8" r="0.3"/>
				<path class="st2" d="M69.8,25.8c-0.1-0.2-0.1-0.4-0.2-0.6c-0.1,0.1-0.1,0.2-0.1,0.3C69.4,25.7,69.6,25.8,69.8,25.8"/>
				<path class="st3" d="M69.8,25.8c-0.1-0.2-0.1-0.4-0.2-0.6c-0.1,0.1-0.1,0.2-0.1,0.3C69.4,25.7,69.6,25.8,69.8,25.8z"/>
				<path class="st2" d="M0.8,46.6c-0.1,0-0.3,0.1-0.3,0.2c0,0.1,0,0.2,0.1,0.3c0.1,0.1,0.1,0.1,0.2,0.1c0.2,0,0.3-0.2,0.3-0.3
					C1.2,46.7,1,46.6,0.8,46.6"/>
				<path class="st3" d="M0.8,46.6c-0.1,0-0.3,0.1-0.3,0.2c0,0.1,0,0.2,0.1,0.3c0.1,0.1,0.1,0.1,0.2,0.1c0.2,0,0.3-0.2,0.3-0.3
					C1.2,46.7,1,46.6,0.8,46.6z"/>
				<path class="st2" d="M5.4,53.7c-0.2,0-0.3,0.2-0.3,0.3s0.2,0.3,0.3,0.3c0.2,0,0.3-0.2,0.3-0.3S5.6,53.7,5.4,53.7"/>
				<circle class="st3" cx="5.4" cy="54.1" r="0.3"/>
				<path class="st2" d="M5.4,50.1c-0.2,0-0.3,0.2-0.3,0.3s0.2,0.3,0.3,0.3c0.2,0,0.3-0.2,0.3-0.3S5.6,50.1,5.4,50.1"/>
				<circle class="st3" cx="5.4" cy="50.5" r="0.3"/>
				<path class="st2" d="M5.4,57.3c-0.2,0-0.3,0.2-0.3,0.3S5.2,58,5.4,58c0.2,0,0.3-0.2,0.3-0.3S5.6,57.3,5.4,57.3"/>
				<circle class="st3" cx="5.4" cy="57.6" r="0.3"/>
				<path class="st2" d="M5.4,46.6c-0.2,0-0.3,0.2-0.3,0.3c0,0.2,0.2,0.3,0.3,0.3c0.2,0,0.3-0.2,0.3-0.3C5.8,46.7,5.6,46.6,5.4,46.6
					"/>
				<circle class="st3" cx="5.4" cy="46.9" r="0.3"/>
				<path class="st2" d="M10,46.6c-0.2,0-0.3,0.2-0.3,0.3c0,0.2,0.2,0.3,0.3,0.3c0.2,0,0.3-0.2,0.3-0.3C10.4,46.7,10.2,46.6,10,46.6
					"/>
				<circle class="st3" cx="10" cy="46.9" r="0.3"/>
				<path class="st2" d="M10,57.3c-0.2,0-0.3,0.2-0.3,0.3S9.8,58,10,58c0.2,0,0.3-0.2,0.3-0.3S10.2,57.3,10,57.3"/>
				<circle class="st3" cx="10" cy="57.6" r="0.3"/>
				<path class="st2" d="M10,50.1c-0.2,0-0.3,0.2-0.3,0.3s0.2,0.3,0.3,0.3c0.2,0,0.3-0.2,0.3-0.3S10.2,50.1,10,50.1"/>
				<circle class="st3" cx="10" cy="50.5" r="0.3"/>
				<path class="st2" d="M10,53.7c-0.2,0-0.3,0.2-0.3,0.3s0.2,0.3,0.3,0.3c0.2,0,0.3-0.2,0.3-0.3S10.2,53.7,10,53.7"/>
				<circle class="st3" cx="10" cy="54.1" r="0.3"/>
				<path class="st2" d="M10,64.4c-0.1,0-0.2,0-0.2,0.1c0.2,0.2,0.3,0.3,0.5,0.5c0.1-0.1,0.1-0.1,0.1-0.2
					C10.4,64.6,10.2,64.4,10,64.4"/>
				<path class="st3" d="M10,64.4c-0.1,0-0.2,0-0.2,0.1c0.2,0.2,0.3,0.3,0.5,0.5c0.1-0.1,0.1-0.1,0.1-0.2
					C10.4,64.6,10.2,64.4,10,64.4z"/>
				<path class="st2" d="M10,60.9c-0.2,0-0.3,0.2-0.3,0.3s0.2,0.3,0.3,0.3c0.2,0,0.3-0.2,0.3-0.3S10.2,60.9,10,60.9"/>
				<circle class="st3" cx="10" cy="61.2" r="0.3"/>
				<path class="st2" d="M14.6,46.6c-0.2,0-0.3,0.2-0.3,0.3c0,0.2,0.2,0.3,0.3,0.3c0.2,0,0.3-0.2,0.3-0.3
					C15,46.7,14.8,46.6,14.6,46.6"/>
				<circle class="st3" cx="14.6" cy="46.9" r="0.3"/>
				<path class="st2" d="M14.6,53.7c-0.2,0-0.3,0.2-0.3,0.3s0.2,0.3,0.3,0.3c0.2,0,0.3-0.2,0.3-0.3S14.8,53.7,14.6,53.7"/>
				<circle class="st3" cx="14.6" cy="54.1" r="0.3"/>
				<path class="st2" d="M14.6,64.4c-0.2,0-0.3,0.2-0.3,0.3c0,0.2,0.2,0.3,0.3,0.3c0.2,0,0.3-0.2,0.3-0.3
					C15,64.6,14.8,64.4,14.6,64.4"/>
				<circle class="st3" cx="14.6" cy="64.8" r="0.3"/>
				<path class="st2" d="M14.6,60.9c-0.2,0-0.3,0.2-0.3,0.3s0.2,0.3,0.3,0.3c0.2,0,0.3-0.2,0.3-0.3S14.8,60.9,14.6,60.9"/>
				<circle class="st3" cx="14.6" cy="61.2" r="0.3"/>
				<path class="st2" d="M14.6,57.3c-0.2,0-0.3,0.2-0.3,0.3s0.2,0.3,0.3,0.3c0.2,0,0.3-0.2,0.3-0.3S14.8,57.3,14.6,57.3"/>
				<circle class="st3" cx="14.6" cy="57.6" r="0.3"/>
				<path class="st2" d="M14.6,50.1c-0.2,0-0.3,0.2-0.3,0.3s0.2,0.3,0.3,0.3c0.2,0,0.3-0.2,0.3-0.3S14.8,50.1,14.6,50.1"/>
				<circle class="st3" cx="14.6" cy="50.5" r="0.3"/>
				<path class="st2" d="M14.6,68c-0.2,0-0.3,0.2-0.3,0.3c0,0.1,0,0.1,0,0.1c0.1,0.1,0.2,0.1,0.3,0.2c0,0,0,0,0,0
					c0.2,0,0.3-0.2,0.3-0.3S14.8,68,14.6,68"/>
				<path class="st3" d="M14.6,68c-0.2,0-0.3,0.2-0.3,0.3c0,0.1,0,0.1,0,0.1c0.1,0.1,0.2,0.1,0.3,0.2c0,0,0,0,0,0
					c0.2,0,0.3-0.2,0.3-0.3S14.8,68,14.6,68z"/>
				<path class="st2" d="M19.2,57.3c-0.2,0-0.3,0.2-0.3,0.3S19,58,19.2,58c0.2,0,0.3-0.2,0.3-0.3S19.4,57.3,19.2,57.3"/>
				<circle class="st3" cx="19.2" cy="57.6" r="0.3"/>
				<path class="st2" d="M19.2,60.9c-0.2,0-0.3,0.2-0.3,0.3s0.2,0.3,0.3,0.3c0.2,0,0.3-0.2,0.3-0.3S19.4,60.9,19.2,60.9"/>
				<circle class="st3" cx="19.2" cy="61.2" r="0.3"/>
				<path class="st2" d="M19.2,53.7c-0.2,0-0.3,0.2-0.3,0.3s0.2,0.3,0.3,0.3c0.2,0,0.3-0.2,0.3-0.3S19.4,53.7,19.2,53.7"/>
				<circle class="st3" cx="19.2" cy="54.1" r="0.3"/>
				<path class="st2" d="M19.2,46.6c-0.2,0-0.3,0.2-0.3,0.3c0,0.2,0.2,0.3,0.3,0.3c0.2,0,0.3-0.2,0.3-0.3
					C19.6,46.7,19.4,46.6,19.2,46.6"/>
				<circle class="st3" cx="19.2" cy="46.9" r="0.3"/>
				<path class="st2" d="M19.2,50.1c-0.2,0-0.3,0.2-0.3,0.3s0.2,0.3,0.3,0.3c0.2,0,0.3-0.2,0.3-0.3S19.4,50.1,19.2,50.1"/>
				<circle class="st3" cx="19.2" cy="50.5" r="0.3"/>
				<path class="st2" d="M19.2,64.4c-0.2,0-0.3,0.2-0.3,0.3c0,0.2,0.2,0.3,0.3,0.3c0.2,0,0.3-0.2,0.3-0.3
					C19.6,64.6,19.4,64.4,19.2,64.4"/>
				<circle class="st3" cx="19.2" cy="64.8" r="0.3"/>
				<path class="st2" d="M19.2,68c-0.2,0-0.3,0.2-0.3,0.3s0.2,0.3,0.3,0.3c0.2,0,0.3-0.2,0.3-0.3S19.4,68,19.2,68"/>
				<circle class="st3" cx="19.2" cy="68.3" r="0.3"/>
				<path class="st2" d="M23.8,46.6c-0.2,0-0.3,0.2-0.3,0.3c0,0.2,0.2,0.3,0.3,0.3c0.2,0,0.3-0.2,0.3-0.3
					C24.2,46.7,24,46.6,23.8,46.6"/>
				<circle class="st3" cx="23.8" cy="46.9" r="0.3"/>
				<path class="st2" d="M23.8,50.1c-0.2,0-0.3,0.2-0.3,0.3s0.2,0.3,0.3,0.3c0.2,0,0.3-0.2,0.3-0.3S24,50.1,23.8,50.1"/>
				<circle class="st3" cx="23.8" cy="50.5" r="0.3"/>
				<path class="st2" d="M23.8,64.4c-0.2,0-0.3,0.2-0.3,0.3c0,0.2,0.2,0.3,0.3,0.3c0.2,0,0.3-0.2,0.3-0.3
					C24.2,64.6,24,64.4,23.8,64.4"/>
				<circle class="st3" cx="23.8" cy="64.8" r="0.3"/>
				<path class="st2" d="M23.8,71.6c-0.2,0-0.3,0.2-0.3,0.3s0.2,0.3,0.3,0.3c0.2,0,0.3-0.2,0.3-0.3S24,71.6,23.8,71.6"/>
				<circle class="st3" cx="23.8" cy="71.9" r="0.3"/>
				<path class="st2" d="M23.8,68c-0.2,0-0.3,0.2-0.3,0.3s0.2,0.3,0.3,0.3c0.2,0,0.3-0.2,0.3-0.3S24,68,23.8,68"/>
				<circle class="st3" cx="23.8" cy="68.3" r="0.3"/>
				<path class="st2" d="M23.8,53.7c-0.2,0-0.3,0.2-0.3,0.3s0.2,0.3,0.3,0.3c0.2,0,0.3-0.2,0.3-0.3S24,53.7,23.8,53.7"/>
				<circle class="st3" cx="23.8" cy="54.1" r="0.3"/>
				<path class="st2" d="M23.8,60.9c-0.2,0-0.3,0.2-0.3,0.3s0.2,0.3,0.3,0.3c0.2,0,0.3-0.2,0.3-0.3S24,60.9,23.8,60.9"/>
				<circle class="st3" cx="23.8" cy="61.2" r="0.3"/>
				<path class="st2" d="M23.8,57.3c-0.2,0-0.3,0.2-0.3,0.3s0.2,0.3,0.3,0.3c0.2,0,0.3-0.2,0.3-0.3S24,57.3,23.8,57.3"/>
				<circle class="st3" cx="23.8" cy="57.6" r="0.3"/>
				<path class="st2" d="M28.4,46.6c-0.2,0-0.3,0.2-0.3,0.3c0,0.2,0.2,0.3,0.3,0.3c0.2,0,0.3-0.2,0.3-0.3
					C28.8,46.7,28.6,46.6,28.4,46.6"/>
				<circle class="st3" cx="28.4" cy="46.9" r="0.3"/>
				<path class="st2" d="M28.4,50.1c-0.2,0-0.3,0.2-0.3,0.3s0.2,0.3,0.3,0.3c0.2,0,0.3-0.2,0.3-0.3S28.6,50.1,28.4,50.1"/>
				<circle class="st3" cx="28.4" cy="50.5" r="0.3"/>
				<path class="st2" d="M28.4,71.6c-0.2,0-0.3,0.2-0.3,0.3s0.2,0.3,0.3,0.3c0.2,0,0.3-0.2,0.3-0.3S28.6,71.6,28.4,71.6"/>
				<circle class="st3" cx="28.4" cy="71.9" r="0.3"/>
				<path class="st2" d="M28.4,53.7c-0.2,0-0.3,0.2-0.3,0.3s0.2,0.3,0.3,0.3c0.2,0,0.3-0.2,0.3-0.3S28.6,53.7,28.4,53.7"/>
				<circle class="st3" cx="28.4" cy="54.1" r="0.3"/>
				<path class="st2" d="M28.4,60.9c-0.2,0-0.3,0.2-0.3,0.3s0.2,0.3,0.3,0.3c0.2,0,0.3-0.2,0.3-0.3S28.6,60.9,28.4,60.9"/>
				<circle class="st3" cx="28.4" cy="61.2" r="0.3"/>
				<path class="st2" d="M28.4,64.4c-0.2,0-0.3,0.2-0.3,0.3c0,0.2,0.2,0.3,0.3,0.3c0.2,0,0.3-0.2,0.3-0.3
					C28.8,64.6,28.6,64.4,28.4,64.4"/>
				<circle class="st3" cx="28.4" cy="64.8" r="0.3"/>
				<path class="st2" d="M28.4,57.3c-0.2,0-0.3,0.2-0.3,0.3s0.2,0.3,0.3,0.3c0.2,0,0.3-0.2,0.3-0.3S28.6,57.3,28.4,57.3"/>
				<circle class="st3" cx="28.4" cy="57.6" r="0.3"/>
				<path class="st2" d="M28.4,68c-0.2,0-0.3,0.2-0.3,0.3s0.2,0.3,0.3,0.3c0.2,0,0.3-0.2,0.3-0.3S28.6,68,28.4,68"/>
				<circle class="st3" cx="28.4" cy="68.3" r="0.3"/>
				<path class="st2" d="M33,75.1c-0.1,0-0.2,0-0.2,0.1c0,0-0.1,0.1-0.1,0.1c0.2,0,0.4,0,0.6,0c0-0.1,0-0.1-0.1-0.2
					C33.2,75.2,33.1,75.1,33,75.1"/>
				<path class="st3" d="M33,75.1c-0.1,0-0.2,0-0.2,0.1c0,0-0.1,0.1-0.1,0.1c0.2,0,0.4,0,0.6,0c0-0.1,0-0.1-0.1-0.2
					C33.2,75.2,33.1,75.1,33,75.1z"/>
				<path class="st2" d="M33,46.6c-0.2,0-0.3,0.2-0.3,0.3c0,0.2,0.2,0.3,0.3,0.3c0.2,0,0.3-0.2,0.3-0.3C33.4,46.7,33.2,46.6,33,46.6
					"/>
				<circle class="st3" cx="33" cy="46.9" r="0.3"/>
				<path class="st2" d="M33,71.6c-0.2,0-0.3,0.2-0.3,0.3s0.2,0.3,0.3,0.3c0.2,0,0.3-0.2,0.3-0.3S33.2,71.6,33,71.6"/>
				<circle class="st3" cx="33" cy="71.9" r="0.3"/>
				<path class="st2" d="M33,68c-0.2,0-0.3,0.2-0.3,0.3s0.2,0.3,0.3,0.3c0.2,0,0.3-0.2,0.3-0.3S33.2,68,33,68"/>
				<circle class="st3" cx="33" cy="68.3" r="0.3"/>
				<path class="st2" d="M33,60.9c-0.2,0-0.3,0.2-0.3,0.3s0.2,0.3,0.3,0.3c0.2,0,0.3-0.2,0.3-0.3S33.2,60.9,33,60.9"/>
				<circle class="st3" cx="33" cy="61.2" r="0.3"/>
				<path class="st2" d="M33,57.3c-0.2,0-0.3,0.2-0.3,0.3S32.8,58,33,58c0.2,0,0.3-0.2,0.3-0.3S33.2,57.3,33,57.3"/>
				<circle class="st3" cx="33" cy="57.6" r="0.3"/>
				<path class="st2" d="M33,53.7c-0.2,0-0.3,0.2-0.3,0.3s0.2,0.3,0.3,0.3c0.2,0,0.3-0.2,0.3-0.3S33.2,53.7,33,53.7"/>
				<circle class="st3" cx="33" cy="54.1" r="0.3"/>
				<path class="st2" d="M33,50.1c-0.2,0-0.3,0.2-0.3,0.3s0.2,0.3,0.3,0.3c0.2,0,0.3-0.2,0.3-0.3S33.2,50.1,33,50.1"/>
				<circle class="st3" cx="33" cy="50.5" r="0.3"/>
				<path class="st2" d="M33,64.4c-0.2,0-0.3,0.2-0.3,0.3c0,0.2,0.2,0.3,0.3,0.3c0.2,0,0.3-0.2,0.3-0.3C33.4,64.6,33.2,64.4,33,64.4
					"/>
				<circle class="st3" cx="33" cy="64.8" r="0.3"/>
				<path class="st2" d="M37.6,75.1c-0.1,0-0.2,0-0.2,0.1c-0.1,0.1-0.1,0.1-0.1,0.2c0.2,0,0.4,0,0.7,0c0-0.1,0-0.1-0.1-0.2
					C37.8,75.2,37.7,75.1,37.6,75.1"/>
				<path class="st3" d="M37.6,75.1c-0.1,0-0.2,0-0.2,0.1c-0.1,0.1-0.1,0.1-0.1,0.2c0.2,0,0.4,0,0.7,0c0-0.1,0-0.1-0.1-0.2
					C37.8,75.2,37.7,75.1,37.6,75.1z"/>
				<path class="st2" d="M37.6,46.6c-0.2,0-0.3,0.2-0.3,0.3c0,0.2,0.2,0.3,0.3,0.3c0.2,0,0.3-0.2,0.3-0.3
					C37.9,46.7,37.8,46.6,37.6,46.6"/>
				<circle class="st3" cx="37.6" cy="46.9" r="0.3"/>
				<path class="st2" d="M37.6,53.7c-0.2,0-0.3,0.2-0.3,0.3s0.2,0.3,0.3,0.3c0.2,0,0.3-0.2,0.3-0.3S37.8,53.7,37.6,53.7"/>
				<circle class="st3" cx="37.6" cy="54.1" r="0.3"/>
				<path class="st2" d="M37.6,57.3c-0.2,0-0.3,0.2-0.3,0.3s0.2,0.3,0.3,0.3c0.2,0,0.3-0.2,0.3-0.3S37.8,57.3,37.6,57.3"/>
				<circle class="st3" cx="37.6" cy="57.6" r="0.3"/>
				<path class="st2" d="M37.6,60.9c-0.2,0-0.3,0.2-0.3,0.3s0.2,0.3,0.3,0.3c0.2,0,0.3-0.2,0.3-0.3S37.8,60.9,37.6,60.9"/>
				<circle class="st3" cx="37.6" cy="61.2" r="0.3"/>
				<path class="st2" d="M37.6,64.4c-0.2,0-0.3,0.2-0.3,0.3c0,0.2,0.2,0.3,0.3,0.3c0.2,0,0.3-0.2,0.3-0.3
					C37.9,64.6,37.8,64.4,37.6,64.4"/>
				<circle class="st3" cx="37.6" cy="64.8" r="0.3"/>
				<path class="st2" d="M37.6,50.1c-0.2,0-0.3,0.2-0.3,0.3s0.2,0.3,0.3,0.3c0.2,0,0.3-0.2,0.3-0.3S37.8,50.1,37.6,50.1"/>
				<circle class="st3" cx="37.6" cy="50.5" r="0.3"/>
				<path class="st2" d="M37.6,68c-0.2,0-0.3,0.2-0.3,0.3s0.2,0.3,0.3,0.3c0.2,0,0.3-0.2,0.3-0.3S37.8,68,37.6,68"/>
				<circle class="st3" cx="37.6" cy="68.3" r="0.3"/>
				<path class="st2" d="M37.6,71.6c-0.2,0-0.3,0.2-0.3,0.3s0.2,0.3,0.3,0.3c0.2,0,0.3-0.2,0.3-0.3S37.8,71.6,37.6,71.6"/>
				<circle class="st3" cx="37.6" cy="71.9" r="0.3"/>
				<path class="st2" d="M42.2,46.6c-0.2,0-0.3,0.2-0.3,0.3c0,0.2,0.2,0.3,0.3,0.3c0.2,0,0.3-0.2,0.3-0.3
					C42.5,46.7,42.4,46.6,42.2,46.6"/>
				<circle class="st3" cx="42.2" cy="46.9" r="0.3"/>
				<path class="st2" d="M42.2,50.1c-0.2,0-0.3,0.2-0.3,0.3s0.2,0.3,0.3,0.3c0.2,0,0.3-0.2,0.3-0.3S42.4,50.1,42.2,50.1"/>
				<circle class="st3" cx="42.2" cy="50.5" r="0.3"/>
				<path class="st2" d="M42.2,64.4c-0.2,0-0.3,0.2-0.3,0.3c0,0.2,0.2,0.3,0.3,0.3c0.2,0,0.3-0.2,0.3-0.3
					C42.5,64.6,42.4,64.4,42.2,64.4"/>
				<circle class="st3" cx="42.2" cy="64.8" r="0.3"/>
				<path class="st2" d="M42.2,71.6c-0.2,0-0.3,0.2-0.3,0.3s0.2,0.3,0.3,0.3c0.2,0,0.3-0.2,0.3-0.3S42.4,71.6,42.2,71.6"/>
				<circle class="st3" cx="42.2" cy="71.9" r="0.3"/>
				<path class="st2" d="M42.2,53.7c-0.2,0-0.3,0.2-0.3,0.3s0.2,0.3,0.3,0.3c0.2,0,0.3-0.2,0.3-0.3S42.4,53.7,42.2,53.7"/>
				<circle class="st3" cx="42.2" cy="54.1" r="0.3"/>
				<path class="st2" d="M42.2,68c-0.2,0-0.3,0.2-0.3,0.3s0.2,0.3,0.3,0.3c0.2,0,0.3-0.2,0.3-0.3S42.4,68,42.2,68"/>
				<circle class="st3" cx="42.2" cy="68.3" r="0.3"/>
				<path class="st2" d="M42.2,60.9c-0.2,0-0.3,0.2-0.3,0.3s0.2,0.3,0.3,0.3c0.2,0,0.3-0.2,0.3-0.3S42.4,60.9,42.2,60.9"/>
				<circle class="st3" cx="42.2" cy="61.2" r="0.3"/>
				<path class="st2" d="M42.2,57.3c-0.2,0-0.3,0.2-0.3,0.3S42,58,42.2,58c0.2,0,0.3-0.2,0.3-0.3S42.4,57.3,42.2,57.3"/>
				<circle class="st3" cx="42.2" cy="57.6" r="0.3"/>
				<path class="st2" d="M46.8,71.6c-0.2,0-0.3,0.2-0.3,0.3s0.2,0.3,0.3,0.3c0.2,0,0.3-0.2,0.3-0.3S47,71.6,46.8,71.6"/>
				<circle class="st3" cx="46.8" cy="71.9" r="0.3"/>
				<path class="st2" d="M46.8,60.9c-0.2,0-0.3,0.2-0.3,0.3s0.2,0.3,0.3,0.3c0.2,0,0.3-0.2,0.3-0.3S47,60.9,46.8,60.9"/>
				<circle class="st3" cx="46.8" cy="61.2" r="0.3"/>
				<path class="st2" d="M46.8,64.4c-0.2,0-0.3,0.2-0.3,0.3c0,0.2,0.2,0.3,0.3,0.3c0.2,0,0.3-0.2,0.3-0.3
					C47.1,64.6,47,64.4,46.8,64.4"/>
				<circle class="st3" cx="46.8" cy="64.8" r="0.3"/>
				<path class="st2" d="M46.8,68c-0.2,0-0.3,0.2-0.3,0.3s0.2,0.3,0.3,0.3c0.2,0,0.3-0.2,0.3-0.3S47,68,46.8,68"/>
				<circle class="st3" cx="46.8" cy="68.3" r="0.3"/>
				<path class="st2" d="M46.8,50.1c-0.2,0-0.3,0.2-0.3,0.3s0.2,0.3,0.3,0.3c0.2,0,0.3-0.2,0.3-0.3S47,50.1,46.8,50.1"/>
				<circle class="st3" cx="46.8" cy="50.5" r="0.3"/>
				<path class="st2" d="M46.8,53.7c-0.2,0-0.3,0.2-0.3,0.3s0.2,0.3,0.3,0.3c0.2,0,0.3-0.2,0.3-0.3S47,53.7,46.8,53.7"/>
				<circle class="st3" cx="46.8" cy="54.1" r="0.3"/>
				<path class="st2" d="M46.8,57.3c-0.2,0-0.3,0.2-0.3,0.3s0.2,0.3,0.3,0.3c0.2,0,0.3-0.2,0.3-0.3S47,57.3,46.8,57.3"/>
				<circle class="st3" cx="46.8" cy="57.6" r="0.3"/>
				<path class="st2" d="M46.8,46.6c-0.2,0-0.3,0.2-0.3,0.3c0,0.2,0.2,0.3,0.3,0.3c0.2,0,0.3-0.2,0.3-0.3
					C47.1,46.7,47,46.6,46.8,46.6"/>
				<circle class="st3" cx="46.8" cy="46.9" r="0.3"/>
				<path class="st2" d="M51.4,50.1c-0.2,0-0.3,0.2-0.3,0.3s0.2,0.3,0.3,0.3c0.2,0,0.3-0.2,0.3-0.3S51.6,50.1,51.4,50.1"/>
				<circle class="st3" cx="51.4" cy="50.5" r="0.3"/>
				<path class="st2" d="M51.4,46.6c-0.2,0-0.3,0.2-0.3,0.3c0,0.2,0.2,0.3,0.3,0.3c0.2,0,0.3-0.2,0.3-0.3
					C51.7,46.7,51.6,46.6,51.4,46.6"/>
				<circle class="st3" cx="51.4" cy="46.9" r="0.3"/>
				<path class="st2" d="M51.4,57.3c-0.2,0-0.3,0.2-0.3,0.3s0.2,0.3,0.3,0.3c0.2,0,0.3-0.2,0.3-0.3S51.6,57.3,51.4,57.3"/>
				<circle class="st3" cx="51.4" cy="57.6" r="0.3"/>
				<path class="st2" d="M51.4,53.7c-0.2,0-0.3,0.2-0.3,0.3s0.2,0.3,0.3,0.3c0.2,0,0.3-0.2,0.3-0.3S51.6,53.7,51.4,53.7"/>
				<circle class="st3" cx="51.4" cy="54.1" r="0.3"/>
				<path class="st2" d="M51.4,60.9c-0.2,0-0.3,0.2-0.3,0.3s0.2,0.3,0.3,0.3c0.2,0,0.3-0.2,0.3-0.3S51.6,60.9,51.4,60.9"/>
				<circle class="st3" cx="51.4" cy="61.2" r="0.3"/>
				<path class="st2" d="M51.4,68c-0.2,0-0.3,0.2-0.3,0.3s0.2,0.3,0.3,0.3c0.2,0,0.3-0.2,0.3-0.3S51.6,68,51.4,68"/>
				<circle class="st3" cx="51.4" cy="68.3" r="0.3"/>
				<path class="st2" d="M51.1,71.9C51.1,71.9,51.1,71.9,51.1,71.9c0.2,0,0.4-0.1,0.6-0.2c-0.1-0.1-0.1-0.1-0.2-0.1
					C51.2,71.6,51.1,71.7,51.1,71.9"/>
				<path class="st3" d="M51.1,71.9C51.1,71.9,51.1,71.9,51.1,71.9c0.2,0,0.4-0.1,0.6-0.2c-0.1-0.1-0.1-0.1-0.2-0.1
					C51.2,71.6,51.1,71.7,51.1,71.9z"/>
				<path class="st2" d="M51.4,64.4c-0.2,0-0.3,0.2-0.3,0.3c0,0.2,0.2,0.3,0.3,0.3c0.2,0,0.3-0.2,0.3-0.3
					C51.7,64.6,51.6,64.4,51.4,64.4"/>
				<circle class="st3" cx="51.4" cy="64.8" r="0.3"/>
				<path class="st2" d="M56,60.9c-0.2,0-0.3,0.2-0.3,0.3s0.2,0.3,0.3,0.3c0.2,0,0.3-0.2,0.3-0.3S56.2,60.9,56,60.9"/>
				<circle class="st3" cx="56" cy="61.2" r="0.3"/>
				<path class="st2" d="M56,53.7c-0.2,0-0.3,0.2-0.3,0.3s0.2,0.3,0.3,0.3c0.2,0,0.3-0.2,0.3-0.3S56.2,53.7,56,53.7"/>
				<circle class="st3" cx="56" cy="54.1" r="0.3"/>
				<path class="st2" d="M56,64.4c-0.2,0-0.3,0.2-0.3,0.3c0,0.2,0.2,0.3,0.3,0.3c0.2,0,0.3-0.2,0.3-0.3C56.3,64.6,56.2,64.4,56,64.4
					"/>
				<circle class="st3" cx="56" cy="64.8" r="0.3"/>
				<path class="st2" d="M56,68c-0.2,0-0.3,0.2-0.3,0.3s0.2,0.3,0.3,0.3c0.2,0,0.3-0.2,0.3-0.3S56.2,68,56,68"/>
				<circle class="st3" cx="56" cy="68.3" r="0.3"/>
				<path class="st2" d="M56,57.3c-0.2,0-0.3,0.2-0.3,0.3S55.8,58,56,58c0.2,0,0.3-0.2,0.3-0.3S56.2,57.3,56,57.3"/>
				<circle class="st3" cx="56" cy="57.6" r="0.3"/>
				<path class="st2" d="M56,46.6c-0.2,0-0.3,0.2-0.3,0.3c0,0.2,0.2,0.3,0.3,0.3c0.2,0,0.3-0.2,0.3-0.3C56.3,46.7,56.2,46.6,56,46.6
					"/>
				<circle class="st3" cx="56" cy="46.9" r="0.3"/>
				<path class="st2" d="M56,50.1c-0.2,0-0.3,0.2-0.3,0.3s0.2,0.3,0.3,0.3c0.2,0,0.3-0.2,0.3-0.3S56.2,50.1,56,50.1"/>
				<circle class="st3" cx="56" cy="50.5" r="0.3"/>
				<path class="st2" d="M60.6,46.6c-0.2,0-0.3,0.2-0.3,0.3c0,0.2,0.2,0.3,0.3,0.3c0.2,0,0.3-0.2,0.3-0.3
					C60.9,46.7,60.8,46.6,60.6,46.6"/>
				<circle class="st3" cx="60.6" cy="46.9" r="0.3"/>
				<path class="st2" d="M60.6,57.3c-0.2,0-0.3,0.2-0.3,0.3s0.2,0.3,0.3,0.3c0.2,0,0.3-0.2,0.3-0.3S60.8,57.3,60.6,57.3"/>
				<circle class="st3" cx="60.6" cy="57.6" r="0.3"/>
				<path class="st2" d="M60.6,64.4c-0.2,0-0.3,0.2-0.3,0.3c0,0.2,0.2,0.3,0.3,0.3c0.2,0,0.3-0.2,0.3-0.3
					C60.9,64.6,60.8,64.4,60.6,64.4"/>
				<circle class="st3" cx="60.6" cy="64.8" r="0.3"/>
				<path class="st2" d="M60.6,60.9c-0.2,0-0.3,0.2-0.3,0.3s0.2,0.3,0.3,0.3c0.2,0,0.3-0.2,0.3-0.3S60.8,60.9,60.6,60.9"/>
				<circle class="st3" cx="60.6" cy="61.2" r="0.3"/>
				<path class="st2" d="M60.6,50.1c-0.2,0-0.3,0.2-0.3,0.3s0.2,0.3,0.3,0.3c0.2,0,0.3-0.2,0.3-0.3S60.8,50.1,60.6,50.1"/>
				<circle class="st3" cx="60.6" cy="50.5" r="0.3"/>
				<path class="st2" d="M60.6,53.7c-0.2,0-0.3,0.2-0.3,0.3s0.2,0.3,0.3,0.3c0.2,0,0.3-0.2,0.3-0.3S60.8,53.7,60.6,53.7"/>
				<circle class="st3" cx="60.6" cy="54.1" r="0.3"/>
				<path class="st2" d="M65.2,50.1c-0.2,0-0.3,0.2-0.3,0.3s0.2,0.3,0.3,0.3c0.2,0,0.3-0.2,0.3-0.3S65.4,50.1,65.2,50.1"/>
				<circle class="st3" cx="65.2" cy="50.5" r="0.3"/>
				<path class="st2" d="M65.2,57.3c-0.2,0-0.3,0.2-0.3,0.3S65,58,65.2,58c0.2,0,0.3-0.2,0.3-0.3S65.4,57.3,65.2,57.3"/>
				<circle class="st3" cx="65.2" cy="57.6" r="0.3"/>
				<path class="st2" d="M65.2,53.7c-0.2,0-0.3,0.2-0.3,0.3s0.2,0.3,0.3,0.3c0.2,0,0.3-0.2,0.3-0.3S65.4,53.7,65.2,53.7"/>
				<circle class="st3" cx="65.2" cy="54.1" r="0.3"/>
				<path class="st2" d="M65.2,46.6c-0.2,0-0.3,0.2-0.3,0.3c0,0.2,0.2,0.3,0.3,0.3c0.2,0,0.3-0.2,0.3-0.3
					C65.5,46.7,65.4,46.6,65.2,46.6"/>
				<circle class="st3" cx="65.2" cy="46.9" r="0.3"/>
				<path class="st2" d="M69.8,46.6c-0.2,0-0.3,0.2-0.3,0.3c0,0.2,0.2,0.3,0.3,0.3c0.2,0,0.3-0.2,0.3-0.3
					C70.1,46.7,70,46.6,69.8,46.6"/>
				<circle class="st3" cx="69.8" cy="46.9" r="0.3"/>
				<path class="st2" d="M69.4,50.5c0,0.1,0.1,0.2,0.1,0.3c0.1-0.2,0.1-0.4,0.2-0.6C69.6,50.1,69.4,50.3,69.4,50.5"/>
				<path class="st3" d="M69.4,50.5c0,0.1,0.1,0.2,0.1,0.3c0.1-0.2,0.1-0.4,0.2-0.6C69.6,50.1,69.4,50.3,69.4,50.5z"/>
			</g>
		</g>
	</g>
	<g class="st0">
		<path class="st4" d="M39.6,32.1h14.3V35H43v8.8h10.1v2.8H43v12h-3.4V32.1z"/>
		<path class="st4" d="M58.8,32.5c1.7-0.4,4.2-0.6,6.6-0.6c3.7,0,6,0.7,7.7,2.2c1.3,1.2,2.1,3,2.1,5.1c0,3.5-2.2,5.8-5,6.8V46
			c2.1,0.7,3.3,2.6,3.9,5.4c0.9,3.7,1.5,6.3,2.1,7.3h-3.6c-0.4-0.8-1-3-1.8-6.4c-0.8-3.7-2.2-5.1-5.3-5.2h-3.2v11.5h-3.4V32.5z
			 M62.3,44.6h3.5c3.7,0,6-2,6-5.1c0-3.4-2.5-4.9-6.1-5c-1.7,0-2.8,0.2-3.4,0.3V44.6z"/>
		<path class="st4" d="M93.8,46.2H83.5v9.6H95v2.9h-15V32.1h14.4V35H83.5v8.4h10.3V46.2z"/>
		<path class="st4" d="M113.3,46.2h-10.3v9.6h11.5v2.9h-15V32.1h14.4V35h-10.9v8.4h10.3V46.2z"/>
	</g>
	<g class="st0">
		<defs>
			<rect id="SVGID_7_" width="127.2" height="97.2"/>
		</defs>
		<clipPath id="SVGID_8_">
			<use xlink:href="#SVGID_7_"  style="overflow:visible;"/>
		</clipPath>
		<g class="st5">
			<path class="st4" d="M38.6,67c1.7-0.3,3.7-0.5,6-0.5c4,0,6.9,0.9,8.8,2.7c1.9,1.8,3.1,4.3,3.1,7.8c0,3.5-1.1,6.5-3.1,8.5
				c-2,2-5.4,3.1-9.6,3.1c-2,0-3.7-0.1-5.1-0.3V67z M41.4,86.2c0.7,0.1,1.7,0.2,2.8,0.2c6,0,9.3-3.4,9.3-9.2c0-5.1-2.9-8.4-8.8-8.4
				c-1.5,0-2.5,0.1-3.3,0.3V86.2z"/>
			<path class="st4" d="M61.5,81.2c0.1,3.8,2.5,5.4,5.4,5.4c2,0,3.3-0.4,4.3-0.8l0.5,2c-1,0.5-2.7,1-5.2,1c-4.8,0-7.7-3.2-7.7-7.9
				c0-4.7,2.8-8.4,7.3-8.4c5.1,0,6.5,4.5,6.5,7.4c0,0.6-0.1,1-0.1,1.3H61.5z M69.8,79.2c0-1.8-0.7-4.6-3.9-4.6
				c-2.9,0-4.1,2.6-4.4,4.6H69.8z"/>
			<path class="st4" d="M76.1,77.1c0-1.6,0-2.9-0.1-4.2h2.5l0.1,2.5h0.1c0.9-1.5,2.3-2.9,4.9-2.9c2.1,0,3.7,1.3,4.4,3.1h0.1
				c0.5-0.9,1.1-1.5,1.7-2c0.9-0.7,2-1.1,3.5-1.1c2.1,0,5.1,1.4,5.1,6.8v9.2h-2.8v-8.8c0-3-1.1-4.8-3.4-4.8c-1.6,0-2.9,1.2-3.4,2.6
				c-0.1,0.4-0.2,0.9-0.2,1.4v9.6h-2.8v-9.4c0-2.5-1.1-4.3-3.3-4.3c-1.8,0-3.1,1.4-3.5,2.8c-0.2,0.4-0.2,0.9-0.2,1.4v9.4h-2.8V77.1z
				"/>
			<path class="st4" d="M117.1,80.5c0,5.8-4,8.3-7.8,8.3c-4.2,0-7.5-3.1-7.5-8c0-5.2,3.4-8.3,7.7-8.3
				C114.1,72.5,117.1,75.8,117.1,80.5z M104.8,80.7c0,3.4,2,6,4.7,6c2.7,0,4.7-2.5,4.7-6.1c0-2.6-1.3-6-4.7-6
				C106.2,74.6,104.8,77.7,104.8,80.7z"/>
		</g>
	</g>
	<g class="st0">
	</g>
</g>
</svg>
