<?xml version="1.0" encoding="utf-8"?>
<!-- Generator: Adobe Illustrator 19.0.0, SVG Export Plug-In . SVG Version: 6.00 Build 0)  -->
<svg version="1.1" id="Layer_1" xmlns="http://www.w3.org/2000/svg" xmlns:xlink="http://www.w3.org/1999/xlink" x="0px" y="0px"
	 viewBox="0 0 126.3 89.8" style="enable-background:new 0 0 126.3 89.8;" xml:space="preserve">
<style type="text/css">
	.st0{clip-path:url(#SVGID_2_);}
	.st1{clip-path:url(#SVGID_4_);}
	.st2{fill:#FFFFFF;}
	.st3{opacity:0.42;clip-path:url(#SVGID_6_);}
	.st4{clip-path:url(#SVGID_8_);fill:#FFFFFF;}
	.st5{clip-path:url(#SVGID_8_);fill:none;stroke:#FFFFFF;stroke-miterlimit:10;}
</style>
<g>
	<defs>
		<rect id="SVGID_1_" width="126.3" height="89.8"/>
	</defs>
	<clipPath id="SVGID_2_">
		<use xlink:href="#SVGID_1_"  style="overflow:visible;"/>
	</clipPath>
	<g class="st0">
		<defs>
			<rect id="SVGID_3_" y="0" width="126.3" height="89.8"/>
		</defs>
		<clipPath id="SVGID_4_">
			<use xlink:href="#SVGID_3_"  style="overflow:visible;"/>
		</clipPath>
		<g class="st1">
			<path class="st2" d="M2.6,2.9v4.5h5.2V2.9h1.4v10.8H7.8V8.7H2.6v5.1H1.2V2.9H2.6z"/>
			<path class="st2" d="M12.4,10.1c0,1.9,1.2,2.7,2.7,2.7c1,0,1.6-0.2,2.1-0.4l0.2,1c-0.5,0.2-1.3,0.5-2.6,0.5
				c-2.4,0-3.8-1.6-3.8-3.9s1.4-4.2,3.6-4.2c2.5,0,3.2,2.2,3.2,3.6c0,0.3,0,0.5,0,0.7H12.4z M16.5,9.1c0-0.9-0.4-2.3-2-2.3
				c-1.4,0-2,1.3-2.2,2.3H16.5z"/>
			<path class="st2" d="M19.6,2.3H21v11.4h-1.4V2.3z"/>
			<path class="st2" d="M23.4,8.5c0-1,0-1.8-0.1-2.5h1.3l0.1,1.3h0c0.6-0.9,1.5-1.5,2.8-1.5c1.9,0,3.3,1.6,3.3,3.9
				c0,2.8-1.7,4.2-3.5,4.2c-1,0-1.9-0.4-2.4-1.2h0v4.2h-1.4V8.5z M24.8,10.6c0,0.2,0,0.4,0.1,0.6c0.3,1,1.1,1.6,2.1,1.6
				c1.5,0,2.4-1.2,2.4-3c0-1.6-0.8-2.9-2.3-2.9c-1,0-1.9,0.7-2.1,1.7c0,0.2-0.1,0.4-0.1,0.6V10.6z"/>
			<path class="st2" d="M43.5,13.4c-0.5,0.3-1.5,0.5-2.8,0.5c-3,0-5.3-1.9-5.3-5.5c0-3.4,2.3-5.7,5.6-5.7c1.3,0,2.2,0.3,2.6,0.5
				l-0.3,1.1c-0.5-0.3-1.3-0.4-2.2-0.4c-2.5,0-4.2,1.6-4.2,4.4c0,2.6,1.5,4.3,4.1,4.3c0.8,0,1.7-0.2,2.3-0.4L43.5,13.4z"/>
			<path class="st2" d="M46,10.1c0,1.9,1.2,2.7,2.7,2.7c1,0,1.6-0.2,2.1-0.4l0.2,1c-0.5,0.2-1.3,0.5-2.6,0.5c-2.4,0-3.8-1.6-3.8-3.9
				s1.4-4.2,3.6-4.2c2.5,0,3.2,2.2,3.2,3.6c0,0.3,0,0.5,0,0.7H46z M50.1,9.1c0-0.9-0.4-2.3-2-2.3c-1.4,0-2,1.3-2.2,2.3H50.1z"/>
			<path class="st2" d="M53.2,8.1c0-0.8,0-1.5-0.1-2.1h1.2l0.1,1.3h0c0.4-0.7,1.3-1.5,2.6-1.5c1.1,0,2.7,0.6,2.7,3.3v4.6h-1.4V9.2
				C58.4,8,57.9,7,56.6,7c-0.9,0-1.6,0.7-1.9,1.4c-0.1,0.2-0.1,0.4-0.1,0.7v4.7h-1.4V8.1z"/>
			<path class="st2" d="M63.8,3.7V6h2V7h-2v4.2c0,1,0.3,1.5,1.1,1.5c0.4,0,0.6,0,0.8-0.1l0.1,1.1c-0.3,0.1-0.7,0.2-1.2,0.2
				c-0.7,0-1.2-0.2-1.5-0.6c-0.4-0.4-0.5-1.1-0.5-2V7h-1.2V6h1.2V4.1L63.8,3.7z"/>
			<path class="st2" d="M68.1,10.1c0,1.9,1.2,2.7,2.7,2.7c1,0,1.6-0.2,2.1-0.4l0.2,1c-0.5,0.2-1.3,0.5-2.6,0.5
				c-2.4,0-3.8-1.6-3.8-3.9s1.4-4.2,3.6-4.2c2.5,0,3.2,2.2,3.2,3.6c0,0.3,0,0.5,0,0.7H68.1z M72.3,9.1c0-0.9-0.4-2.3-2-2.3
				c-1.4,0-2,1.3-2.2,2.3H72.3z"/>
			<path class="st2" d="M75.4,8.4c0-0.9,0-1.7-0.1-2.4h1.2l0,1.5h0.1c0.4-1,1.2-1.7,2.1-1.7c0.2,0,0.3,0,0.4,0v1.3
				c-0.1,0-0.3,0-0.5,0c-1,0-1.7,0.8-1.9,1.8c0,0.2-0.1,0.4-0.1,0.7v4.1h-1.4V8.4z"/>
		</g>
	</g>
	<g class="st0">
		<path class="st2" d="M14.4,36.7c-0.5-0.5-0.9-0.9-1.6-1.6C11.4,36.4,9.7,37,7.9,37c-3.3,0-5.2-2.2-5.2-4.7c0-2.3,1.4-3.9,3.3-4.9
			v-0.1c-0.9-1.1-1.4-2.3-1.4-3.5c0-2,1.5-4.1,4.3-4.1c2.1,0,3.7,1.4,3.7,3.6c0,1.8-1,3.2-3.7,4.5v0.1c1.4,1.6,3,3.5,4.1,4.7
			c0.8-1.2,1.3-2.8,1.6-4.9h2c-0.4,2.6-1.2,4.7-2.4,6.2c0.9,0.9,1.8,1.9,2.8,3H14.4z M11.7,33.8c-1-1.1-2.9-3.1-4.7-5.3
			c-0.9,0.6-2.2,1.6-2.2,3.4c0,1.9,1.4,3.4,3.4,3.4C9.7,35.3,10.9,34.7,11.7,33.8z M6.6,23.5c0,1.2,0.5,2.1,1.3,3
			c1.7-1,2.8-1.9,2.8-3.3c0-1-0.6-2.2-1.9-2.2C7.3,21.1,6.6,22.2,6.6,23.5z"/>
		<path class="st2" d="M33,28.8h-6.5v6.1h7.3v1.8h-9.5V19.9h9.1v1.8h-6.9V27H33V28.8z"/>
		<path class="st2" d="M36.5,27.9c0-1.3,0-2.3-0.1-3.3h1.9l0.1,1.9h0.1c0.7-1.1,1.8-2.2,3.8-2.2c1.6,0,2.9,1,3.4,2.4h0
			c0.4-0.7,0.9-1.2,1.3-1.6c0.7-0.6,1.5-0.9,2.7-0.9c1.6,0,4,1,4,5.2v7.1h-2.1v-6.8c0-2.3-0.8-3.7-2.6-3.7c-1.2,0-2.2,0.9-2.6,2
			c-0.1,0.3-0.2,0.7-0.2,1.1v7.5h-2.1v-7.2c0-1.9-0.8-3.3-2.5-3.3c-1.4,0-2.4,1.1-2.7,2.2c-0.1,0.3-0.2,0.7-0.2,1.1v7.3h-2.1V27.9z"
			/>
		<path class="st2" d="M64,36.7l-0.2-1.5h-0.1c-0.7,0.9-2,1.8-3.7,1.8c-2.4,0-3.7-1.7-3.7-3.5c0-2.9,2.6-4.5,7.3-4.5v-0.3
			c0-1-0.3-2.8-2.8-2.8c-1.1,0-2.3,0.4-3.1,0.9l-0.5-1.4c1-0.6,2.4-1.1,4-1.1c3.7,0,4.6,2.5,4.6,4.9v4.5c0,1,0,2.1,0.2,2.9H64z
			 M63.7,30.5c-2.4-0.1-5.1,0.4-5.1,2.7c0,1.4,0.9,2.1,2.1,2.1c1.6,0,2.6-1,2.9-2c0.1-0.2,0.1-0.5,0.1-0.7V30.5z"/>
		<path class="st2" d="M71.8,21.2c0,0.7-0.5,1.3-1.4,1.3c-0.8,0-1.3-0.6-1.3-1.3c0-0.8,0.6-1.4,1.4-1.4
			C71.3,19.8,71.8,20.4,71.8,21.2z M69.4,36.7V24.6h2.2v12.1H69.4z"/>
		<path class="st2" d="M75.2,19h2.2v17.7h-2.2V19z"/>
	</g>
	<g class="st0">
		<path class="st2" d="M4.1,57.1c1,0.6,2.4,1.1,3.9,1.1c2.2,0,3.5-1.2,3.5-2.9c0-1.6-0.9-2.5-3.2-3.3c-2.7-1-4.4-2.4-4.4-4.8
			c0-2.6,2.2-4.6,5.4-4.6c1.7,0,3,0.4,3.7,0.8l-0.6,1.8c-0.5-0.3-1.7-0.8-3.2-0.8c-2.3,0-3.2,1.4-3.2,2.5c0,1.6,1,2.3,3.3,3.2
			c2.8,1.1,4.3,2.5,4.3,4.9c0,2.6-1.9,4.8-5.9,4.8c-1.6,0-3.4-0.5-4.3-1.1L4.1,57.1z"/>
		<path class="st2" d="M26.8,56.4c0,1.2,0,2.3,0.1,3.3h-1.9l-0.1-2h-0.1c-0.6,1-1.8,2.3-4,2.3c-1.9,0-4.2-1-4.2-5.3v-7.1h2.2v6.7
			c0,2.3,0.7,3.8,2.7,3.8c1.5,0,2.5-1,2.9-2c0.1-0.3,0.2-0.7,0.2-1.1v-7.4h2.2V56.4z"/>
		<path class="st2" d="M30.4,51.6c0-1.5-0.1-2.8-0.1-3.9h2l0.1,2.1h0.1c0.9-1.5,2.3-2.3,4.3-2.3c2.9,0,5.1,2.5,5.1,6.1
			c0,4.3-2.6,6.5-5.5,6.5c-1.6,0-3-0.7-3.7-1.9h0v6.6h-2.2V51.6z M32.6,54.8c0,0.3,0,0.6,0.1,0.9c0.4,1.5,1.7,2.6,3.3,2.6
			c2.3,0,3.7-1.9,3.7-4.7c0-2.4-1.3-4.5-3.6-4.5c-1.5,0-2.9,1.1-3.3,2.7c-0.1,0.3-0.1,0.6-0.1,0.9V54.8z"/>
		<path class="st2" d="M44.6,51.6c0-1.5-0.1-2.8-0.1-3.9h2l0.1,2.1h0.1c0.9-1.5,2.3-2.3,4.3-2.3c2.9,0,5.1,2.5,5.1,6.1
			c0,4.3-2.6,6.5-5.5,6.5c-1.6,0-3-0.7-3.7-1.9h0v6.6h-2.2V51.6z M46.8,54.8c0,0.3,0,0.6,0.1,0.9c0.4,1.5,1.7,2.6,3.3,2.6
			c2.3,0,3.7-1.9,3.7-4.7c0-2.4-1.3-4.5-3.6-4.5c-1.5,0-2.9,1.1-3.3,2.7c-0.1,0.3-0.1,0.6-0.1,0.9V54.8z"/>
		<path class="st2" d="M69.8,53.6c0,4.5-3.1,6.4-6,6.4c-3.3,0-5.8-2.4-5.8-6.2c0-4,2.6-6.4,6-6.4C67.5,47.3,69.8,49.9,69.8,53.6z
			 M60.2,53.7c0,2.6,1.5,4.6,3.7,4.6c2.1,0,3.7-2,3.7-4.7c0-2-1-4.6-3.6-4.6S60.2,51.4,60.2,53.7z"/>
		<path class="st2" d="M72.6,51.4c0-1.4,0-2.6-0.1-3.8h1.9l0.1,2.4h0.1c0.5-1.6,1.9-2.6,3.3-2.6c0.3,0,0.4,0,0.6,0.1v2.1
			c-0.2,0-0.4-0.1-0.8-0.1c-1.5,0-2.6,1.2-2.9,2.8c0,0.3-0.1,0.7-0.1,1v6.4h-2.2V51.4z"/>
		<path class="st2" d="M83.4,44.1v3.5h3.1v1.7h-3.1v6.5c0,1.5,0.4,2.3,1.6,2.3c0.6,0,1-0.1,1.3-0.1l0.1,1.6C86,59.8,85.3,60,84.5,60
			c-1,0-1.8-0.3-2.4-0.9c-0.6-0.6-0.8-1.7-0.8-3.1v-6.6h-1.9v-1.7h1.9v-2.9L83.4,44.1z"/>
	</g>
	<g class="st0">
		<defs>
			<rect id="SVGID_5_" y="0" width="126.3" height="89.8"/>
		</defs>
		<clipPath id="SVGID_6_">
			<use xlink:href="#SVGID_5_"  style="overflow:visible;"/>
		</clipPath>
		<g class="st3">
			<g>
				<defs>
					<rect id="SVGID_7_" x="55.7" y="13.9" width="70.6" height="76"/>
				</defs>
				<clipPath id="SVGID_8_">
					<use xlink:href="#SVGID_7_"  style="overflow:visible;"/>
				</clipPath>
				<path class="st4" d="M56.5,53.3c-0.2,0-0.3,0.2-0.3,0.3s0.2,0.3,0.3,0.3c0.2,0,0.3-0.2,0.3-0.3S56.7,53.3,56.5,53.3"/>
				<circle class="st5" cx="56.5" cy="53.6" r="0.3"/>
				<path class="st4" d="M56.5,49.7c-0.2,0-0.3,0.2-0.3,0.3c0,0.2,0.2,0.3,0.3,0.3c0.2,0,0.3-0.2,0.3-0.3
					C56.8,49.9,56.7,49.7,56.5,49.7"/>
				<circle class="st5" cx="56.5" cy="50.1" r="0.3"/>
				<path class="st4" d="M56.5,42.6c-0.1,0-0.2,0-0.2,0.1c0,0.1,0,0.2-0.1,0.3c0,0.1,0.2,0.2,0.3,0.2c0.2,0,0.3-0.2,0.3-0.3
					C56.8,42.7,56.7,42.6,56.5,42.6"/>
				<path class="st5" d="M56.5,42.6c-0.1,0-0.2,0-0.2,0.1c0,0.1,0,0.2-0.1,0.3c0,0.1,0.2,0.2,0.3,0.2c0.2,0,0.3-0.2,0.3-0.3
					C56.8,42.7,56.7,42.6,56.5,42.6z"/>
				<path class="st4" d="M56.5,46.1C56.5,46.1,56.4,46.1,56.5,46.1L56.5,46.1c-0.1,0-0.1,0-0.1,0c0,0,0,0,0,0c0,0,0,0-0.1,0
					c0,0,0,0,0,0c-0.1,0.1-0.1,0.2-0.1,0.3c0,0.1,0,0.2,0.1,0.3c0,0,0,0,0,0c0,0,0.1,0,0.1,0c0,0,0,0,0,0c0,0,0.1,0,0.1,0
					c0.2,0,0.3-0.2,0.3-0.3C56.8,46.3,56.7,46.1,56.5,46.1"/>
				<path class="st5" d="M56.5,46.1C56.5,46.1,56.4,46.1,56.5,46.1L56.5,46.1c-0.1,0-0.1,0-0.1,0c0,0,0,0,0,0c0,0,0,0-0.1,0
					c0,0,0,0,0,0c-0.1,0.1-0.1,0.2-0.1,0.3c0,0.1,0,0.2,0.1,0.3c0,0,0,0,0,0c0,0,0.1,0,0.1,0c0,0,0,0,0,0c0,0,0.1,0,0.1,0
					c0.2,0,0.3-0.2,0.3-0.3C56.8,46.3,56.7,46.1,56.5,46.1z"/>
				<path class="st4" d="M56.5,56.9L56.5,56.9c0,0-0.1,0-0.1,0c0,0,0,0,0,0c0,0-0.1,0-0.1,0c0,0,0,0,0,0c-0.1,0.1-0.1,0.2-0.1,0.3
					c0,0.1,0,0.2,0.1,0.3c0,0,0,0,0,0c0,0,0,0,0.1,0c0,0,0,0,0,0c0,0,0,0,0.1,0l0,0c0,0,0,0,0.1,0c0.2,0,0.3-0.2,0.3-0.3
					C56.8,57,56.7,56.9,56.5,56.9"/>
				<path class="st5" d="M56.5,56.9L56.5,56.9c0,0-0.1,0-0.1,0c0,0,0,0,0,0c0,0-0.1,0-0.1,0c0,0,0,0,0,0c-0.1,0.1-0.1,0.2-0.1,0.3
					c0,0.1,0,0.2,0.1,0.3c0,0,0,0,0,0c0,0,0,0,0.1,0c0,0,0,0,0,0c0,0,0,0,0.1,0l0,0c0,0,0,0,0.1,0c0.2,0,0.3-0.2,0.3-0.3
					C56.8,57,56.7,56.9,56.5,56.9z"/>
				<path class="st4" d="M61.1,35.4c-0.2,0-0.3,0.2-0.3,0.3s0.2,0.3,0.3,0.3c0.2,0,0.3-0.2,0.3-0.3S61.3,35.4,61.1,35.4"/>
				<circle class="st5" cx="61.1" cy="35.8" r="0.3"/>
				<path class="st4" d="M61.1,39c-0.2,0-0.3,0.2-0.3,0.3s0.2,0.3,0.3,0.3c0.2,0,0.3-0.2,0.3-0.3S61.3,39,61.1,39"/>
				<circle class="st5" cx="61.1" cy="39.3" r="0.3"/>
				<path class="st4" d="M61.1,53.3c-0.2,0-0.3,0.2-0.3,0.3s0.2,0.3,0.3,0.3c0.2,0,0.3-0.2,0.3-0.3S61.3,53.3,61.1,53.3"/>
				<circle class="st5" cx="61.1" cy="53.6" r="0.3"/>
				<path class="st4" d="M61.1,56.9c-0.2,0-0.3,0.2-0.3,0.3c0,0.2,0.2,0.3,0.3,0.3c0.2,0,0.3-0.2,0.3-0.3
					C61.4,57,61.3,56.9,61.1,56.9"/>
				<circle class="st5" cx="61.1" cy="57.2" r="0.3"/>
				<path class="st4" d="M61.1,42.6c-0.2,0-0.3,0.2-0.3,0.3c0,0.2,0.2,0.3,0.3,0.3c0.2,0,0.3-0.2,0.3-0.3
					C61.4,42.7,61.3,42.6,61.1,42.6"/>
				<circle class="st5" cx="61.1" cy="42.9" r="0.3"/>
				<path class="st4" d="M61.1,49.7c-0.2,0-0.3,0.2-0.3,0.3c0,0.2,0.2,0.3,0.3,0.3c0.2,0,0.3-0.2,0.3-0.3
					C61.4,49.9,61.3,49.7,61.1,49.7"/>
				<circle class="st5" cx="61.1" cy="50.1" r="0.3"/>
				<path class="st4" d="M61.1,46.1c-0.2,0-0.3,0.2-0.3,0.3c0,0.2,0.2,0.3,0.3,0.3c0.2,0,0.3-0.2,0.3-0.3
					C61.4,46.3,61.3,46.1,61.1,46.1"/>
				<circle class="st5" cx="61.1" cy="46.5" r="0.3"/>
				<path class="st4" d="M65.7,42.6c-0.2,0-0.3,0.2-0.3,0.3c0,0.2,0.2,0.3,0.3,0.3c0.2,0,0.3-0.2,0.3-0.3
					C66,42.7,65.9,42.6,65.7,42.6"/>
				<circle class="st5" cx="65.7" cy="42.9" r="0.3"/>
				<path class="st4" d="M65.7,49.7c-0.2,0-0.3,0.2-0.3,0.3c0,0.2,0.2,0.3,0.3,0.3c0.2,0,0.3-0.2,0.3-0.3
					C66,49.9,65.9,49.7,65.7,49.7"/>
				<circle class="st5" cx="65.7" cy="50.1" r="0.3"/>
				<path class="st4" d="M65.7,46.1c-0.2,0-0.3,0.2-0.3,0.3c0,0.2,0.2,0.3,0.3,0.3c0.2,0,0.3-0.2,0.3-0.3
					C66,46.3,65.9,46.1,65.7,46.1"/>
				<circle class="st5" cx="65.7" cy="46.5" r="0.3"/>
				<path class="st4" d="M65.7,31.9c-0.2,0-0.3,0.2-0.3,0.3c0,0.2,0.2,0.3,0.3,0.3c0.2,0,0.3-0.2,0.3-0.3C66,32,65.9,31.9,65.7,31.9
					"/>
				<circle class="st5" cx="65.7" cy="32.2" r="0.3"/>
				<path class="st4" d="M65.7,39c-0.2,0-0.3,0.2-0.3,0.3s0.2,0.3,0.3,0.3c0.2,0,0.3-0.2,0.3-0.3S65.9,39,65.7,39"/>
				<circle class="st5" cx="65.7" cy="39.3" r="0.3"/>
				<path class="st4" d="M65.7,53.3c-0.2,0-0.3,0.2-0.3,0.3s0.2,0.3,0.3,0.3c0.2,0,0.3-0.2,0.3-0.3S65.9,53.3,65.7,53.3"/>
				<circle class="st5" cx="65.7" cy="53.6" r="0.3"/>
				<path class="st4" d="M65.7,35.4c-0.2,0-0.3,0.2-0.3,0.3s0.2,0.3,0.3,0.3c0.2,0,0.3-0.2,0.3-0.3S65.9,35.4,65.7,35.4"/>
				<circle class="st5" cx="65.7" cy="35.8" r="0.3"/>
				<path class="st4" d="M65.5,25.3c0.1,0.1,0.1,0.1,0.2,0.1c0.2,0,0.3-0.2,0.3-0.3c0-0.1,0-0.2-0.1-0.2
					C65.8,25,65.6,25.1,65.5,25.3"/>
				<path class="st5" d="M65.5,25.3c0.1,0.1,0.1,0.1,0.2,0.1c0.2,0,0.3-0.2,0.3-0.3c0-0.1,0-0.2-0.1-0.2
					C65.8,25,65.6,25.1,65.5,25.3z"/>
				<path class="st4" d="M65.7,28.3c-0.2,0-0.3,0.2-0.3,0.3c0,0.2,0.2,0.3,0.3,0.3c0.2,0,0.3-0.2,0.3-0.3
					C66,28.4,65.9,28.3,65.7,28.3"/>
				<circle class="st5" cx="65.7" cy="28.6" r="0.3"/>
				<path class="st4" d="M65.7,56.9c-0.2,0-0.3,0.2-0.3,0.3c0,0.2,0.2,0.3,0.3,0.3c0.2,0,0.3-0.2,0.3-0.3C66,57,65.9,56.9,65.7,56.9
					"/>
				<circle class="st5" cx="65.7" cy="57.2" r="0.3"/>
				<path class="st4" d="M70.3,42.6c-0.2,0-0.3,0.2-0.3,0.3c0,0.2,0.2,0.3,0.3,0.3c0.2,0,0.3-0.2,0.3-0.3
					C70.6,42.7,70.5,42.6,70.3,42.6"/>
				<circle class="st5" cx="70.3" cy="42.9" r="0.3"/>
				<path class="st4" d="M70.3,49.7c-0.2,0-0.3,0.2-0.3,0.3c0,0.2,0.2,0.3,0.3,0.3c0.2,0,0.3-0.2,0.3-0.3
					C70.6,49.9,70.5,49.7,70.3,49.7"/>
				<circle class="st5" cx="70.3" cy="50.1" r="0.3"/>
				<path class="st4" d="M70.3,46.1c-0.2,0-0.3,0.2-0.3,0.3c0,0.2,0.2,0.3,0.3,0.3c0.2,0,0.3-0.2,0.3-0.3
					C70.6,46.3,70.5,46.1,70.3,46.1"/>
				<circle class="st5" cx="70.3" cy="46.5" r="0.3"/>
				<path class="st4" d="M70.3,35.4c-0.2,0-0.3,0.2-0.3,0.3s0.2,0.3,0.3,0.3c0.2,0,0.3-0.2,0.3-0.3S70.5,35.4,70.3,35.4"/>
				<circle class="st5" cx="70.3" cy="35.8" r="0.3"/>
				<path class="st4" d="M70.3,24.7c-0.2,0-0.3,0.2-0.3,0.3c0,0.2,0.2,0.3,0.3,0.3c0.2,0,0.3-0.2,0.3-0.3
					C70.6,24.9,70.5,24.7,70.3,24.7"/>
				<circle class="st5" cx="70.3" cy="25.1" r="0.3"/>
				<path class="st4" d="M70.3,28.3c-0.2,0-0.3,0.2-0.3,0.3c0,0.2,0.2,0.3,0.3,0.3c0.2,0,0.3-0.2,0.3-0.3
					C70.6,28.4,70.5,28.3,70.3,28.3"/>
				<circle class="st5" cx="70.3" cy="28.6" r="0.3"/>
				<path class="st4" d="M70.3,31.9c-0.2,0-0.3,0.2-0.3,0.3c0,0.2,0.2,0.3,0.3,0.3c0.2,0,0.3-0.2,0.3-0.3
					C70.6,32,70.5,31.9,70.3,31.9"/>
				<circle class="st5" cx="70.3" cy="32.2" r="0.3"/>
				<path class="st4" d="M70.3,39c-0.2,0-0.3,0.2-0.3,0.3s0.2,0.3,0.3,0.3c0.2,0,0.3-0.2,0.3-0.3S70.5,39,70.3,39"/>
				<circle class="st5" cx="70.3" cy="39.3" r="0.3"/>
				<path class="st4" d="M70.3,56.9c-0.2,0-0.3,0.2-0.3,0.3c0,0.2,0.2,0.3,0.3,0.3c0.2,0,0.3-0.2,0.3-0.3
					C70.6,57,70.5,56.9,70.3,56.9"/>
				<circle class="st5" cx="70.3" cy="57.2" r="0.3"/>
				<path class="st4" d="M70.3,53.3c-0.2,0-0.3,0.2-0.3,0.3s0.2,0.3,0.3,0.3c0.2,0,0.3-0.2,0.3-0.3S70.5,53.3,70.3,53.3"/>
				<circle class="st5" cx="70.3" cy="53.6" r="0.3"/>
				<path class="st4" d="M70.3,21.1C70.3,21.1,70.3,21.1,70.3,21.1c-0.1,0.1-0.2,0.1-0.3,0.2c0,0,0,0.1,0,0.1c0,0.2,0.2,0.3,0.3,0.3
					c0.2,0,0.3-0.2,0.3-0.3C70.6,21.3,70.5,21.1,70.3,21.1"/>
				<path class="st5" d="M70.3,21.1C70.3,21.1,70.3,21.1,70.3,21.1c-0.1,0.1-0.2,0.1-0.3,0.2c0,0,0,0.1,0,0.1c0,0.2,0.2,0.3,0.3,0.3
					c0.2,0,0.3-0.2,0.3-0.3C70.6,21.3,70.5,21.1,70.3,21.1z"/>
				<path class="st4" d="M74.9,56.9c-0.2,0-0.3,0.2-0.3,0.3c0,0.2,0.2,0.3,0.3,0.3c0.2,0,0.3-0.2,0.3-0.3
					C75.2,57,75.1,56.9,74.9,56.9"/>
				<circle class="st5" cx="74.9" cy="57.2" r="0.3"/>
				<path class="st4" d="M74.9,53.3c-0.2,0-0.3,0.2-0.3,0.3s0.2,0.3,0.3,0.3c0.2,0,0.3-0.2,0.3-0.3S75.1,53.3,74.9,53.3"/>
				<circle class="st5" cx="74.9" cy="53.6" r="0.3"/>
				<path class="st4" d="M74.9,31.9c-0.2,0-0.3,0.2-0.3,0.3c0,0.2,0.2,0.3,0.3,0.3c0.2,0,0.3-0.2,0.3-0.3
					C75.2,32,75.1,31.9,74.9,31.9"/>
				<circle class="st5" cx="74.9" cy="32.2" r="0.3"/>
				<path class="st4" d="M74.9,28.3c-0.2,0-0.3,0.2-0.3,0.3c0,0.2,0.2,0.3,0.3,0.3c0.2,0,0.3-0.2,0.3-0.3
					C75.2,28.4,75.1,28.3,74.9,28.3"/>
				<circle class="st5" cx="74.9" cy="28.6" r="0.3"/>
				<path class="st4" d="M74.9,35.4c-0.2,0-0.3,0.2-0.3,0.3s0.2,0.3,0.3,0.3c0.2,0,0.3-0.2,0.3-0.3S75.1,35.4,74.9,35.4"/>
				<circle class="st5" cx="74.9" cy="35.8" r="0.3"/>
				<path class="st4" d="M74.9,49.7c-0.2,0-0.3,0.2-0.3,0.3c0,0.2,0.2,0.3,0.3,0.3c0.2,0,0.3-0.2,0.3-0.3
					C75.2,49.9,75.1,49.7,74.9,49.7"/>
				<circle class="st5" cx="74.9" cy="50.1" r="0.3"/>
				<path class="st4" d="M74.9,46.1c-0.2,0-0.3,0.2-0.3,0.3c0,0.2,0.2,0.3,0.3,0.3c0.2,0,0.3-0.2,0.3-0.3
					C75.2,46.3,75.1,46.1,74.9,46.1"/>
				<circle class="st5" cx="74.9" cy="46.5" r="0.3"/>
				<path class="st4" d="M74.9,42.6c-0.2,0-0.3,0.2-0.3,0.3c0,0.2,0.2,0.3,0.3,0.3c0.2,0,0.3-0.2,0.3-0.3
					C75.2,42.7,75.1,42.6,74.9,42.6"/>
				<circle class="st5" cx="74.9" cy="42.9" r="0.3"/>
				<path class="st4" d="M74.9,39c-0.2,0-0.3,0.2-0.3,0.3s0.2,0.3,0.3,0.3c0.2,0,0.3-0.2,0.3-0.3S75.1,39,74.9,39"/>
				<circle class="st5" cx="74.9" cy="39.3" r="0.3"/>
				<path class="st4" d="M74.9,24.7c-0.2,0-0.3,0.2-0.3,0.3c0,0.2,0.2,0.3,0.3,0.3c0.2,0,0.3-0.2,0.3-0.3
					C75.2,24.9,75.1,24.7,74.9,24.7"/>
				<circle class="st5" cx="74.9" cy="25.1" r="0.3"/>
				<path class="st4" d="M74.9,21.1c-0.2,0-0.3,0.2-0.3,0.3c0,0.2,0.2,0.3,0.3,0.3c0.2,0,0.3-0.2,0.3-0.3
					C75.2,21.3,75.1,21.1,74.9,21.1"/>
				<circle class="st5" cx="74.9" cy="21.5" r="0.3"/>
				<path class="st4" d="M79.5,53.3c-0.2,0-0.3,0.2-0.3,0.3s0.2,0.3,0.3,0.3c0.2,0,0.3-0.2,0.3-0.3S79.7,53.3,79.5,53.3"/>
				<circle class="st5" cx="79.5" cy="53.6" r="0.3"/>
				<path class="st4" d="M79.5,49.7c-0.2,0-0.3,0.2-0.3,0.3c0,0.2,0.2,0.3,0.3,0.3c0.2,0,0.3-0.2,0.3-0.3
					C79.8,49.9,79.7,49.7,79.5,49.7"/>
				<circle class="st5" cx="79.5" cy="50.1" r="0.3"/>
				<path class="st4" d="M79.5,56.9c-0.2,0-0.3,0.2-0.3,0.3c0,0.2,0.2,0.3,0.3,0.3c0.2,0,0.3-0.2,0.3-0.3
					C79.8,57,79.7,56.9,79.5,56.9"/>
				<circle class="st5" cx="79.5" cy="57.2" r="0.3"/>
				<path class="st4" d="M79.5,42.6c-0.2,0-0.3,0.2-0.3,0.3c0,0.2,0.2,0.3,0.3,0.3c0.2,0,0.3-0.2,0.3-0.3
					C79.8,42.7,79.7,42.6,79.5,42.6"/>
				<circle class="st5" cx="79.5" cy="42.9" r="0.3"/>
				<path class="st4" d="M79.5,46.1c-0.2,0-0.3,0.2-0.3,0.3c0,0.2,0.2,0.3,0.3,0.3c0.2,0,0.3-0.2,0.3-0.3
					C79.8,46.3,79.7,46.1,79.5,46.1"/>
				<circle class="st5" cx="79.5" cy="46.5" r="0.3"/>
				<path class="st4" d="M79.5,39c-0.2,0-0.3,0.2-0.3,0.3s0.2,0.3,0.3,0.3c0.2,0,0.3-0.2,0.3-0.3S79.7,39,79.5,39"/>
				<circle class="st5" cx="79.5" cy="39.3" r="0.3"/>
				<path class="st4" d="M79.5,24.7c-0.2,0-0.3,0.2-0.3,0.3c0,0.2,0.2,0.3,0.3,0.3c0.2,0,0.3-0.2,0.3-0.3
					C79.8,24.9,79.7,24.7,79.5,24.7"/>
				<circle class="st5" cx="79.5" cy="25.1" r="0.3"/>
				<path class="st4" d="M79.5,17.6c-0.2,0-0.3,0.2-0.3,0.3c0,0.2,0.2,0.3,0.3,0.3c0.2,0,0.3-0.2,0.3-0.3
					C79.8,17.7,79.7,17.6,79.5,17.6"/>
				<circle class="st5" cx="79.5" cy="17.9" r="0.3"/>
				<path class="st4" d="M79.5,21.1c-0.2,0-0.3,0.2-0.3,0.3c0,0.2,0.2,0.3,0.3,0.3c0.2,0,0.3-0.2,0.3-0.3
					C79.8,21.3,79.7,21.1,79.5,21.1"/>
				<circle class="st5" cx="79.5" cy="21.5" r="0.3"/>
				<path class="st4" d="M79.5,35.4c-0.2,0-0.3,0.2-0.3,0.3s0.2,0.3,0.3,0.3c0.2,0,0.3-0.2,0.3-0.3S79.7,35.4,79.5,35.4"/>
				<circle class="st5" cx="79.5" cy="35.8" r="0.3"/>
				<path class="st4" d="M79.5,28.3c-0.2,0-0.3,0.2-0.3,0.3c0,0.2,0.2,0.3,0.3,0.3c0.2,0,0.3-0.2,0.3-0.3
					C79.8,28.4,79.7,28.3,79.5,28.3"/>
				<circle class="st5" cx="79.5" cy="28.6" r="0.3"/>
				<path class="st4" d="M79.5,31.9c-0.2,0-0.3,0.2-0.3,0.3c0,0.2,0.2,0.3,0.3,0.3c0.2,0,0.3-0.2,0.3-0.3
					C79.8,32,79.7,31.9,79.5,31.9"/>
				<circle class="st5" cx="79.5" cy="32.2" r="0.3"/>
				<path class="st4" d="M84.1,42.6c-0.2,0-0.3,0.2-0.3,0.3c0,0.2,0.2,0.3,0.3,0.3c0.2,0,0.3-0.2,0.3-0.3
					C84.4,42.7,84.3,42.6,84.1,42.6"/>
				<circle class="st5" cx="84.1" cy="42.9" r="0.3"/>
				<path class="st4" d="M84.1,39c-0.2,0-0.3,0.2-0.3,0.3s0.2,0.3,0.3,0.3c0.2,0,0.3-0.2,0.3-0.3S84.3,39,84.1,39"/>
				<circle class="st5" cx="84.1" cy="39.3" r="0.3"/>
				<path class="st4" d="M84.1,17.6c-0.2,0-0.3,0.2-0.3,0.3c0,0.2,0.2,0.3,0.3,0.3c0.2,0,0.3-0.2,0.3-0.3
					C84.4,17.7,84.3,17.6,84.1,17.6"/>
				<circle class="st5" cx="84.1" cy="17.9" r="0.3"/>
				<path class="st4" d="M84.1,35.4c-0.2,0-0.3,0.2-0.3,0.3s0.2,0.3,0.3,0.3c0.2,0,0.3-0.2,0.3-0.3S84.3,35.4,84.1,35.4"/>
				<circle class="st5" cx="84.1" cy="35.8" r="0.3"/>
				<path class="st4" d="M84.1,49.7c-0.2,0-0.3,0.2-0.3,0.3c0,0.2,0.2,0.3,0.3,0.3c0.2,0,0.3-0.2,0.3-0.3
					C84.4,49.9,84.3,49.7,84.1,49.7"/>
				<circle class="st5" cx="84.1" cy="50.1" r="0.3"/>
				<path class="st4" d="M84.1,28.3c-0.2,0-0.3,0.2-0.3,0.3c0,0.2,0.2,0.3,0.3,0.3c0.2,0,0.3-0.2,0.3-0.3
					C84.4,28.4,84.3,28.3,84.1,28.3"/>
				<circle class="st5" cx="84.1" cy="28.6" r="0.3"/>
				<path class="st4" d="M84.1,24.7c-0.2,0-0.3,0.2-0.3,0.3c0,0.2,0.2,0.3,0.3,0.3c0.2,0,0.3-0.2,0.3-0.3
					C84.4,24.9,84.3,24.7,84.1,24.7"/>
				<circle class="st5" cx="84.1" cy="25.1" r="0.3"/>
				<path class="st4" d="M84.1,31.9c-0.2,0-0.3,0.2-0.3,0.3c0,0.2,0.2,0.3,0.3,0.3c0.2,0,0.3-0.2,0.3-0.3
					C84.4,32,84.3,31.9,84.1,31.9"/>
				<circle class="st5" cx="84.1" cy="32.2" r="0.3"/>
				<path class="st4" d="M84.1,53.3c-0.2,0-0.3,0.2-0.3,0.3s0.2,0.3,0.3,0.3c0.2,0,0.3-0.2,0.3-0.3S84.3,53.3,84.1,53.3"/>
				<circle class="st5" cx="84.1" cy="53.6" r="0.3"/>
				<path class="st4" d="M84.1,46.1c-0.2,0-0.3,0.2-0.3,0.3c0,0.2,0.2,0.3,0.3,0.3c0.2,0,0.3-0.2,0.3-0.3
					C84.4,46.3,84.3,46.1,84.1,46.1"/>
				<circle class="st5" cx="84.1" cy="46.5" r="0.3"/>
				<path class="st4" d="M84.1,56.9c-0.2,0-0.3,0.2-0.3,0.3c0,0.2,0.2,0.3,0.3,0.3c0.2,0,0.3-0.2,0.3-0.3
					C84.4,57,84.3,56.9,84.1,56.9"/>
				<circle class="st5" cx="84.1" cy="57.2" r="0.3"/>
				<path class="st4" d="M84.1,21.1c-0.2,0-0.3,0.2-0.3,0.3c0,0.2,0.2,0.3,0.3,0.3c0.2,0,0.3-0.2,0.3-0.3
					C84.4,21.3,84.3,21.1,84.1,21.1"/>
				<circle class="st5" cx="84.1" cy="21.5" r="0.3"/>
				<path class="st4" d="M88.7,14.7c0.1,0,0.2,0,0.2-0.1c0,0,0.1-0.1,0.1-0.2c-0.2,0-0.4,0-0.6,0c0,0,0,0.1,0.1,0.1
					C88.5,14.6,88.6,14.7,88.7,14.7"/>
				<path class="st5" d="M88.7,14.7c0.1,0,0.2,0,0.2-0.1c0,0,0.1-0.1,0.1-0.2c-0.2,0-0.4,0-0.6,0c0,0,0,0.1,0.1,0.1
					C88.5,14.6,88.6,14.7,88.7,14.7z"/>
				<path class="st4" d="M88.7,49.7c-0.2,0-0.3,0.2-0.3,0.3c0,0.2,0.2,0.3,0.3,0.3c0.2,0,0.3-0.2,0.3-0.3
					C89,49.9,88.9,49.7,88.7,49.7"/>
				<circle class="st5" cx="88.7" cy="50.1" r="0.3"/>
				<path class="st4" d="M88.7,46.1c-0.2,0-0.3,0.2-0.3,0.3c0,0.2,0.2,0.3,0.3,0.3c0.2,0,0.3-0.2,0.3-0.3
					C89,46.3,88.9,46.1,88.7,46.1"/>
				<circle class="st5" cx="88.7" cy="46.5" r="0.3"/>
				<path class="st4" d="M88.7,42.6c-0.2,0-0.3,0.2-0.3,0.3c0,0.2,0.2,0.3,0.3,0.3c0.2,0,0.3-0.2,0.3-0.3
					C89,42.7,88.9,42.6,88.7,42.6"/>
				<circle class="st5" cx="88.7" cy="42.9" r="0.3"/>
				<path class="st4" d="M88.7,53.3c-0.2,0-0.3,0.2-0.3,0.3s0.2,0.3,0.3,0.3c0.2,0,0.3-0.2,0.3-0.3S88.9,53.3,88.7,53.3"/>
				<circle class="st5" cx="88.7" cy="53.6" r="0.3"/>
				<path class="st4" d="M88.7,56.9c-0.2,0-0.3,0.2-0.3,0.3c0,0.2,0.2,0.3,0.3,0.3c0.2,0,0.3-0.2,0.3-0.3C89,57,88.9,56.9,88.7,56.9
					"/>
				<circle class="st5" cx="88.7" cy="57.2" r="0.3"/>
				<path class="st4" d="M88.7,17.6c-0.2,0-0.3,0.2-0.3,0.3c0,0.2,0.2,0.3,0.3,0.3c0.2,0,0.3-0.2,0.3-0.3
					C89,17.7,88.9,17.6,88.7,17.6"/>
				<circle class="st5" cx="88.7" cy="17.9" r="0.3"/>
				<path class="st4" d="M88.7,21.1c-0.2,0-0.3,0.2-0.3,0.3c0,0.2,0.2,0.3,0.3,0.3c0.2,0,0.3-0.2,0.3-0.3
					C89,21.3,88.9,21.1,88.7,21.1"/>
				<circle class="st5" cx="88.7" cy="21.5" r="0.3"/>
				<path class="st4" d="M88.7,28.3c-0.2,0-0.3,0.2-0.3,0.3c0,0.2,0.2,0.3,0.3,0.3c0.2,0,0.3-0.2,0.3-0.3
					C89,28.4,88.9,28.3,88.7,28.3"/>
				<circle class="st5" cx="88.7" cy="28.6" r="0.3"/>
				<path class="st4" d="M88.7,31.9c-0.2,0-0.3,0.2-0.3,0.3c0,0.2,0.2,0.3,0.3,0.3c0.2,0,0.3-0.2,0.3-0.3C89,32,88.9,31.9,88.7,31.9
					"/>
				<circle class="st5" cx="88.7" cy="32.2" r="0.3"/>
				<path class="st4" d="M88.7,35.4c-0.2,0-0.3,0.2-0.3,0.3s0.2,0.3,0.3,0.3c0.2,0,0.3-0.2,0.3-0.3S88.9,35.4,88.7,35.4"/>
				<circle class="st5" cx="88.7" cy="35.8" r="0.3"/>
				<path class="st4" d="M88.7,39c-0.2,0-0.3,0.2-0.3,0.3s0.2,0.3,0.3,0.3c0.2,0,0.3-0.2,0.3-0.3S88.9,39,88.7,39"/>
				<circle class="st5" cx="88.7" cy="39.3" r="0.3"/>
				<path class="st4" d="M88.7,24.7c-0.2,0-0.3,0.2-0.3,0.3c0,0.2,0.2,0.3,0.3,0.3c0.2,0,0.3-0.2,0.3-0.3
					C89,24.9,88.9,24.7,88.7,24.7"/>
				<circle class="st5" cx="88.7" cy="25.1" r="0.3"/>
				<path class="st4" d="M93.3,14.7c0.1,0,0.2,0,0.2-0.1c0,0,0.1-0.1,0.1-0.2c-0.2,0-0.4,0-0.7,0c0,0.1,0,0.1,0.1,0.2
					C93.1,14.6,93.2,14.7,93.3,14.7"/>
				<path class="st5" d="M93.3,14.7c0.1,0,0.2,0,0.2-0.1c0,0,0.1-0.1,0.1-0.2c-0.2,0-0.4,0-0.7,0c0,0.1,0,0.1,0.1,0.2
					C93.1,14.6,93.2,14.7,93.3,14.7z"/>
				<path class="st4" d="M93.3,46.1c-0.2,0-0.3,0.2-0.3,0.3c0,0.2,0.2,0.3,0.3,0.3c0.2,0,0.3-0.2,0.3-0.3
					C93.6,46.3,93.4,46.1,93.3,46.1"/>
				<circle class="st5" cx="93.3" cy="46.5" r="0.3"/>
				<path class="st4" d="M93.3,42.6c-0.2,0-0.3,0.2-0.3,0.3c0,0.2,0.2,0.3,0.3,0.3c0.2,0,0.3-0.2,0.3-0.3
					C93.6,42.7,93.4,42.6,93.3,42.6"/>
				<circle class="st5" cx="93.3" cy="42.9" r="0.3"/>
				<path class="st4" d="M93.3,35.4c-0.2,0-0.3,0.2-0.3,0.3s0.2,0.3,0.3,0.3c0.2,0,0.3-0.2,0.3-0.3S93.4,35.4,93.3,35.4"/>
				<circle class="st5" cx="93.3" cy="35.8" r="0.3"/>
				<path class="st4" d="M93.3,31.9c-0.2,0-0.3,0.2-0.3,0.3c0,0.2,0.2,0.3,0.3,0.3c0.2,0,0.3-0.2,0.3-0.3
					C93.6,32,93.4,31.9,93.3,31.9"/>
				<circle class="st5" cx="93.3" cy="32.2" r="0.3"/>
				<path class="st4" d="M93.3,28.3c-0.2,0-0.3,0.2-0.3,0.3c0,0.2,0.2,0.3,0.3,0.3c0.2,0,0.3-0.2,0.3-0.3
					C93.6,28.4,93.4,28.3,93.3,28.3"/>
				<circle class="st5" cx="93.3" cy="28.6" r="0.3"/>
				<path class="st4" d="M93.3,53.3c-0.2,0-0.3,0.2-0.3,0.3s0.2,0.3,0.3,0.3c0.2,0,0.3-0.2,0.3-0.3S93.4,53.3,93.3,53.3"/>
				<circle class="st5" cx="93.3" cy="53.6" r="0.3"/>
				<path class="st4" d="M93.3,49.7c-0.2,0-0.3,0.2-0.3,0.3c0,0.2,0.2,0.3,0.3,0.3c0.2,0,0.3-0.2,0.3-0.3
					C93.6,49.9,93.4,49.7,93.3,49.7"/>
				<circle class="st5" cx="93.3" cy="50.1" r="0.3"/>
				<path class="st4" d="M93.3,56.9c-0.2,0-0.3,0.2-0.3,0.3c0,0.2,0.2,0.3,0.3,0.3c0.2,0,0.3-0.2,0.3-0.3
					C93.6,57,93.4,56.9,93.3,56.9"/>
				<circle class="st5" cx="93.3" cy="57.2" r="0.3"/>
				<path class="st4" d="M93.3,24.7c-0.2,0-0.3,0.2-0.3,0.3c0,0.2,0.2,0.3,0.3,0.3c0.2,0,0.3-0.2,0.3-0.3
					C93.6,24.9,93.4,24.7,93.3,24.7"/>
				<circle class="st5" cx="93.3" cy="25.1" r="0.3"/>
				<path class="st4" d="M93.3,39c-0.2,0-0.3,0.2-0.3,0.3s0.2,0.3,0.3,0.3c0.2,0,0.3-0.2,0.3-0.3S93.4,39,93.3,39"/>
				<circle class="st5" cx="93.3" cy="39.3" r="0.3"/>
				<path class="st4" d="M93.3,21.1c-0.2,0-0.3,0.2-0.3,0.3c0,0.2,0.2,0.3,0.3,0.3c0.2,0,0.3-0.2,0.3-0.3
					C93.6,21.3,93.4,21.1,93.3,21.1"/>
				<circle class="st5" cx="93.3" cy="21.5" r="0.3"/>
				<path class="st4" d="M93.3,17.6c-0.2,0-0.3,0.2-0.3,0.3c0,0.2,0.2,0.3,0.3,0.3c0.2,0,0.3-0.2,0.3-0.3
					C93.6,17.7,93.4,17.6,93.3,17.6"/>
				<circle class="st5" cx="93.3" cy="17.9" r="0.3"/>
				<path class="st4" d="M97.9,56.9c-0.2,0-0.3,0.2-0.3,0.3c0,0.2,0.2,0.3,0.3,0.3c0.2,0,0.3-0.2,0.3-0.3C98.2,57,98,56.9,97.9,56.9
					"/>
				<circle class="st5" cx="97.9" cy="57.2" r="0.3"/>
				<path class="st4" d="M97.9,42.6c-0.2,0-0.3,0.2-0.3,0.3c0,0.2,0.2,0.3,0.3,0.3c0.2,0,0.3-0.2,0.3-0.3
					C98.2,42.7,98,42.6,97.9,42.6"/>
				<circle class="st5" cx="97.9" cy="42.9" r="0.3"/>
				<path class="st4" d="M97.9,53.3c-0.2,0-0.3,0.2-0.3,0.3s0.2,0.3,0.3,0.3c0.2,0,0.3-0.2,0.3-0.3S98,53.3,97.9,53.3"/>
				<circle class="st5" cx="97.9" cy="53.6" r="0.3"/>
				<path class="st4" d="M97.9,46.1c-0.2,0-0.3,0.2-0.3,0.3c0,0.2,0.2,0.3,0.3,0.3c0.2,0,0.3-0.2,0.3-0.3
					C98.2,46.3,98,46.1,97.9,46.1"/>
				<circle class="st5" cx="97.9" cy="46.5" r="0.3"/>
				<path class="st4" d="M97.9,39c-0.2,0-0.3,0.2-0.3,0.3s0.2,0.3,0.3,0.3c0.2,0,0.3-0.2,0.3-0.3S98,39,97.9,39"/>
				<circle class="st5" cx="97.9" cy="39.3" r="0.3"/>
				<path class="st4" d="M97.9,49.7c-0.2,0-0.3,0.2-0.3,0.3c0,0.2,0.2,0.3,0.3,0.3c0.2,0,0.3-0.2,0.3-0.3
					C98.2,49.9,98,49.7,97.9,49.7"/>
				<circle class="st5" cx="97.9" cy="50.1" r="0.3"/>
				<path class="st4" d="M97.9,24.7c-0.2,0-0.3,0.2-0.3,0.3c0,0.2,0.2,0.3,0.3,0.3c0.2,0,0.3-0.2,0.3-0.3
					C98.2,24.9,98,24.7,97.9,24.7"/>
				<circle class="st5" cx="97.9" cy="25.1" r="0.3"/>
				<path class="st4" d="M97.9,17.6c-0.2,0-0.3,0.2-0.3,0.3c0,0.2,0.2,0.3,0.3,0.3c0.2,0,0.3-0.2,0.3-0.3
					C98.2,17.7,98,17.6,97.9,17.6"/>
				<circle class="st5" cx="97.9" cy="17.9" r="0.3"/>
				<path class="st4" d="M97.9,35.4c-0.2,0-0.3,0.2-0.3,0.3s0.2,0.3,0.3,0.3c0.2,0,0.3-0.2,0.3-0.3S98,35.4,97.9,35.4"/>
				<circle class="st5" cx="97.9" cy="35.8" r="0.3"/>
				<path class="st4" d="M97.9,21.1c-0.2,0-0.3,0.2-0.3,0.3c0,0.2,0.2,0.3,0.3,0.3c0.2,0,0.3-0.2,0.3-0.3
					C98.2,21.3,98,21.1,97.9,21.1"/>
				<circle class="st5" cx="97.9" cy="21.5" r="0.3"/>
				<path class="st4" d="M97.9,28.3c-0.2,0-0.3,0.2-0.3,0.3c0,0.2,0.2,0.3,0.3,0.3c0.2,0,0.3-0.2,0.3-0.3
					C98.2,28.4,98,28.3,97.9,28.3"/>
				<circle class="st5" cx="97.9" cy="28.6" r="0.3"/>
				<path class="st4" d="M97.9,31.9c-0.2,0-0.3,0.2-0.3,0.3c0,0.2,0.2,0.3,0.3,0.3c0.2,0,0.3-0.2,0.3-0.3C98.2,32,98,31.9,97.9,31.9
					"/>
				<circle class="st5" cx="97.9" cy="32.2" r="0.3"/>
				<path class="st4" d="M102.5,17.6c-0.2,0-0.3,0.2-0.3,0.3c0,0.2,0.2,0.3,0.3,0.3c0.2,0,0.3-0.2,0.3-0.3
					C102.8,17.7,102.6,17.6,102.5,17.6"/>
				<circle class="st5" cx="102.5" cy="17.9" r="0.3"/>
				<path class="st4" d="M102.5,28.3c-0.2,0-0.3,0.2-0.3,0.3c0,0.2,0.2,0.3,0.3,0.3c0.2,0,0.3-0.2,0.3-0.3
					C102.8,28.4,102.6,28.3,102.5,28.3"/>
				<circle class="st5" cx="102.5" cy="28.6" r="0.3"/>
				<path class="st4" d="M102.5,24.7c-0.2,0-0.3,0.2-0.3,0.3c0,0.2,0.2,0.3,0.3,0.3c0.2,0,0.3-0.2,0.3-0.3
					C102.8,24.9,102.6,24.7,102.5,24.7"/>
				<circle class="st5" cx="102.5" cy="25.1" r="0.3"/>
				<path class="st4" d="M102.5,21.1c-0.2,0-0.3,0.2-0.3,0.3c0,0.2,0.2,0.3,0.3,0.3c0.2,0,0.3-0.2,0.3-0.3
					C102.8,21.3,102.6,21.1,102.5,21.1"/>
				<circle class="st5" cx="102.5" cy="21.5" r="0.3"/>
				<path class="st4" d="M102.5,39c-0.2,0-0.3,0.2-0.3,0.3s0.2,0.3,0.3,0.3c0.2,0,0.3-0.2,0.3-0.3S102.6,39,102.5,39"/>
				<circle class="st5" cx="102.5" cy="39.3" r="0.3"/>
				<path class="st4" d="M102.5,56.9c-0.2,0-0.3,0.2-0.3,0.3c0,0.2,0.2,0.3,0.3,0.3c0.2,0,0.3-0.2,0.3-0.3
					C102.8,57,102.6,56.9,102.5,56.9"/>
				<circle class="st5" cx="102.5" cy="57.2" r="0.3"/>
				<path class="st4" d="M102.5,35.4c-0.2,0-0.3,0.2-0.3,0.3s0.2,0.3,0.3,0.3c0.2,0,0.3-0.2,0.3-0.3S102.6,35.4,102.5,35.4"/>
				<circle class="st5" cx="102.5" cy="35.8" r="0.3"/>
				<path class="st4" d="M102.5,31.9c-0.2,0-0.3,0.2-0.3,0.3c0,0.2,0.2,0.3,0.3,0.3c0.2,0,0.3-0.2,0.3-0.3
					C102.8,32,102.6,31.9,102.5,31.9"/>
				<circle class="st5" cx="102.5" cy="32.2" r="0.3"/>
				<path class="st4" d="M102.5,53.3c-0.2,0-0.3,0.2-0.3,0.3s0.2,0.3,0.3,0.3c0.2,0,0.3-0.2,0.3-0.3S102.6,53.3,102.5,53.3"/>
				<circle class="st5" cx="102.5" cy="53.6" r="0.3"/>
				<path class="st4" d="M102.5,49.7c-0.2,0-0.3,0.2-0.3,0.3c0,0.2,0.2,0.3,0.3,0.3c0.2,0,0.3-0.2,0.3-0.3
					C102.8,49.9,102.6,49.7,102.5,49.7"/>
				<circle class="st5" cx="102.5" cy="50.1" r="0.3"/>
				<path class="st4" d="M102.5,46.1c-0.2,0-0.3,0.2-0.3,0.3c0,0.2,0.2,0.3,0.3,0.3c0.2,0,0.3-0.2,0.3-0.3
					C102.8,46.3,102.6,46.1,102.5,46.1"/>
				<circle class="st5" cx="102.5" cy="46.5" r="0.3"/>
				<path class="st4" d="M102.5,42.6c-0.2,0-0.3,0.2-0.3,0.3c0,0.2,0.2,0.3,0.3,0.3c0.2,0,0.3-0.2,0.3-0.3
					C102.8,42.7,102.6,42.6,102.5,42.6"/>
				<circle class="st5" cx="102.5" cy="42.9" r="0.3"/>
				<path class="st4" d="M107.1,46.1c-0.2,0-0.3,0.2-0.3,0.3c0,0.2,0.2,0.3,0.3,0.3c0.2,0,0.3-0.2,0.3-0.3
					C107.4,46.3,107.2,46.1,107.1,46.1"/>
				<circle class="st5" cx="107.1" cy="46.5" r="0.3"/>
				<path class="st4" d="M107.1,39c-0.2,0-0.3,0.2-0.3,0.3s0.2,0.3,0.3,0.3c0.2,0,0.3-0.2,0.3-0.3S107.2,39,107.1,39"/>
				<circle class="st5" cx="107.1" cy="39.3" r="0.3"/>
				<path class="st4" d="M107.1,42.6c-0.2,0-0.3,0.2-0.3,0.3c0,0.2,0.2,0.3,0.3,0.3c0.2,0,0.3-0.2,0.3-0.3
					C107.4,42.7,107.2,42.6,107.1,42.6"/>
				<circle class="st5" cx="107.1" cy="42.9" r="0.3"/>
				<path class="st4" d="M107.1,31.9c-0.2,0-0.3,0.2-0.3,0.3c0,0.2,0.2,0.3,0.3,0.3c0.2,0,0.3-0.2,0.3-0.3
					C107.4,32,107.2,31.9,107.1,31.9"/>
				<circle class="st5" cx="107.1" cy="32.2" r="0.3"/>
				<path class="st4" d="M107.1,35.4c-0.2,0-0.3,0.2-0.3,0.3s0.2,0.3,0.3,0.3c0.2,0,0.3-0.2,0.3-0.3S107.2,35.4,107.1,35.4"/>
				<circle class="st5" cx="107.1" cy="35.8" r="0.3"/>
				<path class="st4" d="M107.1,28.3c-0.2,0-0.3,0.2-0.3,0.3c0,0.2,0.2,0.3,0.3,0.3c0.2,0,0.3-0.2,0.3-0.3
					C107.4,28.4,107.2,28.3,107.1,28.3"/>
				<circle class="st5" cx="107.1" cy="28.6" r="0.3"/>
				<path class="st4" d="M107.1,21.1c-0.2,0-0.3,0.2-0.3,0.3c0,0.2,0.2,0.3,0.3,0.3c0.2,0,0.3-0.2,0.3-0.3
					C107.4,21.3,107.2,21.1,107.1,21.1"/>
				<circle class="st5" cx="107.1" cy="21.5" r="0.3"/>
				<path class="st4" d="M107.1,18.3c0.1,0,0.2,0,0.2-0.1c-0.2-0.1-0.4-0.2-0.6-0.3c0,0,0,0,0,0C106.7,18.1,106.9,18.3,107.1,18.3"
					/>
				<path class="st5" d="M107.1,18.3c0.1,0,0.2,0,0.2-0.1c-0.2-0.1-0.4-0.2-0.6-0.3c0,0,0,0,0,0C106.7,18.1,106.9,18.3,107.1,18.3z"
					/>
				<path class="st4" d="M107.1,24.7c-0.2,0-0.3,0.2-0.3,0.3c0,0.2,0.2,0.3,0.3,0.3c0.2,0,0.3-0.2,0.3-0.3
					C107.4,24.9,107.2,24.7,107.1,24.7"/>
				<circle class="st5" cx="107.1" cy="25.1" r="0.3"/>
				<path class="st4" d="M107.1,49.7c-0.2,0-0.3,0.2-0.3,0.3c0,0.2,0.2,0.3,0.3,0.3c0.2,0,0.3-0.2,0.3-0.3
					C107.4,49.9,107.2,49.7,107.1,49.7"/>
				<circle class="st5" cx="107.1" cy="50.1" r="0.3"/>
				<path class="st4" d="M107.1,53.3c-0.2,0-0.3,0.2-0.3,0.3s0.2,0.3,0.3,0.3c0.2,0,0.3-0.2,0.3-0.3S107.2,53.3,107.1,53.3"/>
				<circle class="st5" cx="107.1" cy="53.6" r="0.3"/>
				<path class="st4" d="M107.1,56.9c-0.2,0-0.3,0.2-0.3,0.3c0,0.2,0.2,0.3,0.3,0.3c0.2,0,0.3-0.2,0.3-0.3
					C107.4,57,107.2,56.9,107.1,56.9"/>
				<circle class="st5" cx="107.1" cy="57.2" r="0.3"/>
				<path class="st4" d="M111.6,28.3c-0.2,0-0.3,0.2-0.3,0.3c0,0.2,0.2,0.3,0.3,0.3c0.2,0,0.3-0.2,0.3-0.3
					C112,28.4,111.8,28.3,111.6,28.3"/>
				<circle class="st5" cx="111.6" cy="28.6" r="0.3"/>
				<path class="st4" d="M111.6,56.9c-0.2,0-0.3,0.2-0.3,0.3c0,0.2,0.2,0.3,0.3,0.3c0.2,0,0.3-0.2,0.3-0.3
					C112,57,111.8,56.9,111.6,56.9"/>
				<circle class="st5" cx="111.6" cy="57.2" r="0.3"/>
				<path class="st4" d="M111.6,53.3c-0.2,0-0.3,0.2-0.3,0.3s0.2,0.3,0.3,0.3c0.2,0,0.3-0.2,0.3-0.3S111.8,53.3,111.6,53.3"/>
				<circle class="st5" cx="111.6" cy="53.6" r="0.3"/>
				<path class="st4" d="M111.6,35.4c-0.2,0-0.3,0.2-0.3,0.3s0.2,0.3,0.3,0.3c0.2,0,0.3-0.2,0.3-0.3S111.8,35.4,111.6,35.4"/>
				<circle class="st5" cx="111.6" cy="35.8" r="0.3"/>
				<path class="st4" d="M111.6,24.7c-0.2,0-0.3,0.2-0.3,0.3c0,0.2,0.2,0.3,0.3,0.3c0.2,0,0.3-0.2,0.3-0.3
					C112,24.9,111.8,24.7,111.6,24.7"/>
				<circle class="st5" cx="111.6" cy="25.1" r="0.3"/>
				<path class="st4" d="M111.6,49.7c-0.2,0-0.3,0.2-0.3,0.3c0,0.2,0.2,0.3,0.3,0.3c0.2,0,0.3-0.2,0.3-0.3
					C112,49.9,111.8,49.7,111.6,49.7"/>
				<circle class="st5" cx="111.6" cy="50.1" r="0.3"/>
				<path class="st4" d="M111.6,21.1c-0.2,0-0.3,0.2-0.3,0.3c0,0.2,0.2,0.3,0.3,0.3c0.2,0,0.3-0.2,0.3-0.3
					C112,21.3,111.8,21.1,111.6,21.1"/>
				<circle class="st5" cx="111.6" cy="21.5" r="0.3"/>
				<path class="st4" d="M111.6,31.9c-0.2,0-0.3,0.2-0.3,0.3c0,0.2,0.2,0.3,0.3,0.3c0.2,0,0.3-0.2,0.3-0.3
					C112,32,111.8,31.9,111.6,31.9"/>
				<circle class="st5" cx="111.6" cy="32.2" r="0.3"/>
				<path class="st4" d="M111.6,42.6c-0.2,0-0.3,0.2-0.3,0.3c0,0.2,0.2,0.3,0.3,0.3c0.2,0,0.3-0.2,0.3-0.3
					C112,42.7,111.8,42.6,111.6,42.6"/>
				<circle class="st5" cx="111.6" cy="42.9" r="0.3"/>
				<path class="st4" d="M111.6,39c-0.2,0-0.3,0.2-0.3,0.3s0.2,0.3,0.3,0.3c0.2,0,0.3-0.2,0.3-0.3S111.8,39,111.6,39"/>
				<circle class="st5" cx="111.6" cy="39.3" r="0.3"/>
				<path class="st4" d="M111.6,46.1c-0.2,0-0.3,0.2-0.3,0.3c0,0.2,0.2,0.3,0.3,0.3c0.2,0,0.3-0.2,0.3-0.3
					C112,46.3,111.8,46.1,111.6,46.1"/>
				<circle class="st5" cx="111.6" cy="46.5" r="0.3"/>
				<path class="st4" d="M116.2,46.1c-0.2,0-0.3,0.2-0.3,0.3c0,0.2,0.2,0.3,0.3,0.3c0.2,0,0.3-0.2,0.3-0.3
					C116.6,46.3,116.4,46.1,116.2,46.1"/>
				<circle class="st5" cx="116.2" cy="46.5" r="0.3"/>
				<path class="st4" d="M116.2,42.6c-0.2,0-0.3,0.2-0.3,0.3c0,0.2,0.2,0.3,0.3,0.3c0.2,0,0.3-0.2,0.3-0.3
					C116.6,42.7,116.4,42.6,116.2,42.6"/>
				<circle class="st5" cx="116.2" cy="42.9" r="0.3"/>
				<path class="st4" d="M116.2,31.9c-0.2,0-0.3,0.2-0.3,0.3c0,0.2,0.2,0.3,0.3,0.3c0.2,0,0.3-0.2,0.3-0.3
					C116.6,32,116.4,31.9,116.2,31.9"/>
				<circle class="st5" cx="116.2" cy="32.2" r="0.3"/>
				<path class="st4" d="M116.2,24.7c-0.2,0-0.3,0.2-0.3,0.3c0,0.2,0.2,0.3,0.3,0.3c0.2,0,0.3-0.2,0.3-0.3
					C116.6,24.9,116.4,24.7,116.2,24.7"/>
				<circle class="st5" cx="116.2" cy="25.1" r="0.3"/>
				<path class="st4" d="M116.2,28.3c-0.2,0-0.3,0.2-0.3,0.3c0,0.2,0.2,0.3,0.3,0.3c0.2,0,0.3-0.2,0.3-0.3
					C116.6,28.4,116.4,28.3,116.2,28.3"/>
				<circle class="st5" cx="116.2" cy="28.6" r="0.3"/>
				<path class="st4" d="M116.2,39c-0.2,0-0.3,0.2-0.3,0.3s0.2,0.3,0.3,0.3c0.2,0,0.3-0.2,0.3-0.3S116.4,39,116.2,39"/>
				<circle class="st5" cx="116.2" cy="39.3" r="0.3"/>
				<path class="st4" d="M116.2,56.9c-0.2,0-0.3,0.2-0.3,0.3c0,0.2,0.2,0.3,0.3,0.3c0.2,0,0.3-0.2,0.3-0.3
					C116.6,57,116.4,56.9,116.2,56.9"/>
				<circle class="st5" cx="116.2" cy="57.2" r="0.3"/>
				<path class="st4" d="M116.2,35.4c-0.2,0-0.3,0.2-0.3,0.3s0.2,0.3,0.3,0.3c0.2,0,0.3-0.2,0.3-0.3S116.4,35.4,116.2,35.4"/>
				<circle class="st5" cx="116.2" cy="35.8" r="0.3"/>
				<path class="st4" d="M116.2,53.3c-0.2,0-0.3,0.2-0.3,0.3s0.2,0.3,0.3,0.3c0.2,0,0.3-0.2,0.3-0.3S116.4,53.3,116.2,53.3"/>
				<circle class="st5" cx="116.2" cy="53.6" r="0.3"/>
				<path class="st4" d="M116.2,49.7c-0.2,0-0.3,0.2-0.3,0.3c0,0.2,0.2,0.3,0.3,0.3c0.2,0,0.3-0.2,0.3-0.3
					C116.6,49.9,116.4,49.7,116.2,49.7"/>
				<circle class="st5" cx="116.2" cy="50.1" r="0.3"/>
				<path class="st4" d="M120.8,39c-0.2,0-0.3,0.2-0.3,0.3s0.2,0.3,0.3,0.3c0.2,0,0.3-0.2,0.3-0.3S121,39,120.8,39"/>
				<circle class="st5" cx="120.8" cy="39.3" r="0.3"/>
				<path class="st4" d="M120.8,46.1c-0.2,0-0.3,0.2-0.3,0.3c0,0.2,0.2,0.3,0.3,0.3c0.2,0,0.3-0.2,0.3-0.3
					C121.2,46.3,121,46.1,120.8,46.1"/>
				<circle class="st5" cx="120.8" cy="46.5" r="0.3"/>
				<path class="st4" d="M120.8,56.9c-0.2,0-0.3,0.2-0.3,0.3c0,0.2,0.2,0.3,0.3,0.3c0.2,0,0.3-0.2,0.3-0.3
					C121.2,57,121,56.9,120.8,56.9"/>
				<circle class="st5" cx="120.8" cy="57.2" r="0.3"/>
				<path class="st4" d="M120.8,49.7c-0.2,0-0.3,0.2-0.3,0.3c0,0.2,0.2,0.3,0.3,0.3c0.2,0,0.3-0.2,0.3-0.3
					C121.2,49.9,121,49.7,120.8,49.7"/>
				<circle class="st5" cx="120.8" cy="50.1" r="0.3"/>
				<path class="st4" d="M120.8,31.9c-0.2,0-0.3,0.2-0.3,0.3c0,0.2,0.2,0.3,0.3,0.3c0.2,0,0.3-0.2,0.3-0.3
					C121.2,32,121,31.9,120.8,31.9"/>
				<circle class="st5" cx="120.8" cy="32.2" r="0.3"/>
				<path class="st4" d="M120.8,35.4c-0.2,0-0.3,0.2-0.3,0.3s0.2,0.3,0.3,0.3c0.2,0,0.3-0.2,0.3-0.3S121,35.4,120.8,35.4"/>
				<circle class="st5" cx="120.8" cy="35.8" r="0.3"/>
				<path class="st4" d="M120.8,42.6c-0.2,0-0.3,0.2-0.3,0.3c0,0.2,0.2,0.3,0.3,0.3c0.2,0,0.3-0.2,0.3-0.3
					C121.2,42.7,121,42.6,120.8,42.6"/>
				<circle class="st5" cx="120.8" cy="42.9" r="0.3"/>
				<path class="st4" d="M120.8,53.3c-0.2,0-0.3,0.2-0.3,0.3s0.2,0.3,0.3,0.3c0.2,0,0.3-0.2,0.3-0.3S121,53.3,120.8,53.3"/>
				<circle class="st5" cx="120.8" cy="53.6" r="0.3"/>
				<path class="st4" d="M125.4,46.1c-0.2,0-0.3,0.2-0.3,0.3c0,0.2,0.2,0.3,0.3,0.3c0.2,0,0.3-0.2,0.3-0.3
					C125.8,46.3,125.6,46.1,125.4,46.1"/>
				<circle class="st5" cx="125.4" cy="46.5" r="0.3"/>
				<path class="st4" d="M125.4,43.3c0.2,0,0.3-0.2,0.3-0.3c0-0.2-0.2-0.3-0.3-0.3c-0.2,0-0.3,0.2-0.3,0.3
					C125.1,43.1,125.3,43.3,125.4,43.3"/>
				<circle class="st5" cx="125.4" cy="42.9" r="0.3"/>
				<path class="st4" d="M125.4,49.7c-0.2,0-0.3,0.2-0.3,0.3c0,0.2,0.2,0.3,0.3,0.3c0.2,0,0.3-0.2,0.3-0.3
					C125.8,49.9,125.6,49.7,125.4,49.7"/>
				<circle class="st5" cx="125.4" cy="50.1" r="0.3"/>
				<path class="st4" d="M125.4,56.9c-0.2,0-0.3,0.2-0.3,0.3c0,0.2,0.2,0.3,0.3,0.3c0.2,0,0.3-0.2,0.3-0.3
					C125.8,57,125.6,56.9,125.4,56.9"/>
				<circle class="st5" cx="125.4" cy="57.2" r="0.3"/>
				<path class="st4" d="M125.4,53.3c-0.2,0-0.3,0.2-0.3,0.3s0.2,0.3,0.3,0.3c0.2,0,0.3-0.2,0.3-0.3S125.6,53.3,125.4,53.3"/>
				<circle class="st5" cx="125.4" cy="53.6" r="0.3"/>
				<path class="st4" d="M125.4,39.7c-0.1-0.2-0.1-0.4-0.2-0.6c-0.1,0.1-0.1,0.2-0.1,0.3C125.1,39.5,125.2,39.7,125.4,39.7"/>
				<path class="st5" d="M125.4,39.7c-0.1-0.2-0.1-0.4-0.2-0.6c-0.1,0.1-0.1,0.2-0.1,0.3C125.1,39.5,125.2,39.7,125.4,39.7z"/>
				<path class="st4" d="M56.5,60.4c-0.1,0-0.3,0.1-0.3,0.2c0,0.1,0,0.2,0.1,0.3c0.1,0.1,0.1,0.1,0.2,0.1c0.2,0,0.3-0.2,0.3-0.3
					C56.8,60.6,56.7,60.4,56.5,60.4"/>
				<path class="st5" d="M56.5,60.4c-0.1,0-0.3,0.1-0.3,0.2c0,0.1,0,0.2,0.1,0.3c0.1,0.1,0.1,0.1,0.2,0.1c0.2,0,0.3-0.2,0.3-0.3
					C56.8,60.6,56.7,60.4,56.5,60.4z"/>
				<path class="st4" d="M61.1,67.6c-0.2,0-0.3,0.2-0.3,0.3c0,0.2,0.2,0.3,0.3,0.3c0.2,0,0.3-0.2,0.3-0.3
					C61.4,67.7,61.3,67.6,61.1,67.6"/>
				<circle class="st5" cx="61.1" cy="67.9" r="0.3"/>
				<path class="st4" d="M61.1,64c-0.2,0-0.3,0.2-0.3,0.3c0,0.2,0.2,0.3,0.3,0.3c0.2,0,0.3-0.2,0.3-0.3C61.4,64.2,61.3,64,61.1,64"
					/>
				<circle class="st5" cx="61.1" cy="64.3" r="0.3"/>
				<path class="st4" d="M61.1,71.1c-0.2,0-0.3,0.2-0.3,0.3s0.2,0.3,0.3,0.3c0.2,0,0.3-0.2,0.3-0.3S61.3,71.1,61.1,71.1"/>
				<circle class="st5" cx="61.1" cy="71.5" r="0.3"/>
				<path class="st4" d="M61.1,60.4c-0.2,0-0.3,0.2-0.3,0.3c0,0.2,0.2,0.3,0.3,0.3c0.2,0,0.3-0.2,0.3-0.3
					C61.4,60.6,61.3,60.4,61.1,60.4"/>
				<circle class="st5" cx="61.1" cy="60.8" r="0.3"/>
				<path class="st4" d="M65.7,60.4c-0.2,0-0.3,0.2-0.3,0.3c0,0.2,0.2,0.3,0.3,0.3c0.2,0,0.3-0.2,0.3-0.3
					C66,60.6,65.9,60.4,65.7,60.4"/>
				<circle class="st5" cx="65.7" cy="60.8" r="0.3"/>
				<path class="st4" d="M65.7,71.1c-0.2,0-0.3,0.2-0.3,0.3s0.2,0.3,0.3,0.3c0.2,0,0.3-0.2,0.3-0.3S65.9,71.1,65.7,71.1"/>
				<circle class="st5" cx="65.7" cy="71.5" r="0.3"/>
				<path class="st4" d="M65.7,64c-0.2,0-0.3,0.2-0.3,0.3c0,0.2,0.2,0.3,0.3,0.3c0.2,0,0.3-0.2,0.3-0.3C66,64.2,65.9,64,65.7,64"/>
				<circle class="st5" cx="65.7" cy="64.3" r="0.3"/>
				<path class="st4" d="M65.7,67.6c-0.2,0-0.3,0.2-0.3,0.3c0,0.2,0.2,0.3,0.3,0.3c0.2,0,0.3-0.2,0.3-0.3
					C66,67.7,65.9,67.6,65.7,67.6"/>
				<circle class="st5" cx="65.7" cy="67.9" r="0.3"/>
				<path class="st4" d="M65.7,78.3c-0.1,0-0.2,0-0.2,0.1c0.2,0.2,0.3,0.3,0.5,0.5c0.1-0.1,0.1-0.1,0.1-0.2
					C66,78.4,65.9,78.3,65.7,78.3"/>
				<path class="st5" d="M65.7,78.3c-0.1,0-0.2,0-0.2,0.1c0.2,0.2,0.3,0.3,0.5,0.5c0.1-0.1,0.1-0.1,0.1-0.2
					C66,78.4,65.9,78.3,65.7,78.3z"/>
				<path class="st4" d="M65.7,74.7c-0.2,0-0.3,0.2-0.3,0.3c0,0.2,0.2,0.3,0.3,0.3c0.2,0,0.3-0.2,0.3-0.3
					C66,74.9,65.9,74.7,65.7,74.7"/>
				<circle class="st5" cx="65.7" cy="75.1" r="0.3"/>
				<path class="st4" d="M70.3,60.4c-0.2,0-0.3,0.2-0.3,0.3c0,0.2,0.2,0.3,0.3,0.3c0.2,0,0.3-0.2,0.3-0.3
					C70.6,60.6,70.5,60.4,70.3,60.4"/>
				<circle class="st5" cx="70.3" cy="60.8" r="0.3"/>
				<path class="st4" d="M70.3,67.6c-0.2,0-0.3,0.2-0.3,0.3c0,0.2,0.2,0.3,0.3,0.3c0.2,0,0.3-0.2,0.3-0.3
					C70.6,67.7,70.5,67.6,70.3,67.6"/>
				<circle class="st5" cx="70.3" cy="67.9" r="0.3"/>
				<path class="st4" d="M70.3,78.3c-0.2,0-0.3,0.2-0.3,0.3c0,0.2,0.2,0.3,0.3,0.3c0.2,0,0.3-0.2,0.3-0.3
					C70.6,78.4,70.5,78.3,70.3,78.3"/>
				<circle class="st5" cx="70.3" cy="78.6" r="0.3"/>
				<path class="st4" d="M70.3,74.7c-0.2,0-0.3,0.2-0.3,0.3c0,0.2,0.2,0.3,0.3,0.3c0.2,0,0.3-0.2,0.3-0.3
					C70.6,74.9,70.5,74.7,70.3,74.7"/>
				<circle class="st5" cx="70.3" cy="75.1" r="0.3"/>
				<path class="st4" d="M70.3,71.1c-0.2,0-0.3,0.2-0.3,0.3s0.2,0.3,0.3,0.3c0.2,0,0.3-0.2,0.3-0.3S70.5,71.1,70.3,71.1"/>
				<circle class="st5" cx="70.3" cy="71.5" r="0.3"/>
				<path class="st4" d="M70.3,64c-0.2,0-0.3,0.2-0.3,0.3c0,0.2,0.2,0.3,0.3,0.3c0.2,0,0.3-0.2,0.3-0.3C70.6,64.2,70.5,64,70.3,64"
					/>
				<circle class="st5" cx="70.3" cy="64.3" r="0.3"/>
				<path class="st4" d="M70.3,81.9c-0.2,0-0.3,0.2-0.3,0.3c0,0.1,0,0.1,0,0.1c0.1,0.1,0.2,0.1,0.3,0.2c0,0,0,0,0,0
					c0.2,0,0.3-0.2,0.3-0.3C70.6,82,70.5,81.9,70.3,81.9"/>
				<path class="st5" d="M70.3,81.9c-0.2,0-0.3,0.2-0.3,0.3c0,0.1,0,0.1,0,0.1c0.1,0.1,0.2,0.1,0.3,0.2c0,0,0,0,0,0
					c0.2,0,0.3-0.2,0.3-0.3C70.6,82,70.5,81.9,70.3,81.9z"/>
				<path class="st4" d="M74.9,71.1c-0.2,0-0.3,0.2-0.3,0.3s0.2,0.3,0.3,0.3c0.2,0,0.3-0.2,0.3-0.3S75.1,71.1,74.9,71.1"/>
				<circle class="st5" cx="74.9" cy="71.5" r="0.3"/>
				<path class="st4" d="M74.9,74.7c-0.2,0-0.3,0.2-0.3,0.3c0,0.2,0.2,0.3,0.3,0.3c0.2,0,0.3-0.2,0.3-0.3
					C75.2,74.9,75.1,74.7,74.9,74.7"/>
				<circle class="st5" cx="74.9" cy="75.1" r="0.3"/>
				<path class="st4" d="M74.9,67.6c-0.2,0-0.3,0.2-0.3,0.3c0,0.2,0.2,0.3,0.3,0.3c0.2,0,0.3-0.2,0.3-0.3
					C75.2,67.7,75.1,67.6,74.9,67.6"/>
				<circle class="st5" cx="74.9" cy="67.9" r="0.3"/>
				<path class="st4" d="M74.9,60.4c-0.2,0-0.3,0.2-0.3,0.3c0,0.2,0.2,0.3,0.3,0.3c0.2,0,0.3-0.2,0.3-0.3
					C75.2,60.6,75.1,60.4,74.9,60.4"/>
				<circle class="st5" cx="74.9" cy="60.8" r="0.3"/>
				<path class="st4" d="M74.9,64c-0.2,0-0.3,0.2-0.3,0.3c0,0.2,0.2,0.3,0.3,0.3c0.2,0,0.3-0.2,0.3-0.3C75.2,64.2,75.1,64,74.9,64"
					/>
				<circle class="st5" cx="74.9" cy="64.3" r="0.3"/>
				<path class="st4" d="M74.9,78.3c-0.2,0-0.3,0.2-0.3,0.3c0,0.2,0.2,0.3,0.3,0.3c0.2,0,0.3-0.2,0.3-0.3
					C75.2,78.4,75.1,78.3,74.9,78.3"/>
				<circle class="st5" cx="74.9" cy="78.6" r="0.3"/>
				<path class="st4" d="M74.9,81.9c-0.2,0-0.3,0.2-0.3,0.3c0,0.2,0.2,0.3,0.3,0.3c0.2,0,0.3-0.2,0.3-0.3
					C75.2,82,75.1,81.9,74.9,81.9"/>
				<circle class="st5" cx="74.9" cy="82.2" r="0.3"/>
				<path class="st4" d="M79.5,60.4c-0.2,0-0.3,0.2-0.3,0.3c0,0.2,0.2,0.3,0.3,0.3c0.2,0,0.3-0.2,0.3-0.3
					C79.8,60.6,79.7,60.4,79.5,60.4"/>
				<circle class="st5" cx="79.5" cy="60.8" r="0.3"/>
				<path class="st4" d="M79.5,64c-0.2,0-0.3,0.2-0.3,0.3c0,0.2,0.2,0.3,0.3,0.3c0.2,0,0.3-0.2,0.3-0.3C79.8,64.2,79.7,64,79.5,64"
					/>
				<circle class="st5" cx="79.5" cy="64.3" r="0.3"/>
				<path class="st4" d="M79.5,78.3c-0.2,0-0.3,0.2-0.3,0.3c0,0.2,0.2,0.3,0.3,0.3c0.2,0,0.3-0.2,0.3-0.3
					C79.8,78.4,79.7,78.3,79.5,78.3"/>
				<circle class="st5" cx="79.5" cy="78.6" r="0.3"/>
				<path class="st4" d="M79.5,85.4c-0.2,0-0.3,0.2-0.3,0.3c0,0.2,0.2,0.3,0.3,0.3c0.2,0,0.3-0.2,0.3-0.3
					C79.8,85.6,79.7,85.4,79.5,85.4"/>
				<circle class="st5" cx="79.5" cy="85.8" r="0.3"/>
				<path class="st4" d="M79.5,81.9c-0.2,0-0.3,0.2-0.3,0.3c0,0.2,0.2,0.3,0.3,0.3c0.2,0,0.3-0.2,0.3-0.3
					C79.8,82,79.7,81.9,79.5,81.9"/>
				<circle class="st5" cx="79.5" cy="82.2" r="0.3"/>
				<path class="st4" d="M79.5,67.6c-0.2,0-0.3,0.2-0.3,0.3c0,0.2,0.2,0.3,0.3,0.3c0.2,0,0.3-0.2,0.3-0.3
					C79.8,67.7,79.7,67.6,79.5,67.6"/>
				<circle class="st5" cx="79.5" cy="67.9" r="0.3"/>
				<path class="st4" d="M79.5,74.7c-0.2,0-0.3,0.2-0.3,0.3c0,0.2,0.2,0.3,0.3,0.3c0.2,0,0.3-0.2,0.3-0.3
					C79.8,74.9,79.7,74.7,79.5,74.7"/>
				<circle class="st5" cx="79.5" cy="75.1" r="0.3"/>
				<path class="st4" d="M79.5,71.1c-0.2,0-0.3,0.2-0.3,0.3s0.2,0.3,0.3,0.3c0.2,0,0.3-0.2,0.3-0.3S79.7,71.1,79.5,71.1"/>
				<circle class="st5" cx="79.5" cy="71.5" r="0.3"/>
				<path class="st4" d="M84.1,60.4c-0.2,0-0.3,0.2-0.3,0.3c0,0.2,0.2,0.3,0.3,0.3c0.2,0,0.3-0.2,0.3-0.3
					C84.4,60.6,84.3,60.4,84.1,60.4"/>
				<circle class="st5" cx="84.1" cy="60.8" r="0.3"/>
				<path class="st4" d="M84.1,64c-0.2,0-0.3,0.2-0.3,0.3c0,0.2,0.2,0.3,0.3,0.3c0.2,0,0.3-0.2,0.3-0.3C84.4,64.2,84.3,64,84.1,64"
					/>
				<circle class="st5" cx="84.1" cy="64.3" r="0.3"/>
				<path class="st4" d="M84.1,85.4c-0.2,0-0.3,0.2-0.3,0.3c0,0.2,0.2,0.3,0.3,0.3c0.2,0,0.3-0.2,0.3-0.3
					C84.4,85.6,84.3,85.4,84.1,85.4"/>
				<circle class="st5" cx="84.1" cy="85.8" r="0.3"/>
				<path class="st4" d="M84.1,67.6c-0.2,0-0.3,0.2-0.3,0.3c0,0.2,0.2,0.3,0.3,0.3c0.2,0,0.3-0.2,0.3-0.3
					C84.4,67.7,84.3,67.6,84.1,67.6"/>
				<circle class="st5" cx="84.1" cy="67.9" r="0.3"/>
				<path class="st4" d="M84.1,74.7c-0.2,0-0.3,0.2-0.3,0.3c0,0.2,0.2,0.3,0.3,0.3c0.2,0,0.3-0.2,0.3-0.3
					C84.4,74.9,84.3,74.7,84.1,74.7"/>
				<circle class="st5" cx="84.1" cy="75.1" r="0.3"/>
				<path class="st4" d="M84.1,78.3c-0.2,0-0.3,0.2-0.3,0.3c0,0.2,0.2,0.3,0.3,0.3c0.2,0,0.3-0.2,0.3-0.3
					C84.4,78.4,84.3,78.3,84.1,78.3"/>
				<circle class="st5" cx="84.1" cy="78.6" r="0.3"/>
				<path class="st4" d="M84.1,71.1c-0.2,0-0.3,0.2-0.3,0.3s0.2,0.3,0.3,0.3c0.2,0,0.3-0.2,0.3-0.3S84.3,71.1,84.1,71.1"/>
				<circle class="st5" cx="84.1" cy="71.5" r="0.3"/>
				<path class="st4" d="M84.1,81.9c-0.2,0-0.3,0.2-0.3,0.3c0,0.2,0.2,0.3,0.3,0.3c0.2,0,0.3-0.2,0.3-0.3
					C84.4,82,84.3,81.9,84.1,81.9"/>
				<circle class="st5" cx="84.1" cy="82.2" r="0.3"/>
				<path class="st4" d="M88.7,89c-0.1,0-0.2,0-0.2,0.1c0,0-0.1,0.1-0.1,0.1c0.2,0,0.4,0,0.6,0c0-0.1,0-0.1-0.1-0.2
					C88.8,89,88.8,89,88.7,89"/>
				<path class="st5" d="M88.7,89c-0.1,0-0.2,0-0.2,0.1c0,0-0.1,0.1-0.1,0.1c0.2,0,0.4,0,0.6,0c0-0.1,0-0.1-0.1-0.2
					C88.8,89,88.8,89,88.7,89z"/>
				<path class="st4" d="M88.7,60.4c-0.2,0-0.3,0.2-0.3,0.3c0,0.2,0.2,0.3,0.3,0.3c0.2,0,0.3-0.2,0.3-0.3
					C89,60.6,88.9,60.4,88.7,60.4"/>
				<circle class="st5" cx="88.7" cy="60.8" r="0.3"/>
				<path class="st4" d="M88.7,85.4c-0.2,0-0.3,0.2-0.3,0.3c0,0.2,0.2,0.3,0.3,0.3c0.2,0,0.3-0.2,0.3-0.3
					C89,85.6,88.9,85.4,88.7,85.4"/>
				<circle class="st5" cx="88.7" cy="85.8" r="0.3"/>
				<path class="st4" d="M88.7,81.9c-0.2,0-0.3,0.2-0.3,0.3c0,0.2,0.2,0.3,0.3,0.3c0.2,0,0.3-0.2,0.3-0.3C89,82,88.9,81.9,88.7,81.9
					"/>
				<circle class="st5" cx="88.7" cy="82.2" r="0.3"/>
				<path class="st4" d="M88.7,74.7c-0.2,0-0.3,0.2-0.3,0.3c0,0.2,0.2,0.3,0.3,0.3c0.2,0,0.3-0.2,0.3-0.3
					C89,74.9,88.9,74.7,88.7,74.7"/>
				<circle class="st5" cx="88.7" cy="75.1" r="0.3"/>
				<path class="st4" d="M88.7,71.1c-0.2,0-0.3,0.2-0.3,0.3s0.2,0.3,0.3,0.3c0.2,0,0.3-0.2,0.3-0.3S88.9,71.1,88.7,71.1"/>
				<circle class="st5" cx="88.7" cy="71.5" r="0.3"/>
				<path class="st4" d="M88.7,67.6c-0.2,0-0.3,0.2-0.3,0.3c0,0.2,0.2,0.3,0.3,0.3c0.2,0,0.3-0.2,0.3-0.3
					C89,67.7,88.9,67.6,88.7,67.6"/>
				<circle class="st5" cx="88.7" cy="67.9" r="0.3"/>
				<path class="st4" d="M88.7,64c-0.2,0-0.3,0.2-0.3,0.3c0,0.2,0.2,0.3,0.3,0.3c0.2,0,0.3-0.2,0.3-0.3C89,64.2,88.9,64,88.7,64"/>
				<circle class="st5" cx="88.7" cy="64.3" r="0.3"/>
				<path class="st4" d="M88.7,78.3c-0.2,0-0.3,0.2-0.3,0.3c0,0.2,0.2,0.3,0.3,0.3c0.2,0,0.3-0.2,0.3-0.3
					C89,78.4,88.9,78.3,88.7,78.3"/>
				<circle class="st5" cx="88.7" cy="78.6" r="0.3"/>
				<path class="st4" d="M93.3,89c-0.1,0-0.2,0-0.2,0.1c-0.1,0.1-0.1,0.1-0.1,0.2c0.2,0,0.4,0,0.7,0c0-0.1,0-0.1-0.1-0.2
					C93.4,89,93.4,89,93.3,89"/>
				<path class="st5" d="M93.3,89c-0.1,0-0.2,0-0.2,0.1c-0.1,0.1-0.1,0.1-0.1,0.2c0.2,0,0.4,0,0.7,0c0-0.1,0-0.1-0.1-0.2
					C93.4,89,93.4,89,93.3,89z"/>
				<path class="st4" d="M93.3,60.4c-0.2,0-0.3,0.2-0.3,0.3c0,0.2,0.2,0.3,0.3,0.3c0.2,0,0.3-0.2,0.3-0.3
					C93.6,60.6,93.4,60.4,93.3,60.4"/>
				<circle class="st5" cx="93.3" cy="60.8" r="0.3"/>
				<path class="st4" d="M93.3,67.6c-0.2,0-0.3,0.2-0.3,0.3c0,0.2,0.2,0.3,0.3,0.3c0.2,0,0.3-0.2,0.3-0.3
					C93.6,67.7,93.4,67.6,93.3,67.6"/>
				<circle class="st5" cx="93.3" cy="67.9" r="0.3"/>
				<path class="st4" d="M93.3,71.1c-0.2,0-0.3,0.2-0.3,0.3s0.2,0.3,0.3,0.3c0.2,0,0.3-0.2,0.3-0.3S93.4,71.1,93.3,71.1"/>
				<circle class="st5" cx="93.3" cy="71.5" r="0.3"/>
				<path class="st4" d="M93.3,74.7c-0.2,0-0.3,0.2-0.3,0.3c0,0.2,0.2,0.3,0.3,0.3c0.2,0,0.3-0.2,0.3-0.3
					C93.6,74.9,93.4,74.7,93.3,74.7"/>
				<circle class="st5" cx="93.3" cy="75.1" r="0.3"/>
				<path class="st4" d="M93.3,78.3c-0.2,0-0.3,0.2-0.3,0.3c0,0.2,0.2,0.3,0.3,0.3c0.2,0,0.3-0.2,0.3-0.3
					C93.6,78.4,93.4,78.3,93.3,78.3"/>
				<circle class="st5" cx="93.3" cy="78.6" r="0.3"/>
				<path class="st4" d="M93.3,64c-0.2,0-0.3,0.2-0.3,0.3c0,0.2,0.2,0.3,0.3,0.3c0.2,0,0.3-0.2,0.3-0.3C93.6,64.2,93.4,64,93.3,64"
					/>
				<circle class="st5" cx="93.3" cy="64.3" r="0.3"/>
				<path class="st4" d="M93.3,81.9c-0.2,0-0.3,0.2-0.3,0.3c0,0.2,0.2,0.3,0.3,0.3c0.2,0,0.3-0.2,0.3-0.3
					C93.6,82,93.4,81.9,93.3,81.9"/>
				<circle class="st5" cx="93.3" cy="82.2" r="0.3"/>
				<path class="st4" d="M93.3,85.4c-0.2,0-0.3,0.2-0.3,0.3c0,0.2,0.2,0.3,0.3,0.3c0.2,0,0.3-0.2,0.3-0.3
					C93.6,85.6,93.4,85.4,93.3,85.4"/>
				<circle class="st5" cx="93.3" cy="85.8" r="0.3"/>
				<path class="st4" d="M97.9,60.4c-0.2,0-0.3,0.2-0.3,0.3c0,0.2,0.2,0.3,0.3,0.3c0.2,0,0.3-0.2,0.3-0.3
					C98.2,60.6,98,60.4,97.9,60.4"/>
				<circle class="st5" cx="97.9" cy="60.8" r="0.3"/>
				<path class="st4" d="M97.9,64c-0.2,0-0.3,0.2-0.3,0.3c0,0.2,0.2,0.3,0.3,0.3c0.2,0,0.3-0.2,0.3-0.3C98.2,64.2,98,64,97.9,64"/>
				<circle class="st5" cx="97.9" cy="64.3" r="0.3"/>
				<path class="st4" d="M97.9,78.3c-0.2,0-0.3,0.2-0.3,0.3c0,0.2,0.2,0.3,0.3,0.3c0.2,0,0.3-0.2,0.3-0.3
					C98.2,78.4,98,78.3,97.9,78.3"/>
				<circle class="st5" cx="97.9" cy="78.6" r="0.3"/>
				<path class="st4" d="M97.9,85.4c-0.2,0-0.3,0.2-0.3,0.3c0,0.2,0.2,0.3,0.3,0.3c0.2,0,0.3-0.2,0.3-0.3
					C98.2,85.6,98,85.4,97.9,85.4"/>
				<circle class="st5" cx="97.9" cy="85.8" r="0.3"/>
				<path class="st4" d="M97.9,67.6c-0.2,0-0.3,0.2-0.3,0.3c0,0.2,0.2,0.3,0.3,0.3c0.2,0,0.3-0.2,0.3-0.3
					C98.2,67.7,98,67.6,97.9,67.6"/>
				<circle class="st5" cx="97.9" cy="67.9" r="0.3"/>
				<path class="st4" d="M97.9,81.9c-0.2,0-0.3,0.2-0.3,0.3c0,0.2,0.2,0.3,0.3,0.3c0.2,0,0.3-0.2,0.3-0.3C98.2,82,98,81.9,97.9,81.9
					"/>
				<circle class="st5" cx="97.9" cy="82.2" r="0.3"/>
				<path class="st4" d="M97.9,74.7c-0.2,0-0.3,0.2-0.3,0.3c0,0.2,0.2,0.3,0.3,0.3c0.2,0,0.3-0.2,0.3-0.3
					C98.2,74.9,98,74.7,97.9,74.7"/>
				<circle class="st5" cx="97.9" cy="75.1" r="0.3"/>
				<path class="st4" d="M97.9,71.1c-0.2,0-0.3,0.2-0.3,0.3s0.2,0.3,0.3,0.3c0.2,0,0.3-0.2,0.3-0.3S98,71.1,97.9,71.1"/>
				<circle class="st5" cx="97.9" cy="71.5" r="0.3"/>
				<path class="st4" d="M102.5,85.4c-0.2,0-0.3,0.2-0.3,0.3c0,0.2,0.2,0.3,0.3,0.3c0.2,0,0.3-0.2,0.3-0.3
					C102.8,85.6,102.6,85.4,102.5,85.4"/>
				<circle class="st5" cx="102.5" cy="85.8" r="0.3"/>
				<path class="st4" d="M102.5,74.7c-0.2,0-0.3,0.2-0.3,0.3c0,0.2,0.2,0.3,0.3,0.3c0.2,0,0.3-0.2,0.3-0.3
					C102.8,74.9,102.6,74.7,102.5,74.7"/>
				<circle class="st5" cx="102.5" cy="75.1" r="0.3"/>
				<path class="st4" d="M102.5,78.3c-0.2,0-0.3,0.2-0.3,0.3c0,0.2,0.2,0.3,0.3,0.3c0.2,0,0.3-0.2,0.3-0.3
					C102.8,78.4,102.6,78.3,102.5,78.3"/>
				<circle class="st5" cx="102.5" cy="78.6" r="0.3"/>
				<path class="st4" d="M102.5,81.9c-0.2,0-0.3,0.2-0.3,0.3c0,0.2,0.2,0.3,0.3,0.3c0.2,0,0.3-0.2,0.3-0.3
					C102.8,82,102.6,81.9,102.5,81.9"/>
				<circle class="st5" cx="102.5" cy="82.2" r="0.3"/>
				<path class="st4" d="M102.5,64c-0.2,0-0.3,0.2-0.3,0.3c0,0.2,0.2,0.3,0.3,0.3c0.2,0,0.3-0.2,0.3-0.3
					C102.8,64.2,102.6,64,102.5,64"/>
				<circle class="st5" cx="102.5" cy="64.3" r="0.3"/>
				<path class="st4" d="M102.5,67.6c-0.2,0-0.3,0.2-0.3,0.3c0,0.2,0.2,0.3,0.3,0.3c0.2,0,0.3-0.2,0.3-0.3
					C102.8,67.7,102.6,67.6,102.5,67.6"/>
				<circle class="st5" cx="102.5" cy="67.9" r="0.3"/>
				<path class="st4" d="M102.5,71.1c-0.2,0-0.3,0.2-0.3,0.3s0.2,0.3,0.3,0.3c0.2,0,0.3-0.2,0.3-0.3S102.6,71.1,102.5,71.1"/>
				<circle class="st5" cx="102.5" cy="71.5" r="0.3"/>
				<path class="st4" d="M102.5,60.4c-0.2,0-0.3,0.2-0.3,0.3c0,0.2,0.2,0.3,0.3,0.3c0.2,0,0.3-0.2,0.3-0.3
					C102.8,60.6,102.6,60.4,102.5,60.4"/>
				<circle class="st5" cx="102.5" cy="60.8" r="0.3"/>
				<path class="st4" d="M107.1,64c-0.2,0-0.3,0.2-0.3,0.3c0,0.2,0.2,0.3,0.3,0.3c0.2,0,0.3-0.2,0.3-0.3
					C107.4,64.2,107.2,64,107.1,64"/>
				<circle class="st5" cx="107.1" cy="64.3" r="0.3"/>
				<path class="st4" d="M107.1,60.4c-0.2,0-0.3,0.2-0.3,0.3c0,0.2,0.2,0.3,0.3,0.3c0.2,0,0.3-0.2,0.3-0.3
					C107.4,60.6,107.2,60.4,107.1,60.4"/>
				<circle class="st5" cx="107.1" cy="60.8" r="0.3"/>
				<path class="st4" d="M107.1,71.1c-0.2,0-0.3,0.2-0.3,0.3s0.2,0.3,0.3,0.3c0.2,0,0.3-0.2,0.3-0.3S107.2,71.1,107.1,71.1"/>
				<circle class="st5" cx="107.1" cy="71.5" r="0.3"/>
				<path class="st4" d="M107.1,67.6c-0.2,0-0.3,0.2-0.3,0.3c0,0.2,0.2,0.3,0.3,0.3c0.2,0,0.3-0.2,0.3-0.3
					C107.4,67.7,107.2,67.6,107.1,67.6"/>
				<circle class="st5" cx="107.1" cy="67.9" r="0.3"/>
				<path class="st4" d="M107.1,74.7c-0.2,0-0.3,0.2-0.3,0.3c0,0.2,0.2,0.3,0.3,0.3c0.2,0,0.3-0.2,0.3-0.3
					C107.4,74.9,107.2,74.7,107.1,74.7"/>
				<circle class="st5" cx="107.1" cy="75.1" r="0.3"/>
				<path class="st4" d="M107.1,81.9c-0.2,0-0.3,0.2-0.3,0.3c0,0.2,0.2,0.3,0.3,0.3c0.2,0,0.3-0.2,0.3-0.3
					C107.4,82,107.2,81.9,107.1,81.9"/>
				<circle class="st5" cx="107.1" cy="82.2" r="0.3"/>
				<path class="st4" d="M106.7,85.8C106.7,85.8,106.7,85.8,106.7,85.8c0.2,0,0.4-0.1,0.6-0.2c-0.1-0.1-0.1-0.1-0.2-0.1
					C106.9,85.4,106.7,85.6,106.7,85.8"/>
				<path class="st5" d="M106.7,85.8C106.7,85.8,106.7,85.8,106.7,85.8c0.2,0,0.4-0.1,0.6-0.2c-0.1-0.1-0.1-0.1-0.2-0.1
					C106.9,85.4,106.7,85.6,106.7,85.8z"/>
				<path class="st4" d="M107.1,78.3c-0.2,0-0.3,0.2-0.3,0.3c0,0.2,0.2,0.3,0.3,0.3c0.2,0,0.3-0.2,0.3-0.3
					C107.4,78.4,107.2,78.3,107.1,78.3"/>
				<circle class="st5" cx="107.1" cy="78.6" r="0.3"/>
				<path class="st4" d="M111.6,74.7c-0.2,0-0.3,0.2-0.3,0.3c0,0.2,0.2,0.3,0.3,0.3c0.2,0,0.3-0.2,0.3-0.3
					C112,74.9,111.8,74.7,111.6,74.7"/>
				<circle class="st5" cx="111.6" cy="75.1" r="0.3"/>
				<path class="st4" d="M111.6,67.6c-0.2,0-0.3,0.2-0.3,0.3c0,0.2,0.2,0.3,0.3,0.3c0.2,0,0.3-0.2,0.3-0.3
					C112,67.7,111.8,67.6,111.6,67.6"/>
				<circle class="st5" cx="111.6" cy="67.9" r="0.3"/>
				<path class="st4" d="M111.6,78.3c-0.2,0-0.3,0.2-0.3,0.3c0,0.2,0.2,0.3,0.3,0.3c0.2,0,0.3-0.2,0.3-0.3
					C112,78.4,111.8,78.3,111.6,78.3"/>
				<circle class="st5" cx="111.6" cy="78.6" r="0.3"/>
				<path class="st4" d="M111.6,81.9c-0.2,0-0.3,0.2-0.3,0.3c0,0.2,0.2,0.3,0.3,0.3c0.2,0,0.3-0.2,0.3-0.3
					C112,82,111.8,81.9,111.6,81.9"/>
				<circle class="st5" cx="111.6" cy="82.2" r="0.3"/>
				<path class="st4" d="M111.6,71.1c-0.2,0-0.3,0.2-0.3,0.3s0.2,0.3,0.3,0.3c0.2,0,0.3-0.2,0.3-0.3S111.8,71.1,111.6,71.1"/>
				<circle class="st5" cx="111.6" cy="71.5" r="0.3"/>
				<path class="st4" d="M111.6,60.4c-0.2,0-0.3,0.2-0.3,0.3c0,0.2,0.2,0.3,0.3,0.3c0.2,0,0.3-0.2,0.3-0.3
					C112,60.6,111.8,60.4,111.6,60.4"/>
				<circle class="st5" cx="111.6" cy="60.8" r="0.3"/>
				<path class="st4" d="M111.6,64c-0.2,0-0.3,0.2-0.3,0.3c0,0.2,0.2,0.3,0.3,0.3c0.2,0,0.3-0.2,0.3-0.3C112,64.2,111.8,64,111.6,64
					"/>
				<circle class="st5" cx="111.6" cy="64.3" r="0.3"/>
				<path class="st4" d="M116.2,60.4c-0.2,0-0.3,0.2-0.3,0.3c0,0.2,0.2,0.3,0.3,0.3c0.2,0,0.3-0.2,0.3-0.3
					C116.6,60.6,116.4,60.4,116.2,60.4"/>
				<circle class="st5" cx="116.2" cy="60.8" r="0.3"/>
				<path class="st4" d="M116.2,71.1c-0.2,0-0.3,0.2-0.3,0.3s0.2,0.3,0.3,0.3c0.2,0,0.3-0.2,0.3-0.3S116.4,71.1,116.2,71.1"/>
				<circle class="st5" cx="116.2" cy="71.5" r="0.3"/>
				<path class="st4" d="M116.2,78.3c-0.2,0-0.3,0.2-0.3,0.3c0,0.2,0.2,0.3,0.3,0.3c0.2,0,0.3-0.2,0.3-0.3
					C116.6,78.4,116.4,78.3,116.2,78.3"/>
				<circle class="st5" cx="116.2" cy="78.6" r="0.3"/>
				<path class="st4" d="M116.2,74.7c-0.2,0-0.3,0.2-0.3,0.3c0,0.2,0.2,0.3,0.3,0.3c0.2,0,0.3-0.2,0.3-0.3
					C116.6,74.9,116.4,74.7,116.2,74.7"/>
				<circle class="st5" cx="116.2" cy="75.1" r="0.3"/>
				<path class="st4" d="M116.2,64c-0.2,0-0.3,0.2-0.3,0.3c0,0.2,0.2,0.3,0.3,0.3c0.2,0,0.3-0.2,0.3-0.3
					C116.6,64.2,116.4,64,116.2,64"/>
				<circle class="st5" cx="116.2" cy="64.3" r="0.3"/>
				<path class="st4" d="M116.2,67.6c-0.2,0-0.3,0.2-0.3,0.3c0,0.2,0.2,0.3,0.3,0.3c0.2,0,0.3-0.2,0.3-0.3
					C116.6,67.7,116.4,67.6,116.2,67.6"/>
				<circle class="st5" cx="116.2" cy="67.9" r="0.3"/>
				<path class="st4" d="M120.8,64c-0.2,0-0.3,0.2-0.3,0.3c0,0.2,0.2,0.3,0.3,0.3c0.2,0,0.3-0.2,0.3-0.3C121.2,64.2,121,64,120.8,64
					"/>
				<circle class="st5" cx="120.8" cy="64.3" r="0.3"/>
				<path class="st4" d="M120.8,71.1c-0.2,0-0.3,0.2-0.3,0.3s0.2,0.3,0.3,0.3c0.2,0,0.3-0.2,0.3-0.3S121,71.1,120.8,71.1"/>
				<circle class="st5" cx="120.8" cy="71.5" r="0.3"/>
				<path class="st4" d="M120.8,67.6c-0.2,0-0.3,0.2-0.3,0.3c0,0.2,0.2,0.3,0.3,0.3c0.2,0,0.3-0.2,0.3-0.3
					C121.2,67.7,121,67.6,120.8,67.6"/>
				<circle class="st5" cx="120.8" cy="67.9" r="0.3"/>
				<path class="st4" d="M120.8,60.4c-0.2,0-0.3,0.2-0.3,0.3c0,0.2,0.2,0.3,0.3,0.3c0.2,0,0.3-0.2,0.3-0.3
					C121.2,60.6,121,60.4,120.8,60.4"/>
				<circle class="st5" cx="120.8" cy="60.8" r="0.3"/>
				<path class="st4" d="M125.4,60.4c-0.2,0-0.3,0.2-0.3,0.3c0,0.2,0.2,0.3,0.3,0.3c0.2,0,0.3-0.2,0.3-0.3
					C125.8,60.6,125.6,60.4,125.4,60.4"/>
				<circle class="st5" cx="125.4" cy="60.8" r="0.3"/>
				<path class="st4" d="M125.1,64.3c0,0.1,0.1,0.2,0.1,0.3c0.1-0.2,0.1-0.4,0.2-0.6C125.2,64,125.1,64.2,125.1,64.3"/>
				<path class="st5" d="M125.1,64.3c0,0.1,0.1,0.2,0.1,0.3c0.1-0.2,0.1-0.4,0.2-0.6C125.2,64,125.1,64.2,125.1,64.3z"/>
			</g>
		</g>
	</g>
</g>
</svg>
